G04 #@! TF.FileFunction,Copper,L1,Top,Signal*
%FSLAX46Y46*%
G04 Gerber Fmt 4.6, Leading zero omitted, Abs format (unit mm)*
G04 Created by KiCad (PCBNEW 4.0.6) date 04/02/17 00:21:03*
%MOMM*%
%LPD*%
G01*
G04 APERTURE LIST*
%ADD10C,0.100000*%
%ADD11R,1.200000X0.900000*%
%ADD12R,1.549400X0.599440*%
%ADD13R,1.798320X1.198880*%
%ADD14C,1.305560*%
%ADD15C,1.422400*%
%ADD16R,0.800000X0.800000*%
%ADD17C,15.500000*%
%ADD18C,0.800000*%
%ADD19C,0.685800*%
%ADD20C,0.406400*%
%ADD21C,0.203200*%
G04 APERTURE END LIST*
D10*
D11*
X156676000Y-92213600D03*
X154476000Y-92213600D03*
D12*
X151127460Y-87630000D03*
X151127460Y-88630760D03*
X151127460Y-89631520D03*
X151127460Y-90629740D03*
X151127460Y-91627960D03*
X151127460Y-92628720D03*
D13*
X148904960Y-86332060D03*
X148904960Y-93929200D03*
D12*
X143512540Y-92710000D03*
X143512540Y-91709240D03*
X143512540Y-90708480D03*
X143512540Y-89710260D03*
X143512540Y-88712040D03*
X143512540Y-87711280D03*
D13*
X145735040Y-94007940D03*
X145735040Y-86410800D03*
D14*
X146661000Y-120500000D03*
X146661000Y-122498980D03*
X148659980Y-120500000D03*
X148659980Y-122498980D03*
X150658960Y-120500000D03*
X150658960Y-122498980D03*
X152660480Y-120500000D03*
X152660480Y-122498980D03*
X154659460Y-120500000D03*
X154659460Y-122498980D03*
X156660980Y-120500000D03*
X156660980Y-122498980D03*
X158659960Y-120500000D03*
X158659960Y-122498980D03*
D15*
X160021000Y-85863600D03*
D16*
X131534000Y-115070000D03*
X133134000Y-115070000D03*
X135852000Y-115070000D03*
X137452000Y-115070000D03*
X159220000Y-115070000D03*
X160820000Y-115070000D03*
X163792000Y-115070000D03*
X165392000Y-115070000D03*
X158331000Y-92210000D03*
X159931000Y-92210000D03*
D17*
X134600000Y-105100000D03*
X162200000Y-105050000D03*
D18*
X153060400Y-109418500D03*
X151130000Y-105926000D03*
X142925800Y-121407300D03*
X147040600Y-116428900D03*
X156845000Y-90805000D03*
X162763200Y-118664100D03*
X159308800Y-118511700D03*
D19*
X145542000Y-89408000D03*
X154559000Y-96520000D03*
X164338000Y-92456000D03*
D18*
X152476200Y-88692100D03*
X153339800Y-85326600D03*
X160197800Y-93403800D03*
X141808200Y-92705300D03*
X149034500Y-124366400D03*
X141706600Y-90673300D03*
X153454100Y-87511000D03*
D19*
X146227800Y-91486100D03*
X142582900Y-99207700D03*
X137439400Y-96375600D03*
X145465800Y-95423100D03*
X148145500Y-95423100D03*
X146024600Y-105951400D03*
X153238200Y-98877500D03*
D18*
X151688800Y-113038000D03*
X156375100Y-116594000D03*
X141528800Y-110459900D03*
D19*
X145491200Y-102738300D03*
X131356100Y-116390800D03*
X160566100Y-116759100D03*
X156464000Y-112034700D03*
X150482300Y-111514000D03*
X159029400Y-116581300D03*
X137668000Y-116378100D03*
X166192200Y-116581300D03*
X147993100Y-107056300D03*
X150964900Y-118892700D03*
X150444200Y-103093900D03*
X151625300Y-111577500D03*
X151549100Y-107577000D03*
X152349200Y-110205900D03*
X155536900Y-113177700D03*
X149529800Y-108224700D03*
X150329900Y-108694600D03*
X155397200Y-119019700D03*
X150749000Y-106942000D03*
X160020000Y-96718500D03*
X163842700Y-96413700D03*
X160934400Y-90736800D03*
X162941000Y-88577800D03*
X155448000Y-98814000D03*
X145300700Y-106624500D03*
X148272500Y-102928800D03*
X146405600Y-108326300D03*
X163804600Y-93492700D03*
X157911800Y-93530800D03*
X144437100Y-110028100D03*
X142354300Y-101455600D03*
X145542000Y-92298900D03*
X163207700Y-90305000D03*
X154774900Y-99652200D03*
X153149300Y-101900100D03*
X154749500Y-97798000D03*
X149352000Y-103220900D03*
X145415000Y-108224700D03*
X162788600Y-92972000D03*
X154393900Y-95448500D03*
X152488900Y-116860700D03*
X150431500Y-104148000D03*
X145186400Y-103601900D03*
X145364200Y-113495200D03*
X139153900Y-89593800D03*
X147421600Y-98852100D03*
X146380200Y-99880800D03*
X138099800Y-95689800D03*
X150698200Y-94648400D03*
X151815800Y-94546800D03*
X152920700Y-94292800D03*
X142049500Y-96680400D03*
D20*
X153060400Y-109418500D02*
X153060400Y-107856400D01*
X151765000Y-106561000D02*
X151130000Y-105926000D01*
X153060400Y-107856400D02*
X151765000Y-106561000D01*
X145453100Y-119095900D02*
X145453100Y-118016400D01*
X145453100Y-119095900D02*
X143497300Y-121051700D01*
X143497300Y-121051700D02*
X143281400Y-121051700D01*
X143281400Y-121051700D02*
X142925800Y-121407300D01*
X145453100Y-118016400D02*
X147040600Y-116428900D01*
X156845000Y-90805000D02*
X158496000Y-90805000D01*
X158496000Y-90805000D02*
X159893000Y-92202000D01*
X162763200Y-118664100D02*
X162610800Y-118511700D01*
X162610800Y-118511700D02*
X159308800Y-118511700D01*
D21*
X143512540Y-91709240D02*
X143510000Y-91694000D01*
X143510000Y-91694000D02*
X144399000Y-91694000D01*
X144399000Y-91694000D02*
X145542000Y-90551000D01*
X145542000Y-90551000D02*
X145542000Y-89408000D01*
X155067000Y-96012000D02*
X154559000Y-96520000D01*
X162560000Y-96012000D02*
X155067000Y-96012000D01*
X162687000Y-95885000D02*
X162560000Y-96012000D01*
X162814000Y-95885000D02*
X162687000Y-95885000D01*
X163195000Y-95504000D02*
X162814000Y-95885000D01*
X163195000Y-95377000D02*
X163195000Y-95504000D01*
X163322000Y-95250000D02*
X163195000Y-95377000D01*
X163322000Y-95123000D02*
X163322000Y-95250000D01*
X164465000Y-93980000D02*
X163322000Y-95123000D01*
X164465000Y-92583000D02*
X164465000Y-93980000D01*
X164338000Y-92456000D02*
X164465000Y-92583000D01*
X159893000Y-92202000D02*
X159931000Y-92210000D01*
D20*
X152476200Y-88692100D02*
X154178000Y-88692100D01*
D21*
X152414860Y-88630760D02*
X152476200Y-88692100D01*
X151127460Y-88630760D02*
X152414860Y-88630760D01*
D20*
X154711400Y-86698200D02*
X153339800Y-85326600D01*
X154711400Y-88158700D02*
X154711400Y-86698200D01*
X154178000Y-88692100D02*
X154711400Y-88158700D01*
D21*
X159931000Y-92210000D02*
X159931000Y-93137000D01*
X159931000Y-93137000D02*
X160197800Y-93403800D01*
X143512540Y-92710000D02*
X143512540Y-91709240D01*
X141812900Y-92710000D02*
X143512540Y-92710000D01*
X141808200Y-92705300D02*
X141812900Y-92710000D01*
D20*
X148249020Y-124087000D02*
X146661000Y-122498980D01*
X148755100Y-124087000D02*
X148249020Y-124087000D01*
X149034500Y-124366400D02*
X148755100Y-124087000D01*
X146661000Y-122500900D02*
X146661000Y-122498980D01*
X141741780Y-90708480D02*
X143512540Y-90708480D01*
X141706600Y-90673300D02*
X141741780Y-90708480D01*
X153335100Y-87630000D02*
X151127460Y-87630000D01*
X153454100Y-87511000D02*
X153335100Y-87630000D01*
D21*
X143512540Y-87711280D02*
X145272380Y-87711280D01*
X146227800Y-88666700D02*
X146227800Y-91486100D01*
X145272380Y-87711280D02*
X146227800Y-88666700D01*
X137439400Y-96375600D02*
X138010900Y-96375600D01*
X142354300Y-98979100D02*
X142582900Y-99207700D01*
X140614400Y-98979100D02*
X142354300Y-98979100D01*
X138010900Y-96375600D02*
X140614400Y-98979100D01*
X147320000Y-94597600D02*
X147320000Y-94864300D01*
X146761200Y-95423100D02*
X145465800Y-95423100D01*
X147320000Y-94864300D02*
X146761200Y-95423100D01*
X149885400Y-90629740D02*
X149586060Y-90629740D01*
X147320000Y-94597600D02*
X148145500Y-95423100D01*
X147320000Y-92895800D02*
X147320000Y-94597600D01*
X149586060Y-90629740D02*
X147320000Y-92895800D01*
X151127460Y-90629740D02*
X149885400Y-90629740D01*
X149885400Y-90629740D02*
X149827360Y-90629740D01*
X147066000Y-103132000D02*
X147066000Y-104757600D01*
X146024600Y-105799000D02*
X146024600Y-105951400D01*
X147066000Y-104757600D02*
X146024600Y-105799000D01*
X153238200Y-98877500D02*
X152958800Y-98598100D01*
X152958800Y-98598100D02*
X151269700Y-98598100D01*
X151269700Y-98598100D02*
X147593050Y-102274750D01*
X147593050Y-102604950D02*
X147066000Y-103132000D01*
X147593050Y-102274750D02*
X147593050Y-102604950D01*
D20*
X156375100Y-116594000D02*
X156375100Y-115031900D01*
X156375100Y-115031900D02*
X162200000Y-109207000D01*
X162200000Y-109207000D02*
X162200000Y-105050000D01*
X155473400Y-116594000D02*
X156375100Y-116594000D01*
X151688800Y-113038000D02*
X155473400Y-116594000D01*
X141528800Y-110459900D02*
X135978900Y-104910000D01*
X135978900Y-104910000D02*
X134620000Y-104910000D01*
D21*
X145491200Y-102738300D02*
X144665700Y-102738300D01*
X143129000Y-111869600D02*
X142811500Y-112187100D01*
X143129000Y-104275000D02*
X143129000Y-111869600D01*
X144665700Y-102738300D02*
X143129000Y-104275000D01*
X135852000Y-114333300D02*
X135852000Y-115070000D01*
X136474200Y-113711100D02*
X137731500Y-113711100D01*
X135852000Y-114333300D02*
X136474200Y-113711100D01*
X141287500Y-113711100D02*
X137731500Y-113711100D01*
X142811500Y-112187100D02*
X141287500Y-113711100D01*
X133134000Y-115070000D02*
X135852000Y-115070000D01*
X131534000Y-116212900D02*
X131534000Y-115070000D01*
X131356100Y-116390800D02*
X131534000Y-116212900D01*
X152273000Y-112428400D02*
X152171400Y-112428400D01*
X156464000Y-113266600D02*
X155562300Y-114168300D01*
X155562300Y-114168300D02*
X155244800Y-114168300D01*
X155244800Y-114168300D02*
X153504900Y-112428400D01*
X153504900Y-112428400D02*
X152273000Y-112428400D01*
X160820000Y-116505200D02*
X160566100Y-116759100D01*
X160820000Y-115070000D02*
X160820000Y-116505200D01*
X156464000Y-112034700D02*
X156464000Y-113266600D01*
X151257000Y-112288700D02*
X150482300Y-111514000D01*
X152031700Y-112288700D02*
X151257000Y-112288700D01*
X152171400Y-112428400D02*
X152031700Y-112288700D01*
X160820000Y-115070000D02*
X163792000Y-115070000D01*
X159220000Y-116390700D02*
X159220000Y-115070000D01*
X159029400Y-116581300D02*
X159220000Y-116390700D01*
X137452000Y-115070000D02*
X137452000Y-116162100D01*
X137452000Y-116162100D02*
X137668000Y-116378100D01*
X165392000Y-115070000D02*
X165392000Y-115781100D01*
X165392000Y-115781100D02*
X166192200Y-116581300D01*
X156676000Y-92213600D02*
X158327400Y-92213600D01*
X158327400Y-92213600D02*
X158331000Y-92210000D01*
X147256500Y-107564300D02*
X147993100Y-107056300D01*
X147256500Y-115184300D02*
X147256500Y-107564300D01*
X150964900Y-118892700D02*
X147256500Y-115184300D01*
X149440900Y-105113200D02*
X149440900Y-104097200D01*
X148678900Y-105875200D02*
X149440900Y-105113200D01*
X148678900Y-106268900D02*
X148678900Y-105875200D01*
X149440900Y-104097200D02*
X150444200Y-103093900D01*
X156660980Y-122498980D02*
X156660980Y-122480580D01*
X156660980Y-122480580D02*
X155714700Y-121534300D01*
X155714700Y-121534300D02*
X153924000Y-121534300D01*
X153924000Y-121534300D02*
X153619200Y-121229500D01*
X153619200Y-121229500D02*
X153619200Y-119400700D01*
X153619200Y-119400700D02*
X153073100Y-118854600D01*
X153073100Y-118854600D02*
X151930100Y-118854600D01*
X151930100Y-118854600D02*
X148869400Y-115793900D01*
X148869400Y-115793900D02*
X148869400Y-115705000D01*
X148869400Y-115705000D02*
X147955000Y-114790600D01*
X147955000Y-114790600D02*
X147955000Y-108224700D01*
X147955000Y-108224700D02*
X148678900Y-107500800D01*
X148678900Y-107500800D02*
X148678900Y-106268900D01*
X148678900Y-106268900D02*
X148678900Y-106091100D01*
X151625300Y-111577500D02*
X151485600Y-111437800D01*
X151485600Y-111437800D02*
X151485600Y-109266100D01*
X151485600Y-109266100D02*
X151549100Y-109202600D01*
X151549100Y-109202600D02*
X151549100Y-107577000D01*
X153447750Y-111088550D02*
X153231850Y-111088550D01*
X153231850Y-111088550D02*
X152349200Y-110205900D01*
X155536900Y-113177700D02*
X153447750Y-111088550D01*
X149561550Y-115660550D02*
X149561550Y-115609750D01*
X148551900Y-109202600D02*
X149529800Y-108224700D01*
X148551900Y-114600100D02*
X148551900Y-109202600D01*
X149561550Y-115609750D02*
X148551900Y-114600100D01*
X154659460Y-120500000D02*
X154659460Y-119145560D01*
X152298400Y-118397400D02*
X149561550Y-115660550D01*
X149561550Y-115660550D02*
X149529800Y-115628800D01*
X153911300Y-118397400D02*
X152298400Y-118397400D01*
X154659460Y-119145560D02*
X153911300Y-118397400D01*
X150336250Y-115685950D02*
X150336250Y-115558950D01*
X149110700Y-109913800D02*
X150329900Y-108694600D01*
X149110700Y-114333400D02*
X149110700Y-109913800D01*
X150336250Y-115558950D02*
X149110700Y-114333400D01*
X152450800Y-117800500D02*
X150336250Y-115685950D01*
X150336250Y-115685950D02*
X150329900Y-115679600D01*
X154178000Y-117800500D02*
X152450800Y-117800500D01*
X155397200Y-119019700D02*
X154178000Y-117800500D01*
X150368000Y-106561000D02*
X150749000Y-106942000D01*
X150368000Y-105672000D02*
X150749000Y-105291000D01*
X150749000Y-105278300D02*
X150749000Y-105291000D01*
X150368000Y-106561000D02*
X150368000Y-105672000D01*
X155448000Y-99830000D02*
X155448000Y-99957000D01*
X158178500Y-96718500D02*
X156210000Y-98687000D01*
X156210000Y-98687000D02*
X156210000Y-99068000D01*
X156210000Y-99068000D02*
X155448000Y-99830000D01*
X158254700Y-96718500D02*
X160020000Y-96718500D01*
X163842700Y-96413700D02*
X165188900Y-95067500D01*
X165188900Y-95067500D02*
X165188900Y-90825700D01*
X162941000Y-88577800D02*
X165188900Y-90825700D01*
X158254700Y-96718500D02*
X158178500Y-96718500D01*
X153911300Y-100731700D02*
X153911300Y-102116000D01*
X154051000Y-100592000D02*
X153911300Y-100731700D01*
X154813000Y-100592000D02*
X154051000Y-100592000D01*
X155448000Y-99957000D02*
X154813000Y-100592000D01*
X153911300Y-102116000D02*
X150749000Y-105278300D01*
X150749000Y-105278300D02*
X150622000Y-105405300D01*
X153924000Y-102116000D02*
X153911300Y-102116000D01*
X161480500Y-90736800D02*
X160934400Y-90736800D01*
X162941000Y-88577800D02*
X161480500Y-90736800D01*
X154235150Y-98871150D02*
X155390850Y-98871150D01*
X155390850Y-98871150D02*
X155448000Y-98814000D01*
X146278600Y-106624500D02*
X147586700Y-105316400D01*
X147586700Y-105316400D02*
X147586700Y-104097200D01*
X147586700Y-104097200D02*
X147612100Y-104071800D01*
X145300700Y-106624500D02*
X146278600Y-106624500D01*
X147612100Y-103589200D02*
X148272500Y-102928800D01*
X152146000Y-101696900D02*
X152120600Y-101696900D01*
X152120600Y-101696900D02*
X151384000Y-102433500D01*
X151384000Y-102433500D02*
X148767800Y-102433500D01*
X148767800Y-102433500D02*
X148272500Y-102928800D01*
X152146000Y-101696900D02*
X152476200Y-101366700D01*
X152476200Y-101366700D02*
X152476200Y-100579300D01*
X152476200Y-100579300D02*
X152920700Y-100134800D01*
X152920700Y-100134800D02*
X152920700Y-100185600D01*
X152920700Y-100185600D02*
X154235150Y-98871150D01*
X154235150Y-98871150D02*
X154266900Y-98839400D01*
X147612100Y-104071800D02*
X147612100Y-103589200D01*
X151127460Y-91627960D02*
X149946740Y-91627960D01*
X145313400Y-109418500D02*
X146405600Y-108326300D01*
X144932400Y-109418500D02*
X145313400Y-109418500D01*
X144538700Y-109024800D02*
X144932400Y-109418500D01*
X144538700Y-106014900D02*
X144538700Y-109024800D01*
X146659598Y-103894002D02*
X144538700Y-106014900D01*
X146659598Y-101989002D02*
X146659598Y-103894002D01*
X147066000Y-101582600D02*
X146659598Y-101989002D01*
X147066000Y-101481000D02*
X147066000Y-101582600D01*
X153797000Y-94750000D02*
X147066000Y-101481000D01*
X153797000Y-93403800D02*
X153797000Y-94750000D01*
X153631900Y-93238700D02*
X153797000Y-93403800D01*
X152895300Y-93238700D02*
X153631900Y-93238700D01*
X152501600Y-93632400D02*
X152895300Y-93238700D01*
X150622000Y-93632400D02*
X152501600Y-93632400D01*
X149453600Y-92464000D02*
X150622000Y-93632400D01*
X149453600Y-92121100D02*
X149453600Y-92464000D01*
X149946740Y-91627960D02*
X149453600Y-92121100D01*
X157911800Y-93530800D02*
X156108400Y-93530800D01*
X152308940Y-91627960D02*
X151127460Y-91627960D01*
X152793700Y-91143200D02*
X152308940Y-91627960D01*
X155079700Y-91143200D02*
X152793700Y-91143200D01*
X155524200Y-91587700D02*
X155079700Y-91143200D01*
X155524200Y-92946600D02*
X155524200Y-91587700D01*
X156108400Y-93530800D02*
X155524200Y-92946600D01*
X163804600Y-93492700D02*
X163677600Y-93365700D01*
X163677600Y-93365700D02*
X163677600Y-92832300D01*
X163677600Y-92832300D02*
X163042600Y-92197300D01*
X163042600Y-92197300D02*
X161925000Y-92197300D01*
X161925000Y-92197300D02*
X161594800Y-92527500D01*
X161594800Y-92527500D02*
X161594800Y-94419800D01*
X161594800Y-94419800D02*
X161150300Y-94864300D01*
X161150300Y-94864300D02*
X159245300Y-94864300D01*
X159245300Y-94864300D02*
X157911800Y-93530800D01*
X144081500Y-105011600D02*
X144081500Y-109672500D01*
X146227800Y-103563800D02*
X145338800Y-104452800D01*
X145338800Y-104452800D02*
X144640300Y-104452800D01*
X144640300Y-104452800D02*
X144081500Y-105011600D01*
X146227800Y-103513000D02*
X146227800Y-103563800D01*
X144081500Y-109672500D02*
X144437100Y-110028100D01*
X145542000Y-101798500D02*
X146227800Y-102484300D01*
X146227800Y-102484300D02*
X146227800Y-103513000D01*
X146227800Y-103513000D02*
X146227800Y-103551100D01*
X142697200Y-101798500D02*
X144322800Y-101798500D01*
X142354300Y-101455600D02*
X142697200Y-101798500D01*
X144322800Y-101798500D02*
X145542000Y-101798500D01*
X151127460Y-89631520D02*
X149644480Y-89631520D01*
X146977100Y-92298900D02*
X145542000Y-92298900D01*
X149644480Y-89631520D02*
X146977100Y-92298900D01*
X158419420Y-89631520D02*
X151127460Y-89631520D01*
X160235900Y-91448000D02*
X158419420Y-89631520D01*
X162064700Y-91448000D02*
X160235900Y-91448000D01*
X163207700Y-90305000D02*
X162064700Y-91448000D01*
X154228800Y-99652200D02*
X154774900Y-99652200D01*
X153149300Y-101900100D02*
X153149300Y-100731700D01*
X153149300Y-100731700D02*
X154228800Y-99652200D01*
X153720800Y-96121600D02*
X154393900Y-95448500D01*
X153720800Y-96769300D02*
X153720800Y-96121600D01*
X154749500Y-97798000D02*
X153720800Y-96769300D01*
X145630900Y-107411900D02*
X145630900Y-108008800D01*
X146888200Y-106929300D02*
X146456400Y-107361100D01*
X146456400Y-107361100D02*
X146456400Y-107411900D01*
X148310600Y-103678100D02*
X148894800Y-103678100D01*
X148894800Y-103678100D02*
X149352000Y-103220900D01*
X148310600Y-105659300D02*
X148310600Y-103678100D01*
X147040600Y-106929300D02*
X148310600Y-105659300D01*
X145630900Y-107411900D02*
X146456400Y-107411900D01*
X147040600Y-106929300D02*
X146888200Y-106929300D01*
X145630900Y-108008800D02*
X145415000Y-108224700D01*
X162788600Y-92972000D02*
X162775900Y-92984700D01*
X162775900Y-92984700D02*
X162775900Y-95004000D01*
X162775900Y-95004000D02*
X162331400Y-95448500D01*
X162331400Y-95448500D02*
X154393900Y-95448500D01*
X154476000Y-92213600D02*
X154476000Y-95366400D01*
X154476000Y-95366400D02*
X154393900Y-95448500D01*
X154476000Y-92213600D02*
X153031400Y-92213600D01*
X152616280Y-92628720D02*
X151127460Y-92628720D01*
X153031400Y-92213600D02*
X152616280Y-92628720D01*
X152488900Y-116860700D02*
X152476200Y-116860700D01*
X149682200Y-110510700D02*
X151015700Y-109177200D01*
X149682200Y-114066700D02*
X149682200Y-110510700D01*
X152476200Y-116860700D02*
X149682200Y-114066700D01*
X149707600Y-105697400D02*
X150063200Y-105341800D01*
X149707600Y-107030900D02*
X149707600Y-105697400D01*
X151015700Y-108339000D02*
X149707600Y-107030900D01*
X151015700Y-109177200D02*
X151015700Y-108339000D01*
X150431500Y-104148000D02*
X150063200Y-104516300D01*
X150063200Y-104516300D02*
X150063200Y-105341800D01*
X145186400Y-103601900D02*
X144640300Y-103601900D01*
X143662400Y-104579800D02*
X143662400Y-110967900D01*
X144640300Y-103601900D02*
X143662400Y-104579800D01*
X145364200Y-112149000D02*
X144843500Y-112149000D01*
X144843500Y-112149000D02*
X143662400Y-110967900D01*
X145364200Y-112123600D02*
X145364200Y-112149000D01*
X145364200Y-112149000D02*
X145364200Y-113495200D01*
X139153900Y-93505400D02*
X139153900Y-89593800D01*
X140843000Y-95194500D02*
X139153900Y-93505400D01*
X141490700Y-95194500D02*
X140843000Y-95194500D01*
X143954500Y-97658300D02*
X141490700Y-95194500D01*
X147434300Y-97658300D02*
X147421600Y-97671000D01*
X147421600Y-97671000D02*
X147421600Y-98852100D01*
X143954500Y-97658300D02*
X147434300Y-97658300D01*
X143357600Y-98915600D02*
X145707100Y-98915600D01*
X146380200Y-99588700D02*
X146380200Y-99880800D01*
X145707100Y-98915600D02*
X146380200Y-99588700D01*
X138099800Y-95689800D02*
X140843000Y-98433000D01*
X140843000Y-98433000D02*
X142875000Y-98433000D01*
X142875000Y-98433000D02*
X143357600Y-98915600D01*
X145116550Y-96750250D02*
X148697950Y-96750250D01*
X149110700Y-96337500D02*
X149110700Y-96235900D01*
X148697950Y-96750250D02*
X149110700Y-96337500D01*
X145116550Y-96750250D02*
X141998700Y-93632400D01*
X141998700Y-93632400D02*
X140906500Y-93632400D01*
X140906500Y-93632400D02*
X140411200Y-93137100D01*
X140411200Y-93137100D02*
X140411200Y-90571700D01*
X140411200Y-90571700D02*
X141272640Y-89710260D01*
X143512540Y-89710260D02*
X141272640Y-89710260D01*
X149110700Y-96235900D02*
X150698200Y-94648400D01*
X144411700Y-97175700D02*
X149136100Y-97175700D01*
X144411700Y-97175700D02*
X141439900Y-94203900D01*
X141439900Y-94203900D02*
X140804900Y-94203900D01*
X140804900Y-94203900D02*
X139827000Y-93226000D01*
X139827000Y-93226000D02*
X139827000Y-90343100D01*
X139827000Y-90343100D02*
X141458060Y-88712040D01*
X143512540Y-88712040D02*
X141458060Y-88712040D01*
X151765000Y-94546800D02*
X151815800Y-94546800D01*
X149136100Y-97175700D02*
X151765000Y-94546800D01*
X143700500Y-98331400D02*
X145897600Y-98331400D01*
X147091400Y-99550600D02*
X147802600Y-99550600D01*
X146913600Y-99372800D02*
X147091400Y-99550600D01*
X146913600Y-99347400D02*
X146913600Y-99372800D01*
X145897600Y-98331400D02*
X146913600Y-99347400D01*
X152920700Y-94432500D02*
X152920700Y-94292800D01*
X147802600Y-99550600D02*
X152920700Y-94432500D01*
X142049500Y-96680400D02*
X143700500Y-98331400D01*
M02*
