G04 #@! TF.FileFunction,Soldermask,Top*
%FSLAX46Y46*%
G04 Gerber Fmt 4.6, Leading zero omitted, Abs format (unit mm)*
G04 Created by KiCad (PCBNEW 4.0.6) date 08/01/17 19:50:43*
%MOMM*%
%LPD*%
G01*
G04 APERTURE LIST*
%ADD10C,0.100000*%
%ADD11R,1.150000X1.200000*%
%ADD12R,2.400000X1.400000*%
%ADD13R,1.150000X1.600000*%
%ADD14R,1.600000X1.300000*%
%ADD15R,1.200000X1.200000*%
%ADD16C,1.900000*%
%ADD17R,0.900000X1.000000*%
%ADD18C,1.705560*%
%ADD19R,1.700000X1.100000*%
G04 APERTURE END LIST*
D10*
D11*
X145364200Y-101494400D03*
X145364200Y-99994400D03*
D12*
X154089600Y-94273200D03*
X154089600Y-93003200D03*
X154089600Y-91733200D03*
X154089600Y-90463200D03*
X154089600Y-89193200D03*
X154089600Y-87923200D03*
X154089600Y-86653200D03*
X154089600Y-85383200D03*
D13*
X156464000Y-92631600D03*
X156464000Y-94531600D03*
D14*
X158630800Y-89162000D03*
X156430800Y-89162000D03*
X149268000Y-96909000D03*
X151468000Y-96909000D03*
D15*
X132042000Y-114816000D03*
X133642000Y-114816000D03*
X135344000Y-114816000D03*
X136944000Y-114816000D03*
X159982000Y-114816000D03*
X161582000Y-114816000D03*
X163284000Y-114816000D03*
X164884000Y-114816000D03*
X158343600Y-90597200D03*
X158343600Y-92197200D03*
D16*
X130500000Y-113500000D03*
X138500000Y-113500000D03*
X158500000Y-113500000D03*
X166500000Y-113500000D03*
D17*
X152349200Y-101954800D03*
X152349200Y-100854800D03*
D18*
X146970000Y-120470000D03*
X146970000Y-122468980D03*
X148968980Y-120470000D03*
X148968980Y-122468980D03*
X150967960Y-120470000D03*
X150967960Y-122468980D03*
X152969480Y-120470000D03*
X152969480Y-122468980D03*
X154968460Y-120470000D03*
X154968460Y-122468980D03*
X156969980Y-120470000D03*
X156969980Y-122468980D03*
X158968960Y-120470000D03*
X158968960Y-122468980D03*
D19*
X145211800Y-117417000D03*
X145211800Y-115517000D03*
M02*
