G04 #@! TF.FileFunction,Copper,L2,Bot,Signal*
%FSLAX46Y46*%
G04 Gerber Fmt 4.6, Leading zero omitted, Abs format (unit mm)*
G04 Created by KiCad (PCBNEW 4.0.6) date 04/08/17 18:36:20*
%MOMM*%
%LPD*%
G01*
G04 APERTURE LIST*
%ADD10C,0.100000*%
%ADD11R,0.500000X0.600000*%
%ADD12C,1.305560*%
%ADD13R,1.060000X0.650000*%
%ADD14R,1.270000X0.533400*%
%ADD15R,0.533400X1.270000*%
%ADD16R,0.600000X0.500000*%
%ADD17R,0.750000X1.200000*%
%ADD18R,1.200000X0.750000*%
%ADD19R,1.597660X1.399540*%
%ADD20R,1.399540X1.597660*%
%ADD21R,0.900000X1.200000*%
%ADD22R,1.200000X0.900000*%
%ADD23R,0.698500X1.699260*%
%ADD24R,0.650000X1.060000*%
%ADD25C,1.422400*%
%ADD26R,0.248920X0.797560*%
%ADD27R,0.998220X0.899160*%
%ADD28R,1.998980X1.270000*%
%ADD29R,0.650000X1.560000*%
%ADD30R,1.400000X1.200000*%
%ADD31R,2.000000X1.200000*%
%ADD32R,2.000000X4.000000*%
%ADD33C,0.800000*%
%ADD34C,0.685800*%
%ADD35C,0.203200*%
%ADD36C,0.406400*%
%ADD37C,0.254000*%
G04 APERTURE END LIST*
D10*
D11*
X161696400Y-116806000D03*
X161696400Y-117906000D03*
D12*
X146970000Y-120470000D03*
X146970000Y-122468980D03*
X148968980Y-120470000D03*
X148968980Y-122468980D03*
X150967960Y-120470000D03*
X150967960Y-122468980D03*
X152969480Y-120470000D03*
X152969480Y-122468980D03*
X154968460Y-120470000D03*
X154968460Y-122468980D03*
X156969980Y-120470000D03*
X156969980Y-122468980D03*
X158968960Y-120470000D03*
X158968960Y-122468980D03*
D13*
X143299000Y-115385000D03*
X143299000Y-114435000D03*
X143299000Y-113485000D03*
X145499000Y-113485000D03*
X145499000Y-115385000D03*
X145499000Y-114435000D03*
D14*
X152629600Y-102749920D03*
X152629600Y-103550020D03*
X152629600Y-104350120D03*
X152629600Y-105150220D03*
X152629600Y-105947780D03*
X152629600Y-106747880D03*
X152629600Y-107547980D03*
X152629600Y-108348080D03*
D15*
X151136080Y-109841600D03*
X150335980Y-109841600D03*
X149535880Y-109841600D03*
X148735780Y-109841600D03*
X147938220Y-109841600D03*
X147138120Y-109841600D03*
X146338020Y-109841600D03*
X145537920Y-109841600D03*
D14*
X144046940Y-108348080D03*
X144046940Y-107547980D03*
X144046940Y-106747880D03*
X144046940Y-105947780D03*
X144046940Y-105150220D03*
X144046940Y-104350120D03*
X144046940Y-103550020D03*
X144046940Y-102749920D03*
D15*
X145537920Y-101258940D03*
X146338020Y-101258940D03*
X147138120Y-101258940D03*
X147938220Y-101258940D03*
X148735780Y-101258940D03*
X149535880Y-101258940D03*
X150335980Y-101258940D03*
X151136080Y-101258940D03*
D16*
X143832000Y-100418000D03*
X142732000Y-100418000D03*
D17*
X158648400Y-87729400D03*
X158648400Y-89629400D03*
X156464000Y-116782000D03*
X156464000Y-114882000D03*
X132588000Y-93292000D03*
X132588000Y-95192000D03*
D16*
X153628000Y-109990000D03*
X154728000Y-109990000D03*
D18*
X154747000Y-118118000D03*
X152847000Y-118118000D03*
D17*
X141351000Y-115004000D03*
X141351000Y-113104000D03*
D18*
X143449000Y-117356000D03*
X145349000Y-117356000D03*
D19*
X149098000Y-112654460D03*
X149098000Y-115453540D03*
D20*
X134998460Y-124468000D03*
X137797540Y-124468000D03*
D19*
X168529000Y-115961540D03*
X168529000Y-113162460D03*
D21*
X130175000Y-93396000D03*
X130175000Y-95596000D03*
D22*
X135552000Y-94242000D03*
X137752000Y-94242000D03*
D21*
X165862000Y-95469000D03*
X165862000Y-93269000D03*
D22*
X133434000Y-115070000D03*
X131234000Y-115070000D03*
X138006000Y-115070000D03*
X135806000Y-115070000D03*
X161120000Y-115070000D03*
X158920000Y-115070000D03*
X165692000Y-115070000D03*
X163492000Y-115070000D03*
D21*
X167894000Y-93269000D03*
X167894000Y-95469000D03*
D23*
X152471120Y-111768000D03*
X153670000Y-111768000D03*
X154868880Y-111768000D03*
D24*
X152847000Y-114097000D03*
X153797000Y-114097000D03*
X154747000Y-114097000D03*
X154747000Y-116297000D03*
X152847000Y-116297000D03*
X153797000Y-116297000D03*
D25*
X160021000Y-85863600D03*
D26*
X161811700Y-91449060D03*
X163310300Y-91449060D03*
X162312080Y-94248140D03*
X162312080Y-91449060D03*
X163310300Y-94248140D03*
X162809920Y-94248140D03*
X161811700Y-94248140D03*
X162809920Y-91449060D03*
D27*
X137650220Y-92491940D03*
X135653780Y-92491940D03*
X136652000Y-89896060D03*
D28*
X156334460Y-85448520D03*
X140337540Y-95445960D03*
X156334460Y-89449020D03*
X140335000Y-85448520D03*
X140337540Y-97447480D03*
X156334460Y-93446980D03*
X156334460Y-97447480D03*
X140335000Y-87544020D03*
X156334460Y-95445960D03*
X156334460Y-87450040D03*
D18*
X143449000Y-111768000D03*
X145349000Y-111768000D03*
D17*
X160528000Y-88974000D03*
X160528000Y-90874000D03*
D11*
X128651000Y-118287000D03*
X128651000Y-117187000D03*
D16*
X134916000Y-116975000D03*
X133816000Y-116975000D03*
D21*
X128244600Y-112039600D03*
X128244600Y-114239600D03*
D29*
X163560800Y-122262000D03*
X162610800Y-122262000D03*
X161660800Y-122262000D03*
X161660800Y-119562000D03*
X163560800Y-119562000D03*
D24*
X130241000Y-117399000D03*
X131191000Y-117399000D03*
X132141000Y-117399000D03*
X132141000Y-119599000D03*
X130241000Y-119599000D03*
X131191000Y-119599000D03*
D30*
X143486000Y-119896000D03*
D31*
X140486000Y-119896000D03*
D21*
X140336000Y-123325000D03*
X143636000Y-123325000D03*
D32*
X137894000Y-120277000D03*
X134644000Y-120277000D03*
D17*
X165500000Y-118050000D03*
X165500000Y-119950000D03*
D33*
X141859000Y-124214000D03*
X135806000Y-116891000D03*
X145415000Y-119769000D03*
D34*
X164338000Y-92456000D03*
D33*
X151257000Y-113038000D03*
X156210000Y-113038000D03*
X148209000Y-117483000D03*
X141224000Y-116797200D03*
X152400000Y-109228000D03*
X151130000Y-105926000D03*
X156845000Y-90805000D03*
D34*
X145542000Y-89408000D03*
D33*
X152476200Y-88692100D03*
X153339800Y-85326600D03*
X141808200Y-92705300D03*
X155829000Y-119261000D03*
X163830000Y-117991000D03*
X162382200Y-113825400D03*
X167081200Y-114765200D03*
X141706600Y-90673300D03*
X153454100Y-87511000D03*
D34*
X146227800Y-91486100D03*
X147764500Y-99512500D03*
X142582900Y-99207700D03*
X137439400Y-96375600D03*
X145465800Y-95423100D03*
X145491200Y-102738300D03*
X149987000Y-111133000D03*
X151003000Y-118880000D03*
X147993100Y-107056300D03*
X150444200Y-103093900D03*
X149529800Y-108224700D03*
X156591000Y-118499000D03*
X150329900Y-108694600D03*
X166751000Y-96655000D03*
X162052000Y-89670000D03*
X160020000Y-96782000D03*
X150749000Y-106942000D03*
X147447000Y-105164000D03*
X155448000Y-98814000D03*
X144399000Y-110498000D03*
X163804600Y-93492700D03*
X157911800Y-93530800D03*
X144399000Y-109355000D03*
X142354300Y-101455600D03*
X145542000Y-92298900D03*
X163207700Y-90305000D03*
X152908000Y-98814000D03*
X149352000Y-103220900D03*
X146431000Y-107323000D03*
X162788600Y-92972000D03*
X154393900Y-95448500D03*
X150431500Y-104148000D03*
X151638000Y-114308000D03*
X144399000Y-116340000D03*
X145186400Y-103601900D03*
X147510500Y-97861500D03*
X139153900Y-89593800D03*
X146380200Y-99880800D03*
X138099800Y-95689800D03*
X150698200Y-94648400D03*
X151815800Y-94546800D03*
X152920700Y-94292800D03*
X142049500Y-96680400D03*
X145542000Y-106180000D03*
X146558000Y-112149000D03*
X156972000Y-113927000D03*
X141986000Y-111641000D03*
X131089400Y-114028600D03*
X137668000Y-116378100D03*
X159029400Y-116581300D03*
X166192200Y-116581300D03*
X152019000Y-110244000D03*
X151549100Y-107577000D03*
X153670000Y-108847000D03*
X156083000Y-111768000D03*
X133197600Y-123579000D03*
X130683000Y-120912000D03*
X137287000Y-122944000D03*
X140208000Y-121674000D03*
X129413000Y-116848000D03*
X142367000Y-122944000D03*
X136017000Y-121293000D03*
X128397000Y-115451000D03*
X132207000Y-118372000D03*
D35*
X156768800Y-92197300D02*
X158381700Y-92197300D01*
X158381700Y-92197300D02*
X158457900Y-92273500D01*
X154406600Y-92273500D02*
X153022300Y-92273500D01*
X153022300Y-92273500D02*
X152692100Y-92603700D01*
X152692100Y-92603700D02*
X151168100Y-92603700D01*
D36*
X165500000Y-119950000D02*
X165500000Y-120004000D01*
X165500000Y-120004000D02*
X164592000Y-120912000D01*
X164592000Y-120912000D02*
X162610800Y-120912000D01*
X162610800Y-122262000D02*
X162610800Y-120912000D01*
X162610800Y-120912000D02*
X162610800Y-117051200D01*
X162610800Y-117051200D02*
X163068000Y-116594000D01*
X129667000Y-113292000D02*
X129667000Y-115730400D01*
X131673600Y-116111400D02*
X130048000Y-116111400D01*
X129667000Y-113292000D02*
X128414600Y-112039600D01*
X129667000Y-115730400D02*
X130048000Y-116111400D01*
X131191000Y-117399000D02*
X131191000Y-116594000D01*
X131191000Y-116594000D02*
X131673600Y-116111400D01*
X137797540Y-124468000D02*
X139065000Y-124468000D01*
X141224000Y-124849000D02*
X141859000Y-124214000D01*
X139446000Y-124849000D02*
X141224000Y-124849000D01*
X139065000Y-124468000D02*
X139446000Y-124849000D01*
X128244600Y-112039600D02*
X128414600Y-112039600D01*
X162687000Y-121826400D02*
X162661600Y-121826400D01*
X135204200Y-116111400D02*
X135806000Y-115509600D01*
X131673600Y-116111400D02*
X135204200Y-116111400D01*
X135806000Y-115509600D02*
X135806000Y-115070000D01*
X134966800Y-117152800D02*
X135544200Y-117152800D01*
X135544200Y-117152800D02*
X135806000Y-116891000D01*
X168529000Y-113162460D02*
X165229540Y-113162460D01*
X165229540Y-113162460D02*
X163492000Y-114900000D01*
X163492000Y-114900000D02*
X163492000Y-115070000D01*
X162687000Y-121826400D02*
X162687000Y-121801000D01*
X137797540Y-124468000D02*
X137797540Y-124216540D01*
X143486000Y-119896000D02*
X145288000Y-119896000D01*
X145288000Y-119896000D02*
X145415000Y-119769000D01*
X157685700Y-118511700D02*
X159118300Y-118511700D01*
X156464000Y-116782000D02*
X157685700Y-118003700D01*
X157685700Y-118511700D02*
X157685700Y-118003700D01*
X163492000Y-116170000D02*
X163492000Y-115070000D01*
X163068000Y-116594000D02*
X163492000Y-116170000D01*
X161036000Y-116594000D02*
X163068000Y-116594000D01*
X159118300Y-118511700D02*
X161036000Y-116594000D01*
D35*
X164211000Y-92456000D02*
X164338000Y-92456000D01*
X163322000Y-91567000D02*
X164211000Y-92456000D01*
D36*
X156845000Y-90805000D02*
X156845000Y-89959560D01*
X156845000Y-89959560D02*
X157175160Y-89629400D01*
X157175160Y-89629400D02*
X158648400Y-89629400D01*
X149098000Y-115197000D02*
X151257000Y-113038000D01*
X156210000Y-113038000D02*
X156972000Y-113038000D01*
D35*
X143299000Y-114435000D02*
X144145000Y-114435000D01*
X144399000Y-113038000D02*
X143449000Y-112088000D01*
X144399000Y-114181000D02*
X144399000Y-113038000D01*
X144145000Y-114435000D02*
X144399000Y-114181000D01*
X143449000Y-112088000D02*
X143449000Y-111768000D01*
D36*
X149098000Y-115453540D02*
X149098000Y-116594000D01*
X149098000Y-116594000D02*
X148209000Y-117483000D01*
X141351000Y-115004000D02*
X141544000Y-115004000D01*
D35*
X141544000Y-115004000D02*
X142113000Y-114435000D01*
X142113000Y-114435000D02*
X143299000Y-114435000D01*
D36*
X141224000Y-116797200D02*
X141224000Y-115131000D01*
X141224000Y-115131000D02*
X141351000Y-115004000D01*
X141782800Y-117356000D02*
X143449000Y-117356000D01*
X141224000Y-116797200D02*
X141782800Y-117356000D01*
X149098000Y-115453540D02*
X149098000Y-115197000D01*
D35*
X153797000Y-114097000D02*
X153797000Y-113165000D01*
X153797000Y-113165000D02*
X153924000Y-113038000D01*
D36*
X154747000Y-117864000D02*
X155382000Y-117864000D01*
X155382000Y-117864000D02*
X156464000Y-116782000D01*
X157734000Y-113292000D02*
X157734000Y-116086000D01*
X156972000Y-113038000D02*
X157480000Y-113038000D01*
X157734000Y-113292000D02*
X157480000Y-113038000D01*
X157038000Y-116782000D02*
X156464000Y-116782000D01*
X157734000Y-116086000D02*
X157038000Y-116782000D01*
X153162000Y-109990000D02*
X153628000Y-109990000D01*
X152400000Y-109228000D02*
X153162000Y-109990000D01*
X153628000Y-109990000D02*
X153628000Y-111726000D01*
X153628000Y-111726000D02*
X153670000Y-111768000D01*
X153670000Y-112784000D02*
X153670000Y-111768000D01*
X153924000Y-113038000D02*
X153670000Y-112784000D01*
X156972000Y-113038000D02*
X155956000Y-113038000D01*
X155956000Y-113038000D02*
X153924000Y-113038000D01*
X151130000Y-105926000D02*
X151130000Y-105291000D01*
X151130000Y-105291000D02*
X150806150Y-104967150D01*
X151151780Y-105947780D02*
X152629600Y-105947780D01*
X151130000Y-105926000D02*
X151151780Y-105947780D01*
X153924000Y-102243000D02*
X153924000Y-101481000D01*
X153364120Y-104326880D02*
X153797000Y-103894000D01*
X153797000Y-103894000D02*
X153797000Y-102370000D01*
X153797000Y-102370000D02*
X153924000Y-102243000D01*
X153364120Y-104350120D02*
X153364120Y-104326880D01*
X153586000Y-101143000D02*
X153586000Y-100469000D01*
X153924000Y-101481000D02*
X153586000Y-101143000D01*
X153340880Y-104350120D02*
X153364120Y-104350120D01*
X151282400Y-104605200D02*
X151168100Y-104605200D01*
X151168100Y-104605200D02*
X150806150Y-104967150D01*
X152629600Y-104350120D02*
X151537480Y-104350120D01*
X151537480Y-104350120D02*
X151282400Y-104605200D01*
X149834600Y-105595800D02*
X148281580Y-104042780D01*
X146977100Y-103081200D02*
X145669000Y-104389300D01*
X147320000Y-103081200D02*
X146977100Y-103081200D01*
X148281580Y-104042780D02*
X147320000Y-103081200D01*
X145669000Y-105150220D02*
X144046940Y-105150220D01*
X145669000Y-104389300D02*
X145669000Y-105150220D01*
X150806150Y-104967150D02*
X150177500Y-105595800D01*
X150177500Y-105595800D02*
X149834600Y-105595800D01*
X153797000Y-98128200D02*
X153797000Y-96054800D01*
X153586000Y-99609200D02*
X154228800Y-98966400D01*
X154228800Y-98966400D02*
X154228800Y-98560000D01*
X154228800Y-98560000D02*
X153797000Y-98128200D01*
X153586000Y-100469000D02*
X153586000Y-99609200D01*
X154940000Y-92710000D02*
X154940000Y-92456000D01*
X154940000Y-92456000D02*
X156591000Y-90805000D01*
X156591000Y-90805000D02*
X156845000Y-90805000D01*
X153758900Y-93891100D02*
X154940000Y-92710000D01*
X153758900Y-95029400D02*
X153758900Y-93891100D01*
X153568400Y-95219900D02*
X153758900Y-95029400D01*
X153568400Y-95826200D02*
X153568400Y-95219900D01*
X153797000Y-96054800D02*
X153568400Y-95826200D01*
D35*
X145542000Y-89408000D02*
X145034000Y-89916000D01*
X145034000Y-89916000D02*
X141351000Y-89916000D01*
X141351000Y-89916000D02*
X141224000Y-90043000D01*
X141224000Y-90043000D02*
X141097000Y-90043000D01*
X141097000Y-90043000D02*
X140843000Y-90297000D01*
X140843000Y-90297000D02*
X138811000Y-90297000D01*
X138811000Y-90297000D02*
X138430000Y-89916000D01*
X138430000Y-89916000D02*
X136652000Y-89916000D01*
X136652000Y-89916000D02*
X136652000Y-89896060D01*
X163310300Y-91449060D02*
X163322000Y-91440000D01*
X163322000Y-91440000D02*
X163322000Y-91567000D01*
X153924000Y-96012000D02*
X153797000Y-96012000D01*
X154051000Y-96139000D02*
X153924000Y-96012000D01*
X154178000Y-96139000D02*
X154051000Y-96139000D01*
X154559000Y-96520000D02*
X154178000Y-96139000D01*
X149098000Y-115443000D02*
X149098000Y-115453540D01*
D36*
X153314400Y-85301200D02*
X152666700Y-85301200D01*
X153339800Y-85326600D02*
X153314400Y-85301200D01*
D35*
X143522700Y-92679900D02*
X143497300Y-92705300D01*
X141808200Y-92705300D02*
X143497300Y-92705300D01*
D36*
X135806000Y-115070000D02*
X135806000Y-114732000D01*
X152629600Y-104350120D02*
X153340880Y-104350120D01*
X153340880Y-104350120D02*
X153746200Y-103944800D01*
X135806000Y-115070000D02*
X135806000Y-116891000D01*
D35*
X154416800Y-117914800D02*
X154416800Y-117594800D01*
D36*
X135806000Y-116891000D02*
X135890000Y-116975000D01*
X163560800Y-119562000D02*
X163560800Y-118260200D01*
X163560800Y-118260200D02*
X163830000Y-117991000D01*
X153416000Y-105164000D02*
X152643380Y-105164000D01*
X152643380Y-105164000D02*
X152629600Y-105150220D01*
X152629600Y-106747880D02*
X153729880Y-106747880D01*
X154127200Y-107958000D02*
X154432000Y-108262800D01*
X154127200Y-107145200D02*
X154127200Y-107958000D01*
X153729880Y-106747880D02*
X154127200Y-107145200D01*
X166000000Y-118250000D02*
X166240540Y-118250000D01*
X166240540Y-118250000D02*
X168529000Y-115961540D01*
X163830000Y-117991000D02*
X165741000Y-117991000D01*
X165741000Y-117991000D02*
X166000000Y-118250000D01*
X153263600Y-119261000D02*
X152847000Y-118844400D01*
X152847000Y-118844400D02*
X152847000Y-118118000D01*
X155829000Y-119261000D02*
X154432000Y-119261000D01*
X154432000Y-119261000D02*
X153263600Y-119261000D01*
X163637000Y-118184000D02*
X163830000Y-117991000D01*
X139192000Y-117483000D02*
X140258800Y-118549800D01*
D35*
X134678600Y-113825400D02*
X139217400Y-113825400D01*
X133434000Y-115070000D02*
X134678600Y-113825400D01*
X139217400Y-113825400D02*
X139827000Y-113215800D01*
X168529000Y-115961540D02*
X168277540Y-115961540D01*
D36*
X168277540Y-115961540D02*
X167081200Y-114765200D01*
X162229800Y-113977800D02*
X161120000Y-113977800D01*
D35*
X162382200Y-113825400D02*
X162229800Y-113977800D01*
D36*
X140258800Y-118549800D02*
X145237200Y-118549800D01*
X139192000Y-116594000D02*
X139192000Y-117483000D01*
X142494000Y-109355000D02*
X141097000Y-110752000D01*
X143002000Y-107831000D02*
X142494000Y-108339000D01*
X139827000Y-115959000D02*
X139192000Y-116594000D01*
X139827000Y-112022000D02*
X139827000Y-113215800D01*
X139827000Y-113215800D02*
X139827000Y-113774600D01*
X139827000Y-113774600D02*
X139827000Y-114028600D01*
X139827000Y-114028600D02*
X139827000Y-115959000D01*
X141097000Y-110752000D02*
X139827000Y-112022000D01*
X142494000Y-108339000D02*
X142494000Y-109355000D01*
X145237200Y-118549800D02*
X145349000Y-118438000D01*
X145349000Y-118438000D02*
X145349000Y-117356000D01*
D35*
X160528000Y-88974000D02*
X161224000Y-88974000D01*
X165862000Y-91397200D02*
X162991800Y-88527000D01*
X165862000Y-91397200D02*
X165862000Y-93269000D01*
X162864800Y-88400000D02*
X162991800Y-88527000D01*
X161798000Y-88400000D02*
X162864800Y-88400000D01*
X161224000Y-88974000D02*
X161798000Y-88400000D01*
X158648400Y-87729400D02*
X158841400Y-87729400D01*
X158841400Y-87729400D02*
X160086000Y-88974000D01*
X160086000Y-88974000D02*
X160528000Y-88974000D01*
X165862000Y-93269000D02*
X167894000Y-93269000D01*
D36*
X152847000Y-118118000D02*
X149352000Y-118118000D01*
X147066000Y-118118000D02*
X147066000Y-116467000D01*
X147574000Y-118626000D02*
X147066000Y-118118000D01*
X148844000Y-118626000D02*
X147574000Y-118626000D01*
X149352000Y-118118000D02*
X148844000Y-118626000D01*
D35*
X145499000Y-114435000D02*
X146685000Y-114435000D01*
X146685000Y-114435000D02*
X147066000Y-114816000D01*
D36*
X145349000Y-117356000D02*
X146177000Y-117356000D01*
X146177000Y-117356000D02*
X147066000Y-116467000D01*
X147830540Y-112654460D02*
X149098000Y-112654460D01*
X147066000Y-113419000D02*
X147830540Y-112654460D01*
X147066000Y-116467000D02*
X147066000Y-114816000D01*
X147066000Y-114816000D02*
X147066000Y-113419000D01*
X145349000Y-118438000D02*
X145349000Y-117356000D01*
X143002000Y-107831000D02*
X143002000Y-101989000D01*
X144780000Y-99192460D02*
X146936460Y-97036000D01*
X147320000Y-94877000D02*
X147320000Y-91448000D01*
X146936460Y-95260540D02*
X147320000Y-94877000D01*
X146936460Y-97036000D02*
X146936460Y-95260540D01*
X144780000Y-100973000D02*
X144780000Y-99192460D01*
X144399000Y-101354000D02*
X144780000Y-100973000D01*
X143637000Y-101354000D02*
X144399000Y-101354000D01*
X143002000Y-101989000D02*
X143637000Y-101354000D01*
D35*
X152847000Y-118118000D02*
X152847000Y-118052000D01*
X152847000Y-118052000D02*
X153797000Y-117102000D01*
X153797000Y-117102000D02*
X153797000Y-116297000D01*
X152847000Y-117864000D02*
X153035000Y-117864000D01*
X154889200Y-109189900D02*
X154889200Y-109177200D01*
D36*
X154889200Y-109177200D02*
X154432000Y-108720000D01*
X154432000Y-108262800D02*
X154432000Y-108720000D01*
X154889200Y-109583600D02*
X154889200Y-109189900D01*
X155295600Y-109990000D02*
X154889200Y-109583600D01*
X153348880Y-106747880D02*
X152629600Y-106747880D01*
X154728000Y-109990000D02*
X155295600Y-109990000D01*
D35*
X152629600Y-106747880D02*
X153483120Y-106747880D01*
D36*
X153483120Y-106747880D02*
X153873200Y-106357800D01*
X153873200Y-106357800D02*
X153873200Y-105621200D01*
X153873200Y-105621200D02*
X153416000Y-105164000D01*
X153416000Y-105164000D02*
X153402220Y-105150220D01*
D35*
X153402220Y-105150220D02*
X152629600Y-105150220D01*
D36*
X156362400Y-110993300D02*
X156298900Y-110993300D01*
X157937200Y-112352200D02*
X156578300Y-110993300D01*
D35*
X156578300Y-110993300D02*
X156362400Y-110993300D01*
D36*
X161120000Y-115070000D02*
X161120000Y-113977800D01*
D35*
X161120000Y-113977800D02*
X161120000Y-113896700D01*
D36*
X158978600Y-113241200D02*
X158089600Y-112352200D01*
X160464500Y-113241200D02*
X158978600Y-113241200D01*
X161120000Y-113896700D02*
X160464500Y-113241200D01*
X158089600Y-112352200D02*
X157937200Y-112352200D01*
X156298900Y-110993300D02*
X155295600Y-109990000D01*
X161120000Y-115070000D02*
X161120000Y-115319100D01*
X132588000Y-95192000D02*
X130579000Y-95192000D01*
X130579000Y-95192000D02*
X130175000Y-95596000D01*
X132588000Y-95192000D02*
X134602000Y-95192000D01*
X134602000Y-95192000D02*
X135552000Y-94242000D01*
D35*
X135552000Y-94242000D02*
X135653780Y-94140220D01*
X135653780Y-94140220D02*
X135653780Y-92491940D01*
X135653780Y-92491940D02*
X135653780Y-92014420D01*
X140906500Y-91473400D02*
X141706600Y-90673300D01*
X136194800Y-91473400D02*
X140906500Y-91473400D01*
X135653780Y-92014420D02*
X136194800Y-91473400D01*
X162809920Y-91449060D02*
X162809920Y-91960080D01*
X162052000Y-94007840D02*
X161811700Y-94248140D01*
X162052000Y-92718000D02*
X162052000Y-94007840D01*
X162809920Y-91960080D02*
X162052000Y-92718000D01*
X162312080Y-94248140D02*
X162312080Y-95137080D01*
X162312080Y-95137080D02*
X162369500Y-95194500D01*
X162369500Y-95194500D02*
X164198300Y-95194500D01*
X164198300Y-95194500D02*
X164693600Y-94699200D01*
X164693600Y-94699200D02*
X164693600Y-93556200D01*
X164693600Y-93556200D02*
X164693600Y-93518100D01*
X164693600Y-93518100D02*
X164942700Y-93269000D01*
X164942700Y-93269000D02*
X165862000Y-93269000D01*
D36*
X143802100Y-90686000D02*
X141770100Y-90686000D01*
X141757400Y-90673300D02*
X141706600Y-90673300D01*
X141770100Y-90686000D02*
X141757400Y-90673300D01*
X153898600Y-87511000D02*
X153454100Y-87511000D01*
D35*
X161811700Y-94248140D02*
X162312080Y-94248140D01*
D36*
X158116000Y-87453600D02*
X158606000Y-87453600D01*
X156334460Y-87450040D02*
X158112440Y-87450040D01*
X158112440Y-87450040D02*
X158116000Y-87453600D01*
X151130000Y-87511000D02*
X153898600Y-87511000D01*
X153898600Y-87511000D02*
X156273500Y-87511000D01*
X156273500Y-87511000D02*
X156334460Y-87450040D01*
X144046940Y-107547980D02*
X143285020Y-107547980D01*
X147320000Y-91448000D02*
X147320000Y-88908000D01*
X147320000Y-88908000D02*
X148717000Y-87511000D01*
X148717000Y-87511000D02*
X151130000Y-87511000D01*
X151130000Y-87511000D02*
X151257000Y-87511000D01*
X147320000Y-91448000D02*
X146558000Y-90686000D01*
X146558000Y-90686000D02*
X143802100Y-90686000D01*
X143802100Y-90686000D02*
X143764000Y-90686000D01*
X143002000Y-107831000D02*
X143285020Y-107547980D01*
X143285020Y-107547980D02*
X144046940Y-107547980D01*
D35*
X143832000Y-98047500D02*
X143832000Y-100418000D01*
X146177000Y-95702500D02*
X143832000Y-98047500D01*
X146177000Y-95245300D02*
X146177000Y-95702500D01*
X146227800Y-95194500D02*
X146177000Y-95245300D01*
X146227800Y-91486100D02*
X146227800Y-95194500D01*
X148735780Y-100483780D02*
X148735780Y-101258940D01*
X147764500Y-99512500D02*
X148735780Y-100483780D01*
X133299200Y-96375600D02*
X137439400Y-96375600D01*
X132854700Y-96820100D02*
X133299200Y-96375600D01*
X129336800Y-96820100D02*
X132854700Y-96820100D01*
X129095500Y-96578800D02*
X129336800Y-96820100D01*
X129095500Y-93657800D02*
X129095500Y-96578800D01*
X129357300Y-93396000D02*
X129095500Y-93657800D01*
X130175000Y-93396000D02*
X129357300Y-93396000D01*
X145465800Y-95423100D02*
X142582900Y-98306000D01*
X142582900Y-98306000D02*
X142582900Y-99207700D01*
X142582900Y-99207700D02*
X142582900Y-100268900D01*
X142582900Y-100268900D02*
X142732000Y-100418000D01*
X144046940Y-102749920D02*
X145479580Y-102749920D01*
X145491200Y-102738300D02*
X145479580Y-102749920D01*
X150259780Y-110860220D02*
X149987000Y-111133000D01*
X151136080Y-110860220D02*
X151136080Y-109841600D01*
X151136080Y-110860220D02*
X150259780Y-110860220D01*
X151003000Y-118880000D02*
X151460200Y-118880000D01*
X153970280Y-121470800D02*
X154968460Y-122468980D01*
X152450800Y-121470800D02*
X153970280Y-121470800D01*
X151968200Y-120988200D02*
X152450800Y-121470800D01*
X151968200Y-119388000D02*
X151968200Y-120988200D01*
X151460200Y-118880000D02*
X151968200Y-119388000D01*
X147938220Y-109841600D02*
X147976320Y-107073080D01*
X147993100Y-107056300D02*
X147976320Y-107073080D01*
X150788180Y-102749920D02*
X152629600Y-102749920D01*
X150444200Y-103093900D02*
X150788180Y-102749920D01*
X149535880Y-108230780D02*
X149535880Y-109841600D01*
X149529800Y-108224700D02*
X149535880Y-108230780D01*
X156660980Y-120500000D02*
X156660980Y-120283480D01*
X156969980Y-118877980D02*
X156969980Y-120470000D01*
X156591000Y-118499000D02*
X156969980Y-118877980D01*
X150329900Y-108694600D02*
X150335980Y-108700680D01*
X150335980Y-108700680D02*
X150335980Y-109841600D01*
X161811700Y-91449060D02*
X161811700Y-89910300D01*
X166751000Y-96655000D02*
X167894000Y-95512000D01*
X161811700Y-89910300D02*
X162052000Y-89670000D01*
X167894000Y-95512000D02*
X167894000Y-95469000D01*
X167894000Y-95512000D02*
X167894000Y-95469000D01*
X166708000Y-96655000D02*
X167894000Y-95469000D01*
X160147000Y-96655000D02*
X166708000Y-96655000D01*
X160020000Y-96782000D02*
X160147000Y-96655000D01*
X150507700Y-107183300D02*
X149085300Y-107183300D01*
X150749000Y-106942000D02*
X150507700Y-107183300D01*
X148735780Y-107532820D02*
X149085300Y-107183300D01*
X148735780Y-109841600D02*
X148735780Y-107532820D01*
X147138120Y-105472880D02*
X147138120Y-109841600D01*
X147447000Y-105164000D02*
X147138120Y-105472880D01*
X155448000Y-98814000D02*
X156334460Y-97927540D01*
X156334460Y-97927540D02*
X156334460Y-97447480D01*
X147138120Y-109841600D02*
X147138120Y-109037500D01*
X147138120Y-109037500D02*
X147138120Y-108957220D01*
X156334460Y-97447480D02*
X158059120Y-97447480D01*
X159753300Y-95753300D02*
X165577700Y-95753300D01*
X158059120Y-97447480D02*
X159753300Y-95753300D01*
X165577700Y-95753300D02*
X165862000Y-95469000D01*
X144780000Y-110879000D02*
X145796000Y-110879000D01*
X144399000Y-110498000D02*
X144780000Y-110879000D01*
X146338020Y-110717980D02*
X146338020Y-109841600D01*
X146177000Y-110879000D02*
X146338020Y-110717980D01*
X145796000Y-110879000D02*
X146177000Y-110879000D01*
X163310300Y-94248140D02*
X163310300Y-93987000D01*
X163310300Y-93987000D02*
X163804600Y-93492700D01*
X157911800Y-93530800D02*
X157827980Y-93446980D01*
X157827980Y-93446980D02*
X156334460Y-93446980D01*
X144885600Y-109841600D02*
X145537920Y-109841600D01*
X144399000Y-109355000D02*
X144885600Y-109841600D01*
X140337540Y-97447480D02*
X140337540Y-98359340D01*
X141897100Y-100998400D02*
X142354300Y-101455600D01*
X141897100Y-99918900D02*
X141897100Y-100998400D01*
X140337540Y-98359340D02*
X141897100Y-99918900D01*
X142488920Y-97447480D02*
X140337540Y-97447480D01*
X143167100Y-96769300D02*
X142488920Y-97447480D01*
X143167100Y-94673800D02*
X143167100Y-96769300D01*
X145542000Y-92298900D02*
X143167100Y-94673800D01*
X162312080Y-91449060D02*
X162312080Y-90654520D01*
X162661600Y-90305000D02*
X163207700Y-90305000D01*
X162312080Y-90654520D02*
X162661600Y-90305000D01*
X152908000Y-98814000D02*
X152908000Y-101658800D01*
X152908000Y-101658800D02*
X153149300Y-101900100D01*
X150431500Y-102344600D02*
X150533100Y-102243000D01*
X150228300Y-102344600D02*
X150431500Y-102344600D01*
X149352000Y-103220900D02*
X150228300Y-102344600D01*
X151650700Y-102243000D02*
X150533100Y-102243000D01*
X145405920Y-108348080D02*
X144046940Y-108348080D01*
X146431000Y-107323000D02*
X145405920Y-108348080D01*
X152908000Y-101900100D02*
X153149300Y-101900100D01*
X151650700Y-102243000D02*
X151650700Y-102192200D01*
X151650700Y-102192200D02*
X152019000Y-101823900D01*
X152019000Y-101823900D02*
X152831800Y-101823900D01*
X152831800Y-101823900D02*
X152908000Y-101900100D01*
X151650700Y-102243000D02*
X151663400Y-102243000D01*
X162809920Y-94248140D02*
X162809920Y-92993320D01*
X162809920Y-92993320D02*
X162788600Y-92972000D01*
X154396440Y-95445960D02*
X156334460Y-95445960D01*
X154393900Y-95448500D02*
X154396440Y-95445960D01*
X151181880Y-103550020D02*
X151029480Y-103550020D01*
X151029480Y-103550020D02*
X150431500Y-104148000D01*
X152629600Y-103550020D02*
X151181880Y-103550020D01*
X151849000Y-114097000D02*
X152847000Y-114097000D01*
X151638000Y-114308000D02*
X151849000Y-114097000D01*
X143299000Y-115385000D02*
X143444000Y-115385000D01*
X143444000Y-115385000D02*
X144399000Y-116340000D01*
X144046940Y-103550020D02*
X145134520Y-103550020D01*
X145186400Y-103601900D02*
X145134520Y-103550020D01*
X146659600Y-98242500D02*
X145537920Y-99364180D01*
X145537920Y-99364180D02*
X145537920Y-101258940D01*
X147129500Y-98242500D02*
X146659600Y-98242500D01*
X147510500Y-97861500D02*
X147129500Y-98242500D01*
X140335000Y-87544020D02*
X140335000Y-88412700D01*
X139153900Y-89593800D02*
X140335000Y-88412700D01*
X146338020Y-99922980D02*
X146338020Y-101258940D01*
X146380200Y-99880800D02*
X146338020Y-99922980D01*
X137650220Y-92491940D02*
X137650220Y-94140220D01*
X137650220Y-94140220D02*
X138099800Y-94589800D01*
X138099800Y-94589800D02*
X138099800Y-95689800D01*
X149535880Y-99087320D02*
X149535880Y-101258940D01*
X150025100Y-98598100D02*
X149535880Y-99087320D01*
X150609300Y-98598100D02*
X150025100Y-98598100D01*
X151155400Y-98052000D02*
X150609300Y-98598100D01*
X151155400Y-95105600D02*
X151155400Y-98052000D01*
X150698200Y-94648400D02*
X151155400Y-95105600D01*
X151828500Y-96261300D02*
X151828500Y-98153600D01*
X150335980Y-99379420D02*
X150335980Y-101258940D01*
X150596600Y-99118800D02*
X150335980Y-99379420D01*
X150863300Y-99118800D02*
X150596600Y-99118800D01*
X151828500Y-98153600D02*
X150863300Y-99118800D01*
X151828500Y-94559500D02*
X151828500Y-96261300D01*
X151828500Y-96261300D02*
X151828500Y-96274000D01*
X151815800Y-94546800D02*
X151828500Y-94559500D01*
X152920700Y-94292800D02*
X152438100Y-94775400D01*
X152438100Y-94775400D02*
X152438100Y-98344100D01*
X152438100Y-98344100D02*
X151136080Y-99646120D01*
X151136080Y-99646120D02*
X151136080Y-101258940D01*
X140815060Y-95445960D02*
X142049500Y-96680400D01*
X140337540Y-95445960D02*
X140815060Y-95445960D01*
X145349000Y-111768000D02*
X146177000Y-111768000D01*
X145309780Y-105947780D02*
X144046940Y-105947780D01*
X145542000Y-106180000D02*
X145309780Y-105947780D01*
X146177000Y-111768000D02*
X146558000Y-112149000D01*
X144018000Y-105918000D02*
X144046940Y-105947780D01*
D36*
X156464000Y-114882000D02*
X156464000Y-114435000D01*
X156464000Y-114435000D02*
X156972000Y-113927000D01*
X154747000Y-114097000D02*
X155679000Y-114097000D01*
X155679000Y-114097000D02*
X156464000Y-114882000D01*
D35*
X154709000Y-113927000D02*
X154770000Y-113866000D01*
D36*
X141351000Y-113104000D02*
X142918000Y-113104000D01*
X142918000Y-113104000D02*
X143299000Y-113485000D01*
X141351000Y-113104000D02*
X141351000Y-112276000D01*
X141351000Y-112276000D02*
X141986000Y-111641000D01*
D35*
X131234000Y-114173200D02*
X131234000Y-115070000D01*
X131089400Y-114028600D02*
X131234000Y-114173200D01*
X138006000Y-116040100D02*
X138006000Y-115070000D01*
X137668000Y-116378100D02*
X138006000Y-116040100D01*
X158920000Y-115070000D02*
X158920000Y-116471900D01*
X158920000Y-116471900D02*
X159029400Y-116581300D01*
X165692000Y-116081100D02*
X165692000Y-115070000D01*
X166192200Y-116581300D02*
X165692000Y-116081100D01*
X152471120Y-110696120D02*
X152471120Y-111768000D01*
X152019000Y-110244000D02*
X152471120Y-110696120D01*
X152471120Y-112204880D02*
X152471120Y-111768000D01*
X151549100Y-107577000D02*
X151578120Y-107547980D01*
X151578120Y-107547980D02*
X152629600Y-107547980D01*
X152471120Y-111768000D02*
X152471120Y-110947580D01*
X154868880Y-111768000D02*
X156083000Y-111768000D01*
X153670000Y-108847000D02*
X153171080Y-108348080D01*
X153171080Y-108348080D02*
X152629600Y-108348080D01*
D36*
X156334460Y-85448520D02*
X159605920Y-85448520D01*
X159605920Y-85448520D02*
X160021000Y-85863600D01*
X132141000Y-119599000D02*
X131191000Y-119599000D01*
X133197600Y-123579000D02*
X133096000Y-123579000D01*
X132141000Y-122624000D02*
X132141000Y-119599000D01*
X133096000Y-123579000D02*
X132141000Y-122624000D01*
X134086600Y-124468000D02*
X133197600Y-123579000D01*
X134998460Y-124468000D02*
X134086600Y-124468000D01*
X134998460Y-124468000D02*
X134094000Y-124468000D01*
X161696400Y-117906000D02*
X161696400Y-119526400D01*
X161696400Y-119526400D02*
X161660800Y-119562000D01*
X130241000Y-120470000D02*
X130683000Y-120912000D01*
X130241000Y-119599000D02*
X130241000Y-120470000D01*
X137894000Y-122337000D02*
X137894000Y-120277000D01*
X137287000Y-122944000D02*
X137894000Y-122337000D01*
X128651000Y-118287000D02*
X128929000Y-118287000D01*
X128929000Y-118287000D02*
X130241000Y-119599000D01*
X137894000Y-120277000D02*
X137894000Y-120686000D01*
X137640000Y-120813000D02*
X137640000Y-120023000D01*
X140420000Y-119962000D02*
X140486000Y-119896000D01*
X140486000Y-119896000D02*
X137767000Y-119896000D01*
X137767000Y-119896000D02*
X137640000Y-120023000D01*
X137797540Y-121689460D02*
X137485080Y-121377000D01*
X137485080Y-121377000D02*
X137160000Y-121377000D01*
X140336000Y-123325000D02*
X140336000Y-121802000D01*
X140336000Y-121802000D02*
X140208000Y-121674000D01*
X129413000Y-116848000D02*
X129413000Y-117187000D01*
X128651000Y-117187000D02*
X129413000Y-117187000D01*
X129413000Y-117187000D02*
X130029000Y-117187000D01*
X130029000Y-117187000D02*
X130241000Y-117399000D01*
X140336000Y-123325000D02*
X140360400Y-123325000D01*
X140082000Y-123325000D02*
X140082000Y-123298600D01*
X161660800Y-122262000D02*
X161660800Y-123589200D01*
X161660800Y-123589200D02*
X161930000Y-123858400D01*
X163560800Y-123467200D02*
X163560800Y-122262000D01*
X163169600Y-123858400D02*
X163560800Y-123467200D01*
X161930000Y-123858400D02*
X163169600Y-123858400D01*
X160801000Y-124087000D02*
X161163000Y-124087000D01*
X143382000Y-123325000D02*
X145034000Y-123325000D01*
X145034000Y-123325000D02*
X145796000Y-124087000D01*
X145796000Y-124087000D02*
X160801000Y-124087000D01*
X161163000Y-124087000D02*
X161660800Y-123589200D01*
X142748000Y-123325000D02*
X142367000Y-122944000D01*
X143636000Y-123325000D02*
X142748000Y-123325000D01*
X136017000Y-121293000D02*
X135001000Y-120277000D01*
X135001000Y-120277000D02*
X134644000Y-120277000D01*
X133866800Y-117152800D02*
X133866800Y-119499800D01*
X133866800Y-119499800D02*
X134390000Y-120023000D01*
X128244600Y-115298600D02*
X128244600Y-114239600D01*
X128397000Y-115451000D02*
X128244600Y-115298600D01*
X132141000Y-117399000D02*
X132141000Y-118306000D01*
X132141000Y-118306000D02*
X132207000Y-118372000D01*
D37*
G36*
X169291100Y-118288629D02*
X167449342Y-121051266D01*
X164548766Y-123951842D01*
X161786129Y-125793600D01*
X138868566Y-125793600D01*
X139035637Y-125626528D01*
X139132310Y-125393139D01*
X139132310Y-124753750D01*
X138973560Y-124595000D01*
X137924540Y-124595000D01*
X137924540Y-124615000D01*
X137670540Y-124615000D01*
X137670540Y-124595000D01*
X136621520Y-124595000D01*
X136462770Y-124753750D01*
X136462770Y-125393139D01*
X136559443Y-125626528D01*
X136726514Y-125793600D01*
X136052264Y-125793600D01*
X136149671Y-125730920D01*
X136294661Y-125518720D01*
X136345670Y-125266830D01*
X136345670Y-123669170D01*
X136301392Y-123433853D01*
X136162320Y-123217729D01*
X135950120Y-123072739D01*
X135698230Y-123021730D01*
X134298690Y-123021730D01*
X134063373Y-123066008D01*
X134047852Y-123075995D01*
X134027107Y-123025788D01*
X133925936Y-122924440D01*
X135644000Y-122924440D01*
X135879317Y-122880162D01*
X136095441Y-122741090D01*
X136240431Y-122528890D01*
X136268176Y-122391880D01*
X136290838Y-122512317D01*
X136361681Y-122622410D01*
X136309270Y-122748630D01*
X136308931Y-123137663D01*
X136457493Y-123497212D01*
X136474586Y-123514335D01*
X136462770Y-123542861D01*
X136462770Y-124182250D01*
X136621520Y-124341000D01*
X137670540Y-124341000D01*
X137670540Y-124321000D01*
X137924540Y-124321000D01*
X137924540Y-124341000D01*
X138973560Y-124341000D01*
X139132310Y-124182250D01*
X139132310Y-123542861D01*
X139035637Y-123309472D01*
X138857009Y-123130843D01*
X138623620Y-123034170D01*
X138382224Y-123034170D01*
X138486697Y-122929697D01*
X138490210Y-122924440D01*
X138894000Y-122924440D01*
X139129317Y-122880162D01*
X139238560Y-122809866D01*
X139238560Y-123925000D01*
X139282838Y-124160317D01*
X139421910Y-124376441D01*
X139634110Y-124521431D01*
X139886000Y-124572440D01*
X140786000Y-124572440D01*
X141021317Y-124528162D01*
X141237441Y-124389090D01*
X141382431Y-124176890D01*
X141433440Y-123925000D01*
X141433440Y-123245383D01*
X141537493Y-123497212D01*
X141812341Y-123772540D01*
X142150606Y-123913000D01*
X142155303Y-123917697D01*
X142427234Y-124099396D01*
X142576980Y-124129182D01*
X142582838Y-124160317D01*
X142721910Y-124376441D01*
X142934110Y-124521431D01*
X143186000Y-124572440D01*
X144086000Y-124572440D01*
X144321317Y-124528162D01*
X144537441Y-124389090D01*
X144682431Y-124176890D01*
X144685203Y-124163200D01*
X144686806Y-124163200D01*
X145203303Y-124679697D01*
X145475235Y-124861396D01*
X145796000Y-124925200D01*
X161163000Y-124925200D01*
X161483766Y-124861396D01*
X161755697Y-124679697D01*
X161770517Y-124664877D01*
X161930000Y-124696600D01*
X163169600Y-124696600D01*
X163490366Y-124632796D01*
X163762297Y-124451097D01*
X164153497Y-124059897D01*
X164335196Y-123787966D01*
X164399000Y-123467200D01*
X164399000Y-123415703D01*
X164482231Y-123293890D01*
X164533240Y-123042000D01*
X164533240Y-121482000D01*
X164488962Y-121246683D01*
X164349890Y-121030559D01*
X164174568Y-120910767D01*
X164337241Y-120806090D01*
X164482231Y-120593890D01*
X164490000Y-120555526D01*
X164490000Y-120676309D01*
X164586673Y-120909698D01*
X164765301Y-121088327D01*
X164998690Y-121185000D01*
X165214250Y-121185000D01*
X165373000Y-121026250D01*
X165373000Y-120077000D01*
X165627000Y-120077000D01*
X165627000Y-121026250D01*
X165785750Y-121185000D01*
X166001310Y-121185000D01*
X166234699Y-121088327D01*
X166413327Y-120909698D01*
X166510000Y-120676309D01*
X166510000Y-120235750D01*
X166351250Y-120077000D01*
X165627000Y-120077000D01*
X165373000Y-120077000D01*
X165353000Y-120077000D01*
X165353000Y-119823000D01*
X165373000Y-119823000D01*
X165373000Y-119803000D01*
X165627000Y-119803000D01*
X165627000Y-119823000D01*
X166351250Y-119823000D01*
X166510000Y-119664250D01*
X166510000Y-119223691D01*
X166437638Y-119048995D01*
X166561306Y-119024396D01*
X166833237Y-118842697D01*
X168367184Y-117308750D01*
X169291100Y-117308750D01*
X169291100Y-118288629D01*
X169291100Y-118288629D01*
G37*
X169291100Y-118288629D02*
X167449342Y-121051266D01*
X164548766Y-123951842D01*
X161786129Y-125793600D01*
X138868566Y-125793600D01*
X139035637Y-125626528D01*
X139132310Y-125393139D01*
X139132310Y-124753750D01*
X138973560Y-124595000D01*
X137924540Y-124595000D01*
X137924540Y-124615000D01*
X137670540Y-124615000D01*
X137670540Y-124595000D01*
X136621520Y-124595000D01*
X136462770Y-124753750D01*
X136462770Y-125393139D01*
X136559443Y-125626528D01*
X136726514Y-125793600D01*
X136052264Y-125793600D01*
X136149671Y-125730920D01*
X136294661Y-125518720D01*
X136345670Y-125266830D01*
X136345670Y-123669170D01*
X136301392Y-123433853D01*
X136162320Y-123217729D01*
X135950120Y-123072739D01*
X135698230Y-123021730D01*
X134298690Y-123021730D01*
X134063373Y-123066008D01*
X134047852Y-123075995D01*
X134027107Y-123025788D01*
X133925936Y-122924440D01*
X135644000Y-122924440D01*
X135879317Y-122880162D01*
X136095441Y-122741090D01*
X136240431Y-122528890D01*
X136268176Y-122391880D01*
X136290838Y-122512317D01*
X136361681Y-122622410D01*
X136309270Y-122748630D01*
X136308931Y-123137663D01*
X136457493Y-123497212D01*
X136474586Y-123514335D01*
X136462770Y-123542861D01*
X136462770Y-124182250D01*
X136621520Y-124341000D01*
X137670540Y-124341000D01*
X137670540Y-124321000D01*
X137924540Y-124321000D01*
X137924540Y-124341000D01*
X138973560Y-124341000D01*
X139132310Y-124182250D01*
X139132310Y-123542861D01*
X139035637Y-123309472D01*
X138857009Y-123130843D01*
X138623620Y-123034170D01*
X138382224Y-123034170D01*
X138486697Y-122929697D01*
X138490210Y-122924440D01*
X138894000Y-122924440D01*
X139129317Y-122880162D01*
X139238560Y-122809866D01*
X139238560Y-123925000D01*
X139282838Y-124160317D01*
X139421910Y-124376441D01*
X139634110Y-124521431D01*
X139886000Y-124572440D01*
X140786000Y-124572440D01*
X141021317Y-124528162D01*
X141237441Y-124389090D01*
X141382431Y-124176890D01*
X141433440Y-123925000D01*
X141433440Y-123245383D01*
X141537493Y-123497212D01*
X141812341Y-123772540D01*
X142150606Y-123913000D01*
X142155303Y-123917697D01*
X142427234Y-124099396D01*
X142576980Y-124129182D01*
X142582838Y-124160317D01*
X142721910Y-124376441D01*
X142934110Y-124521431D01*
X143186000Y-124572440D01*
X144086000Y-124572440D01*
X144321317Y-124528162D01*
X144537441Y-124389090D01*
X144682431Y-124176890D01*
X144685203Y-124163200D01*
X144686806Y-124163200D01*
X145203303Y-124679697D01*
X145475235Y-124861396D01*
X145796000Y-124925200D01*
X161163000Y-124925200D01*
X161483766Y-124861396D01*
X161755697Y-124679697D01*
X161770517Y-124664877D01*
X161930000Y-124696600D01*
X163169600Y-124696600D01*
X163490366Y-124632796D01*
X163762297Y-124451097D01*
X164153497Y-124059897D01*
X164335196Y-123787966D01*
X164399000Y-123467200D01*
X164399000Y-123415703D01*
X164482231Y-123293890D01*
X164533240Y-123042000D01*
X164533240Y-121482000D01*
X164488962Y-121246683D01*
X164349890Y-121030559D01*
X164174568Y-120910767D01*
X164337241Y-120806090D01*
X164482231Y-120593890D01*
X164490000Y-120555526D01*
X164490000Y-120676309D01*
X164586673Y-120909698D01*
X164765301Y-121088327D01*
X164998690Y-121185000D01*
X165214250Y-121185000D01*
X165373000Y-121026250D01*
X165373000Y-120077000D01*
X165627000Y-120077000D01*
X165627000Y-121026250D01*
X165785750Y-121185000D01*
X166001310Y-121185000D01*
X166234699Y-121088327D01*
X166413327Y-120909698D01*
X166510000Y-120676309D01*
X166510000Y-120235750D01*
X166351250Y-120077000D01*
X165627000Y-120077000D01*
X165373000Y-120077000D01*
X165353000Y-120077000D01*
X165353000Y-119823000D01*
X165373000Y-119823000D01*
X165373000Y-119803000D01*
X165627000Y-119803000D01*
X165627000Y-119823000D01*
X166351250Y-119823000D01*
X166510000Y-119664250D01*
X166510000Y-119223691D01*
X166437638Y-119048995D01*
X166561306Y-119024396D01*
X166833237Y-118842697D01*
X168367184Y-117308750D01*
X169291100Y-117308750D01*
X169291100Y-118288629D01*
G36*
X158051331Y-116774963D02*
X158199893Y-117134512D01*
X158474741Y-117409840D01*
X158834030Y-117559030D01*
X159223063Y-117559369D01*
X159582612Y-117410807D01*
X159857940Y-117135959D01*
X160007130Y-116776670D01*
X160007400Y-116467000D01*
X160811400Y-116467000D01*
X160811400Y-116520250D01*
X160970150Y-116679000D01*
X161571400Y-116679000D01*
X161571400Y-116659000D01*
X161821400Y-116659000D01*
X161821400Y-116679000D01*
X162422650Y-116679000D01*
X162581400Y-116520250D01*
X162581400Y-116467000D01*
X165080971Y-116467000D01*
X165171145Y-116601955D01*
X165214244Y-116645054D01*
X165214131Y-116774963D01*
X165225534Y-116802560D01*
X165125000Y-116802560D01*
X164889683Y-116846838D01*
X164673559Y-116985910D01*
X164559528Y-117152800D01*
X164455698Y-117152800D01*
X164417046Y-117114081D01*
X164036777Y-116956180D01*
X163625029Y-116955821D01*
X163244485Y-117113058D01*
X162953081Y-117403954D01*
X162795180Y-117784223D01*
X162795056Y-117926485D01*
X162786404Y-117939434D01*
X162738784Y-118178838D01*
X162722600Y-118260200D01*
X162722600Y-118408297D01*
X162639369Y-118530110D01*
X162611624Y-118667120D01*
X162588962Y-118546683D01*
X162537163Y-118466185D01*
X162542831Y-118457890D01*
X162593840Y-118206000D01*
X162593840Y-117606000D01*
X162549562Y-117370683D01*
X162534061Y-117346594D01*
X162581400Y-117232309D01*
X162581400Y-117091750D01*
X162422650Y-116933000D01*
X161821400Y-116933000D01*
X161821400Y-116953000D01*
X161571400Y-116953000D01*
X161571400Y-116933000D01*
X160970150Y-116933000D01*
X160811400Y-117091750D01*
X160811400Y-117232309D01*
X160857367Y-117343283D01*
X160849969Y-117354110D01*
X160798960Y-117606000D01*
X160798960Y-118206000D01*
X160833910Y-118391744D01*
X160739369Y-118530110D01*
X160688360Y-118782000D01*
X160688360Y-120342000D01*
X160732638Y-120577317D01*
X160871710Y-120793441D01*
X161047032Y-120913233D01*
X160884359Y-121017910D01*
X160739369Y-121230110D01*
X160688360Y-121482000D01*
X160688360Y-123042000D01*
X160727272Y-123248800D01*
X160010565Y-123248800D01*
X160060050Y-123199401D01*
X160256516Y-122726259D01*
X160256963Y-122213949D01*
X160061323Y-121740464D01*
X159790667Y-121469335D01*
X160060050Y-121200421D01*
X160256516Y-120727279D01*
X160256963Y-120214969D01*
X160061323Y-119741484D01*
X159699381Y-119378910D01*
X159226239Y-119182444D01*
X158713929Y-119181997D01*
X158240444Y-119377637D01*
X157969315Y-119648293D01*
X157706580Y-119385100D01*
X157706580Y-118877980D01*
X157650510Y-118596095D01*
X157568922Y-118473990D01*
X157569069Y-118305337D01*
X157420507Y-117945788D01*
X157296980Y-117822045D01*
X157377327Y-117741698D01*
X157474000Y-117508309D01*
X157474000Y-117067750D01*
X157315250Y-116909000D01*
X156591000Y-116909000D01*
X156591000Y-116929000D01*
X156337000Y-116929000D01*
X156337000Y-116909000D01*
X156317000Y-116909000D01*
X156317000Y-116655000D01*
X156337000Y-116655000D01*
X156337000Y-116635000D01*
X156591000Y-116635000D01*
X156591000Y-116655000D01*
X157315250Y-116655000D01*
X157474000Y-116496250D01*
X157474000Y-116467000D01*
X158051599Y-116467000D01*
X158051331Y-116774963D01*
X158051331Y-116774963D01*
G37*
X158051331Y-116774963D02*
X158199893Y-117134512D01*
X158474741Y-117409840D01*
X158834030Y-117559030D01*
X159223063Y-117559369D01*
X159582612Y-117410807D01*
X159857940Y-117135959D01*
X160007130Y-116776670D01*
X160007400Y-116467000D01*
X160811400Y-116467000D01*
X160811400Y-116520250D01*
X160970150Y-116679000D01*
X161571400Y-116679000D01*
X161571400Y-116659000D01*
X161821400Y-116659000D01*
X161821400Y-116679000D01*
X162422650Y-116679000D01*
X162581400Y-116520250D01*
X162581400Y-116467000D01*
X165080971Y-116467000D01*
X165171145Y-116601955D01*
X165214244Y-116645054D01*
X165214131Y-116774963D01*
X165225534Y-116802560D01*
X165125000Y-116802560D01*
X164889683Y-116846838D01*
X164673559Y-116985910D01*
X164559528Y-117152800D01*
X164455698Y-117152800D01*
X164417046Y-117114081D01*
X164036777Y-116956180D01*
X163625029Y-116955821D01*
X163244485Y-117113058D01*
X162953081Y-117403954D01*
X162795180Y-117784223D01*
X162795056Y-117926485D01*
X162786404Y-117939434D01*
X162738784Y-118178838D01*
X162722600Y-118260200D01*
X162722600Y-118408297D01*
X162639369Y-118530110D01*
X162611624Y-118667120D01*
X162588962Y-118546683D01*
X162537163Y-118466185D01*
X162542831Y-118457890D01*
X162593840Y-118206000D01*
X162593840Y-117606000D01*
X162549562Y-117370683D01*
X162534061Y-117346594D01*
X162581400Y-117232309D01*
X162581400Y-117091750D01*
X162422650Y-116933000D01*
X161821400Y-116933000D01*
X161821400Y-116953000D01*
X161571400Y-116953000D01*
X161571400Y-116933000D01*
X160970150Y-116933000D01*
X160811400Y-117091750D01*
X160811400Y-117232309D01*
X160857367Y-117343283D01*
X160849969Y-117354110D01*
X160798960Y-117606000D01*
X160798960Y-118206000D01*
X160833910Y-118391744D01*
X160739369Y-118530110D01*
X160688360Y-118782000D01*
X160688360Y-120342000D01*
X160732638Y-120577317D01*
X160871710Y-120793441D01*
X161047032Y-120913233D01*
X160884359Y-121017910D01*
X160739369Y-121230110D01*
X160688360Y-121482000D01*
X160688360Y-123042000D01*
X160727272Y-123248800D01*
X160010565Y-123248800D01*
X160060050Y-123199401D01*
X160256516Y-122726259D01*
X160256963Y-122213949D01*
X160061323Y-121740464D01*
X159790667Y-121469335D01*
X160060050Y-121200421D01*
X160256516Y-120727279D01*
X160256963Y-120214969D01*
X160061323Y-119741484D01*
X159699381Y-119378910D01*
X159226239Y-119182444D01*
X158713929Y-119181997D01*
X158240444Y-119377637D01*
X157969315Y-119648293D01*
X157706580Y-119385100D01*
X157706580Y-118877980D01*
X157650510Y-118596095D01*
X157568922Y-118473990D01*
X157569069Y-118305337D01*
X157420507Y-117945788D01*
X157296980Y-117822045D01*
X157377327Y-117741698D01*
X157474000Y-117508309D01*
X157474000Y-117067750D01*
X157315250Y-116909000D01*
X156591000Y-116909000D01*
X156591000Y-116929000D01*
X156337000Y-116929000D01*
X156337000Y-116909000D01*
X156317000Y-116909000D01*
X156317000Y-116655000D01*
X156337000Y-116655000D01*
X156337000Y-116635000D01*
X156591000Y-116635000D01*
X156591000Y-116655000D01*
X157315250Y-116655000D01*
X157474000Y-116496250D01*
X157474000Y-116467000D01*
X158051599Y-116467000D01*
X158051331Y-116774963D01*
G36*
X146291604Y-118438766D02*
X146473303Y-118710697D01*
X146944804Y-119182198D01*
X146714969Y-119181997D01*
X146241484Y-119377637D01*
X145878910Y-119739579D01*
X145682444Y-120212721D01*
X145681997Y-120725031D01*
X145877637Y-121198516D01*
X146148293Y-121469645D01*
X145878910Y-121738559D01*
X145682444Y-122211701D01*
X145681997Y-122724011D01*
X145726774Y-122832380D01*
X145626697Y-122732303D01*
X145354766Y-122550604D01*
X145034000Y-122486800D01*
X144687307Y-122486800D01*
X144550090Y-122273559D01*
X144337890Y-122128569D01*
X144086000Y-122077560D01*
X143186000Y-122077560D01*
X142950683Y-122121838D01*
X142936888Y-122130715D01*
X142921659Y-122115460D01*
X142562370Y-121966270D01*
X142173337Y-121965931D01*
X141813788Y-122114493D01*
X141538460Y-122389341D01*
X141422726Y-122668059D01*
X141389162Y-122489683D01*
X141250090Y-122273559D01*
X141174200Y-122221706D01*
X141174200Y-121897137D01*
X141185730Y-121869370D01*
X141186069Y-121480337D01*
X141046867Y-121143440D01*
X141486000Y-121143440D01*
X141721317Y-121099162D01*
X141937441Y-120960090D01*
X142082431Y-120747890D01*
X142133440Y-120496000D01*
X142133440Y-120181750D01*
X142151000Y-120181750D01*
X142151000Y-120622310D01*
X142247673Y-120855699D01*
X142426302Y-121034327D01*
X142659691Y-121131000D01*
X143200250Y-121131000D01*
X143359000Y-120972250D01*
X143359000Y-120023000D01*
X143613000Y-120023000D01*
X143613000Y-120972250D01*
X143771750Y-121131000D01*
X144312309Y-121131000D01*
X144545698Y-121034327D01*
X144724327Y-120855699D01*
X144821000Y-120622310D01*
X144821000Y-120181750D01*
X144662250Y-120023000D01*
X143613000Y-120023000D01*
X143359000Y-120023000D01*
X142309750Y-120023000D01*
X142151000Y-120181750D01*
X142133440Y-120181750D01*
X142133440Y-119388000D01*
X142151000Y-119388000D01*
X142151000Y-119610250D01*
X142309750Y-119769000D01*
X143359000Y-119769000D01*
X143359000Y-119749000D01*
X143613000Y-119749000D01*
X143613000Y-119769000D01*
X144662250Y-119769000D01*
X144821000Y-119610250D01*
X144821000Y-119388000D01*
X145237200Y-119388000D01*
X145557966Y-119324196D01*
X145829897Y-119142497D01*
X145941697Y-119030697D01*
X146123396Y-118758766D01*
X146187200Y-118438000D01*
X146187200Y-118332307D01*
X146260984Y-118284828D01*
X146291604Y-118438766D01*
X146291604Y-118438766D01*
G37*
X146291604Y-118438766D02*
X146473303Y-118710697D01*
X146944804Y-119182198D01*
X146714969Y-119181997D01*
X146241484Y-119377637D01*
X145878910Y-119739579D01*
X145682444Y-120212721D01*
X145681997Y-120725031D01*
X145877637Y-121198516D01*
X146148293Y-121469645D01*
X145878910Y-121738559D01*
X145682444Y-122211701D01*
X145681997Y-122724011D01*
X145726774Y-122832380D01*
X145626697Y-122732303D01*
X145354766Y-122550604D01*
X145034000Y-122486800D01*
X144687307Y-122486800D01*
X144550090Y-122273559D01*
X144337890Y-122128569D01*
X144086000Y-122077560D01*
X143186000Y-122077560D01*
X142950683Y-122121838D01*
X142936888Y-122130715D01*
X142921659Y-122115460D01*
X142562370Y-121966270D01*
X142173337Y-121965931D01*
X141813788Y-122114493D01*
X141538460Y-122389341D01*
X141422726Y-122668059D01*
X141389162Y-122489683D01*
X141250090Y-122273559D01*
X141174200Y-122221706D01*
X141174200Y-121897137D01*
X141185730Y-121869370D01*
X141186069Y-121480337D01*
X141046867Y-121143440D01*
X141486000Y-121143440D01*
X141721317Y-121099162D01*
X141937441Y-120960090D01*
X142082431Y-120747890D01*
X142133440Y-120496000D01*
X142133440Y-120181750D01*
X142151000Y-120181750D01*
X142151000Y-120622310D01*
X142247673Y-120855699D01*
X142426302Y-121034327D01*
X142659691Y-121131000D01*
X143200250Y-121131000D01*
X143359000Y-120972250D01*
X143359000Y-120023000D01*
X143613000Y-120023000D01*
X143613000Y-120972250D01*
X143771750Y-121131000D01*
X144312309Y-121131000D01*
X144545698Y-121034327D01*
X144724327Y-120855699D01*
X144821000Y-120622310D01*
X144821000Y-120181750D01*
X144662250Y-120023000D01*
X143613000Y-120023000D01*
X143359000Y-120023000D01*
X142309750Y-120023000D01*
X142151000Y-120181750D01*
X142133440Y-120181750D01*
X142133440Y-119388000D01*
X142151000Y-119388000D01*
X142151000Y-119610250D01*
X142309750Y-119769000D01*
X143359000Y-119769000D01*
X143359000Y-119749000D01*
X143613000Y-119749000D01*
X143613000Y-119769000D01*
X144662250Y-119769000D01*
X144821000Y-119610250D01*
X144821000Y-119388000D01*
X145237200Y-119388000D01*
X145557966Y-119324196D01*
X145829897Y-119142497D01*
X145941697Y-119030697D01*
X146123396Y-118758766D01*
X146187200Y-118438000D01*
X146187200Y-118332307D01*
X146260984Y-118284828D01*
X146291604Y-118438766D01*
G36*
X150146253Y-121469645D02*
X149876870Y-121738559D01*
X149872849Y-121748242D01*
X149870012Y-121747554D01*
X149148585Y-122468980D01*
X149162728Y-122483122D01*
X148983122Y-122662728D01*
X148968980Y-122648585D01*
X148954838Y-122662728D01*
X148775232Y-122483122D01*
X148789375Y-122468980D01*
X148067948Y-121747554D01*
X148065535Y-121748140D01*
X148062363Y-121740464D01*
X147791707Y-121469335D01*
X147969645Y-121291707D01*
X148238559Y-121561090D01*
X148248242Y-121565111D01*
X148247554Y-121567948D01*
X148968980Y-122289375D01*
X149690406Y-121567948D01*
X149689820Y-121565535D01*
X149697496Y-121562363D01*
X149968625Y-121291707D01*
X150146253Y-121469645D01*
X150146253Y-121469645D01*
G37*
X150146253Y-121469645D02*
X149876870Y-121738559D01*
X149872849Y-121748242D01*
X149870012Y-121747554D01*
X149148585Y-122468980D01*
X149162728Y-122483122D01*
X148983122Y-122662728D01*
X148968980Y-122648585D01*
X148954838Y-122662728D01*
X148775232Y-122483122D01*
X148789375Y-122468980D01*
X148067948Y-121747554D01*
X148065535Y-121748140D01*
X148062363Y-121740464D01*
X147791707Y-121469335D01*
X147969645Y-121291707D01*
X148238559Y-121561090D01*
X148248242Y-121565111D01*
X148247554Y-121567948D01*
X148968980Y-122289375D01*
X149690406Y-121567948D01*
X149689820Y-121565535D01*
X149697496Y-121562363D01*
X149968625Y-121291707D01*
X150146253Y-121469645D01*
G36*
X162632638Y-120577317D02*
X162771710Y-120793441D01*
X162877694Y-120865856D01*
X162737800Y-121005750D01*
X162737800Y-121086051D01*
X162639369Y-121230110D01*
X162611624Y-121367120D01*
X162588962Y-121246683D01*
X162483800Y-121083257D01*
X162483800Y-121005750D01*
X162344085Y-120866035D01*
X162437241Y-120806090D01*
X162582231Y-120593890D01*
X162609976Y-120456880D01*
X162632638Y-120577317D01*
X162632638Y-120577317D01*
G37*
X162632638Y-120577317D02*
X162771710Y-120793441D01*
X162877694Y-120865856D01*
X162737800Y-121005750D01*
X162737800Y-121086051D01*
X162639369Y-121230110D01*
X162611624Y-121367120D01*
X162588962Y-121246683D01*
X162483800Y-121083257D01*
X162483800Y-121005750D01*
X162344085Y-120866035D01*
X162437241Y-120806090D01*
X162582231Y-120593890D01*
X162609976Y-120456880D01*
X162632638Y-120577317D01*
G36*
X154874000Y-117991000D02*
X154894000Y-117991000D01*
X154894000Y-118245000D01*
X154874000Y-118245000D01*
X154874000Y-118265000D01*
X154620000Y-118265000D01*
X154620000Y-118245000D01*
X154600000Y-118245000D01*
X154600000Y-117991000D01*
X154620000Y-117991000D01*
X154620000Y-117971000D01*
X154874000Y-117971000D01*
X154874000Y-117991000D01*
X154874000Y-117991000D01*
G37*
X154874000Y-117991000D02*
X154894000Y-117991000D01*
X154894000Y-118245000D01*
X154874000Y-118245000D01*
X154874000Y-118265000D01*
X154620000Y-118265000D01*
X154620000Y-118245000D01*
X154600000Y-118245000D01*
X154600000Y-117991000D01*
X154620000Y-117991000D01*
X154620000Y-117971000D01*
X154874000Y-117971000D01*
X154874000Y-117991000D01*
G36*
X136689931Y-116571763D02*
X136838493Y-116931312D01*
X137113341Y-117206640D01*
X137472630Y-117355830D01*
X137861663Y-117356169D01*
X138221212Y-117207607D01*
X138353800Y-117075250D01*
X138353800Y-117483000D01*
X138382952Y-117629560D01*
X136894000Y-117629560D01*
X136658683Y-117673838D01*
X136442559Y-117812910D01*
X136297569Y-118025110D01*
X136269824Y-118162120D01*
X136247162Y-118041683D01*
X136108090Y-117825559D01*
X135895890Y-117680569D01*
X135698441Y-117640585D01*
X135754327Y-117584699D01*
X135851000Y-117351310D01*
X135851000Y-117258750D01*
X135692250Y-117100000D01*
X135043000Y-117100000D01*
X135043000Y-117122000D01*
X134789000Y-117122000D01*
X134789000Y-117100000D01*
X134769000Y-117100000D01*
X134769000Y-116850000D01*
X134789000Y-116850000D01*
X134789000Y-116828000D01*
X135043000Y-116828000D01*
X135043000Y-116850000D01*
X135692250Y-116850000D01*
X135851000Y-116691250D01*
X135851000Y-116598690D01*
X135796452Y-116467000D01*
X136690022Y-116467000D01*
X136689931Y-116571763D01*
X136689931Y-116571763D01*
G37*
X136689931Y-116571763D02*
X136838493Y-116931312D01*
X137113341Y-117206640D01*
X137472630Y-117355830D01*
X137861663Y-117356169D01*
X138221212Y-117207607D01*
X138353800Y-117075250D01*
X138353800Y-117483000D01*
X138382952Y-117629560D01*
X136894000Y-117629560D01*
X136658683Y-117673838D01*
X136442559Y-117812910D01*
X136297569Y-118025110D01*
X136269824Y-118162120D01*
X136247162Y-118041683D01*
X136108090Y-117825559D01*
X135895890Y-117680569D01*
X135698441Y-117640585D01*
X135754327Y-117584699D01*
X135851000Y-117351310D01*
X135851000Y-117258750D01*
X135692250Y-117100000D01*
X135043000Y-117100000D01*
X135043000Y-117122000D01*
X134789000Y-117122000D01*
X134789000Y-117100000D01*
X134769000Y-117100000D01*
X134769000Y-116850000D01*
X134789000Y-116850000D01*
X134789000Y-116828000D01*
X135043000Y-116828000D01*
X135043000Y-116850000D01*
X135692250Y-116850000D01*
X135851000Y-116691250D01*
X135851000Y-116598690D01*
X135796452Y-116467000D01*
X136690022Y-116467000D01*
X136689931Y-116571763D01*
G36*
X151474430Y-112617630D02*
X151518708Y-112852947D01*
X151657780Y-113069071D01*
X151869980Y-113214061D01*
X151979464Y-113236232D01*
X151925569Y-113315110D01*
X151916398Y-113360400D01*
X151905931Y-113360400D01*
X151833370Y-113330270D01*
X151444337Y-113329931D01*
X151084788Y-113478493D01*
X150809460Y-113753341D01*
X150660270Y-114112630D01*
X150659931Y-114501663D01*
X150808493Y-114861212D01*
X151083341Y-115136540D01*
X151442630Y-115285730D01*
X151831663Y-115286069D01*
X152162013Y-115149572D01*
X152233232Y-115198233D01*
X152070559Y-115302910D01*
X151925569Y-115515110D01*
X151874560Y-115767000D01*
X151874560Y-116827000D01*
X151918838Y-117062317D01*
X151981301Y-117159388D01*
X151795559Y-117278910D01*
X151794951Y-117279800D01*
X149352000Y-117279800D01*
X149031235Y-117343604D01*
X148785549Y-117507766D01*
X148759303Y-117525303D01*
X148496806Y-117787800D01*
X147921194Y-117787800D01*
X147904200Y-117770806D01*
X147904200Y-116656365D01*
X147939472Y-116691637D01*
X148172861Y-116788310D01*
X148812250Y-116788310D01*
X148971000Y-116629560D01*
X148971000Y-115580540D01*
X149225000Y-115580540D01*
X149225000Y-116629560D01*
X149383750Y-116788310D01*
X150023139Y-116788310D01*
X150256528Y-116691637D01*
X150435157Y-116513009D01*
X150531830Y-116279620D01*
X150531830Y-115739290D01*
X150373080Y-115580540D01*
X149225000Y-115580540D01*
X148971000Y-115580540D01*
X148951000Y-115580540D01*
X148951000Y-115326540D01*
X148971000Y-115326540D01*
X148971000Y-114277520D01*
X149225000Y-114277520D01*
X149225000Y-115326540D01*
X150373080Y-115326540D01*
X150531830Y-115167790D01*
X150531830Y-114627460D01*
X150435157Y-114394071D01*
X150256528Y-114215443D01*
X150023139Y-114118770D01*
X149383750Y-114118770D01*
X149225000Y-114277520D01*
X148971000Y-114277520D01*
X148812250Y-114118770D01*
X148172861Y-114118770D01*
X147939472Y-114215443D01*
X147904200Y-114250715D01*
X147904200Y-113852899D01*
X148047280Y-113950661D01*
X148299170Y-114001670D01*
X149896830Y-114001670D01*
X150132147Y-113957392D01*
X150348271Y-113818320D01*
X150493261Y-113606120D01*
X150544270Y-113354230D01*
X150544270Y-111958456D01*
X150815540Y-111687659D01*
X150853260Y-111596820D01*
X151136080Y-111596820D01*
X151417965Y-111540750D01*
X151474430Y-111503021D01*
X151474430Y-112617630D01*
X151474430Y-112617630D01*
G37*
X151474430Y-112617630D02*
X151518708Y-112852947D01*
X151657780Y-113069071D01*
X151869980Y-113214061D01*
X151979464Y-113236232D01*
X151925569Y-113315110D01*
X151916398Y-113360400D01*
X151905931Y-113360400D01*
X151833370Y-113330270D01*
X151444337Y-113329931D01*
X151084788Y-113478493D01*
X150809460Y-113753341D01*
X150660270Y-114112630D01*
X150659931Y-114501663D01*
X150808493Y-114861212D01*
X151083341Y-115136540D01*
X151442630Y-115285730D01*
X151831663Y-115286069D01*
X152162013Y-115149572D01*
X152233232Y-115198233D01*
X152070559Y-115302910D01*
X151925569Y-115515110D01*
X151874560Y-115767000D01*
X151874560Y-116827000D01*
X151918838Y-117062317D01*
X151981301Y-117159388D01*
X151795559Y-117278910D01*
X151794951Y-117279800D01*
X149352000Y-117279800D01*
X149031235Y-117343604D01*
X148785549Y-117507766D01*
X148759303Y-117525303D01*
X148496806Y-117787800D01*
X147921194Y-117787800D01*
X147904200Y-117770806D01*
X147904200Y-116656365D01*
X147939472Y-116691637D01*
X148172861Y-116788310D01*
X148812250Y-116788310D01*
X148971000Y-116629560D01*
X148971000Y-115580540D01*
X149225000Y-115580540D01*
X149225000Y-116629560D01*
X149383750Y-116788310D01*
X150023139Y-116788310D01*
X150256528Y-116691637D01*
X150435157Y-116513009D01*
X150531830Y-116279620D01*
X150531830Y-115739290D01*
X150373080Y-115580540D01*
X149225000Y-115580540D01*
X148971000Y-115580540D01*
X148951000Y-115580540D01*
X148951000Y-115326540D01*
X148971000Y-115326540D01*
X148971000Y-114277520D01*
X149225000Y-114277520D01*
X149225000Y-115326540D01*
X150373080Y-115326540D01*
X150531830Y-115167790D01*
X150531830Y-114627460D01*
X150435157Y-114394071D01*
X150256528Y-114215443D01*
X150023139Y-114118770D01*
X149383750Y-114118770D01*
X149225000Y-114277520D01*
X148971000Y-114277520D01*
X148812250Y-114118770D01*
X148172861Y-114118770D01*
X147939472Y-114215443D01*
X147904200Y-114250715D01*
X147904200Y-113852899D01*
X148047280Y-113950661D01*
X148299170Y-114001670D01*
X149896830Y-114001670D01*
X150132147Y-113957392D01*
X150348271Y-113818320D01*
X150493261Y-113606120D01*
X150544270Y-113354230D01*
X150544270Y-111958456D01*
X150815540Y-111687659D01*
X150853260Y-111596820D01*
X151136080Y-111596820D01*
X151417965Y-111540750D01*
X151474430Y-111503021D01*
X151474430Y-112617630D01*
G36*
X142310673Y-116621301D02*
X142214000Y-116854690D01*
X142214000Y-117070250D01*
X142372750Y-117229000D01*
X143322000Y-117229000D01*
X143322000Y-117209000D01*
X143576000Y-117209000D01*
X143576000Y-117229000D01*
X143596000Y-117229000D01*
X143596000Y-117483000D01*
X143576000Y-117483000D01*
X143576000Y-117503000D01*
X143322000Y-117503000D01*
X143322000Y-117483000D01*
X142372750Y-117483000D01*
X142214000Y-117641750D01*
X142214000Y-117711600D01*
X140605994Y-117711600D01*
X140030200Y-117135806D01*
X140030200Y-116941194D01*
X140419697Y-116551697D01*
X140476290Y-116467000D01*
X142464975Y-116467000D01*
X142310673Y-116621301D01*
X142310673Y-116621301D01*
G37*
X142310673Y-116621301D02*
X142214000Y-116854690D01*
X142214000Y-117070250D01*
X142372750Y-117229000D01*
X143322000Y-117229000D01*
X143322000Y-117209000D01*
X143576000Y-117209000D01*
X143576000Y-117229000D01*
X143596000Y-117229000D01*
X143596000Y-117483000D01*
X143576000Y-117483000D01*
X143576000Y-117503000D01*
X143322000Y-117503000D01*
X143322000Y-117483000D01*
X142372750Y-117483000D01*
X142214000Y-117641750D01*
X142214000Y-117711600D01*
X140605994Y-117711600D01*
X140030200Y-117135806D01*
X140030200Y-116941194D01*
X140419697Y-116551697D01*
X140476290Y-116467000D01*
X142464975Y-116467000D01*
X142310673Y-116621301D01*
G36*
X147671520Y-102541380D02*
X148204920Y-102541380D01*
X148341849Y-102515615D01*
X148469080Y-102541380D01*
X148648539Y-102541380D01*
X148523460Y-102666241D01*
X148374270Y-103025530D01*
X148373931Y-103414563D01*
X148522493Y-103774112D01*
X148797341Y-104049440D01*
X149156630Y-104198630D01*
X149453555Y-104198889D01*
X149453431Y-104341663D01*
X149601993Y-104701212D01*
X149876841Y-104976540D01*
X150236130Y-105125730D01*
X150625163Y-105126069D01*
X150984712Y-104977507D01*
X151260040Y-104702659D01*
X151359600Y-104462892D01*
X151359600Y-104477122D01*
X151503740Y-104477122D01*
X151472226Y-104523244D01*
X151359600Y-104635870D01*
X151359600Y-104743130D01*
X151370339Y-104769057D01*
X151347160Y-104883520D01*
X151347160Y-105416920D01*
X151368882Y-105532362D01*
X151359600Y-105554770D01*
X151359600Y-105662030D01*
X151466578Y-105769008D01*
X151530510Y-105868361D01*
X151648745Y-105949147D01*
X151543159Y-106017090D01*
X151472226Y-106120904D01*
X151391588Y-106201542D01*
X151303659Y-106113460D01*
X150944370Y-105964270D01*
X150555337Y-105963931D01*
X150195788Y-106112493D01*
X149920460Y-106387341D01*
X149895812Y-106446700D01*
X149085300Y-106446700D01*
X148819163Y-106499638D01*
X148547759Y-106227760D01*
X148188470Y-106078570D01*
X147874720Y-106078297D01*
X147874720Y-106045359D01*
X148000212Y-105993507D01*
X148275540Y-105718659D01*
X148424730Y-105359370D01*
X148425069Y-104970337D01*
X148276507Y-104610788D01*
X148001659Y-104335460D01*
X147642370Y-104186270D01*
X147253337Y-104185931D01*
X146893788Y-104334493D01*
X146618460Y-104609341D01*
X146469270Y-104968630D01*
X146469091Y-105173782D01*
X146457590Y-105190995D01*
X146401520Y-105472880D01*
X146401520Y-105699425D01*
X146371507Y-105626788D01*
X146096659Y-105351460D01*
X145737370Y-105202270D01*
X145348337Y-105201931D01*
X145320697Y-105213352D01*
X145309780Y-105211180D01*
X145119014Y-105211180D01*
X145027795Y-105148853D01*
X145133381Y-105080910D01*
X145204314Y-104977096D01*
X145316940Y-104864470D01*
X145316940Y-104757210D01*
X145306201Y-104731283D01*
X145329380Y-104616820D01*
X145329380Y-104579925D01*
X145380063Y-104579969D01*
X145739612Y-104431407D01*
X146014940Y-104156559D01*
X146164130Y-103797270D01*
X146164434Y-103447994D01*
X146319740Y-103292959D01*
X146468930Y-102933670D01*
X146469269Y-102544637D01*
X146467923Y-102541380D01*
X146604720Y-102541380D01*
X146742965Y-102515367D01*
X146871420Y-102541380D01*
X147404820Y-102541380D01*
X147543065Y-102515367D01*
X147671520Y-102541380D01*
X147671520Y-102541380D01*
G37*
X147671520Y-102541380D02*
X148204920Y-102541380D01*
X148341849Y-102515615D01*
X148469080Y-102541380D01*
X148648539Y-102541380D01*
X148523460Y-102666241D01*
X148374270Y-103025530D01*
X148373931Y-103414563D01*
X148522493Y-103774112D01*
X148797341Y-104049440D01*
X149156630Y-104198630D01*
X149453555Y-104198889D01*
X149453431Y-104341663D01*
X149601993Y-104701212D01*
X149876841Y-104976540D01*
X150236130Y-105125730D01*
X150625163Y-105126069D01*
X150984712Y-104977507D01*
X151260040Y-104702659D01*
X151359600Y-104462892D01*
X151359600Y-104477122D01*
X151503740Y-104477122D01*
X151472226Y-104523244D01*
X151359600Y-104635870D01*
X151359600Y-104743130D01*
X151370339Y-104769057D01*
X151347160Y-104883520D01*
X151347160Y-105416920D01*
X151368882Y-105532362D01*
X151359600Y-105554770D01*
X151359600Y-105662030D01*
X151466578Y-105769008D01*
X151530510Y-105868361D01*
X151648745Y-105949147D01*
X151543159Y-106017090D01*
X151472226Y-106120904D01*
X151391588Y-106201542D01*
X151303659Y-106113460D01*
X150944370Y-105964270D01*
X150555337Y-105963931D01*
X150195788Y-106112493D01*
X149920460Y-106387341D01*
X149895812Y-106446700D01*
X149085300Y-106446700D01*
X148819163Y-106499638D01*
X148547759Y-106227760D01*
X148188470Y-106078570D01*
X147874720Y-106078297D01*
X147874720Y-106045359D01*
X148000212Y-105993507D01*
X148275540Y-105718659D01*
X148424730Y-105359370D01*
X148425069Y-104970337D01*
X148276507Y-104610788D01*
X148001659Y-104335460D01*
X147642370Y-104186270D01*
X147253337Y-104185931D01*
X146893788Y-104334493D01*
X146618460Y-104609341D01*
X146469270Y-104968630D01*
X146469091Y-105173782D01*
X146457590Y-105190995D01*
X146401520Y-105472880D01*
X146401520Y-105699425D01*
X146371507Y-105626788D01*
X146096659Y-105351460D01*
X145737370Y-105202270D01*
X145348337Y-105201931D01*
X145320697Y-105213352D01*
X145309780Y-105211180D01*
X145119014Y-105211180D01*
X145027795Y-105148853D01*
X145133381Y-105080910D01*
X145204314Y-104977096D01*
X145316940Y-104864470D01*
X145316940Y-104757210D01*
X145306201Y-104731283D01*
X145329380Y-104616820D01*
X145329380Y-104579925D01*
X145380063Y-104579969D01*
X145739612Y-104431407D01*
X146014940Y-104156559D01*
X146164130Y-103797270D01*
X146164434Y-103447994D01*
X146319740Y-103292959D01*
X146468930Y-102933670D01*
X146469269Y-102544637D01*
X146467923Y-102541380D01*
X146604720Y-102541380D01*
X146742965Y-102515367D01*
X146871420Y-102541380D01*
X147404820Y-102541380D01*
X147543065Y-102515367D01*
X147671520Y-102541380D01*
G36*
X152867054Y-88387919D02*
X153247323Y-88545820D01*
X153659071Y-88546179D01*
X154039615Y-88388942D01*
X154079426Y-88349200D01*
X154750368Y-88349200D01*
X154809645Y-88441319D01*
X154796643Y-88454321D01*
X154699970Y-88687710D01*
X154699970Y-89163270D01*
X154858720Y-89322020D01*
X156207460Y-89322020D01*
X156207460Y-89302020D01*
X156461460Y-89302020D01*
X156461460Y-89322020D01*
X156481460Y-89322020D01*
X156481460Y-89576020D01*
X156461460Y-89576020D01*
X156461460Y-90560270D01*
X156620210Y-90719020D01*
X157460259Y-90719020D01*
X157693648Y-90622347D01*
X157732678Y-90583317D01*
X157735073Y-90589098D01*
X157913701Y-90767727D01*
X158147090Y-90864400D01*
X158362650Y-90864400D01*
X158521400Y-90705650D01*
X158521400Y-89756400D01*
X158501400Y-89756400D01*
X158501400Y-89502400D01*
X158521400Y-89502400D01*
X158521400Y-89482400D01*
X158775400Y-89482400D01*
X158775400Y-89502400D01*
X158795400Y-89502400D01*
X158795400Y-89756400D01*
X158775400Y-89756400D01*
X158775400Y-90705650D01*
X158934150Y-90864400D01*
X159149710Y-90864400D01*
X159383099Y-90767727D01*
X159540288Y-90610538D01*
X159676750Y-90747000D01*
X160401000Y-90747000D01*
X160401000Y-90727000D01*
X160655000Y-90727000D01*
X160655000Y-90747000D01*
X160675000Y-90747000D01*
X160675000Y-91001000D01*
X160655000Y-91001000D01*
X160655000Y-91950250D01*
X160813750Y-92109000D01*
X161029310Y-92109000D01*
X161085682Y-92085650D01*
X161223150Y-92299281D01*
X161387751Y-92411748D01*
X161371470Y-92436115D01*
X161315400Y-92718000D01*
X161315400Y-93334048D01*
X161235799Y-93385270D01*
X161090809Y-93597470D01*
X161039800Y-93849360D01*
X161039800Y-94646920D01*
X161084078Y-94882237D01*
X161170603Y-95016700D01*
X159753300Y-95016700D01*
X159471415Y-95072770D01*
X159232445Y-95232445D01*
X158571890Y-95893000D01*
X157981390Y-95893000D01*
X157981390Y-94810960D01*
X157937112Y-94575643D01*
X157894026Y-94508685D01*
X158105463Y-94508869D01*
X158465012Y-94360307D01*
X158740340Y-94085459D01*
X158889530Y-93726170D01*
X158889869Y-93337137D01*
X158741307Y-92977588D01*
X158721434Y-92957680D01*
X158739785Y-92954030D01*
X158978755Y-92794355D01*
X159138430Y-92555385D01*
X159194500Y-92273500D01*
X159138430Y-91991615D01*
X158978755Y-91752645D01*
X158902555Y-91676445D01*
X158663585Y-91516770D01*
X158381700Y-91460700D01*
X156768800Y-91460700D01*
X156486915Y-91516770D01*
X156247945Y-91676445D01*
X156088270Y-91915415D01*
X156038716Y-92164540D01*
X155334970Y-92164540D01*
X155129227Y-92203253D01*
X155087130Y-91991615D01*
X154927455Y-91752645D01*
X154688485Y-91592970D01*
X154406600Y-91536900D01*
X153022300Y-91536900D01*
X152740415Y-91592970D01*
X152501445Y-91752645D01*
X152386990Y-91867100D01*
X151168100Y-91867100D01*
X150886215Y-91923170D01*
X150647245Y-92082845D01*
X150487570Y-92321815D01*
X150431500Y-92603700D01*
X150487570Y-92885585D01*
X150647245Y-93124555D01*
X150886215Y-93284230D01*
X151168100Y-93340300D01*
X152665155Y-93340300D01*
X152367488Y-93463293D01*
X152187980Y-93642488D01*
X152011170Y-93569070D01*
X151622137Y-93568731D01*
X151262588Y-93717293D01*
X151187167Y-93792582D01*
X150893570Y-93670670D01*
X150504537Y-93670331D01*
X150144988Y-93818893D01*
X149869660Y-94093741D01*
X149720470Y-94453030D01*
X149720131Y-94842063D01*
X149868693Y-95201612D01*
X150143541Y-95476940D01*
X150418800Y-95591238D01*
X150418800Y-97746890D01*
X150304190Y-97861500D01*
X150025105Y-97861500D01*
X150025100Y-97861499D01*
X149789983Y-97908267D01*
X149743215Y-97917570D01*
X149504245Y-98077245D01*
X149015025Y-98566465D01*
X148855350Y-98805435D01*
X148799280Y-99087320D01*
X148799280Y-99505570D01*
X148742456Y-99448746D01*
X148742569Y-99318837D01*
X148594007Y-98959288D01*
X148319159Y-98683960D01*
X148143739Y-98611119D01*
X148339040Y-98416159D01*
X148488230Y-98056870D01*
X148488569Y-97667837D01*
X148340007Y-97308288D01*
X148065159Y-97032960D01*
X147774660Y-96912334D01*
X147774660Y-95607734D01*
X147912697Y-95469697D01*
X147943832Y-95423100D01*
X148094396Y-95197765D01*
X148158200Y-94877000D01*
X148158200Y-91159750D01*
X159518000Y-91159750D01*
X159518000Y-91600309D01*
X159614673Y-91833698D01*
X159793301Y-92012327D01*
X160026690Y-92109000D01*
X160242250Y-92109000D01*
X160401000Y-91950250D01*
X160401000Y-91001000D01*
X159676750Y-91001000D01*
X159518000Y-91159750D01*
X148158200Y-91159750D01*
X148158200Y-89734770D01*
X154699970Y-89734770D01*
X154699970Y-90210330D01*
X154796643Y-90443719D01*
X154975272Y-90622347D01*
X155208661Y-90719020D01*
X156048710Y-90719020D01*
X156207460Y-90560270D01*
X156207460Y-89576020D01*
X154858720Y-89576020D01*
X154699970Y-89734770D01*
X148158200Y-89734770D01*
X148158200Y-89255194D01*
X149064194Y-88349200D01*
X152828402Y-88349200D01*
X152867054Y-88387919D01*
X152867054Y-88387919D01*
G37*
X152867054Y-88387919D02*
X153247323Y-88545820D01*
X153659071Y-88546179D01*
X154039615Y-88388942D01*
X154079426Y-88349200D01*
X154750368Y-88349200D01*
X154809645Y-88441319D01*
X154796643Y-88454321D01*
X154699970Y-88687710D01*
X154699970Y-89163270D01*
X154858720Y-89322020D01*
X156207460Y-89322020D01*
X156207460Y-89302020D01*
X156461460Y-89302020D01*
X156461460Y-89322020D01*
X156481460Y-89322020D01*
X156481460Y-89576020D01*
X156461460Y-89576020D01*
X156461460Y-90560270D01*
X156620210Y-90719020D01*
X157460259Y-90719020D01*
X157693648Y-90622347D01*
X157732678Y-90583317D01*
X157735073Y-90589098D01*
X157913701Y-90767727D01*
X158147090Y-90864400D01*
X158362650Y-90864400D01*
X158521400Y-90705650D01*
X158521400Y-89756400D01*
X158501400Y-89756400D01*
X158501400Y-89502400D01*
X158521400Y-89502400D01*
X158521400Y-89482400D01*
X158775400Y-89482400D01*
X158775400Y-89502400D01*
X158795400Y-89502400D01*
X158795400Y-89756400D01*
X158775400Y-89756400D01*
X158775400Y-90705650D01*
X158934150Y-90864400D01*
X159149710Y-90864400D01*
X159383099Y-90767727D01*
X159540288Y-90610538D01*
X159676750Y-90747000D01*
X160401000Y-90747000D01*
X160401000Y-90727000D01*
X160655000Y-90727000D01*
X160655000Y-90747000D01*
X160675000Y-90747000D01*
X160675000Y-91001000D01*
X160655000Y-91001000D01*
X160655000Y-91950250D01*
X160813750Y-92109000D01*
X161029310Y-92109000D01*
X161085682Y-92085650D01*
X161223150Y-92299281D01*
X161387751Y-92411748D01*
X161371470Y-92436115D01*
X161315400Y-92718000D01*
X161315400Y-93334048D01*
X161235799Y-93385270D01*
X161090809Y-93597470D01*
X161039800Y-93849360D01*
X161039800Y-94646920D01*
X161084078Y-94882237D01*
X161170603Y-95016700D01*
X159753300Y-95016700D01*
X159471415Y-95072770D01*
X159232445Y-95232445D01*
X158571890Y-95893000D01*
X157981390Y-95893000D01*
X157981390Y-94810960D01*
X157937112Y-94575643D01*
X157894026Y-94508685D01*
X158105463Y-94508869D01*
X158465012Y-94360307D01*
X158740340Y-94085459D01*
X158889530Y-93726170D01*
X158889869Y-93337137D01*
X158741307Y-92977588D01*
X158721434Y-92957680D01*
X158739785Y-92954030D01*
X158978755Y-92794355D01*
X159138430Y-92555385D01*
X159194500Y-92273500D01*
X159138430Y-91991615D01*
X158978755Y-91752645D01*
X158902555Y-91676445D01*
X158663585Y-91516770D01*
X158381700Y-91460700D01*
X156768800Y-91460700D01*
X156486915Y-91516770D01*
X156247945Y-91676445D01*
X156088270Y-91915415D01*
X156038716Y-92164540D01*
X155334970Y-92164540D01*
X155129227Y-92203253D01*
X155087130Y-91991615D01*
X154927455Y-91752645D01*
X154688485Y-91592970D01*
X154406600Y-91536900D01*
X153022300Y-91536900D01*
X152740415Y-91592970D01*
X152501445Y-91752645D01*
X152386990Y-91867100D01*
X151168100Y-91867100D01*
X150886215Y-91923170D01*
X150647245Y-92082845D01*
X150487570Y-92321815D01*
X150431500Y-92603700D01*
X150487570Y-92885585D01*
X150647245Y-93124555D01*
X150886215Y-93284230D01*
X151168100Y-93340300D01*
X152665155Y-93340300D01*
X152367488Y-93463293D01*
X152187980Y-93642488D01*
X152011170Y-93569070D01*
X151622137Y-93568731D01*
X151262588Y-93717293D01*
X151187167Y-93792582D01*
X150893570Y-93670670D01*
X150504537Y-93670331D01*
X150144988Y-93818893D01*
X149869660Y-94093741D01*
X149720470Y-94453030D01*
X149720131Y-94842063D01*
X149868693Y-95201612D01*
X150143541Y-95476940D01*
X150418800Y-95591238D01*
X150418800Y-97746890D01*
X150304190Y-97861500D01*
X150025105Y-97861500D01*
X150025100Y-97861499D01*
X149789983Y-97908267D01*
X149743215Y-97917570D01*
X149504245Y-98077245D01*
X149015025Y-98566465D01*
X148855350Y-98805435D01*
X148799280Y-99087320D01*
X148799280Y-99505570D01*
X148742456Y-99448746D01*
X148742569Y-99318837D01*
X148594007Y-98959288D01*
X148319159Y-98683960D01*
X148143739Y-98611119D01*
X148339040Y-98416159D01*
X148488230Y-98056870D01*
X148488569Y-97667837D01*
X148340007Y-97308288D01*
X148065159Y-97032960D01*
X147774660Y-96912334D01*
X147774660Y-95607734D01*
X147912697Y-95469697D01*
X147943832Y-95423100D01*
X148094396Y-95197765D01*
X148158200Y-94877000D01*
X148158200Y-91159750D01*
X159518000Y-91159750D01*
X159518000Y-91600309D01*
X159614673Y-91833698D01*
X159793301Y-92012327D01*
X160026690Y-92109000D01*
X160242250Y-92109000D01*
X160401000Y-91950250D01*
X160401000Y-91001000D01*
X159676750Y-91001000D01*
X159518000Y-91159750D01*
X148158200Y-91159750D01*
X148158200Y-89734770D01*
X154699970Y-89734770D01*
X154699970Y-90210330D01*
X154796643Y-90443719D01*
X154975272Y-90622347D01*
X155208661Y-90719020D01*
X156048710Y-90719020D01*
X156207460Y-90560270D01*
X156207460Y-89576020D01*
X154858720Y-89576020D01*
X154699970Y-89734770D01*
X148158200Y-89734770D01*
X148158200Y-89255194D01*
X149064194Y-88349200D01*
X152828402Y-88349200D01*
X152867054Y-88387919D01*
G36*
X138975812Y-84275193D02*
X138797183Y-84453821D01*
X138700510Y-84687210D01*
X138700510Y-85162770D01*
X138859260Y-85321520D01*
X140208000Y-85321520D01*
X140208000Y-85301520D01*
X140462000Y-85301520D01*
X140462000Y-85321520D01*
X141810740Y-85321520D01*
X141969490Y-85162770D01*
X141969490Y-84687210D01*
X141872817Y-84453821D01*
X141694188Y-84275193D01*
X141545490Y-84213600D01*
X155094615Y-84213600D01*
X154883529Y-84349430D01*
X154738539Y-84561630D01*
X154687530Y-84813520D01*
X154687530Y-86083520D01*
X154731808Y-86318837D01*
X154816035Y-86449730D01*
X154738539Y-86563150D01*
X154716334Y-86672800D01*
X154079798Y-86672800D01*
X154041146Y-86634081D01*
X153660877Y-86476180D01*
X153249129Y-86475821D01*
X152868585Y-86633058D01*
X152828774Y-86672800D01*
X148717000Y-86672800D01*
X148396234Y-86736604D01*
X148124303Y-86918303D01*
X146727303Y-88315303D01*
X146545604Y-88587234D01*
X146545604Y-88587235D01*
X146481800Y-88908000D01*
X146481800Y-89847800D01*
X142344975Y-89847800D01*
X142293646Y-89796381D01*
X141913377Y-89638480D01*
X141501629Y-89638121D01*
X141121085Y-89795358D01*
X140829681Y-90086254D01*
X140671780Y-90466523D01*
X140671606Y-90666584D01*
X140601390Y-90736800D01*
X137657976Y-90736800D01*
X137689437Y-90705339D01*
X137786110Y-90471950D01*
X137786110Y-90181810D01*
X137627360Y-90023060D01*
X136779000Y-90023060D01*
X136779000Y-90043060D01*
X136525000Y-90043060D01*
X136525000Y-90023060D01*
X135676640Y-90023060D01*
X135517890Y-90181810D01*
X135517890Y-90471950D01*
X135614563Y-90705339D01*
X135786538Y-90877313D01*
X135710372Y-90928205D01*
X135673945Y-90952545D01*
X135231570Y-91394920D01*
X135154670Y-91394920D01*
X134919353Y-91439198D01*
X134703229Y-91578270D01*
X134558239Y-91790470D01*
X134507230Y-92042360D01*
X134507230Y-92941520D01*
X134551508Y-93176837D01*
X134605336Y-93260488D01*
X134500559Y-93327910D01*
X134355569Y-93540110D01*
X134304560Y-93792000D01*
X134304560Y-94304046D01*
X134254806Y-94353800D01*
X133564307Y-94353800D01*
X133499671Y-94253354D01*
X133501327Y-94251698D01*
X133598000Y-94018309D01*
X133598000Y-93577750D01*
X133439250Y-93419000D01*
X132715000Y-93419000D01*
X132715000Y-93439000D01*
X132461000Y-93439000D01*
X132461000Y-93419000D01*
X131736750Y-93419000D01*
X131578000Y-93577750D01*
X131578000Y-94018309D01*
X131674673Y-94251698D01*
X131676043Y-94253068D01*
X131616569Y-94340110D01*
X131613797Y-94353800D01*
X131149066Y-94353800D01*
X131221431Y-94247890D01*
X131272440Y-93996000D01*
X131272440Y-92796000D01*
X131229105Y-92565691D01*
X131578000Y-92565691D01*
X131578000Y-93006250D01*
X131736750Y-93165000D01*
X132461000Y-93165000D01*
X132461000Y-92215750D01*
X132715000Y-92215750D01*
X132715000Y-93165000D01*
X133439250Y-93165000D01*
X133598000Y-93006250D01*
X133598000Y-92565691D01*
X133501327Y-92332302D01*
X133322699Y-92153673D01*
X133089310Y-92057000D01*
X132873750Y-92057000D01*
X132715000Y-92215750D01*
X132461000Y-92215750D01*
X132302250Y-92057000D01*
X132086690Y-92057000D01*
X131853301Y-92153673D01*
X131674673Y-92332302D01*
X131578000Y-92565691D01*
X131229105Y-92565691D01*
X131228162Y-92560683D01*
X131089090Y-92344559D01*
X130876890Y-92199569D01*
X130625000Y-92148560D01*
X129725000Y-92148560D01*
X129489683Y-92192838D01*
X129273559Y-92331910D01*
X129128569Y-92544110D01*
X129094642Y-92711645D01*
X129075415Y-92715470D01*
X128836445Y-92875145D01*
X128574645Y-93136945D01*
X128414970Y-93375915D01*
X128358900Y-93657800D01*
X128358900Y-95893000D01*
X127711100Y-95893000D01*
X127711100Y-91731130D01*
X129591699Y-89098291D01*
X130499054Y-90005646D01*
X130729395Y-90159554D01*
X131001100Y-90213600D01*
X131272805Y-90159554D01*
X131503146Y-90005646D01*
X131721329Y-89787463D01*
X138175831Y-89787463D01*
X138324393Y-90147012D01*
X138599241Y-90422340D01*
X138958530Y-90571530D01*
X139347563Y-90571869D01*
X139707112Y-90423307D01*
X139982440Y-90148459D01*
X140131630Y-89789170D01*
X140131745Y-89657665D01*
X140855855Y-88933555D01*
X140918037Y-88840493D01*
X140927414Y-88826460D01*
X141334490Y-88826460D01*
X141569807Y-88782182D01*
X141785931Y-88643110D01*
X141930921Y-88430910D01*
X141981930Y-88179020D01*
X141981930Y-86909020D01*
X141937652Y-86673703D01*
X141822024Y-86494012D01*
X141872817Y-86443219D01*
X141969490Y-86209830D01*
X141969490Y-85734270D01*
X141810740Y-85575520D01*
X140462000Y-85575520D01*
X140462000Y-85595520D01*
X140208000Y-85595520D01*
X140208000Y-85575520D01*
X138859260Y-85575520D01*
X138700510Y-85734270D01*
X138700510Y-86209830D01*
X138797183Y-86443219D01*
X138849495Y-86495531D01*
X138739079Y-86657130D01*
X138688070Y-86909020D01*
X138688070Y-88179020D01*
X138732348Y-88414337D01*
X138871420Y-88630461D01*
X138891456Y-88644151D01*
X138600688Y-88764293D01*
X138325360Y-89039141D01*
X138176170Y-89398430D01*
X138175831Y-89787463D01*
X131721329Y-89787463D01*
X132188622Y-89320170D01*
X135517890Y-89320170D01*
X135517890Y-89610310D01*
X135676640Y-89769060D01*
X136525000Y-89769060D01*
X136525000Y-88970230D01*
X136779000Y-88970230D01*
X136779000Y-89769060D01*
X137627360Y-89769060D01*
X137786110Y-89610310D01*
X137786110Y-89320170D01*
X137689437Y-89086781D01*
X137510808Y-88908153D01*
X137277419Y-88811480D01*
X136937750Y-88811480D01*
X136779000Y-88970230D01*
X136525000Y-88970230D01*
X136366250Y-88811480D01*
X136026581Y-88811480D01*
X135793192Y-88908153D01*
X135614563Y-89086781D01*
X135517890Y-89320170D01*
X132188622Y-89320170D01*
X133503146Y-88005646D01*
X133657054Y-87775305D01*
X133711100Y-87503600D01*
X133657054Y-87231895D01*
X133503146Y-87001554D01*
X132595791Y-86094199D01*
X135228630Y-84213600D01*
X139124510Y-84213600D01*
X138975812Y-84275193D01*
X138975812Y-84275193D01*
G37*
X138975812Y-84275193D02*
X138797183Y-84453821D01*
X138700510Y-84687210D01*
X138700510Y-85162770D01*
X138859260Y-85321520D01*
X140208000Y-85321520D01*
X140208000Y-85301520D01*
X140462000Y-85301520D01*
X140462000Y-85321520D01*
X141810740Y-85321520D01*
X141969490Y-85162770D01*
X141969490Y-84687210D01*
X141872817Y-84453821D01*
X141694188Y-84275193D01*
X141545490Y-84213600D01*
X155094615Y-84213600D01*
X154883529Y-84349430D01*
X154738539Y-84561630D01*
X154687530Y-84813520D01*
X154687530Y-86083520D01*
X154731808Y-86318837D01*
X154816035Y-86449730D01*
X154738539Y-86563150D01*
X154716334Y-86672800D01*
X154079798Y-86672800D01*
X154041146Y-86634081D01*
X153660877Y-86476180D01*
X153249129Y-86475821D01*
X152868585Y-86633058D01*
X152828774Y-86672800D01*
X148717000Y-86672800D01*
X148396234Y-86736604D01*
X148124303Y-86918303D01*
X146727303Y-88315303D01*
X146545604Y-88587234D01*
X146545604Y-88587235D01*
X146481800Y-88908000D01*
X146481800Y-89847800D01*
X142344975Y-89847800D01*
X142293646Y-89796381D01*
X141913377Y-89638480D01*
X141501629Y-89638121D01*
X141121085Y-89795358D01*
X140829681Y-90086254D01*
X140671780Y-90466523D01*
X140671606Y-90666584D01*
X140601390Y-90736800D01*
X137657976Y-90736800D01*
X137689437Y-90705339D01*
X137786110Y-90471950D01*
X137786110Y-90181810D01*
X137627360Y-90023060D01*
X136779000Y-90023060D01*
X136779000Y-90043060D01*
X136525000Y-90043060D01*
X136525000Y-90023060D01*
X135676640Y-90023060D01*
X135517890Y-90181810D01*
X135517890Y-90471950D01*
X135614563Y-90705339D01*
X135786538Y-90877313D01*
X135710372Y-90928205D01*
X135673945Y-90952545D01*
X135231570Y-91394920D01*
X135154670Y-91394920D01*
X134919353Y-91439198D01*
X134703229Y-91578270D01*
X134558239Y-91790470D01*
X134507230Y-92042360D01*
X134507230Y-92941520D01*
X134551508Y-93176837D01*
X134605336Y-93260488D01*
X134500559Y-93327910D01*
X134355569Y-93540110D01*
X134304560Y-93792000D01*
X134304560Y-94304046D01*
X134254806Y-94353800D01*
X133564307Y-94353800D01*
X133499671Y-94253354D01*
X133501327Y-94251698D01*
X133598000Y-94018309D01*
X133598000Y-93577750D01*
X133439250Y-93419000D01*
X132715000Y-93419000D01*
X132715000Y-93439000D01*
X132461000Y-93439000D01*
X132461000Y-93419000D01*
X131736750Y-93419000D01*
X131578000Y-93577750D01*
X131578000Y-94018309D01*
X131674673Y-94251698D01*
X131676043Y-94253068D01*
X131616569Y-94340110D01*
X131613797Y-94353800D01*
X131149066Y-94353800D01*
X131221431Y-94247890D01*
X131272440Y-93996000D01*
X131272440Y-92796000D01*
X131229105Y-92565691D01*
X131578000Y-92565691D01*
X131578000Y-93006250D01*
X131736750Y-93165000D01*
X132461000Y-93165000D01*
X132461000Y-92215750D01*
X132715000Y-92215750D01*
X132715000Y-93165000D01*
X133439250Y-93165000D01*
X133598000Y-93006250D01*
X133598000Y-92565691D01*
X133501327Y-92332302D01*
X133322699Y-92153673D01*
X133089310Y-92057000D01*
X132873750Y-92057000D01*
X132715000Y-92215750D01*
X132461000Y-92215750D01*
X132302250Y-92057000D01*
X132086690Y-92057000D01*
X131853301Y-92153673D01*
X131674673Y-92332302D01*
X131578000Y-92565691D01*
X131229105Y-92565691D01*
X131228162Y-92560683D01*
X131089090Y-92344559D01*
X130876890Y-92199569D01*
X130625000Y-92148560D01*
X129725000Y-92148560D01*
X129489683Y-92192838D01*
X129273559Y-92331910D01*
X129128569Y-92544110D01*
X129094642Y-92711645D01*
X129075415Y-92715470D01*
X128836445Y-92875145D01*
X128574645Y-93136945D01*
X128414970Y-93375915D01*
X128358900Y-93657800D01*
X128358900Y-95893000D01*
X127711100Y-95893000D01*
X127711100Y-91731130D01*
X129591699Y-89098291D01*
X130499054Y-90005646D01*
X130729395Y-90159554D01*
X131001100Y-90213600D01*
X131272805Y-90159554D01*
X131503146Y-90005646D01*
X131721329Y-89787463D01*
X138175831Y-89787463D01*
X138324393Y-90147012D01*
X138599241Y-90422340D01*
X138958530Y-90571530D01*
X139347563Y-90571869D01*
X139707112Y-90423307D01*
X139982440Y-90148459D01*
X140131630Y-89789170D01*
X140131745Y-89657665D01*
X140855855Y-88933555D01*
X140918037Y-88840493D01*
X140927414Y-88826460D01*
X141334490Y-88826460D01*
X141569807Y-88782182D01*
X141785931Y-88643110D01*
X141930921Y-88430910D01*
X141981930Y-88179020D01*
X141981930Y-86909020D01*
X141937652Y-86673703D01*
X141822024Y-86494012D01*
X141872817Y-86443219D01*
X141969490Y-86209830D01*
X141969490Y-85734270D01*
X141810740Y-85575520D01*
X140462000Y-85575520D01*
X140462000Y-85595520D01*
X140208000Y-85595520D01*
X140208000Y-85575520D01*
X138859260Y-85575520D01*
X138700510Y-85734270D01*
X138700510Y-86209830D01*
X138797183Y-86443219D01*
X138849495Y-86495531D01*
X138739079Y-86657130D01*
X138688070Y-86909020D01*
X138688070Y-88179020D01*
X138732348Y-88414337D01*
X138871420Y-88630461D01*
X138891456Y-88644151D01*
X138600688Y-88764293D01*
X138325360Y-89039141D01*
X138176170Y-89398430D01*
X138175831Y-89787463D01*
X131721329Y-89787463D01*
X132188622Y-89320170D01*
X135517890Y-89320170D01*
X135517890Y-89610310D01*
X135676640Y-89769060D01*
X136525000Y-89769060D01*
X136525000Y-88970230D01*
X136779000Y-88970230D01*
X136779000Y-89769060D01*
X137627360Y-89769060D01*
X137786110Y-89610310D01*
X137786110Y-89320170D01*
X137689437Y-89086781D01*
X137510808Y-88908153D01*
X137277419Y-88811480D01*
X136937750Y-88811480D01*
X136779000Y-88970230D01*
X136525000Y-88970230D01*
X136366250Y-88811480D01*
X136026581Y-88811480D01*
X135793192Y-88908153D01*
X135614563Y-89086781D01*
X135517890Y-89320170D01*
X132188622Y-89320170D01*
X133503146Y-88005646D01*
X133657054Y-87775305D01*
X133711100Y-87503600D01*
X133657054Y-87231895D01*
X133503146Y-87001554D01*
X132595791Y-86094199D01*
X135228630Y-84213600D01*
X139124510Y-84213600D01*
X138975812Y-84275193D01*
G36*
X144713460Y-91744241D02*
X144564270Y-92103530D01*
X144564155Y-92235035D01*
X142646245Y-94152945D01*
X142486570Y-94391915D01*
X142430500Y-94673800D01*
X142430500Y-95779750D01*
X142244870Y-95702670D01*
X142113365Y-95702555D01*
X141984470Y-95573660D01*
X141984470Y-94810960D01*
X141940192Y-94575643D01*
X141801120Y-94359519D01*
X141588920Y-94214529D01*
X141337030Y-94163520D01*
X139338050Y-94163520D01*
X139102733Y-94207798D01*
X138999440Y-94274265D01*
X138999440Y-93792000D01*
X138955162Y-93556683D01*
X138816090Y-93340559D01*
X138699602Y-93260966D01*
X138745761Y-93193410D01*
X138796770Y-92941520D01*
X138796770Y-92210000D01*
X140906500Y-92210000D01*
X141188385Y-92153930D01*
X141427355Y-91994255D01*
X141713304Y-91708306D01*
X141911571Y-91708479D01*
X142292115Y-91551242D01*
X142319204Y-91524200D01*
X144933885Y-91524200D01*
X144713460Y-91744241D01*
X144713460Y-91744241D01*
G37*
X144713460Y-91744241D02*
X144564270Y-92103530D01*
X144564155Y-92235035D01*
X142646245Y-94152945D01*
X142486570Y-94391915D01*
X142430500Y-94673800D01*
X142430500Y-95779750D01*
X142244870Y-95702670D01*
X142113365Y-95702555D01*
X141984470Y-95573660D01*
X141984470Y-94810960D01*
X141940192Y-94575643D01*
X141801120Y-94359519D01*
X141588920Y-94214529D01*
X141337030Y-94163520D01*
X139338050Y-94163520D01*
X139102733Y-94207798D01*
X138999440Y-94274265D01*
X138999440Y-93792000D01*
X138955162Y-93556683D01*
X138816090Y-93340559D01*
X138699602Y-93260966D01*
X138745761Y-93193410D01*
X138796770Y-92941520D01*
X138796770Y-92210000D01*
X140906500Y-92210000D01*
X141188385Y-92153930D01*
X141427355Y-91994255D01*
X141713304Y-91708306D01*
X141911571Y-91708479D01*
X142292115Y-91551242D01*
X142319204Y-91524200D01*
X144933885Y-91524200D01*
X144713460Y-91744241D01*
G36*
X165125400Y-91702310D02*
X165125400Y-92098838D01*
X164960559Y-92204910D01*
X164815569Y-92417110D01*
X164785906Y-92563588D01*
X164660815Y-92588470D01*
X164466960Y-92718000D01*
X164434594Y-92739626D01*
X164359259Y-92664160D01*
X163999970Y-92514970D01*
X163657725Y-92514672D01*
X163632370Y-92453306D01*
X163794458Y-92386167D01*
X163973087Y-92207539D01*
X164069760Y-91974150D01*
X164069760Y-91734810D01*
X163911010Y-91576060D01*
X163581820Y-91576060D01*
X163581820Y-91322060D01*
X163911010Y-91322060D01*
X164069760Y-91163310D01*
X164069760Y-90923970D01*
X164039685Y-90851363D01*
X164108567Y-90685477D01*
X165125400Y-91702310D01*
X165125400Y-91702310D01*
G37*
X165125400Y-91702310D02*
X165125400Y-92098838D01*
X164960559Y-92204910D01*
X164815569Y-92417110D01*
X164785906Y-92563588D01*
X164660815Y-92588470D01*
X164466960Y-92718000D01*
X164434594Y-92739626D01*
X164359259Y-92664160D01*
X163999970Y-92514970D01*
X163657725Y-92514672D01*
X163632370Y-92453306D01*
X163794458Y-92386167D01*
X163973087Y-92207539D01*
X164069760Y-91974150D01*
X164069760Y-91734810D01*
X163911010Y-91576060D01*
X163581820Y-91576060D01*
X163581820Y-91322060D01*
X163911010Y-91322060D01*
X164069760Y-91163310D01*
X164069760Y-90923970D01*
X164039685Y-90851363D01*
X164108567Y-90685477D01*
X165125400Y-91702310D01*
M02*
