M48
;DRILL file {KiCad 4.0.6} date 06/15/17 20:02:40
;FORMAT={-:-/ absolute / inch / decimal}
FMAT,2
INCH,TZ
T1C0.013
T2C0.016
T3C0.031
T4C0.059
%
G90
G05
M72
T1
X5.115Y-4.5403
X5.3Y-4.6103
X5.355Y-4.8103
X5.4775Y-4.5303
X5.52Y-4.3903
X5.57Y-4.7953
X5.606Y-4.5543
X5.64Y-4.6553
X5.6425Y-4.9003
X5.6725Y-4.2983
X5.715Y-4.2303
X5.715Y-4.3603
X5.7275Y-3.9303
X5.7625Y-4.3628
X5.82Y-4.2378
X5.8525Y-4.2678
X5.854Y-3.7383
X5.854Y-3.8583
X5.8675Y-3.9003
X5.87Y-4.0853
X5.8825Y-4.2428
X5.884Y-3.8323
X5.885Y-4.0403
X5.89Y-3.5403
X5.936Y-4.2003
X5.965Y-4.2278
X5.9725Y-4.6128
X5.988Y-3.5563
X5.99Y-3.9003
X5.992Y-3.5003
X5.992Y-3.7623
X6.004Y-4.0153
X6.016Y-4.4803
X6.05Y-4.2653
X6.134Y-3.5623
X6.195Y-4.4103
X6.225Y-4.5403
X6.2975Y-4.6878
X6.34Y-4.6553
X6.36Y-4.6053
X6.362Y-3.3923
X6.39Y-3.6123
X6.428Y-3.7063
X6.43Y-3.6223
X6.49Y-4.7153
X6.494Y-3.5763
X6.494Y-3.6583
X6.565Y-4.5403
T2
X5.215Y-4.6203
X5.36Y-4.6853
X5.39Y-4.8703
X5.545Y-4.8553
X5.76Y-3.5013
X5.765Y-4.1653
X5.785Y-4.4553
X5.7975Y-3.8328
X5.7975Y-4.0628
X5.842Y-3.4243
X5.9025Y-4.8703
X5.95Y-4.1328
X5.9575Y-4.0728
X5.9975Y-4.3253
X6.0725Y-3.9053
X6.098Y-3.7663
X6.155Y-4.5703
X6.298Y-3.5803
X6.355Y-4.8903
X6.53Y-4.6903
X6.616Y-4.6263
T3
X5.7862Y-4.7429
X5.7862Y-4.8216
X5.8649Y-4.7429
X5.8649Y-4.8216
X5.9436Y-4.7429
X5.9436Y-4.8216
X6.0224Y-4.7429
X6.0224Y-4.8216
X6.1011Y-4.7429
X6.1011Y-4.8216
X6.1799Y-4.7429
X6.1799Y-4.8216
X6.2586Y-4.7429
X6.2586Y-4.8216
T4
X5.1378Y-4.4685
X5.4528Y-4.4685
X6.2402Y-4.4685
X6.5551Y-4.4685
T0
M30
