G04 #@! TF.FileFunction,Copper,L1,Top,Signal*
%FSLAX46Y46*%
G04 Gerber Fmt 4.6, Leading zero omitted, Abs format (unit mm)*
G04 Created by KiCad (PCBNEW 4.0.6) date 06/15/17 20:02:37*
%MOMM*%
%LPD*%
G01*
G04 APERTURE LIST*
%ADD10C,0.100000*%
%ADD11R,2.000000X1.000000*%
%ADD12R,0.800000X0.750000*%
%ADD13R,1.200000X0.900000*%
%ADD14C,1.305560*%
%ADD15R,0.750000X1.200000*%
%ADD16R,0.800000X0.800000*%
%ADD17C,15.500000*%
%ADD18R,0.900000X1.200000*%
%ADD19C,0.812800*%
%ADD20C,0.685800*%
%ADD21C,0.304800*%
%ADD22C,0.254000*%
%ADD23C,0.508000*%
G04 APERTURE END LIST*
D10*
D11*
X154089600Y-94273200D03*
X154089600Y-93003200D03*
X154089600Y-91733200D03*
X154089600Y-90463200D03*
X154089600Y-89193200D03*
X154089600Y-87923200D03*
X154089600Y-86653200D03*
X154089600Y-85383200D03*
D12*
X163183000Y-118118000D03*
X161683000Y-118118000D03*
D13*
X139149000Y-120912000D03*
X136949000Y-120912000D03*
D14*
X146970000Y-120470000D03*
X146970000Y-122468980D03*
X148968980Y-120470000D03*
X148968980Y-122468980D03*
X150967960Y-120470000D03*
X150967960Y-122468980D03*
X152969480Y-120470000D03*
X152969480Y-122468980D03*
X154968460Y-120470000D03*
X154968460Y-122468980D03*
X156969980Y-120470000D03*
X156969980Y-122468980D03*
X158968960Y-120470000D03*
X158968960Y-122468980D03*
D15*
X156464000Y-92631600D03*
X156464000Y-94531600D03*
D13*
X158630800Y-89162000D03*
X156430800Y-89162000D03*
D16*
X131534000Y-115070000D03*
X133134000Y-115070000D03*
X135852000Y-115070000D03*
X137452000Y-115070000D03*
X159220000Y-115070000D03*
X160820000Y-115070000D03*
X163792000Y-115070000D03*
X165392000Y-115070000D03*
X158343600Y-90597200D03*
X158343600Y-92197200D03*
D17*
X134600000Y-105100000D03*
X162200000Y-105050000D03*
D13*
X134958000Y-120912000D03*
X132758000Y-120912000D03*
D12*
X139434000Y-123325000D03*
X137934000Y-123325000D03*
D18*
X161417000Y-119939000D03*
X161417000Y-122139000D03*
X163195000Y-122139000D03*
X163195000Y-119939000D03*
D19*
X146304000Y-88933400D03*
X156337000Y-116086000D03*
X159969200Y-90940000D03*
X168046400Y-117508400D03*
X165862000Y-119134000D03*
X154241500Y-99195000D03*
X151130000Y-104973500D03*
X146431000Y-105799000D03*
X140843000Y-123325000D03*
X148386800Y-86977600D03*
X154889200Y-95664400D03*
X147256500Y-97353500D03*
X147256500Y-103195500D03*
X151320500Y-103449500D03*
X152336500Y-109863000D03*
X146939000Y-113165000D03*
D20*
X134620000Y-117102000D03*
X148691600Y-98001200D03*
X147828000Y-107640500D03*
X146367500Y-110815500D03*
X153670000Y-108339000D03*
X145478500Y-99830000D03*
X145161000Y-107450000D03*
X148653500Y-108402500D03*
X149415500Y-107767500D03*
X152146000Y-99068000D03*
X149098000Y-103767000D03*
X152196800Y-95562800D03*
X155803600Y-90482800D03*
X149479000Y-102624000D03*
X149453600Y-97340800D03*
X152196800Y-88908000D03*
X164947600Y-90838400D03*
X149606000Y-89924000D03*
X148691600Y-94953200D03*
X161594800Y-86164800D03*
X163322000Y-92006800D03*
X163271200Y-94140400D03*
X152501600Y-101989000D03*
X152095200Y-90330400D03*
X164947600Y-92921200D03*
X162306000Y-91752800D03*
X150774400Y-106688000D03*
X145161000Y-110752000D03*
X157353000Y-112022000D03*
X140208000Y-111514000D03*
X129921000Y-115324000D03*
X139128500Y-115070000D03*
X158115000Y-115324000D03*
X166751000Y-115324000D03*
X161036000Y-118245000D03*
X136017000Y-122182000D03*
X141478000Y-121801000D03*
X143256000Y-118245000D03*
D19*
X161417000Y-124214000D03*
D20*
X143319500Y-124468000D03*
D19*
X136906000Y-123706000D03*
X136144000Y-119007000D03*
X132461000Y-117356000D03*
D20*
X164846000Y-119769000D03*
X151701500Y-117165500D03*
X161544000Y-116975000D03*
X144081500Y-109177200D03*
X142392400Y-115679600D03*
X149034500Y-99068000D03*
X152806400Y-113800000D03*
X151511000Y-107386500D03*
X159956500Y-119070500D03*
D19*
X149923500Y-123706000D03*
D21*
X156337000Y-116086000D02*
X157035500Y-116784500D01*
X157035500Y-116784500D02*
X160147000Y-116784500D01*
X146304000Y-98458400D02*
X146304000Y-98458400D01*
X146304000Y-88933400D02*
X146304000Y-98458400D01*
X158343600Y-92197200D02*
X158712000Y-92197200D01*
X158712000Y-92197200D02*
X159969200Y-90940000D01*
X156464000Y-92631600D02*
X157909200Y-92631600D01*
X157909200Y-92631600D02*
X158343600Y-92197200D01*
X154089600Y-93003200D02*
X156092400Y-93003200D01*
X156092400Y-93003200D02*
X156464000Y-92631600D01*
X167182800Y-117508400D02*
X168046400Y-117508400D01*
X165696900Y-116022500D02*
X167182800Y-117508400D01*
X160909000Y-116022500D02*
X165696900Y-116022500D01*
X164846000Y-118118000D02*
X165862000Y-119134000D01*
X163183000Y-118118000D02*
X164846000Y-118118000D01*
X160147000Y-116784500D02*
X160909000Y-116022500D01*
X153320750Y-102744650D02*
X153320750Y-100115750D01*
X153320750Y-100115750D02*
X154241500Y-99195000D01*
X151130000Y-104973500D02*
X151447500Y-104656000D01*
X151447500Y-104656000D02*
X151409400Y-104656000D01*
X151409400Y-104656000D02*
X153320750Y-102744650D01*
D22*
X162941000Y-117876000D02*
X163183000Y-118118000D01*
D21*
X139149000Y-120912000D02*
X142113000Y-120912000D01*
X141859000Y-123325000D02*
X140843000Y-123325000D01*
X142494000Y-122690000D02*
X141859000Y-123325000D01*
X142494000Y-121293000D02*
X142494000Y-122690000D01*
X142113000Y-120912000D02*
X142494000Y-121293000D01*
X139434000Y-123325000D02*
X140843000Y-123325000D01*
X139434000Y-121197000D02*
X139149000Y-120912000D01*
X146304000Y-105672000D02*
X146304000Y-98458400D01*
X146304000Y-105672000D02*
X146431000Y-105799000D01*
X147878800Y-95562800D02*
X147878800Y-87485600D01*
X147878800Y-87485600D02*
X148386800Y-86977600D01*
X147256500Y-97353500D02*
X147256500Y-96185100D01*
X147256500Y-96185100D02*
X147878800Y-95562800D01*
X156464000Y-94531600D02*
X156022000Y-94531600D01*
X156022000Y-94531600D02*
X154889200Y-95664400D01*
X154089600Y-94273200D02*
X156205600Y-94273200D01*
X156205600Y-94273200D02*
X156464000Y-94531600D01*
X156130800Y-94864800D02*
X156464000Y-94531600D01*
X149923500Y-107132500D02*
X149923500Y-104846500D01*
X149923500Y-104846500D02*
X151320500Y-103449500D01*
X150812500Y-108021500D02*
X149923500Y-107132500D01*
X150812500Y-108339000D02*
X150812500Y-108021500D01*
X152336500Y-109863000D02*
X150812500Y-108339000D01*
X134620000Y-117102000D02*
X134874000Y-117356000D01*
X146304000Y-113800000D02*
X146304000Y-114117500D01*
X146939000Y-113165000D02*
X146304000Y-113800000D01*
X143065500Y-117356000D02*
X146304000Y-114117500D01*
X134874000Y-117356000D02*
X143065500Y-117356000D01*
X147256500Y-103195500D02*
X147256500Y-97353500D01*
D22*
X148209000Y-98483800D02*
X148691600Y-98001200D01*
X148209000Y-98483800D02*
X148209000Y-107259500D01*
X147828000Y-107640500D02*
X148209000Y-107259500D01*
X142811500Y-116657500D02*
X135445500Y-116657500D01*
X134366000Y-115578000D02*
X134366000Y-115070000D01*
X135445500Y-116657500D02*
X134366000Y-115578000D01*
X145415000Y-114054000D02*
X142811500Y-116657500D01*
X145415000Y-111768000D02*
X145415000Y-114054000D01*
X146367500Y-110815500D02*
X145415000Y-111768000D01*
X133134000Y-115070000D02*
X134366000Y-115070000D01*
X134366000Y-115070000D02*
X135852000Y-115070000D01*
X153670000Y-108339000D02*
X154114500Y-108783500D01*
X159740500Y-116149500D02*
X160820000Y-115070000D01*
X154114500Y-108783500D02*
X154114500Y-112466500D01*
X154114500Y-112466500D02*
X157797500Y-116149500D01*
X157797500Y-116149500D02*
X159740500Y-116149500D01*
X163792000Y-115070000D02*
X160820000Y-115070000D01*
X145478500Y-106561000D02*
X145478500Y-99830000D01*
X148717000Y-109799500D02*
X145478500Y-106561000D01*
X148717000Y-116213000D02*
X148717000Y-109799500D01*
X145351500Y-119578500D02*
X148717000Y-116213000D01*
X145351500Y-122880500D02*
X145351500Y-119578500D01*
X147129500Y-124658500D02*
X145351500Y-122880500D01*
X153289000Y-124658500D02*
X147129500Y-124658500D01*
X154968460Y-122979040D02*
X153289000Y-124658500D01*
X154968460Y-122468980D02*
X154968460Y-122979040D01*
X148082000Y-115832000D02*
X148082000Y-110053500D01*
X145478500Y-107450000D02*
X145161000Y-107450000D01*
X148082000Y-110053500D02*
X145478500Y-107450000D01*
X156969980Y-122468980D02*
X156875520Y-122468980D01*
X156875520Y-122468980D02*
X154127198Y-125217302D01*
X154127198Y-125217302D02*
X146799302Y-125217302D01*
X146799302Y-125217302D02*
X144780000Y-123198000D01*
X144780000Y-123198000D02*
X144780000Y-119134000D01*
X144780000Y-119134000D02*
X148082000Y-115832000D01*
X149352000Y-116975000D02*
X149352000Y-109101000D01*
X151257000Y-118880000D02*
X149352000Y-116975000D01*
X153797000Y-118880000D02*
X151257000Y-118880000D01*
X154968460Y-120051460D02*
X153797000Y-118880000D01*
X149352000Y-109101000D02*
X148653500Y-108402500D01*
X154968460Y-120470000D02*
X154968460Y-120051460D01*
X150114000Y-116848000D02*
X150114000Y-108466000D01*
X151511000Y-118245000D02*
X150114000Y-116848000D01*
X154876500Y-118245000D02*
X151511000Y-118245000D01*
X156969980Y-120338480D02*
X154876500Y-118245000D01*
X150114000Y-108466000D02*
X149415500Y-107767500D01*
X156969980Y-120470000D02*
X156969980Y-120338480D01*
X151892000Y-101481000D02*
X149542500Y-103830500D01*
X152146000Y-99068000D02*
X151892000Y-99322000D01*
X151892000Y-99322000D02*
X151892000Y-101481000D01*
X149161500Y-103830500D02*
X149098000Y-103767000D01*
X149542500Y-103830500D02*
X149161500Y-103830500D01*
X151257000Y-100846000D02*
X151257000Y-96502600D01*
X151257000Y-96502600D02*
X152196800Y-95562800D01*
X155784000Y-90463200D02*
X154089600Y-90463200D01*
X155803600Y-90482800D02*
X155784000Y-90463200D01*
X149479000Y-102624000D02*
X151257000Y-100846000D01*
X149758400Y-91346400D02*
X152196800Y-88908000D01*
X149758400Y-97036000D02*
X149758400Y-91346400D01*
X149453600Y-97340800D02*
X149758400Y-97036000D01*
X152196800Y-88908000D02*
X153181600Y-87923200D01*
X153181600Y-87923200D02*
X154089600Y-87923200D01*
X154089600Y-87923200D02*
X156128000Y-87923200D01*
X161696400Y-87587200D02*
X164947600Y-90838400D01*
X156464000Y-87587200D02*
X161696400Y-87587200D01*
X156128000Y-87923200D02*
X156464000Y-87587200D01*
X148793200Y-89771600D02*
X149453600Y-89771600D01*
X149453600Y-89771600D02*
X149606000Y-89924000D01*
X148691600Y-94953200D02*
X148691600Y-89873200D01*
X151911600Y-86653200D02*
X154089600Y-86653200D01*
X148691600Y-89873200D02*
X148793200Y-89771600D01*
X148793200Y-89771600D02*
X151911600Y-86653200D01*
X159410400Y-86063200D02*
X161493200Y-86063200D01*
X161493200Y-86063200D02*
X161594800Y-86164800D01*
X154089600Y-86653200D02*
X158820400Y-86653200D01*
X158820400Y-86653200D02*
X159410400Y-86063200D01*
X163322000Y-92006800D02*
X163271200Y-92057600D01*
X163271200Y-92057600D02*
X163271200Y-94140400D01*
X153212800Y-98915600D02*
X153212800Y-99169600D01*
X152603200Y-101887400D02*
X152501600Y-101989000D01*
X152603200Y-99779200D02*
X152603200Y-101887400D01*
X153212800Y-99169600D02*
X152603200Y-99779200D01*
X152095200Y-90330400D02*
X153232400Y-89193200D01*
X153232400Y-89193200D02*
X154089600Y-89193200D01*
X161188400Y-91905200D02*
X161188400Y-88450800D01*
X156921200Y-96172400D02*
X161188400Y-91905200D01*
X155956000Y-96172400D02*
X156921200Y-96172400D01*
X153212800Y-98915600D02*
X155956000Y-96172400D01*
X157378400Y-88196802D02*
X160934402Y-88196802D01*
X156430800Y-89144402D02*
X157378400Y-88196802D01*
X160934402Y-88196802D02*
X161188400Y-88450800D01*
X161188400Y-88450800D02*
X164236400Y-91498800D01*
X164236400Y-91498800D02*
X164236400Y-92210000D01*
X164236400Y-92210000D02*
X164947600Y-92921200D01*
X156430800Y-89162000D02*
X156430800Y-89144402D01*
X154089600Y-89193200D02*
X156399600Y-89193200D01*
X156399600Y-89193200D02*
X156430800Y-89162000D01*
X160553400Y-94216600D02*
X160553400Y-93505400D01*
X160553400Y-93505400D02*
X162306000Y-91752800D01*
X153924000Y-100846000D02*
X160553400Y-94216600D01*
X153924000Y-102967586D02*
X153924000Y-100846000D01*
X151993600Y-104897986D02*
X153924000Y-102967586D01*
X151993600Y-105468800D02*
X151993600Y-104897986D01*
X150774400Y-106688000D02*
X151993600Y-105468800D01*
X144208500Y-99550600D02*
X144208500Y-97759900D01*
X145364200Y-87358600D02*
X147339600Y-85383200D01*
X145364200Y-96604200D02*
X145364200Y-87358600D01*
X144208500Y-97759900D02*
X145364200Y-96604200D01*
X144208500Y-107640500D02*
X144208500Y-99550600D01*
X147339600Y-85383200D02*
X154089600Y-85383200D01*
X144208500Y-107640500D02*
X145542000Y-108974000D01*
X145542000Y-108974000D02*
X145542000Y-110371000D01*
X145542000Y-110371000D02*
X145161000Y-110752000D01*
D21*
X157353000Y-112022000D02*
X162200000Y-107175000D01*
X162200000Y-107175000D02*
X162200000Y-105050000D01*
X140208000Y-111514000D02*
X134600000Y-105906000D01*
X134600000Y-105906000D02*
X134600000Y-105100000D01*
D22*
X130175000Y-115070000D02*
X131534000Y-115070000D01*
X129921000Y-115324000D02*
X130175000Y-115070000D01*
X139128500Y-115070000D02*
X137452000Y-115070000D01*
X159220000Y-115070000D02*
X158369000Y-115070000D01*
X158369000Y-115070000D02*
X158115000Y-115324000D01*
X166497000Y-115070000D02*
X165392000Y-115070000D01*
X166751000Y-115324000D02*
X166497000Y-115070000D01*
X158343600Y-90597200D02*
X158343600Y-89449200D01*
X158343600Y-89449200D02*
X158630800Y-89162000D01*
X159047000Y-89289000D02*
X159047000Y-89395500D01*
D23*
X158968960Y-120470000D02*
X158968960Y-120241960D01*
X161036000Y-118245000D02*
X161163000Y-118118000D01*
D22*
X161683000Y-118118000D02*
X161163000Y-118118000D01*
D21*
X141097000Y-122182000D02*
X136017000Y-122182000D01*
X141478000Y-121801000D02*
X141097000Y-122182000D01*
X136949000Y-120912000D02*
X136949000Y-120234000D01*
X138938000Y-118245000D02*
X143256000Y-118245000D01*
X136949000Y-120234000D02*
X138938000Y-118245000D01*
X134958000Y-120912000D02*
X136949000Y-120912000D01*
X161417000Y-122139000D02*
X161417000Y-124214000D01*
X138557000Y-124468000D02*
X143319500Y-124468000D01*
X137934000Y-123845000D02*
X138557000Y-124468000D01*
X137934000Y-123325000D02*
X137934000Y-123845000D01*
X137934000Y-123325000D02*
X137287000Y-123325000D01*
X137287000Y-123325000D02*
X136906000Y-123706000D01*
X132758000Y-120912000D02*
X132758000Y-120955000D01*
X132758000Y-120912000D02*
X132758000Y-120107000D01*
X133858000Y-119007000D02*
X136144000Y-119007000D01*
X132758000Y-120107000D02*
X133858000Y-119007000D01*
X132758000Y-120912000D02*
X132758000Y-117653000D01*
X132758000Y-117653000D02*
X132461000Y-117356000D01*
X164676000Y-119939000D02*
X164846000Y-119769000D01*
X164676000Y-119939000D02*
X163195000Y-119939000D01*
X152082500Y-117546500D02*
X160274000Y-117546500D01*
X160274000Y-117546500D02*
X160845500Y-116975000D01*
X151701500Y-117165500D02*
X152082500Y-117546500D01*
X160845500Y-116975000D02*
X161544000Y-116975000D01*
D22*
X144081500Y-113800000D02*
X142798800Y-115082700D01*
X144081500Y-109177200D02*
X144081500Y-113800000D01*
X142392400Y-115679600D02*
X142341600Y-115628800D01*
X142341600Y-115628800D02*
X142341600Y-115527200D01*
X142341600Y-115527200D02*
X142798800Y-115070000D01*
X142798800Y-115070000D02*
X142798800Y-115082700D01*
X154089600Y-91733200D02*
X152978400Y-91733200D01*
X152603200Y-92108400D02*
X152603200Y-92133800D01*
X152978400Y-91733200D02*
X152603200Y-92108400D01*
X151447500Y-93289500D02*
X151384000Y-93289500D01*
X150622000Y-97480500D02*
X149034500Y-99068000D01*
X150622000Y-94051500D02*
X150622000Y-97480500D01*
X151384000Y-93289500D02*
X150622000Y-94051500D01*
X152603200Y-92133800D02*
X151447500Y-93289500D01*
X153543000Y-113063400D02*
X153543000Y-109355000D01*
X152806400Y-113800000D02*
X153543000Y-113063400D01*
X151574500Y-107386500D02*
X151511000Y-107386500D01*
X153543000Y-109355000D02*
X151574500Y-107386500D01*
D21*
X146970000Y-122468980D02*
X146970000Y-123292500D01*
X159956500Y-119070500D02*
X160825000Y-119939000D01*
X160825000Y-119939000D02*
X161417000Y-119939000D01*
X147383500Y-123706000D02*
X149923500Y-123706000D01*
X146970000Y-123292500D02*
X147383500Y-123706000D01*
X163195000Y-122139000D02*
X163195000Y-121717000D01*
X163195000Y-121717000D02*
X161417000Y-119939000D01*
M02*
