G04 #@! TF.FileFunction,Legend,Bot*
%FSLAX46Y46*%
G04 Gerber Fmt 4.6, Leading zero omitted, Abs format (unit mm)*
G04 Created by KiCad (PCBNEW 4.0.6) date 04/09/17 15:31:28*
%MOMM*%
%LPD*%
G01*
G04 APERTURE LIST*
%ADD10C,0.100000*%
%ADD11C,0.150000*%
%ADD12C,0.127000*%
%ADD13C,0.120000*%
%ADD14C,0.508000*%
%ADD15C,0.203200*%
%ADD16C,0.200000*%
%ADD17C,0.101600*%
%ADD18C,0.050800*%
%ADD19C,0.025400*%
%ADD20C,0.152400*%
%ADD21C,0.279400*%
%ADD22R,2.400000X4.400000*%
%ADD23C,1.705560*%
%ADD24R,1.460000X1.050000*%
%ADD25R,1.670000X0.933400*%
%ADD26R,0.933400X1.670000*%
%ADD27R,1.000000X0.900000*%
%ADD28R,1.150000X1.600000*%
%ADD29R,1.600000X1.150000*%
%ADD30R,1.997660X1.799540*%
%ADD31R,1.799540X1.997660*%
%ADD32R,1.300000X1.600000*%
%ADD33R,1.600000X1.300000*%
%ADD34R,1.098500X2.099260*%
%ADD35R,1.050000X1.460000*%
%ADD36C,1.822400*%
%ADD37R,1.398220X1.299160*%
%ADD38R,2.398980X1.670000*%
%ADD39R,1.050000X1.960000*%
%ADD40R,1.800000X1.600000*%
%ADD41R,2.400000X1.600000*%
%ADD42R,1.950000X1.000000*%
%ADD43R,1.200000X1.150000*%
%ADD44R,1.150000X1.200000*%
G04 APERTURE END LIST*
D10*
D11*
X139244000Y-122377000D02*
X139244000Y-118177000D01*
X139244000Y-118177000D02*
X138894000Y-117777000D01*
X138894000Y-117777000D02*
X133644000Y-117777000D01*
X133644000Y-117777000D02*
X133344000Y-118077000D01*
X133344000Y-118077000D02*
X133344000Y-122477000D01*
X133344000Y-122477000D02*
X133644000Y-122777000D01*
X133644000Y-122777000D02*
X138894000Y-122777000D01*
X138894000Y-122777000D02*
X139244000Y-122377000D01*
D12*
X145700000Y-119200000D02*
X145700000Y-123645000D01*
X145700000Y-123645000D02*
X160305000Y-123645000D01*
X160305000Y-123645000D02*
X160305000Y-119200000D01*
X160305000Y-119200000D02*
X145700000Y-119200000D01*
X146335000Y-119200000D02*
X145700000Y-119835000D01*
X145700000Y-119835000D02*
X145700000Y-119200000D01*
X145700000Y-119200000D02*
X146335000Y-119200000D01*
D13*
X143499000Y-112825000D02*
X145299000Y-112825000D01*
X145299000Y-116045000D02*
X142849000Y-116045000D01*
D14*
X152309921Y-101612000D02*
G75*
G03X152309921Y-101612000I-35921J0D01*
G01*
D13*
X143032000Y-99948000D02*
X143532000Y-99948000D01*
X143532000Y-100888000D02*
X143032000Y-100888000D01*
X158048400Y-88329400D02*
X158048400Y-89029400D01*
X159248400Y-89029400D02*
X159248400Y-88329400D01*
X157064000Y-116182000D02*
X157064000Y-115482000D01*
X155864000Y-115482000D02*
X155864000Y-116182000D01*
X131988000Y-93892000D02*
X131988000Y-94592000D01*
X133188000Y-94592000D02*
X133188000Y-93892000D01*
X154428000Y-110460000D02*
X153928000Y-110460000D01*
X153928000Y-109520000D02*
X154428000Y-109520000D01*
X154147000Y-117518000D02*
X153447000Y-117518000D01*
X153447000Y-118718000D02*
X154147000Y-118718000D01*
X141951000Y-114404000D02*
X141951000Y-113704000D01*
X140751000Y-113704000D02*
X140751000Y-114404000D01*
X144049000Y-117956000D02*
X144749000Y-117956000D01*
X144749000Y-116756000D02*
X144049000Y-116756000D01*
D15*
X149860000Y-111641000D02*
X148336000Y-111641000D01*
X133985000Y-123706000D02*
X133985000Y-125230000D01*
X167767000Y-116975000D02*
X169291000Y-116975000D01*
D13*
X130855000Y-94996000D02*
X130855000Y-93996000D01*
X129495000Y-93996000D02*
X129495000Y-94996000D01*
X137152000Y-93562000D02*
X136152000Y-93562000D01*
X136152000Y-94922000D02*
X137152000Y-94922000D01*
X166350400Y-95062800D02*
X166350400Y-96062800D01*
X167710400Y-96062800D02*
X167710400Y-95062800D01*
X131834000Y-115750000D02*
X132834000Y-115750000D01*
X132834000Y-114390000D02*
X131834000Y-114390000D01*
X136406000Y-115750000D02*
X137406000Y-115750000D01*
X137406000Y-114390000D02*
X136406000Y-114390000D01*
X159520000Y-115750000D02*
X160520000Y-115750000D01*
X160520000Y-114390000D02*
X159520000Y-114390000D01*
X164092000Y-115750000D02*
X165092000Y-115750000D01*
X165092000Y-114390000D02*
X164092000Y-114390000D01*
X162884400Y-88950800D02*
X162884400Y-87950800D01*
X161524400Y-87950800D02*
X161524400Y-88950800D01*
D15*
X155468320Y-112415700D02*
X155468320Y-111120300D01*
X151871680Y-111120300D02*
X151871680Y-112415700D01*
D13*
X155407000Y-114297000D02*
X155407000Y-116097000D01*
X152187000Y-116097000D02*
X152187000Y-113647000D01*
D15*
X135252460Y-91780740D02*
X138038840Y-91780740D01*
X138038840Y-91780740D02*
X138038840Y-90559000D01*
X138038840Y-90559000D02*
X135252460Y-90559000D01*
X135252460Y-90559000D02*
X135252460Y-91780740D01*
D12*
X140337540Y-83703540D02*
X156334460Y-83703540D01*
X156334460Y-99192460D02*
X140337540Y-99192460D01*
D13*
X144049000Y-112368000D02*
X144749000Y-112368000D01*
X144749000Y-111168000D02*
X144049000Y-111168000D01*
X159674000Y-88354800D02*
X159674000Y-89054800D01*
X160874000Y-89054800D02*
X160874000Y-88354800D01*
X161000800Y-121812000D02*
X161000800Y-120012000D01*
X164220800Y-120012000D02*
X164220800Y-122462000D01*
X132801000Y-117599000D02*
X132801000Y-119399000D01*
X129581000Y-119399000D02*
X129581000Y-116949000D01*
D11*
X140286000Y-120696000D02*
X140286000Y-120596000D01*
X140286000Y-119196000D02*
X140286000Y-119096000D01*
X143186000Y-119196000D02*
X143186000Y-119096000D01*
X140286000Y-119096000D02*
X143187723Y-119096000D01*
X140286000Y-120696000D02*
X143186000Y-120696000D01*
X143186000Y-120696000D02*
X143186000Y-120596000D01*
D16*
X141686000Y-120396000D02*
X141686000Y-119396000D01*
D13*
X139736000Y-124325000D02*
X139736000Y-122325000D01*
X139736000Y-122325000D02*
X143636000Y-122325000D01*
X139736000Y-124325000D02*
X143636000Y-124325000D01*
X164900000Y-118650000D02*
X164900000Y-119350000D01*
X166100000Y-119350000D02*
X166100000Y-118650000D01*
D11*
X160129400Y-96055000D02*
X160129400Y-96005000D01*
X164279400Y-96055000D02*
X164279400Y-95910000D01*
X164279400Y-90905000D02*
X164279400Y-91050000D01*
X160129400Y-90905000D02*
X160129400Y-91050000D01*
X160129400Y-96055000D02*
X164279400Y-96055000D01*
X160129400Y-90905000D02*
X164279400Y-90905000D01*
X160129400Y-96005000D02*
X158729400Y-96005000D01*
D13*
X160584400Y-118260800D02*
X161284400Y-118260800D01*
X161284400Y-117060800D02*
X160584400Y-117060800D01*
X129174800Y-118112400D02*
X129174800Y-117412400D01*
X127974800Y-117412400D02*
X127974800Y-118112400D01*
X135020800Y-116349600D02*
X134320800Y-116349600D01*
X134320800Y-117549600D02*
X135020800Y-117549600D01*
D10*
X132248267Y-121397752D02*
X132438743Y-121397752D01*
X132438743Y-120997752D01*
X131905409Y-121397752D02*
X132133981Y-121397752D01*
X132019695Y-121397752D02*
X132019695Y-120997752D01*
X132057790Y-121054895D01*
X132095885Y-121092990D01*
X132133981Y-121112038D01*
X132343466Y-122312152D02*
X132572038Y-122312152D01*
X132457752Y-122312152D02*
X132457752Y-121912152D01*
X132495847Y-121969295D01*
X132533942Y-122007390D01*
X132572038Y-122026438D01*
X131981562Y-121912152D02*
X132172038Y-121912152D01*
X132191086Y-122102629D01*
X132172038Y-122083581D01*
X132133943Y-122064533D01*
X132038705Y-122064533D01*
X132000609Y-122083581D01*
X131981562Y-122102629D01*
X131962514Y-122140724D01*
X131962514Y-122235962D01*
X131981562Y-122274057D01*
X132000609Y-122293105D01*
X132038705Y-122312152D01*
X132133943Y-122312152D01*
X132172038Y-122293105D01*
X132191086Y-122274057D01*
X131619657Y-122045486D02*
X131619657Y-122312152D01*
X131791086Y-122045486D02*
X131791086Y-122255010D01*
X131772038Y-122293105D01*
X131733943Y-122312152D01*
X131676800Y-122312152D01*
X131638705Y-122293105D01*
X131619657Y-122274057D01*
X131429181Y-122312152D02*
X131429181Y-121912152D01*
X131429181Y-122102629D02*
X131200609Y-122102629D01*
X131200609Y-122312152D02*
X131200609Y-121912152D01*
D17*
X159915981Y-124178924D02*
X159915981Y-125207019D01*
X159855505Y-125327971D01*
X159795029Y-125388448D01*
X159674076Y-125448924D01*
X159432172Y-125448924D01*
X159311219Y-125388448D01*
X159250743Y-125327971D01*
X159190267Y-125207019D01*
X159190267Y-124178924D01*
X158645981Y-125388448D02*
X158464553Y-125448924D01*
X158162172Y-125448924D01*
X158041219Y-125388448D01*
X157980743Y-125327971D01*
X157920267Y-125207019D01*
X157920267Y-125086067D01*
X157980743Y-124965114D01*
X158041219Y-124904638D01*
X158162172Y-124844162D01*
X158404076Y-124783686D01*
X158525029Y-124723210D01*
X158585505Y-124662733D01*
X158645981Y-124541781D01*
X158645981Y-124420829D01*
X158585505Y-124299876D01*
X158525029Y-124239400D01*
X158404076Y-124178924D01*
X158101696Y-124178924D01*
X157920267Y-124239400D01*
X158283124Y-123997495D02*
X158283124Y-125630352D01*
X157436457Y-124299876D02*
X157375981Y-124239400D01*
X157255029Y-124178924D01*
X156952648Y-124178924D01*
X156831695Y-124239400D01*
X156771219Y-124299876D01*
X156710743Y-124420829D01*
X156710743Y-124541781D01*
X156771219Y-124723210D01*
X157496933Y-125448924D01*
X156710743Y-125448924D01*
D18*
X146638772Y-123900089D02*
X146605510Y-123933351D01*
X146572248Y-123999874D01*
X146572248Y-124166184D01*
X146605510Y-124232708D01*
X146638772Y-124265970D01*
X146705296Y-124299231D01*
X146771820Y-124299231D01*
X146871605Y-124265970D01*
X147270748Y-123866827D01*
X147270748Y-124299231D01*
X161240748Y-123105552D02*
X161240748Y-122706410D01*
X161240748Y-122905981D02*
X160542248Y-122905981D01*
X160642034Y-122839457D01*
X160708558Y-122772933D01*
X160741820Y-122706410D01*
X160775081Y-123704267D02*
X161240748Y-123704267D01*
X160508986Y-123537957D02*
X161007915Y-123371648D01*
X161007915Y-123804052D01*
X161304248Y-119806092D02*
X161304248Y-119406950D01*
X161304248Y-119606521D02*
X160605748Y-119606521D01*
X160705534Y-119539997D01*
X160772058Y-119473473D01*
X160805320Y-119406950D01*
X160605748Y-120038926D02*
X160605748Y-120471330D01*
X160871843Y-120238497D01*
X160871843Y-120338283D01*
X160905105Y-120404807D01*
X160938367Y-120438069D01*
X161004891Y-120471330D01*
X161171200Y-120471330D01*
X161237724Y-120438069D01*
X161270986Y-120404807D01*
X161304248Y-120338283D01*
X161304248Y-120138711D01*
X161270986Y-120072188D01*
X161237724Y-120038926D01*
D11*
X146569181Y-113400105D02*
X147378705Y-113400105D01*
X147473943Y-113447724D01*
X147521562Y-113495343D01*
X147569181Y-113590581D01*
X147569181Y-113781058D01*
X147521562Y-113876296D01*
X147473943Y-113923915D01*
X147378705Y-113971534D01*
X146569181Y-113971534D01*
X147521562Y-114400105D02*
X147569181Y-114542962D01*
X147569181Y-114781058D01*
X147521562Y-114876296D01*
X147473943Y-114923915D01*
X147378705Y-114971534D01*
X147283467Y-114971534D01*
X147188229Y-114923915D01*
X147140610Y-114876296D01*
X147092990Y-114781058D01*
X147045371Y-114590581D01*
X146997752Y-114495343D01*
X146950133Y-114447724D01*
X146854895Y-114400105D01*
X146759657Y-114400105D01*
X146664419Y-114447724D01*
X146616800Y-114495343D01*
X146569181Y-114590581D01*
X146569181Y-114828677D01*
X146616800Y-114971534D01*
X146426324Y-114685819D02*
X147712038Y-114685819D01*
X146569181Y-115828677D02*
X146569181Y-115638200D01*
X146616800Y-115542962D01*
X146664419Y-115495343D01*
X146807276Y-115400105D01*
X146997752Y-115352486D01*
X147378705Y-115352486D01*
X147473943Y-115400105D01*
X147521562Y-115447724D01*
X147569181Y-115542962D01*
X147569181Y-115733439D01*
X147521562Y-115828677D01*
X147473943Y-115876296D01*
X147378705Y-115923915D01*
X147140610Y-115923915D01*
X147045371Y-115876296D01*
X146997752Y-115828677D01*
X146950133Y-115733439D01*
X146950133Y-115542962D01*
X146997752Y-115447724D01*
X147045371Y-115400105D01*
X147140610Y-115352486D01*
D19*
X148681924Y-104941448D02*
X148681924Y-104535048D01*
X148256172Y-104902743D02*
X148275524Y-104922095D01*
X148333581Y-104941448D01*
X148372286Y-104941448D01*
X148430343Y-104922095D01*
X148469048Y-104883390D01*
X148488400Y-104844686D01*
X148507752Y-104767276D01*
X148507752Y-104709219D01*
X148488400Y-104631810D01*
X148469048Y-104593105D01*
X148430343Y-104554400D01*
X148372286Y-104535048D01*
X148333581Y-104535048D01*
X148275524Y-104554400D01*
X148256172Y-104573752D01*
X147869124Y-104941448D02*
X148101352Y-104941448D01*
X147985238Y-104941448D02*
X147985238Y-104535048D01*
X148023943Y-104593105D01*
X148062648Y-104631810D01*
X148101352Y-104651162D01*
X150164800Y-105714333D02*
X149971277Y-105714333D01*
X150203505Y-105830448D02*
X150068039Y-105424048D01*
X149932572Y-105830448D01*
X149855162Y-105424048D02*
X149622934Y-105424048D01*
X149739048Y-105830448D02*
X149739048Y-105424048D01*
X149487467Y-105830448D02*
X149487467Y-105424048D01*
X149352000Y-105714333D01*
X149216534Y-105424048D01*
X149216534Y-105830448D01*
X149023010Y-105617571D02*
X148887543Y-105617571D01*
X148829486Y-105830448D02*
X149023010Y-105830448D01*
X149023010Y-105424048D01*
X148829486Y-105424048D01*
X148442439Y-105443400D02*
X148481144Y-105424048D01*
X148539201Y-105424048D01*
X148597258Y-105443400D01*
X148635963Y-105482105D01*
X148655315Y-105520810D01*
X148674667Y-105598219D01*
X148674667Y-105656276D01*
X148655315Y-105733686D01*
X148635963Y-105772390D01*
X148597258Y-105811095D01*
X148539201Y-105830448D01*
X148500496Y-105830448D01*
X148442439Y-105811095D01*
X148423087Y-105791743D01*
X148423087Y-105656276D01*
X148500496Y-105656276D01*
X148268267Y-105714333D02*
X148074744Y-105714333D01*
X148306972Y-105830448D02*
X148171506Y-105424048D01*
X148036039Y-105830448D01*
X147939277Y-105424048D02*
X147687696Y-105424048D01*
X147823163Y-105578867D01*
X147765105Y-105578867D01*
X147726401Y-105598219D01*
X147707048Y-105617571D01*
X147687696Y-105656276D01*
X147687696Y-105753038D01*
X147707048Y-105791743D01*
X147726401Y-105811095D01*
X147765105Y-105830448D01*
X147881220Y-105830448D01*
X147919924Y-105811095D01*
X147939277Y-105791743D01*
X147532876Y-105462752D02*
X147513524Y-105443400D01*
X147474819Y-105424048D01*
X147378057Y-105424048D01*
X147339353Y-105443400D01*
X147320000Y-105462752D01*
X147300648Y-105501457D01*
X147300648Y-105540162D01*
X147320000Y-105598219D01*
X147552229Y-105830448D01*
X147300648Y-105830448D01*
X147068419Y-105598219D02*
X147107124Y-105578867D01*
X147126476Y-105559514D01*
X147145828Y-105520810D01*
X147145828Y-105501457D01*
X147126476Y-105462752D01*
X147107124Y-105443400D01*
X147068419Y-105424048D01*
X146991009Y-105424048D01*
X146952305Y-105443400D01*
X146932952Y-105462752D01*
X146913600Y-105501457D01*
X146913600Y-105520810D01*
X146932952Y-105559514D01*
X146952305Y-105578867D01*
X146991009Y-105598219D01*
X147068419Y-105598219D01*
X147107124Y-105617571D01*
X147126476Y-105636924D01*
X147145828Y-105675629D01*
X147145828Y-105753038D01*
X147126476Y-105791743D01*
X147107124Y-105811095D01*
X147068419Y-105830448D01*
X146991009Y-105830448D01*
X146952305Y-105811095D01*
X146932952Y-105791743D01*
X146913600Y-105753038D01*
X146913600Y-105675629D01*
X146932952Y-105636924D01*
X146952305Y-105617571D01*
X146991009Y-105598219D01*
X146739428Y-105830448D02*
X146739428Y-105424048D01*
X146584609Y-105424048D01*
X146545904Y-105443400D01*
X146526552Y-105462752D01*
X146507200Y-105501457D01*
X146507200Y-105559514D01*
X146526552Y-105598219D01*
X146545904Y-105617571D01*
X146584609Y-105636924D01*
X146739428Y-105636924D01*
D11*
X141339866Y-100720543D02*
X141387485Y-100768162D01*
X141530342Y-100815781D01*
X141625580Y-100815781D01*
X141768438Y-100768162D01*
X141863676Y-100672924D01*
X141911295Y-100577686D01*
X141958914Y-100387210D01*
X141958914Y-100244352D01*
X141911295Y-100053876D01*
X141863676Y-99958638D01*
X141768438Y-99863400D01*
X141625580Y-99815781D01*
X141530342Y-99815781D01*
X141387485Y-99863400D01*
X141339866Y-99911019D01*
X140387485Y-100815781D02*
X140958914Y-100815781D01*
X140673200Y-100815781D02*
X140673200Y-99815781D01*
X140768438Y-99958638D01*
X140863676Y-100053876D01*
X140958914Y-100101495D01*
X158091143Y-88334934D02*
X158138762Y-88287315D01*
X158186381Y-88144458D01*
X158186381Y-88049220D01*
X158138762Y-87906362D01*
X158043524Y-87811124D01*
X157948286Y-87763505D01*
X157757810Y-87715886D01*
X157614952Y-87715886D01*
X157424476Y-87763505D01*
X157329238Y-87811124D01*
X157234000Y-87906362D01*
X157186381Y-88049220D01*
X157186381Y-88144458D01*
X157234000Y-88287315D01*
X157281619Y-88334934D01*
X157186381Y-88668267D02*
X157186381Y-89287315D01*
X157567333Y-88953981D01*
X157567333Y-89096839D01*
X157614952Y-89192077D01*
X157662571Y-89239696D01*
X157757810Y-89287315D01*
X157995905Y-89287315D01*
X158091143Y-89239696D01*
X158138762Y-89192077D01*
X158186381Y-89096839D01*
X158186381Y-88811124D01*
X158138762Y-88715886D01*
X158091143Y-88668267D01*
X158091143Y-115817734D02*
X158138762Y-115770115D01*
X158186381Y-115627258D01*
X158186381Y-115532020D01*
X158138762Y-115389162D01*
X158043524Y-115293924D01*
X157948286Y-115246305D01*
X157757810Y-115198686D01*
X157614952Y-115198686D01*
X157424476Y-115246305D01*
X157329238Y-115293924D01*
X157234000Y-115389162D01*
X157186381Y-115532020D01*
X157186381Y-115627258D01*
X157234000Y-115770115D01*
X157281619Y-115817734D01*
X157519714Y-116674877D02*
X158186381Y-116674877D01*
X157138762Y-116436781D02*
X157853048Y-116198686D01*
X157853048Y-116817734D01*
X134392943Y-94329334D02*
X134440562Y-94281715D01*
X134488181Y-94138858D01*
X134488181Y-94043620D01*
X134440562Y-93900762D01*
X134345324Y-93805524D01*
X134250086Y-93757905D01*
X134059610Y-93710286D01*
X133916752Y-93710286D01*
X133726276Y-93757905D01*
X133631038Y-93805524D01*
X133535800Y-93900762D01*
X133488181Y-94043620D01*
X133488181Y-94138858D01*
X133535800Y-94281715D01*
X133583419Y-94329334D01*
X133488181Y-95234096D02*
X133488181Y-94757905D01*
X133964371Y-94710286D01*
X133916752Y-94757905D01*
X133869133Y-94853143D01*
X133869133Y-95091239D01*
X133916752Y-95186477D01*
X133964371Y-95234096D01*
X134059610Y-95281715D01*
X134297705Y-95281715D01*
X134392943Y-95234096D01*
X134440562Y-95186477D01*
X134488181Y-95091239D01*
X134488181Y-94853143D01*
X134440562Y-94757905D01*
X134392943Y-94710286D01*
X156656066Y-110474143D02*
X156703685Y-110521762D01*
X156846542Y-110569381D01*
X156941780Y-110569381D01*
X157084638Y-110521762D01*
X157179876Y-110426524D01*
X157227495Y-110331286D01*
X157275114Y-110140810D01*
X157275114Y-109997952D01*
X157227495Y-109807476D01*
X157179876Y-109712238D01*
X157084638Y-109617000D01*
X156941780Y-109569381D01*
X156846542Y-109569381D01*
X156703685Y-109617000D01*
X156656066Y-109664619D01*
X155798923Y-109569381D02*
X155989400Y-109569381D01*
X156084638Y-109617000D01*
X156132257Y-109664619D01*
X156227495Y-109807476D01*
X156275114Y-109997952D01*
X156275114Y-110378905D01*
X156227495Y-110474143D01*
X156179876Y-110521762D01*
X156084638Y-110569381D01*
X155894161Y-110569381D01*
X155798923Y-110521762D01*
X155751304Y-110474143D01*
X155703685Y-110378905D01*
X155703685Y-110140810D01*
X155751304Y-110045571D01*
X155798923Y-109997952D01*
X155894161Y-109950333D01*
X156084638Y-109950333D01*
X156179876Y-109997952D01*
X156227495Y-110045571D01*
X156275114Y-110140810D01*
X156681466Y-118729143D02*
X156729085Y-118776762D01*
X156871942Y-118824381D01*
X156967180Y-118824381D01*
X157110038Y-118776762D01*
X157205276Y-118681524D01*
X157252895Y-118586286D01*
X157300514Y-118395810D01*
X157300514Y-118252952D01*
X157252895Y-118062476D01*
X157205276Y-117967238D01*
X157110038Y-117872000D01*
X156967180Y-117824381D01*
X156871942Y-117824381D01*
X156729085Y-117872000D01*
X156681466Y-117919619D01*
X156348133Y-117824381D02*
X155681466Y-117824381D01*
X156110038Y-118824381D01*
X141644666Y-111871143D02*
X141692285Y-111918762D01*
X141835142Y-111966381D01*
X141930380Y-111966381D01*
X142073238Y-111918762D01*
X142168476Y-111823524D01*
X142216095Y-111728286D01*
X142263714Y-111537810D01*
X142263714Y-111394952D01*
X142216095Y-111204476D01*
X142168476Y-111109238D01*
X142073238Y-111014000D01*
X141930380Y-110966381D01*
X141835142Y-110966381D01*
X141692285Y-111014000D01*
X141644666Y-111061619D01*
X141073238Y-111394952D02*
X141168476Y-111347333D01*
X141216095Y-111299714D01*
X141263714Y-111204476D01*
X141263714Y-111156857D01*
X141216095Y-111061619D01*
X141168476Y-111014000D01*
X141073238Y-110966381D01*
X140882761Y-110966381D01*
X140787523Y-111014000D01*
X140739904Y-111061619D01*
X140692285Y-111156857D01*
X140692285Y-111204476D01*
X140739904Y-111299714D01*
X140787523Y-111347333D01*
X140882761Y-111394952D01*
X141073238Y-111394952D01*
X141168476Y-111442571D01*
X141216095Y-111490190D01*
X141263714Y-111585429D01*
X141263714Y-111775905D01*
X141216095Y-111871143D01*
X141168476Y-111918762D01*
X141073238Y-111966381D01*
X140882761Y-111966381D01*
X140787523Y-111918762D01*
X140739904Y-111871143D01*
X140692285Y-111775905D01*
X140692285Y-111585429D01*
X140739904Y-111490190D01*
X140787523Y-111442571D01*
X140882761Y-111394952D01*
X141644666Y-117713143D02*
X141692285Y-117760762D01*
X141835142Y-117808381D01*
X141930380Y-117808381D01*
X142073238Y-117760762D01*
X142168476Y-117665524D01*
X142216095Y-117570286D01*
X142263714Y-117379810D01*
X142263714Y-117236952D01*
X142216095Y-117046476D01*
X142168476Y-116951238D01*
X142073238Y-116856000D01*
X141930380Y-116808381D01*
X141835142Y-116808381D01*
X141692285Y-116856000D01*
X141644666Y-116903619D01*
X141168476Y-117808381D02*
X140978000Y-117808381D01*
X140882761Y-117760762D01*
X140835142Y-117713143D01*
X140739904Y-117570286D01*
X140692285Y-117379810D01*
X140692285Y-116998857D01*
X140739904Y-116903619D01*
X140787523Y-116856000D01*
X140882761Y-116808381D01*
X141073238Y-116808381D01*
X141168476Y-116856000D01*
X141216095Y-116903619D01*
X141263714Y-116998857D01*
X141263714Y-117236952D01*
X141216095Y-117332190D01*
X141168476Y-117379810D01*
X141073238Y-117427429D01*
X140882761Y-117427429D01*
X140787523Y-117379810D01*
X140739904Y-117332190D01*
X140692285Y-117236952D01*
D12*
X149540685Y-114271714D02*
X149569714Y-114300743D01*
X149656800Y-114329771D01*
X149714857Y-114329771D01*
X149801942Y-114300743D01*
X149860000Y-114242686D01*
X149889028Y-114184629D01*
X149918057Y-114068514D01*
X149918057Y-113981429D01*
X149889028Y-113865314D01*
X149860000Y-113807257D01*
X149801942Y-113749200D01*
X149714857Y-113720171D01*
X149656800Y-113720171D01*
X149569714Y-113749200D01*
X149540685Y-113778229D01*
X148960114Y-114329771D02*
X149308457Y-114329771D01*
X149134285Y-114329771D02*
X149134285Y-113720171D01*
X149192342Y-113807257D01*
X149250400Y-113865314D01*
X149308457Y-113894343D01*
X148582743Y-113720171D02*
X148524686Y-113720171D01*
X148466629Y-113749200D01*
X148437600Y-113778229D01*
X148408571Y-113836286D01*
X148379543Y-113952400D01*
X148379543Y-114097543D01*
X148408571Y-114213657D01*
X148437600Y-114271714D01*
X148466629Y-114300743D01*
X148524686Y-114329771D01*
X148582743Y-114329771D01*
X148640800Y-114300743D01*
X148669829Y-114271714D01*
X148698857Y-114213657D01*
X148727886Y-114097543D01*
X148727886Y-113952400D01*
X148698857Y-113836286D01*
X148669829Y-113778229D01*
X148640800Y-113749200D01*
X148582743Y-113720171D01*
X149780171Y-117326971D02*
X150128514Y-117326971D01*
X149954342Y-117326971D02*
X149954342Y-116717371D01*
X150012399Y-116804457D01*
X150070457Y-116862514D01*
X150128514Y-116891543D01*
X149402800Y-116717371D02*
X149344743Y-116717371D01*
X149286686Y-116746400D01*
X149257657Y-116775429D01*
X149228628Y-116833486D01*
X149199600Y-116949600D01*
X149199600Y-117094743D01*
X149228628Y-117210857D01*
X149257657Y-117268914D01*
X149286686Y-117297943D01*
X149344743Y-117326971D01*
X149402800Y-117326971D01*
X149460857Y-117297943D01*
X149489886Y-117268914D01*
X149518914Y-117210857D01*
X149547943Y-117094743D01*
X149547943Y-116949600D01*
X149518914Y-116833486D01*
X149489886Y-116775429D01*
X149460857Y-116746400D01*
X149402800Y-116717371D01*
X148822229Y-116717371D02*
X148764172Y-116717371D01*
X148706115Y-116746400D01*
X148677086Y-116775429D01*
X148648057Y-116833486D01*
X148619029Y-116949600D01*
X148619029Y-117094743D01*
X148648057Y-117210857D01*
X148677086Y-117268914D01*
X148706115Y-117297943D01*
X148764172Y-117326971D01*
X148822229Y-117326971D01*
X148880286Y-117297943D01*
X148909315Y-117268914D01*
X148938343Y-117210857D01*
X148967372Y-117094743D01*
X148967372Y-116949600D01*
X148938343Y-116833486D01*
X148909315Y-116775429D01*
X148880286Y-116746400D01*
X148822229Y-116717371D01*
X148096515Y-116920571D02*
X148096515Y-117326971D01*
X148357772Y-116920571D02*
X148357772Y-117239886D01*
X148328744Y-117297943D01*
X148270686Y-117326971D01*
X148183601Y-117326971D01*
X148125544Y-117297943D01*
X148096515Y-117268914D01*
X136666514Y-124126915D02*
X136695543Y-124097886D01*
X136724571Y-124010800D01*
X136724571Y-123952743D01*
X136695543Y-123865658D01*
X136637486Y-123807600D01*
X136579429Y-123778572D01*
X136463314Y-123749543D01*
X136376229Y-123749543D01*
X136260114Y-123778572D01*
X136202057Y-123807600D01*
X136144000Y-123865658D01*
X136114971Y-123952743D01*
X136114971Y-124010800D01*
X136144000Y-124097886D01*
X136173029Y-124126915D01*
X136724571Y-124707486D02*
X136724571Y-124359143D01*
X136724571Y-124533315D02*
X136114971Y-124533315D01*
X136202057Y-124475258D01*
X136260114Y-124417200D01*
X136289143Y-124359143D01*
X136724571Y-125288057D02*
X136724571Y-124939714D01*
X136724571Y-125113886D02*
X136114971Y-125113886D01*
X136202057Y-125055829D01*
X136260114Y-124997771D01*
X136289143Y-124939714D01*
X138582399Y-126216971D02*
X138930742Y-126216971D01*
X138756570Y-126216971D02*
X138756570Y-125607371D01*
X138814627Y-125694457D01*
X138872685Y-125752514D01*
X138930742Y-125781543D01*
X138205028Y-125607371D02*
X138146971Y-125607371D01*
X138088914Y-125636400D01*
X138059885Y-125665429D01*
X138030856Y-125723486D01*
X138001828Y-125839600D01*
X138001828Y-125984743D01*
X138030856Y-126100857D01*
X138059885Y-126158914D01*
X138088914Y-126187943D01*
X138146971Y-126216971D01*
X138205028Y-126216971D01*
X138263085Y-126187943D01*
X138292114Y-126158914D01*
X138321142Y-126100857D01*
X138350171Y-125984743D01*
X138350171Y-125839600D01*
X138321142Y-125723486D01*
X138292114Y-125665429D01*
X138263085Y-125636400D01*
X138205028Y-125607371D01*
X137479314Y-125810571D02*
X137479314Y-126216971D01*
X137740571Y-125810571D02*
X137740571Y-126129886D01*
X137711543Y-126187943D01*
X137653485Y-126216971D01*
X137566400Y-126216971D01*
X137508343Y-126187943D01*
X137479314Y-126158914D01*
X136753600Y-125578343D02*
X137276114Y-126362114D01*
X136579428Y-125665429D02*
X136550399Y-125636400D01*
X136492342Y-125607371D01*
X136347199Y-125607371D01*
X136289142Y-125636400D01*
X136260113Y-125665429D01*
X136231085Y-125723486D01*
X136231085Y-125781543D01*
X136260113Y-125868629D01*
X136608456Y-126216971D01*
X136231085Y-126216971D01*
X135679542Y-125607371D02*
X135969828Y-125607371D01*
X135998857Y-125897657D01*
X135969828Y-125868629D01*
X135911771Y-125839600D01*
X135766628Y-125839600D01*
X135708571Y-125868629D01*
X135679542Y-125897657D01*
X135650514Y-125955714D01*
X135650514Y-126100857D01*
X135679542Y-126158914D01*
X135708571Y-126187943D01*
X135766628Y-126216971D01*
X135911771Y-126216971D01*
X135969828Y-126187943D01*
X135998857Y-126158914D01*
X135447314Y-125810571D02*
X135302171Y-126216971D01*
X135157029Y-125810571D01*
X168895485Y-111376114D02*
X168924514Y-111405143D01*
X169011600Y-111434171D01*
X169069657Y-111434171D01*
X169156742Y-111405143D01*
X169214800Y-111347086D01*
X169243828Y-111289029D01*
X169272857Y-111172914D01*
X169272857Y-111085829D01*
X169243828Y-110969714D01*
X169214800Y-110911657D01*
X169156742Y-110853600D01*
X169069657Y-110824571D01*
X169011600Y-110824571D01*
X168924514Y-110853600D01*
X168895485Y-110882629D01*
X168314914Y-111434171D02*
X168663257Y-111434171D01*
X168489085Y-111434171D02*
X168489085Y-110824571D01*
X168547142Y-110911657D01*
X168605200Y-110969714D01*
X168663257Y-110998743D01*
X168082686Y-110882629D02*
X168053657Y-110853600D01*
X167995600Y-110824571D01*
X167850457Y-110824571D01*
X167792400Y-110853600D01*
X167763371Y-110882629D01*
X167734343Y-110940686D01*
X167734343Y-110998743D01*
X167763371Y-111085829D01*
X168111714Y-111434171D01*
X167734343Y-111434171D01*
X168997085Y-114431371D02*
X168997085Y-114837771D01*
X169142228Y-114199143D02*
X169287371Y-114634571D01*
X168909999Y-114634571D01*
X168677771Y-114779714D02*
X168648743Y-114808743D01*
X168677771Y-114837771D01*
X168706800Y-114808743D01*
X168677771Y-114779714D01*
X168677771Y-114837771D01*
X168445542Y-114228171D02*
X168039142Y-114228171D01*
X168300399Y-114837771D01*
X167545657Y-114431371D02*
X167545657Y-114837771D01*
X167806914Y-114431371D02*
X167806914Y-114750686D01*
X167777886Y-114808743D01*
X167719828Y-114837771D01*
X167632743Y-114837771D01*
X167574686Y-114808743D01*
X167545657Y-114779714D01*
D11*
X129177381Y-94329334D02*
X128701190Y-93996000D01*
X129177381Y-93757905D02*
X128177381Y-93757905D01*
X128177381Y-94138858D01*
X128225000Y-94234096D01*
X128272619Y-94281715D01*
X128367857Y-94329334D01*
X128510714Y-94329334D01*
X128605952Y-94281715D01*
X128653571Y-94234096D01*
X128701190Y-94138858D01*
X128701190Y-93757905D01*
X128272619Y-94710286D02*
X128225000Y-94757905D01*
X128177381Y-94853143D01*
X128177381Y-95091239D01*
X128225000Y-95186477D01*
X128272619Y-95234096D01*
X128367857Y-95281715D01*
X128463095Y-95281715D01*
X128605952Y-95234096D01*
X129177381Y-94662667D01*
X129177381Y-95281715D01*
X136818666Y-96144381D02*
X137152000Y-95668190D01*
X137390095Y-96144381D02*
X137390095Y-95144381D01*
X137009142Y-95144381D01*
X136913904Y-95192000D01*
X136866285Y-95239619D01*
X136818666Y-95334857D01*
X136818666Y-95477714D01*
X136866285Y-95572952D01*
X136913904Y-95620571D01*
X137009142Y-95668190D01*
X137390095Y-95668190D01*
X136485333Y-95144381D02*
X135866285Y-95144381D01*
X136199619Y-95525333D01*
X136056761Y-95525333D01*
X135961523Y-95572952D01*
X135913904Y-95620571D01*
X135866285Y-95715810D01*
X135866285Y-95953905D01*
X135913904Y-96049143D01*
X135961523Y-96096762D01*
X136056761Y-96144381D01*
X136342476Y-96144381D01*
X136437714Y-96096762D01*
X136485333Y-96049143D01*
X169260781Y-95497734D02*
X168784590Y-95164400D01*
X169260781Y-94926305D02*
X168260781Y-94926305D01*
X168260781Y-95307258D01*
X168308400Y-95402496D01*
X168356019Y-95450115D01*
X168451257Y-95497734D01*
X168594114Y-95497734D01*
X168689352Y-95450115D01*
X168736971Y-95402496D01*
X168784590Y-95307258D01*
X168784590Y-94926305D01*
X168594114Y-96354877D02*
X169260781Y-96354877D01*
X168213162Y-96116781D02*
X168927448Y-95878686D01*
X168927448Y-96497734D01*
X132500666Y-114072381D02*
X132834000Y-113596190D01*
X133072095Y-114072381D02*
X133072095Y-113072381D01*
X132691142Y-113072381D01*
X132595904Y-113120000D01*
X132548285Y-113167619D01*
X132500666Y-113262857D01*
X132500666Y-113405714D01*
X132548285Y-113500952D01*
X132595904Y-113548571D01*
X132691142Y-113596190D01*
X133072095Y-113596190D01*
X131595904Y-113072381D02*
X132072095Y-113072381D01*
X132119714Y-113548571D01*
X132072095Y-113500952D01*
X131976857Y-113453333D01*
X131738761Y-113453333D01*
X131643523Y-113500952D01*
X131595904Y-113548571D01*
X131548285Y-113643810D01*
X131548285Y-113881905D01*
X131595904Y-113977143D01*
X131643523Y-114024762D01*
X131738761Y-114072381D01*
X131976857Y-114072381D01*
X132072095Y-114024762D01*
X132119714Y-113977143D01*
X137072666Y-114072381D02*
X137406000Y-113596190D01*
X137644095Y-114072381D02*
X137644095Y-113072381D01*
X137263142Y-113072381D01*
X137167904Y-113120000D01*
X137120285Y-113167619D01*
X137072666Y-113262857D01*
X137072666Y-113405714D01*
X137120285Y-113500952D01*
X137167904Y-113548571D01*
X137263142Y-113596190D01*
X137644095Y-113596190D01*
X136215523Y-113072381D02*
X136406000Y-113072381D01*
X136501238Y-113120000D01*
X136548857Y-113167619D01*
X136644095Y-113310476D01*
X136691714Y-113500952D01*
X136691714Y-113881905D01*
X136644095Y-113977143D01*
X136596476Y-114024762D01*
X136501238Y-114072381D01*
X136310761Y-114072381D01*
X136215523Y-114024762D01*
X136167904Y-113977143D01*
X136120285Y-113881905D01*
X136120285Y-113643810D01*
X136167904Y-113548571D01*
X136215523Y-113500952D01*
X136310761Y-113453333D01*
X136501238Y-113453333D01*
X136596476Y-113500952D01*
X136644095Y-113548571D01*
X136691714Y-113643810D01*
X160186666Y-114072381D02*
X160520000Y-113596190D01*
X160758095Y-114072381D02*
X160758095Y-113072381D01*
X160377142Y-113072381D01*
X160281904Y-113120000D01*
X160234285Y-113167619D01*
X160186666Y-113262857D01*
X160186666Y-113405714D01*
X160234285Y-113500952D01*
X160281904Y-113548571D01*
X160377142Y-113596190D01*
X160758095Y-113596190D01*
X159853333Y-113072381D02*
X159186666Y-113072381D01*
X159615238Y-114072381D01*
X164758666Y-114072381D02*
X165092000Y-113596190D01*
X165330095Y-114072381D02*
X165330095Y-113072381D01*
X164949142Y-113072381D01*
X164853904Y-113120000D01*
X164806285Y-113167619D01*
X164758666Y-113262857D01*
X164758666Y-113405714D01*
X164806285Y-113500952D01*
X164853904Y-113548571D01*
X164949142Y-113596190D01*
X165330095Y-113596190D01*
X164187238Y-113500952D02*
X164282476Y-113453333D01*
X164330095Y-113405714D01*
X164377714Y-113310476D01*
X164377714Y-113262857D01*
X164330095Y-113167619D01*
X164282476Y-113120000D01*
X164187238Y-113072381D01*
X163996761Y-113072381D01*
X163901523Y-113120000D01*
X163853904Y-113167619D01*
X163806285Y-113262857D01*
X163806285Y-113310476D01*
X163853904Y-113405714D01*
X163901523Y-113453333D01*
X163996761Y-113500952D01*
X164187238Y-113500952D01*
X164282476Y-113548571D01*
X164330095Y-113596190D01*
X164377714Y-113691429D01*
X164377714Y-113881905D01*
X164330095Y-113977143D01*
X164282476Y-114024762D01*
X164187238Y-114072381D01*
X163996761Y-114072381D01*
X163901523Y-114024762D01*
X163853904Y-113977143D01*
X163806285Y-113881905D01*
X163806285Y-113691429D01*
X163853904Y-113596190D01*
X163901523Y-113548571D01*
X163996761Y-113500952D01*
X164129981Y-88214343D02*
X163653790Y-87881009D01*
X164129981Y-87642914D02*
X163129981Y-87642914D01*
X163129981Y-88023867D01*
X163177600Y-88119105D01*
X163225219Y-88166724D01*
X163320457Y-88214343D01*
X163463314Y-88214343D01*
X163558552Y-88166724D01*
X163606171Y-88119105D01*
X163653790Y-88023867D01*
X163653790Y-87642914D01*
X164129981Y-89166724D02*
X164129981Y-88595295D01*
X164129981Y-88881009D02*
X163129981Y-88881009D01*
X163272838Y-88785771D01*
X163368076Y-88690533D01*
X163415695Y-88595295D01*
X163129981Y-89785771D02*
X163129981Y-89881010D01*
X163177600Y-89976248D01*
X163225219Y-90023867D01*
X163320457Y-90071486D01*
X163510933Y-90119105D01*
X163749029Y-90119105D01*
X163939505Y-90071486D01*
X164034743Y-90023867D01*
X164082362Y-89976248D01*
X164129981Y-89881010D01*
X164129981Y-89785771D01*
X164082362Y-89690533D01*
X164034743Y-89642914D01*
X163939505Y-89595295D01*
X163749029Y-89547676D01*
X163510933Y-89547676D01*
X163320457Y-89595295D01*
X163225219Y-89642914D01*
X163177600Y-89690533D01*
X163129981Y-89785771D01*
D19*
X156865562Y-111113648D02*
X156865562Y-111442638D01*
X156846210Y-111481343D01*
X156826857Y-111500695D01*
X156788153Y-111520048D01*
X156710743Y-111520048D01*
X156672038Y-111500695D01*
X156652686Y-111481343D01*
X156633334Y-111442638D01*
X156633334Y-111113648D01*
X156459162Y-111500695D02*
X156401105Y-111520048D01*
X156304343Y-111520048D01*
X156265639Y-111500695D01*
X156246286Y-111481343D01*
X156226934Y-111442638D01*
X156226934Y-111403933D01*
X156246286Y-111365229D01*
X156265639Y-111345876D01*
X156304343Y-111326524D01*
X156381753Y-111307171D01*
X156420458Y-111287819D01*
X156439810Y-111268467D01*
X156459162Y-111229762D01*
X156459162Y-111191057D01*
X156439810Y-111152352D01*
X156420458Y-111133000D01*
X156381753Y-111113648D01*
X156284991Y-111113648D01*
X156226934Y-111133000D01*
X156343048Y-111055590D02*
X156343048Y-111578105D01*
X156091467Y-111113648D02*
X155839886Y-111113648D01*
X155975353Y-111268467D01*
X155917295Y-111268467D01*
X155878591Y-111287819D01*
X155859238Y-111307171D01*
X155839886Y-111345876D01*
X155839886Y-111442638D01*
X155859238Y-111481343D01*
X155878591Y-111500695D01*
X155917295Y-111520048D01*
X156033410Y-111520048D01*
X156072114Y-111500695D01*
X156091467Y-111481343D01*
X157217533Y-111999019D02*
X157256238Y-111979667D01*
X157275590Y-111960314D01*
X157294942Y-111921610D01*
X157294942Y-111902257D01*
X157275590Y-111863552D01*
X157256238Y-111844200D01*
X157217533Y-111824848D01*
X157140123Y-111824848D01*
X157101419Y-111844200D01*
X157082066Y-111863552D01*
X157062714Y-111902257D01*
X157062714Y-111921610D01*
X157082066Y-111960314D01*
X157101419Y-111979667D01*
X157140123Y-111999019D01*
X157217533Y-111999019D01*
X157256238Y-112018371D01*
X157275590Y-112037724D01*
X157294942Y-112076429D01*
X157294942Y-112153838D01*
X157275590Y-112192543D01*
X157256238Y-112211895D01*
X157217533Y-112231248D01*
X157140123Y-112231248D01*
X157101419Y-112211895D01*
X157082066Y-112192543D01*
X157062714Y-112153838D01*
X157062714Y-112076429D01*
X157082066Y-112037724D01*
X157101419Y-112018371D01*
X157140123Y-111999019D01*
X156888542Y-112231248D02*
X156888542Y-111824848D01*
X156753075Y-112115133D01*
X156617609Y-111824848D01*
X156617609Y-112231248D01*
X156424085Y-112231248D02*
X156424085Y-111824848D01*
X156424085Y-112018371D02*
X156191857Y-112018371D01*
X156191857Y-112231248D02*
X156191857Y-111824848D01*
X156037038Y-111824848D02*
X155766105Y-111824848D01*
X156037038Y-112231248D01*
X155766105Y-112231248D01*
D11*
X150760181Y-113984305D02*
X151569705Y-113984305D01*
X151664943Y-114031924D01*
X151712562Y-114079543D01*
X151760181Y-114174781D01*
X151760181Y-114365258D01*
X151712562Y-114460496D01*
X151664943Y-114508115D01*
X151569705Y-114555734D01*
X150760181Y-114555734D01*
X151712562Y-114984305D02*
X151760181Y-115127162D01*
X151760181Y-115365258D01*
X151712562Y-115460496D01*
X151664943Y-115508115D01*
X151569705Y-115555734D01*
X151474467Y-115555734D01*
X151379229Y-115508115D01*
X151331610Y-115460496D01*
X151283990Y-115365258D01*
X151236371Y-115174781D01*
X151188752Y-115079543D01*
X151141133Y-115031924D01*
X151045895Y-114984305D01*
X150950657Y-114984305D01*
X150855419Y-115031924D01*
X150807800Y-115079543D01*
X150760181Y-115174781D01*
X150760181Y-115412877D01*
X150807800Y-115555734D01*
X150617324Y-115270019D02*
X151903038Y-115270019D01*
X151093514Y-116412877D02*
X151760181Y-116412877D01*
X150712562Y-116174781D02*
X151426848Y-115936686D01*
X151426848Y-116555734D01*
X160009323Y-83506295D02*
X160009323Y-84164276D01*
X159970618Y-84241686D01*
X159931914Y-84280390D01*
X159854504Y-84319095D01*
X159699685Y-84319095D01*
X159622276Y-84280390D01*
X159583571Y-84241686D01*
X159544866Y-84164276D01*
X159544866Y-83506295D01*
X159196523Y-84280390D02*
X159080409Y-84319095D01*
X158886885Y-84319095D01*
X158809475Y-84280390D01*
X158770771Y-84241686D01*
X158732066Y-84164276D01*
X158732066Y-84086867D01*
X158770771Y-84009457D01*
X158809475Y-83970752D01*
X158886885Y-83932048D01*
X159041704Y-83893343D01*
X159119113Y-83854638D01*
X159157818Y-83815933D01*
X159196523Y-83738524D01*
X159196523Y-83661114D01*
X159157818Y-83583705D01*
X159119113Y-83545000D01*
X159041704Y-83506295D01*
X158848180Y-83506295D01*
X158732066Y-83545000D01*
X158964294Y-83390181D02*
X158964294Y-84435210D01*
X158461133Y-83506295D02*
X157919266Y-83506295D01*
X158267609Y-84319095D01*
X162116314Y-85839467D02*
X161729266Y-85839467D01*
X162193723Y-86071695D02*
X161922790Y-85258895D01*
X161651857Y-86071695D01*
X161380923Y-86071695D02*
X161380923Y-85258895D01*
X160916466Y-86071695D01*
X160916466Y-85258895D01*
X160645532Y-85258895D02*
X160181075Y-85258895D01*
X160413304Y-86071695D02*
X160413304Y-85258895D01*
D12*
X139811276Y-90774295D02*
X139811276Y-91432276D01*
X139772571Y-91509686D01*
X139733867Y-91548390D01*
X139656457Y-91587095D01*
X139501638Y-91587095D01*
X139424229Y-91548390D01*
X139385524Y-91509686D01*
X139346819Y-91432276D01*
X139346819Y-90774295D01*
X138534019Y-91587095D02*
X138998476Y-91587095D01*
X138766247Y-91587095D02*
X138766247Y-90774295D01*
X138843657Y-90890410D01*
X138921066Y-90967819D01*
X138998476Y-91006524D01*
X134821990Y-91278667D02*
X134434942Y-91278667D01*
X134899399Y-91510895D02*
X134628466Y-90698095D01*
X134357533Y-91510895D01*
X134202713Y-90698095D02*
X133738256Y-90698095D01*
X133970485Y-91510895D02*
X133970485Y-90698095D01*
X133506028Y-91472190D02*
X133389914Y-91510895D01*
X133196390Y-91510895D01*
X133118980Y-91472190D01*
X133080276Y-91433486D01*
X133041571Y-91356076D01*
X133041571Y-91278667D01*
X133080276Y-91201257D01*
X133118980Y-91162552D01*
X133196390Y-91123848D01*
X133351209Y-91085143D01*
X133428618Y-91046438D01*
X133467323Y-91007733D01*
X133506028Y-90930324D01*
X133506028Y-90852914D01*
X133467323Y-90775505D01*
X133428618Y-90736800D01*
X133351209Y-90698095D01*
X133157685Y-90698095D01*
X133041571Y-90736800D01*
X132693228Y-91510895D02*
X132693228Y-90698095D01*
X132693228Y-91085143D02*
X132228771Y-91085143D01*
X132228771Y-91510895D02*
X132228771Y-90698095D01*
X131880428Y-91278667D02*
X131493380Y-91278667D01*
X131957837Y-91510895D02*
X131686904Y-90698095D01*
X131415971Y-91510895D01*
X131183742Y-90775505D02*
X131145037Y-90736800D01*
X131067628Y-90698095D01*
X130874104Y-90698095D01*
X130796694Y-90736800D01*
X130757990Y-90775505D01*
X130719285Y-90852914D01*
X130719285Y-90930324D01*
X130757990Y-91046438D01*
X131222447Y-91510895D01*
X130719285Y-91510895D01*
X130216123Y-90698095D02*
X130138714Y-90698095D01*
X130061304Y-90736800D01*
X130022599Y-90775505D01*
X129983895Y-90852914D01*
X129945190Y-91007733D01*
X129945190Y-91201257D01*
X129983895Y-91356076D01*
X130022599Y-91433486D01*
X130061304Y-91472190D01*
X130138714Y-91510895D01*
X130216123Y-91510895D01*
X130293533Y-91472190D01*
X130332237Y-91433486D01*
X130370942Y-91356076D01*
X130409647Y-91201257D01*
X130409647Y-91007733D01*
X130370942Y-90852914D01*
X130332237Y-90775505D01*
X130293533Y-90736800D01*
X130216123Y-90698095D01*
X129248504Y-90969029D02*
X129248504Y-91510895D01*
X129442028Y-90659390D02*
X129635552Y-91239962D01*
X129132390Y-91239962D01*
X128861457Y-91278667D02*
X128474409Y-91278667D01*
X128938866Y-91510895D02*
X128667933Y-90698095D01*
X128397000Y-91510895D01*
D15*
X149837019Y-90676324D02*
X149837019Y-91704419D01*
X149776543Y-91825371D01*
X149716067Y-91885848D01*
X149595114Y-91946324D01*
X149353210Y-91946324D01*
X149232257Y-91885848D01*
X149171781Y-91825371D01*
X149111305Y-91704419D01*
X149111305Y-90676324D01*
X148567019Y-90797276D02*
X148506543Y-90736800D01*
X148385591Y-90676324D01*
X148083210Y-90676324D01*
X147962257Y-90736800D01*
X147901781Y-90797276D01*
X147841305Y-90918229D01*
X147841305Y-91039181D01*
X147901781Y-91220610D01*
X148627495Y-91946324D01*
X147841305Y-91946324D01*
X151405771Y-98749895D02*
X151676704Y-98362848D01*
X151870228Y-98749895D02*
X151870228Y-97937095D01*
X151560590Y-97937095D01*
X151483181Y-97975800D01*
X151444476Y-98014505D01*
X151405771Y-98091914D01*
X151405771Y-98208029D01*
X151444476Y-98285438D01*
X151483181Y-98324143D01*
X151560590Y-98362848D01*
X151870228Y-98362848D01*
X150786495Y-98324143D02*
X151057428Y-98324143D01*
X151057428Y-98749895D02*
X151057428Y-97937095D01*
X150670381Y-97937095D01*
X150360742Y-98749895D02*
X150360742Y-97937095D01*
X150089809Y-98517667D01*
X149818876Y-97937095D01*
X149818876Y-98749895D01*
X149083485Y-97937095D02*
X149238304Y-97937095D01*
X149315714Y-97975800D01*
X149354419Y-98014505D01*
X149431828Y-98130619D01*
X149470533Y-98285438D01*
X149470533Y-98595076D01*
X149431828Y-98672486D01*
X149393123Y-98711190D01*
X149315714Y-98749895D01*
X149160895Y-98749895D01*
X149083485Y-98711190D01*
X149044781Y-98672486D01*
X149006076Y-98595076D01*
X149006076Y-98401552D01*
X149044781Y-98324143D01*
X149083485Y-98285438D01*
X149160895Y-98246733D01*
X149315714Y-98246733D01*
X149393123Y-98285438D01*
X149431828Y-98324143D01*
X149470533Y-98401552D01*
X148619028Y-98749895D02*
X148464209Y-98749895D01*
X148386800Y-98711190D01*
X148348095Y-98672486D01*
X148270686Y-98556371D01*
X148231981Y-98401552D01*
X148231981Y-98091914D01*
X148270686Y-98014505D01*
X148309390Y-97975800D01*
X148386800Y-97937095D01*
X148541619Y-97937095D01*
X148619028Y-97975800D01*
X148657733Y-98014505D01*
X148696438Y-98091914D01*
X148696438Y-98285438D01*
X148657733Y-98362848D01*
X148619028Y-98401552D01*
X148541619Y-98440257D01*
X148386800Y-98440257D01*
X148309390Y-98401552D01*
X148270686Y-98362848D01*
X148231981Y-98285438D01*
X147419181Y-98672486D02*
X147457886Y-98711190D01*
X147574000Y-98749895D01*
X147651410Y-98749895D01*
X147767524Y-98711190D01*
X147844933Y-98633781D01*
X147883638Y-98556371D01*
X147922343Y-98401552D01*
X147922343Y-98285438D01*
X147883638Y-98130619D01*
X147844933Y-98053210D01*
X147767524Y-97975800D01*
X147651410Y-97937095D01*
X147574000Y-97937095D01*
X147457886Y-97975800D01*
X147419181Y-98014505D01*
X147148248Y-97937095D02*
X146954724Y-98749895D01*
X146799905Y-98169324D01*
X146645086Y-98749895D01*
X146451562Y-97937095D01*
D20*
X154515457Y-85555200D02*
X154152600Y-85555200D01*
X154588029Y-85772914D02*
X154334029Y-85010914D01*
X154080029Y-85772914D01*
X153826028Y-85772914D02*
X153826028Y-85010914D01*
X153390600Y-85772914D01*
X153390600Y-85010914D01*
X153136600Y-85010914D02*
X152701171Y-85010914D01*
X152918885Y-85772914D02*
X152918885Y-85010914D01*
D21*
X154321933Y-87409400D02*
X152967266Y-87409400D01*
X153644599Y-88086733D02*
X153644599Y-86732067D01*
X154220333Y-89720800D02*
X152865666Y-89720800D01*
D11*
X140619047Y-105923810D02*
X140504761Y-105961905D01*
X140314285Y-105961905D01*
X140238095Y-105923810D01*
X140199999Y-105885714D01*
X140161904Y-105809524D01*
X140161904Y-105733333D01*
X140199999Y-105657143D01*
X140238095Y-105619048D01*
X140314285Y-105580952D01*
X140466666Y-105542857D01*
X140542857Y-105504762D01*
X140580952Y-105466667D01*
X140619047Y-105390476D01*
X140619047Y-105314286D01*
X140580952Y-105238095D01*
X140542857Y-105200000D01*
X140466666Y-105161905D01*
X140276190Y-105161905D01*
X140161904Y-105200000D01*
X139819047Y-105542857D02*
X139552380Y-105542857D01*
X139438094Y-105961905D02*
X139819047Y-105961905D01*
X139819047Y-105161905D01*
X139438094Y-105161905D01*
X139095237Y-105961905D02*
X139095237Y-105161905D01*
X138638094Y-105961905D01*
X138638094Y-105161905D01*
X138295237Y-105923810D02*
X138180951Y-105961905D01*
X137990475Y-105961905D01*
X137914285Y-105923810D01*
X137876189Y-105885714D01*
X137838094Y-105809524D01*
X137838094Y-105733333D01*
X137876189Y-105657143D01*
X137914285Y-105619048D01*
X137990475Y-105580952D01*
X138142856Y-105542857D01*
X138219047Y-105504762D01*
X138257142Y-105466667D01*
X138295237Y-105390476D01*
X138295237Y-105314286D01*
X138257142Y-105238095D01*
X138219047Y-105200000D01*
X138142856Y-105161905D01*
X137952380Y-105161905D01*
X137838094Y-105200000D01*
X137342856Y-105161905D02*
X137190475Y-105161905D01*
X137114284Y-105200000D01*
X137038094Y-105276190D01*
X136999999Y-105428571D01*
X136999999Y-105695238D01*
X137038094Y-105847619D01*
X137114284Y-105923810D01*
X137190475Y-105961905D01*
X137342856Y-105961905D01*
X137419046Y-105923810D01*
X137495237Y-105847619D01*
X137533332Y-105695238D01*
X137533332Y-105428571D01*
X137495237Y-105276190D01*
X137419046Y-105200000D01*
X137342856Y-105161905D01*
X136199999Y-105961905D02*
X136466666Y-105580952D01*
X136657142Y-105961905D02*
X136657142Y-105161905D01*
X136352380Y-105161905D01*
X136276189Y-105200000D01*
X136238094Y-105238095D01*
X136199999Y-105314286D01*
X136199999Y-105428571D01*
X136238094Y-105504762D01*
X136276189Y-105542857D01*
X136352380Y-105580952D01*
X136657142Y-105580952D01*
X136047618Y-106038095D02*
X135438094Y-106038095D01*
X135247618Y-105961905D02*
X135247618Y-105161905D01*
X134942856Y-105161905D01*
X134866665Y-105200000D01*
X134828570Y-105238095D01*
X134790475Y-105314286D01*
X134790475Y-105428571D01*
X134828570Y-105504762D01*
X134866665Y-105542857D01*
X134942856Y-105580952D01*
X135247618Y-105580952D01*
X134485713Y-105733333D02*
X134104761Y-105733333D01*
X134561904Y-105961905D02*
X134295237Y-105161905D01*
X134028570Y-105961905D01*
X133761904Y-105961905D02*
X133761904Y-105161905D01*
X133571428Y-105161905D01*
X133457142Y-105200000D01*
X133380951Y-105276190D01*
X133342856Y-105352381D01*
X133304761Y-105504762D01*
X133304761Y-105619048D01*
X133342856Y-105771429D01*
X133380951Y-105847619D01*
X133457142Y-105923810D01*
X133571428Y-105961905D01*
X133761904Y-105961905D01*
X133152380Y-106038095D02*
X132542856Y-106038095D01*
X131895237Y-105961905D02*
X132161904Y-105580952D01*
X132352380Y-105961905D02*
X132352380Y-105161905D01*
X132047618Y-105161905D01*
X131971427Y-105200000D01*
X131933332Y-105238095D01*
X131895237Y-105314286D01*
X131895237Y-105428571D01*
X131933332Y-105504762D01*
X131971427Y-105542857D01*
X132047618Y-105580952D01*
X132352380Y-105580952D01*
X131399999Y-105161905D02*
X131247618Y-105161905D01*
X131171427Y-105200000D01*
X131095237Y-105276190D01*
X131057142Y-105428571D01*
X131057142Y-105695238D01*
X131095237Y-105847619D01*
X131171427Y-105923810D01*
X131247618Y-105961905D01*
X131399999Y-105961905D01*
X131476189Y-105923810D01*
X131552380Y-105847619D01*
X131590475Y-105695238D01*
X131590475Y-105428571D01*
X131552380Y-105276190D01*
X131476189Y-105200000D01*
X131399999Y-105161905D01*
X130714285Y-105161905D02*
X130714285Y-105809524D01*
X130676190Y-105885714D01*
X130638094Y-105923810D01*
X130561904Y-105961905D01*
X130409523Y-105961905D01*
X130333332Y-105923810D01*
X130295237Y-105885714D01*
X130257142Y-105809524D01*
X130257142Y-105161905D01*
X129876190Y-105961905D02*
X129876190Y-105161905D01*
X129419047Y-105961905D01*
X129419047Y-105161905D01*
X129038095Y-105961905D02*
X129038095Y-105161905D01*
X128847619Y-105161905D01*
X128733333Y-105200000D01*
X128657142Y-105276190D01*
X128619047Y-105352381D01*
X128580952Y-105504762D01*
X128580952Y-105619048D01*
X128619047Y-105771429D01*
X128657142Y-105847619D01*
X128733333Y-105923810D01*
X128847619Y-105961905D01*
X129038095Y-105961905D01*
X168219047Y-105873810D02*
X168104761Y-105911905D01*
X167914285Y-105911905D01*
X167838095Y-105873810D01*
X167799999Y-105835714D01*
X167761904Y-105759524D01*
X167761904Y-105683333D01*
X167799999Y-105607143D01*
X167838095Y-105569048D01*
X167914285Y-105530952D01*
X168066666Y-105492857D01*
X168142857Y-105454762D01*
X168180952Y-105416667D01*
X168219047Y-105340476D01*
X168219047Y-105264286D01*
X168180952Y-105188095D01*
X168142857Y-105150000D01*
X168066666Y-105111905D01*
X167876190Y-105111905D01*
X167761904Y-105150000D01*
X167419047Y-105492857D02*
X167152380Y-105492857D01*
X167038094Y-105911905D02*
X167419047Y-105911905D01*
X167419047Y-105111905D01*
X167038094Y-105111905D01*
X166695237Y-105911905D02*
X166695237Y-105111905D01*
X166238094Y-105911905D01*
X166238094Y-105111905D01*
X165895237Y-105873810D02*
X165780951Y-105911905D01*
X165590475Y-105911905D01*
X165514285Y-105873810D01*
X165476189Y-105835714D01*
X165438094Y-105759524D01*
X165438094Y-105683333D01*
X165476189Y-105607143D01*
X165514285Y-105569048D01*
X165590475Y-105530952D01*
X165742856Y-105492857D01*
X165819047Y-105454762D01*
X165857142Y-105416667D01*
X165895237Y-105340476D01*
X165895237Y-105264286D01*
X165857142Y-105188095D01*
X165819047Y-105150000D01*
X165742856Y-105111905D01*
X165552380Y-105111905D01*
X165438094Y-105150000D01*
X164942856Y-105111905D02*
X164790475Y-105111905D01*
X164714284Y-105150000D01*
X164638094Y-105226190D01*
X164599999Y-105378571D01*
X164599999Y-105645238D01*
X164638094Y-105797619D01*
X164714284Y-105873810D01*
X164790475Y-105911905D01*
X164942856Y-105911905D01*
X165019046Y-105873810D01*
X165095237Y-105797619D01*
X165133332Y-105645238D01*
X165133332Y-105378571D01*
X165095237Y-105226190D01*
X165019046Y-105150000D01*
X164942856Y-105111905D01*
X163799999Y-105911905D02*
X164066666Y-105530952D01*
X164257142Y-105911905D02*
X164257142Y-105111905D01*
X163952380Y-105111905D01*
X163876189Y-105150000D01*
X163838094Y-105188095D01*
X163799999Y-105264286D01*
X163799999Y-105378571D01*
X163838094Y-105454762D01*
X163876189Y-105492857D01*
X163952380Y-105530952D01*
X164257142Y-105530952D01*
X163647618Y-105988095D02*
X163038094Y-105988095D01*
X162847618Y-105911905D02*
X162847618Y-105111905D01*
X162542856Y-105111905D01*
X162466665Y-105150000D01*
X162428570Y-105188095D01*
X162390475Y-105264286D01*
X162390475Y-105378571D01*
X162428570Y-105454762D01*
X162466665Y-105492857D01*
X162542856Y-105530952D01*
X162847618Y-105530952D01*
X162085713Y-105683333D02*
X161704761Y-105683333D01*
X162161904Y-105911905D02*
X161895237Y-105111905D01*
X161628570Y-105911905D01*
X161361904Y-105911905D02*
X161361904Y-105111905D01*
X161171428Y-105111905D01*
X161057142Y-105150000D01*
X160980951Y-105226190D01*
X160942856Y-105302381D01*
X160904761Y-105454762D01*
X160904761Y-105569048D01*
X160942856Y-105721429D01*
X160980951Y-105797619D01*
X161057142Y-105873810D01*
X161171428Y-105911905D01*
X161361904Y-105911905D01*
X160752380Y-105988095D02*
X160142856Y-105988095D01*
X159495237Y-105911905D02*
X159761904Y-105530952D01*
X159952380Y-105911905D02*
X159952380Y-105111905D01*
X159647618Y-105111905D01*
X159571427Y-105150000D01*
X159533332Y-105188095D01*
X159495237Y-105264286D01*
X159495237Y-105378571D01*
X159533332Y-105454762D01*
X159571427Y-105492857D01*
X159647618Y-105530952D01*
X159952380Y-105530952D01*
X158999999Y-105111905D02*
X158847618Y-105111905D01*
X158771427Y-105150000D01*
X158695237Y-105226190D01*
X158657142Y-105378571D01*
X158657142Y-105645238D01*
X158695237Y-105797619D01*
X158771427Y-105873810D01*
X158847618Y-105911905D01*
X158999999Y-105911905D01*
X159076189Y-105873810D01*
X159152380Y-105797619D01*
X159190475Y-105645238D01*
X159190475Y-105378571D01*
X159152380Y-105226190D01*
X159076189Y-105150000D01*
X158999999Y-105111905D01*
X158314285Y-105111905D02*
X158314285Y-105759524D01*
X158276190Y-105835714D01*
X158238094Y-105873810D01*
X158161904Y-105911905D01*
X158009523Y-105911905D01*
X157933332Y-105873810D01*
X157895237Y-105835714D01*
X157857142Y-105759524D01*
X157857142Y-105111905D01*
X157476190Y-105911905D02*
X157476190Y-105111905D01*
X157019047Y-105911905D01*
X157019047Y-105111905D01*
X156638095Y-105911905D02*
X156638095Y-105111905D01*
X156447619Y-105111905D01*
X156333333Y-105150000D01*
X156257142Y-105226190D01*
X156219047Y-105302381D01*
X156180952Y-105454762D01*
X156180952Y-105569048D01*
X156219047Y-105721429D01*
X156257142Y-105797619D01*
X156333333Y-105873810D01*
X156447619Y-105911905D01*
X156638095Y-105911905D01*
X144159266Y-110702743D02*
X144206885Y-110750362D01*
X144349742Y-110797981D01*
X144444980Y-110797981D01*
X144587838Y-110750362D01*
X144683076Y-110655124D01*
X144730695Y-110559886D01*
X144778314Y-110369410D01*
X144778314Y-110226552D01*
X144730695Y-110036076D01*
X144683076Y-109940838D01*
X144587838Y-109845600D01*
X144444980Y-109797981D01*
X144349742Y-109797981D01*
X144206885Y-109845600D01*
X144159266Y-109893219D01*
X143778314Y-109893219D02*
X143730695Y-109845600D01*
X143635457Y-109797981D01*
X143397361Y-109797981D01*
X143302123Y-109845600D01*
X143254504Y-109893219D01*
X143206885Y-109988457D01*
X143206885Y-110083695D01*
X143254504Y-110226552D01*
X143825933Y-110797981D01*
X143206885Y-110797981D01*
X159869143Y-88265143D02*
X159916762Y-88217524D01*
X159964381Y-88074667D01*
X159964381Y-87979429D01*
X159916762Y-87836571D01*
X159821524Y-87741333D01*
X159726286Y-87693714D01*
X159535810Y-87646095D01*
X159392952Y-87646095D01*
X159202476Y-87693714D01*
X159107238Y-87741333D01*
X159012000Y-87836571D01*
X158964381Y-87979429D01*
X158964381Y-88074667D01*
X159012000Y-88217524D01*
X159059619Y-88265143D01*
X159964381Y-89217524D02*
X159964381Y-88646095D01*
X159964381Y-88931809D02*
X158964381Y-88931809D01*
X159107238Y-88836571D01*
X159202476Y-88741333D01*
X159250095Y-88646095D01*
X159297714Y-90074667D02*
X159964381Y-90074667D01*
X158916762Y-89836571D02*
X159631048Y-89598476D01*
X159631048Y-90217524D01*
X163372705Y-123767981D02*
X163372705Y-124577505D01*
X163325086Y-124672743D01*
X163277467Y-124720362D01*
X163182229Y-124767981D01*
X162991752Y-124767981D01*
X162896514Y-124720362D01*
X162848895Y-124672743D01*
X162801276Y-124577505D01*
X162801276Y-123767981D01*
X162420324Y-123767981D02*
X161801276Y-123767981D01*
X162134610Y-124148933D01*
X161991752Y-124148933D01*
X161896514Y-124196552D01*
X161848895Y-124244171D01*
X161801276Y-124339410D01*
X161801276Y-124577505D01*
X161848895Y-124672743D01*
X161896514Y-124720362D01*
X161991752Y-124767981D01*
X162277467Y-124767981D01*
X162372705Y-124720362D01*
X162420324Y-124672743D01*
X128382781Y-119184895D02*
X129192305Y-119184895D01*
X129287543Y-119232514D01*
X129335162Y-119280133D01*
X129382781Y-119375371D01*
X129382781Y-119565848D01*
X129335162Y-119661086D01*
X129287543Y-119708705D01*
X129192305Y-119756324D01*
X128382781Y-119756324D01*
X128716114Y-120661086D02*
X129382781Y-120661086D01*
X128335162Y-120422990D02*
X129049448Y-120184895D01*
X129049448Y-120803943D01*
D10*
X145176838Y-120178552D02*
X145176838Y-119778552D01*
X145081600Y-119778552D01*
X145024457Y-119797600D01*
X144986362Y-119835695D01*
X144967314Y-119873790D01*
X144948266Y-119949981D01*
X144948266Y-120007124D01*
X144967314Y-120083314D01*
X144986362Y-120121410D01*
X145024457Y-120159505D01*
X145081600Y-120178552D01*
X145176838Y-120178552D01*
X144586362Y-119778552D02*
X144776838Y-119778552D01*
X144795886Y-119969029D01*
X144776838Y-119949981D01*
X144738743Y-119930933D01*
X144643505Y-119930933D01*
X144605409Y-119949981D01*
X144586362Y-119969029D01*
X144567314Y-120007124D01*
X144567314Y-120102362D01*
X144586362Y-120140457D01*
X144605409Y-120159505D01*
X144643505Y-120178552D01*
X144738743Y-120178552D01*
X144776838Y-120159505D01*
X144795886Y-120140457D01*
X142900285Y-121785105D02*
X142843142Y-121804152D01*
X142747904Y-121804152D01*
X142709808Y-121785105D01*
X142690761Y-121766057D01*
X142671713Y-121727962D01*
X142671713Y-121689867D01*
X142690761Y-121651771D01*
X142709808Y-121632724D01*
X142747904Y-121613676D01*
X142824094Y-121594629D01*
X142862189Y-121575581D01*
X142881237Y-121556533D01*
X142900285Y-121518438D01*
X142900285Y-121480343D01*
X142881237Y-121442248D01*
X142862189Y-121423200D01*
X142824094Y-121404152D01*
X142728856Y-121404152D01*
X142671713Y-121423200D01*
X142519333Y-121785105D02*
X142462190Y-121804152D01*
X142366952Y-121804152D01*
X142328856Y-121785105D01*
X142309809Y-121766057D01*
X142290761Y-121727962D01*
X142290761Y-121689867D01*
X142309809Y-121651771D01*
X142328856Y-121632724D01*
X142366952Y-121613676D01*
X142443142Y-121594629D01*
X142481237Y-121575581D01*
X142500285Y-121556533D01*
X142519333Y-121518438D01*
X142519333Y-121480343D01*
X142500285Y-121442248D01*
X142481237Y-121423200D01*
X142443142Y-121404152D01*
X142347904Y-121404152D01*
X142290761Y-121423200D01*
X141909809Y-121804152D02*
X142138381Y-121804152D01*
X142024095Y-121804152D02*
X142024095Y-121404152D01*
X142062190Y-121461295D01*
X142100285Y-121499390D01*
X142138381Y-121518438D01*
X141566952Y-121537486D02*
X141566952Y-121804152D01*
X141662190Y-121385105D02*
X141757429Y-121670819D01*
X141509809Y-121670819D01*
X141357429Y-121804152D02*
X141357429Y-121404152D01*
X141224096Y-121689867D01*
X141090762Y-121404152D01*
X141090762Y-121804152D01*
D11*
X142724095Y-125777381D02*
X142724095Y-124777381D01*
X142486000Y-124777381D01*
X142343142Y-124825000D01*
X142247904Y-124920238D01*
X142200285Y-125015476D01*
X142152666Y-125205952D01*
X142152666Y-125348810D01*
X142200285Y-125539286D01*
X142247904Y-125634524D01*
X142343142Y-125729762D01*
X142486000Y-125777381D01*
X142724095Y-125777381D01*
X141819333Y-124777381D02*
X141152666Y-124777381D01*
X141581238Y-125777381D01*
X167489143Y-118338743D02*
X167536762Y-118291124D01*
X167584381Y-118148267D01*
X167584381Y-118053029D01*
X167536762Y-117910171D01*
X167441524Y-117814933D01*
X167346286Y-117767314D01*
X167155810Y-117719695D01*
X167012952Y-117719695D01*
X166822476Y-117767314D01*
X166727238Y-117814933D01*
X166632000Y-117910171D01*
X166584381Y-118053029D01*
X166584381Y-118148267D01*
X166632000Y-118291124D01*
X166679619Y-118338743D01*
X167584381Y-119291124D02*
X167584381Y-118719695D01*
X167584381Y-119005409D02*
X166584381Y-119005409D01*
X166727238Y-118910171D01*
X166822476Y-118814933D01*
X166870095Y-118719695D01*
X166584381Y-119624457D02*
X166584381Y-120243505D01*
X166965333Y-119910171D01*
X166965333Y-120053029D01*
X167012952Y-120148267D01*
X167060571Y-120195886D01*
X167155810Y-120243505D01*
X167393905Y-120243505D01*
X167489143Y-120195886D01*
X167536762Y-120148267D01*
X167584381Y-120053029D01*
X167584381Y-119767314D01*
X167536762Y-119672076D01*
X167489143Y-119624457D01*
X162966305Y-96432381D02*
X162966305Y-97241905D01*
X162918686Y-97337143D01*
X162871067Y-97384762D01*
X162775829Y-97432381D01*
X162585352Y-97432381D01*
X162490114Y-97384762D01*
X162442495Y-97337143D01*
X162394876Y-97241905D01*
X162394876Y-96432381D01*
X161442495Y-96432381D02*
X161918686Y-96432381D01*
X161966305Y-96908571D01*
X161918686Y-96860952D01*
X161823448Y-96813333D01*
X161585352Y-96813333D01*
X161490114Y-96860952D01*
X161442495Y-96908571D01*
X161394876Y-97003810D01*
X161394876Y-97241905D01*
X161442495Y-97337143D01*
X161490114Y-97384762D01*
X161585352Y-97432381D01*
X161823448Y-97432381D01*
X161918686Y-97384762D01*
X161966305Y-97337143D01*
X161577257Y-119517943D02*
X161624876Y-119565562D01*
X161767733Y-119613181D01*
X161862971Y-119613181D01*
X162005829Y-119565562D01*
X162101067Y-119470324D01*
X162148686Y-119375086D01*
X162196305Y-119184610D01*
X162196305Y-119041752D01*
X162148686Y-118851276D01*
X162101067Y-118756038D01*
X162005829Y-118660800D01*
X161862971Y-118613181D01*
X161767733Y-118613181D01*
X161624876Y-118660800D01*
X161577257Y-118708419D01*
X160624876Y-119613181D02*
X161196305Y-119613181D01*
X160910591Y-119613181D02*
X160910591Y-118613181D01*
X161005829Y-118756038D01*
X161101067Y-118851276D01*
X161196305Y-118898895D01*
X159720114Y-118613181D02*
X160196305Y-118613181D01*
X160243924Y-119089371D01*
X160196305Y-119041752D01*
X160101067Y-118994133D01*
X159862971Y-118994133D01*
X159767733Y-119041752D01*
X159720114Y-119089371D01*
X159672495Y-119184610D01*
X159672495Y-119422705D01*
X159720114Y-119517943D01*
X159767733Y-119565562D01*
X159862971Y-119613181D01*
X160101067Y-119613181D01*
X160196305Y-119565562D01*
X160243924Y-119517943D01*
X130431943Y-117119543D02*
X130479562Y-117071924D01*
X130527181Y-116929067D01*
X130527181Y-116833829D01*
X130479562Y-116690971D01*
X130384324Y-116595733D01*
X130289086Y-116548114D01*
X130098610Y-116500495D01*
X129955752Y-116500495D01*
X129765276Y-116548114D01*
X129670038Y-116595733D01*
X129574800Y-116690971D01*
X129527181Y-116833829D01*
X129527181Y-116929067D01*
X129574800Y-117071924D01*
X129622419Y-117119543D01*
X130527181Y-118071924D02*
X130527181Y-117500495D01*
X130527181Y-117786209D02*
X129527181Y-117786209D01*
X129670038Y-117690971D01*
X129765276Y-117595733D01*
X129812895Y-117500495D01*
X129527181Y-118929067D02*
X129527181Y-118738590D01*
X129574800Y-118643352D01*
X129622419Y-118595733D01*
X129765276Y-118500495D01*
X129955752Y-118452876D01*
X130336705Y-118452876D01*
X130431943Y-118500495D01*
X130479562Y-118548114D01*
X130527181Y-118643352D01*
X130527181Y-118833829D01*
X130479562Y-118929067D01*
X130431943Y-118976686D01*
X130336705Y-119024305D01*
X130098610Y-119024305D01*
X130003371Y-118976686D01*
X129955752Y-118929067D01*
X129908133Y-118833829D01*
X129908133Y-118643352D01*
X129955752Y-118548114D01*
X130003371Y-118500495D01*
X130098610Y-118452876D01*
X135313657Y-115806743D02*
X135361276Y-115854362D01*
X135504133Y-115901981D01*
X135599371Y-115901981D01*
X135742229Y-115854362D01*
X135837467Y-115759124D01*
X135885086Y-115663886D01*
X135932705Y-115473410D01*
X135932705Y-115330552D01*
X135885086Y-115140076D01*
X135837467Y-115044838D01*
X135742229Y-114949600D01*
X135599371Y-114901981D01*
X135504133Y-114901981D01*
X135361276Y-114949600D01*
X135313657Y-114997219D01*
X134361276Y-115901981D02*
X134932705Y-115901981D01*
X134646991Y-115901981D02*
X134646991Y-114901981D01*
X134742229Y-115044838D01*
X134837467Y-115140076D01*
X134932705Y-115187695D01*
X134027943Y-114901981D02*
X133361276Y-114901981D01*
X133789848Y-115901981D01*
%LPC*%
D22*
X137894000Y-120277000D03*
X134644000Y-120277000D03*
D23*
X146970000Y-120470000D03*
X146970000Y-122468980D03*
X148968980Y-120470000D03*
X148968980Y-122468980D03*
X150967960Y-120470000D03*
X150967960Y-122468980D03*
X152969480Y-120470000D03*
X152969480Y-122468980D03*
X154968460Y-120470000D03*
X154968460Y-122468980D03*
X156969980Y-120470000D03*
X156969980Y-122468980D03*
X158968960Y-120470000D03*
X158968960Y-122468980D03*
D24*
X143299000Y-115385000D03*
X143299000Y-114435000D03*
X143299000Y-113485000D03*
X145499000Y-113485000D03*
X145499000Y-115385000D03*
X145499000Y-114435000D03*
D25*
X152629600Y-102749920D03*
X152629600Y-103550020D03*
X152629600Y-104350120D03*
X152629600Y-105150220D03*
X152629600Y-105947780D03*
X152629600Y-106747880D03*
X152629600Y-107547980D03*
X152629600Y-108348080D03*
D26*
X151136080Y-109841600D03*
X150335980Y-109841600D03*
X149535880Y-109841600D03*
X148735780Y-109841600D03*
X147938220Y-109841600D03*
X147138120Y-109841600D03*
X146338020Y-109841600D03*
X145537920Y-109841600D03*
D25*
X144046940Y-108348080D03*
X144046940Y-107547980D03*
X144046940Y-106747880D03*
X144046940Y-105947780D03*
X144046940Y-105150220D03*
X144046940Y-104350120D03*
X144046940Y-103550020D03*
X144046940Y-102749920D03*
D26*
X145537920Y-101258940D03*
X146338020Y-101258940D03*
X147138120Y-101258940D03*
X147938220Y-101258940D03*
X148735780Y-101258940D03*
X149535880Y-101258940D03*
X150335980Y-101258940D03*
X151136080Y-101258940D03*
D27*
X143832000Y-100418000D03*
X142732000Y-100418000D03*
D28*
X158648400Y-87729400D03*
X158648400Y-89629400D03*
X156464000Y-116782000D03*
X156464000Y-114882000D03*
X132588000Y-93292000D03*
X132588000Y-95192000D03*
D27*
X153628000Y-109990000D03*
X154728000Y-109990000D03*
D29*
X154747000Y-118118000D03*
X152847000Y-118118000D03*
D28*
X141351000Y-115004000D03*
X141351000Y-113104000D03*
D29*
X143449000Y-117356000D03*
X145349000Y-117356000D03*
D30*
X149098000Y-112654460D03*
X149098000Y-115453540D03*
D31*
X134998460Y-124468000D03*
X137797540Y-124468000D03*
D30*
X168529000Y-115961540D03*
X168529000Y-113162460D03*
D32*
X130175000Y-93396000D03*
X130175000Y-95596000D03*
D33*
X135552000Y-94242000D03*
X137752000Y-94242000D03*
D32*
X167030400Y-96662800D03*
X167030400Y-94462800D03*
D33*
X133434000Y-115070000D03*
X131234000Y-115070000D03*
X138006000Y-115070000D03*
X135806000Y-115070000D03*
X161120000Y-115070000D03*
X158920000Y-115070000D03*
X165692000Y-115070000D03*
X163492000Y-115070000D03*
D32*
X162204400Y-87350800D03*
X162204400Y-89550800D03*
D34*
X152471120Y-111768000D03*
X153670000Y-111768000D03*
X154868880Y-111768000D03*
D35*
X152847000Y-114097000D03*
X153797000Y-114097000D03*
X154747000Y-114097000D03*
X154747000Y-116297000D03*
X152847000Y-116297000D03*
X153797000Y-116297000D03*
D36*
X158902400Y-85453600D03*
D37*
X137650220Y-92491940D03*
X135653780Y-92491940D03*
X136652000Y-89896060D03*
D38*
X156334460Y-85448520D03*
X140337540Y-95445960D03*
X156334460Y-89449020D03*
X140335000Y-85448520D03*
X140337540Y-97447480D03*
X156334460Y-93446980D03*
X156334460Y-97447480D03*
X140335000Y-87544020D03*
X156334460Y-95445960D03*
X156334460Y-87450040D03*
D29*
X143449000Y-111768000D03*
X145349000Y-111768000D03*
D28*
X160274000Y-87754800D03*
X160274000Y-89654800D03*
D39*
X163560800Y-122262000D03*
X162610800Y-122262000D03*
X161660800Y-122262000D03*
X161660800Y-119562000D03*
X163560800Y-119562000D03*
D35*
X130241000Y-117399000D03*
X131191000Y-117399000D03*
X132141000Y-117399000D03*
X132141000Y-119599000D03*
X130241000Y-119599000D03*
X131191000Y-119599000D03*
D40*
X143486000Y-119896000D03*
D41*
X140486000Y-119896000D03*
D32*
X140336000Y-123325000D03*
X143636000Y-123325000D03*
D28*
X165500000Y-118050000D03*
X165500000Y-119950000D03*
D42*
X159504400Y-95385000D03*
X159504400Y-94115000D03*
X159504400Y-92845000D03*
X159504400Y-91575000D03*
X164904400Y-91575000D03*
X164904400Y-92845000D03*
X164904400Y-94115000D03*
X164904400Y-95385000D03*
D43*
X160184400Y-117660800D03*
X161684400Y-117660800D03*
D44*
X128574800Y-118512400D03*
X128574800Y-117012400D03*
D43*
X135420800Y-116949600D03*
X133920800Y-116949600D03*
M02*
