G04 #@! TF.FileFunction,Legend,Bot*
%FSLAX46Y46*%
G04 Gerber Fmt 4.6, Leading zero omitted, Abs format (unit mm)*
G04 Created by KiCad (PCBNEW 4.0.6) date 08/01/17 19:50:43*
%MOMM*%
%LPD*%
G01*
G04 APERTURE LIST*
%ADD10C,0.100000*%
%ADD11C,0.508000*%
%ADD12C,0.120000*%
%ADD13C,0.203200*%
%ADD14C,0.254000*%
%ADD15C,0.150000*%
%ADD16C,0.127000*%
%ADD17C,0.025400*%
%ADD18C,0.101600*%
%ADD19C,0.050800*%
%ADD20R,1.670000X0.933400*%
%ADD21R,0.933400X1.670000*%
%ADD22R,1.600000X1.150000*%
%ADD23R,1.300000X1.600000*%
%ADD24R,1.398220X1.299160*%
%ADD25R,1.150000X1.600000*%
%ADD26R,1.997660X1.799540*%
%ADD27R,1.600000X1.300000*%
%ADD28R,1.949400X0.999440*%
%ADD29R,2.198320X1.598880*%
%ADD30C,1.900000*%
%ADD31R,0.800000X1.600000*%
%ADD32R,0.900000X1.300000*%
%ADD33R,1.300000X0.900000*%
%ADD34C,1.705560*%
G04 APERTURE END LIST*
D10*
D11*
X144485721Y-105291000D02*
G75*
G03X144485721Y-105291000I-35921J0D01*
G01*
D12*
X146044400Y-108678800D02*
X145344400Y-108678800D01*
X145344400Y-109878800D02*
X146044400Y-109878800D01*
X137154200Y-121818400D02*
X137154200Y-120818400D01*
X135794200Y-120818400D02*
X135794200Y-121818400D01*
X155987200Y-89678000D02*
X155987200Y-90678000D01*
X157347200Y-90678000D02*
X157347200Y-89678000D01*
D13*
X158112460Y-86700740D02*
X160898840Y-86700740D01*
X160898840Y-86700740D02*
X160898840Y-85479000D01*
X160898840Y-85479000D02*
X158112460Y-85479000D01*
X158112460Y-85479000D02*
X158112460Y-86700740D01*
D12*
X156270400Y-85662400D02*
X156270400Y-86362400D01*
X157470400Y-86362400D02*
X157470400Y-85662400D01*
D13*
X143891000Y-119057800D02*
X142367000Y-119057800D01*
X141122400Y-119108600D02*
X139598400Y-119108600D01*
D12*
X160113600Y-88380400D02*
X159113600Y-88380400D01*
X159113600Y-89740400D02*
X160113600Y-89740400D01*
X132088000Y-115750000D02*
X133088000Y-115750000D01*
X133088000Y-114390000D02*
X132088000Y-114390000D01*
X136152000Y-115750000D02*
X137152000Y-115750000D01*
X137152000Y-114390000D02*
X136152000Y-114390000D01*
X159774000Y-115750000D02*
X160774000Y-115750000D01*
X160774000Y-114390000D02*
X159774000Y-114390000D01*
X163838000Y-115750000D02*
X164838000Y-115750000D01*
X164838000Y-114390000D02*
X163838000Y-114390000D01*
D14*
X149758400Y-87409400D02*
X149758400Y-92489400D01*
X147599400Y-85631400D02*
X146202400Y-85631400D01*
X146202400Y-93251400D02*
X146202400Y-94267400D01*
X146202400Y-94267400D02*
X147599400Y-94267400D01*
X146202400Y-85631400D02*
X146202400Y-86647400D01*
D12*
X137626800Y-120968400D02*
X137626800Y-121668400D01*
X138826800Y-121668400D02*
X138826800Y-120968400D01*
X153766000Y-117467200D02*
X153066000Y-117467200D01*
X153066000Y-118667200D02*
X153766000Y-118667200D01*
D15*
X151966600Y-117235400D02*
X151166600Y-117235400D01*
X151966600Y-111685400D02*
X151066600Y-111685400D01*
X145416600Y-111685400D02*
X146316600Y-111685400D01*
X145416600Y-117235400D02*
X146316600Y-117235400D01*
X151966600Y-117235400D02*
X151966600Y-111685400D01*
X145416600Y-117235400D02*
X145416600Y-111685400D01*
X151166600Y-117235400D02*
X151166600Y-118510400D01*
D12*
X143010000Y-115267400D02*
X144010000Y-115267400D01*
X144010000Y-113907400D02*
X143010000Y-113907400D01*
X143010000Y-113565600D02*
X144010000Y-113565600D01*
X144010000Y-112205600D02*
X143010000Y-112205600D01*
X154424000Y-113780400D02*
X153424000Y-113780400D01*
X153424000Y-115140400D02*
X154424000Y-115140400D01*
X154373200Y-112231000D02*
X153373200Y-112231000D01*
X153373200Y-113591000D02*
X154373200Y-113591000D01*
X151556000Y-108686600D02*
X151556000Y-107686600D01*
X150196000Y-107686600D02*
X150196000Y-108686600D01*
X149041400Y-108686600D02*
X149041400Y-107686600D01*
X147681400Y-107686600D02*
X147681400Y-108686600D01*
X150286000Y-108686600D02*
X150286000Y-107686600D01*
X148926000Y-107686600D02*
X148926000Y-108686600D01*
D16*
X145700000Y-119200000D02*
X145700000Y-123645000D01*
X145700000Y-123645000D02*
X160305000Y-123645000D01*
X160305000Y-123645000D02*
X160305000Y-119200000D01*
X160305000Y-119200000D02*
X145700000Y-119200000D01*
X146335000Y-119200000D02*
X145700000Y-119835000D01*
X145700000Y-119835000D02*
X145700000Y-119200000D01*
X145700000Y-119200000D02*
X146335000Y-119200000D01*
D17*
X148835324Y-102329248D02*
X148835324Y-101922848D01*
X148409572Y-102290543D02*
X148428924Y-102309895D01*
X148486981Y-102329248D01*
X148525686Y-102329248D01*
X148583743Y-102309895D01*
X148622448Y-102271190D01*
X148641800Y-102232486D01*
X148661152Y-102155076D01*
X148661152Y-102097019D01*
X148641800Y-102019610D01*
X148622448Y-101980905D01*
X148583743Y-101942200D01*
X148525686Y-101922848D01*
X148486981Y-101922848D01*
X148428924Y-101942200D01*
X148409572Y-101961552D01*
X148022524Y-102329248D02*
X148254752Y-102329248D01*
X148138638Y-102329248D02*
X148138638Y-101922848D01*
X148177343Y-101980905D01*
X148216048Y-102019610D01*
X148254752Y-102038962D01*
X150216600Y-101324133D02*
X150023077Y-101324133D01*
X150255305Y-101440248D02*
X150119839Y-101033848D01*
X149984372Y-101440248D01*
X149906962Y-101033848D02*
X149674734Y-101033848D01*
X149790848Y-101440248D02*
X149790848Y-101033848D01*
X149539267Y-101440248D02*
X149539267Y-101033848D01*
X149403800Y-101324133D01*
X149268334Y-101033848D01*
X149268334Y-101440248D01*
X149074810Y-101227371D02*
X148939343Y-101227371D01*
X148881286Y-101440248D02*
X149074810Y-101440248D01*
X149074810Y-101033848D01*
X148881286Y-101033848D01*
X148494239Y-101053200D02*
X148532944Y-101033848D01*
X148591001Y-101033848D01*
X148649058Y-101053200D01*
X148687763Y-101091905D01*
X148707115Y-101130610D01*
X148726467Y-101208019D01*
X148726467Y-101266076D01*
X148707115Y-101343486D01*
X148687763Y-101382190D01*
X148649058Y-101420895D01*
X148591001Y-101440248D01*
X148552296Y-101440248D01*
X148494239Y-101420895D01*
X148474887Y-101401543D01*
X148474887Y-101266076D01*
X148552296Y-101266076D01*
X148320067Y-101324133D02*
X148126544Y-101324133D01*
X148358772Y-101440248D02*
X148223306Y-101033848D01*
X148087839Y-101440248D01*
X147991077Y-101033848D02*
X147739496Y-101033848D01*
X147874963Y-101188667D01*
X147816905Y-101188667D01*
X147778201Y-101208019D01*
X147758848Y-101227371D01*
X147739496Y-101266076D01*
X147739496Y-101362838D01*
X147758848Y-101401543D01*
X147778201Y-101420895D01*
X147816905Y-101440248D01*
X147933020Y-101440248D01*
X147971724Y-101420895D01*
X147991077Y-101401543D01*
X147584676Y-101072552D02*
X147565324Y-101053200D01*
X147526619Y-101033848D01*
X147429857Y-101033848D01*
X147391153Y-101053200D01*
X147371800Y-101072552D01*
X147352448Y-101111257D01*
X147352448Y-101149962D01*
X147371800Y-101208019D01*
X147604029Y-101440248D01*
X147352448Y-101440248D01*
X147120219Y-101208019D02*
X147158924Y-101188667D01*
X147178276Y-101169314D01*
X147197628Y-101130610D01*
X147197628Y-101111257D01*
X147178276Y-101072552D01*
X147158924Y-101053200D01*
X147120219Y-101033848D01*
X147042809Y-101033848D01*
X147004105Y-101053200D01*
X146984752Y-101072552D01*
X146965400Y-101111257D01*
X146965400Y-101130610D01*
X146984752Y-101169314D01*
X147004105Y-101188667D01*
X147042809Y-101208019D01*
X147120219Y-101208019D01*
X147158924Y-101227371D01*
X147178276Y-101246724D01*
X147197628Y-101285429D01*
X147197628Y-101362838D01*
X147178276Y-101401543D01*
X147158924Y-101420895D01*
X147120219Y-101440248D01*
X147042809Y-101440248D01*
X147004105Y-101420895D01*
X146984752Y-101401543D01*
X146965400Y-101362838D01*
X146965400Y-101285429D01*
X146984752Y-101246724D01*
X147004105Y-101227371D01*
X147042809Y-101208019D01*
X146791228Y-101440248D02*
X146791228Y-101033848D01*
X146636409Y-101033848D01*
X146597704Y-101053200D01*
X146578352Y-101072552D01*
X146559000Y-101111257D01*
X146559000Y-101169314D01*
X146578352Y-101208019D01*
X146597704Y-101227371D01*
X146636409Y-101246724D01*
X146791228Y-101246724D01*
D15*
X143016266Y-109737543D02*
X143063885Y-109785162D01*
X143206742Y-109832781D01*
X143301980Y-109832781D01*
X143444838Y-109785162D01*
X143540076Y-109689924D01*
X143587695Y-109594686D01*
X143635314Y-109404210D01*
X143635314Y-109261352D01*
X143587695Y-109070876D01*
X143540076Y-108975638D01*
X143444838Y-108880400D01*
X143301980Y-108832781D01*
X143206742Y-108832781D01*
X143063885Y-108880400D01*
X143016266Y-108928019D01*
X142159123Y-109166114D02*
X142159123Y-109832781D01*
X142397219Y-108785162D02*
X142635314Y-109499448D01*
X142016266Y-109499448D01*
X135476581Y-121151734D02*
X135476581Y-120675543D01*
X134476581Y-120675543D01*
X134571819Y-121437448D02*
X134524200Y-121485067D01*
X134476581Y-121580305D01*
X134476581Y-121818401D01*
X134524200Y-121913639D01*
X134571819Y-121961258D01*
X134667057Y-122008877D01*
X134762295Y-122008877D01*
X134905152Y-121961258D01*
X135476581Y-121389829D01*
X135476581Y-122008877D01*
D12*
X135884352Y-104573967D02*
X135427209Y-104573967D01*
X135655780Y-105373967D02*
X135655780Y-104573967D01*
X135046256Y-105373967D02*
X135122447Y-105335872D01*
X135160542Y-105297776D01*
X135198637Y-105221586D01*
X135198637Y-104993014D01*
X135160542Y-104916824D01*
X135122447Y-104878729D01*
X135046256Y-104840633D01*
X134931970Y-104840633D01*
X134855780Y-104878729D01*
X134817685Y-104916824D01*
X134779589Y-104993014D01*
X134779589Y-105221586D01*
X134817685Y-105297776D01*
X134855780Y-105335872D01*
X134931970Y-105373967D01*
X135046256Y-105373967D01*
X134093875Y-104840633D02*
X134093875Y-105373967D01*
X134436732Y-104840633D02*
X134436732Y-105259681D01*
X134398637Y-105335872D01*
X134322446Y-105373967D01*
X134208160Y-105373967D01*
X134131970Y-105335872D01*
X134093875Y-105297776D01*
X133370065Y-105335872D02*
X133446255Y-105373967D01*
X133598636Y-105373967D01*
X133674827Y-105335872D01*
X133712922Y-105297776D01*
X133751017Y-105221586D01*
X133751017Y-104993014D01*
X133712922Y-104916824D01*
X133674827Y-104878729D01*
X133598636Y-104840633D01*
X133446255Y-104840633D01*
X133370065Y-104878729D01*
X133027208Y-105373967D02*
X133027208Y-104573967D01*
X132684351Y-105373967D02*
X132684351Y-104954919D01*
X132722446Y-104878729D01*
X132798636Y-104840633D01*
X132912922Y-104840633D01*
X132989113Y-104878729D01*
X133027208Y-104916824D01*
D15*
X155570181Y-89985934D02*
X155093990Y-89652600D01*
X155570181Y-89414505D02*
X154570181Y-89414505D01*
X154570181Y-89795458D01*
X154617800Y-89890696D01*
X154665419Y-89938315D01*
X154760657Y-89985934D01*
X154903514Y-89985934D01*
X154998752Y-89938315D01*
X155046371Y-89890696D01*
X155093990Y-89795458D01*
X155093990Y-89414505D01*
X154903514Y-90843077D02*
X155570181Y-90843077D01*
X154522562Y-90604981D02*
X155236848Y-90366886D01*
X155236848Y-90985934D01*
D16*
X161807676Y-84271895D02*
X161807676Y-84929876D01*
X161768971Y-85007286D01*
X161730267Y-85045990D01*
X161652857Y-85084695D01*
X161498038Y-85084695D01*
X161420629Y-85045990D01*
X161381924Y-85007286D01*
X161343219Y-84929876D01*
X161343219Y-84271895D01*
X160530419Y-85084695D02*
X160994876Y-85084695D01*
X160762647Y-85084695D02*
X160762647Y-84271895D01*
X160840057Y-84388010D01*
X160917466Y-84465419D01*
X160994876Y-84504124D01*
X162847867Y-85658010D02*
X162847867Y-86045058D01*
X163080095Y-85580601D02*
X162267295Y-85851534D01*
X163080095Y-86122467D01*
X162267295Y-86277287D02*
X162267295Y-86741744D01*
X163080095Y-86509515D02*
X162267295Y-86509515D01*
X163041390Y-86973972D02*
X163080095Y-87090086D01*
X163080095Y-87283610D01*
X163041390Y-87361020D01*
X163002686Y-87399724D01*
X162925276Y-87438429D01*
X162847867Y-87438429D01*
X162770457Y-87399724D01*
X162731752Y-87361020D01*
X162693048Y-87283610D01*
X162654343Y-87128791D01*
X162615638Y-87051382D01*
X162576933Y-87012677D01*
X162499524Y-86973972D01*
X162422114Y-86973972D01*
X162344705Y-87012677D01*
X162306000Y-87051382D01*
X162267295Y-87128791D01*
X162267295Y-87322315D01*
X162306000Y-87438429D01*
X163080095Y-87786772D02*
X162267295Y-87786772D01*
X162654343Y-87786772D02*
X162654343Y-88251229D01*
X163080095Y-88251229D02*
X162267295Y-88251229D01*
X162847867Y-88599572D02*
X162847867Y-88986620D01*
X163080095Y-88522163D02*
X162267295Y-88793096D01*
X163080095Y-89064029D01*
X162344705Y-89296258D02*
X162306000Y-89334963D01*
X162267295Y-89412372D01*
X162267295Y-89605896D01*
X162306000Y-89683306D01*
X162344705Y-89722010D01*
X162422114Y-89760715D01*
X162499524Y-89760715D01*
X162615638Y-89722010D01*
X163080095Y-89257553D01*
X163080095Y-89760715D01*
X162267295Y-90263877D02*
X162267295Y-90341286D01*
X162306000Y-90418696D01*
X162344705Y-90457401D01*
X162422114Y-90496105D01*
X162576933Y-90534810D01*
X162770457Y-90534810D01*
X162925276Y-90496105D01*
X163002686Y-90457401D01*
X163041390Y-90418696D01*
X163080095Y-90341286D01*
X163080095Y-90263877D01*
X163041390Y-90186467D01*
X163002686Y-90147763D01*
X162925276Y-90109058D01*
X162770457Y-90070353D01*
X162576933Y-90070353D01*
X162422114Y-90109058D01*
X162344705Y-90147763D01*
X162306000Y-90186467D01*
X162267295Y-90263877D01*
X162538229Y-91231496D02*
X163080095Y-91231496D01*
X162228590Y-91037972D02*
X162809162Y-90844448D01*
X162809162Y-91347610D01*
X162847867Y-91618543D02*
X162847867Y-92005591D01*
X163080095Y-91541134D02*
X162267295Y-91812067D01*
X163080095Y-92083000D01*
D15*
X155652743Y-85947334D02*
X155700362Y-85899715D01*
X155747981Y-85756858D01*
X155747981Y-85661620D01*
X155700362Y-85518762D01*
X155605124Y-85423524D01*
X155509886Y-85375905D01*
X155319410Y-85328286D01*
X155176552Y-85328286D01*
X154986076Y-85375905D01*
X154890838Y-85423524D01*
X154795600Y-85518762D01*
X154747981Y-85661620D01*
X154747981Y-85756858D01*
X154795600Y-85899715D01*
X154843219Y-85947334D01*
X154747981Y-86852096D02*
X154747981Y-86375905D01*
X155224171Y-86328286D01*
X155176552Y-86375905D01*
X155128933Y-86471143D01*
X155128933Y-86709239D01*
X155176552Y-86804477D01*
X155224171Y-86852096D01*
X155319410Y-86899715D01*
X155557505Y-86899715D01*
X155652743Y-86852096D01*
X155700362Y-86804477D01*
X155747981Y-86709239D01*
X155747981Y-86471143D01*
X155700362Y-86375905D01*
X155652743Y-86328286D01*
D16*
X143571685Y-118665914D02*
X143600714Y-118694943D01*
X143687800Y-118723971D01*
X143745857Y-118723971D01*
X143832942Y-118694943D01*
X143891000Y-118636886D01*
X143920028Y-118578829D01*
X143949057Y-118462714D01*
X143949057Y-118375629D01*
X143920028Y-118259514D01*
X143891000Y-118201457D01*
X143832942Y-118143400D01*
X143745857Y-118114371D01*
X143687800Y-118114371D01*
X143600714Y-118143400D01*
X143571685Y-118172429D01*
X142991114Y-118723971D02*
X143339457Y-118723971D01*
X143165285Y-118723971D02*
X143165285Y-118114371D01*
X143223342Y-118201457D01*
X143281400Y-118259514D01*
X143339457Y-118288543D01*
X142613743Y-118114371D02*
X142555686Y-118114371D01*
X142497629Y-118143400D01*
X142468600Y-118172429D01*
X142439571Y-118230486D01*
X142410543Y-118346600D01*
X142410543Y-118491743D01*
X142439571Y-118607857D01*
X142468600Y-118665914D01*
X142497629Y-118694943D01*
X142555686Y-118723971D01*
X142613743Y-118723971D01*
X142671800Y-118694943D01*
X142700829Y-118665914D01*
X142729857Y-118607857D01*
X142758886Y-118491743D01*
X142758886Y-118346600D01*
X142729857Y-118230486D01*
X142700829Y-118172429D01*
X142671800Y-118143400D01*
X142613743Y-118114371D01*
X143988971Y-124997771D02*
X144337314Y-124997771D01*
X144163142Y-124997771D02*
X144163142Y-124388171D01*
X144221199Y-124475257D01*
X144279257Y-124533314D01*
X144337314Y-124562343D01*
X143611600Y-124388171D02*
X143553543Y-124388171D01*
X143495486Y-124417200D01*
X143466457Y-124446229D01*
X143437428Y-124504286D01*
X143408400Y-124620400D01*
X143408400Y-124765543D01*
X143437428Y-124881657D01*
X143466457Y-124939714D01*
X143495486Y-124968743D01*
X143553543Y-124997771D01*
X143611600Y-124997771D01*
X143669657Y-124968743D01*
X143698686Y-124939714D01*
X143727714Y-124881657D01*
X143756743Y-124765543D01*
X143756743Y-124620400D01*
X143727714Y-124504286D01*
X143698686Y-124446229D01*
X143669657Y-124417200D01*
X143611600Y-124388171D01*
X143031029Y-124388171D02*
X142972972Y-124388171D01*
X142914915Y-124417200D01*
X142885886Y-124446229D01*
X142856857Y-124504286D01*
X142827829Y-124620400D01*
X142827829Y-124765543D01*
X142856857Y-124881657D01*
X142885886Y-124939714D01*
X142914915Y-124968743D01*
X142972972Y-124997771D01*
X143031029Y-124997771D01*
X143089086Y-124968743D01*
X143118115Y-124939714D01*
X143147143Y-124881657D01*
X143176172Y-124765543D01*
X143176172Y-124620400D01*
X143147143Y-124504286D01*
X143118115Y-124446229D01*
X143089086Y-124417200D01*
X143031029Y-124388171D01*
X142305315Y-124591371D02*
X142305315Y-124997771D01*
X142566572Y-124591371D02*
X142566572Y-124910686D01*
X142537544Y-124968743D01*
X142479486Y-124997771D01*
X142392401Y-124997771D01*
X142334344Y-124968743D01*
X142305315Y-124939714D01*
X140828485Y-118691314D02*
X140857514Y-118720343D01*
X140944600Y-118749371D01*
X141002657Y-118749371D01*
X141089742Y-118720343D01*
X141147800Y-118662286D01*
X141176828Y-118604229D01*
X141205857Y-118488114D01*
X141205857Y-118401029D01*
X141176828Y-118284914D01*
X141147800Y-118226857D01*
X141089742Y-118168800D01*
X141002657Y-118139771D01*
X140944600Y-118139771D01*
X140857514Y-118168800D01*
X140828485Y-118197829D01*
X140247914Y-118749371D02*
X140596257Y-118749371D01*
X140422085Y-118749371D02*
X140422085Y-118139771D01*
X140480142Y-118226857D01*
X140538200Y-118284914D01*
X140596257Y-118313943D01*
X140015686Y-118197829D02*
X139986657Y-118168800D01*
X139928600Y-118139771D01*
X139783457Y-118139771D01*
X139725400Y-118168800D01*
X139696371Y-118197829D01*
X139667343Y-118255886D01*
X139667343Y-118313943D01*
X139696371Y-118401029D01*
X140044714Y-118749371D01*
X139667343Y-118749371D01*
X141057085Y-124540571D02*
X141057085Y-124946971D01*
X141202228Y-124308343D02*
X141347371Y-124743771D01*
X140969999Y-124743771D01*
X140737771Y-124888914D02*
X140708743Y-124917943D01*
X140737771Y-124946971D01*
X140766800Y-124917943D01*
X140737771Y-124888914D01*
X140737771Y-124946971D01*
X140505542Y-124337371D02*
X140099142Y-124337371D01*
X140360399Y-124946971D01*
X139605657Y-124540571D02*
X139605657Y-124946971D01*
X139866914Y-124540571D02*
X139866914Y-124859886D01*
X139837886Y-124917943D01*
X139779828Y-124946971D01*
X139692743Y-124946971D01*
X139634686Y-124917943D01*
X139605657Y-124888914D01*
D15*
X159780266Y-90962781D02*
X160113600Y-90486590D01*
X160351695Y-90962781D02*
X160351695Y-89962781D01*
X159970742Y-89962781D01*
X159875504Y-90010400D01*
X159827885Y-90058019D01*
X159780266Y-90153257D01*
X159780266Y-90296114D01*
X159827885Y-90391352D01*
X159875504Y-90438971D01*
X159970742Y-90486590D01*
X160351695Y-90486590D01*
X159446933Y-89962781D02*
X158827885Y-89962781D01*
X159161219Y-90343733D01*
X159018361Y-90343733D01*
X158923123Y-90391352D01*
X158875504Y-90438971D01*
X158827885Y-90534210D01*
X158827885Y-90772305D01*
X158875504Y-90867543D01*
X158923123Y-90915162D01*
X159018361Y-90962781D01*
X159304076Y-90962781D01*
X159399314Y-90915162D01*
X159446933Y-90867543D01*
X133313466Y-114099981D02*
X133646800Y-113623790D01*
X133884895Y-114099981D02*
X133884895Y-113099981D01*
X133503942Y-113099981D01*
X133408704Y-113147600D01*
X133361085Y-113195219D01*
X133313466Y-113290457D01*
X133313466Y-113433314D01*
X133361085Y-113528552D01*
X133408704Y-113576171D01*
X133503942Y-113623790D01*
X133884895Y-113623790D01*
X132408704Y-113099981D02*
X132884895Y-113099981D01*
X132932514Y-113576171D01*
X132884895Y-113528552D01*
X132789657Y-113480933D01*
X132551561Y-113480933D01*
X132456323Y-113528552D01*
X132408704Y-113576171D01*
X132361085Y-113671410D01*
X132361085Y-113909505D01*
X132408704Y-114004743D01*
X132456323Y-114052362D01*
X132551561Y-114099981D01*
X132789657Y-114099981D01*
X132884895Y-114052362D01*
X132932514Y-114004743D01*
X136361466Y-114049181D02*
X136694800Y-113572990D01*
X136932895Y-114049181D02*
X136932895Y-113049181D01*
X136551942Y-113049181D01*
X136456704Y-113096800D01*
X136409085Y-113144419D01*
X136361466Y-113239657D01*
X136361466Y-113382514D01*
X136409085Y-113477752D01*
X136456704Y-113525371D01*
X136551942Y-113572990D01*
X136932895Y-113572990D01*
X135504323Y-113049181D02*
X135694800Y-113049181D01*
X135790038Y-113096800D01*
X135837657Y-113144419D01*
X135932895Y-113287276D01*
X135980514Y-113477752D01*
X135980514Y-113858705D01*
X135932895Y-113953943D01*
X135885276Y-114001562D01*
X135790038Y-114049181D01*
X135599561Y-114049181D01*
X135504323Y-114001562D01*
X135456704Y-113953943D01*
X135409085Y-113858705D01*
X135409085Y-113620610D01*
X135456704Y-113525371D01*
X135504323Y-113477752D01*
X135599561Y-113430133D01*
X135790038Y-113430133D01*
X135885276Y-113477752D01*
X135932895Y-113525371D01*
X135980514Y-113620610D01*
X160897866Y-114074581D02*
X161231200Y-113598390D01*
X161469295Y-114074581D02*
X161469295Y-113074581D01*
X161088342Y-113074581D01*
X160993104Y-113122200D01*
X160945485Y-113169819D01*
X160897866Y-113265057D01*
X160897866Y-113407914D01*
X160945485Y-113503152D01*
X160993104Y-113550771D01*
X161088342Y-113598390D01*
X161469295Y-113598390D01*
X160564533Y-113074581D02*
X159897866Y-113074581D01*
X160326438Y-114074581D01*
X164504666Y-114072381D02*
X164838000Y-113596190D01*
X165076095Y-114072381D02*
X165076095Y-113072381D01*
X164695142Y-113072381D01*
X164599904Y-113120000D01*
X164552285Y-113167619D01*
X164504666Y-113262857D01*
X164504666Y-113405714D01*
X164552285Y-113500952D01*
X164599904Y-113548571D01*
X164695142Y-113596190D01*
X165076095Y-113596190D01*
X163933238Y-113500952D02*
X164028476Y-113453333D01*
X164076095Y-113405714D01*
X164123714Y-113310476D01*
X164123714Y-113262857D01*
X164076095Y-113167619D01*
X164028476Y-113120000D01*
X163933238Y-113072381D01*
X163742761Y-113072381D01*
X163647523Y-113120000D01*
X163599904Y-113167619D01*
X163552285Y-113262857D01*
X163552285Y-113310476D01*
X163599904Y-113405714D01*
X163647523Y-113453333D01*
X163742761Y-113500952D01*
X163933238Y-113500952D01*
X164028476Y-113548571D01*
X164076095Y-113596190D01*
X164123714Y-113691429D01*
X164123714Y-113881905D01*
X164076095Y-113977143D01*
X164028476Y-114024762D01*
X163933238Y-114072381D01*
X163742761Y-114072381D01*
X163647523Y-114024762D01*
X163599904Y-113977143D01*
X163552285Y-113881905D01*
X163552285Y-113691429D01*
X163599904Y-113596190D01*
X163647523Y-113548571D01*
X163742761Y-113500952D01*
D17*
X145528695Y-89221267D02*
X145548048Y-89279324D01*
X145548048Y-89376086D01*
X145528695Y-89414790D01*
X145509343Y-89434143D01*
X145470638Y-89453495D01*
X145431933Y-89453495D01*
X145393229Y-89434143D01*
X145373876Y-89414790D01*
X145354524Y-89376086D01*
X145335171Y-89298676D01*
X145315819Y-89259971D01*
X145296467Y-89240619D01*
X145257762Y-89221267D01*
X145219057Y-89221267D01*
X145180352Y-89240619D01*
X145161000Y-89259971D01*
X145141648Y-89298676D01*
X145141648Y-89395438D01*
X145161000Y-89453495D01*
X145548048Y-89821191D02*
X145548048Y-89627667D01*
X145141648Y-89627667D01*
X145180352Y-89937305D02*
X145161000Y-89956657D01*
X145141648Y-89995362D01*
X145141648Y-90092124D01*
X145161000Y-90130828D01*
X145180352Y-90150181D01*
X145219057Y-90169533D01*
X145257762Y-90169533D01*
X145315819Y-90150181D01*
X145548048Y-89917952D01*
X145548048Y-90169533D01*
D15*
X140215943Y-120657143D02*
X140263562Y-120609524D01*
X140311181Y-120466667D01*
X140311181Y-120371429D01*
X140263562Y-120228571D01*
X140168324Y-120133333D01*
X140073086Y-120085714D01*
X139882610Y-120038095D01*
X139739752Y-120038095D01*
X139549276Y-120085714D01*
X139454038Y-120133333D01*
X139358800Y-120228571D01*
X139311181Y-120371429D01*
X139311181Y-120466667D01*
X139358800Y-120609524D01*
X139406419Y-120657143D01*
X140311181Y-121609524D02*
X140311181Y-121038095D01*
X140311181Y-121323809D02*
X139311181Y-121323809D01*
X139454038Y-121228571D01*
X139549276Y-121133333D01*
X139596895Y-121038095D01*
X139311181Y-121942857D02*
X139311181Y-122561905D01*
X139692133Y-122228571D01*
X139692133Y-122371429D01*
X139739752Y-122466667D01*
X139787371Y-122514286D01*
X139882610Y-122561905D01*
X140120705Y-122561905D01*
X140215943Y-122514286D01*
X140263562Y-122466667D01*
X140311181Y-122371429D01*
X140311181Y-122085714D01*
X140263562Y-121990476D01*
X140215943Y-121942857D01*
X156529066Y-118500543D02*
X156576685Y-118548162D01*
X156719542Y-118595781D01*
X156814780Y-118595781D01*
X156957638Y-118548162D01*
X157052876Y-118452924D01*
X157100495Y-118357686D01*
X157148114Y-118167210D01*
X157148114Y-118024352D01*
X157100495Y-117833876D01*
X157052876Y-117738638D01*
X156957638Y-117643400D01*
X156814780Y-117595781D01*
X156719542Y-117595781D01*
X156576685Y-117643400D01*
X156529066Y-117691019D01*
X155576685Y-118595781D02*
X156148114Y-118595781D01*
X155862400Y-118595781D02*
X155862400Y-117595781D01*
X155957638Y-117738638D01*
X156052876Y-117833876D01*
X156148114Y-117881495D01*
X144805305Y-116960781D02*
X144805305Y-117770305D01*
X144757686Y-117865543D01*
X144710067Y-117913162D01*
X144614829Y-117960781D01*
X144424352Y-117960781D01*
X144329114Y-117913162D01*
X144281495Y-117865543D01*
X144233876Y-117770305D01*
X144233876Y-116960781D01*
X143614829Y-117389352D02*
X143710067Y-117341733D01*
X143757686Y-117294114D01*
X143805305Y-117198876D01*
X143805305Y-117151257D01*
X143757686Y-117056019D01*
X143710067Y-117008400D01*
X143614829Y-116960781D01*
X143424352Y-116960781D01*
X143329114Y-117008400D01*
X143281495Y-117056019D01*
X143233876Y-117151257D01*
X143233876Y-117198876D01*
X143281495Y-117294114D01*
X143329114Y-117341733D01*
X143424352Y-117389352D01*
X143614829Y-117389352D01*
X143710067Y-117436971D01*
X143757686Y-117484590D01*
X143805305Y-117579829D01*
X143805305Y-117770305D01*
X143757686Y-117865543D01*
X143710067Y-117913162D01*
X143614829Y-117960781D01*
X143424352Y-117960781D01*
X143329114Y-117913162D01*
X143281495Y-117865543D01*
X143233876Y-117770305D01*
X143233876Y-117579829D01*
X143281495Y-117484590D01*
X143329114Y-117436971D01*
X143424352Y-117389352D01*
D12*
X163544952Y-104523167D02*
X163087809Y-104523167D01*
X163316380Y-105323167D02*
X163316380Y-104523167D01*
X162706856Y-105323167D02*
X162783047Y-105285072D01*
X162821142Y-105246976D01*
X162859237Y-105170786D01*
X162859237Y-104942214D01*
X162821142Y-104866024D01*
X162783047Y-104827929D01*
X162706856Y-104789833D01*
X162592570Y-104789833D01*
X162516380Y-104827929D01*
X162478285Y-104866024D01*
X162440189Y-104942214D01*
X162440189Y-105170786D01*
X162478285Y-105246976D01*
X162516380Y-105285072D01*
X162592570Y-105323167D01*
X162706856Y-105323167D01*
X161754475Y-104789833D02*
X161754475Y-105323167D01*
X162097332Y-104789833D02*
X162097332Y-105208881D01*
X162059237Y-105285072D01*
X161983046Y-105323167D01*
X161868760Y-105323167D01*
X161792570Y-105285072D01*
X161754475Y-105246976D01*
X161030665Y-105285072D02*
X161106855Y-105323167D01*
X161259236Y-105323167D01*
X161335427Y-105285072D01*
X161373522Y-105246976D01*
X161411617Y-105170786D01*
X161411617Y-104942214D01*
X161373522Y-104866024D01*
X161335427Y-104827929D01*
X161259236Y-104789833D01*
X161106855Y-104789833D01*
X161030665Y-104827929D01*
X160687808Y-105323167D02*
X160687808Y-104523167D01*
X160344951Y-105323167D02*
X160344951Y-104904119D01*
X160383046Y-104827929D01*
X160459236Y-104789833D01*
X160573522Y-104789833D01*
X160649713Y-104827929D01*
X160687808Y-104866024D01*
D15*
X144254457Y-116487581D02*
X144587791Y-116011390D01*
X144825886Y-116487581D02*
X144825886Y-115487581D01*
X144444933Y-115487581D01*
X144349695Y-115535200D01*
X144302076Y-115582819D01*
X144254457Y-115678057D01*
X144254457Y-115820914D01*
X144302076Y-115916152D01*
X144349695Y-115963771D01*
X144444933Y-116011390D01*
X144825886Y-116011390D01*
X143302076Y-116487581D02*
X143873505Y-116487581D01*
X143587791Y-116487581D02*
X143587791Y-115487581D01*
X143683029Y-115630438D01*
X143778267Y-115725676D01*
X143873505Y-115773295D01*
X142444933Y-115820914D02*
X142444933Y-116487581D01*
X142683029Y-115439962D02*
X142921124Y-116154248D01*
X142302076Y-116154248D01*
X144152857Y-111887981D02*
X144486191Y-111411790D01*
X144724286Y-111887981D02*
X144724286Y-110887981D01*
X144343333Y-110887981D01*
X144248095Y-110935600D01*
X144200476Y-110983219D01*
X144152857Y-111078457D01*
X144152857Y-111221314D01*
X144200476Y-111316552D01*
X144248095Y-111364171D01*
X144343333Y-111411790D01*
X144724286Y-111411790D01*
X143200476Y-111887981D02*
X143771905Y-111887981D01*
X143486191Y-111887981D02*
X143486191Y-110887981D01*
X143581429Y-111030838D01*
X143676667Y-111126076D01*
X143771905Y-111173695D01*
X142295714Y-110887981D02*
X142771905Y-110887981D01*
X142819524Y-111364171D01*
X142771905Y-111316552D01*
X142676667Y-111268933D01*
X142438571Y-111268933D01*
X142343333Y-111316552D01*
X142295714Y-111364171D01*
X142248095Y-111459410D01*
X142248095Y-111697505D01*
X142295714Y-111792743D01*
X142343333Y-111840362D01*
X142438571Y-111887981D01*
X142676667Y-111887981D01*
X142771905Y-111840362D01*
X142819524Y-111792743D01*
X154668457Y-116335181D02*
X155001791Y-115858990D01*
X155239886Y-116335181D02*
X155239886Y-115335181D01*
X154858933Y-115335181D01*
X154763695Y-115382800D01*
X154716076Y-115430419D01*
X154668457Y-115525657D01*
X154668457Y-115668514D01*
X154716076Y-115763752D01*
X154763695Y-115811371D01*
X154858933Y-115858990D01*
X155239886Y-115858990D01*
X153716076Y-116335181D02*
X154287505Y-116335181D01*
X154001791Y-116335181D02*
X154001791Y-115335181D01*
X154097029Y-115478038D01*
X154192267Y-115573276D01*
X154287505Y-115620895D01*
X152858933Y-115335181D02*
X153049410Y-115335181D01*
X153144648Y-115382800D01*
X153192267Y-115430419D01*
X153287505Y-115573276D01*
X153335124Y-115763752D01*
X153335124Y-116144705D01*
X153287505Y-116239943D01*
X153239886Y-116287562D01*
X153144648Y-116335181D01*
X152954171Y-116335181D01*
X152858933Y-116287562D01*
X152811314Y-116239943D01*
X152763695Y-116144705D01*
X152763695Y-115906610D01*
X152811314Y-115811371D01*
X152858933Y-115763752D01*
X152954171Y-115716133D01*
X153144648Y-115716133D01*
X153239886Y-115763752D01*
X153287505Y-115811371D01*
X153335124Y-115906610D01*
X154592257Y-111839381D02*
X154925591Y-111363190D01*
X155163686Y-111839381D02*
X155163686Y-110839381D01*
X154782733Y-110839381D01*
X154687495Y-110887000D01*
X154639876Y-110934619D01*
X154592257Y-111029857D01*
X154592257Y-111172714D01*
X154639876Y-111267952D01*
X154687495Y-111315571D01*
X154782733Y-111363190D01*
X155163686Y-111363190D01*
X153639876Y-111839381D02*
X154211305Y-111839381D01*
X153925591Y-111839381D02*
X153925591Y-110839381D01*
X154020829Y-110982238D01*
X154116067Y-111077476D01*
X154211305Y-111125095D01*
X153306543Y-110839381D02*
X152639876Y-110839381D01*
X153068448Y-111839381D01*
X152750781Y-108737543D02*
X152274590Y-108404209D01*
X152750781Y-108166114D02*
X151750781Y-108166114D01*
X151750781Y-108547067D01*
X151798400Y-108642305D01*
X151846019Y-108689924D01*
X151941257Y-108737543D01*
X152084114Y-108737543D01*
X152179352Y-108689924D01*
X152226971Y-108642305D01*
X152274590Y-108547067D01*
X152274590Y-108166114D01*
X152750781Y-109689924D02*
X152750781Y-109118495D01*
X152750781Y-109404209D02*
X151750781Y-109404209D01*
X151893638Y-109308971D01*
X151988876Y-109213733D01*
X152036495Y-109118495D01*
X152179352Y-110261352D02*
X152131733Y-110166114D01*
X152084114Y-110118495D01*
X151988876Y-110070876D01*
X151941257Y-110070876D01*
X151846019Y-110118495D01*
X151798400Y-110166114D01*
X151750781Y-110261352D01*
X151750781Y-110451829D01*
X151798400Y-110547067D01*
X151846019Y-110594686D01*
X151941257Y-110642305D01*
X151988876Y-110642305D01*
X152084114Y-110594686D01*
X152131733Y-110547067D01*
X152179352Y-110451829D01*
X152179352Y-110261352D01*
X152226971Y-110166114D01*
X152274590Y-110118495D01*
X152369829Y-110070876D01*
X152560305Y-110070876D01*
X152655543Y-110118495D01*
X152703162Y-110166114D01*
X152750781Y-110261352D01*
X152750781Y-110451829D01*
X152703162Y-110547067D01*
X152655543Y-110594686D01*
X152560305Y-110642305D01*
X152369829Y-110642305D01*
X152274590Y-110594686D01*
X152226971Y-110547067D01*
X152179352Y-110451829D01*
X146667457Y-108232581D02*
X147000791Y-107756390D01*
X147238886Y-108232581D02*
X147238886Y-107232581D01*
X146857933Y-107232581D01*
X146762695Y-107280200D01*
X146715076Y-107327819D01*
X146667457Y-107423057D01*
X146667457Y-107565914D01*
X146715076Y-107661152D01*
X146762695Y-107708771D01*
X146857933Y-107756390D01*
X147238886Y-107756390D01*
X145715076Y-108232581D02*
X146286505Y-108232581D01*
X146000791Y-108232581D02*
X146000791Y-107232581D01*
X146096029Y-107375438D01*
X146191267Y-107470676D01*
X146286505Y-107518295D01*
X145238886Y-108232581D02*
X145048410Y-108232581D01*
X144953171Y-108184962D01*
X144905552Y-108137343D01*
X144810314Y-107994486D01*
X144762695Y-107804010D01*
X144762695Y-107423057D01*
X144810314Y-107327819D01*
X144857933Y-107280200D01*
X144953171Y-107232581D01*
X145143648Y-107232581D01*
X145238886Y-107280200D01*
X145286505Y-107327819D01*
X145334124Y-107423057D01*
X145334124Y-107661152D01*
X145286505Y-107756390D01*
X145238886Y-107804010D01*
X145143648Y-107851629D01*
X144953171Y-107851629D01*
X144857933Y-107804010D01*
X144810314Y-107756390D01*
X144762695Y-107661152D01*
X150299657Y-110289981D02*
X150632991Y-109813790D01*
X150871086Y-110289981D02*
X150871086Y-109289981D01*
X150490133Y-109289981D01*
X150394895Y-109337600D01*
X150347276Y-109385219D01*
X150299657Y-109480457D01*
X150299657Y-109623314D01*
X150347276Y-109718552D01*
X150394895Y-109766171D01*
X150490133Y-109813790D01*
X150871086Y-109813790D01*
X149918705Y-109385219D02*
X149871086Y-109337600D01*
X149775848Y-109289981D01*
X149537752Y-109289981D01*
X149442514Y-109337600D01*
X149394895Y-109385219D01*
X149347276Y-109480457D01*
X149347276Y-109575695D01*
X149394895Y-109718552D01*
X149966324Y-110289981D01*
X149347276Y-110289981D01*
X148728229Y-109289981D02*
X148632990Y-109289981D01*
X148537752Y-109337600D01*
X148490133Y-109385219D01*
X148442514Y-109480457D01*
X148394895Y-109670933D01*
X148394895Y-109909029D01*
X148442514Y-110099505D01*
X148490133Y-110194743D01*
X148537752Y-110242362D01*
X148632990Y-110289981D01*
X148728229Y-110289981D01*
X148823467Y-110242362D01*
X148871086Y-110194743D01*
X148918705Y-110099505D01*
X148966324Y-109909029D01*
X148966324Y-109670933D01*
X148918705Y-109480457D01*
X148871086Y-109385219D01*
X148823467Y-109337600D01*
X148728229Y-109289981D01*
D18*
X160068381Y-124077324D02*
X160068381Y-125105419D01*
X160007905Y-125226371D01*
X159947429Y-125286848D01*
X159826476Y-125347324D01*
X159584572Y-125347324D01*
X159463619Y-125286848D01*
X159403143Y-125226371D01*
X159342667Y-125105419D01*
X159342667Y-124077324D01*
X158798381Y-125286848D02*
X158616953Y-125347324D01*
X158314572Y-125347324D01*
X158193619Y-125286848D01*
X158133143Y-125226371D01*
X158072667Y-125105419D01*
X158072667Y-124984467D01*
X158133143Y-124863514D01*
X158193619Y-124803038D01*
X158314572Y-124742562D01*
X158556476Y-124682086D01*
X158677429Y-124621610D01*
X158737905Y-124561133D01*
X158798381Y-124440181D01*
X158798381Y-124319229D01*
X158737905Y-124198276D01*
X158677429Y-124137800D01*
X158556476Y-124077324D01*
X158254096Y-124077324D01*
X158072667Y-124137800D01*
X158435524Y-123895895D02*
X158435524Y-125528752D01*
X157588857Y-124198276D02*
X157528381Y-124137800D01*
X157407429Y-124077324D01*
X157105048Y-124077324D01*
X156984095Y-124137800D01*
X156923619Y-124198276D01*
X156863143Y-124319229D01*
X156863143Y-124440181D01*
X156923619Y-124621610D01*
X157649333Y-125347324D01*
X156863143Y-125347324D01*
D19*
X146638772Y-123900089D02*
X146605510Y-123933351D01*
X146572248Y-123999874D01*
X146572248Y-124166184D01*
X146605510Y-124232708D01*
X146638772Y-124265970D01*
X146705296Y-124299231D01*
X146771820Y-124299231D01*
X146871605Y-124265970D01*
X147270748Y-123866827D01*
X147270748Y-124299231D01*
X161240748Y-123105552D02*
X161240748Y-122706410D01*
X161240748Y-122905981D02*
X160542248Y-122905981D01*
X160642034Y-122839457D01*
X160708558Y-122772933D01*
X160741820Y-122706410D01*
X160775081Y-123704267D02*
X161240748Y-123704267D01*
X160508986Y-123537957D02*
X161007915Y-123371648D01*
X161007915Y-123804052D01*
X161304248Y-119806092D02*
X161304248Y-119406950D01*
X161304248Y-119606521D02*
X160605748Y-119606521D01*
X160705534Y-119539997D01*
X160772058Y-119473473D01*
X160805320Y-119406950D01*
X160605748Y-120038926D02*
X160605748Y-120471330D01*
X160871843Y-120238497D01*
X160871843Y-120338283D01*
X160905105Y-120404807D01*
X160938367Y-120438069D01*
X161004891Y-120471330D01*
X161171200Y-120471330D01*
X161237724Y-120438069D01*
X161270986Y-120404807D01*
X161304248Y-120338283D01*
X161304248Y-120138711D01*
X161270986Y-120072188D01*
X161237724Y-120038926D01*
%LPC*%
D20*
X144094200Y-104153080D03*
X144094200Y-103352980D03*
X144094200Y-102552880D03*
X144094200Y-101752780D03*
X144094200Y-100955220D03*
X144094200Y-100155120D03*
X144094200Y-99355020D03*
X144094200Y-98554920D03*
D21*
X145587720Y-97061400D03*
X146387820Y-97061400D03*
X147187920Y-97061400D03*
X147988020Y-97061400D03*
X148785580Y-97061400D03*
X149585680Y-97061400D03*
X150385780Y-97061400D03*
X151185880Y-97061400D03*
D20*
X152676860Y-98554920D03*
X152676860Y-99355020D03*
X152676860Y-100155120D03*
X152676860Y-100955220D03*
X152676860Y-101752780D03*
X152676860Y-102552880D03*
X152676860Y-103352980D03*
X152676860Y-104153080D03*
D21*
X151185880Y-105644060D03*
X150385780Y-105644060D03*
X149585680Y-105644060D03*
X148785580Y-105644060D03*
X147988020Y-105644060D03*
X147187920Y-105644060D03*
X146387820Y-105644060D03*
X145587720Y-105644060D03*
D22*
X146644400Y-109278800D03*
X144744400Y-109278800D03*
D23*
X136474200Y-120218400D03*
X136474200Y-122418400D03*
X156667200Y-91278000D03*
X156667200Y-89078000D03*
D24*
X160510220Y-87411940D03*
X158513780Y-87411940D03*
X159512000Y-84816060D03*
D25*
X156870400Y-85062400D03*
X156870400Y-86962400D03*
D26*
X143129000Y-120071260D03*
X143129000Y-122870340D03*
X140360400Y-120122060D03*
X140360400Y-122921140D03*
D27*
X158513600Y-89060400D03*
X160713600Y-89060400D03*
X133688000Y-115070000D03*
X131488000Y-115070000D03*
X137752000Y-115070000D03*
X135552000Y-115070000D03*
X161374000Y-115070000D03*
X159174000Y-115070000D03*
X165438000Y-115070000D03*
X163238000Y-115070000D03*
D28*
X146839940Y-87409400D03*
X146839940Y-88410160D03*
X146839940Y-89410920D03*
X146839940Y-90409140D03*
X146839940Y-91407360D03*
X146839940Y-92408120D03*
D29*
X149062440Y-86111460D03*
X149062440Y-93708600D03*
D25*
X138226800Y-120368400D03*
X138226800Y-122268400D03*
D30*
X130500000Y-113500000D03*
X138500000Y-113500000D03*
X158500000Y-113500000D03*
X166500000Y-113500000D03*
D22*
X154366000Y-118067200D03*
X152466000Y-118067200D03*
D31*
X150641600Y-117910400D03*
X149991600Y-117910400D03*
X149341600Y-117910400D03*
X148691600Y-117910400D03*
X148041600Y-117910400D03*
X147391600Y-117910400D03*
X146741600Y-117910400D03*
X146741600Y-111010400D03*
X147391600Y-111010400D03*
X148041600Y-111010400D03*
X148691600Y-111010400D03*
X149341600Y-111010400D03*
X149991600Y-111010400D03*
X150641600Y-111010400D03*
D32*
X144260000Y-114587400D03*
X142760000Y-114587400D03*
X144260000Y-112885600D03*
X142760000Y-112885600D03*
X153174000Y-114460400D03*
X154674000Y-114460400D03*
X153123200Y-112911000D03*
X154623200Y-112911000D03*
D33*
X150876000Y-107436600D03*
X150876000Y-108936600D03*
X148361400Y-107436600D03*
X148361400Y-108936600D03*
X149606000Y-107436600D03*
X149606000Y-108936600D03*
D34*
X146970000Y-120470000D03*
X146970000Y-122468980D03*
X148968980Y-120470000D03*
X148968980Y-122468980D03*
X150967960Y-120470000D03*
X150967960Y-122468980D03*
X152969480Y-120470000D03*
X152969480Y-122468980D03*
X154968460Y-120470000D03*
X154968460Y-122468980D03*
X156969980Y-120470000D03*
X156969980Y-122468980D03*
X158968960Y-120470000D03*
X158968960Y-122468980D03*
M02*
