G04 #@! TF.FileFunction,Copper,L1,Top,Signal*
%FSLAX46Y46*%
G04 Gerber Fmt 4.6, Leading zero omitted, Abs format (unit mm)*
G04 Created by KiCad (PCBNEW 4.0.6) date 04/02/17 18:06:46*
%MOMM*%
%LPD*%
G01*
G04 APERTURE LIST*
%ADD10C,0.100000*%
%ADD11R,1.200000X0.900000*%
%ADD12R,1.549400X0.599440*%
%ADD13R,1.798320X1.198880*%
%ADD14C,1.305560*%
%ADD15C,1.422400*%
%ADD16R,0.800000X0.800000*%
%ADD17C,15.500000*%
%ADD18C,0.685800*%
%ADD19C,0.800000*%
%ADD20C,0.406400*%
%ADD21C,0.203200*%
G04 APERTURE END LIST*
D10*
D11*
X156676000Y-92213600D03*
X154476000Y-92213600D03*
D12*
X151127460Y-87630000D03*
X151127460Y-88630760D03*
X151127460Y-89631520D03*
X151127460Y-90629740D03*
X151127460Y-91627960D03*
X151127460Y-92628720D03*
D13*
X148904960Y-86332060D03*
X148904960Y-93929200D03*
D12*
X143512540Y-92710000D03*
X143512540Y-91709240D03*
X143512540Y-90708480D03*
X143512540Y-89710260D03*
X143512540Y-88712040D03*
X143512540Y-87711280D03*
D13*
X145735040Y-94007940D03*
X145735040Y-86410800D03*
D14*
X146970000Y-120470000D03*
X146970000Y-122468980D03*
X148968980Y-120470000D03*
X148968980Y-122468980D03*
X150967960Y-120470000D03*
X150967960Y-122468980D03*
X152969480Y-120470000D03*
X152969480Y-122468980D03*
X154968460Y-120470000D03*
X154968460Y-122468980D03*
X156969980Y-120470000D03*
X156969980Y-122468980D03*
X158968960Y-120470000D03*
X158968960Y-122468980D03*
D15*
X160021000Y-85863600D03*
D16*
X131534000Y-115070000D03*
X133134000Y-115070000D03*
X135852000Y-115070000D03*
X137452000Y-115070000D03*
X159220000Y-115070000D03*
X160820000Y-115070000D03*
X163792000Y-115070000D03*
X165392000Y-115070000D03*
X158331000Y-92210000D03*
X159931000Y-92210000D03*
D17*
X134600000Y-105100000D03*
X162200000Y-105050000D03*
D18*
X164338000Y-92456000D03*
D19*
X151257000Y-113038000D03*
X156210000Y-113038000D03*
X144907000Y-122436000D03*
X148209000Y-117483000D03*
X141224000Y-116797200D03*
X162763200Y-118664100D03*
X159308800Y-118511700D03*
X152400000Y-109228000D03*
X151130000Y-105926000D03*
X156845000Y-90805000D03*
D18*
X145542000Y-89408000D03*
D19*
X152476200Y-88692100D03*
X153339800Y-85326600D03*
X141808200Y-92705300D03*
X153111200Y-124315600D03*
X141706600Y-90673300D03*
X153454100Y-87511000D03*
D18*
X146227800Y-91486100D03*
X147764500Y-99512500D03*
X142582900Y-99207700D03*
X137439400Y-96375600D03*
X145465800Y-95423100D03*
X145491200Y-102738300D03*
X149987000Y-111133000D03*
X151003000Y-118880000D03*
X147993100Y-107056300D03*
X150444200Y-103093900D03*
X149529800Y-108224700D03*
X156591000Y-118499000D03*
X150329900Y-108694600D03*
X166751000Y-96655000D03*
X162052000Y-89670000D03*
X160020000Y-96782000D03*
X150749000Y-106942000D03*
X147447000Y-105164000D03*
X155448000Y-98814000D03*
X144399000Y-110498000D03*
X163804600Y-93492700D03*
X157911800Y-93530800D03*
X144399000Y-109355000D03*
X142354300Y-101455600D03*
X145542000Y-92298900D03*
X163207700Y-90305000D03*
X152908000Y-98814000D03*
X149352000Y-103220900D03*
X146431000Y-107323000D03*
X162788600Y-92972000D03*
X154393900Y-95448500D03*
X150431500Y-104148000D03*
X151638000Y-114308000D03*
X144399000Y-116340000D03*
X145186400Y-103601900D03*
X147510500Y-97861500D03*
X139153900Y-89593800D03*
X146380200Y-99880800D03*
X138099800Y-95689800D03*
X150698200Y-94648400D03*
X151815800Y-94546800D03*
X152920700Y-94292800D03*
X142049500Y-96680400D03*
X145542000Y-106180000D03*
X146558000Y-112149000D03*
X156972000Y-113927000D03*
X141986000Y-111641000D03*
X131356100Y-116390800D03*
X137668000Y-116378100D03*
X159029400Y-116581300D03*
X166192200Y-116581300D03*
X152019000Y-110244000D03*
X151549100Y-107577000D03*
X153670000Y-108847000D03*
X156083000Y-111768000D03*
D20*
X163068000Y-91448000D02*
X164084000Y-91448000D01*
X163068000Y-91448000D02*
X160693000Y-91448000D01*
X160693000Y-91448000D02*
X159931000Y-92210000D01*
X164338000Y-91702000D02*
X164338000Y-92456000D01*
X164084000Y-91448000D02*
X164338000Y-91702000D01*
X151257000Y-113038000D02*
X152654000Y-113038000D01*
X152654000Y-113038000D02*
X156210000Y-113038000D01*
X144932400Y-121039000D02*
X144932400Y-122410600D01*
X144932400Y-122410600D02*
X144907000Y-122436000D01*
X147193000Y-118499000D02*
X146735800Y-118499000D01*
X148209000Y-117483000D02*
X147193000Y-118499000D01*
X141224000Y-116848000D02*
X141224000Y-116797200D01*
X147066000Y-118499000D02*
X146735800Y-118499000D01*
X144932400Y-121064400D02*
X144932400Y-121039000D01*
X144932400Y-121039000D02*
X144932400Y-120302400D01*
X146735800Y-118499000D02*
X144932400Y-120302400D01*
X141224000Y-116848000D02*
X141224000Y-119769000D01*
X144272000Y-120404000D02*
X144932400Y-121064400D01*
X141859000Y-120404000D02*
X144272000Y-120404000D01*
X141224000Y-119769000D02*
X141859000Y-120404000D01*
X162763200Y-118664100D02*
X162610800Y-118511700D01*
X162610800Y-118511700D02*
X159308800Y-118511700D01*
X152400000Y-109101000D02*
X152400000Y-109228000D01*
X151130000Y-105926000D02*
X152400000Y-107196000D01*
X152400000Y-107196000D02*
X152400000Y-109101000D01*
X156845000Y-90805000D02*
X158496000Y-90805000D01*
X158496000Y-90805000D02*
X159893000Y-92202000D01*
D21*
X143512540Y-91709240D02*
X143510000Y-91694000D01*
X143510000Y-91694000D02*
X144399000Y-91694000D01*
X144399000Y-91694000D02*
X145542000Y-90551000D01*
X145542000Y-90551000D02*
X145542000Y-89408000D01*
X159893000Y-92202000D02*
X159931000Y-92210000D01*
D20*
X152476200Y-88692100D02*
X154178000Y-88692100D01*
D21*
X152414860Y-88630760D02*
X152476200Y-88692100D01*
X151127460Y-88630760D02*
X152414860Y-88630760D01*
D20*
X154711400Y-86698200D02*
X153339800Y-85326600D01*
X154711400Y-88158700D02*
X154711400Y-86698200D01*
X154178000Y-88692100D02*
X154711400Y-88158700D01*
D21*
X143512540Y-92710000D02*
X143512540Y-91709240D01*
X141812900Y-92710000D02*
X143512540Y-92710000D01*
X141808200Y-92705300D02*
X141812900Y-92710000D01*
D20*
X149034500Y-124366400D02*
X153060400Y-124366400D01*
X149034500Y-124366400D02*
X148755100Y-124087000D01*
X148755100Y-124087000D02*
X148249020Y-124087000D01*
X146661000Y-122498980D02*
X148249020Y-124087000D01*
X153060400Y-124366400D02*
X153111200Y-124315600D01*
X146661000Y-122500900D02*
X146661000Y-122498980D01*
X141741780Y-90708480D02*
X143512540Y-90708480D01*
X141706600Y-90673300D02*
X141741780Y-90708480D01*
X153335100Y-87630000D02*
X151127460Y-87630000D01*
X153454100Y-87511000D02*
X153335100Y-87630000D01*
D21*
X143512540Y-87711280D02*
X145272380Y-87711280D01*
X146227800Y-88666700D02*
X146227800Y-91486100D01*
X145272380Y-87711280D02*
X146227800Y-88666700D01*
X142582900Y-99207700D02*
X142582900Y-99220400D01*
X146494500Y-100782500D02*
X147764500Y-99512500D01*
X144145000Y-100782500D02*
X146494500Y-100782500D01*
X142582900Y-99220400D02*
X144145000Y-100782500D01*
X137439400Y-96375600D02*
X138010900Y-96375600D01*
X142354300Y-98979100D02*
X142582900Y-99207700D01*
X140614400Y-98979100D02*
X142354300Y-98979100D01*
X138010900Y-96375600D02*
X140614400Y-98979100D01*
X147320000Y-94597600D02*
X147320000Y-94864300D01*
X146761200Y-95423100D02*
X145465800Y-95423100D01*
X147320000Y-94864300D02*
X146761200Y-95423100D01*
X149885400Y-90629740D02*
X149586060Y-90629740D01*
X147320000Y-92895800D02*
X147320000Y-94597600D01*
X149586060Y-90629740D02*
X147320000Y-92895800D01*
X151127460Y-90629740D02*
X149885400Y-90629740D01*
X149885400Y-90629740D02*
X149827360Y-90629740D01*
X145491200Y-102738300D02*
X144665700Y-102738300D01*
X143129000Y-111869600D02*
X142811500Y-112187100D01*
X143129000Y-104275000D02*
X143129000Y-111869600D01*
X144665700Y-102738300D02*
X143129000Y-104275000D01*
X135852000Y-114333300D02*
X135852000Y-115070000D01*
X136474200Y-113711100D02*
X137731500Y-113711100D01*
X135852000Y-114333300D02*
X136474200Y-113711100D01*
X141287500Y-113711100D02*
X137731500Y-113711100D01*
X142811500Y-112187100D02*
X141287500Y-113711100D01*
X133134000Y-115070000D02*
X135852000Y-115070000D01*
X152527000Y-116848000D02*
X154940000Y-116848000D01*
X160820000Y-115070000D02*
X160820000Y-116505200D01*
X160820000Y-116505200D02*
X160566100Y-116759100D01*
X156591000Y-116848000D02*
X157861000Y-116848000D01*
X157861000Y-116848000D02*
X158496000Y-117483000D01*
X158496000Y-117483000D02*
X159842200Y-117483000D01*
X159842200Y-117483000D02*
X160566100Y-116759100D01*
X154940000Y-116848000D02*
X156591000Y-116848000D01*
X149606000Y-111514000D02*
X149606000Y-113927000D01*
X149606000Y-113927000D02*
X152527000Y-116848000D01*
X149987000Y-111133000D02*
X149606000Y-111514000D01*
X160820000Y-115070000D02*
X163792000Y-115070000D01*
X147307300Y-115184300D02*
X151003000Y-118880000D01*
X147256500Y-107564300D02*
X147993100Y-107056300D01*
X147256500Y-115184300D02*
X147256500Y-107564300D01*
X153073100Y-118854600D02*
X153339800Y-118854600D01*
X148678900Y-106268900D02*
X148678900Y-107500800D01*
X147955000Y-108224700D02*
X148678900Y-107500800D01*
X147955000Y-114790600D02*
X147955000Y-108224700D01*
X148869400Y-115705000D02*
X147955000Y-114790600D01*
X148869400Y-115793900D02*
X148869400Y-115705000D01*
X151930100Y-118854600D02*
X148869400Y-115793900D01*
X153073100Y-118854600D02*
X151930100Y-118854600D01*
X155971800Y-121470800D02*
X156969980Y-122468980D01*
X154432000Y-121470800D02*
X155971800Y-121470800D01*
X153974800Y-121013600D02*
X154432000Y-121470800D01*
X153974800Y-119489600D02*
X153974800Y-121013600D01*
X153339800Y-118854600D02*
X153974800Y-119489600D01*
X149440900Y-105113200D02*
X149440900Y-104097200D01*
X148678900Y-105875200D02*
X149440900Y-105113200D01*
X148678900Y-106268900D02*
X148678900Y-105875200D01*
X149440900Y-104097200D02*
X150444200Y-103093900D01*
X148678900Y-106268900D02*
X148678900Y-106091100D01*
X149561550Y-115660550D02*
X149561550Y-115609750D01*
X148551900Y-109202600D02*
X149529800Y-108224700D01*
X148551900Y-114600100D02*
X148551900Y-109202600D01*
X149561550Y-115609750D02*
X148551900Y-114600100D01*
X154659460Y-120500000D02*
X154659460Y-119145560D01*
X152298400Y-118397400D02*
X149561550Y-115660550D01*
X149561550Y-115660550D02*
X149529800Y-115628800D01*
X153911300Y-118397400D02*
X152298400Y-118397400D01*
X154659460Y-119145560D02*
X153911300Y-118397400D01*
X154051000Y-117800500D02*
X155892500Y-117800500D01*
X155892500Y-117800500D02*
X156591000Y-118499000D01*
X150336250Y-115685950D02*
X150336250Y-115558950D01*
X149110700Y-109913800D02*
X150329900Y-108694600D01*
X149110700Y-114333400D02*
X149110700Y-109913800D01*
X150336250Y-115558950D02*
X149110700Y-114333400D01*
X152450800Y-117800500D02*
X150336250Y-115685950D01*
X150336250Y-115685950D02*
X150329900Y-115679600D01*
X154178000Y-117800500D02*
X154051000Y-117800500D01*
X154051000Y-117800500D02*
X152450800Y-117800500D01*
X166751000Y-92464000D02*
X166751000Y-96655000D01*
X163830000Y-89543000D02*
X166751000Y-92464000D01*
X162179000Y-89543000D02*
X163830000Y-89543000D01*
X162052000Y-89670000D02*
X162179000Y-89543000D01*
X156210000Y-98687000D02*
X156464000Y-98687000D01*
X156210000Y-98687000D02*
X156210000Y-99068000D01*
X156210000Y-99068000D02*
X155448000Y-99830000D01*
X153911300Y-102116000D02*
X153911300Y-100731700D01*
X154051000Y-100592000D02*
X153911300Y-100731700D01*
X154813000Y-100592000D02*
X154051000Y-100592000D01*
X155448000Y-99957000D02*
X154813000Y-100592000D01*
X155448000Y-99830000D02*
X155448000Y-99957000D01*
X158369000Y-96782000D02*
X160020000Y-96782000D01*
X156464000Y-98687000D02*
X158369000Y-96782000D01*
X150368000Y-106561000D02*
X150749000Y-106942000D01*
X150368000Y-105672000D02*
X150749000Y-105291000D01*
X150749000Y-105278300D02*
X150749000Y-105291000D01*
X150368000Y-106561000D02*
X150368000Y-105672000D01*
X153911300Y-102116000D02*
X150749000Y-105278300D01*
X150749000Y-105278300D02*
X150622000Y-105405300D01*
X153924000Y-102116000D02*
X153911300Y-102116000D01*
X147612100Y-103589200D02*
X147612100Y-104998900D01*
X154235150Y-98871150D02*
X152920700Y-100185600D01*
X152920700Y-100134800D02*
X152920700Y-100185600D01*
X152476200Y-100579300D02*
X152920700Y-100134800D01*
X152476200Y-101366700D02*
X152476200Y-100579300D01*
X152146000Y-101696900D02*
X152476200Y-101366700D01*
X148767800Y-102433500D02*
X148272500Y-102928800D01*
X151384000Y-102433500D02*
X148767800Y-102433500D01*
X152120600Y-101696900D02*
X151384000Y-102433500D01*
X152146000Y-101696900D02*
X152120600Y-101696900D01*
X147612100Y-103589200D02*
X148272500Y-102928800D01*
X147612100Y-104998900D02*
X147447000Y-105164000D01*
X154235150Y-98871150D02*
X155390850Y-98871150D01*
X155390850Y-98871150D02*
X155448000Y-98814000D01*
X154235150Y-98871150D02*
X154266900Y-98839400D01*
X144538700Y-108351700D02*
X145161000Y-108974000D01*
X145161000Y-108974000D02*
X145161000Y-109736000D01*
X145161000Y-109736000D02*
X144399000Y-110498000D01*
X151127460Y-91627960D02*
X149946740Y-91627960D01*
X146659598Y-103894002D02*
X144538700Y-106014900D01*
X146659598Y-101989002D02*
X146659598Y-103894002D01*
X147066000Y-101582600D02*
X146659598Y-101989002D01*
X147066000Y-101481000D02*
X147066000Y-101582600D01*
X153797000Y-94750000D02*
X147066000Y-101481000D01*
X153797000Y-93403800D02*
X153797000Y-94750000D01*
X153631900Y-93238700D02*
X153797000Y-93403800D01*
X152895300Y-93238700D02*
X153631900Y-93238700D01*
X152501600Y-93632400D02*
X152895300Y-93238700D01*
X150622000Y-93632400D02*
X152501600Y-93632400D01*
X149453600Y-92464000D02*
X150622000Y-93632400D01*
X149453600Y-92121100D02*
X149453600Y-92464000D01*
X149946740Y-91627960D02*
X149453600Y-92121100D01*
X144538700Y-106014900D02*
X144538700Y-108351700D01*
X157911800Y-93530800D02*
X156108400Y-93530800D01*
X152308940Y-91627960D02*
X151127460Y-91627960D01*
X152793700Y-91143200D02*
X152308940Y-91627960D01*
X155079700Y-91143200D02*
X152793700Y-91143200D01*
X155524200Y-91587700D02*
X155079700Y-91143200D01*
X155524200Y-92946600D02*
X155524200Y-91587700D01*
X156108400Y-93530800D02*
X155524200Y-92946600D01*
X163804600Y-93492700D02*
X163677600Y-93365700D01*
X163677600Y-93365700D02*
X163677600Y-92832300D01*
X163677600Y-92832300D02*
X163042600Y-92197300D01*
X163042600Y-92197300D02*
X161925000Y-92197300D01*
X161925000Y-92197300D02*
X161594800Y-92527500D01*
X161594800Y-92527500D02*
X161594800Y-94419800D01*
X161594800Y-94419800D02*
X161150300Y-94864300D01*
X161150300Y-94864300D02*
X159245300Y-94864300D01*
X159245300Y-94864300D02*
X157911800Y-93530800D01*
X144081500Y-105011600D02*
X144081500Y-109037500D01*
X146227800Y-103513000D02*
X146227800Y-103563800D01*
X144640300Y-104452800D02*
X144081500Y-105011600D01*
X145338800Y-104452800D02*
X144640300Y-104452800D01*
X146227800Y-103563800D02*
X145338800Y-104452800D01*
X144081500Y-109037500D02*
X144399000Y-109355000D01*
X145542000Y-101798500D02*
X146227800Y-102484300D01*
X146227800Y-102484300D02*
X146227800Y-103513000D01*
X146227800Y-103513000D02*
X146227800Y-103551100D01*
X142697200Y-101798500D02*
X144322800Y-101798500D01*
X142354300Y-101455600D02*
X142697200Y-101798500D01*
X144322800Y-101798500D02*
X145542000Y-101798500D01*
X151127460Y-89631520D02*
X149644480Y-89631520D01*
X146977100Y-92298900D02*
X145542000Y-92298900D01*
X149644480Y-89631520D02*
X146977100Y-92298900D01*
X158419420Y-89631520D02*
X151127460Y-89631520D01*
X159219900Y-90432000D02*
X158419420Y-89631520D01*
X163080700Y-90432000D02*
X159219900Y-90432000D01*
X163207700Y-90305000D02*
X163080700Y-90432000D01*
X154393900Y-95677100D02*
X152908000Y-97163000D01*
X152908000Y-97163000D02*
X152908000Y-98814000D01*
X154393900Y-95448500D02*
X154393900Y-95677100D01*
X148310600Y-105659300D02*
X148094700Y-105659300D01*
X148310600Y-105659300D02*
X148310600Y-103678100D01*
X148894800Y-103678100D02*
X149352000Y-103220900D01*
X148310600Y-103678100D02*
X148894800Y-103678100D01*
X148094700Y-105659300D02*
X146431000Y-107323000D01*
X162788600Y-92972000D02*
X162775900Y-92984700D01*
X162775900Y-92984700D02*
X162775900Y-95004000D01*
X162775900Y-95004000D02*
X162331400Y-95448500D01*
X162331400Y-95448500D02*
X154393900Y-95448500D01*
X154476000Y-92213600D02*
X154476000Y-95366400D01*
X154476000Y-95366400D02*
X154393900Y-95448500D01*
X154476000Y-92213600D02*
X153031400Y-92213600D01*
X152616280Y-92628720D02*
X151127460Y-92628720D01*
X153031400Y-92213600D02*
X152616280Y-92628720D01*
X151015700Y-108339000D02*
X151015700Y-111501300D01*
X149707600Y-105697400D02*
X150063200Y-105341800D01*
X149707600Y-107030900D02*
X149707600Y-105697400D01*
X151009350Y-108332650D02*
X149707600Y-107030900D01*
X151015700Y-108339000D02*
X151009350Y-108332650D01*
X150431500Y-104148000D02*
X150063200Y-104516300D01*
X150063200Y-104516300D02*
X150063200Y-105341800D01*
X150876000Y-114308000D02*
X151638000Y-114308000D01*
X150241000Y-113673000D02*
X150876000Y-114308000D01*
X150241000Y-112276000D02*
X150241000Y-113673000D01*
X151015700Y-111501300D02*
X150241000Y-112276000D01*
X144399000Y-116340000D02*
X143662400Y-115603400D01*
X143662400Y-115603400D02*
X143662400Y-110879000D01*
X145186400Y-103601900D02*
X144640300Y-103601900D01*
X143662400Y-104579800D02*
X143662400Y-110879000D01*
X144640300Y-103601900D02*
X143662400Y-104579800D01*
X147434300Y-97658300D02*
X147434300Y-97785300D01*
X147434300Y-97785300D02*
X147510500Y-97861500D01*
X139153900Y-93505400D02*
X139153900Y-89593800D01*
X140843000Y-95194500D02*
X139153900Y-93505400D01*
X141490700Y-95194500D02*
X140843000Y-95194500D01*
X143954500Y-97658300D02*
X141490700Y-95194500D01*
X147434300Y-97658300D02*
X147421600Y-97671000D01*
X143954500Y-97658300D02*
X147434300Y-97658300D01*
X143357600Y-98915600D02*
X145707100Y-98915600D01*
X146380200Y-99588700D02*
X146380200Y-99880800D01*
X145707100Y-98915600D02*
X146380200Y-99588700D01*
X138099800Y-95689800D02*
X140843000Y-98433000D01*
X140843000Y-98433000D02*
X142875000Y-98433000D01*
X142875000Y-98433000D02*
X143357600Y-98915600D01*
X145116550Y-96750250D02*
X148697950Y-96750250D01*
X149110700Y-96337500D02*
X149110700Y-96235900D01*
X148697950Y-96750250D02*
X149110700Y-96337500D01*
X145116550Y-96750250D02*
X141998700Y-93632400D01*
X141998700Y-93632400D02*
X140906500Y-93632400D01*
X140906500Y-93632400D02*
X140411200Y-93137100D01*
X140411200Y-93137100D02*
X140411200Y-90571700D01*
X140411200Y-90571700D02*
X141272640Y-89710260D01*
X143512540Y-89710260D02*
X141272640Y-89710260D01*
X149110700Y-96235900D02*
X150698200Y-94648400D01*
X144411700Y-97175700D02*
X149136100Y-97175700D01*
X144411700Y-97175700D02*
X141439900Y-94203900D01*
X141439900Y-94203900D02*
X140804900Y-94203900D01*
X140804900Y-94203900D02*
X139827000Y-93226000D01*
X139827000Y-93226000D02*
X139827000Y-90343100D01*
X139827000Y-90343100D02*
X141458060Y-88712040D01*
X143512540Y-88712040D02*
X141458060Y-88712040D01*
X151765000Y-94546800D02*
X151815800Y-94546800D01*
X149136100Y-97175700D02*
X151765000Y-94546800D01*
X143687800Y-98318700D02*
X146697700Y-98318700D01*
X152920700Y-94432500D02*
X152920700Y-94292800D01*
X148793200Y-98560000D02*
X152920700Y-94432500D01*
X146939000Y-98560000D02*
X148793200Y-98560000D01*
X146697700Y-98318700D02*
X146939000Y-98560000D01*
X142049500Y-96680400D02*
X143687800Y-98318700D01*
X143687800Y-98318700D02*
X143700500Y-98331400D01*
X145542000Y-107831000D02*
X145542000Y-106180000D01*
X145796000Y-108085000D02*
X145542000Y-107831000D01*
X145796000Y-111387000D02*
X145796000Y-108085000D01*
X146558000Y-112149000D02*
X145796000Y-111387000D01*
D20*
X159258000Y-113038000D02*
X162200000Y-110096000D01*
X157861000Y-113038000D02*
X159258000Y-113038000D01*
X156972000Y-113927000D02*
X157861000Y-113038000D01*
X162200000Y-110096000D02*
X162200000Y-105050000D01*
X162200000Y-109207000D02*
X162200000Y-105050000D01*
X141986000Y-111641000D02*
X135445000Y-105100000D01*
X135445000Y-105100000D02*
X134600000Y-105100000D01*
X135978900Y-104910000D02*
X134620000Y-104910000D01*
D21*
X131534000Y-116212900D02*
X131534000Y-115070000D01*
X131356100Y-116390800D02*
X131534000Y-116212900D01*
X137452000Y-115070000D02*
X137452000Y-116162100D01*
X137452000Y-116162100D02*
X137668000Y-116378100D01*
X159220000Y-116390700D02*
X159220000Y-115070000D01*
X159029400Y-116581300D02*
X159220000Y-116390700D01*
X165392000Y-115070000D02*
X165392000Y-115781100D01*
X165392000Y-115781100D02*
X166192200Y-116581300D01*
X156676000Y-92213600D02*
X158327400Y-92213600D01*
X158327400Y-92213600D02*
X158331000Y-92210000D01*
X151549100Y-109101000D02*
X151549100Y-109774100D01*
X151549100Y-109774100D02*
X152019000Y-110244000D01*
X151549100Y-109202600D02*
X151549100Y-109101000D01*
X151549100Y-109101000D02*
X151549100Y-107577000D01*
X154559000Y-109736000D02*
X153670000Y-108847000D01*
X154559000Y-110244000D02*
X154559000Y-109736000D01*
X156083000Y-111768000D02*
X154559000Y-110244000D01*
M02*
