M48
;DRILL file {KiCad 4.0.6} date 08/01/17 19:33:22
;FORMAT={-:-/ absolute / inch / decimal}
FMAT,2
INCH,TZ
T1C0.013
T2C0.016
T3C0.031
T4C0.059
%
G90
G05
M72
T1
X5.116Y-4.5433
X5.457Y-4.5283
X5.525Y-4.3963
X5.696Y-4.2223
X5.734Y-4.0723
X5.761Y-3.7543
X5.764Y-4.0473
X5.798Y-3.9063
X5.798Y-4.5063
X5.807Y-4.5733
X5.81Y-4.4323
X5.837Y-3.8873
X5.845Y-3.5613
X5.846Y-4.5783
X5.853Y-4.0713
X5.858Y-3.7593
X5.885Y-4.0463
X5.893Y-3.7393
X5.932Y-3.6483
X5.937Y-3.5723
X5.94Y-3.5193
X5.956Y-3.9663
X5.961Y-3.4723
X5.964Y-4.0703
X5.992Y-3.4143
X5.998Y-4.2723
X6.003Y-4.1303
X6.056Y-4.3803
X6.071Y-3.8733
X6.146Y-3.5883
X6.167Y-4.4073
X6.211Y-4.6553
X6.223Y-4.5313
X6.574Y-4.5373
T2
X5.318Y-4.6563
X5.438Y-4.8593
X5.56Y-4.6193
X5.678Y-4.6293
X5.714Y-4.3633
X5.73Y-3.9103
X5.763Y-3.9893
X5.842Y-3.4503
X5.881Y-3.9483
X5.947Y-3.3993
X5.954Y-3.9123
X5.956Y-4.0163
X5.964Y-4.2303
X6.004Y-4.5933
X6.219Y-3.6793
X6.223Y-3.3823
X6.277Y-3.3853
T3
X5.7862Y-4.7429
X5.7862Y-4.8216
X5.8649Y-4.7429
X5.8649Y-4.8216
X5.9436Y-4.7429
X5.9436Y-4.8216
X6.0224Y-4.7429
X6.0224Y-4.8216
X6.1011Y-4.7429
X6.1011Y-4.8216
X6.1799Y-4.7429
X6.1799Y-4.8216
X6.2586Y-4.7429
X6.2586Y-4.8216
T4
X5.1378Y-4.4685
X5.4528Y-4.4685
X6.2402Y-4.4685
X6.5551Y-4.4685
T0
M30
