G04 #@! TF.FileFunction,Copper,L1,Top,Signal*
%FSLAX46Y46*%
G04 Gerber Fmt 4.6, Leading zero omitted, Abs format (unit mm)*
G04 Created by KiCad (PCBNEW 4.0.6) date 04/09/17 00:04:14*
%MOMM*%
%LPD*%
G01*
G04 APERTURE LIST*
%ADD10C,0.100000*%
%ADD11R,1.200000X0.900000*%
%ADD12C,1.305560*%
%ADD13R,1.549400X0.599440*%
%ADD14R,1.798320X1.198880*%
%ADD15C,1.422400*%
%ADD16R,0.800000X0.800000*%
%ADD17C,15.500000*%
%ADD18C,0.800000*%
%ADD19C,0.685800*%
%ADD20C,0.406400*%
%ADD21C,0.203200*%
G04 APERTURE END LIST*
D10*
D11*
X138387000Y-119134000D03*
X136187000Y-119134000D03*
D12*
X146970000Y-120470000D03*
X146970000Y-122468980D03*
X148968980Y-120470000D03*
X148968980Y-122468980D03*
X150967960Y-120470000D03*
X150967960Y-122468980D03*
X152969480Y-120470000D03*
X152969480Y-122468980D03*
X154968460Y-120470000D03*
X154968460Y-122468980D03*
X156969980Y-120470000D03*
X156969980Y-122468980D03*
X158968960Y-120470000D03*
X158968960Y-122468980D03*
D11*
X156676000Y-92213600D03*
X154476000Y-92213600D03*
D13*
X151127460Y-87630000D03*
X151127460Y-88630760D03*
X151127460Y-89631520D03*
X151127460Y-90629740D03*
X151127460Y-91627960D03*
X151127460Y-92628720D03*
D14*
X148904960Y-86332060D03*
X148904960Y-93929200D03*
D13*
X143512540Y-92710000D03*
X143512540Y-91709240D03*
X143512540Y-90708480D03*
X143512540Y-89710260D03*
X143512540Y-88712040D03*
X143512540Y-87711280D03*
D14*
X145735040Y-94007940D03*
X145735040Y-86410800D03*
D15*
X158902400Y-85453600D03*
D16*
X131534000Y-115070000D03*
X133134000Y-115070000D03*
X135852000Y-115070000D03*
X137452000Y-115070000D03*
X159220000Y-115070000D03*
X160820000Y-115070000D03*
X163792000Y-115070000D03*
X165392000Y-115070000D03*
X158331000Y-92210000D03*
X159931000Y-92210000D03*
D17*
X134600000Y-105100000D03*
X162200000Y-105050000D03*
D11*
X131234000Y-118245000D03*
X133434000Y-118245000D03*
D18*
X151384000Y-105926000D03*
X141859000Y-124214000D03*
X143510000Y-121166000D03*
X148209000Y-117483000D03*
X135806000Y-116891000D03*
X151257000Y-113038000D03*
X156210000Y-113038000D03*
X141224000Y-116797200D03*
X156845000Y-90805000D03*
D19*
X145542000Y-89408000D03*
D18*
X152476200Y-88692100D03*
X153339800Y-85326600D03*
X141808200Y-92705300D03*
X160401000Y-119261000D03*
X163830000Y-117991000D03*
X162382200Y-113825400D03*
X167081200Y-114765200D03*
X141706600Y-90673300D03*
X153454100Y-87511000D03*
D19*
X146227800Y-91486100D03*
X147764500Y-99512500D03*
X142582900Y-99207700D03*
X137439400Y-96375600D03*
X145465800Y-95423100D03*
X145491200Y-102738300D03*
X149987000Y-111133000D03*
X147993100Y-107056300D03*
X151892000Y-123706000D03*
X150444200Y-103093900D03*
X149529800Y-108224700D03*
X150329900Y-108694600D03*
X155143200Y-100185600D03*
X150469600Y-106738800D03*
X160782000Y-95308800D03*
X162153600Y-93022800D03*
X155448000Y-98814000D03*
X165760400Y-97086800D03*
X147447000Y-105164000D03*
X162915600Y-91702000D03*
X157734000Y-93530800D03*
X144399000Y-110498000D03*
X163169600Y-95105600D03*
X144399000Y-109355000D03*
X142354300Y-101455600D03*
X145542000Y-92298900D03*
X166522400Y-92819600D03*
X157683200Y-95512000D03*
X152908000Y-98814000D03*
X146431000Y-107323000D03*
X149352000Y-103220900D03*
X150431500Y-104148000D03*
X151638000Y-114308000D03*
X144399000Y-116340000D03*
X145186400Y-103601900D03*
X139192000Y-88781000D03*
X147510500Y-97861500D03*
X146380200Y-99880800D03*
X138099800Y-95689800D03*
X150698200Y-94648400D03*
X151815800Y-94546800D03*
X152920700Y-94292800D03*
X142049500Y-96680400D03*
X145542000Y-106180000D03*
X146558000Y-112149000D03*
X155702000Y-115197000D03*
X141986000Y-111641000D03*
X131089400Y-114028600D03*
X137668000Y-116378100D03*
X159029400Y-116581300D03*
X166192200Y-116581300D03*
X152019000Y-110244000D03*
X151549100Y-107577000D03*
X153670000Y-108847000D03*
X156083000Y-111768000D03*
D18*
X133197600Y-123579000D03*
D19*
X137287000Y-122944000D03*
X130683000Y-120912000D03*
X140208000Y-121674000D03*
X129413000Y-116848000D03*
X132207000Y-118372000D03*
D18*
X142367000Y-122944000D03*
X136017000Y-121293000D03*
D19*
X133350000Y-119261000D03*
D20*
X151257000Y-113038000D02*
X152095200Y-113038000D01*
X152654000Y-107196000D02*
X151384000Y-105926000D01*
X152654000Y-108974000D02*
X152654000Y-107196000D01*
X153111200Y-109431200D02*
X152654000Y-108974000D01*
X153111200Y-112022000D02*
X153111200Y-109431200D01*
X152095200Y-113038000D02*
X153111200Y-112022000D01*
X143510000Y-121166000D02*
X143510000Y-123579000D01*
X142875000Y-124214000D02*
X141859000Y-124214000D01*
X143510000Y-123579000D02*
X142875000Y-124214000D01*
X141859000Y-120404000D02*
X142748000Y-120404000D01*
X141224000Y-119769000D02*
X141859000Y-120404000D01*
X141224000Y-118245000D02*
X141224000Y-119769000D01*
X142748000Y-120404000D02*
X143510000Y-121166000D01*
X148209000Y-117483000D02*
X141986000Y-117483000D01*
X141986000Y-117483000D02*
X141224000Y-118245000D01*
X140335000Y-119134000D02*
X141224000Y-118245000D01*
X135806000Y-116891000D02*
X136779000Y-117864000D01*
X151257000Y-113038000D02*
X156210000Y-113038000D01*
X141224000Y-118245000D02*
X141224000Y-116797200D01*
X158496000Y-90805000D02*
X159893000Y-92202000D01*
X156845000Y-90805000D02*
X158496000Y-90805000D01*
D21*
X143512540Y-91709240D02*
X143510000Y-91694000D01*
X143510000Y-91694000D02*
X144399000Y-91694000D01*
X144399000Y-91694000D02*
X145542000Y-90551000D01*
X145542000Y-90551000D02*
X145542000Y-89408000D01*
X159893000Y-92202000D02*
X159931000Y-92210000D01*
D20*
X152476200Y-88692100D02*
X154178000Y-88692100D01*
D21*
X152414860Y-88630760D02*
X152476200Y-88692100D01*
X151127460Y-88630760D02*
X152414860Y-88630760D01*
D20*
X154711400Y-86698200D02*
X153339800Y-85326600D01*
X154711400Y-88158700D02*
X154711400Y-86698200D01*
X154178000Y-88692100D02*
X154711400Y-88158700D01*
D21*
X143512540Y-92710000D02*
X143512540Y-91709240D01*
X141812900Y-92710000D02*
X143512540Y-92710000D01*
X141808200Y-92705300D02*
X141812900Y-92710000D01*
D20*
X138387000Y-119134000D02*
X140335000Y-119134000D01*
X138387000Y-118329000D02*
X138387000Y-119134000D01*
X137922000Y-117864000D02*
X138387000Y-118329000D01*
X136779000Y-117864000D02*
X137922000Y-117864000D01*
X162560000Y-119261000D02*
X160401000Y-119261000D01*
X163830000Y-117991000D02*
X162560000Y-119261000D01*
X166141400Y-113825400D02*
X162382200Y-113825400D01*
X167081200Y-114765200D02*
X166141400Y-113825400D01*
D21*
X141741780Y-90708480D02*
X143512540Y-90708480D01*
X141706600Y-90673300D02*
X141741780Y-90708480D01*
D20*
X153335100Y-87630000D02*
X151127460Y-87630000D01*
X153454100Y-87511000D02*
X153335100Y-87630000D01*
D21*
X143512540Y-87711280D02*
X146123280Y-87711280D01*
X146812000Y-90901900D02*
X146227800Y-91486100D01*
X146812000Y-88400000D02*
X146812000Y-90901900D01*
X146123280Y-87711280D02*
X146812000Y-88400000D01*
X142582900Y-99207700D02*
X142582900Y-99220400D01*
X146494500Y-100782500D02*
X147764500Y-99512500D01*
X144145000Y-100782500D02*
X146494500Y-100782500D01*
X142582900Y-99220400D02*
X144145000Y-100782500D01*
X137439400Y-96375600D02*
X138010900Y-96375600D01*
X142354300Y-98979100D02*
X142582900Y-99207700D01*
X140614400Y-98979100D02*
X142354300Y-98979100D01*
X138010900Y-96375600D02*
X140614400Y-98979100D01*
X147320000Y-92895800D02*
X147320000Y-94864300D01*
X146761200Y-95423100D02*
X145465800Y-95423100D01*
X147320000Y-94864300D02*
X146761200Y-95423100D01*
X151127460Y-90629740D02*
X149586060Y-90629740D01*
X149586060Y-90629740D02*
X147320000Y-92895800D01*
X143129000Y-104275000D02*
X143129000Y-113088800D01*
X136423400Y-115641400D02*
X135852000Y-115070000D01*
X136423400Y-116416200D02*
X136423400Y-115641400D01*
X137058400Y-117051200D02*
X136423400Y-116416200D01*
X139674600Y-117051200D02*
X137058400Y-117051200D01*
X139776200Y-116949600D02*
X139674600Y-117051200D01*
X139776200Y-116441600D02*
X139776200Y-116949600D01*
X143129000Y-113088800D02*
X139776200Y-116441600D01*
X145491200Y-102738300D02*
X144665700Y-102738300D01*
X144665700Y-102738300D02*
X143129000Y-104275000D01*
X133134000Y-115070000D02*
X135852000Y-115070000D01*
X160820000Y-115070000D02*
X160820000Y-116505200D01*
X160820000Y-116505200D02*
X159842200Y-117483000D01*
X152527000Y-116848000D02*
X157861000Y-116848000D01*
X157861000Y-116848000D02*
X158496000Y-117483000D01*
X158496000Y-117483000D02*
X159842200Y-117483000D01*
X149606000Y-111514000D02*
X149606000Y-113927000D01*
X149606000Y-113927000D02*
X152527000Y-116848000D01*
X149987000Y-111133000D02*
X149606000Y-111514000D01*
X160820000Y-115070000D02*
X163792000Y-115070000D01*
X148590000Y-118626000D02*
X145415000Y-118626000D01*
X147256500Y-107564300D02*
X147256500Y-115133500D01*
X149098000Y-118118000D02*
X148590000Y-118626000D01*
X149098000Y-116975000D02*
X149098000Y-118118000D01*
X147256500Y-115133500D02*
X149098000Y-116975000D01*
X144526000Y-123071000D02*
X145923000Y-124468000D01*
X144526000Y-119515000D02*
X144526000Y-123071000D01*
X145415000Y-118626000D02*
X144526000Y-119515000D01*
X152969440Y-124468000D02*
X154968460Y-122468980D01*
X145923000Y-124468000D02*
X152969440Y-124468000D01*
X147256500Y-107564300D02*
X147993100Y-107056300D01*
X150145750Y-117070250D02*
X148869400Y-115793900D01*
X148869400Y-115793900D02*
X148869400Y-115705000D01*
X148869400Y-115705000D02*
X147955000Y-114790600D01*
X147955000Y-114790600D02*
X147955000Y-108224700D01*
X147955000Y-108224700D02*
X148678900Y-107500800D01*
X148678900Y-105875200D02*
X148678900Y-107500800D01*
X150145750Y-118594250D02*
X149606000Y-119134000D01*
X149606000Y-119134000D02*
X145796000Y-119134000D01*
X145796000Y-119134000D02*
X145161000Y-119769000D01*
X145161000Y-119769000D02*
X145161000Y-122690000D01*
X145161000Y-122690000D02*
X146177000Y-123706000D01*
X146177000Y-123706000D02*
X151892000Y-123706000D01*
X150145750Y-117070250D02*
X150145750Y-118594250D01*
X149440900Y-105113200D02*
X149440900Y-104097200D01*
X148678900Y-105875200D02*
X149440900Y-105113200D01*
X149440900Y-104097200D02*
X150444200Y-103093900D01*
X152273000Y-118372000D02*
X154178000Y-118372000D01*
X154968460Y-119162460D02*
X154968460Y-120470000D01*
X154178000Y-118372000D02*
X154968460Y-119162460D01*
X149561550Y-115660550D02*
X149561550Y-115609750D01*
X148551900Y-109202600D02*
X149529800Y-108224700D01*
X148551900Y-114600100D02*
X148551900Y-109202600D01*
X149561550Y-115609750D02*
X148551900Y-114600100D01*
X152273000Y-118372000D02*
X149561550Y-115660550D01*
X152450800Y-117800500D02*
X156146500Y-117800500D01*
X156969980Y-118623980D02*
X156969980Y-120470000D01*
X156146500Y-117800500D02*
X156969980Y-118623980D01*
X150336250Y-115685950D02*
X150336250Y-115558950D01*
X149110700Y-109913800D02*
X150329900Y-108694600D01*
X149110700Y-114333400D02*
X149110700Y-109913800D01*
X150336250Y-115558950D02*
X149110700Y-114333400D01*
X152450800Y-117800500D02*
X150336250Y-115685950D01*
X155143200Y-100185600D02*
X153924000Y-101404800D01*
X153924000Y-101404800D02*
X153873200Y-101404800D01*
X153873200Y-101963600D02*
X153873200Y-101404800D01*
X150622000Y-105214800D02*
X153873200Y-101963600D01*
X150622000Y-106586400D02*
X150622000Y-105214800D01*
X150469600Y-106738800D02*
X150622000Y-106586400D01*
X161798000Y-94292800D02*
X160782000Y-95308800D01*
X161798000Y-93378400D02*
X161798000Y-94292800D01*
X162153600Y-93022800D02*
X161798000Y-93378400D01*
X158851600Y-96680400D02*
X156413200Y-96680400D01*
X154025600Y-99068000D02*
X154025600Y-99080700D01*
X156413200Y-96680400D02*
X154025600Y-99068000D01*
X165252400Y-97086800D02*
X165760400Y-97086800D01*
X164846000Y-96680400D02*
X165252400Y-97086800D01*
X158648400Y-96680400D02*
X158851600Y-96680400D01*
X158851600Y-96680400D02*
X164846000Y-96680400D01*
X147612100Y-103589200D02*
X147612100Y-104998900D01*
X147612100Y-104998900D02*
X147447000Y-105164000D01*
X152146000Y-101696900D02*
X152120600Y-101696900D01*
X152120600Y-101696900D02*
X151384000Y-102433500D01*
X151384000Y-102433500D02*
X148767800Y-102433500D01*
X148767800Y-102433500D02*
X147612100Y-103589200D01*
X152146000Y-101696900D02*
X152476200Y-101366700D01*
X152476200Y-101366700D02*
X152476200Y-100579300D01*
X152476200Y-100579300D02*
X152920700Y-100134800D01*
X152920700Y-100134800D02*
X152920700Y-100185600D01*
X154025600Y-99080700D02*
X152920700Y-100185600D01*
X154235150Y-98871150D02*
X154025600Y-99080700D01*
X155390850Y-98871150D02*
X155448000Y-98814000D01*
X154235150Y-98871150D02*
X155390850Y-98871150D01*
X151127460Y-91627960D02*
X152169240Y-91627960D01*
X161251522Y-90037922D02*
X162915600Y-91702000D01*
X153759278Y-90037922D02*
X161251522Y-90037922D01*
X152169240Y-91627960D02*
X153759278Y-90037922D01*
X157734000Y-93530800D02*
X156108400Y-93530800D01*
X156108400Y-93530800D02*
X155524200Y-92946600D01*
X152308940Y-91627960D02*
X151127460Y-91627960D01*
X152793700Y-91143200D02*
X152308940Y-91627960D01*
X155079700Y-91143200D02*
X152793700Y-91143200D01*
X155524200Y-91587700D02*
X155079700Y-91143200D01*
X155524200Y-92946600D02*
X155524200Y-91587700D01*
X144538700Y-108351700D02*
X145161000Y-108974000D01*
X145161000Y-108974000D02*
X145161000Y-109736000D01*
X145161000Y-109736000D02*
X144399000Y-110498000D01*
X151127460Y-91627960D02*
X149946740Y-91627960D01*
X146659598Y-103894002D02*
X144538700Y-106014900D01*
X146659598Y-101989002D02*
X146659598Y-103894002D01*
X147066000Y-101582600D02*
X146659598Y-101989002D01*
X147066000Y-101481000D02*
X147066000Y-101582600D01*
X153797000Y-94750000D02*
X147066000Y-101481000D01*
X153797000Y-93403800D02*
X153797000Y-94750000D01*
X153631900Y-93238700D02*
X153797000Y-93403800D01*
X152895300Y-93238700D02*
X153631900Y-93238700D01*
X152501600Y-93632400D02*
X152895300Y-93238700D01*
X150622000Y-93632400D02*
X152501600Y-93632400D01*
X149453600Y-92464000D02*
X150622000Y-93632400D01*
X149453600Y-92121100D02*
X149453600Y-92464000D01*
X149946740Y-91627960D02*
X149453600Y-92121100D01*
X144538700Y-106014900D02*
X144538700Y-108351700D01*
X163677600Y-91346400D02*
X163677600Y-94597600D01*
X163677600Y-91346400D02*
X161962720Y-89631520D01*
X151127460Y-89631520D02*
X161962720Y-89631520D01*
X163677600Y-94597600D02*
X163169600Y-95105600D01*
X144081500Y-105011600D02*
X144081500Y-109037500D01*
X146227800Y-102484300D02*
X146227800Y-103563800D01*
X144640300Y-104452800D02*
X144081500Y-105011600D01*
X145338800Y-104452800D02*
X144640300Y-104452800D01*
X146227800Y-103563800D02*
X145338800Y-104452800D01*
X144081500Y-109037500D02*
X144399000Y-109355000D01*
X145542000Y-101798500D02*
X146227800Y-102484300D01*
X142697200Y-101798500D02*
X145542000Y-101798500D01*
X142354300Y-101455600D02*
X142697200Y-101798500D01*
X151127460Y-89631520D02*
X149644480Y-89631520D01*
X146977100Y-92298900D02*
X145542000Y-92298900D01*
X149644480Y-89631520D02*
X146977100Y-92298900D01*
X157683200Y-95512000D02*
X154940000Y-95512000D01*
X154940000Y-95512000D02*
X154476000Y-95048000D01*
X157683200Y-95512000D02*
X158191200Y-95512000D01*
X166522400Y-95004000D02*
X165506400Y-96020000D01*
X166522400Y-92819600D02*
X166522400Y-95004000D01*
X158699200Y-96020000D02*
X165506400Y-96020000D01*
X158191200Y-95512000D02*
X158699200Y-96020000D01*
X154476000Y-95595000D02*
X152908000Y-97163000D01*
X152908000Y-97163000D02*
X152908000Y-98814000D01*
X154476000Y-95595000D02*
X154476000Y-95048000D01*
X148310600Y-105659300D02*
X148094700Y-105659300D01*
X148094700Y-105659300D02*
X146431000Y-107323000D01*
X148310600Y-103678100D02*
X148894800Y-103678100D01*
X148894800Y-103678100D02*
X149352000Y-103220900D01*
X148310600Y-105659300D02*
X148310600Y-103678100D01*
X154476000Y-92213600D02*
X154476000Y-95048000D01*
X154476000Y-92213600D02*
X153031400Y-92213600D01*
X152616280Y-92628720D02*
X151127460Y-92628720D01*
X153031400Y-92213600D02*
X152616280Y-92628720D01*
X151015700Y-108339000D02*
X151015700Y-111501300D01*
X149707600Y-105697400D02*
X150063200Y-105341800D01*
X149707600Y-107030900D02*
X149707600Y-105697400D01*
X151015700Y-108339000D02*
X149707600Y-107030900D01*
X150431500Y-104148000D02*
X150063200Y-104516300D01*
X150063200Y-104516300D02*
X150063200Y-105341800D01*
X150876000Y-114308000D02*
X151638000Y-114308000D01*
X150241000Y-113673000D02*
X150876000Y-114308000D01*
X150241000Y-112276000D02*
X150241000Y-113673000D01*
X151015700Y-111501300D02*
X150241000Y-112276000D01*
X144399000Y-116340000D02*
X143662400Y-115603400D01*
X143662400Y-115603400D02*
X143662400Y-104579800D01*
X145186400Y-103601900D02*
X144640300Y-103601900D01*
X144640300Y-103601900D02*
X143662400Y-104579800D01*
X139192000Y-88781000D02*
X139153900Y-88819100D01*
X139153900Y-88819100D02*
X139153900Y-93505400D01*
X147434300Y-97658300D02*
X147434300Y-97785300D01*
X147434300Y-97785300D02*
X147510500Y-97861500D01*
X140843000Y-95194500D02*
X139153900Y-93505400D01*
X141490700Y-95194500D02*
X140843000Y-95194500D01*
X143954500Y-97658300D02*
X141490700Y-95194500D01*
X143954500Y-97658300D02*
X147434300Y-97658300D01*
X143357600Y-98915600D02*
X145707100Y-98915600D01*
X146380200Y-99588700D02*
X146380200Y-99880800D01*
X145707100Y-98915600D02*
X146380200Y-99588700D01*
X138099800Y-95689800D02*
X140843000Y-98433000D01*
X140843000Y-98433000D02*
X142875000Y-98433000D01*
X142875000Y-98433000D02*
X143357600Y-98915600D01*
X145116550Y-96750250D02*
X148697950Y-96750250D01*
X149110700Y-96337500D02*
X149110700Y-96235900D01*
X148697950Y-96750250D02*
X149110700Y-96337500D01*
X145116550Y-96750250D02*
X141998700Y-93632400D01*
X141998700Y-93632400D02*
X140906500Y-93632400D01*
X140906500Y-93632400D02*
X140411200Y-93137100D01*
X140411200Y-93137100D02*
X140411200Y-90571700D01*
X140411200Y-90571700D02*
X141272640Y-89710260D01*
X143512540Y-89710260D02*
X141272640Y-89710260D01*
X149110700Y-96235900D02*
X150698200Y-94648400D01*
X144411700Y-97175700D02*
X149136100Y-97175700D01*
X144411700Y-97175700D02*
X141439900Y-94203900D01*
X141439900Y-94203900D02*
X140804900Y-94203900D01*
X140804900Y-94203900D02*
X139827000Y-93226000D01*
X139827000Y-93226000D02*
X139827000Y-90343100D01*
X139827000Y-90343100D02*
X141458060Y-88712040D01*
X143512540Y-88712040D02*
X141458060Y-88712040D01*
X151765000Y-94546800D02*
X151815800Y-94546800D01*
X149136100Y-97175700D02*
X151765000Y-94546800D01*
X143687800Y-98318700D02*
X146697700Y-98318700D01*
X152920700Y-94432500D02*
X152920700Y-94292800D01*
X148793200Y-98560000D02*
X152920700Y-94432500D01*
X146939000Y-98560000D02*
X148793200Y-98560000D01*
X146697700Y-98318700D02*
X146939000Y-98560000D01*
X142049500Y-96680400D02*
X143687800Y-98318700D01*
X145542000Y-107831000D02*
X145542000Y-106180000D01*
X145796000Y-108085000D02*
X145542000Y-107831000D01*
X145796000Y-111387000D02*
X145796000Y-108085000D01*
X146558000Y-112149000D02*
X145796000Y-111387000D01*
D20*
X155702000Y-115197000D02*
X157861000Y-113038000D01*
X159258000Y-113038000D02*
X162200000Y-110096000D01*
X157861000Y-113038000D02*
X159258000Y-113038000D01*
X162200000Y-110096000D02*
X162200000Y-105050000D01*
X162200000Y-109207000D02*
X162200000Y-105050000D01*
X141986000Y-111641000D02*
X135445000Y-105100000D01*
X135445000Y-105100000D02*
X134600000Y-105100000D01*
X135978900Y-104910000D02*
X134620000Y-104910000D01*
D21*
X131534000Y-115070000D02*
X131534000Y-114473200D01*
X131534000Y-114473200D02*
X131089400Y-114028600D01*
X137452000Y-115070000D02*
X137452000Y-116162100D01*
X137452000Y-116162100D02*
X137668000Y-116378100D01*
X159220000Y-116390700D02*
X159220000Y-115070000D01*
X159029400Y-116581300D02*
X159220000Y-116390700D01*
X165392000Y-115070000D02*
X165392000Y-115781100D01*
X165392000Y-115781100D02*
X166192200Y-116581300D01*
X156676000Y-92213600D02*
X158327400Y-92213600D01*
X158327400Y-92213600D02*
X158331000Y-92210000D01*
X151549100Y-107577000D02*
X151549100Y-109774100D01*
X151549100Y-109774100D02*
X152019000Y-110244000D01*
X154559000Y-109736000D02*
X153670000Y-108847000D01*
X154559000Y-110244000D02*
X154559000Y-109736000D01*
X156083000Y-111768000D02*
X154559000Y-110244000D01*
D20*
X136017000Y-125103000D02*
X159258000Y-125103000D01*
X160213000Y-120470000D02*
X160782000Y-121039000D01*
X160782000Y-121039000D02*
X160782000Y-123579000D01*
X160782000Y-123579000D02*
X159258000Y-125103000D01*
X158968960Y-120470000D02*
X160213000Y-120470000D01*
X134874000Y-123960000D02*
X133604000Y-123960000D01*
X136017000Y-125103000D02*
X134874000Y-123960000D01*
X133197600Y-123579000D02*
X133223000Y-123579000D01*
X133223000Y-123579000D02*
X133604000Y-123960000D01*
X132588000Y-122309000D02*
X136652000Y-122309000D01*
X136652000Y-122309000D02*
X137287000Y-122944000D01*
X131127500Y-120848500D02*
X132588000Y-122309000D01*
X130683000Y-120912000D02*
X130746500Y-120848500D01*
X130746500Y-120848500D02*
X131127500Y-120848500D01*
X138938000Y-120404000D02*
X132207000Y-120404000D01*
X129413000Y-118753000D02*
X129413000Y-116848000D01*
X130429000Y-119769000D02*
X129413000Y-118753000D01*
X131572000Y-119769000D02*
X130429000Y-119769000D01*
X132207000Y-120404000D02*
X131572000Y-119769000D01*
X140208000Y-121674000D02*
X138938000Y-120404000D01*
X132207000Y-116848000D02*
X131445000Y-117610000D01*
X131445000Y-117610000D02*
X131445000Y-118034000D01*
X131445000Y-118034000D02*
X131234000Y-118245000D01*
X136187000Y-119134000D02*
X136187000Y-118923000D01*
X136187000Y-118923000D02*
X134112000Y-116848000D01*
X134112000Y-116848000D02*
X132207000Y-116848000D01*
X131361000Y-118372000D02*
X132207000Y-118372000D01*
X131361000Y-118372000D02*
X131234000Y-118245000D01*
X142011400Y-122588400D02*
X138963400Y-122588400D01*
X142367000Y-122944000D02*
X142011400Y-122588400D01*
X137668000Y-121293000D02*
X136017000Y-121293000D01*
X138963400Y-122588400D02*
X137668000Y-121293000D01*
X133434000Y-118245000D02*
X133434000Y-119177000D01*
X133434000Y-119177000D02*
X133350000Y-119261000D01*
M02*
