G04 #@! TF.FileFunction,Legend,Bot*
%FSLAX46Y46*%
G04 Gerber Fmt 4.6, Leading zero omitted, Abs format (unit mm)*
G04 Created by KiCad (PCBNEW 4.0.6) date 04/02/17 16:31:56*
%MOMM*%
%LPD*%
G01*
G04 APERTURE LIST*
%ADD10C,0.100000*%
%ADD11C,0.120000*%
%ADD12C,0.508000*%
%ADD13C,0.203200*%
%ADD14C,0.127000*%
%ADD15C,0.063500*%
%ADD16C,0.150000*%
%ADD17C,0.025400*%
%ADD18C,0.101600*%
%ADD19C,0.050800*%
%ADD20C,0.076200*%
%ADD21C,0.152400*%
%ADD22C,0.279400*%
%ADD23R,1.460000X1.050000*%
%ADD24R,1.670000X0.933400*%
%ADD25R,0.933400X1.670000*%
%ADD26R,1.000000X0.900000*%
%ADD27R,1.150000X1.600000*%
%ADD28R,1.600000X1.150000*%
%ADD29R,1.997660X1.799540*%
%ADD30R,1.300000X1.600000*%
%ADD31R,1.600000X1.300000*%
%ADD32C,1.705560*%
%ADD33R,1.098500X2.099260*%
%ADD34R,1.050000X1.460000*%
%ADD35C,1.822400*%
%ADD36R,0.648920X1.197560*%
%ADD37R,1.398220X1.299160*%
%ADD38R,2.398980X1.670000*%
%ADD39R,1.650000X1.900000*%
G04 APERTURE END LIST*
D10*
D11*
X143499000Y-112825000D02*
X145299000Y-112825000D01*
X145299000Y-116045000D02*
X142849000Y-116045000D01*
D12*
X152309921Y-101612000D02*
G75*
G03X152309921Y-101612000I-35921J0D01*
G01*
D11*
X143032000Y-99948000D02*
X143532000Y-99948000D01*
X143532000Y-100888000D02*
X143032000Y-100888000D01*
X157516000Y-88053600D02*
X157516000Y-88753600D01*
X158716000Y-88753600D02*
X158716000Y-88053600D01*
X157064000Y-116182000D02*
X157064000Y-115482000D01*
X155864000Y-115482000D02*
X155864000Y-116182000D01*
X131988000Y-93892000D02*
X131988000Y-94592000D01*
X133188000Y-94592000D02*
X133188000Y-93892000D01*
X154428000Y-110460000D02*
X153928000Y-110460000D01*
X153928000Y-109520000D02*
X154428000Y-109520000D01*
X154147000Y-117518000D02*
X153447000Y-117518000D01*
X153447000Y-118718000D02*
X154147000Y-118718000D01*
X141951000Y-114404000D02*
X141951000Y-113704000D01*
X140751000Y-113704000D02*
X140751000Y-114404000D01*
X144049000Y-117956000D02*
X144749000Y-117956000D01*
X144749000Y-116756000D02*
X144049000Y-116756000D01*
D13*
X149860000Y-111641000D02*
X148336000Y-111641000D01*
X141224000Y-119007000D02*
X139700000Y-119007000D01*
X138303000Y-119007000D02*
X136779000Y-119007000D01*
D11*
X130855000Y-94996000D02*
X130855000Y-93996000D01*
X129495000Y-93996000D02*
X129495000Y-94996000D01*
X137152000Y-93562000D02*
X136152000Y-93562000D01*
X136152000Y-94922000D02*
X137152000Y-94922000D01*
X165182000Y-93869000D02*
X165182000Y-94869000D01*
X166542000Y-94869000D02*
X166542000Y-93869000D01*
X131834000Y-115750000D02*
X132834000Y-115750000D01*
X132834000Y-114390000D02*
X131834000Y-114390000D01*
X136406000Y-115750000D02*
X137406000Y-115750000D01*
X137406000Y-114390000D02*
X136406000Y-114390000D01*
X159520000Y-115750000D02*
X160520000Y-115750000D01*
X160520000Y-114390000D02*
X159520000Y-114390000D01*
X164092000Y-115750000D02*
X165092000Y-115750000D01*
X165092000Y-114390000D02*
X164092000Y-114390000D01*
X161156000Y-87723600D02*
X160156000Y-87723600D01*
X160156000Y-89083600D02*
X161156000Y-89083600D01*
D14*
X145700000Y-119200000D02*
X145700000Y-123645000D01*
X145700000Y-123645000D02*
X160305000Y-123645000D01*
X160305000Y-123645000D02*
X160305000Y-119200000D01*
X160305000Y-119200000D02*
X145700000Y-119200000D01*
X146335000Y-119200000D02*
X145700000Y-119835000D01*
X145700000Y-119835000D02*
X145700000Y-119200000D01*
X145700000Y-119200000D02*
X146335000Y-119200000D01*
D13*
X155468320Y-112415700D02*
X155468320Y-111120300D01*
X151871680Y-111120300D02*
X151871680Y-112415700D01*
D11*
X155407000Y-114297000D02*
X155407000Y-116097000D01*
X152187000Y-116097000D02*
X152187000Y-113647000D01*
D14*
X161562780Y-94347200D02*
X163559220Y-94347200D01*
X163559220Y-94347200D02*
X163559220Y-91350000D01*
X163559220Y-91350000D02*
X161562780Y-91350000D01*
X161562780Y-91350000D02*
X161562780Y-94347200D01*
D15*
X161403152Y-91649720D02*
G75*
G03X161403152Y-91649720I-140092J0D01*
G01*
D13*
X135252460Y-91780740D02*
X138038840Y-91780740D01*
X138038840Y-91780740D02*
X138038840Y-90559000D01*
X138038840Y-90559000D02*
X135252460Y-90559000D01*
X135252460Y-90559000D02*
X135252460Y-91780740D01*
D14*
X140337540Y-83703540D02*
X156334460Y-83703540D01*
X156334460Y-99192460D02*
X140337540Y-99192460D01*
D11*
X142469500Y-122174000D02*
X142469500Y-121174000D01*
X144169500Y-121174000D02*
X144169500Y-122174000D01*
X144049000Y-112368000D02*
X144749000Y-112368000D01*
X144749000Y-111168000D02*
X144049000Y-111168000D01*
D16*
X145637095Y-116787381D02*
X145637095Y-117596905D01*
X145589476Y-117692143D01*
X145541857Y-117739762D01*
X145446619Y-117787381D01*
X145256142Y-117787381D01*
X145160904Y-117739762D01*
X145113285Y-117692143D01*
X145065666Y-117596905D01*
X145065666Y-116787381D01*
X144637095Y-117739762D02*
X144494238Y-117787381D01*
X144256142Y-117787381D01*
X144160904Y-117739762D01*
X144113285Y-117692143D01*
X144065666Y-117596905D01*
X144065666Y-117501667D01*
X144113285Y-117406429D01*
X144160904Y-117358810D01*
X144256142Y-117311190D01*
X144446619Y-117263571D01*
X144541857Y-117215952D01*
X144589476Y-117168333D01*
X144637095Y-117073095D01*
X144637095Y-116977857D01*
X144589476Y-116882619D01*
X144541857Y-116835000D01*
X144446619Y-116787381D01*
X144208523Y-116787381D01*
X144065666Y-116835000D01*
X144351381Y-116644524D02*
X144351381Y-117930238D01*
X143208523Y-116787381D02*
X143399000Y-116787381D01*
X143494238Y-116835000D01*
X143541857Y-116882619D01*
X143637095Y-117025476D01*
X143684714Y-117215952D01*
X143684714Y-117596905D01*
X143637095Y-117692143D01*
X143589476Y-117739762D01*
X143494238Y-117787381D01*
X143303761Y-117787381D01*
X143208523Y-117739762D01*
X143160904Y-117692143D01*
X143113285Y-117596905D01*
X143113285Y-117358810D01*
X143160904Y-117263571D01*
X143208523Y-117215952D01*
X143303761Y-117168333D01*
X143494238Y-117168333D01*
X143589476Y-117215952D01*
X143637095Y-117263571D01*
X143684714Y-117358810D01*
D17*
X150892724Y-100449648D02*
X150892724Y-100043248D01*
X150466972Y-100410943D02*
X150486324Y-100430295D01*
X150544381Y-100449648D01*
X150583086Y-100449648D01*
X150641143Y-100430295D01*
X150679848Y-100391590D01*
X150699200Y-100352886D01*
X150718552Y-100275476D01*
X150718552Y-100217419D01*
X150699200Y-100140010D01*
X150679848Y-100101305D01*
X150641143Y-100062600D01*
X150583086Y-100043248D01*
X150544381Y-100043248D01*
X150486324Y-100062600D01*
X150466972Y-100081952D01*
X150079924Y-100449648D02*
X150312152Y-100449648D01*
X150196038Y-100449648D02*
X150196038Y-100043248D01*
X150234743Y-100101305D01*
X150273448Y-100140010D01*
X150312152Y-100159362D01*
X151486600Y-111763533D02*
X151293077Y-111763533D01*
X151525305Y-111879648D02*
X151389839Y-111473248D01*
X151254372Y-111879648D01*
X151176962Y-111473248D02*
X150944734Y-111473248D01*
X151060848Y-111879648D02*
X151060848Y-111473248D01*
X150809267Y-111879648D02*
X150809267Y-111473248D01*
X150673800Y-111763533D01*
X150538334Y-111473248D01*
X150538334Y-111879648D01*
X150344810Y-111666771D02*
X150209343Y-111666771D01*
X150151286Y-111879648D02*
X150344810Y-111879648D01*
X150344810Y-111473248D01*
X150151286Y-111473248D01*
X149764239Y-111492600D02*
X149802944Y-111473248D01*
X149861001Y-111473248D01*
X149919058Y-111492600D01*
X149957763Y-111531305D01*
X149977115Y-111570010D01*
X149996467Y-111647419D01*
X149996467Y-111705476D01*
X149977115Y-111782886D01*
X149957763Y-111821590D01*
X149919058Y-111860295D01*
X149861001Y-111879648D01*
X149822296Y-111879648D01*
X149764239Y-111860295D01*
X149744887Y-111840943D01*
X149744887Y-111705476D01*
X149822296Y-111705476D01*
X149590067Y-111763533D02*
X149396544Y-111763533D01*
X149628772Y-111879648D02*
X149493306Y-111473248D01*
X149357839Y-111879648D01*
X149261077Y-111473248D02*
X149009496Y-111473248D01*
X149144963Y-111628067D01*
X149086905Y-111628067D01*
X149048201Y-111647419D01*
X149028848Y-111666771D01*
X149009496Y-111705476D01*
X149009496Y-111802238D01*
X149028848Y-111840943D01*
X149048201Y-111860295D01*
X149086905Y-111879648D01*
X149203020Y-111879648D01*
X149241724Y-111860295D01*
X149261077Y-111840943D01*
X148854676Y-111511952D02*
X148835324Y-111492600D01*
X148796619Y-111473248D01*
X148699857Y-111473248D01*
X148661153Y-111492600D01*
X148641800Y-111511952D01*
X148622448Y-111550657D01*
X148622448Y-111589362D01*
X148641800Y-111647419D01*
X148874029Y-111879648D01*
X148622448Y-111879648D01*
X148390219Y-111647419D02*
X148428924Y-111628067D01*
X148448276Y-111608714D01*
X148467628Y-111570010D01*
X148467628Y-111550657D01*
X148448276Y-111511952D01*
X148428924Y-111492600D01*
X148390219Y-111473248D01*
X148312809Y-111473248D01*
X148274105Y-111492600D01*
X148254752Y-111511952D01*
X148235400Y-111550657D01*
X148235400Y-111570010D01*
X148254752Y-111608714D01*
X148274105Y-111628067D01*
X148312809Y-111647419D01*
X148390219Y-111647419D01*
X148428924Y-111666771D01*
X148448276Y-111686124D01*
X148467628Y-111724829D01*
X148467628Y-111802238D01*
X148448276Y-111840943D01*
X148428924Y-111860295D01*
X148390219Y-111879648D01*
X148312809Y-111879648D01*
X148274105Y-111860295D01*
X148254752Y-111840943D01*
X148235400Y-111802238D01*
X148235400Y-111724829D01*
X148254752Y-111686124D01*
X148274105Y-111666771D01*
X148312809Y-111647419D01*
X148061228Y-111879648D02*
X148061228Y-111473248D01*
X147906409Y-111473248D01*
X147867704Y-111492600D01*
X147848352Y-111511952D01*
X147829000Y-111550657D01*
X147829000Y-111608714D01*
X147848352Y-111647419D01*
X147867704Y-111666771D01*
X147906409Y-111686124D01*
X148061228Y-111686124D01*
D16*
X143448666Y-99505143D02*
X143496285Y-99552762D01*
X143639142Y-99600381D01*
X143734380Y-99600381D01*
X143877238Y-99552762D01*
X143972476Y-99457524D01*
X144020095Y-99362286D01*
X144067714Y-99171810D01*
X144067714Y-99028952D01*
X144020095Y-98838476D01*
X143972476Y-98743238D01*
X143877238Y-98648000D01*
X143734380Y-98600381D01*
X143639142Y-98600381D01*
X143496285Y-98648000D01*
X143448666Y-98695619D01*
X142496285Y-99600381D02*
X143067714Y-99600381D01*
X142782000Y-99600381D02*
X142782000Y-98600381D01*
X142877238Y-98743238D01*
X142972476Y-98838476D01*
X143067714Y-98886095D01*
X157223143Y-88236934D02*
X157270762Y-88189315D01*
X157318381Y-88046458D01*
X157318381Y-87951220D01*
X157270762Y-87808362D01*
X157175524Y-87713124D01*
X157080286Y-87665505D01*
X156889810Y-87617886D01*
X156746952Y-87617886D01*
X156556476Y-87665505D01*
X156461238Y-87713124D01*
X156366000Y-87808362D01*
X156318381Y-87951220D01*
X156318381Y-88046458D01*
X156366000Y-88189315D01*
X156413619Y-88236934D01*
X156318381Y-88570267D02*
X156318381Y-89189315D01*
X156699333Y-88855981D01*
X156699333Y-88998839D01*
X156746952Y-89094077D01*
X156794571Y-89141696D01*
X156889810Y-89189315D01*
X157127905Y-89189315D01*
X157223143Y-89141696D01*
X157270762Y-89094077D01*
X157318381Y-88998839D01*
X157318381Y-88713124D01*
X157270762Y-88617886D01*
X157223143Y-88570267D01*
X158071143Y-115665334D02*
X158118762Y-115617715D01*
X158166381Y-115474858D01*
X158166381Y-115379620D01*
X158118762Y-115236762D01*
X158023524Y-115141524D01*
X157928286Y-115093905D01*
X157737810Y-115046286D01*
X157594952Y-115046286D01*
X157404476Y-115093905D01*
X157309238Y-115141524D01*
X157214000Y-115236762D01*
X157166381Y-115379620D01*
X157166381Y-115474858D01*
X157214000Y-115617715D01*
X157261619Y-115665334D01*
X157499714Y-116522477D02*
X158166381Y-116522477D01*
X157118762Y-116284381D02*
X157833048Y-116046286D01*
X157833048Y-116665334D01*
X131695143Y-94075334D02*
X131742762Y-94027715D01*
X131790381Y-93884858D01*
X131790381Y-93789620D01*
X131742762Y-93646762D01*
X131647524Y-93551524D01*
X131552286Y-93503905D01*
X131361810Y-93456286D01*
X131218952Y-93456286D01*
X131028476Y-93503905D01*
X130933238Y-93551524D01*
X130838000Y-93646762D01*
X130790381Y-93789620D01*
X130790381Y-93884858D01*
X130838000Y-94027715D01*
X130885619Y-94075334D01*
X130790381Y-94980096D02*
X130790381Y-94503905D01*
X131266571Y-94456286D01*
X131218952Y-94503905D01*
X131171333Y-94599143D01*
X131171333Y-94837239D01*
X131218952Y-94932477D01*
X131266571Y-94980096D01*
X131361810Y-95027715D01*
X131599905Y-95027715D01*
X131695143Y-94980096D01*
X131742762Y-94932477D01*
X131790381Y-94837239D01*
X131790381Y-94599143D01*
X131742762Y-94503905D01*
X131695143Y-94456286D01*
X154344666Y-111617143D02*
X154392285Y-111664762D01*
X154535142Y-111712381D01*
X154630380Y-111712381D01*
X154773238Y-111664762D01*
X154868476Y-111569524D01*
X154916095Y-111474286D01*
X154963714Y-111283810D01*
X154963714Y-111140952D01*
X154916095Y-110950476D01*
X154868476Y-110855238D01*
X154773238Y-110760000D01*
X154630380Y-110712381D01*
X154535142Y-110712381D01*
X154392285Y-110760000D01*
X154344666Y-110807619D01*
X153487523Y-110712381D02*
X153678000Y-110712381D01*
X153773238Y-110760000D01*
X153820857Y-110807619D01*
X153916095Y-110950476D01*
X153963714Y-111140952D01*
X153963714Y-111521905D01*
X153916095Y-111617143D01*
X153868476Y-111664762D01*
X153773238Y-111712381D01*
X153582761Y-111712381D01*
X153487523Y-111664762D01*
X153439904Y-111617143D01*
X153392285Y-111521905D01*
X153392285Y-111283810D01*
X153439904Y-111188571D01*
X153487523Y-111140952D01*
X153582761Y-111093333D01*
X153773238Y-111093333D01*
X153868476Y-111140952D01*
X153916095Y-111188571D01*
X153963714Y-111283810D01*
X153963666Y-117225143D02*
X154011285Y-117272762D01*
X154154142Y-117320381D01*
X154249380Y-117320381D01*
X154392238Y-117272762D01*
X154487476Y-117177524D01*
X154535095Y-117082286D01*
X154582714Y-116891810D01*
X154582714Y-116748952D01*
X154535095Y-116558476D01*
X154487476Y-116463238D01*
X154392238Y-116368000D01*
X154249380Y-116320381D01*
X154154142Y-116320381D01*
X154011285Y-116368000D01*
X153963666Y-116415619D01*
X153630333Y-116320381D02*
X152963666Y-116320381D01*
X153392238Y-117320381D01*
X142958143Y-113887334D02*
X143005762Y-113839715D01*
X143053381Y-113696858D01*
X143053381Y-113601620D01*
X143005762Y-113458762D01*
X142910524Y-113363524D01*
X142815286Y-113315905D01*
X142624810Y-113268286D01*
X142481952Y-113268286D01*
X142291476Y-113315905D01*
X142196238Y-113363524D01*
X142101000Y-113458762D01*
X142053381Y-113601620D01*
X142053381Y-113696858D01*
X142101000Y-113839715D01*
X142148619Y-113887334D01*
X142481952Y-114458762D02*
X142434333Y-114363524D01*
X142386714Y-114315905D01*
X142291476Y-114268286D01*
X142243857Y-114268286D01*
X142148619Y-114315905D01*
X142101000Y-114363524D01*
X142053381Y-114458762D01*
X142053381Y-114649239D01*
X142101000Y-114744477D01*
X142148619Y-114792096D01*
X142243857Y-114839715D01*
X142291476Y-114839715D01*
X142386714Y-114792096D01*
X142434333Y-114744477D01*
X142481952Y-114649239D01*
X142481952Y-114458762D01*
X142529571Y-114363524D01*
X142577190Y-114315905D01*
X142672429Y-114268286D01*
X142862905Y-114268286D01*
X142958143Y-114315905D01*
X143005762Y-114363524D01*
X143053381Y-114458762D01*
X143053381Y-114649239D01*
X143005762Y-114744477D01*
X142958143Y-114792096D01*
X142862905Y-114839715D01*
X142672429Y-114839715D01*
X142577190Y-114792096D01*
X142529571Y-114744477D01*
X142481952Y-114649239D01*
X144565666Y-118963143D02*
X144613285Y-119010762D01*
X144756142Y-119058381D01*
X144851380Y-119058381D01*
X144994238Y-119010762D01*
X145089476Y-118915524D01*
X145137095Y-118820286D01*
X145184714Y-118629810D01*
X145184714Y-118486952D01*
X145137095Y-118296476D01*
X145089476Y-118201238D01*
X144994238Y-118106000D01*
X144851380Y-118058381D01*
X144756142Y-118058381D01*
X144613285Y-118106000D01*
X144565666Y-118153619D01*
X144089476Y-119058381D02*
X143899000Y-119058381D01*
X143803761Y-119010762D01*
X143756142Y-118963143D01*
X143660904Y-118820286D01*
X143613285Y-118629810D01*
X143613285Y-118248857D01*
X143660904Y-118153619D01*
X143708523Y-118106000D01*
X143803761Y-118058381D01*
X143994238Y-118058381D01*
X144089476Y-118106000D01*
X144137095Y-118153619D01*
X144184714Y-118248857D01*
X144184714Y-118486952D01*
X144137095Y-118582190D01*
X144089476Y-118629810D01*
X143994238Y-118677429D01*
X143803761Y-118677429D01*
X143708523Y-118629810D01*
X143660904Y-118582190D01*
X143613285Y-118486952D01*
D14*
X150763514Y-112138115D02*
X150792543Y-112109086D01*
X150821571Y-112022000D01*
X150821571Y-111963943D01*
X150792543Y-111876858D01*
X150734486Y-111818800D01*
X150676429Y-111789772D01*
X150560314Y-111760743D01*
X150473229Y-111760743D01*
X150357114Y-111789772D01*
X150299057Y-111818800D01*
X150241000Y-111876858D01*
X150211971Y-111963943D01*
X150211971Y-112022000D01*
X150241000Y-112109086D01*
X150270029Y-112138115D01*
X150821571Y-112718686D02*
X150821571Y-112370343D01*
X150821571Y-112544515D02*
X150211971Y-112544515D01*
X150299057Y-112486458D01*
X150357114Y-112428400D01*
X150386143Y-112370343D01*
X150211971Y-113096057D02*
X150211971Y-113154114D01*
X150241000Y-113212171D01*
X150270029Y-113241200D01*
X150328086Y-113270229D01*
X150444200Y-113299257D01*
X150589343Y-113299257D01*
X150705457Y-113270229D01*
X150763514Y-113241200D01*
X150792543Y-113212171D01*
X150821571Y-113154114D01*
X150821571Y-113096057D01*
X150792543Y-113038000D01*
X150763514Y-113008971D01*
X150705457Y-112979943D01*
X150589343Y-112950914D01*
X150444200Y-112950914D01*
X150328086Y-112979943D01*
X150270029Y-113008971D01*
X150241000Y-113038000D01*
X150211971Y-113096057D01*
X148535571Y-111833315D02*
X148535571Y-111484972D01*
X148535571Y-111659144D02*
X147925971Y-111659144D01*
X148013057Y-111601087D01*
X148071114Y-111543029D01*
X148100143Y-111484972D01*
X147925971Y-112210686D02*
X147925971Y-112268743D01*
X147955000Y-112326800D01*
X147984029Y-112355829D01*
X148042086Y-112384858D01*
X148158200Y-112413886D01*
X148303343Y-112413886D01*
X148419457Y-112384858D01*
X148477514Y-112355829D01*
X148506543Y-112326800D01*
X148535571Y-112268743D01*
X148535571Y-112210686D01*
X148506543Y-112152629D01*
X148477514Y-112123600D01*
X148419457Y-112094572D01*
X148303343Y-112065543D01*
X148158200Y-112065543D01*
X148042086Y-112094572D01*
X147984029Y-112123600D01*
X147955000Y-112152629D01*
X147925971Y-112210686D01*
X148129171Y-112936400D02*
X148535571Y-112936400D01*
X148129171Y-112675143D02*
X148448486Y-112675143D01*
X148506543Y-112704171D01*
X148535571Y-112762229D01*
X148535571Y-112849314D01*
X148506543Y-112907371D01*
X148477514Y-112936400D01*
X142127514Y-119504115D02*
X142156543Y-119475086D01*
X142185571Y-119388000D01*
X142185571Y-119329943D01*
X142156543Y-119242858D01*
X142098486Y-119184800D01*
X142040429Y-119155772D01*
X141924314Y-119126743D01*
X141837229Y-119126743D01*
X141721114Y-119155772D01*
X141663057Y-119184800D01*
X141605000Y-119242858D01*
X141575971Y-119329943D01*
X141575971Y-119388000D01*
X141605000Y-119475086D01*
X141634029Y-119504115D01*
X142185571Y-120084686D02*
X142185571Y-119736343D01*
X142185571Y-119910515D02*
X141575971Y-119910515D01*
X141663057Y-119852458D01*
X141721114Y-119794400D01*
X141750143Y-119736343D01*
X142185571Y-120665257D02*
X142185571Y-120316914D01*
X142185571Y-120491086D02*
X141575971Y-120491086D01*
X141663057Y-120433029D01*
X141721114Y-120374971D01*
X141750143Y-120316914D01*
X139899571Y-118909029D02*
X139899571Y-118560686D01*
X139899571Y-118734858D02*
X139289971Y-118734858D01*
X139377057Y-118676801D01*
X139435114Y-118618743D01*
X139464143Y-118560686D01*
X139289971Y-119286400D02*
X139289971Y-119344457D01*
X139319000Y-119402514D01*
X139348029Y-119431543D01*
X139406086Y-119460572D01*
X139522200Y-119489600D01*
X139667343Y-119489600D01*
X139783457Y-119460572D01*
X139841514Y-119431543D01*
X139870543Y-119402514D01*
X139899571Y-119344457D01*
X139899571Y-119286400D01*
X139870543Y-119228343D01*
X139841514Y-119199314D01*
X139783457Y-119170286D01*
X139667343Y-119141257D01*
X139522200Y-119141257D01*
X139406086Y-119170286D01*
X139348029Y-119199314D01*
X139319000Y-119228343D01*
X139289971Y-119286400D01*
X139289971Y-119866971D02*
X139289971Y-119925028D01*
X139319000Y-119983085D01*
X139348029Y-120012114D01*
X139406086Y-120041143D01*
X139522200Y-120070171D01*
X139667343Y-120070171D01*
X139783457Y-120041143D01*
X139841514Y-120012114D01*
X139870543Y-119983085D01*
X139899571Y-119925028D01*
X139899571Y-119866971D01*
X139870543Y-119808914D01*
X139841514Y-119779885D01*
X139783457Y-119750857D01*
X139667343Y-119721828D01*
X139522200Y-119721828D01*
X139406086Y-119750857D01*
X139348029Y-119779885D01*
X139319000Y-119808914D01*
X139289971Y-119866971D01*
X139493171Y-120592685D02*
X139899571Y-120592685D01*
X139493171Y-120331428D02*
X139812486Y-120331428D01*
X139870543Y-120360456D01*
X139899571Y-120418514D01*
X139899571Y-120505599D01*
X139870543Y-120563656D01*
X139841514Y-120592685D01*
X139206514Y-119504115D02*
X139235543Y-119475086D01*
X139264571Y-119388000D01*
X139264571Y-119329943D01*
X139235543Y-119242858D01*
X139177486Y-119184800D01*
X139119429Y-119155772D01*
X139003314Y-119126743D01*
X138916229Y-119126743D01*
X138800114Y-119155772D01*
X138742057Y-119184800D01*
X138684000Y-119242858D01*
X138654971Y-119329943D01*
X138654971Y-119388000D01*
X138684000Y-119475086D01*
X138713029Y-119504115D01*
X139264571Y-120084686D02*
X139264571Y-119736343D01*
X139264571Y-119910515D02*
X138654971Y-119910515D01*
X138742057Y-119852458D01*
X138800114Y-119794400D01*
X138829143Y-119736343D01*
X138713029Y-120316914D02*
X138684000Y-120345943D01*
X138654971Y-120404000D01*
X138654971Y-120549143D01*
X138684000Y-120607200D01*
X138713029Y-120636229D01*
X138771086Y-120665257D01*
X138829143Y-120665257D01*
X138916229Y-120636229D01*
X139264571Y-120287886D01*
X139264571Y-120665257D01*
X136572171Y-118996115D02*
X136978571Y-118996115D01*
X136339943Y-118850972D02*
X136775371Y-118705829D01*
X136775371Y-119083201D01*
X136920514Y-119315429D02*
X136949543Y-119344457D01*
X136978571Y-119315429D01*
X136949543Y-119286400D01*
X136920514Y-119315429D01*
X136978571Y-119315429D01*
X136368971Y-119547658D02*
X136368971Y-119954058D01*
X136978571Y-119692801D01*
X136572171Y-120447543D02*
X136978571Y-120447543D01*
X136572171Y-120186286D02*
X136891486Y-120186286D01*
X136949543Y-120215314D01*
X136978571Y-120273372D01*
X136978571Y-120360457D01*
X136949543Y-120418514D01*
X136920514Y-120447543D01*
D16*
X129177381Y-94329334D02*
X128701190Y-93996000D01*
X129177381Y-93757905D02*
X128177381Y-93757905D01*
X128177381Y-94138858D01*
X128225000Y-94234096D01*
X128272619Y-94281715D01*
X128367857Y-94329334D01*
X128510714Y-94329334D01*
X128605952Y-94281715D01*
X128653571Y-94234096D01*
X128701190Y-94138858D01*
X128701190Y-93757905D01*
X128272619Y-94710286D02*
X128225000Y-94757905D01*
X128177381Y-94853143D01*
X128177381Y-95091239D01*
X128225000Y-95186477D01*
X128272619Y-95234096D01*
X128367857Y-95281715D01*
X128463095Y-95281715D01*
X128605952Y-95234096D01*
X129177381Y-94662667D01*
X129177381Y-95281715D01*
X136818666Y-96144381D02*
X137152000Y-95668190D01*
X137390095Y-96144381D02*
X137390095Y-95144381D01*
X137009142Y-95144381D01*
X136913904Y-95192000D01*
X136866285Y-95239619D01*
X136818666Y-95334857D01*
X136818666Y-95477714D01*
X136866285Y-95572952D01*
X136913904Y-95620571D01*
X137009142Y-95668190D01*
X137390095Y-95668190D01*
X136485333Y-95144381D02*
X135866285Y-95144381D01*
X136199619Y-95525333D01*
X136056761Y-95525333D01*
X135961523Y-95572952D01*
X135913904Y-95620571D01*
X135866285Y-95715810D01*
X135866285Y-95953905D01*
X135913904Y-96049143D01*
X135961523Y-96096762D01*
X136056761Y-96144381D01*
X136342476Y-96144381D01*
X136437714Y-96096762D01*
X136485333Y-96049143D01*
X167764381Y-94202334D02*
X167288190Y-93869000D01*
X167764381Y-93630905D02*
X166764381Y-93630905D01*
X166764381Y-94011858D01*
X166812000Y-94107096D01*
X166859619Y-94154715D01*
X166954857Y-94202334D01*
X167097714Y-94202334D01*
X167192952Y-94154715D01*
X167240571Y-94107096D01*
X167288190Y-94011858D01*
X167288190Y-93630905D01*
X167097714Y-95059477D02*
X167764381Y-95059477D01*
X166716762Y-94821381D02*
X167431048Y-94583286D01*
X167431048Y-95202334D01*
X132500666Y-114072381D02*
X132834000Y-113596190D01*
X133072095Y-114072381D02*
X133072095Y-113072381D01*
X132691142Y-113072381D01*
X132595904Y-113120000D01*
X132548285Y-113167619D01*
X132500666Y-113262857D01*
X132500666Y-113405714D01*
X132548285Y-113500952D01*
X132595904Y-113548571D01*
X132691142Y-113596190D01*
X133072095Y-113596190D01*
X131595904Y-113072381D02*
X132072095Y-113072381D01*
X132119714Y-113548571D01*
X132072095Y-113500952D01*
X131976857Y-113453333D01*
X131738761Y-113453333D01*
X131643523Y-113500952D01*
X131595904Y-113548571D01*
X131548285Y-113643810D01*
X131548285Y-113881905D01*
X131595904Y-113977143D01*
X131643523Y-114024762D01*
X131738761Y-114072381D01*
X131976857Y-114072381D01*
X132072095Y-114024762D01*
X132119714Y-113977143D01*
X137072666Y-114072381D02*
X137406000Y-113596190D01*
X137644095Y-114072381D02*
X137644095Y-113072381D01*
X137263142Y-113072381D01*
X137167904Y-113120000D01*
X137120285Y-113167619D01*
X137072666Y-113262857D01*
X137072666Y-113405714D01*
X137120285Y-113500952D01*
X137167904Y-113548571D01*
X137263142Y-113596190D01*
X137644095Y-113596190D01*
X136215523Y-113072381D02*
X136406000Y-113072381D01*
X136501238Y-113120000D01*
X136548857Y-113167619D01*
X136644095Y-113310476D01*
X136691714Y-113500952D01*
X136691714Y-113881905D01*
X136644095Y-113977143D01*
X136596476Y-114024762D01*
X136501238Y-114072381D01*
X136310761Y-114072381D01*
X136215523Y-114024762D01*
X136167904Y-113977143D01*
X136120285Y-113881905D01*
X136120285Y-113643810D01*
X136167904Y-113548571D01*
X136215523Y-113500952D01*
X136310761Y-113453333D01*
X136501238Y-113453333D01*
X136596476Y-113500952D01*
X136644095Y-113548571D01*
X136691714Y-113643810D01*
X160186666Y-114072381D02*
X160520000Y-113596190D01*
X160758095Y-114072381D02*
X160758095Y-113072381D01*
X160377142Y-113072381D01*
X160281904Y-113120000D01*
X160234285Y-113167619D01*
X160186666Y-113262857D01*
X160186666Y-113405714D01*
X160234285Y-113500952D01*
X160281904Y-113548571D01*
X160377142Y-113596190D01*
X160758095Y-113596190D01*
X159853333Y-113072381D02*
X159186666Y-113072381D01*
X159615238Y-114072381D01*
X164758666Y-114072381D02*
X165092000Y-113596190D01*
X165330095Y-114072381D02*
X165330095Y-113072381D01*
X164949142Y-113072381D01*
X164853904Y-113120000D01*
X164806285Y-113167619D01*
X164758666Y-113262857D01*
X164758666Y-113405714D01*
X164806285Y-113500952D01*
X164853904Y-113548571D01*
X164949142Y-113596190D01*
X165330095Y-113596190D01*
X164187238Y-113500952D02*
X164282476Y-113453333D01*
X164330095Y-113405714D01*
X164377714Y-113310476D01*
X164377714Y-113262857D01*
X164330095Y-113167619D01*
X164282476Y-113120000D01*
X164187238Y-113072381D01*
X163996761Y-113072381D01*
X163901523Y-113120000D01*
X163853904Y-113167619D01*
X163806285Y-113262857D01*
X163806285Y-113310476D01*
X163853904Y-113405714D01*
X163901523Y-113453333D01*
X163996761Y-113500952D01*
X164187238Y-113500952D01*
X164282476Y-113548571D01*
X164330095Y-113596190D01*
X164377714Y-113691429D01*
X164377714Y-113881905D01*
X164330095Y-113977143D01*
X164282476Y-114024762D01*
X164187238Y-114072381D01*
X163996761Y-114072381D01*
X163901523Y-114024762D01*
X163853904Y-113977143D01*
X163806285Y-113881905D01*
X163806285Y-113691429D01*
X163853904Y-113596190D01*
X163901523Y-113548571D01*
X163996761Y-113500952D01*
X161298857Y-90305981D02*
X161632191Y-89829790D01*
X161870286Y-90305981D02*
X161870286Y-89305981D01*
X161489333Y-89305981D01*
X161394095Y-89353600D01*
X161346476Y-89401219D01*
X161298857Y-89496457D01*
X161298857Y-89639314D01*
X161346476Y-89734552D01*
X161394095Y-89782171D01*
X161489333Y-89829790D01*
X161870286Y-89829790D01*
X160346476Y-90305981D02*
X160917905Y-90305981D01*
X160632191Y-90305981D02*
X160632191Y-89305981D01*
X160727429Y-89448838D01*
X160822667Y-89544076D01*
X160917905Y-89591695D01*
X159727429Y-89305981D02*
X159632190Y-89305981D01*
X159536952Y-89353600D01*
X159489333Y-89401219D01*
X159441714Y-89496457D01*
X159394095Y-89686933D01*
X159394095Y-89925029D01*
X159441714Y-90115505D01*
X159489333Y-90210743D01*
X159536952Y-90258362D01*
X159632190Y-90305981D01*
X159727429Y-90305981D01*
X159822667Y-90258362D01*
X159870286Y-90210743D01*
X159917905Y-90115505D01*
X159965524Y-89925029D01*
X159965524Y-89686933D01*
X159917905Y-89496457D01*
X159870286Y-89401219D01*
X159822667Y-89353600D01*
X159727429Y-89305981D01*
D18*
X143640544Y-122611099D02*
X144668639Y-122611099D01*
X144789591Y-122671575D01*
X144850068Y-122732051D01*
X144910544Y-122853004D01*
X144910544Y-123094908D01*
X144850068Y-123215861D01*
X144789591Y-123276337D01*
X144668639Y-123336813D01*
X143640544Y-123336813D01*
X144850068Y-123881099D02*
X144910544Y-124062527D01*
X144910544Y-124364908D01*
X144850068Y-124485861D01*
X144789591Y-124546337D01*
X144668639Y-124606813D01*
X144547687Y-124606813D01*
X144426734Y-124546337D01*
X144366258Y-124485861D01*
X144305782Y-124364908D01*
X144245306Y-124123004D01*
X144184830Y-124002051D01*
X144124353Y-123941575D01*
X144003401Y-123881099D01*
X143882449Y-123881099D01*
X143761496Y-123941575D01*
X143701020Y-124002051D01*
X143640544Y-124123004D01*
X143640544Y-124425384D01*
X143701020Y-124606813D01*
X143459115Y-124243956D02*
X145091972Y-124243956D01*
X143761496Y-125090623D02*
X143701020Y-125151099D01*
X143640544Y-125272051D01*
X143640544Y-125574432D01*
X143701020Y-125695385D01*
X143761496Y-125755861D01*
X143882449Y-125816337D01*
X144003401Y-125816337D01*
X144184830Y-125755861D01*
X144910544Y-125030147D01*
X144910544Y-125816337D01*
D16*
X146244286Y-100440285D02*
X146316857Y-100367714D01*
X146389429Y-100150000D01*
X146389429Y-100004857D01*
X146316857Y-99787142D01*
X146171714Y-99642000D01*
X146026571Y-99569428D01*
X145736286Y-99496857D01*
X145518571Y-99496857D01*
X145228286Y-99569428D01*
X145083143Y-99642000D01*
X144938000Y-99787142D01*
X144865429Y-100004857D01*
X144865429Y-100150000D01*
X144938000Y-100367714D01*
X145010571Y-100440285D01*
X144865429Y-101383714D02*
X144865429Y-101674000D01*
X144938000Y-101819142D01*
X145083143Y-101964285D01*
X145373429Y-102036857D01*
X145881429Y-102036857D01*
X146171714Y-101964285D01*
X146316857Y-101819142D01*
X146389429Y-101674000D01*
X146389429Y-101383714D01*
X146316857Y-101238571D01*
X146171714Y-101093428D01*
X145881429Y-101020857D01*
X145373429Y-101020857D01*
X145083143Y-101093428D01*
X144938000Y-101238571D01*
X144865429Y-101383714D01*
X146389429Y-102689999D02*
X144865429Y-102689999D01*
X146389429Y-103560856D01*
X144865429Y-103560856D01*
X146389429Y-104286570D02*
X144865429Y-104286570D01*
X146389429Y-105157427D01*
X144865429Y-105157427D01*
X145591143Y-105883141D02*
X145591143Y-106391141D01*
X146389429Y-106608855D02*
X146389429Y-105883141D01*
X144865429Y-105883141D01*
X144865429Y-106608855D01*
X146244286Y-108132855D02*
X146316857Y-108060284D01*
X146389429Y-107842570D01*
X146389429Y-107697427D01*
X146316857Y-107479712D01*
X146171714Y-107334570D01*
X146026571Y-107261998D01*
X145736286Y-107189427D01*
X145518571Y-107189427D01*
X145228286Y-107261998D01*
X145083143Y-107334570D01*
X144938000Y-107479712D01*
X144865429Y-107697427D01*
X144865429Y-107842570D01*
X144938000Y-108060284D01*
X145010571Y-108132855D01*
X144865429Y-108568284D02*
X144865429Y-109439141D01*
X146389429Y-109003712D02*
X144865429Y-109003712D01*
X144865429Y-110237427D02*
X144865429Y-110527713D01*
X144938000Y-110672855D01*
X145083143Y-110817998D01*
X145373429Y-110890570D01*
X145881429Y-110890570D01*
X146171714Y-110817998D01*
X146316857Y-110672855D01*
X146389429Y-110527713D01*
X146389429Y-110237427D01*
X146316857Y-110092284D01*
X146171714Y-109947141D01*
X145881429Y-109874570D01*
X145373429Y-109874570D01*
X145083143Y-109947141D01*
X144938000Y-110092284D01*
X144865429Y-110237427D01*
X146389429Y-112414569D02*
X145663714Y-111906569D01*
X146389429Y-111543712D02*
X144865429Y-111543712D01*
X144865429Y-112124284D01*
X144938000Y-112269426D01*
X145010571Y-112341998D01*
X145155714Y-112414569D01*
X145373429Y-112414569D01*
X145518571Y-112341998D01*
X145591143Y-112269426D01*
X145663714Y-112124284D01*
X145663714Y-111543712D01*
X146534571Y-112704855D02*
X146534571Y-113865998D01*
X144865429Y-114519141D02*
X144865429Y-114664284D01*
X144938000Y-114809427D01*
X145010571Y-114881998D01*
X145155714Y-114954569D01*
X145446000Y-115027141D01*
X145808857Y-115027141D01*
X146099143Y-114954569D01*
X146244286Y-114881998D01*
X146316857Y-114809427D01*
X146389429Y-114664284D01*
X146389429Y-114519141D01*
X146316857Y-114373998D01*
X146244286Y-114301427D01*
X146099143Y-114228855D01*
X145808857Y-114156284D01*
X145446000Y-114156284D01*
X145155714Y-114228855D01*
X145010571Y-114301427D01*
X144938000Y-114373998D01*
X144865429Y-114519141D01*
X145010571Y-115607713D02*
X144938000Y-115680284D01*
X144865429Y-115825427D01*
X144865429Y-116188284D01*
X144938000Y-116333427D01*
X145010571Y-116405998D01*
X145155714Y-116478570D01*
X145300857Y-116478570D01*
X145518571Y-116405998D01*
X146389429Y-115535141D01*
X146389429Y-116478570D01*
X146534571Y-116768856D02*
X146534571Y-117929999D01*
X144865429Y-118147713D02*
X146389429Y-119163713D01*
X144865429Y-119163713D02*
X146389429Y-118147713D01*
X146534571Y-119381428D02*
X146534571Y-120542571D01*
X144865429Y-121195714D02*
X144865429Y-121340857D01*
X144938000Y-121486000D01*
X145010571Y-121558571D01*
X145155714Y-121631142D01*
X145446000Y-121703714D01*
X145808857Y-121703714D01*
X146099143Y-121631142D01*
X146244286Y-121558571D01*
X146316857Y-121486000D01*
X146389429Y-121340857D01*
X146389429Y-121195714D01*
X146316857Y-121050571D01*
X146244286Y-120978000D01*
X146099143Y-120905428D01*
X145808857Y-120832857D01*
X145446000Y-120832857D01*
X145155714Y-120905428D01*
X145010571Y-120978000D01*
X144938000Y-121050571D01*
X144865429Y-121195714D01*
X144865429Y-122211714D02*
X144865429Y-123227714D01*
X146389429Y-122574571D01*
X145010571Y-123735715D02*
X144938000Y-123808286D01*
X144865429Y-123953429D01*
X144865429Y-124316286D01*
X144938000Y-124461429D01*
X145010571Y-124534000D01*
X145155714Y-124606572D01*
X145300857Y-124606572D01*
X145518571Y-124534000D01*
X146389429Y-123663143D01*
X146389429Y-124606572D01*
X146389429Y-125259715D02*
X144865429Y-125259715D01*
X145954000Y-125767715D01*
X144865429Y-126275715D01*
X146389429Y-126275715D01*
X146389429Y-127001429D02*
X144865429Y-127001429D01*
X145954000Y-127509429D01*
X144865429Y-128017429D01*
X146389429Y-128017429D01*
X146534571Y-128380286D02*
X146534571Y-129541429D01*
X146316857Y-129831715D02*
X146389429Y-130049429D01*
X146389429Y-130412286D01*
X146316857Y-130557429D01*
X146244286Y-130630000D01*
X146099143Y-130702572D01*
X145954000Y-130702572D01*
X145808857Y-130630000D01*
X145736286Y-130557429D01*
X145663714Y-130412286D01*
X145591143Y-130122000D01*
X145518571Y-129976858D01*
X145446000Y-129904286D01*
X145300857Y-129831715D01*
X145155714Y-129831715D01*
X145010571Y-129904286D01*
X144938000Y-129976858D01*
X144865429Y-130122000D01*
X144865429Y-130484858D01*
X144938000Y-130702572D01*
X146389429Y-131355715D02*
X144865429Y-131355715D01*
X144865429Y-131936287D01*
X144938000Y-132081429D01*
X145010571Y-132154001D01*
X145155714Y-132226572D01*
X145373429Y-132226572D01*
X145518571Y-132154001D01*
X145591143Y-132081429D01*
X145663714Y-131936287D01*
X145663714Y-131355715D01*
X145954000Y-132807144D02*
X145954000Y-133532858D01*
X146389429Y-132662001D02*
X144865429Y-133170001D01*
X146389429Y-133678001D01*
X146244286Y-135056858D02*
X146316857Y-134984287D01*
X146389429Y-134766573D01*
X146389429Y-134621430D01*
X146316857Y-134403715D01*
X146171714Y-134258573D01*
X146026571Y-134186001D01*
X145736286Y-134113430D01*
X145518571Y-134113430D01*
X145228286Y-134186001D01*
X145083143Y-134258573D01*
X144938000Y-134403715D01*
X144865429Y-134621430D01*
X144865429Y-134766573D01*
X144938000Y-134984287D01*
X145010571Y-135056858D01*
X146389429Y-135710001D02*
X144865429Y-135710001D01*
X146389429Y-136435715D02*
X144865429Y-136435715D01*
X146389429Y-137306572D01*
X144865429Y-137306572D01*
X144938000Y-138830572D02*
X144865429Y-138685429D01*
X144865429Y-138467715D01*
X144938000Y-138250000D01*
X145083143Y-138104858D01*
X145228286Y-138032286D01*
X145518571Y-137959715D01*
X145736286Y-137959715D01*
X146026571Y-138032286D01*
X146171714Y-138104858D01*
X146316857Y-138250000D01*
X146389429Y-138467715D01*
X146389429Y-138612858D01*
X146316857Y-138830572D01*
X146244286Y-138903143D01*
X145736286Y-138903143D01*
X145736286Y-138612858D01*
D19*
X146638772Y-123900089D02*
X146605510Y-123933351D01*
X146572248Y-123999874D01*
X146572248Y-124166184D01*
X146605510Y-124232708D01*
X146638772Y-124265970D01*
X146705296Y-124299231D01*
X146771820Y-124299231D01*
X146871605Y-124265970D01*
X147270748Y-123866827D01*
X147270748Y-124299231D01*
X161240748Y-123105552D02*
X161240748Y-122706410D01*
X161240748Y-122905981D02*
X160542248Y-122905981D01*
X160642034Y-122839457D01*
X160708558Y-122772933D01*
X160741820Y-122706410D01*
X160775081Y-123704267D02*
X161240748Y-123704267D01*
X160508986Y-123537957D02*
X161007915Y-123371648D01*
X161007915Y-123804052D01*
X161304248Y-119806092D02*
X161304248Y-119406950D01*
X161304248Y-119606521D02*
X160605748Y-119606521D01*
X160705534Y-119539997D01*
X160772058Y-119473473D01*
X160805320Y-119406950D01*
X160605748Y-120038926D02*
X160605748Y-120471330D01*
X160871843Y-120238497D01*
X160871843Y-120338283D01*
X160905105Y-120404807D01*
X160938367Y-120438069D01*
X161004891Y-120471330D01*
X161171200Y-120471330D01*
X161237724Y-120438069D01*
X161270986Y-120404807D01*
X161304248Y-120338283D01*
X161304248Y-120138711D01*
X161270986Y-120072188D01*
X161237724Y-120038926D01*
D17*
X154300162Y-113018648D02*
X154300162Y-113347638D01*
X154280810Y-113386343D01*
X154261457Y-113405695D01*
X154222753Y-113425048D01*
X154145343Y-113425048D01*
X154106638Y-113405695D01*
X154087286Y-113386343D01*
X154067934Y-113347638D01*
X154067934Y-113018648D01*
X153893762Y-113405695D02*
X153835705Y-113425048D01*
X153738943Y-113425048D01*
X153700239Y-113405695D01*
X153680886Y-113386343D01*
X153661534Y-113347638D01*
X153661534Y-113308933D01*
X153680886Y-113270229D01*
X153700239Y-113250876D01*
X153738943Y-113231524D01*
X153816353Y-113212171D01*
X153855058Y-113192819D01*
X153874410Y-113173467D01*
X153893762Y-113134762D01*
X153893762Y-113096057D01*
X153874410Y-113057352D01*
X153855058Y-113038000D01*
X153816353Y-113018648D01*
X153719591Y-113018648D01*
X153661534Y-113038000D01*
X153777648Y-112960590D02*
X153777648Y-113483105D01*
X153526067Y-113018648D02*
X153274486Y-113018648D01*
X153409953Y-113173467D01*
X153351895Y-113173467D01*
X153313191Y-113192819D01*
X153293838Y-113212171D01*
X153274486Y-113250876D01*
X153274486Y-113347638D01*
X153293838Y-113386343D01*
X153313191Y-113405695D01*
X153351895Y-113425048D01*
X153468010Y-113425048D01*
X153506714Y-113405695D01*
X153526067Y-113386343D01*
X154677533Y-110398819D02*
X154716238Y-110379467D01*
X154735590Y-110360114D01*
X154754942Y-110321410D01*
X154754942Y-110302057D01*
X154735590Y-110263352D01*
X154716238Y-110244000D01*
X154677533Y-110224648D01*
X154600123Y-110224648D01*
X154561419Y-110244000D01*
X154542066Y-110263352D01*
X154522714Y-110302057D01*
X154522714Y-110321410D01*
X154542066Y-110360114D01*
X154561419Y-110379467D01*
X154600123Y-110398819D01*
X154677533Y-110398819D01*
X154716238Y-110418171D01*
X154735590Y-110437524D01*
X154754942Y-110476229D01*
X154754942Y-110553638D01*
X154735590Y-110592343D01*
X154716238Y-110611695D01*
X154677533Y-110631048D01*
X154600123Y-110631048D01*
X154561419Y-110611695D01*
X154542066Y-110592343D01*
X154522714Y-110553638D01*
X154522714Y-110476229D01*
X154542066Y-110437524D01*
X154561419Y-110418171D01*
X154600123Y-110398819D01*
X154348542Y-110631048D02*
X154348542Y-110224648D01*
X154213075Y-110514933D01*
X154077609Y-110224648D01*
X154077609Y-110631048D01*
X153884085Y-110631048D02*
X153884085Y-110224648D01*
X153884085Y-110418171D02*
X153651857Y-110418171D01*
X153651857Y-110631048D02*
X153651857Y-110224648D01*
X153497038Y-110224648D02*
X153226105Y-110224648D01*
X153497038Y-110631048D01*
X153226105Y-110631048D01*
D16*
X150349381Y-113958905D02*
X151158905Y-113958905D01*
X151254143Y-114006524D01*
X151301762Y-114054143D01*
X151349381Y-114149381D01*
X151349381Y-114339858D01*
X151301762Y-114435096D01*
X151254143Y-114482715D01*
X151158905Y-114530334D01*
X150349381Y-114530334D01*
X151301762Y-114958905D02*
X151349381Y-115101762D01*
X151349381Y-115339858D01*
X151301762Y-115435096D01*
X151254143Y-115482715D01*
X151158905Y-115530334D01*
X151063667Y-115530334D01*
X150968429Y-115482715D01*
X150920810Y-115435096D01*
X150873190Y-115339858D01*
X150825571Y-115149381D01*
X150777952Y-115054143D01*
X150730333Y-115006524D01*
X150635095Y-114958905D01*
X150539857Y-114958905D01*
X150444619Y-115006524D01*
X150397000Y-115054143D01*
X150349381Y-115149381D01*
X150349381Y-115387477D01*
X150397000Y-115530334D01*
X150206524Y-115244619D02*
X151492238Y-115244619D01*
X150682714Y-116387477D02*
X151349381Y-116387477D01*
X150301762Y-116149381D02*
X151016048Y-115911286D01*
X151016048Y-116530334D01*
X161907857Y-85029029D02*
X161907857Y-86262743D01*
X161835285Y-86407886D01*
X161762714Y-86480457D01*
X161617571Y-86553029D01*
X161327285Y-86553029D01*
X161182143Y-86480457D01*
X161109571Y-86407886D01*
X161037000Y-86262743D01*
X161037000Y-85029029D01*
X160383857Y-86480457D02*
X160166143Y-86553029D01*
X159803286Y-86553029D01*
X159658143Y-86480457D01*
X159585572Y-86407886D01*
X159513000Y-86262743D01*
X159513000Y-86117600D01*
X159585572Y-85972457D01*
X159658143Y-85899886D01*
X159803286Y-85827314D01*
X160093572Y-85754743D01*
X160238714Y-85682171D01*
X160311286Y-85609600D01*
X160383857Y-85464457D01*
X160383857Y-85319314D01*
X160311286Y-85174171D01*
X160238714Y-85101600D01*
X160093572Y-85029029D01*
X159730714Y-85029029D01*
X159513000Y-85101600D01*
X159948429Y-84811314D02*
X159948429Y-86770743D01*
X159005000Y-85029029D02*
X157989000Y-85029029D01*
X158642143Y-86553029D01*
X168838429Y-86553029D02*
X169346429Y-85827314D01*
X169709286Y-86553029D02*
X169709286Y-85029029D01*
X169128714Y-85029029D01*
X168983572Y-85101600D01*
X168911000Y-85174171D01*
X168838429Y-85319314D01*
X168838429Y-85537029D01*
X168911000Y-85682171D01*
X168983572Y-85754743D01*
X169128714Y-85827314D01*
X169709286Y-85827314D01*
X167677286Y-85754743D02*
X168185286Y-85754743D01*
X168185286Y-86553029D02*
X168185286Y-85029029D01*
X167459572Y-85029029D01*
X166879000Y-86553029D02*
X166879000Y-85029029D01*
X166371000Y-86117600D01*
X165863000Y-85029029D01*
X165863000Y-86553029D01*
X164339000Y-86553029D02*
X165209857Y-86553029D01*
X164774429Y-86553029D02*
X164774429Y-85029029D01*
X164919572Y-85246743D01*
X165064714Y-85391886D01*
X165209857Y-85464457D01*
X163758428Y-85174171D02*
X163685857Y-85101600D01*
X163540714Y-85029029D01*
X163177857Y-85029029D01*
X163032714Y-85101600D01*
X162960143Y-85174171D01*
X162887571Y-85319314D01*
X162887571Y-85464457D01*
X162960143Y-85682171D01*
X163831000Y-86553029D01*
X162887571Y-86553029D01*
X161726428Y-85754743D02*
X161508714Y-85827314D01*
X161436142Y-85899886D01*
X161363571Y-86045029D01*
X161363571Y-86262743D01*
X161436142Y-86407886D01*
X161508714Y-86480457D01*
X161653856Y-86553029D01*
X162234428Y-86553029D01*
X162234428Y-85029029D01*
X161726428Y-85029029D01*
X161581285Y-85101600D01*
X161508714Y-85174171D01*
X161436142Y-85319314D01*
X161436142Y-85464457D01*
X161508714Y-85609600D01*
X161581285Y-85682171D01*
X161726428Y-85754743D01*
X162234428Y-85754743D01*
X161073285Y-86698171D02*
X159912142Y-86698171D01*
X159621856Y-86117600D02*
X158896142Y-86117600D01*
X159766999Y-86553029D02*
X159258999Y-85029029D01*
X158750999Y-86553029D01*
X158242999Y-86553029D02*
X158242999Y-85029029D01*
X157372142Y-86553029D01*
X157372142Y-85029029D01*
X156864142Y-85029029D02*
X155993285Y-85029029D01*
X156428714Y-86553029D02*
X156428714Y-85029029D01*
X155485285Y-85754743D02*
X154977285Y-85754743D01*
X154759571Y-86553029D02*
X155485285Y-86553029D01*
X155485285Y-85029029D01*
X154759571Y-85029029D01*
X154106428Y-86553029D02*
X154106428Y-85029029D01*
X153235571Y-86553029D01*
X153235571Y-85029029D01*
X152509857Y-86553029D02*
X152509857Y-85029029D01*
X151639000Y-86553029D01*
X151639000Y-85029029D01*
X150985857Y-86117600D02*
X150260143Y-86117600D01*
X151131000Y-86553029D02*
X150623000Y-85029029D01*
X150115000Y-86553029D01*
D20*
X163694323Y-94714895D02*
X163694323Y-95372876D01*
X163655618Y-95450286D01*
X163616914Y-95488990D01*
X163539504Y-95527695D01*
X163384685Y-95527695D01*
X163307276Y-95488990D01*
X163268571Y-95450286D01*
X163229866Y-95372876D01*
X163229866Y-94714895D01*
X162881523Y-95488990D02*
X162765409Y-95527695D01*
X162571885Y-95527695D01*
X162494475Y-95488990D01*
X162455771Y-95450286D01*
X162417066Y-95372876D01*
X162417066Y-95295467D01*
X162455771Y-95218057D01*
X162494475Y-95179352D01*
X162571885Y-95140648D01*
X162726704Y-95101943D01*
X162804113Y-95063238D01*
X162842818Y-95024533D01*
X162881523Y-94947124D01*
X162881523Y-94869714D01*
X162842818Y-94792305D01*
X162804113Y-94753600D01*
X162726704Y-94714895D01*
X162533180Y-94714895D01*
X162417066Y-94753600D01*
X162649294Y-94598781D02*
X162649294Y-95643810D01*
X161952609Y-95063238D02*
X162030018Y-95024533D01*
X162068723Y-94985829D01*
X162107428Y-94908419D01*
X162107428Y-94869714D01*
X162068723Y-94792305D01*
X162030018Y-94753600D01*
X161952609Y-94714895D01*
X161797790Y-94714895D01*
X161720380Y-94753600D01*
X161681676Y-94792305D01*
X161642971Y-94869714D01*
X161642971Y-94908419D01*
X161681676Y-94985829D01*
X161720380Y-95024533D01*
X161797790Y-95063238D01*
X161952609Y-95063238D01*
X162030018Y-95101943D01*
X162068723Y-95140648D01*
X162107428Y-95218057D01*
X162107428Y-95372876D01*
X162068723Y-95450286D01*
X162030018Y-95488990D01*
X161952609Y-95527695D01*
X161797790Y-95527695D01*
X161720380Y-95488990D01*
X161681676Y-95450286D01*
X161642971Y-95372876D01*
X161642971Y-95218057D01*
X161681676Y-95140648D01*
X161720380Y-95101943D01*
X161797790Y-95063238D01*
X168482223Y-90992707D02*
X168095175Y-90992707D01*
X168559632Y-91224935D02*
X168288699Y-90412135D01*
X168017766Y-91224935D01*
X167862946Y-90412135D02*
X167398489Y-90412135D01*
X167630718Y-91224935D02*
X167630718Y-90412135D01*
X167166261Y-90489545D02*
X167127556Y-90450840D01*
X167050147Y-90412135D01*
X166856623Y-90412135D01*
X166779213Y-90450840D01*
X166740509Y-90489545D01*
X166701804Y-90566954D01*
X166701804Y-90644364D01*
X166740509Y-90760478D01*
X167204966Y-91224935D01*
X166701804Y-91224935D01*
X165966414Y-90412135D02*
X166353461Y-90412135D01*
X166392166Y-90799183D01*
X166353461Y-90760478D01*
X166276052Y-90721773D01*
X166082528Y-90721773D01*
X166005118Y-90760478D01*
X165966414Y-90799183D01*
X165927709Y-90876592D01*
X165927709Y-91070116D01*
X165966414Y-91147526D01*
X166005118Y-91186230D01*
X166082528Y-91224935D01*
X166276052Y-91224935D01*
X166353461Y-91186230D01*
X166392166Y-91147526D01*
X165579366Y-91224935D02*
X165579366Y-90412135D01*
X165385842Y-90412135D01*
X165269728Y-90450840D01*
X165192319Y-90528250D01*
X165153614Y-90605659D01*
X165114909Y-90760478D01*
X165114909Y-90876592D01*
X165153614Y-91031411D01*
X165192319Y-91108821D01*
X165269728Y-91186230D01*
X165385842Y-91224935D01*
X165579366Y-91224935D01*
X164495633Y-90799183D02*
X164766566Y-90799183D01*
X164766566Y-91224935D02*
X164766566Y-90412135D01*
X164379519Y-90412135D01*
X163682833Y-90412135D02*
X164069880Y-90412135D01*
X164108585Y-90799183D01*
X164069880Y-90760478D01*
X163992471Y-90721773D01*
X163798947Y-90721773D01*
X163721537Y-90760478D01*
X163682833Y-90799183D01*
X163644128Y-90876592D01*
X163644128Y-91070116D01*
X163682833Y-91147526D01*
X163721537Y-91186230D01*
X163798947Y-91224935D01*
X163992471Y-91224935D01*
X164069880Y-91186230D01*
X164108585Y-91147526D01*
X162870033Y-91224935D02*
X163334490Y-91224935D01*
X163102261Y-91224935D02*
X163102261Y-90412135D01*
X163179671Y-90528250D01*
X163257080Y-90605659D01*
X163334490Y-90644364D01*
X162560395Y-90489545D02*
X162521690Y-90450840D01*
X162444281Y-90412135D01*
X162250757Y-90412135D01*
X162173347Y-90450840D01*
X162134643Y-90489545D01*
X162095938Y-90566954D01*
X162095938Y-90644364D01*
X162134643Y-90760478D01*
X162599100Y-91224935D01*
X162095938Y-91224935D01*
X161283138Y-91147526D02*
X161321843Y-91186230D01*
X161437957Y-91224935D01*
X161515367Y-91224935D01*
X161631481Y-91186230D01*
X161708890Y-91108821D01*
X161747595Y-91031411D01*
X161786300Y-90876592D01*
X161786300Y-90760478D01*
X161747595Y-90605659D01*
X161708890Y-90528250D01*
X161631481Y-90450840D01*
X161515367Y-90412135D01*
X161437957Y-90412135D01*
X161321843Y-90450840D01*
X161283138Y-90489545D01*
X161128319Y-91302345D02*
X160509043Y-91302345D01*
X160315519Y-91224935D02*
X160315519Y-90412135D01*
X160044586Y-90992707D01*
X159773653Y-90412135D01*
X159773653Y-91224935D01*
X159425310Y-90992707D02*
X159038262Y-90992707D01*
X159502719Y-91224935D02*
X159231786Y-90412135D01*
X158960853Y-91224935D01*
X158689919Y-91224935D02*
X158689919Y-90412135D01*
X158689919Y-90799183D02*
X158225462Y-90799183D01*
X158225462Y-91224935D02*
X158225462Y-90412135D01*
X157838414Y-91224935D02*
X157838414Y-90412135D01*
X157373957Y-91224935D01*
X157373957Y-90412135D01*
X157103023Y-90412135D02*
X156638566Y-90412135D01*
X156870795Y-91224935D02*
X156870795Y-90412135D01*
D14*
X136753116Y-88541635D02*
X136753116Y-89199616D01*
X136714411Y-89277026D01*
X136675707Y-89315730D01*
X136598297Y-89354435D01*
X136443478Y-89354435D01*
X136366069Y-89315730D01*
X136327364Y-89277026D01*
X136288659Y-89199616D01*
X136288659Y-88541635D01*
X135475859Y-89354435D02*
X135940316Y-89354435D01*
X135708087Y-89354435D02*
X135708087Y-88541635D01*
X135785497Y-88657750D01*
X135862906Y-88735159D01*
X135940316Y-88773864D01*
X138852970Y-93661187D02*
X138465922Y-93661187D01*
X138930379Y-93893415D02*
X138659446Y-93080615D01*
X138388513Y-93893415D01*
X138233693Y-93080615D02*
X137769236Y-93080615D01*
X138001465Y-93893415D02*
X138001465Y-93080615D01*
X137537008Y-93854710D02*
X137420894Y-93893415D01*
X137227370Y-93893415D01*
X137149960Y-93854710D01*
X137111256Y-93816006D01*
X137072551Y-93738596D01*
X137072551Y-93661187D01*
X137111256Y-93583777D01*
X137149960Y-93545072D01*
X137227370Y-93506368D01*
X137382189Y-93467663D01*
X137459598Y-93428958D01*
X137498303Y-93390253D01*
X137537008Y-93312844D01*
X137537008Y-93235434D01*
X137498303Y-93158025D01*
X137459598Y-93119320D01*
X137382189Y-93080615D01*
X137188665Y-93080615D01*
X137072551Y-93119320D01*
X136724208Y-93893415D02*
X136724208Y-93080615D01*
X136724208Y-93467663D02*
X136259751Y-93467663D01*
X136259751Y-93893415D02*
X136259751Y-93080615D01*
X135911408Y-93661187D02*
X135524360Y-93661187D01*
X135988817Y-93893415D02*
X135717884Y-93080615D01*
X135446951Y-93893415D01*
X135214722Y-93158025D02*
X135176017Y-93119320D01*
X135098608Y-93080615D01*
X134905084Y-93080615D01*
X134827674Y-93119320D01*
X134788970Y-93158025D01*
X134750265Y-93235434D01*
X134750265Y-93312844D01*
X134788970Y-93428958D01*
X135253427Y-93893415D01*
X134750265Y-93893415D01*
X134247103Y-93080615D02*
X134169694Y-93080615D01*
X134092284Y-93119320D01*
X134053579Y-93158025D01*
X134014875Y-93235434D01*
X133976170Y-93390253D01*
X133976170Y-93583777D01*
X134014875Y-93738596D01*
X134053579Y-93816006D01*
X134092284Y-93854710D01*
X134169694Y-93893415D01*
X134247103Y-93893415D01*
X134324513Y-93854710D01*
X134363217Y-93816006D01*
X134401922Y-93738596D01*
X134440627Y-93583777D01*
X134440627Y-93390253D01*
X134401922Y-93235434D01*
X134363217Y-93158025D01*
X134324513Y-93119320D01*
X134247103Y-93080615D01*
X133279484Y-93351549D02*
X133279484Y-93893415D01*
X133473008Y-93041910D02*
X133666532Y-93622482D01*
X133163370Y-93622482D01*
X132892437Y-93661187D02*
X132505389Y-93661187D01*
X132969846Y-93893415D02*
X132698913Y-93080615D01*
X132427980Y-93893415D01*
D13*
X152478619Y-96467524D02*
X152478619Y-97495619D01*
X152418143Y-97616571D01*
X152357667Y-97677048D01*
X152236714Y-97737524D01*
X151994810Y-97737524D01*
X151873857Y-97677048D01*
X151813381Y-97616571D01*
X151752905Y-97495619D01*
X151752905Y-96467524D01*
X151208619Y-96588476D02*
X151148143Y-96528000D01*
X151027191Y-96467524D01*
X150724810Y-96467524D01*
X150603857Y-96528000D01*
X150543381Y-96588476D01*
X150482905Y-96709429D01*
X150482905Y-96830381D01*
X150543381Y-97011810D01*
X151269095Y-97737524D01*
X150482905Y-97737524D01*
X153416000Y-86307524D02*
X153839333Y-85702762D01*
X154141714Y-86307524D02*
X154141714Y-85037524D01*
X153657905Y-85037524D01*
X153536952Y-85098000D01*
X153476476Y-85158476D01*
X153416000Y-85279429D01*
X153416000Y-85460857D01*
X153476476Y-85581810D01*
X153536952Y-85642286D01*
X153657905Y-85702762D01*
X154141714Y-85702762D01*
X152448381Y-85642286D02*
X152871714Y-85642286D01*
X152871714Y-86307524D02*
X152871714Y-85037524D01*
X152266952Y-85037524D01*
X151783143Y-86307524D02*
X151783143Y-85037524D01*
X151359810Y-85944667D01*
X150936476Y-85037524D01*
X150936476Y-86307524D01*
X149787428Y-85037524D02*
X150029333Y-85037524D01*
X150150285Y-85098000D01*
X150210762Y-85158476D01*
X150331714Y-85339905D01*
X150392190Y-85581810D01*
X150392190Y-86065619D01*
X150331714Y-86186571D01*
X150271238Y-86247048D01*
X150150285Y-86307524D01*
X149908381Y-86307524D01*
X149787428Y-86247048D01*
X149726952Y-86186571D01*
X149666476Y-86065619D01*
X149666476Y-85763238D01*
X149726952Y-85642286D01*
X149787428Y-85581810D01*
X149908381Y-85521333D01*
X150150285Y-85521333D01*
X150271238Y-85581810D01*
X150331714Y-85642286D01*
X150392190Y-85763238D01*
X149061714Y-86307524D02*
X148819809Y-86307524D01*
X148698857Y-86247048D01*
X148638381Y-86186571D01*
X148517428Y-86005143D01*
X148456952Y-85763238D01*
X148456952Y-85279429D01*
X148517428Y-85158476D01*
X148577904Y-85098000D01*
X148698857Y-85037524D01*
X148940761Y-85037524D01*
X149061714Y-85098000D01*
X149122190Y-85158476D01*
X149182666Y-85279429D01*
X149182666Y-85581810D01*
X149122190Y-85702762D01*
X149061714Y-85763238D01*
X148940761Y-85823714D01*
X148698857Y-85823714D01*
X148577904Y-85763238D01*
X148517428Y-85702762D01*
X148456952Y-85581810D01*
X148215047Y-86428476D02*
X147247428Y-86428476D01*
X146945047Y-86307524D02*
X146945047Y-85037524D01*
X146521714Y-85944667D01*
X146098380Y-85037524D01*
X146098380Y-86307524D01*
X145493618Y-86307524D02*
X145493618Y-85037524D01*
X144888856Y-86307524D02*
X144888856Y-85037524D01*
X144163142Y-86307524D01*
X144163142Y-85037524D01*
X143558380Y-86307524D02*
X143558380Y-85037524D01*
X142953618Y-86307524D02*
X142953618Y-85037524D01*
X142530285Y-85944667D01*
X142106951Y-85037524D01*
X142106951Y-86307524D01*
X141562665Y-85944667D02*
X140957903Y-85944667D01*
X141683618Y-86307524D02*
X141260284Y-85037524D01*
X140836951Y-86307524D01*
X139808856Y-86307524D02*
X140413618Y-86307524D01*
X140413618Y-85037524D01*
D21*
X154947257Y-85606000D02*
X154584400Y-85606000D01*
X155019829Y-85823714D02*
X154765829Y-85061714D01*
X154511829Y-85823714D01*
X154257828Y-85823714D02*
X154257828Y-85061714D01*
X153822400Y-85823714D01*
X153822400Y-85061714D01*
X153568400Y-85061714D02*
X153132971Y-85061714D01*
X153350685Y-85823714D02*
X153350685Y-85061714D01*
D22*
X154575933Y-87511000D02*
X153221266Y-87511000D01*
X153898599Y-88188333D02*
X153898599Y-86833667D01*
X154956933Y-89543000D02*
X153602266Y-89543000D01*
D16*
X140619047Y-105923810D02*
X140504761Y-105961905D01*
X140314285Y-105961905D01*
X140238095Y-105923810D01*
X140199999Y-105885714D01*
X140161904Y-105809524D01*
X140161904Y-105733333D01*
X140199999Y-105657143D01*
X140238095Y-105619048D01*
X140314285Y-105580952D01*
X140466666Y-105542857D01*
X140542857Y-105504762D01*
X140580952Y-105466667D01*
X140619047Y-105390476D01*
X140619047Y-105314286D01*
X140580952Y-105238095D01*
X140542857Y-105200000D01*
X140466666Y-105161905D01*
X140276190Y-105161905D01*
X140161904Y-105200000D01*
X139819047Y-105542857D02*
X139552380Y-105542857D01*
X139438094Y-105961905D02*
X139819047Y-105961905D01*
X139819047Y-105161905D01*
X139438094Y-105161905D01*
X139095237Y-105961905D02*
X139095237Y-105161905D01*
X138638094Y-105961905D01*
X138638094Y-105161905D01*
X138295237Y-105923810D02*
X138180951Y-105961905D01*
X137990475Y-105961905D01*
X137914285Y-105923810D01*
X137876189Y-105885714D01*
X137838094Y-105809524D01*
X137838094Y-105733333D01*
X137876189Y-105657143D01*
X137914285Y-105619048D01*
X137990475Y-105580952D01*
X138142856Y-105542857D01*
X138219047Y-105504762D01*
X138257142Y-105466667D01*
X138295237Y-105390476D01*
X138295237Y-105314286D01*
X138257142Y-105238095D01*
X138219047Y-105200000D01*
X138142856Y-105161905D01*
X137952380Y-105161905D01*
X137838094Y-105200000D01*
X137342856Y-105161905D02*
X137190475Y-105161905D01*
X137114284Y-105200000D01*
X137038094Y-105276190D01*
X136999999Y-105428571D01*
X136999999Y-105695238D01*
X137038094Y-105847619D01*
X137114284Y-105923810D01*
X137190475Y-105961905D01*
X137342856Y-105961905D01*
X137419046Y-105923810D01*
X137495237Y-105847619D01*
X137533332Y-105695238D01*
X137533332Y-105428571D01*
X137495237Y-105276190D01*
X137419046Y-105200000D01*
X137342856Y-105161905D01*
X136199999Y-105961905D02*
X136466666Y-105580952D01*
X136657142Y-105961905D02*
X136657142Y-105161905D01*
X136352380Y-105161905D01*
X136276189Y-105200000D01*
X136238094Y-105238095D01*
X136199999Y-105314286D01*
X136199999Y-105428571D01*
X136238094Y-105504762D01*
X136276189Y-105542857D01*
X136352380Y-105580952D01*
X136657142Y-105580952D01*
X136047618Y-106038095D02*
X135438094Y-106038095D01*
X135247618Y-105961905D02*
X135247618Y-105161905D01*
X134942856Y-105161905D01*
X134866665Y-105200000D01*
X134828570Y-105238095D01*
X134790475Y-105314286D01*
X134790475Y-105428571D01*
X134828570Y-105504762D01*
X134866665Y-105542857D01*
X134942856Y-105580952D01*
X135247618Y-105580952D01*
X134485713Y-105733333D02*
X134104761Y-105733333D01*
X134561904Y-105961905D02*
X134295237Y-105161905D01*
X134028570Y-105961905D01*
X133761904Y-105961905D02*
X133761904Y-105161905D01*
X133571428Y-105161905D01*
X133457142Y-105200000D01*
X133380951Y-105276190D01*
X133342856Y-105352381D01*
X133304761Y-105504762D01*
X133304761Y-105619048D01*
X133342856Y-105771429D01*
X133380951Y-105847619D01*
X133457142Y-105923810D01*
X133571428Y-105961905D01*
X133761904Y-105961905D01*
X133152380Y-106038095D02*
X132542856Y-106038095D01*
X131895237Y-105961905D02*
X132161904Y-105580952D01*
X132352380Y-105961905D02*
X132352380Y-105161905D01*
X132047618Y-105161905D01*
X131971427Y-105200000D01*
X131933332Y-105238095D01*
X131895237Y-105314286D01*
X131895237Y-105428571D01*
X131933332Y-105504762D01*
X131971427Y-105542857D01*
X132047618Y-105580952D01*
X132352380Y-105580952D01*
X131399999Y-105161905D02*
X131247618Y-105161905D01*
X131171427Y-105200000D01*
X131095237Y-105276190D01*
X131057142Y-105428571D01*
X131057142Y-105695238D01*
X131095237Y-105847619D01*
X131171427Y-105923810D01*
X131247618Y-105961905D01*
X131399999Y-105961905D01*
X131476189Y-105923810D01*
X131552380Y-105847619D01*
X131590475Y-105695238D01*
X131590475Y-105428571D01*
X131552380Y-105276190D01*
X131476189Y-105200000D01*
X131399999Y-105161905D01*
X130714285Y-105161905D02*
X130714285Y-105809524D01*
X130676190Y-105885714D01*
X130638094Y-105923810D01*
X130561904Y-105961905D01*
X130409523Y-105961905D01*
X130333332Y-105923810D01*
X130295237Y-105885714D01*
X130257142Y-105809524D01*
X130257142Y-105161905D01*
X129876190Y-105961905D02*
X129876190Y-105161905D01*
X129419047Y-105961905D01*
X129419047Y-105161905D01*
X129038095Y-105961905D02*
X129038095Y-105161905D01*
X128847619Y-105161905D01*
X128733333Y-105200000D01*
X128657142Y-105276190D01*
X128619047Y-105352381D01*
X128580952Y-105504762D01*
X128580952Y-105619048D01*
X128619047Y-105771429D01*
X128657142Y-105847619D01*
X128733333Y-105923810D01*
X128847619Y-105961905D01*
X129038095Y-105961905D01*
X168219047Y-105873810D02*
X168104761Y-105911905D01*
X167914285Y-105911905D01*
X167838095Y-105873810D01*
X167799999Y-105835714D01*
X167761904Y-105759524D01*
X167761904Y-105683333D01*
X167799999Y-105607143D01*
X167838095Y-105569048D01*
X167914285Y-105530952D01*
X168066666Y-105492857D01*
X168142857Y-105454762D01*
X168180952Y-105416667D01*
X168219047Y-105340476D01*
X168219047Y-105264286D01*
X168180952Y-105188095D01*
X168142857Y-105150000D01*
X168066666Y-105111905D01*
X167876190Y-105111905D01*
X167761904Y-105150000D01*
X167419047Y-105492857D02*
X167152380Y-105492857D01*
X167038094Y-105911905D02*
X167419047Y-105911905D01*
X167419047Y-105111905D01*
X167038094Y-105111905D01*
X166695237Y-105911905D02*
X166695237Y-105111905D01*
X166238094Y-105911905D01*
X166238094Y-105111905D01*
X165895237Y-105873810D02*
X165780951Y-105911905D01*
X165590475Y-105911905D01*
X165514285Y-105873810D01*
X165476189Y-105835714D01*
X165438094Y-105759524D01*
X165438094Y-105683333D01*
X165476189Y-105607143D01*
X165514285Y-105569048D01*
X165590475Y-105530952D01*
X165742856Y-105492857D01*
X165819047Y-105454762D01*
X165857142Y-105416667D01*
X165895237Y-105340476D01*
X165895237Y-105264286D01*
X165857142Y-105188095D01*
X165819047Y-105150000D01*
X165742856Y-105111905D01*
X165552380Y-105111905D01*
X165438094Y-105150000D01*
X164942856Y-105111905D02*
X164790475Y-105111905D01*
X164714284Y-105150000D01*
X164638094Y-105226190D01*
X164599999Y-105378571D01*
X164599999Y-105645238D01*
X164638094Y-105797619D01*
X164714284Y-105873810D01*
X164790475Y-105911905D01*
X164942856Y-105911905D01*
X165019046Y-105873810D01*
X165095237Y-105797619D01*
X165133332Y-105645238D01*
X165133332Y-105378571D01*
X165095237Y-105226190D01*
X165019046Y-105150000D01*
X164942856Y-105111905D01*
X163799999Y-105911905D02*
X164066666Y-105530952D01*
X164257142Y-105911905D02*
X164257142Y-105111905D01*
X163952380Y-105111905D01*
X163876189Y-105150000D01*
X163838094Y-105188095D01*
X163799999Y-105264286D01*
X163799999Y-105378571D01*
X163838094Y-105454762D01*
X163876189Y-105492857D01*
X163952380Y-105530952D01*
X164257142Y-105530952D01*
X163647618Y-105988095D02*
X163038094Y-105988095D01*
X162847618Y-105911905D02*
X162847618Y-105111905D01*
X162542856Y-105111905D01*
X162466665Y-105150000D01*
X162428570Y-105188095D01*
X162390475Y-105264286D01*
X162390475Y-105378571D01*
X162428570Y-105454762D01*
X162466665Y-105492857D01*
X162542856Y-105530952D01*
X162847618Y-105530952D01*
X162085713Y-105683333D02*
X161704761Y-105683333D01*
X162161904Y-105911905D02*
X161895237Y-105111905D01*
X161628570Y-105911905D01*
X161361904Y-105911905D02*
X161361904Y-105111905D01*
X161171428Y-105111905D01*
X161057142Y-105150000D01*
X160980951Y-105226190D01*
X160942856Y-105302381D01*
X160904761Y-105454762D01*
X160904761Y-105569048D01*
X160942856Y-105721429D01*
X160980951Y-105797619D01*
X161057142Y-105873810D01*
X161171428Y-105911905D01*
X161361904Y-105911905D01*
X160752380Y-105988095D02*
X160142856Y-105988095D01*
X159495237Y-105911905D02*
X159761904Y-105530952D01*
X159952380Y-105911905D02*
X159952380Y-105111905D01*
X159647618Y-105111905D01*
X159571427Y-105150000D01*
X159533332Y-105188095D01*
X159495237Y-105264286D01*
X159495237Y-105378571D01*
X159533332Y-105454762D01*
X159571427Y-105492857D01*
X159647618Y-105530952D01*
X159952380Y-105530952D01*
X158999999Y-105111905D02*
X158847618Y-105111905D01*
X158771427Y-105150000D01*
X158695237Y-105226190D01*
X158657142Y-105378571D01*
X158657142Y-105645238D01*
X158695237Y-105797619D01*
X158771427Y-105873810D01*
X158847618Y-105911905D01*
X158999999Y-105911905D01*
X159076189Y-105873810D01*
X159152380Y-105797619D01*
X159190475Y-105645238D01*
X159190475Y-105378571D01*
X159152380Y-105226190D01*
X159076189Y-105150000D01*
X158999999Y-105111905D01*
X158314285Y-105111905D02*
X158314285Y-105759524D01*
X158276190Y-105835714D01*
X158238094Y-105873810D01*
X158161904Y-105911905D01*
X158009523Y-105911905D01*
X157933332Y-105873810D01*
X157895237Y-105835714D01*
X157857142Y-105759524D01*
X157857142Y-105111905D01*
X157476190Y-105911905D02*
X157476190Y-105111905D01*
X157019047Y-105911905D01*
X157019047Y-105111905D01*
X156638095Y-105911905D02*
X156638095Y-105111905D01*
X156447619Y-105111905D01*
X156333333Y-105150000D01*
X156257142Y-105226190D01*
X156219047Y-105302381D01*
X156180952Y-105454762D01*
X156180952Y-105569048D01*
X156219047Y-105721429D01*
X156257142Y-105797619D01*
X156333333Y-105873810D01*
X156447619Y-105911905D01*
X156638095Y-105911905D01*
X141926643Y-121031143D02*
X141974262Y-120983524D01*
X142021881Y-120840667D01*
X142021881Y-120745429D01*
X141974262Y-120602571D01*
X141879024Y-120507333D01*
X141783786Y-120459714D01*
X141593310Y-120412095D01*
X141450452Y-120412095D01*
X141259976Y-120459714D01*
X141164738Y-120507333D01*
X141069500Y-120602571D01*
X141021881Y-120745429D01*
X141021881Y-120840667D01*
X141069500Y-120983524D01*
X141117119Y-121031143D01*
X142021881Y-121983524D02*
X142021881Y-121412095D01*
X142021881Y-121697809D02*
X141021881Y-121697809D01*
X141164738Y-121602571D01*
X141259976Y-121507333D01*
X141307595Y-121412095D01*
X141021881Y-122316857D02*
X141021881Y-122935905D01*
X141402833Y-122602571D01*
X141402833Y-122745429D01*
X141450452Y-122840667D01*
X141498071Y-122888286D01*
X141593310Y-122935905D01*
X141831405Y-122935905D01*
X141926643Y-122888286D01*
X141974262Y-122840667D01*
X142021881Y-122745429D01*
X142021881Y-122459714D01*
X141974262Y-122364476D01*
X141926643Y-122316857D01*
X144565666Y-113375143D02*
X144613285Y-113422762D01*
X144756142Y-113470381D01*
X144851380Y-113470381D01*
X144994238Y-113422762D01*
X145089476Y-113327524D01*
X145137095Y-113232286D01*
X145184714Y-113041810D01*
X145184714Y-112898952D01*
X145137095Y-112708476D01*
X145089476Y-112613238D01*
X144994238Y-112518000D01*
X144851380Y-112470381D01*
X144756142Y-112470381D01*
X144613285Y-112518000D01*
X144565666Y-112565619D01*
X144184714Y-112565619D02*
X144137095Y-112518000D01*
X144041857Y-112470381D01*
X143803761Y-112470381D01*
X143708523Y-112518000D01*
X143660904Y-112565619D01*
X143613285Y-112660857D01*
X143613285Y-112756095D01*
X143660904Y-112898952D01*
X144232333Y-113470381D01*
X143613285Y-113470381D01*
%LPC*%
D23*
X143299000Y-115385000D03*
X143299000Y-114435000D03*
X143299000Y-113485000D03*
X145499000Y-113485000D03*
X145499000Y-115385000D03*
X145499000Y-114435000D03*
D24*
X152629600Y-102749920D03*
X152629600Y-103550020D03*
X152629600Y-104350120D03*
X152629600Y-105150220D03*
X152629600Y-105947780D03*
X152629600Y-106747880D03*
X152629600Y-107547980D03*
X152629600Y-108348080D03*
D25*
X151136080Y-109841600D03*
X150335980Y-109841600D03*
X149535880Y-109841600D03*
X148735780Y-109841600D03*
X147938220Y-109841600D03*
X147138120Y-109841600D03*
X146338020Y-109841600D03*
X145537920Y-109841600D03*
D24*
X144046940Y-108348080D03*
X144046940Y-107547980D03*
X144046940Y-106747880D03*
X144046940Y-105947780D03*
X144046940Y-105150220D03*
X144046940Y-104350120D03*
X144046940Y-103550020D03*
X144046940Y-102749920D03*
D25*
X145537920Y-101258940D03*
X146338020Y-101258940D03*
X147138120Y-101258940D03*
X147938220Y-101258940D03*
X148735780Y-101258940D03*
X149535880Y-101258940D03*
X150335980Y-101258940D03*
X151136080Y-101258940D03*
D26*
X143832000Y-100418000D03*
X142732000Y-100418000D03*
D27*
X158116000Y-87453600D03*
X158116000Y-89353600D03*
X156464000Y-116782000D03*
X156464000Y-114882000D03*
X132588000Y-93292000D03*
X132588000Y-95192000D03*
D26*
X153628000Y-109990000D03*
X154728000Y-109990000D03*
D28*
X154747000Y-118118000D03*
X152847000Y-118118000D03*
D27*
X141351000Y-115004000D03*
X141351000Y-113104000D03*
D28*
X143449000Y-117356000D03*
X145349000Y-117356000D03*
D29*
X149098000Y-112654460D03*
X149098000Y-115453540D03*
X140462000Y-120020460D03*
X140462000Y-122819540D03*
X137541000Y-120020460D03*
X137541000Y-122819540D03*
D30*
X130175000Y-93396000D03*
X130175000Y-95596000D03*
D31*
X135552000Y-94242000D03*
X137752000Y-94242000D03*
D30*
X165862000Y-95469000D03*
X165862000Y-93269000D03*
D31*
X133434000Y-115070000D03*
X131234000Y-115070000D03*
X138006000Y-115070000D03*
X135806000Y-115070000D03*
X161120000Y-115070000D03*
X158920000Y-115070000D03*
X165692000Y-115070000D03*
X163492000Y-115070000D03*
X159556000Y-88403600D03*
X161756000Y-88403600D03*
D32*
X146970000Y-120470000D03*
X146970000Y-122468980D03*
X148968980Y-120470000D03*
X148968980Y-122468980D03*
X150967960Y-120470000D03*
X150967960Y-122468980D03*
X152969480Y-120470000D03*
X152969480Y-122468980D03*
X154968460Y-120470000D03*
X154968460Y-122468980D03*
X156969980Y-120470000D03*
X156969980Y-122468980D03*
X158968960Y-120470000D03*
X158968960Y-122468980D03*
D33*
X152471120Y-111768000D03*
X153670000Y-111768000D03*
X154868880Y-111768000D03*
D34*
X152847000Y-114097000D03*
X153797000Y-114097000D03*
X154747000Y-114097000D03*
X154747000Y-116297000D03*
X152847000Y-116297000D03*
X153797000Y-116297000D03*
D35*
X160021000Y-85863600D03*
D36*
X161811700Y-91449060D03*
X163310300Y-91449060D03*
X162312080Y-94248140D03*
X162312080Y-91449060D03*
X163310300Y-94248140D03*
X162809920Y-94248140D03*
X161811700Y-94248140D03*
X162809920Y-91449060D03*
D37*
X137650220Y-92491940D03*
X135653780Y-92491940D03*
X136652000Y-89896060D03*
D38*
X156334460Y-85448520D03*
X140337540Y-95445960D03*
X156334460Y-89449020D03*
X140335000Y-85448520D03*
X140337540Y-97447480D03*
X156334460Y-93446980D03*
X156334460Y-97447480D03*
X140335000Y-87544020D03*
X156334460Y-95445960D03*
X156334460Y-87450040D03*
D39*
X143319500Y-120424000D03*
X143319500Y-122924000D03*
D28*
X143449000Y-111768000D03*
X145349000Y-111768000D03*
M02*
