G04 #@! TF.FileFunction,Copper,L2,Bot,Signal*
%FSLAX46Y46*%
G04 Gerber Fmt 4.6, Leading zero omitted, Abs format (unit mm)*
G04 Created by KiCad (PCBNEW 4.0.6) date 08/26/17 20:52:25*
%MOMM*%
%LPD*%
G01*
G04 APERTURE LIST*
%ADD10C,0.100000*%
%ADD11R,1.270000X0.533400*%
%ADD12R,0.533400X1.270000*%
%ADD13R,1.200000X0.750000*%
%ADD14R,0.900000X1.200000*%
%ADD15C,16.000000*%
%ADD16R,0.998220X0.899160*%
%ADD17R,0.750000X1.200000*%
%ADD18R,1.597660X1.399540*%
%ADD19R,1.200000X0.900000*%
%ADD20R,1.549400X0.599440*%
%ADD21R,1.798320X1.198880*%
%ADD22R,0.400000X1.200000*%
%ADD23R,0.500000X0.900000*%
%ADD24R,0.900000X0.500000*%
%ADD25C,1.305560*%
%ADD26C,0.812800*%
%ADD27C,0.685800*%
%ADD28C,0.304800*%
%ADD29C,0.254000*%
G04 APERTURE END LIST*
D10*
D11*
X144094200Y-104153080D03*
X144094200Y-103352980D03*
X144094200Y-102552880D03*
X144094200Y-101752780D03*
X144094200Y-100955220D03*
X144094200Y-100155120D03*
X144094200Y-99355020D03*
X144094200Y-98554920D03*
D12*
X145587720Y-97061400D03*
X146387820Y-97061400D03*
X147187920Y-97061400D03*
X147988020Y-97061400D03*
X148785580Y-97061400D03*
X149585680Y-97061400D03*
X150385780Y-97061400D03*
X151185880Y-97061400D03*
D11*
X152676860Y-98554920D03*
X152676860Y-99355020D03*
X152676860Y-100155120D03*
X152676860Y-100955220D03*
X152676860Y-101752780D03*
X152676860Y-102552880D03*
X152676860Y-103352980D03*
X152676860Y-104153080D03*
D12*
X151185880Y-105644060D03*
X150385780Y-105644060D03*
X149585680Y-105644060D03*
X148785580Y-105644060D03*
X147988020Y-105644060D03*
X147187920Y-105644060D03*
X146387820Y-105644060D03*
X145587720Y-105644060D03*
D13*
X146644400Y-109278800D03*
X144744400Y-109278800D03*
D14*
X136474200Y-120218400D03*
X136474200Y-122418400D03*
D15*
X134569200Y-105087800D03*
D14*
X156667200Y-91278000D03*
X156667200Y-89078000D03*
D16*
X160510220Y-87411940D03*
X158513780Y-87411940D03*
X159512000Y-84816060D03*
D17*
X156870400Y-85062400D03*
X156870400Y-86962400D03*
D18*
X143129000Y-120071260D03*
X143129000Y-122870340D03*
X140360400Y-120122060D03*
X140360400Y-122921140D03*
D19*
X158513600Y-89060400D03*
X160713600Y-89060400D03*
X133688000Y-115070000D03*
X131488000Y-115070000D03*
X137752000Y-115070000D03*
X135552000Y-115070000D03*
X161374000Y-115070000D03*
X159174000Y-115070000D03*
X165438000Y-115070000D03*
X163238000Y-115070000D03*
D20*
X146839940Y-87409400D03*
X146839940Y-88410160D03*
X146839940Y-89410920D03*
X146839940Y-90409140D03*
X146839940Y-91407360D03*
X146839940Y-92408120D03*
D21*
X149062440Y-86111460D03*
X149062440Y-93708600D03*
D17*
X138226800Y-120368400D03*
X138226800Y-122268400D03*
D13*
X154366000Y-118067200D03*
X152466000Y-118067200D03*
D22*
X150641600Y-117910400D03*
X149991600Y-117910400D03*
X149341600Y-117910400D03*
X148691600Y-117910400D03*
X148041600Y-117910400D03*
X147391600Y-117910400D03*
X146741600Y-117910400D03*
X146741600Y-111010400D03*
X147391600Y-111010400D03*
X148041600Y-111010400D03*
X148691600Y-111010400D03*
X149341600Y-111010400D03*
X149991600Y-111010400D03*
X150641600Y-111010400D03*
D15*
X162229800Y-105037000D03*
D23*
X144260000Y-114587400D03*
X142760000Y-114587400D03*
X144260000Y-112885600D03*
X142760000Y-112885600D03*
X153174000Y-114460400D03*
X154674000Y-114460400D03*
X153123200Y-112911000D03*
X154623200Y-112911000D03*
D24*
X150876000Y-107436600D03*
X150876000Y-108936600D03*
X148361400Y-107436600D03*
X148361400Y-108936600D03*
X149606000Y-107436600D03*
X149606000Y-108936600D03*
D25*
X146970000Y-120470000D03*
X146970000Y-122468980D03*
X148968980Y-120470000D03*
X148968980Y-122468980D03*
X150967960Y-120470000D03*
X150967960Y-122468980D03*
X152969480Y-120470000D03*
X152969480Y-122468980D03*
X154968460Y-120470000D03*
X154968460Y-122468980D03*
X156969980Y-120470000D03*
X156969980Y-122468980D03*
X158968960Y-120470000D03*
X158968960Y-122468980D03*
D26*
X151282400Y-102014400D03*
X149377400Y-100287200D03*
X146380200Y-101328600D03*
X144221200Y-117584600D03*
X141224000Y-117330600D03*
X148386800Y-87638000D03*
X151053800Y-86342600D03*
X157962600Y-93454600D03*
X158064200Y-85910800D03*
X145135600Y-110828200D03*
X135077200Y-118270400D03*
X138125200Y-123426600D03*
X145542000Y-99322000D03*
X151485600Y-107450000D03*
X152501600Y-116670200D03*
X159435800Y-85987000D03*
X151231600Y-99372800D03*
D27*
X146405600Y-102801800D03*
X148463000Y-90457400D03*
X146507200Y-94902400D03*
X152476200Y-104910000D03*
X147269200Y-99220400D03*
X145643600Y-103436800D03*
X148666200Y-103411400D03*
X149479000Y-102776400D03*
X149682200Y-94978600D03*
X150672800Y-92667200D03*
X150799800Y-90736800D03*
X156108400Y-91143200D03*
X151409400Y-88196800D03*
X152196800Y-86723600D03*
X150876000Y-89390600D03*
X154203400Y-98382200D03*
X144678400Y-107246800D03*
X151282400Y-100744400D03*
X129946400Y-115400200D03*
X138607800Y-115019200D03*
X158064200Y-115095400D03*
X166979600Y-115247800D03*
X148793200Y-95486600D03*
X152349200Y-108516800D03*
X151485600Y-103386000D03*
X153822400Y-111260000D03*
X157327600Y-118321200D03*
X148285200Y-98661600D03*
X148336000Y-107043600D03*
X147269200Y-114460400D03*
X147497800Y-116162200D03*
X156641800Y-111945800D03*
X140335000Y-111666400D03*
X147574000Y-112580800D03*
D28*
X151544020Y-101752780D02*
X152676860Y-101752780D01*
X151282400Y-102014400D02*
X151544020Y-101752780D01*
X149377400Y-101912800D02*
X149377400Y-100287200D01*
X152676860Y-101752780D02*
X151681180Y-101752780D01*
X152676860Y-101752780D02*
X151594820Y-101752780D01*
X146964400Y-101912800D02*
X146380200Y-101328600D01*
X151434800Y-101912800D02*
X149377400Y-101912800D01*
X149377400Y-101912800D02*
X146964400Y-101912800D01*
X151594820Y-101752780D02*
X151434800Y-101912800D01*
X150641600Y-111920400D02*
X150641600Y-112942200D01*
X145516598Y-113139598D02*
X145973800Y-113596800D01*
X145973800Y-113596800D02*
X149987000Y-113596800D01*
X149987000Y-113596800D02*
X150641600Y-112942200D01*
X145135600Y-112809400D02*
X145465798Y-113139598D01*
X145135600Y-112809400D02*
X145135600Y-110828200D01*
X145465798Y-113139598D02*
X145516598Y-113139598D01*
X146380200Y-101328600D02*
X146006820Y-100955220D01*
X146006820Y-100955220D02*
X144094200Y-100955220D01*
X141478000Y-117584600D02*
X144221200Y-117584600D01*
X141224000Y-117330600D02*
X141478000Y-117584600D01*
D29*
X150641600Y-111010400D02*
X150641600Y-111920400D01*
X150641600Y-111920400D02*
X150641600Y-111926200D01*
D28*
X146839940Y-88410160D02*
X147614640Y-88410160D01*
X147614640Y-88410160D02*
X148386800Y-87638000D01*
X151053800Y-86342600D02*
X151663400Y-85733000D01*
X151663400Y-85733000D02*
X153111200Y-85733000D01*
X153111200Y-85733000D02*
X154051000Y-86672800D01*
X154051000Y-86672800D02*
X154051000Y-91041600D01*
X154051000Y-91041600D02*
X156464000Y-93454600D01*
X156464000Y-93454600D02*
X157962600Y-93454600D01*
X156580800Y-85062400D02*
X156870400Y-85062400D01*
D29*
X158064200Y-85910800D02*
X159158940Y-84816060D01*
X159158940Y-84816060D02*
X159512000Y-84816060D01*
X159512000Y-84816060D02*
X157116740Y-84816060D01*
X157116740Y-84816060D02*
X156870400Y-85062400D01*
D28*
X145135600Y-109771600D02*
X144922200Y-109558200D01*
X145135600Y-110828200D02*
X145135600Y-109771600D01*
X145821400Y-100973000D02*
X145821400Y-101176200D01*
X145821400Y-101176200D02*
X145542000Y-101455600D01*
D29*
X163492000Y-115070000D02*
X163492000Y-115128600D01*
X163492000Y-115128600D02*
X161188400Y-117432200D01*
X161188400Y-117432200D02*
X155001000Y-117432200D01*
X155001000Y-117432200D02*
X154366000Y-118067200D01*
D28*
X144094200Y-102552880D02*
X145460720Y-102552880D01*
X145821400Y-102192200D02*
X145821400Y-100973000D01*
X145460720Y-102552880D02*
X145821400Y-102192200D01*
X145821400Y-100973000D02*
X144111980Y-100973000D01*
X144111980Y-100973000D02*
X144094200Y-100955220D01*
X135806000Y-115070000D02*
X135806000Y-117541600D01*
X135806000Y-117541600D02*
X135077200Y-118270400D01*
X138226800Y-123325000D02*
X138226800Y-122268400D01*
X138125200Y-123426600D02*
X138226800Y-123325000D01*
X148968980Y-122468980D02*
X148968980Y-122586380D01*
X138226800Y-122268400D02*
X139707660Y-122268400D01*
X139707660Y-122268400D02*
X140360400Y-122921140D01*
X143129000Y-122870340D02*
X140411200Y-122870340D01*
X140411200Y-122870340D02*
X140360400Y-122921140D01*
X148968980Y-122468980D02*
X148968980Y-122692020D01*
X148968980Y-122692020D02*
X147574000Y-124087000D01*
X147574000Y-124087000D02*
X144345660Y-124087000D01*
X144345660Y-124087000D02*
X143129000Y-122870340D01*
D29*
X148691600Y-117910400D02*
X148691600Y-118880000D01*
X148691600Y-118880000D02*
X148437600Y-119134000D01*
D28*
X145669000Y-99449000D02*
X145669000Y-100155120D01*
X145542000Y-99322000D02*
X145669000Y-99449000D01*
X145669000Y-100155120D02*
X144094200Y-100155120D01*
X150876000Y-107436600D02*
X151472200Y-107436600D01*
X151472200Y-107436600D02*
X151485600Y-107450000D01*
X151231600Y-99372800D02*
X149047200Y-99372800D01*
X148264880Y-100155120D02*
X145669000Y-100155120D01*
X149047200Y-99372800D02*
X148264880Y-100155120D01*
X156870400Y-86962400D02*
X155890000Y-86962400D01*
X146839940Y-85603460D02*
X146839940Y-87409400D01*
X147777200Y-84666200D02*
X146839940Y-85603460D01*
X153593800Y-84666200D02*
X147777200Y-84666200D01*
X155890000Y-86962400D02*
X153593800Y-84666200D01*
D29*
X158513780Y-86909020D02*
X158513780Y-87411940D01*
X159435800Y-85987000D02*
X158513780Y-86909020D01*
X156870400Y-86962400D02*
X158064240Y-86962400D01*
X158064240Y-86962400D02*
X158513780Y-87411940D01*
X158513780Y-87411940D02*
X158513780Y-89060220D01*
X158513780Y-89060220D02*
X158513600Y-89060400D01*
X156667200Y-89078000D02*
X158496000Y-89078000D01*
X158496000Y-89078000D02*
X158513600Y-89060400D01*
X149606000Y-107436600D02*
X150876000Y-107436600D01*
D28*
X133434000Y-118100400D02*
X133434000Y-115070000D01*
X135552000Y-120218400D02*
X133434000Y-118100400D01*
X136474200Y-120218400D02*
X135552000Y-120218400D01*
X152466000Y-118067200D02*
X152466000Y-116705800D01*
X152466000Y-116705800D02*
X152501600Y-116670200D01*
X161120000Y-115070000D02*
X161120000Y-115773400D01*
X161120000Y-115773400D02*
X160223200Y-116670200D01*
X160223200Y-116670200D02*
X152501600Y-116670200D01*
X136474200Y-120218400D02*
X136474200Y-119896000D01*
X136474200Y-119896000D02*
X137642600Y-118727600D01*
X137642600Y-118727600D02*
X145313400Y-118727600D01*
X145313400Y-118727600D02*
X145719800Y-119134000D01*
X145719800Y-119134000D02*
X148437600Y-119134000D01*
X148437600Y-119134000D02*
X151399200Y-119134000D01*
X151399200Y-119134000D02*
X152466000Y-118067200D01*
D29*
X150641600Y-117910400D02*
X152309200Y-117910400D01*
X152309200Y-117910400D02*
X152466000Y-118067200D01*
D28*
X144094200Y-101752780D02*
X143172180Y-101752780D01*
X142925800Y-100566600D02*
X143337280Y-100155120D01*
X142925800Y-101506400D02*
X142925800Y-100566600D01*
X143172180Y-101752780D02*
X142925800Y-101506400D01*
D29*
X144094200Y-100155120D02*
X143337280Y-100155120D01*
D28*
X151249380Y-99355020D02*
X152676860Y-99355020D01*
X151231600Y-99372800D02*
X151249380Y-99355020D01*
D29*
X147988020Y-104511220D02*
X146405600Y-102928800D01*
X146405600Y-102928800D02*
X146405600Y-102801800D01*
X147988020Y-104511220D02*
X147988020Y-105644060D01*
X148414740Y-90409140D02*
X148463000Y-90457400D01*
X146839940Y-90409140D02*
X148414740Y-90409140D01*
X147187920Y-97061400D02*
X147187920Y-95583120D01*
X147187920Y-95583120D02*
X146507200Y-94902400D01*
X152676860Y-104709340D02*
X152476200Y-104910000D01*
X152676860Y-104153080D02*
X152676860Y-104709340D01*
X147269200Y-99220400D02*
X146710400Y-99220400D01*
X145587720Y-97061400D02*
X145587720Y-98148520D01*
X145638520Y-98148520D02*
X145587720Y-98148520D01*
X146710400Y-99220400D02*
X145638520Y-98148520D01*
X145643600Y-103436800D02*
X145559780Y-103352980D01*
X144094200Y-103352980D02*
X145559780Y-103352980D01*
X148666200Y-103411400D02*
X149585680Y-104330880D01*
X149585680Y-105644060D02*
X149585680Y-104330880D01*
X149479000Y-102776400D02*
X150385780Y-103683180D01*
X150385780Y-105644060D02*
X150385780Y-103683180D01*
X149585680Y-95075120D02*
X149585680Y-97061400D01*
X149682200Y-94978600D02*
X149585680Y-95075120D01*
X150672800Y-90863800D02*
X150672800Y-92667200D01*
X150799800Y-90736800D02*
X150672800Y-90863800D01*
X156108400Y-91143200D02*
X156243200Y-91278000D01*
X156243200Y-91278000D02*
X156667200Y-91278000D01*
X146839940Y-91407360D02*
X149214840Y-91407360D01*
X150215600Y-88196800D02*
X151409400Y-88196800D01*
X149250400Y-89162000D02*
X150215600Y-88196800D01*
X149250400Y-91371800D02*
X149250400Y-89162000D01*
X149214840Y-91407360D02*
X149250400Y-91371800D01*
X150385780Y-96154620D02*
X150385780Y-97061400D01*
X151739600Y-94800800D02*
X150385780Y-96154620D01*
X151739600Y-88527000D02*
X151739600Y-94800800D01*
X151409400Y-88196800D02*
X151739600Y-88527000D01*
X146839940Y-89410920D02*
X147883880Y-89410920D01*
X151536400Y-87384000D02*
X152196800Y-86723600D01*
X149910800Y-87384000D02*
X151536400Y-87384000D01*
X147883880Y-89410920D02*
X149910800Y-87384000D01*
X152323800Y-95923480D02*
X151185880Y-97061400D01*
X152323800Y-86850600D02*
X152323800Y-95923480D01*
X152196800Y-86723600D02*
X152323800Y-86850600D01*
X151185880Y-97061400D02*
X151257000Y-97061400D01*
X146839940Y-92408120D02*
X149458680Y-92408120D01*
X150850600Y-89390600D02*
X150876000Y-89390600D01*
X149936200Y-90305000D02*
X150850600Y-89390600D01*
X149936200Y-91930600D02*
X149936200Y-90305000D01*
X149458680Y-92408120D02*
X149936200Y-91930600D01*
X154030680Y-98554920D02*
X152676860Y-98554920D01*
X154203400Y-98382200D02*
X154030680Y-98554920D01*
X160713600Y-89060400D02*
X160713600Y-87615320D01*
X160713600Y-87615320D02*
X160510220Y-87411940D01*
X145587720Y-106337480D02*
X145587720Y-105644060D01*
X144678400Y-107246800D02*
X145587720Y-106337480D01*
X145587720Y-105778680D02*
X145587720Y-105644060D01*
X151493220Y-100955220D02*
X152676860Y-100955220D01*
X151282400Y-100744400D02*
X151493220Y-100955220D01*
X131234000Y-115070000D02*
X130276600Y-115070000D01*
X130276600Y-115070000D02*
X129946400Y-115400200D01*
X138557000Y-115070000D02*
X138006000Y-115070000D01*
X138607800Y-115019200D02*
X138557000Y-115070000D01*
X158064200Y-115095400D02*
X158089600Y-115070000D01*
X158089600Y-115070000D02*
X158920000Y-115070000D01*
X166801800Y-115070000D02*
X166979600Y-115247800D01*
X165692000Y-115070000D02*
X166801800Y-115070000D01*
X144043400Y-104203880D02*
X144094200Y-104153080D01*
X143586200Y-104153080D02*
X143586200Y-107348400D01*
X149606000Y-108466000D02*
X149606000Y-108936600D01*
X149326600Y-108186600D02*
X149606000Y-108466000D01*
X144424400Y-108186600D02*
X149326600Y-108186600D01*
X143586200Y-107348400D02*
X144424400Y-108186600D01*
X149606000Y-108936600D02*
X149416200Y-108936600D01*
X149606000Y-108936600D02*
X149606000Y-109202600D01*
X149606000Y-109202600D02*
X149341600Y-109467000D01*
X149341600Y-109467000D02*
X149341600Y-111010400D01*
X148793200Y-95486600D02*
X148785580Y-95494220D01*
X148785580Y-95494220D02*
X148785580Y-97061400D01*
X152676860Y-103352980D02*
X151518620Y-103352980D01*
X151929400Y-108936600D02*
X150876000Y-108936600D01*
X152349200Y-108516800D02*
X151929400Y-108936600D01*
X151518620Y-103352980D02*
X151485600Y-103386000D01*
X150876000Y-108936600D02*
X150876000Y-109151800D01*
X150876000Y-109151800D02*
X149991600Y-110036200D01*
X149991600Y-110036200D02*
X149991600Y-111010400D01*
D28*
X138226800Y-120368400D02*
X138211600Y-120368400D01*
X138211600Y-120368400D02*
X136474200Y-122105800D01*
X136474200Y-122105800D02*
X136474200Y-122418400D01*
X140360400Y-120122060D02*
X138473140Y-120122060D01*
X138473140Y-120122060D02*
X138226800Y-120368400D01*
X143129000Y-120071260D02*
X140411200Y-120071260D01*
X140411200Y-120071260D02*
X140360400Y-120122060D01*
X146970000Y-122468980D02*
X145526720Y-122468980D01*
X145526720Y-122468980D02*
X143129000Y-120071260D01*
D29*
X148361400Y-108936600D02*
X148361400Y-109329600D01*
X148691600Y-109659800D02*
X148691600Y-111010400D01*
X148361400Y-109329600D02*
X148691600Y-109659800D01*
X148361400Y-108936600D02*
X147443800Y-108936600D01*
X147443800Y-108936600D02*
X146822200Y-109558200D01*
X146822200Y-109558200D02*
X146927000Y-109558200D01*
X153162000Y-107399200D02*
X153162000Y-109380400D01*
X151406860Y-105644060D02*
X153162000Y-107399200D01*
X153365200Y-109380400D02*
X153822400Y-109837600D01*
X153822400Y-109837600D02*
X153822400Y-111260000D01*
X153162000Y-109380400D02*
X153365200Y-109380400D01*
X152969480Y-119631320D02*
X152969480Y-120470000D01*
X153416000Y-119184800D02*
X152969480Y-119631320D01*
X156464000Y-119184800D02*
X153416000Y-119184800D01*
X157327600Y-118321200D02*
X156464000Y-119184800D01*
X151185880Y-105644060D02*
X151406860Y-105644060D01*
X152044400Y-106332400D02*
X151356060Y-105644060D01*
X151356060Y-105644060D02*
X151185880Y-105644060D01*
X151917400Y-106129200D02*
X151432260Y-105644060D01*
X151432260Y-105644060D02*
X151185880Y-105644060D01*
X146387820Y-97932620D02*
X146862800Y-98407600D01*
X146862800Y-98407600D02*
X148031200Y-98407600D01*
X148031200Y-98407600D02*
X148285200Y-98661600D01*
X146387820Y-97061400D02*
X146387820Y-97932620D01*
X148361400Y-107069000D02*
X148361400Y-107436600D01*
X148336000Y-107043600D02*
X148361400Y-107069000D01*
X144260000Y-114587400D02*
X144551400Y-114587400D01*
X148717000Y-115349400D02*
X149341600Y-115974000D01*
X145313400Y-115349400D02*
X148717000Y-115349400D01*
X144551400Y-114587400D02*
X145313400Y-115349400D01*
X149341600Y-115974000D02*
X149341600Y-117910400D01*
X146481800Y-114485800D02*
X147243800Y-114485800D01*
X147243800Y-114485800D02*
X147269200Y-114460400D01*
X147599400Y-116594000D02*
X148041600Y-117036200D01*
X148041600Y-117036200D02*
X148041600Y-117910400D01*
X147497800Y-116162200D02*
X147599400Y-116263800D01*
X147599400Y-116263800D02*
X147599400Y-116594000D01*
X144260000Y-112885600D02*
X144260000Y-113000600D01*
X144260000Y-113000600D02*
X145745200Y-114485800D01*
X151714200Y-112911000D02*
X153123200Y-112911000D01*
X150139400Y-114485800D02*
X151714200Y-112911000D01*
X145745200Y-114485800D02*
X146481800Y-114485800D01*
X146481800Y-114485800D02*
X150139400Y-114485800D01*
X144260000Y-112885600D02*
X144348200Y-112885600D01*
X153174000Y-114460400D02*
X151130000Y-114460400D01*
X149991600Y-115598800D02*
X149991600Y-117910400D01*
X151130000Y-114460400D02*
X149991600Y-115598800D01*
X154674000Y-114460400D02*
X154889200Y-114460400D01*
X154889200Y-114460400D02*
X155702000Y-113647600D01*
X155702000Y-113647600D02*
X155702000Y-112885600D01*
X155702000Y-112885600D02*
X156641800Y-111945800D01*
X162229800Y-105037000D02*
X162229800Y-107577000D01*
X162229800Y-107577000D02*
X156591000Y-113215800D01*
X151307800Y-115679600D02*
X150774400Y-116213000D01*
X155575000Y-115679600D02*
X151307800Y-115679600D01*
X156591000Y-114663600D02*
X155575000Y-115679600D01*
X156591000Y-113215800D02*
X156591000Y-114663600D01*
X162229800Y-105037000D02*
X162229800Y-107526200D01*
X154623200Y-112911000D02*
X154623200Y-112643600D01*
X154623200Y-112643600D02*
X162229800Y-105037000D01*
X142760000Y-114587400D02*
X142367000Y-114587400D01*
X141071600Y-112403000D02*
X140335000Y-111666400D01*
X141071600Y-113292000D02*
X141071600Y-112403000D01*
X142367000Y-114587400D02*
X141071600Y-113292000D01*
X145897600Y-116111400D02*
X146456400Y-116111400D01*
X134569200Y-105087800D02*
X134569200Y-107246800D01*
X134569200Y-107246800D02*
X140411200Y-113088800D01*
X142316200Y-116111400D02*
X145897600Y-116111400D01*
X145897600Y-116111400D02*
X145948400Y-116111400D01*
X140411200Y-114206400D02*
X142316200Y-116111400D01*
X140411200Y-113088800D02*
X140411200Y-114206400D01*
X134569200Y-105087800D02*
X134569200Y-107221400D01*
X134569200Y-105087800D02*
X134962200Y-105087800D01*
X134962200Y-105087800D02*
X142760000Y-112885600D01*
X148041600Y-111010400D02*
X148041600Y-112113200D01*
X148041600Y-112113200D02*
X147574000Y-112580800D01*
D28*
G36*
X132748200Y-118100400D02*
X132754383Y-118163463D01*
X132759903Y-118226554D01*
X132760909Y-118230017D01*
X132761261Y-118233606D01*
X132779583Y-118294291D01*
X132797245Y-118355084D01*
X132798902Y-118358282D01*
X132799946Y-118361738D01*
X132829677Y-118417653D01*
X132858839Y-118473914D01*
X132861093Y-118476737D01*
X132862783Y-118479916D01*
X132902797Y-118528978D01*
X132942343Y-118578516D01*
X132947292Y-118583535D01*
X132947376Y-118583638D01*
X132947472Y-118583717D01*
X132949066Y-118585334D01*
X135067066Y-120703334D01*
X135116049Y-120743569D01*
X135164546Y-120784263D01*
X135167705Y-120786000D01*
X135170492Y-120788289D01*
X135226356Y-120818243D01*
X135281835Y-120848743D01*
X135285269Y-120849832D01*
X135288450Y-120851538D01*
X135349036Y-120870061D01*
X135409414Y-120889214D01*
X135413000Y-120889616D01*
X135416447Y-120890670D01*
X135479470Y-120897072D01*
X135494630Y-120898772D01*
X135494994Y-120903342D01*
X135539610Y-121047412D01*
X135622596Y-121173349D01*
X135737383Y-121271181D01*
X135843281Y-121318916D01*
X135795188Y-121333810D01*
X135669251Y-121416796D01*
X135571419Y-121531583D01*
X135509440Y-121669080D01*
X135488220Y-121818400D01*
X135488220Y-123018400D01*
X135494994Y-123103342D01*
X135539610Y-123247412D01*
X135622596Y-123373349D01*
X135737383Y-123471181D01*
X135874880Y-123533160D01*
X136024200Y-123554380D01*
X136924200Y-123554380D01*
X137009142Y-123547606D01*
X137153212Y-123502990D01*
X137279149Y-123420004D01*
X137376981Y-123305217D01*
X137427408Y-123193347D01*
X137437481Y-123208422D01*
X137511777Y-123282719D01*
X137599140Y-123341093D01*
X137696213Y-123381302D01*
X137799264Y-123401800D01*
X138055350Y-123401800D01*
X138188700Y-123268450D01*
X138188700Y-122306500D01*
X138168700Y-122306500D01*
X138168700Y-122230300D01*
X138188700Y-122230300D01*
X138188700Y-122210300D01*
X138264900Y-122210300D01*
X138264900Y-122230300D01*
X138284900Y-122230300D01*
X138284900Y-122306500D01*
X138264900Y-122306500D01*
X138264900Y-123268450D01*
X138398250Y-123401800D01*
X138654336Y-123401800D01*
X138757387Y-123381302D01*
X138854460Y-123341093D01*
X138941823Y-123282719D01*
X139016119Y-123208422D01*
X139028170Y-123190386D01*
X139028170Y-123673446D01*
X139048668Y-123776497D01*
X139088877Y-123873570D01*
X139147251Y-123960933D01*
X139221548Y-124035229D01*
X139308911Y-124093603D01*
X139405983Y-124133812D01*
X139509035Y-124154310D01*
X140188950Y-124154310D01*
X140322300Y-124020960D01*
X140322300Y-122959240D01*
X140398500Y-122959240D01*
X140398500Y-124020960D01*
X140531850Y-124154310D01*
X141211765Y-124154310D01*
X141314817Y-124133812D01*
X141411889Y-124093603D01*
X141499252Y-124035229D01*
X141573549Y-123960933D01*
X141631923Y-123873570D01*
X141672132Y-123776497D01*
X141692630Y-123673446D01*
X141692630Y-123092590D01*
X141641830Y-123041790D01*
X141796770Y-123041790D01*
X141796770Y-123622646D01*
X141817268Y-123725697D01*
X141857477Y-123822770D01*
X141915851Y-123910133D01*
X141990148Y-123984429D01*
X142077511Y-124042803D01*
X142174583Y-124083012D01*
X142277635Y-124103510D01*
X142957550Y-124103510D01*
X143090900Y-123970160D01*
X143090900Y-122908440D01*
X143167100Y-122908440D01*
X143167100Y-123970160D01*
X143300450Y-124103510D01*
X143980365Y-124103510D01*
X144083417Y-124083012D01*
X144180489Y-124042803D01*
X144267852Y-123984429D01*
X144342149Y-123910133D01*
X144400523Y-123822770D01*
X144440732Y-123725697D01*
X144461230Y-123622646D01*
X144461230Y-123041790D01*
X144327880Y-122908440D01*
X143167100Y-122908440D01*
X143090900Y-122908440D01*
X141930120Y-122908440D01*
X141796770Y-123041790D01*
X141641830Y-123041790D01*
X141559280Y-122959240D01*
X140398500Y-122959240D01*
X140322300Y-122959240D01*
X140302300Y-122959240D01*
X140302300Y-122883040D01*
X140322300Y-122883040D01*
X140322300Y-121821320D01*
X140398500Y-121821320D01*
X140398500Y-122883040D01*
X141559280Y-122883040D01*
X141692630Y-122749690D01*
X141692630Y-122168834D01*
X141682526Y-122118034D01*
X141796770Y-122118034D01*
X141796770Y-122698890D01*
X141930120Y-122832240D01*
X143090900Y-122832240D01*
X143090900Y-121770520D01*
X142957550Y-121637170D01*
X142277635Y-121637170D01*
X142174583Y-121657668D01*
X142077511Y-121697877D01*
X141990148Y-121756251D01*
X141915851Y-121830547D01*
X141857477Y-121917910D01*
X141817268Y-122014983D01*
X141796770Y-122118034D01*
X141682526Y-122118034D01*
X141672132Y-122065783D01*
X141631923Y-121968710D01*
X141573549Y-121881347D01*
X141499252Y-121807051D01*
X141411889Y-121748677D01*
X141314817Y-121708468D01*
X141211765Y-121687970D01*
X140531850Y-121687970D01*
X140398500Y-121821320D01*
X140322300Y-121821320D01*
X140188950Y-121687970D01*
X139509035Y-121687970D01*
X139405983Y-121708468D01*
X139308911Y-121748677D01*
X139221548Y-121807051D01*
X139147251Y-121881347D01*
X139135200Y-121899383D01*
X139135200Y-121615865D01*
X139114702Y-121512813D01*
X139074493Y-121415741D01*
X139016119Y-121328378D01*
X139003220Y-121315479D01*
X139054581Y-121255217D01*
X139116560Y-121117720D01*
X139117356Y-121112116D01*
X139159966Y-121176779D01*
X139274753Y-121274611D01*
X139412250Y-121336590D01*
X139561570Y-121357810D01*
X141159230Y-121357810D01*
X141244172Y-121351036D01*
X141388242Y-121306420D01*
X141514179Y-121223434D01*
X141612011Y-121108647D01*
X141673990Y-120971150D01*
X141695210Y-120821830D01*
X141695210Y-120757060D01*
X141794190Y-120757060D01*
X141794190Y-120771030D01*
X141800964Y-120855972D01*
X141845580Y-121000042D01*
X141928566Y-121125979D01*
X142043353Y-121223811D01*
X142180850Y-121285790D01*
X142330170Y-121307010D01*
X143394882Y-121307010D01*
X143725042Y-121637170D01*
X143300450Y-121637170D01*
X143167100Y-121770520D01*
X143167100Y-122832240D01*
X144327880Y-122832240D01*
X144461230Y-122698890D01*
X144461230Y-122373358D01*
X145041786Y-122953914D01*
X145090769Y-122994149D01*
X145139266Y-123034843D01*
X145142425Y-123036580D01*
X145145212Y-123038869D01*
X145201076Y-123068823D01*
X145256555Y-123099323D01*
X145259989Y-123100412D01*
X145263170Y-123102118D01*
X145323756Y-123120641D01*
X145384134Y-123139794D01*
X145387720Y-123140196D01*
X145391167Y-123141250D01*
X145454190Y-123147652D01*
X145517145Y-123154713D01*
X145524191Y-123154762D01*
X145524326Y-123154776D01*
X145524452Y-123154764D01*
X145526720Y-123154780D01*
X146000741Y-123154780D01*
X146035901Y-123209338D01*
X146197494Y-123376672D01*
X146388511Y-123509432D01*
X146601677Y-123602562D01*
X146828872Y-123652514D01*
X147061443Y-123657386D01*
X147290531Y-123616992D01*
X147507410Y-123532870D01*
X147703819Y-123408225D01*
X147872277Y-123247804D01*
X147874990Y-123243957D01*
X148247885Y-123243957D01*
X148299569Y-123455165D01*
X148504827Y-123566811D01*
X148727922Y-123636269D01*
X148960280Y-123660869D01*
X149192974Y-123639664D01*
X149417059Y-123573470D01*
X149623924Y-123464832D01*
X149638391Y-123455165D01*
X149690075Y-123243957D01*
X148968980Y-122522862D01*
X148247885Y-123243957D01*
X147874990Y-123243957D01*
X147967383Y-123112984D01*
X147973128Y-123123924D01*
X147982795Y-123138391D01*
X148194003Y-123190075D01*
X148915098Y-122468980D01*
X148194003Y-121747885D01*
X147982795Y-121799569D01*
X147967774Y-121827185D01*
X147893671Y-121715652D01*
X147729758Y-121550591D01*
X147609214Y-121469283D01*
X147703819Y-121409245D01*
X147872277Y-121248824D01*
X147970206Y-121110002D01*
X148034881Y-121210358D01*
X148196474Y-121377692D01*
X148325287Y-121467219D01*
X148314036Y-121473128D01*
X148299569Y-121482795D01*
X148247885Y-121694003D01*
X148968980Y-122415098D01*
X149690075Y-121694003D01*
X149638391Y-121482795D01*
X149610666Y-121467714D01*
X149702799Y-121409245D01*
X149871257Y-121248824D01*
X149969186Y-121110002D01*
X150033861Y-121210358D01*
X150195454Y-121377692D01*
X150328226Y-121469971D01*
X150221099Y-121540072D01*
X150054897Y-121702829D01*
X149970874Y-121825541D01*
X149964832Y-121814036D01*
X149955165Y-121799569D01*
X149743957Y-121747885D01*
X149022862Y-122468980D01*
X149743957Y-123190075D01*
X149955165Y-123138391D01*
X149970257Y-123110644D01*
X150033861Y-123209338D01*
X150195454Y-123376672D01*
X150386471Y-123509432D01*
X150599637Y-123602562D01*
X150826832Y-123652514D01*
X151059403Y-123657386D01*
X151288491Y-123616992D01*
X151505370Y-123532870D01*
X151701779Y-123408225D01*
X151870237Y-123247804D01*
X151969493Y-123107100D01*
X152035381Y-123209338D01*
X152196974Y-123376672D01*
X152387991Y-123509432D01*
X152601157Y-123602562D01*
X152828352Y-123652514D01*
X153060923Y-123657386D01*
X153290011Y-123616992D01*
X153506890Y-123532870D01*
X153703299Y-123408225D01*
X153871757Y-123247804D01*
X153969686Y-123108982D01*
X154034361Y-123209338D01*
X154195954Y-123376672D01*
X154386971Y-123509432D01*
X154600137Y-123602562D01*
X154827332Y-123652514D01*
X155059903Y-123657386D01*
X155288991Y-123616992D01*
X155505870Y-123532870D01*
X155702279Y-123408225D01*
X155870737Y-123247804D01*
X155969993Y-123107100D01*
X156035881Y-123209338D01*
X156197474Y-123376672D01*
X156388491Y-123509432D01*
X156601657Y-123602562D01*
X156828852Y-123652514D01*
X157061423Y-123657386D01*
X157290511Y-123616992D01*
X157507390Y-123532870D01*
X157703799Y-123408225D01*
X157872257Y-123247804D01*
X157970186Y-123108982D01*
X158034861Y-123209338D01*
X158196454Y-123376672D01*
X158387471Y-123509432D01*
X158600637Y-123602562D01*
X158827832Y-123652514D01*
X159060403Y-123657386D01*
X159289491Y-123616992D01*
X159506370Y-123532870D01*
X159702779Y-123408225D01*
X159871237Y-123247804D01*
X160005328Y-123057719D01*
X160099943Y-122845208D01*
X160151480Y-122618367D01*
X160155190Y-122352669D01*
X160110007Y-122124478D01*
X160021362Y-121909408D01*
X159892631Y-121715652D01*
X159728718Y-121550591D01*
X159608174Y-121469283D01*
X159702779Y-121409245D01*
X159871237Y-121248824D01*
X160005328Y-121058739D01*
X160099943Y-120846228D01*
X160151480Y-120619387D01*
X160155190Y-120353689D01*
X160110007Y-120125498D01*
X160021362Y-119910428D01*
X159892631Y-119716672D01*
X159728718Y-119551611D01*
X159535866Y-119421530D01*
X159321420Y-119331386D01*
X159093549Y-119284610D01*
X158860933Y-119282986D01*
X158632432Y-119326575D01*
X158416749Y-119413717D01*
X158222099Y-119541092D01*
X158055897Y-119703849D01*
X157969228Y-119830425D01*
X157893651Y-119716672D01*
X157729738Y-119551611D01*
X157536886Y-119421530D01*
X157322440Y-119331386D01*
X157263466Y-119319280D01*
X157383838Y-119198908D01*
X157395154Y-119199145D01*
X157564395Y-119169303D01*
X157724616Y-119107158D01*
X157869715Y-119015075D01*
X157994164Y-118896563D01*
X158093225Y-118756136D01*
X158163123Y-118599142D01*
X158201197Y-118431561D01*
X158203938Y-118235274D01*
X158170558Y-118066696D01*
X158105071Y-117907812D01*
X158009970Y-117764673D01*
X157888877Y-117642732D01*
X157746406Y-117546634D01*
X157587983Y-117480039D01*
X157419641Y-117445484D01*
X157247794Y-117444284D01*
X157078987Y-117476486D01*
X156919649Y-117540862D01*
X156775850Y-117634962D01*
X156653067Y-117755200D01*
X156555977Y-117896997D01*
X156488277Y-118054951D01*
X156452548Y-118223047D01*
X156451992Y-118262862D01*
X156190454Y-118524400D01*
X155493499Y-118524400D01*
X155499400Y-118494736D01*
X155499400Y-118238650D01*
X155366050Y-118105300D01*
X154404100Y-118105300D01*
X154404100Y-118125300D01*
X154327900Y-118125300D01*
X154327900Y-118105300D01*
X154307900Y-118105300D01*
X154307900Y-118029100D01*
X154327900Y-118029100D01*
X154327900Y-118009100D01*
X154404100Y-118009100D01*
X154404100Y-118029100D01*
X155366050Y-118029100D01*
X155499400Y-117895750D01*
X155499400Y-117639664D01*
X155478902Y-117536613D01*
X155438693Y-117439540D01*
X155382873Y-117356000D01*
X160223200Y-117356000D01*
X160286263Y-117349817D01*
X160349354Y-117344297D01*
X160352817Y-117343291D01*
X160356406Y-117342939D01*
X160417091Y-117324617D01*
X160477884Y-117306955D01*
X160481082Y-117305298D01*
X160484538Y-117304254D01*
X160540453Y-117274523D01*
X160596714Y-117245361D01*
X160599537Y-117243107D01*
X160602716Y-117241417D01*
X160651778Y-117201403D01*
X160701316Y-117161857D01*
X160706335Y-117156908D01*
X160706438Y-117156824D01*
X160706517Y-117156728D01*
X160708134Y-117155134D01*
X161370868Y-116492400D01*
X169392700Y-116492400D01*
X169392700Y-118319391D01*
X167528299Y-121115993D01*
X164613493Y-124030799D01*
X161816892Y-125895200D01*
X135185309Y-125895200D01*
X132388707Y-124030799D01*
X128501117Y-120143209D01*
X127609500Y-118359975D01*
X127609500Y-116492400D01*
X132748200Y-116492400D01*
X132748200Y-118100400D01*
X132748200Y-118100400D01*
G37*
X132748200Y-118100400D02*
X132754383Y-118163463D01*
X132759903Y-118226554D01*
X132760909Y-118230017D01*
X132761261Y-118233606D01*
X132779583Y-118294291D01*
X132797245Y-118355084D01*
X132798902Y-118358282D01*
X132799946Y-118361738D01*
X132829677Y-118417653D01*
X132858839Y-118473914D01*
X132861093Y-118476737D01*
X132862783Y-118479916D01*
X132902797Y-118528978D01*
X132942343Y-118578516D01*
X132947292Y-118583535D01*
X132947376Y-118583638D01*
X132947472Y-118583717D01*
X132949066Y-118585334D01*
X135067066Y-120703334D01*
X135116049Y-120743569D01*
X135164546Y-120784263D01*
X135167705Y-120786000D01*
X135170492Y-120788289D01*
X135226356Y-120818243D01*
X135281835Y-120848743D01*
X135285269Y-120849832D01*
X135288450Y-120851538D01*
X135349036Y-120870061D01*
X135409414Y-120889214D01*
X135413000Y-120889616D01*
X135416447Y-120890670D01*
X135479470Y-120897072D01*
X135494630Y-120898772D01*
X135494994Y-120903342D01*
X135539610Y-121047412D01*
X135622596Y-121173349D01*
X135737383Y-121271181D01*
X135843281Y-121318916D01*
X135795188Y-121333810D01*
X135669251Y-121416796D01*
X135571419Y-121531583D01*
X135509440Y-121669080D01*
X135488220Y-121818400D01*
X135488220Y-123018400D01*
X135494994Y-123103342D01*
X135539610Y-123247412D01*
X135622596Y-123373349D01*
X135737383Y-123471181D01*
X135874880Y-123533160D01*
X136024200Y-123554380D01*
X136924200Y-123554380D01*
X137009142Y-123547606D01*
X137153212Y-123502990D01*
X137279149Y-123420004D01*
X137376981Y-123305217D01*
X137427408Y-123193347D01*
X137437481Y-123208422D01*
X137511777Y-123282719D01*
X137599140Y-123341093D01*
X137696213Y-123381302D01*
X137799264Y-123401800D01*
X138055350Y-123401800D01*
X138188700Y-123268450D01*
X138188700Y-122306500D01*
X138168700Y-122306500D01*
X138168700Y-122230300D01*
X138188700Y-122230300D01*
X138188700Y-122210300D01*
X138264900Y-122210300D01*
X138264900Y-122230300D01*
X138284900Y-122230300D01*
X138284900Y-122306500D01*
X138264900Y-122306500D01*
X138264900Y-123268450D01*
X138398250Y-123401800D01*
X138654336Y-123401800D01*
X138757387Y-123381302D01*
X138854460Y-123341093D01*
X138941823Y-123282719D01*
X139016119Y-123208422D01*
X139028170Y-123190386D01*
X139028170Y-123673446D01*
X139048668Y-123776497D01*
X139088877Y-123873570D01*
X139147251Y-123960933D01*
X139221548Y-124035229D01*
X139308911Y-124093603D01*
X139405983Y-124133812D01*
X139509035Y-124154310D01*
X140188950Y-124154310D01*
X140322300Y-124020960D01*
X140322300Y-122959240D01*
X140398500Y-122959240D01*
X140398500Y-124020960D01*
X140531850Y-124154310D01*
X141211765Y-124154310D01*
X141314817Y-124133812D01*
X141411889Y-124093603D01*
X141499252Y-124035229D01*
X141573549Y-123960933D01*
X141631923Y-123873570D01*
X141672132Y-123776497D01*
X141692630Y-123673446D01*
X141692630Y-123092590D01*
X141641830Y-123041790D01*
X141796770Y-123041790D01*
X141796770Y-123622646D01*
X141817268Y-123725697D01*
X141857477Y-123822770D01*
X141915851Y-123910133D01*
X141990148Y-123984429D01*
X142077511Y-124042803D01*
X142174583Y-124083012D01*
X142277635Y-124103510D01*
X142957550Y-124103510D01*
X143090900Y-123970160D01*
X143090900Y-122908440D01*
X143167100Y-122908440D01*
X143167100Y-123970160D01*
X143300450Y-124103510D01*
X143980365Y-124103510D01*
X144083417Y-124083012D01*
X144180489Y-124042803D01*
X144267852Y-123984429D01*
X144342149Y-123910133D01*
X144400523Y-123822770D01*
X144440732Y-123725697D01*
X144461230Y-123622646D01*
X144461230Y-123041790D01*
X144327880Y-122908440D01*
X143167100Y-122908440D01*
X143090900Y-122908440D01*
X141930120Y-122908440D01*
X141796770Y-123041790D01*
X141641830Y-123041790D01*
X141559280Y-122959240D01*
X140398500Y-122959240D01*
X140322300Y-122959240D01*
X140302300Y-122959240D01*
X140302300Y-122883040D01*
X140322300Y-122883040D01*
X140322300Y-121821320D01*
X140398500Y-121821320D01*
X140398500Y-122883040D01*
X141559280Y-122883040D01*
X141692630Y-122749690D01*
X141692630Y-122168834D01*
X141682526Y-122118034D01*
X141796770Y-122118034D01*
X141796770Y-122698890D01*
X141930120Y-122832240D01*
X143090900Y-122832240D01*
X143090900Y-121770520D01*
X142957550Y-121637170D01*
X142277635Y-121637170D01*
X142174583Y-121657668D01*
X142077511Y-121697877D01*
X141990148Y-121756251D01*
X141915851Y-121830547D01*
X141857477Y-121917910D01*
X141817268Y-122014983D01*
X141796770Y-122118034D01*
X141682526Y-122118034D01*
X141672132Y-122065783D01*
X141631923Y-121968710D01*
X141573549Y-121881347D01*
X141499252Y-121807051D01*
X141411889Y-121748677D01*
X141314817Y-121708468D01*
X141211765Y-121687970D01*
X140531850Y-121687970D01*
X140398500Y-121821320D01*
X140322300Y-121821320D01*
X140188950Y-121687970D01*
X139509035Y-121687970D01*
X139405983Y-121708468D01*
X139308911Y-121748677D01*
X139221548Y-121807051D01*
X139147251Y-121881347D01*
X139135200Y-121899383D01*
X139135200Y-121615865D01*
X139114702Y-121512813D01*
X139074493Y-121415741D01*
X139016119Y-121328378D01*
X139003220Y-121315479D01*
X139054581Y-121255217D01*
X139116560Y-121117720D01*
X139117356Y-121112116D01*
X139159966Y-121176779D01*
X139274753Y-121274611D01*
X139412250Y-121336590D01*
X139561570Y-121357810D01*
X141159230Y-121357810D01*
X141244172Y-121351036D01*
X141388242Y-121306420D01*
X141514179Y-121223434D01*
X141612011Y-121108647D01*
X141673990Y-120971150D01*
X141695210Y-120821830D01*
X141695210Y-120757060D01*
X141794190Y-120757060D01*
X141794190Y-120771030D01*
X141800964Y-120855972D01*
X141845580Y-121000042D01*
X141928566Y-121125979D01*
X142043353Y-121223811D01*
X142180850Y-121285790D01*
X142330170Y-121307010D01*
X143394882Y-121307010D01*
X143725042Y-121637170D01*
X143300450Y-121637170D01*
X143167100Y-121770520D01*
X143167100Y-122832240D01*
X144327880Y-122832240D01*
X144461230Y-122698890D01*
X144461230Y-122373358D01*
X145041786Y-122953914D01*
X145090769Y-122994149D01*
X145139266Y-123034843D01*
X145142425Y-123036580D01*
X145145212Y-123038869D01*
X145201076Y-123068823D01*
X145256555Y-123099323D01*
X145259989Y-123100412D01*
X145263170Y-123102118D01*
X145323756Y-123120641D01*
X145384134Y-123139794D01*
X145387720Y-123140196D01*
X145391167Y-123141250D01*
X145454190Y-123147652D01*
X145517145Y-123154713D01*
X145524191Y-123154762D01*
X145524326Y-123154776D01*
X145524452Y-123154764D01*
X145526720Y-123154780D01*
X146000741Y-123154780D01*
X146035901Y-123209338D01*
X146197494Y-123376672D01*
X146388511Y-123509432D01*
X146601677Y-123602562D01*
X146828872Y-123652514D01*
X147061443Y-123657386D01*
X147290531Y-123616992D01*
X147507410Y-123532870D01*
X147703819Y-123408225D01*
X147872277Y-123247804D01*
X147874990Y-123243957D01*
X148247885Y-123243957D01*
X148299569Y-123455165D01*
X148504827Y-123566811D01*
X148727922Y-123636269D01*
X148960280Y-123660869D01*
X149192974Y-123639664D01*
X149417059Y-123573470D01*
X149623924Y-123464832D01*
X149638391Y-123455165D01*
X149690075Y-123243957D01*
X148968980Y-122522862D01*
X148247885Y-123243957D01*
X147874990Y-123243957D01*
X147967383Y-123112984D01*
X147973128Y-123123924D01*
X147982795Y-123138391D01*
X148194003Y-123190075D01*
X148915098Y-122468980D01*
X148194003Y-121747885D01*
X147982795Y-121799569D01*
X147967774Y-121827185D01*
X147893671Y-121715652D01*
X147729758Y-121550591D01*
X147609214Y-121469283D01*
X147703819Y-121409245D01*
X147872277Y-121248824D01*
X147970206Y-121110002D01*
X148034881Y-121210358D01*
X148196474Y-121377692D01*
X148325287Y-121467219D01*
X148314036Y-121473128D01*
X148299569Y-121482795D01*
X148247885Y-121694003D01*
X148968980Y-122415098D01*
X149690075Y-121694003D01*
X149638391Y-121482795D01*
X149610666Y-121467714D01*
X149702799Y-121409245D01*
X149871257Y-121248824D01*
X149969186Y-121110002D01*
X150033861Y-121210358D01*
X150195454Y-121377692D01*
X150328226Y-121469971D01*
X150221099Y-121540072D01*
X150054897Y-121702829D01*
X149970874Y-121825541D01*
X149964832Y-121814036D01*
X149955165Y-121799569D01*
X149743957Y-121747885D01*
X149022862Y-122468980D01*
X149743957Y-123190075D01*
X149955165Y-123138391D01*
X149970257Y-123110644D01*
X150033861Y-123209338D01*
X150195454Y-123376672D01*
X150386471Y-123509432D01*
X150599637Y-123602562D01*
X150826832Y-123652514D01*
X151059403Y-123657386D01*
X151288491Y-123616992D01*
X151505370Y-123532870D01*
X151701779Y-123408225D01*
X151870237Y-123247804D01*
X151969493Y-123107100D01*
X152035381Y-123209338D01*
X152196974Y-123376672D01*
X152387991Y-123509432D01*
X152601157Y-123602562D01*
X152828352Y-123652514D01*
X153060923Y-123657386D01*
X153290011Y-123616992D01*
X153506890Y-123532870D01*
X153703299Y-123408225D01*
X153871757Y-123247804D01*
X153969686Y-123108982D01*
X154034361Y-123209338D01*
X154195954Y-123376672D01*
X154386971Y-123509432D01*
X154600137Y-123602562D01*
X154827332Y-123652514D01*
X155059903Y-123657386D01*
X155288991Y-123616992D01*
X155505870Y-123532870D01*
X155702279Y-123408225D01*
X155870737Y-123247804D01*
X155969993Y-123107100D01*
X156035881Y-123209338D01*
X156197474Y-123376672D01*
X156388491Y-123509432D01*
X156601657Y-123602562D01*
X156828852Y-123652514D01*
X157061423Y-123657386D01*
X157290511Y-123616992D01*
X157507390Y-123532870D01*
X157703799Y-123408225D01*
X157872257Y-123247804D01*
X157970186Y-123108982D01*
X158034861Y-123209338D01*
X158196454Y-123376672D01*
X158387471Y-123509432D01*
X158600637Y-123602562D01*
X158827832Y-123652514D01*
X159060403Y-123657386D01*
X159289491Y-123616992D01*
X159506370Y-123532870D01*
X159702779Y-123408225D01*
X159871237Y-123247804D01*
X160005328Y-123057719D01*
X160099943Y-122845208D01*
X160151480Y-122618367D01*
X160155190Y-122352669D01*
X160110007Y-122124478D01*
X160021362Y-121909408D01*
X159892631Y-121715652D01*
X159728718Y-121550591D01*
X159608174Y-121469283D01*
X159702779Y-121409245D01*
X159871237Y-121248824D01*
X160005328Y-121058739D01*
X160099943Y-120846228D01*
X160151480Y-120619387D01*
X160155190Y-120353689D01*
X160110007Y-120125498D01*
X160021362Y-119910428D01*
X159892631Y-119716672D01*
X159728718Y-119551611D01*
X159535866Y-119421530D01*
X159321420Y-119331386D01*
X159093549Y-119284610D01*
X158860933Y-119282986D01*
X158632432Y-119326575D01*
X158416749Y-119413717D01*
X158222099Y-119541092D01*
X158055897Y-119703849D01*
X157969228Y-119830425D01*
X157893651Y-119716672D01*
X157729738Y-119551611D01*
X157536886Y-119421530D01*
X157322440Y-119331386D01*
X157263466Y-119319280D01*
X157383838Y-119198908D01*
X157395154Y-119199145D01*
X157564395Y-119169303D01*
X157724616Y-119107158D01*
X157869715Y-119015075D01*
X157994164Y-118896563D01*
X158093225Y-118756136D01*
X158163123Y-118599142D01*
X158201197Y-118431561D01*
X158203938Y-118235274D01*
X158170558Y-118066696D01*
X158105071Y-117907812D01*
X158009970Y-117764673D01*
X157888877Y-117642732D01*
X157746406Y-117546634D01*
X157587983Y-117480039D01*
X157419641Y-117445484D01*
X157247794Y-117444284D01*
X157078987Y-117476486D01*
X156919649Y-117540862D01*
X156775850Y-117634962D01*
X156653067Y-117755200D01*
X156555977Y-117896997D01*
X156488277Y-118054951D01*
X156452548Y-118223047D01*
X156451992Y-118262862D01*
X156190454Y-118524400D01*
X155493499Y-118524400D01*
X155499400Y-118494736D01*
X155499400Y-118238650D01*
X155366050Y-118105300D01*
X154404100Y-118105300D01*
X154404100Y-118125300D01*
X154327900Y-118125300D01*
X154327900Y-118105300D01*
X154307900Y-118105300D01*
X154307900Y-118029100D01*
X154327900Y-118029100D01*
X154327900Y-118009100D01*
X154404100Y-118009100D01*
X154404100Y-118029100D01*
X155366050Y-118029100D01*
X155499400Y-117895750D01*
X155499400Y-117639664D01*
X155478902Y-117536613D01*
X155438693Y-117439540D01*
X155382873Y-117356000D01*
X160223200Y-117356000D01*
X160286263Y-117349817D01*
X160349354Y-117344297D01*
X160352817Y-117343291D01*
X160356406Y-117342939D01*
X160417091Y-117324617D01*
X160477884Y-117306955D01*
X160481082Y-117305298D01*
X160484538Y-117304254D01*
X160540453Y-117274523D01*
X160596714Y-117245361D01*
X160599537Y-117243107D01*
X160602716Y-117241417D01*
X160651778Y-117201403D01*
X160701316Y-117161857D01*
X160706335Y-117156908D01*
X160706438Y-117156824D01*
X160706517Y-117156728D01*
X160708134Y-117155134D01*
X161370868Y-116492400D01*
X169392700Y-116492400D01*
X169392700Y-118319391D01*
X167528299Y-121115993D01*
X164613493Y-124030799D01*
X161816892Y-125895200D01*
X135185309Y-125895200D01*
X132388707Y-124030799D01*
X128501117Y-120143209D01*
X127609500Y-118359975D01*
X127609500Y-116492400D01*
X132748200Y-116492400D01*
X132748200Y-118100400D01*
G36*
X141849227Y-116578373D02*
X141896342Y-116617074D01*
X141943096Y-116656305D01*
X141946138Y-116657977D01*
X141948822Y-116660182D01*
X142002580Y-116689007D01*
X142056041Y-116718397D01*
X142059352Y-116719447D01*
X142062412Y-116721088D01*
X142120721Y-116738915D01*
X142178895Y-116757369D01*
X142182348Y-116757756D01*
X142185667Y-116758771D01*
X142246322Y-116764932D01*
X142306979Y-116771736D01*
X142313767Y-116771783D01*
X142313894Y-116771796D01*
X142314012Y-116771785D01*
X142316200Y-116771800D01*
X146456400Y-116771800D01*
X146584672Y-116759223D01*
X146708059Y-116721970D01*
X146788446Y-116679227D01*
X146807727Y-116709145D01*
X146870762Y-116774420D01*
X146541600Y-116774420D01*
X146456658Y-116781194D01*
X146312588Y-116825810D01*
X146186651Y-116908796D01*
X146088819Y-117023583D01*
X146026840Y-117161080D01*
X146005620Y-117310400D01*
X146005620Y-118448200D01*
X146003868Y-118448200D01*
X145798334Y-118242666D01*
X145749373Y-118202449D01*
X145700854Y-118161737D01*
X145697692Y-118159999D01*
X145694907Y-118157711D01*
X145639065Y-118127768D01*
X145583565Y-118097257D01*
X145580131Y-118096168D01*
X145576950Y-118094462D01*
X145516364Y-118075939D01*
X145455986Y-118056786D01*
X145452400Y-118056384D01*
X145448953Y-118055330D01*
X145385930Y-118048928D01*
X145322975Y-118041867D01*
X145315929Y-118041818D01*
X145315794Y-118041804D01*
X145315668Y-118041816D01*
X145313400Y-118041800D01*
X137642600Y-118041800D01*
X137579537Y-118047983D01*
X137516446Y-118053503D01*
X137512983Y-118054509D01*
X137509394Y-118054861D01*
X137448709Y-118073183D01*
X137387916Y-118090845D01*
X137384718Y-118092502D01*
X137381262Y-118093546D01*
X137325347Y-118123277D01*
X137269086Y-118152439D01*
X137266263Y-118154693D01*
X137263084Y-118156383D01*
X137214022Y-118196397D01*
X137164484Y-118235943D01*
X137159465Y-118240892D01*
X137159362Y-118240976D01*
X137159283Y-118241072D01*
X137157666Y-118242666D01*
X136317912Y-119082420D01*
X136024200Y-119082420D01*
X135939258Y-119089194D01*
X135795188Y-119133810D01*
X135669251Y-119216796D01*
X135600698Y-119297230D01*
X134119800Y-117816332D01*
X134119800Y-116492400D01*
X141763254Y-116492400D01*
X141849227Y-116578373D01*
X141849227Y-116578373D01*
G37*
X141849227Y-116578373D02*
X141896342Y-116617074D01*
X141943096Y-116656305D01*
X141946138Y-116657977D01*
X141948822Y-116660182D01*
X142002580Y-116689007D01*
X142056041Y-116718397D01*
X142059352Y-116719447D01*
X142062412Y-116721088D01*
X142120721Y-116738915D01*
X142178895Y-116757369D01*
X142182348Y-116757756D01*
X142185667Y-116758771D01*
X142246322Y-116764932D01*
X142306979Y-116771736D01*
X142313767Y-116771783D01*
X142313894Y-116771796D01*
X142314012Y-116771785D01*
X142316200Y-116771800D01*
X146456400Y-116771800D01*
X146584672Y-116759223D01*
X146708059Y-116721970D01*
X146788446Y-116679227D01*
X146807727Y-116709145D01*
X146870762Y-116774420D01*
X146541600Y-116774420D01*
X146456658Y-116781194D01*
X146312588Y-116825810D01*
X146186651Y-116908796D01*
X146088819Y-117023583D01*
X146026840Y-117161080D01*
X146005620Y-117310400D01*
X146005620Y-118448200D01*
X146003868Y-118448200D01*
X145798334Y-118242666D01*
X145749373Y-118202449D01*
X145700854Y-118161737D01*
X145697692Y-118159999D01*
X145694907Y-118157711D01*
X145639065Y-118127768D01*
X145583565Y-118097257D01*
X145580131Y-118096168D01*
X145576950Y-118094462D01*
X145516364Y-118075939D01*
X145455986Y-118056786D01*
X145452400Y-118056384D01*
X145448953Y-118055330D01*
X145385930Y-118048928D01*
X145322975Y-118041867D01*
X145315929Y-118041818D01*
X145315794Y-118041804D01*
X145315668Y-118041816D01*
X145313400Y-118041800D01*
X137642600Y-118041800D01*
X137579537Y-118047983D01*
X137516446Y-118053503D01*
X137512983Y-118054509D01*
X137509394Y-118054861D01*
X137448709Y-118073183D01*
X137387916Y-118090845D01*
X137384718Y-118092502D01*
X137381262Y-118093546D01*
X137325347Y-118123277D01*
X137269086Y-118152439D01*
X137266263Y-118154693D01*
X137263084Y-118156383D01*
X137214022Y-118196397D01*
X137164484Y-118235943D01*
X137159465Y-118240892D01*
X137159362Y-118240976D01*
X137159283Y-118241072D01*
X137157666Y-118242666D01*
X136317912Y-119082420D01*
X136024200Y-119082420D01*
X135939258Y-119089194D01*
X135795188Y-119133810D01*
X135669251Y-119216796D01*
X135600698Y-119297230D01*
X134119800Y-117816332D01*
X134119800Y-116492400D01*
X141763254Y-116492400D01*
X141849227Y-116578373D01*
G36*
X152247600Y-112250600D02*
X151714200Y-112250600D01*
X151653556Y-112256546D01*
X151592719Y-112261869D01*
X151589383Y-112262838D01*
X151585928Y-112263177D01*
X151527540Y-112280806D01*
X151468949Y-112297828D01*
X151465866Y-112299426D01*
X151462541Y-112300430D01*
X151408705Y-112329055D01*
X151354521Y-112357141D01*
X151351804Y-112359310D01*
X151348740Y-112360939D01*
X151301493Y-112399472D01*
X151253793Y-112437551D01*
X151248958Y-112442319D01*
X151248860Y-112442399D01*
X151248785Y-112442489D01*
X151247227Y-112444026D01*
X149865854Y-113825400D01*
X147873643Y-113825400D01*
X147830477Y-113781932D01*
X147688006Y-113685834D01*
X147529583Y-113619239D01*
X147361241Y-113584684D01*
X147189394Y-113583484D01*
X147020587Y-113615686D01*
X146861249Y-113680062D01*
X146717450Y-113774162D01*
X146665127Y-113825400D01*
X146018746Y-113825400D01*
X145045980Y-112852634D01*
X145045980Y-112435600D01*
X145039206Y-112350658D01*
X144994590Y-112206588D01*
X144932400Y-112112210D01*
X144932400Y-110187200D01*
X145396935Y-110187200D01*
X145499987Y-110166702D01*
X145597059Y-110126493D01*
X145684422Y-110068119D01*
X145697321Y-110055220D01*
X145757583Y-110106581D01*
X145895080Y-110168560D01*
X146044400Y-110189780D01*
X146058980Y-110189780D01*
X146026840Y-110261080D01*
X146005620Y-110410400D01*
X146005620Y-111610400D01*
X146012394Y-111695342D01*
X146057010Y-111839412D01*
X146139996Y-111965349D01*
X146254783Y-112063181D01*
X146392280Y-112125160D01*
X146541600Y-112146380D01*
X146809373Y-112146380D01*
X146802377Y-112156597D01*
X146734677Y-112314551D01*
X146698948Y-112482647D01*
X146696548Y-112654482D01*
X146727571Y-112823510D01*
X146790833Y-112983293D01*
X146883927Y-113127745D01*
X147003305Y-113251365D01*
X147144420Y-113349443D01*
X147301898Y-113418243D01*
X147469741Y-113455146D01*
X147641554Y-113458745D01*
X147810795Y-113428903D01*
X147971016Y-113366758D01*
X148116115Y-113274675D01*
X148240564Y-113156163D01*
X148339625Y-113015736D01*
X148409523Y-112858742D01*
X148447597Y-112691161D01*
X148448305Y-112640442D01*
X148508573Y-112580174D01*
X148547295Y-112533034D01*
X148586505Y-112486304D01*
X148588177Y-112483262D01*
X148590382Y-112480578D01*
X148619217Y-112426801D01*
X148648597Y-112373359D01*
X148649647Y-112370050D01*
X148651288Y-112366989D01*
X148669120Y-112308665D01*
X148687569Y-112250505D01*
X148687956Y-112247052D01*
X148688971Y-112243733D01*
X148695132Y-112183078D01*
X148699249Y-112146380D01*
X148891600Y-112146380D01*
X148976542Y-112139606D01*
X149013467Y-112128171D01*
X149141600Y-112146380D01*
X149541600Y-112146380D01*
X149626542Y-112139606D01*
X149663467Y-112128171D01*
X149791600Y-112146380D01*
X150191600Y-112146380D01*
X150276542Y-112139606D01*
X150312303Y-112128531D01*
X150389064Y-112143800D01*
X150470150Y-112143800D01*
X150603500Y-112010450D01*
X150603500Y-111945183D01*
X150644381Y-111897217D01*
X150679700Y-111818864D01*
X150679700Y-112010450D01*
X150813050Y-112143800D01*
X150894136Y-112143800D01*
X150997187Y-112123302D01*
X151094260Y-112083093D01*
X151181623Y-112024719D01*
X151255919Y-111950422D01*
X151314293Y-111863059D01*
X151354502Y-111765987D01*
X151375000Y-111662935D01*
X151375000Y-111181850D01*
X151241650Y-111048500D01*
X150727580Y-111048500D01*
X150727580Y-110972300D01*
X151241650Y-110972300D01*
X151375000Y-110838950D01*
X151375000Y-110357865D01*
X151354502Y-110254813D01*
X151314293Y-110157741D01*
X151255919Y-110070378D01*
X151181623Y-109996081D01*
X151094260Y-109937707D01*
X151044607Y-109917140D01*
X151239167Y-109722580D01*
X151326000Y-109722580D01*
X151410942Y-109715806D01*
X151555012Y-109671190D01*
X151667600Y-109597000D01*
X151929400Y-109597000D01*
X151990134Y-109591045D01*
X152050882Y-109585730D01*
X152054214Y-109584762D01*
X152057672Y-109584423D01*
X152116076Y-109566790D01*
X152174652Y-109549772D01*
X152177737Y-109548173D01*
X152181059Y-109547170D01*
X152234896Y-109518545D01*
X152247600Y-109511960D01*
X152247600Y-112250600D01*
X152247600Y-112250600D01*
G37*
X152247600Y-112250600D02*
X151714200Y-112250600D01*
X151653556Y-112256546D01*
X151592719Y-112261869D01*
X151589383Y-112262838D01*
X151585928Y-112263177D01*
X151527540Y-112280806D01*
X151468949Y-112297828D01*
X151465866Y-112299426D01*
X151462541Y-112300430D01*
X151408705Y-112329055D01*
X151354521Y-112357141D01*
X151351804Y-112359310D01*
X151348740Y-112360939D01*
X151301493Y-112399472D01*
X151253793Y-112437551D01*
X151248958Y-112442319D01*
X151248860Y-112442399D01*
X151248785Y-112442489D01*
X151247227Y-112444026D01*
X149865854Y-113825400D01*
X147873643Y-113825400D01*
X147830477Y-113781932D01*
X147688006Y-113685834D01*
X147529583Y-113619239D01*
X147361241Y-113584684D01*
X147189394Y-113583484D01*
X147020587Y-113615686D01*
X146861249Y-113680062D01*
X146717450Y-113774162D01*
X146665127Y-113825400D01*
X146018746Y-113825400D01*
X145045980Y-112852634D01*
X145045980Y-112435600D01*
X145039206Y-112350658D01*
X144994590Y-112206588D01*
X144932400Y-112112210D01*
X144932400Y-110187200D01*
X145396935Y-110187200D01*
X145499987Y-110166702D01*
X145597059Y-110126493D01*
X145684422Y-110068119D01*
X145697321Y-110055220D01*
X145757583Y-110106581D01*
X145895080Y-110168560D01*
X146044400Y-110189780D01*
X146058980Y-110189780D01*
X146026840Y-110261080D01*
X146005620Y-110410400D01*
X146005620Y-111610400D01*
X146012394Y-111695342D01*
X146057010Y-111839412D01*
X146139996Y-111965349D01*
X146254783Y-112063181D01*
X146392280Y-112125160D01*
X146541600Y-112146380D01*
X146809373Y-112146380D01*
X146802377Y-112156597D01*
X146734677Y-112314551D01*
X146698948Y-112482647D01*
X146696548Y-112654482D01*
X146727571Y-112823510D01*
X146790833Y-112983293D01*
X146883927Y-113127745D01*
X147003305Y-113251365D01*
X147144420Y-113349443D01*
X147301898Y-113418243D01*
X147469741Y-113455146D01*
X147641554Y-113458745D01*
X147810795Y-113428903D01*
X147971016Y-113366758D01*
X148116115Y-113274675D01*
X148240564Y-113156163D01*
X148339625Y-113015736D01*
X148409523Y-112858742D01*
X148447597Y-112691161D01*
X148448305Y-112640442D01*
X148508573Y-112580174D01*
X148547295Y-112533034D01*
X148586505Y-112486304D01*
X148588177Y-112483262D01*
X148590382Y-112480578D01*
X148619217Y-112426801D01*
X148648597Y-112373359D01*
X148649647Y-112370050D01*
X148651288Y-112366989D01*
X148669120Y-112308665D01*
X148687569Y-112250505D01*
X148687956Y-112247052D01*
X148688971Y-112243733D01*
X148695132Y-112183078D01*
X148699249Y-112146380D01*
X148891600Y-112146380D01*
X148976542Y-112139606D01*
X149013467Y-112128171D01*
X149141600Y-112146380D01*
X149541600Y-112146380D01*
X149626542Y-112139606D01*
X149663467Y-112128171D01*
X149791600Y-112146380D01*
X150191600Y-112146380D01*
X150276542Y-112139606D01*
X150312303Y-112128531D01*
X150389064Y-112143800D01*
X150470150Y-112143800D01*
X150603500Y-112010450D01*
X150603500Y-111945183D01*
X150644381Y-111897217D01*
X150679700Y-111818864D01*
X150679700Y-112010450D01*
X150813050Y-112143800D01*
X150894136Y-112143800D01*
X150997187Y-112123302D01*
X151094260Y-112083093D01*
X151181623Y-112024719D01*
X151255919Y-111950422D01*
X151314293Y-111863059D01*
X151354502Y-111765987D01*
X151375000Y-111662935D01*
X151375000Y-111181850D01*
X151241650Y-111048500D01*
X150727580Y-111048500D01*
X150727580Y-110972300D01*
X151241650Y-110972300D01*
X151375000Y-110838950D01*
X151375000Y-110357865D01*
X151354502Y-110254813D01*
X151314293Y-110157741D01*
X151255919Y-110070378D01*
X151181623Y-109996081D01*
X151094260Y-109937707D01*
X151044607Y-109917140D01*
X151239167Y-109722580D01*
X151326000Y-109722580D01*
X151410942Y-109715806D01*
X151555012Y-109671190D01*
X151667600Y-109597000D01*
X151929400Y-109597000D01*
X151990134Y-109591045D01*
X152050882Y-109585730D01*
X152054214Y-109584762D01*
X152057672Y-109584423D01*
X152116076Y-109566790D01*
X152174652Y-109549772D01*
X152177737Y-109548173D01*
X152181059Y-109547170D01*
X152234896Y-109518545D01*
X152247600Y-109511960D01*
X152247600Y-112250600D01*
G36*
X150619550Y-100091956D02*
X150664347Y-100123091D01*
X150607867Y-100178400D01*
X150510777Y-100320197D01*
X150443077Y-100478151D01*
X150407348Y-100646247D01*
X150404948Y-100818082D01*
X150435971Y-100987110D01*
X150499233Y-101146893D01*
X150592327Y-101291345D01*
X150711705Y-101414965D01*
X150852820Y-101513043D01*
X151010298Y-101581843D01*
X151178141Y-101618746D01*
X151349954Y-101622345D01*
X151425603Y-101609006D01*
X151483999Y-101615556D01*
X151490787Y-101615603D01*
X151490914Y-101615616D01*
X151491032Y-101615605D01*
X151493220Y-101615620D01*
X151542750Y-101615620D01*
X151641810Y-101714680D01*
X151843734Y-101714680D01*
X151892540Y-101736680D01*
X152007153Y-101752968D01*
X151956918Y-101756974D01*
X151847432Y-101790880D01*
X151641810Y-101790880D01*
X151508460Y-101924230D01*
X151508460Y-102072016D01*
X151524707Y-102153697D01*
X151505880Y-102286180D01*
X151505880Y-102509783D01*
X151405794Y-102509084D01*
X151236987Y-102541286D01*
X151077649Y-102605662D01*
X150933850Y-102699762D01*
X150811067Y-102820000D01*
X150713977Y-102961797D01*
X150679285Y-103042738D01*
X150354948Y-102718402D01*
X150355338Y-102690474D01*
X150321958Y-102521896D01*
X150256471Y-102363012D01*
X150161370Y-102219873D01*
X150040277Y-102097932D01*
X149897806Y-102001834D01*
X149739383Y-101935239D01*
X149571041Y-101900684D01*
X149399194Y-101899484D01*
X149230387Y-101931686D01*
X149071049Y-101996062D01*
X148927250Y-102090162D01*
X148804467Y-102210400D01*
X148707377Y-102352197D01*
X148639677Y-102510151D01*
X148634434Y-102534819D01*
X148586394Y-102534484D01*
X148417587Y-102566686D01*
X148258249Y-102631062D01*
X148114450Y-102725162D01*
X147991667Y-102845400D01*
X147894577Y-102987197D01*
X147826877Y-103145151D01*
X147791148Y-103313247D01*
X147790223Y-103379477D01*
X147279799Y-102869053D01*
X147281938Y-102715874D01*
X147248558Y-102547296D01*
X147183071Y-102388412D01*
X147087970Y-102245273D01*
X146966877Y-102123332D01*
X146824406Y-102027234D01*
X146665983Y-101960639D01*
X146497641Y-101926084D01*
X146325794Y-101924884D01*
X146156987Y-101957086D01*
X145997649Y-102021462D01*
X145853850Y-102115562D01*
X145731067Y-102235800D01*
X145633977Y-102377597D01*
X145566277Y-102535551D01*
X145560991Y-102560419D01*
X145394987Y-102592086D01*
X145235649Y-102656462D01*
X145210917Y-102672647D01*
X145129250Y-102590980D01*
X144932400Y-102590980D01*
X144932400Y-102514780D01*
X145129250Y-102514780D01*
X145262600Y-102381430D01*
X145262600Y-102233644D01*
X145246353Y-102151963D01*
X145265180Y-102019480D01*
X145265180Y-101486080D01*
X145258406Y-101401138D01*
X145245616Y-101359839D01*
X145262600Y-101274456D01*
X145262600Y-101126670D01*
X145129250Y-100993320D01*
X144932400Y-100993320D01*
X144932400Y-100917120D01*
X145129250Y-100917120D01*
X145205450Y-100840920D01*
X148264880Y-100840920D01*
X148327943Y-100834737D01*
X148391034Y-100829217D01*
X148394497Y-100828211D01*
X148398086Y-100827859D01*
X148458771Y-100809537D01*
X148519564Y-100791875D01*
X148522762Y-100790218D01*
X148526218Y-100789174D01*
X148582133Y-100759443D01*
X148638394Y-100730281D01*
X148641217Y-100728027D01*
X148644396Y-100726337D01*
X148693458Y-100686323D01*
X148742996Y-100646777D01*
X148748015Y-100641828D01*
X148748118Y-100641744D01*
X148748197Y-100641648D01*
X148749814Y-100640054D01*
X149331268Y-100058600D01*
X150587338Y-100058600D01*
X150619550Y-100091956D01*
X150619550Y-100091956D01*
G37*
X150619550Y-100091956D02*
X150664347Y-100123091D01*
X150607867Y-100178400D01*
X150510777Y-100320197D01*
X150443077Y-100478151D01*
X150407348Y-100646247D01*
X150404948Y-100818082D01*
X150435971Y-100987110D01*
X150499233Y-101146893D01*
X150592327Y-101291345D01*
X150711705Y-101414965D01*
X150852820Y-101513043D01*
X151010298Y-101581843D01*
X151178141Y-101618746D01*
X151349954Y-101622345D01*
X151425603Y-101609006D01*
X151483999Y-101615556D01*
X151490787Y-101615603D01*
X151490914Y-101615616D01*
X151491032Y-101615605D01*
X151493220Y-101615620D01*
X151542750Y-101615620D01*
X151641810Y-101714680D01*
X151843734Y-101714680D01*
X151892540Y-101736680D01*
X152007153Y-101752968D01*
X151956918Y-101756974D01*
X151847432Y-101790880D01*
X151641810Y-101790880D01*
X151508460Y-101924230D01*
X151508460Y-102072016D01*
X151524707Y-102153697D01*
X151505880Y-102286180D01*
X151505880Y-102509783D01*
X151405794Y-102509084D01*
X151236987Y-102541286D01*
X151077649Y-102605662D01*
X150933850Y-102699762D01*
X150811067Y-102820000D01*
X150713977Y-102961797D01*
X150679285Y-103042738D01*
X150354948Y-102718402D01*
X150355338Y-102690474D01*
X150321958Y-102521896D01*
X150256471Y-102363012D01*
X150161370Y-102219873D01*
X150040277Y-102097932D01*
X149897806Y-102001834D01*
X149739383Y-101935239D01*
X149571041Y-101900684D01*
X149399194Y-101899484D01*
X149230387Y-101931686D01*
X149071049Y-101996062D01*
X148927250Y-102090162D01*
X148804467Y-102210400D01*
X148707377Y-102352197D01*
X148639677Y-102510151D01*
X148634434Y-102534819D01*
X148586394Y-102534484D01*
X148417587Y-102566686D01*
X148258249Y-102631062D01*
X148114450Y-102725162D01*
X147991667Y-102845400D01*
X147894577Y-102987197D01*
X147826877Y-103145151D01*
X147791148Y-103313247D01*
X147790223Y-103379477D01*
X147279799Y-102869053D01*
X147281938Y-102715874D01*
X147248558Y-102547296D01*
X147183071Y-102388412D01*
X147087970Y-102245273D01*
X146966877Y-102123332D01*
X146824406Y-102027234D01*
X146665983Y-101960639D01*
X146497641Y-101926084D01*
X146325794Y-101924884D01*
X146156987Y-101957086D01*
X145997649Y-102021462D01*
X145853850Y-102115562D01*
X145731067Y-102235800D01*
X145633977Y-102377597D01*
X145566277Y-102535551D01*
X145560991Y-102560419D01*
X145394987Y-102592086D01*
X145235649Y-102656462D01*
X145210917Y-102672647D01*
X145129250Y-102590980D01*
X144932400Y-102590980D01*
X144932400Y-102514780D01*
X145129250Y-102514780D01*
X145262600Y-102381430D01*
X145262600Y-102233644D01*
X145246353Y-102151963D01*
X145265180Y-102019480D01*
X145265180Y-101486080D01*
X145258406Y-101401138D01*
X145245616Y-101359839D01*
X145262600Y-101274456D01*
X145262600Y-101126670D01*
X145129250Y-100993320D01*
X144932400Y-100993320D01*
X144932400Y-100917120D01*
X145129250Y-100917120D01*
X145205450Y-100840920D01*
X148264880Y-100840920D01*
X148327943Y-100834737D01*
X148391034Y-100829217D01*
X148394497Y-100828211D01*
X148398086Y-100827859D01*
X148458771Y-100809537D01*
X148519564Y-100791875D01*
X148522762Y-100790218D01*
X148526218Y-100789174D01*
X148582133Y-100759443D01*
X148638394Y-100730281D01*
X148641217Y-100728027D01*
X148644396Y-100726337D01*
X148693458Y-100686323D01*
X148742996Y-100646777D01*
X148748015Y-100641828D01*
X148748118Y-100641744D01*
X148748197Y-100641648D01*
X148749814Y-100640054D01*
X149331268Y-100058600D01*
X150587338Y-100058600D01*
X150619550Y-100091956D01*
M02*
