G04 #@! TF.FileFunction,Legend,Top*
%FSLAX46Y46*%
G04 Gerber Fmt 4.6, Leading zero omitted, Abs format (unit mm)*
G04 Created by KiCad (PCBNEW 4.0.6) date 07/29/17 20:07:19*
%MOMM*%
%LPD*%
G01*
G04 APERTURE LIST*
%ADD10C,0.100000*%
%ADD11C,0.200000*%
%ADD12C,0.406400*%
%ADD13C,0.081280*%
%ADD14C,0.065024*%
%ADD15C,7.500000*%
%ADD16C,0.120000*%
%ADD17C,0.150000*%
%ADD18R,2.400000X1.400000*%
%ADD19R,1.150000X1.600000*%
%ADD20R,1.600000X1.300000*%
%ADD21R,1.200000X1.200000*%
%ADD22C,1.900000*%
%ADD23C,1.705560*%
%ADD24R,1.700000X1.100000*%
G04 APERTURE END LIST*
D10*
D11*
X139400000Y-116000000D02*
X139400000Y-111100000D01*
X129500000Y-116000000D02*
X129500000Y-111000000D01*
X130000000Y-116000000D02*
X129500000Y-116000000D01*
X139500000Y-116000000D02*
X130000000Y-116000000D01*
X157500000Y-116000000D02*
X157500000Y-111000000D01*
X167000000Y-116000000D02*
X157500000Y-116000000D01*
X167000000Y-111000000D02*
X167000000Y-116000000D01*
D12*
X169875728Y-105087000D02*
G75*
G03X169875728Y-105087000I-7648528J0D01*
G01*
D13*
X143260344Y-111454038D02*
X142938611Y-110994419D01*
X142708802Y-111454038D02*
X142708802Y-110488838D01*
X143076497Y-110488838D01*
X143168421Y-110534800D01*
X143214382Y-110580762D01*
X143260344Y-110672686D01*
X143260344Y-110810571D01*
X143214382Y-110902495D01*
X143168421Y-110948457D01*
X143076497Y-110994419D01*
X142708802Y-110994419D01*
X144041697Y-111408076D02*
X143949773Y-111454038D01*
X143765925Y-111454038D01*
X143674002Y-111408076D01*
X143628040Y-111316152D01*
X143628040Y-110948457D01*
X143674002Y-110856533D01*
X143765925Y-110810571D01*
X143949773Y-110810571D01*
X144041697Y-110856533D01*
X144087659Y-110948457D01*
X144087659Y-111040381D01*
X143628040Y-111132305D01*
X144501316Y-110810571D02*
X144501316Y-111775771D01*
X144501316Y-110856533D02*
X144593239Y-110810571D01*
X144777087Y-110810571D01*
X144869011Y-110856533D01*
X144914973Y-110902495D01*
X144960935Y-110994419D01*
X144960935Y-111270190D01*
X144914973Y-111362114D01*
X144869011Y-111408076D01*
X144777087Y-111454038D01*
X144593239Y-111454038D01*
X144501316Y-111408076D01*
X145512477Y-111454038D02*
X145420553Y-111408076D01*
X145374592Y-111316152D01*
X145374592Y-110488838D01*
X146293830Y-111454038D02*
X146293830Y-110948457D01*
X146247868Y-110856533D01*
X146155944Y-110810571D01*
X145972096Y-110810571D01*
X145880173Y-110856533D01*
X146293830Y-111408076D02*
X146201906Y-111454038D01*
X145972096Y-111454038D01*
X145880173Y-111408076D01*
X145834211Y-111316152D01*
X145834211Y-111224229D01*
X145880173Y-111132305D01*
X145972096Y-111086343D01*
X146201906Y-111086343D01*
X146293830Y-111040381D01*
X147167106Y-111408076D02*
X147075182Y-111454038D01*
X146891334Y-111454038D01*
X146799410Y-111408076D01*
X146753449Y-111362114D01*
X146707487Y-111270190D01*
X146707487Y-110994419D01*
X146753449Y-110902495D01*
X146799410Y-110856533D01*
X146891334Y-110810571D01*
X147075182Y-110810571D01*
X147167106Y-110856533D01*
X147948458Y-111408076D02*
X147856534Y-111454038D01*
X147672686Y-111454038D01*
X147580763Y-111408076D01*
X147534801Y-111316152D01*
X147534801Y-110948457D01*
X147580763Y-110856533D01*
X147672686Y-110810571D01*
X147856534Y-110810571D01*
X147948458Y-110856533D01*
X147994420Y-110948457D01*
X147994420Y-111040381D01*
X147534801Y-111132305D01*
X149603086Y-111454038D02*
X149143467Y-111454038D01*
X149143467Y-110488838D01*
X149924819Y-111454038D02*
X149924819Y-110488838D01*
X150246552Y-110488838D02*
X150568285Y-111454038D01*
X150890018Y-110488838D01*
X151395599Y-110488838D02*
X151579447Y-110488838D01*
X151671371Y-110534800D01*
X151763294Y-110626724D01*
X151809256Y-110810571D01*
X151809256Y-111132305D01*
X151763294Y-111316152D01*
X151671371Y-111408076D01*
X151579447Y-111454038D01*
X151395599Y-111454038D01*
X151303675Y-111408076D01*
X151211752Y-111316152D01*
X151165790Y-111132305D01*
X151165790Y-110810571D01*
X151211752Y-110626724D01*
X151303675Y-110534800D01*
X151395599Y-110488838D01*
X152682533Y-111454038D02*
X152222914Y-111454038D01*
X152222914Y-110488838D01*
X153188113Y-110488838D02*
X153371961Y-110488838D01*
X153463885Y-110534800D01*
X153555808Y-110626724D01*
X153601770Y-110810571D01*
X153601770Y-111132305D01*
X153555808Y-111316152D01*
X153463885Y-111408076D01*
X153371961Y-111454038D01*
X153188113Y-111454038D01*
X153096189Y-111408076D01*
X153004266Y-111316152D01*
X152958304Y-111132305D01*
X152958304Y-110810571D01*
X153004266Y-110626724D01*
X153096189Y-110534800D01*
X153188113Y-110488838D01*
X140939268Y-111988838D02*
X141261001Y-112954038D01*
X141582734Y-111988838D01*
X142364087Y-112954038D02*
X141904468Y-112954038D01*
X141904468Y-111988838D01*
X142685820Y-112586343D02*
X143421210Y-112586343D01*
X144432372Y-112862114D02*
X144386410Y-112908076D01*
X144248525Y-112954038D01*
X144156601Y-112954038D01*
X144018715Y-112908076D01*
X143926791Y-112816152D01*
X143880830Y-112724229D01*
X143834868Y-112540381D01*
X143834868Y-112402495D01*
X143880830Y-112218648D01*
X143926791Y-112126724D01*
X144018715Y-112034800D01*
X144156601Y-111988838D01*
X144248525Y-111988838D01*
X144386410Y-112034800D01*
X144432372Y-112080762D01*
X144754106Y-111988838D02*
X145397572Y-111988838D01*
X144983915Y-112954038D01*
X145949115Y-111988838D02*
X146041039Y-111988838D01*
X146132963Y-112034800D01*
X146178925Y-112080762D01*
X146224887Y-112172686D01*
X146270848Y-112356533D01*
X146270848Y-112586343D01*
X146224887Y-112770190D01*
X146178925Y-112862114D01*
X146132963Y-112908076D01*
X146041039Y-112954038D01*
X145949115Y-112954038D01*
X145857191Y-112908076D01*
X145811229Y-112862114D01*
X145765268Y-112770190D01*
X145719306Y-112586343D01*
X145719306Y-112356533D01*
X145765268Y-112172686D01*
X145811229Y-112080762D01*
X145857191Y-112034800D01*
X145949115Y-111988838D01*
X146638544Y-112080762D02*
X146684506Y-112034800D01*
X146776429Y-111988838D01*
X147006239Y-111988838D01*
X147098163Y-112034800D01*
X147144125Y-112080762D01*
X147190086Y-112172686D01*
X147190086Y-112264610D01*
X147144125Y-112402495D01*
X146592582Y-112954038D01*
X147190086Y-112954038D01*
X147511820Y-111988838D02*
X148155286Y-112954038D01*
X148155286Y-111988838D02*
X147511820Y-112954038D01*
X148522982Y-112586343D02*
X149258372Y-112586343D01*
X149672030Y-112080762D02*
X149717992Y-112034800D01*
X149809915Y-111988838D01*
X150039725Y-111988838D01*
X150131649Y-112034800D01*
X150177611Y-112080762D01*
X150223572Y-112172686D01*
X150223572Y-112264610D01*
X150177611Y-112402495D01*
X149626068Y-112954038D01*
X150223572Y-112954038D01*
X151234734Y-111988838D02*
X151556467Y-112954038D01*
X151878200Y-111988838D01*
X152199934Y-112448457D02*
X152521667Y-112448457D01*
X152659553Y-112954038D02*
X152199934Y-112954038D01*
X152199934Y-111988838D01*
X152659553Y-111988838D01*
X153624752Y-112954038D02*
X153303019Y-112494419D01*
X153073210Y-112954038D02*
X153073210Y-111988838D01*
X153440905Y-111988838D01*
X153532829Y-112034800D01*
X153578790Y-112080762D01*
X153624752Y-112172686D01*
X153624752Y-112310571D01*
X153578790Y-112402495D01*
X153532829Y-112448457D01*
X153440905Y-112494419D01*
X153073210Y-112494419D01*
X154038410Y-112862114D02*
X154084371Y-112908076D01*
X154038410Y-112954038D01*
X153992448Y-112908076D01*
X154038410Y-112862114D01*
X154038410Y-112954038D01*
X154038410Y-112356533D02*
X154084371Y-112402495D01*
X154038410Y-112448457D01*
X153992448Y-112402495D01*
X154038410Y-112356533D01*
X154038410Y-112448457D01*
X155049571Y-112862114D02*
X155003609Y-112908076D01*
X154865724Y-112954038D01*
X154773800Y-112954038D01*
X154635914Y-112908076D01*
X154543990Y-112816152D01*
X154498029Y-112724229D01*
X154452067Y-112540381D01*
X154452067Y-112402495D01*
X154498029Y-112218648D01*
X154543990Y-112126724D01*
X154635914Y-112034800D01*
X154773800Y-111988838D01*
X154865724Y-111988838D01*
X155003609Y-112034800D01*
X155049571Y-112080762D01*
X155968809Y-112954038D02*
X155417267Y-112954038D01*
X155693038Y-112954038D02*
X155693038Y-111988838D01*
X155601114Y-112126724D01*
X155509190Y-112218648D01*
X155417267Y-112264610D01*
D14*
X141363104Y-116225193D02*
X141546951Y-116739966D01*
X141730799Y-116225193D01*
X142429419Y-116739966D02*
X141988185Y-116739966D01*
X142208802Y-116739966D02*
X142208802Y-115967806D01*
X142135263Y-116078115D01*
X142061724Y-116151654D01*
X141988185Y-116188424D01*
X142760345Y-116666427D02*
X142797114Y-116703197D01*
X142760345Y-116739966D01*
X142723575Y-116703197D01*
X142760345Y-116666427D01*
X142760345Y-116739966D01*
X143091270Y-116041346D02*
X143128040Y-116004576D01*
X143201579Y-115967806D01*
X143385426Y-115967806D01*
X143458965Y-116004576D01*
X143495735Y-116041346D01*
X143532504Y-116114885D01*
X143532504Y-116188424D01*
X143495735Y-116298732D01*
X143054501Y-116739966D01*
X143532504Y-116739966D01*
X143863430Y-116739966D02*
X143863430Y-115967806D01*
X143863430Y-116261963D02*
X143936969Y-116225193D01*
X144084047Y-116225193D01*
X144157586Y-116261963D01*
X144194355Y-116298732D01*
X144231125Y-116372271D01*
X144231125Y-116592888D01*
X144194355Y-116666427D01*
X144157586Y-116703197D01*
X144084047Y-116739966D01*
X143936969Y-116739966D01*
X143863430Y-116703197D01*
X144856207Y-116703197D02*
X144782668Y-116739966D01*
X144635590Y-116739966D01*
X144562051Y-116703197D01*
X144525281Y-116629658D01*
X144525281Y-116335502D01*
X144562051Y-116261963D01*
X144635590Y-116225193D01*
X144782668Y-116225193D01*
X144856207Y-116261963D01*
X144892976Y-116335502D01*
X144892976Y-116409041D01*
X144525281Y-116482580D01*
X145113593Y-116225193D02*
X145407749Y-116225193D01*
X145223902Y-115967806D02*
X145223902Y-116629658D01*
X145260671Y-116703197D01*
X145334210Y-116739966D01*
X145407749Y-116739966D01*
X145996061Y-116739966D02*
X145996061Y-116335502D01*
X145959292Y-116261963D01*
X145885753Y-116225193D01*
X145738675Y-116225193D01*
X145665136Y-116261963D01*
X145996061Y-116703197D02*
X145922522Y-116739966D01*
X145738675Y-116739966D01*
X145665136Y-116703197D01*
X145628366Y-116629658D01*
X145628366Y-116556119D01*
X145665136Y-116482580D01*
X145738675Y-116445810D01*
X145922522Y-116445810D01*
X145996061Y-116409041D01*
X146952069Y-116445810D02*
X147540381Y-116445810D01*
X148386080Y-115967806D02*
X148827314Y-115967806D01*
X148606697Y-116739966D02*
X148606697Y-115967806D01*
X149195009Y-116739966D02*
X149121470Y-116703197D01*
X149084701Y-116666427D01*
X149047931Y-116592888D01*
X149047931Y-116372271D01*
X149084701Y-116298732D01*
X149121470Y-116261963D01*
X149195009Y-116225193D01*
X149305318Y-116225193D01*
X149378857Y-116261963D01*
X149415626Y-116298732D01*
X149452396Y-116372271D01*
X149452396Y-116592888D01*
X149415626Y-116666427D01*
X149378857Y-116703197D01*
X149305318Y-116739966D01*
X149195009Y-116739966D01*
X149783322Y-116225193D02*
X149783322Y-116739966D01*
X149783322Y-116298732D02*
X149820091Y-116261963D01*
X149893630Y-116225193D01*
X150003939Y-116225193D01*
X150077478Y-116261963D01*
X150114247Y-116335502D01*
X150114247Y-116739966D01*
X150481943Y-116225193D02*
X150481943Y-116739966D01*
X150481943Y-116298732D02*
X150518712Y-116261963D01*
X150592251Y-116225193D01*
X150702560Y-116225193D01*
X150776099Y-116261963D01*
X150812868Y-116335502D01*
X150812868Y-116739966D01*
X151474720Y-116703197D02*
X151401181Y-116739966D01*
X151254103Y-116739966D01*
X151180564Y-116703197D01*
X151143794Y-116629658D01*
X151143794Y-116335502D01*
X151180564Y-116261963D01*
X151254103Y-116225193D01*
X151401181Y-116225193D01*
X151474720Y-116261963D01*
X151511489Y-116335502D01*
X151511489Y-116409041D01*
X151143794Y-116482580D01*
X151842415Y-116739966D02*
X151842415Y-116225193D01*
X151842415Y-116372271D02*
X151879184Y-116298732D01*
X151915954Y-116261963D01*
X151989493Y-116225193D01*
X152063032Y-116225193D01*
X152320419Y-116739966D02*
X152320419Y-116225193D01*
X152320419Y-116372271D02*
X152357188Y-116298732D01*
X152393958Y-116261963D01*
X152467497Y-116225193D01*
X152541036Y-116225193D01*
X153092579Y-116703197D02*
X153019040Y-116739966D01*
X152871962Y-116739966D01*
X152798423Y-116703197D01*
X152761653Y-116629658D01*
X152761653Y-116335502D01*
X152798423Y-116261963D01*
X152871962Y-116225193D01*
X153019040Y-116225193D01*
X153092579Y-116261963D01*
X153129348Y-116335502D01*
X153129348Y-116409041D01*
X152761653Y-116482580D01*
X153386735Y-115967806D02*
X153864738Y-115967806D01*
X153607352Y-116261963D01*
X153717660Y-116261963D01*
X153791199Y-116298732D01*
X153827969Y-116335502D01*
X153864738Y-116409041D01*
X153864738Y-116592888D01*
X153827969Y-116666427D01*
X153791199Y-116703197D01*
X153717660Y-116739966D01*
X153497043Y-116739966D01*
X153423504Y-116703197D01*
X153386735Y-116666427D01*
X154122125Y-115967806D02*
X154600128Y-115967806D01*
X154342742Y-116261963D01*
X154453050Y-116261963D01*
X154526589Y-116298732D01*
X154563359Y-116335502D01*
X154600128Y-116409041D01*
X154600128Y-116592888D01*
X154563359Y-116666427D01*
X154526589Y-116703197D01*
X154453050Y-116739966D01*
X154232433Y-116739966D01*
X154158894Y-116703197D01*
X154122125Y-116666427D01*
X144396588Y-117264610D02*
X144433358Y-117227840D01*
X144506897Y-117191070D01*
X144690744Y-117191070D01*
X144764283Y-117227840D01*
X144801053Y-117264610D01*
X144837822Y-117338149D01*
X144837822Y-117411688D01*
X144801053Y-117521996D01*
X144359819Y-117963230D01*
X144837822Y-117963230D01*
X145205517Y-117963230D02*
X145352595Y-117963230D01*
X145426134Y-117926461D01*
X145462904Y-117889691D01*
X145536443Y-117779383D01*
X145573212Y-117632305D01*
X145573212Y-117338149D01*
X145536443Y-117264610D01*
X145499673Y-117227840D01*
X145426134Y-117191070D01*
X145279056Y-117191070D01*
X145205517Y-117227840D01*
X145168748Y-117264610D01*
X145131978Y-117338149D01*
X145131978Y-117521996D01*
X145168748Y-117595535D01*
X145205517Y-117632305D01*
X145279056Y-117669074D01*
X145426134Y-117669074D01*
X145499673Y-117632305D01*
X145536443Y-117595535D01*
X145573212Y-117521996D01*
X146455680Y-117154301D02*
X145793829Y-118147078D01*
X146860146Y-117191070D02*
X146933685Y-117191070D01*
X147007224Y-117227840D01*
X147043993Y-117264610D01*
X147080763Y-117338149D01*
X147117532Y-117485227D01*
X147117532Y-117669074D01*
X147080763Y-117816152D01*
X147043993Y-117889691D01*
X147007224Y-117926461D01*
X146933685Y-117963230D01*
X146860146Y-117963230D01*
X146786607Y-117926461D01*
X146749837Y-117889691D01*
X146713068Y-117816152D01*
X146676298Y-117669074D01*
X146676298Y-117485227D01*
X146713068Y-117338149D01*
X146749837Y-117264610D01*
X146786607Y-117227840D01*
X146860146Y-117191070D01*
X147374919Y-117191070D02*
X147889692Y-117191070D01*
X147558766Y-117963230D01*
X148735390Y-117154301D02*
X148073539Y-118147078D01*
X148956008Y-117264610D02*
X148992778Y-117227840D01*
X149066317Y-117191070D01*
X149250164Y-117191070D01*
X149323703Y-117227840D01*
X149360473Y-117264610D01*
X149397242Y-117338149D01*
X149397242Y-117411688D01*
X149360473Y-117521996D01*
X148919239Y-117963230D01*
X149397242Y-117963230D01*
X149875246Y-117191070D02*
X149948785Y-117191070D01*
X150022324Y-117227840D01*
X150059093Y-117264610D01*
X150095863Y-117338149D01*
X150132632Y-117485227D01*
X150132632Y-117669074D01*
X150095863Y-117816152D01*
X150059093Y-117889691D01*
X150022324Y-117926461D01*
X149948785Y-117963230D01*
X149875246Y-117963230D01*
X149801707Y-117926461D01*
X149764937Y-117889691D01*
X149728168Y-117816152D01*
X149691398Y-117669074D01*
X149691398Y-117485227D01*
X149728168Y-117338149D01*
X149764937Y-117264610D01*
X149801707Y-117227840D01*
X149875246Y-117191070D01*
X150868022Y-117963230D02*
X150426788Y-117963230D01*
X150647405Y-117963230D02*
X150647405Y-117191070D01*
X150573866Y-117301379D01*
X150500327Y-117374918D01*
X150426788Y-117411688D01*
X151125409Y-117191070D02*
X151640182Y-117191070D01*
X151309256Y-117963230D01*
X142212412Y-114239966D02*
X142212412Y-113467806D01*
X142469798Y-114019349D01*
X142727185Y-113467806D01*
X142727185Y-114239966D01*
X143021342Y-113725193D02*
X143205189Y-114239966D01*
X143389037Y-113725193D02*
X143205189Y-114239966D01*
X143131650Y-114423814D01*
X143094881Y-114460584D01*
X143021342Y-114497353D01*
X143646423Y-114203197D02*
X143719962Y-114239966D01*
X143867040Y-114239966D01*
X143940579Y-114203197D01*
X143977349Y-114129658D01*
X143977349Y-114092888D01*
X143940579Y-114019349D01*
X143867040Y-113982580D01*
X143756732Y-113982580D01*
X143683193Y-113945810D01*
X143646423Y-113872271D01*
X143646423Y-113835502D01*
X143683193Y-113761963D01*
X143756732Y-113725193D01*
X143867040Y-113725193D01*
X143940579Y-113761963D01*
X144602431Y-114203197D02*
X144528892Y-114239966D01*
X144381814Y-114239966D01*
X144308275Y-114203197D01*
X144271505Y-114129658D01*
X144271505Y-113835502D01*
X144308275Y-113761963D01*
X144381814Y-113725193D01*
X144528892Y-113725193D01*
X144602431Y-113761963D01*
X144639200Y-113835502D01*
X144639200Y-113909041D01*
X144271505Y-113982580D01*
X144970126Y-113725193D02*
X144970126Y-114239966D01*
X144970126Y-113798732D02*
X145006895Y-113761963D01*
X145080434Y-113725193D01*
X145190743Y-113725193D01*
X145264282Y-113761963D01*
X145301051Y-113835502D01*
X145301051Y-114239966D01*
X145631977Y-114203197D02*
X145705516Y-114239966D01*
X145852594Y-114239966D01*
X145926133Y-114203197D01*
X145962903Y-114129658D01*
X145962903Y-114092888D01*
X145926133Y-114019349D01*
X145852594Y-113982580D01*
X145742286Y-113982580D01*
X145668747Y-113945810D01*
X145631977Y-113872271D01*
X145631977Y-113835502D01*
X145668747Y-113761963D01*
X145742286Y-113725193D01*
X145852594Y-113725193D01*
X145926133Y-113761963D01*
X146404137Y-114239966D02*
X146330598Y-114203197D01*
X146293829Y-114166427D01*
X146257059Y-114092888D01*
X146257059Y-113872271D01*
X146293829Y-113798732D01*
X146330598Y-113761963D01*
X146404137Y-113725193D01*
X146514446Y-113725193D01*
X146587985Y-113761963D01*
X146624754Y-113798732D01*
X146661524Y-113872271D01*
X146661524Y-114092888D01*
X146624754Y-114166427D01*
X146587985Y-114203197D01*
X146514446Y-114239966D01*
X146404137Y-114239966D01*
X146992450Y-114239966D02*
X146992450Y-113725193D01*
X146992450Y-113872271D02*
X147029219Y-113798732D01*
X147065989Y-113761963D01*
X147139528Y-113725193D01*
X147213067Y-113725193D01*
X147433684Y-114203197D02*
X147507223Y-114239966D01*
X147654301Y-114239966D01*
X147727840Y-114203197D01*
X147764610Y-114129658D01*
X147764610Y-114092888D01*
X147727840Y-114019349D01*
X147654301Y-113982580D01*
X147543993Y-113982580D01*
X147470454Y-113945810D01*
X147433684Y-113872271D01*
X147433684Y-113835502D01*
X147470454Y-113761963D01*
X147543993Y-113725193D01*
X147654301Y-113725193D01*
X147727840Y-113761963D01*
X149125082Y-114166427D02*
X149088312Y-114203197D01*
X148978004Y-114239966D01*
X148904465Y-114239966D01*
X148794156Y-114203197D01*
X148720617Y-114129658D01*
X148683848Y-114056119D01*
X148647078Y-113909041D01*
X148647078Y-113798732D01*
X148683848Y-113651654D01*
X148720617Y-113578115D01*
X148794156Y-113504576D01*
X148904465Y-113467806D01*
X148978004Y-113467806D01*
X149088312Y-113504576D01*
X149125082Y-113541346D01*
X149566316Y-114239966D02*
X149492777Y-114203197D01*
X149456008Y-114166427D01*
X149419238Y-114092888D01*
X149419238Y-113872271D01*
X149456008Y-113798732D01*
X149492777Y-113761963D01*
X149566316Y-113725193D01*
X149676625Y-113725193D01*
X149750164Y-113761963D01*
X149786933Y-113798732D01*
X149823703Y-113872271D01*
X149823703Y-114092888D01*
X149786933Y-114166427D01*
X149750164Y-114203197D01*
X149676625Y-114239966D01*
X149566316Y-114239966D01*
X150154629Y-114239966D02*
X150154629Y-113725193D01*
X150154629Y-113798732D02*
X150191398Y-113761963D01*
X150264937Y-113725193D01*
X150375246Y-113725193D01*
X150448785Y-113761963D01*
X150485554Y-113835502D01*
X150485554Y-114239966D01*
X150485554Y-113835502D02*
X150522324Y-113761963D01*
X150595863Y-113725193D01*
X150706171Y-113725193D01*
X150779711Y-113761963D01*
X150816480Y-113835502D01*
X150816480Y-114239966D01*
X151184176Y-113725193D02*
X151184176Y-114497353D01*
X151184176Y-113761963D02*
X151257715Y-113725193D01*
X151404793Y-113725193D01*
X151478332Y-113761963D01*
X151515101Y-113798732D01*
X151551871Y-113872271D01*
X151551871Y-114092888D01*
X151515101Y-114166427D01*
X151478332Y-114203197D01*
X151404793Y-114239966D01*
X151257715Y-114239966D01*
X151184176Y-114203197D01*
X152213722Y-114239966D02*
X152213722Y-113835502D01*
X152176953Y-113761963D01*
X152103414Y-113725193D01*
X151956336Y-113725193D01*
X151882797Y-113761963D01*
X152213722Y-114203197D02*
X152140183Y-114239966D01*
X151956336Y-114239966D01*
X151882797Y-114203197D01*
X151846027Y-114129658D01*
X151846027Y-114056119D01*
X151882797Y-113982580D01*
X151956336Y-113945810D01*
X152140183Y-113945810D01*
X152213722Y-113909041D01*
X152471109Y-113725193D02*
X152765265Y-113725193D01*
X152581418Y-113467806D02*
X152581418Y-114129658D01*
X152618187Y-114203197D01*
X152691726Y-114239966D01*
X152765265Y-114239966D01*
X153022652Y-114239966D02*
X153022652Y-113725193D01*
X153022652Y-113467806D02*
X152985882Y-113504576D01*
X153022652Y-113541346D01*
X153059421Y-113504576D01*
X153022652Y-113467806D01*
X153022652Y-113541346D01*
X153390347Y-114239966D02*
X153390347Y-113467806D01*
X153390347Y-113761963D02*
X153463886Y-113725193D01*
X153610964Y-113725193D01*
X153684503Y-113761963D01*
X153721272Y-113798732D01*
X153758042Y-113872271D01*
X153758042Y-114092888D01*
X153721272Y-114166427D01*
X153684503Y-114203197D01*
X153610964Y-114239966D01*
X153463886Y-114239966D01*
X153390347Y-114203197D01*
X154199276Y-114239966D02*
X154125737Y-114203197D01*
X154088968Y-114129658D01*
X154088968Y-113467806D01*
X154787589Y-114203197D02*
X154714050Y-114239966D01*
X154566972Y-114239966D01*
X154493433Y-114203197D01*
X154456663Y-114129658D01*
X154456663Y-113835502D01*
X154493433Y-113761963D01*
X154566972Y-113725193D01*
X154714050Y-113725193D01*
X154787589Y-113761963D01*
X154824358Y-113835502D01*
X154824358Y-113909041D01*
X154456663Y-113982580D01*
X144492123Y-115463230D02*
X144234736Y-115095535D01*
X144050889Y-115463230D02*
X144050889Y-114691070D01*
X144345045Y-114691070D01*
X144418584Y-114727840D01*
X144455353Y-114764610D01*
X144492123Y-114838149D01*
X144492123Y-114948457D01*
X144455353Y-115021996D01*
X144418584Y-115058766D01*
X144345045Y-115095535D01*
X144050889Y-115095535D01*
X145153974Y-115463230D02*
X145153974Y-115058766D01*
X145117205Y-114985227D01*
X145043666Y-114948457D01*
X144896588Y-114948457D01*
X144823049Y-114985227D01*
X145153974Y-115426461D02*
X145080435Y-115463230D01*
X144896588Y-115463230D01*
X144823049Y-115426461D01*
X144786279Y-115352922D01*
X144786279Y-115279383D01*
X144823049Y-115205844D01*
X144896588Y-115169074D01*
X145080435Y-115169074D01*
X145153974Y-115132305D01*
X145852595Y-115463230D02*
X145852595Y-114691070D01*
X145852595Y-115426461D02*
X145779056Y-115463230D01*
X145631978Y-115463230D01*
X145558439Y-115426461D01*
X145521670Y-115389691D01*
X145484900Y-115316152D01*
X145484900Y-115095535D01*
X145521670Y-115021996D01*
X145558439Y-114985227D01*
X145631978Y-114948457D01*
X145779056Y-114948457D01*
X145852595Y-114985227D01*
X146220291Y-115463230D02*
X146220291Y-114948457D01*
X146220291Y-114691070D02*
X146183521Y-114727840D01*
X146220291Y-114764610D01*
X146257060Y-114727840D01*
X146220291Y-114691070D01*
X146220291Y-114764610D01*
X146698294Y-115463230D02*
X146624755Y-115426461D01*
X146587986Y-115389691D01*
X146551216Y-115316152D01*
X146551216Y-115095535D01*
X146587986Y-115021996D01*
X146624755Y-114985227D01*
X146698294Y-114948457D01*
X146808603Y-114948457D01*
X146882142Y-114985227D01*
X146918911Y-115021996D01*
X146955681Y-115095535D01*
X146955681Y-115316152D01*
X146918911Y-115389691D01*
X146882142Y-115426461D01*
X146808603Y-115463230D01*
X146698294Y-115463230D01*
X148316153Y-115463230D02*
X148058766Y-115095535D01*
X147874919Y-115463230D02*
X147874919Y-114691070D01*
X148169075Y-114691070D01*
X148242614Y-114727840D01*
X148279383Y-114764610D01*
X148316153Y-114838149D01*
X148316153Y-114948457D01*
X148279383Y-115021996D01*
X148242614Y-115058766D01*
X148169075Y-115095535D01*
X147874919Y-115095535D01*
X148904465Y-115058766D02*
X148647079Y-115058766D01*
X148647079Y-115463230D02*
X148647079Y-114691070D01*
X149014774Y-114691070D01*
X149308930Y-115463230D02*
X149308930Y-114691070D01*
X149566316Y-115242613D01*
X149823703Y-114691070D01*
X149823703Y-115463230D01*
X150522324Y-114691070D02*
X150375246Y-114691070D01*
X150301707Y-114727840D01*
X150264938Y-114764610D01*
X150191399Y-114874918D01*
X150154629Y-115021996D01*
X150154629Y-115316152D01*
X150191399Y-115389691D01*
X150228168Y-115426461D01*
X150301707Y-115463230D01*
X150448785Y-115463230D01*
X150522324Y-115426461D01*
X150559094Y-115389691D01*
X150595863Y-115316152D01*
X150595863Y-115132305D01*
X150559094Y-115058766D01*
X150522324Y-115021996D01*
X150448785Y-114985227D01*
X150301707Y-114985227D01*
X150228168Y-115021996D01*
X150191399Y-115058766D01*
X150154629Y-115132305D01*
X150963558Y-115463230D02*
X151110636Y-115463230D01*
X151184175Y-115426461D01*
X151220945Y-115389691D01*
X151294484Y-115279383D01*
X151331253Y-115132305D01*
X151331253Y-114838149D01*
X151294484Y-114764610D01*
X151257714Y-114727840D01*
X151184175Y-114691070D01*
X151037097Y-114691070D01*
X150963558Y-114727840D01*
X150926789Y-114764610D01*
X150890019Y-114838149D01*
X150890019Y-115021996D01*
X150926789Y-115095535D01*
X150963558Y-115132305D01*
X151037097Y-115169074D01*
X151184175Y-115169074D01*
X151257714Y-115132305D01*
X151294484Y-115095535D01*
X151331253Y-115021996D01*
X152103413Y-115389691D02*
X152066643Y-115426461D01*
X151956335Y-115463230D01*
X151882796Y-115463230D01*
X151772487Y-115426461D01*
X151698948Y-115352922D01*
X151662179Y-115279383D01*
X151625409Y-115132305D01*
X151625409Y-115021996D01*
X151662179Y-114874918D01*
X151698948Y-114801379D01*
X151772487Y-114727840D01*
X151882796Y-114691070D01*
X151956335Y-114691070D01*
X152066643Y-114727840D01*
X152103413Y-114764610D01*
X152360800Y-114691070D02*
X152544647Y-115463230D01*
X152691725Y-114911688D01*
X152838803Y-115463230D01*
X153022651Y-114691070D01*
D12*
X142245428Y-105076600D02*
G75*
G03X142245428Y-105076600I-7648528J0D01*
G01*
D14*
X138486609Y-125117030D02*
X138486609Y-124344870D01*
X138854304Y-124602257D02*
X138854304Y-125117030D01*
X138854304Y-124675796D02*
X138891073Y-124639027D01*
X138964612Y-124602257D01*
X139074921Y-124602257D01*
X139148460Y-124639027D01*
X139185229Y-124712566D01*
X139185229Y-125117030D01*
X139516155Y-125080261D02*
X139589694Y-125117030D01*
X139736772Y-125117030D01*
X139810311Y-125080261D01*
X139847081Y-125006722D01*
X139847081Y-124969952D01*
X139810311Y-124896413D01*
X139736772Y-124859644D01*
X139626464Y-124859644D01*
X139552925Y-124822874D01*
X139516155Y-124749335D01*
X139516155Y-124712566D01*
X139552925Y-124639027D01*
X139626464Y-124602257D01*
X139736772Y-124602257D01*
X139810311Y-124639027D01*
X140178007Y-124602257D02*
X140178007Y-125374417D01*
X140178007Y-124639027D02*
X140251546Y-124602257D01*
X140398624Y-124602257D01*
X140472163Y-124639027D01*
X140508932Y-124675796D01*
X140545702Y-124749335D01*
X140545702Y-124969952D01*
X140508932Y-125043491D01*
X140472163Y-125080261D01*
X140398624Y-125117030D01*
X140251546Y-125117030D01*
X140178007Y-125080261D01*
X140876628Y-125117030D02*
X140876628Y-124602257D01*
X140876628Y-124344870D02*
X140839858Y-124381640D01*
X140876628Y-124418410D01*
X140913397Y-124381640D01*
X140876628Y-124344870D01*
X140876628Y-124418410D01*
X141244323Y-125117030D02*
X141244323Y-124602257D01*
X141244323Y-124749335D02*
X141281092Y-124675796D01*
X141317862Y-124639027D01*
X141391401Y-124602257D01*
X141464940Y-124602257D01*
X142016483Y-125080261D02*
X141942944Y-125117030D01*
X141795866Y-125117030D01*
X141722327Y-125080261D01*
X141685557Y-125006722D01*
X141685557Y-124712566D01*
X141722327Y-124639027D01*
X141795866Y-124602257D01*
X141942944Y-124602257D01*
X142016483Y-124639027D01*
X142053252Y-124712566D01*
X142053252Y-124786105D01*
X141685557Y-124859644D01*
X142715103Y-125117030D02*
X142715103Y-124344870D01*
X142715103Y-125080261D02*
X142641564Y-125117030D01*
X142494486Y-125117030D01*
X142420947Y-125080261D01*
X142384178Y-125043491D01*
X142347408Y-124969952D01*
X142347408Y-124749335D01*
X142384178Y-124675796D01*
X142420947Y-124639027D01*
X142494486Y-124602257D01*
X142641564Y-124602257D01*
X142715103Y-124639027D01*
X143671111Y-125117030D02*
X143671111Y-124344870D01*
X143671111Y-124639027D02*
X143744650Y-124602257D01*
X143891728Y-124602257D01*
X143965267Y-124639027D01*
X144002036Y-124675796D01*
X144038806Y-124749335D01*
X144038806Y-124969952D01*
X144002036Y-125043491D01*
X143965267Y-125080261D01*
X143891728Y-125117030D01*
X143744650Y-125117030D01*
X143671111Y-125080261D01*
X144296193Y-124602257D02*
X144480040Y-125117030D01*
X144663888Y-124602257D02*
X144480040Y-125117030D01*
X144406501Y-125300878D01*
X144369732Y-125337648D01*
X144296193Y-125374417D01*
X145546356Y-125117030D02*
X145546356Y-124602257D01*
X145546356Y-124675796D02*
X145583125Y-124639027D01*
X145656664Y-124602257D01*
X145766973Y-124602257D01*
X145840512Y-124639027D01*
X145877281Y-124712566D01*
X145877281Y-125117030D01*
X145877281Y-124712566D02*
X145914051Y-124639027D01*
X145987590Y-124602257D01*
X146097898Y-124602257D01*
X146171438Y-124639027D01*
X146208207Y-124712566D01*
X146208207Y-125117030D01*
X146465594Y-124602257D02*
X146759750Y-124602257D01*
X146575903Y-124344870D02*
X146575903Y-125006722D01*
X146612672Y-125080261D01*
X146686211Y-125117030D01*
X146759750Y-125117030D01*
X147017137Y-125117030D02*
X147017137Y-124602257D01*
X147017137Y-124344870D02*
X146980367Y-124381640D01*
X147017137Y-124418410D01*
X147053906Y-124381640D01*
X147017137Y-124344870D01*
X147017137Y-124418410D01*
X147715757Y-124602257D02*
X147715757Y-125117030D01*
X147384832Y-124602257D02*
X147384832Y-125006722D01*
X147421601Y-125080261D01*
X147495140Y-125117030D01*
X147605449Y-125117030D01*
X147678988Y-125080261D01*
X147715757Y-125043491D01*
X147973144Y-124602257D02*
X148267300Y-124602257D01*
X148083453Y-124344870D02*
X148083453Y-125006722D01*
X148120222Y-125080261D01*
X148193761Y-125117030D01*
X148267300Y-125117030D01*
X148524687Y-125117030D02*
X148524687Y-124602257D01*
X148524687Y-124344870D02*
X148487917Y-124381640D01*
X148524687Y-124418410D01*
X148561456Y-124381640D01*
X148524687Y-124344870D01*
X148524687Y-124418410D01*
X149223307Y-124602257D02*
X149223307Y-125117030D01*
X148892382Y-124602257D02*
X148892382Y-125006722D01*
X148929151Y-125080261D01*
X149002690Y-125117030D01*
X149112999Y-125117030D01*
X149186538Y-125080261D01*
X149223307Y-125043491D01*
X149627772Y-125080261D02*
X149627772Y-125117030D01*
X149591003Y-125190570D01*
X149554233Y-125227339D01*
X150547010Y-125117030D02*
X150547010Y-124344870D01*
X150988244Y-125117030D01*
X150988244Y-124344870D01*
X151686865Y-125080261D02*
X151613326Y-125117030D01*
X151466248Y-125117030D01*
X151392709Y-125080261D01*
X151355940Y-125043491D01*
X151319170Y-124969952D01*
X151319170Y-124749335D01*
X151355940Y-124675796D01*
X151392709Y-124639027D01*
X151466248Y-124602257D01*
X151613326Y-124602257D01*
X151686865Y-124639027D01*
X152348716Y-125117030D02*
X152348716Y-124712566D01*
X152311947Y-124639027D01*
X152238408Y-124602257D01*
X152091330Y-124602257D01*
X152017791Y-124639027D01*
X152348716Y-125080261D02*
X152275177Y-125117030D01*
X152091330Y-125117030D01*
X152017791Y-125080261D01*
X151981021Y-125006722D01*
X151981021Y-124933183D01*
X152017791Y-124859644D01*
X152091330Y-124822874D01*
X152275177Y-124822874D01*
X152348716Y-124786105D01*
X152642873Y-124344870D02*
X153157646Y-124344870D01*
X152826720Y-125117030D01*
X153562110Y-124675796D02*
X153488571Y-124639027D01*
X153451802Y-124602257D01*
X153415032Y-124528718D01*
X153415032Y-124491949D01*
X153451802Y-124418410D01*
X153488571Y-124381640D01*
X153562110Y-124344870D01*
X153709188Y-124344870D01*
X153782727Y-124381640D01*
X153819497Y-124418410D01*
X153856266Y-124491949D01*
X153856266Y-124528718D01*
X153819497Y-124602257D01*
X153782727Y-124639027D01*
X153709188Y-124675796D01*
X153562110Y-124675796D01*
X153488571Y-124712566D01*
X153451802Y-124749335D01*
X153415032Y-124822874D01*
X153415032Y-124969952D01*
X153451802Y-125043491D01*
X153488571Y-125080261D01*
X153562110Y-125117030D01*
X153709188Y-125117030D01*
X153782727Y-125080261D01*
X153819497Y-125043491D01*
X153856266Y-124969952D01*
X153856266Y-124822874D01*
X153819497Y-124749335D01*
X153782727Y-124712566D01*
X153709188Y-124675796D01*
X155106429Y-125117030D02*
X155106429Y-124712566D01*
X155069660Y-124639027D01*
X154996121Y-124602257D01*
X154849043Y-124602257D01*
X154775504Y-124639027D01*
X155106429Y-125080261D02*
X155032890Y-125117030D01*
X154849043Y-125117030D01*
X154775504Y-125080261D01*
X154738734Y-125006722D01*
X154738734Y-124933183D01*
X154775504Y-124859644D01*
X154849043Y-124822874D01*
X155032890Y-124822874D01*
X155106429Y-124786105D01*
X155474125Y-124602257D02*
X155474125Y-125117030D01*
X155474125Y-124675796D02*
X155510894Y-124639027D01*
X155584433Y-124602257D01*
X155694742Y-124602257D01*
X155768281Y-124639027D01*
X155805050Y-124712566D01*
X155805050Y-125117030D01*
X156503671Y-125117030D02*
X156503671Y-124344870D01*
X156503671Y-125080261D02*
X156430132Y-125117030D01*
X156283054Y-125117030D01*
X156209515Y-125080261D01*
X156172746Y-125043491D01*
X156135976Y-124969952D01*
X156135976Y-124749335D01*
X156172746Y-124675796D01*
X156209515Y-124639027D01*
X156283054Y-124602257D01*
X156430132Y-124602257D01*
X156503671Y-124639027D01*
X157422909Y-125080261D02*
X157533218Y-125117030D01*
X157717065Y-125117030D01*
X157790604Y-125080261D01*
X157827374Y-125043491D01*
X157864143Y-124969952D01*
X157864143Y-124896413D01*
X157827374Y-124822874D01*
X157790604Y-124786105D01*
X157717065Y-124749335D01*
X157569987Y-124712566D01*
X157496448Y-124675796D01*
X157459679Y-124639027D01*
X157422909Y-124565488D01*
X157422909Y-124491949D01*
X157459679Y-124418410D01*
X157496448Y-124381640D01*
X157569987Y-124344870D01*
X157753835Y-124344870D01*
X157864143Y-124381640D01*
X158525994Y-125080261D02*
X158452455Y-125117030D01*
X158305377Y-125117030D01*
X158231838Y-125080261D01*
X158195069Y-125043491D01*
X158158299Y-124969952D01*
X158158299Y-124749335D01*
X158195069Y-124675796D01*
X158231838Y-124639027D01*
X158305377Y-124602257D01*
X158452455Y-124602257D01*
X158525994Y-124639027D01*
X159187845Y-125117030D02*
X159187845Y-124712566D01*
X159151076Y-124639027D01*
X159077537Y-124602257D01*
X158930459Y-124602257D01*
X158856920Y-124639027D01*
X159187845Y-125080261D02*
X159114306Y-125117030D01*
X158930459Y-125117030D01*
X158856920Y-125080261D01*
X158820150Y-125006722D01*
X158820150Y-124933183D01*
X158856920Y-124859644D01*
X158930459Y-124822874D01*
X159114306Y-124822874D01*
X159187845Y-124786105D01*
X159665849Y-125117030D02*
X159592310Y-125080261D01*
X159555541Y-125006722D01*
X159555541Y-124344870D01*
X159886467Y-124602257D02*
X160290931Y-124602257D01*
X159886467Y-125117030D01*
X160290931Y-125117030D01*
D15*
X138310800Y-105112062D02*
G75*
G03X138310800Y-105112062I-3754592J0D01*
G01*
D16*
X157064000Y-93231600D02*
X157064000Y-93931600D01*
X155864000Y-93931600D02*
X155864000Y-93231600D01*
X157030800Y-88482000D02*
X158030800Y-88482000D01*
X158030800Y-89842000D02*
X157030800Y-89842000D01*
X150868000Y-97589000D02*
X149868000Y-97589000D01*
X149868000Y-96229000D02*
X150868000Y-96229000D01*
X133634000Y-115570000D02*
X133634000Y-114570000D01*
X133634000Y-114570000D02*
X131534000Y-114570000D01*
X133634000Y-115570000D02*
X131534000Y-115570000D01*
X137952000Y-115570000D02*
X137952000Y-114570000D01*
X137952000Y-114570000D02*
X135852000Y-114570000D01*
X137952000Y-115570000D02*
X135852000Y-115570000D01*
X161320000Y-115570000D02*
X161320000Y-114570000D01*
X161320000Y-114570000D02*
X159220000Y-114570000D01*
X161320000Y-115570000D02*
X159220000Y-115570000D01*
X165892000Y-115570000D02*
X165892000Y-114570000D01*
X165892000Y-114570000D02*
X163792000Y-114570000D01*
X165892000Y-115570000D02*
X163792000Y-115570000D01*
X157843600Y-92697200D02*
X158843600Y-92697200D01*
X158843600Y-92697200D02*
X158843600Y-90597200D01*
X157843600Y-92697200D02*
X157843600Y-90597200D01*
D15*
X165971400Y-105061262D02*
G75*
G03X165971400Y-105061262I-3754592J0D01*
G01*
D16*
X146091800Y-115867000D02*
X146091800Y-117067000D01*
X144331800Y-117067000D02*
X144331800Y-115867000D01*
D17*
X145941981Y-90635105D02*
X146751505Y-90635105D01*
X146846743Y-90587486D01*
X146894362Y-90539867D01*
X146941981Y-90444629D01*
X146941981Y-90254152D01*
X146894362Y-90158914D01*
X146846743Y-90111295D01*
X146751505Y-90063676D01*
X145941981Y-90063676D01*
X146037219Y-89635105D02*
X145989600Y-89587486D01*
X145941981Y-89492248D01*
X145941981Y-89254152D01*
X145989600Y-89158914D01*
X146037219Y-89111295D01*
X146132457Y-89063676D01*
X146227695Y-89063676D01*
X146370552Y-89111295D01*
X146941981Y-89682724D01*
X146941981Y-89063676D01*
X158345143Y-94256266D02*
X158392762Y-94303885D01*
X158440381Y-94446742D01*
X158440381Y-94541980D01*
X158392762Y-94684838D01*
X158297524Y-94780076D01*
X158202286Y-94827695D01*
X158011810Y-94875314D01*
X157868952Y-94875314D01*
X157678476Y-94827695D01*
X157583238Y-94780076D01*
X157488000Y-94684838D01*
X157440381Y-94541980D01*
X157440381Y-94446742D01*
X157488000Y-94303885D01*
X157535619Y-94256266D01*
X157440381Y-93922933D02*
X157440381Y-93303885D01*
X157821333Y-93637219D01*
X157821333Y-93494361D01*
X157868952Y-93399123D01*
X157916571Y-93351504D01*
X158011810Y-93303885D01*
X158249905Y-93303885D01*
X158345143Y-93351504D01*
X158392762Y-93399123D01*
X158440381Y-93494361D01*
X158440381Y-93780076D01*
X158392762Y-93875314D01*
X158345143Y-93922933D01*
X157541934Y-88090381D02*
X157208600Y-87614190D01*
X156970505Y-88090381D02*
X156970505Y-87090381D01*
X157351458Y-87090381D01*
X157446696Y-87138000D01*
X157494315Y-87185619D01*
X157541934Y-87280857D01*
X157541934Y-87423714D01*
X157494315Y-87518952D01*
X157446696Y-87566571D01*
X157351458Y-87614190D01*
X156970505Y-87614190D01*
X158494315Y-88090381D02*
X157922886Y-88090381D01*
X158208600Y-88090381D02*
X158208600Y-87090381D01*
X158113362Y-87233238D01*
X158018124Y-87328476D01*
X157922886Y-87376095D01*
X150175934Y-99012381D02*
X149842600Y-98536190D01*
X149604505Y-99012381D02*
X149604505Y-98012381D01*
X149985458Y-98012381D01*
X150080696Y-98060000D01*
X150128315Y-98107619D01*
X150175934Y-98202857D01*
X150175934Y-98345714D01*
X150128315Y-98440952D01*
X150080696Y-98488571D01*
X149985458Y-98536190D01*
X149604505Y-98536190D01*
X150556886Y-98107619D02*
X150604505Y-98060000D01*
X150699743Y-98012381D01*
X150937839Y-98012381D01*
X151033077Y-98060000D01*
X151080696Y-98107619D01*
X151128315Y-98202857D01*
X151128315Y-98298095D01*
X151080696Y-98440952D01*
X150509267Y-99012381D01*
X151128315Y-99012381D01*
X131646705Y-117249581D02*
X131646705Y-116249581D01*
X131884800Y-116249581D01*
X132027658Y-116297200D01*
X132122896Y-116392438D01*
X132170515Y-116487676D01*
X132218134Y-116678152D01*
X132218134Y-116821010D01*
X132170515Y-117011486D01*
X132122896Y-117106724D01*
X132027658Y-117201962D01*
X131884800Y-117249581D01*
X131646705Y-117249581D01*
X133170515Y-117249581D02*
X132599086Y-117249581D01*
X132884800Y-117249581D02*
X132884800Y-116249581D01*
X132789562Y-116392438D01*
X132694324Y-116487676D01*
X132599086Y-116535295D01*
X135812305Y-117300381D02*
X135812305Y-116300381D01*
X136050400Y-116300381D01*
X136193258Y-116348000D01*
X136288496Y-116443238D01*
X136336115Y-116538476D01*
X136383734Y-116728952D01*
X136383734Y-116871810D01*
X136336115Y-117062286D01*
X136288496Y-117157524D01*
X136193258Y-117252762D01*
X136050400Y-117300381D01*
X135812305Y-117300381D01*
X136764686Y-116395619D02*
X136812305Y-116348000D01*
X136907543Y-116300381D01*
X137145639Y-116300381D01*
X137240877Y-116348000D01*
X137288496Y-116395619D01*
X137336115Y-116490857D01*
X137336115Y-116586095D01*
X137288496Y-116728952D01*
X136717067Y-117300381D01*
X137336115Y-117300381D01*
X159485105Y-117401981D02*
X159485105Y-116401981D01*
X159723200Y-116401981D01*
X159866058Y-116449600D01*
X159961296Y-116544838D01*
X160008915Y-116640076D01*
X160056534Y-116830552D01*
X160056534Y-116973410D01*
X160008915Y-117163886D01*
X159961296Y-117259124D01*
X159866058Y-117354362D01*
X159723200Y-117401981D01*
X159485105Y-117401981D01*
X160389867Y-116401981D02*
X161008915Y-116401981D01*
X160675581Y-116782933D01*
X160818439Y-116782933D01*
X160913677Y-116830552D01*
X160961296Y-116878171D01*
X161008915Y-116973410D01*
X161008915Y-117211505D01*
X160961296Y-117306743D01*
X160913677Y-117354362D01*
X160818439Y-117401981D01*
X160532724Y-117401981D01*
X160437486Y-117354362D01*
X160389867Y-117306743D01*
X163853905Y-117401981D02*
X163853905Y-116401981D01*
X164092000Y-116401981D01*
X164234858Y-116449600D01*
X164330096Y-116544838D01*
X164377715Y-116640076D01*
X164425334Y-116830552D01*
X164425334Y-116973410D01*
X164377715Y-117163886D01*
X164330096Y-117259124D01*
X164234858Y-117354362D01*
X164092000Y-117401981D01*
X163853905Y-117401981D01*
X165282477Y-116735314D02*
X165282477Y-117401981D01*
X165044381Y-116354362D02*
X164806286Y-117068648D01*
X165425334Y-117068648D01*
X160624781Y-92186095D02*
X159624781Y-92186095D01*
X159624781Y-91948000D01*
X159672400Y-91805142D01*
X159767638Y-91709904D01*
X159862876Y-91662285D01*
X160053352Y-91614666D01*
X160196210Y-91614666D01*
X160386686Y-91662285D01*
X160481924Y-91709904D01*
X160577162Y-91805142D01*
X160624781Y-91948000D01*
X160624781Y-92186095D01*
X159624781Y-90757523D02*
X159624781Y-90948000D01*
X159672400Y-91043238D01*
X159720019Y-91090857D01*
X159862876Y-91186095D01*
X160053352Y-91233714D01*
X160434305Y-91233714D01*
X160529543Y-91186095D01*
X160577162Y-91138476D01*
X160624781Y-91043238D01*
X160624781Y-90852761D01*
X160577162Y-90757523D01*
X160529543Y-90709904D01*
X160434305Y-90662285D01*
X160196210Y-90662285D01*
X160100971Y-90709904D01*
X160053352Y-90757523D01*
X160005733Y-90852761D01*
X160005733Y-91043238D01*
X160053352Y-91138476D01*
X160100971Y-91186095D01*
X160196210Y-91233714D01*
X144014181Y-116633666D02*
X143537990Y-116967000D01*
X144014181Y-117205095D02*
X143014181Y-117205095D01*
X143014181Y-116824142D01*
X143061800Y-116728904D01*
X143109419Y-116681285D01*
X143204657Y-116633666D01*
X143347514Y-116633666D01*
X143442752Y-116681285D01*
X143490371Y-116728904D01*
X143537990Y-116824142D01*
X143537990Y-117205095D01*
X144014181Y-116157476D02*
X144014181Y-115967000D01*
X143966562Y-115871761D01*
X143918943Y-115824142D01*
X143776086Y-115728904D01*
X143585610Y-115681285D01*
X143204657Y-115681285D01*
X143109419Y-115728904D01*
X143061800Y-115776523D01*
X143014181Y-115871761D01*
X143014181Y-116062238D01*
X143061800Y-116157476D01*
X143109419Y-116205095D01*
X143204657Y-116252714D01*
X143442752Y-116252714D01*
X143537990Y-116205095D01*
X143585610Y-116157476D01*
X143633229Y-116062238D01*
X143633229Y-115871761D01*
X143585610Y-115776523D01*
X143537990Y-115728904D01*
X143442752Y-115681285D01*
%LPC*%
D18*
X154089600Y-94273200D03*
X154089600Y-93003200D03*
X154089600Y-91733200D03*
X154089600Y-90463200D03*
X154089600Y-89193200D03*
X154089600Y-87923200D03*
X154089600Y-86653200D03*
X154089600Y-85383200D03*
D19*
X156464000Y-92631600D03*
X156464000Y-94531600D03*
D20*
X158630800Y-89162000D03*
X156430800Y-89162000D03*
X149268000Y-96909000D03*
X151468000Y-96909000D03*
D21*
X131534000Y-115070000D03*
X133134000Y-115070000D03*
X135852000Y-115070000D03*
X137452000Y-115070000D03*
X159220000Y-115070000D03*
X160820000Y-115070000D03*
X163792000Y-115070000D03*
X165392000Y-115070000D03*
X158343600Y-90597200D03*
X158343600Y-92197200D03*
D22*
X130500000Y-113500000D03*
X138500000Y-113500000D03*
X158500000Y-113500000D03*
X166500000Y-113500000D03*
D23*
X146970000Y-120470000D03*
X146970000Y-122468980D03*
X148968980Y-120470000D03*
X148968980Y-122468980D03*
X150967960Y-120470000D03*
X150967960Y-122468980D03*
X152969480Y-120470000D03*
X152969480Y-122468980D03*
X154968460Y-120470000D03*
X154968460Y-122468980D03*
X156969980Y-120470000D03*
X156969980Y-122468980D03*
X158968960Y-120470000D03*
X158968960Y-122468980D03*
D24*
X145211800Y-117417000D03*
X145211800Y-115517000D03*
M02*
