G04 #@! TF.FileFunction,Soldermask,Bot*
%FSLAX46Y46*%
G04 Gerber Fmt 4.6, Leading zero omitted, Abs format (unit mm)*
G04 Created by KiCad (PCBNEW 4.0.6) date 04/02/17 16:31:56*
%MOMM*%
%LPD*%
G01*
G04 APERTURE LIST*
%ADD10C,0.100000*%
%ADD11R,1.460000X1.050000*%
%ADD12R,1.670000X0.933400*%
%ADD13R,0.933400X1.670000*%
%ADD14R,1.000000X0.900000*%
%ADD15R,1.150000X1.600000*%
%ADD16R,1.600000X1.150000*%
%ADD17R,1.997660X1.799540*%
%ADD18R,1.300000X1.600000*%
%ADD19R,1.600000X1.300000*%
%ADD20C,1.705560*%
%ADD21R,1.098500X2.099260*%
%ADD22R,1.050000X1.460000*%
%ADD23C,1.822400*%
%ADD24R,0.648920X1.197560*%
%ADD25R,1.398220X1.299160*%
%ADD26R,2.398980X1.670000*%
%ADD27R,1.650000X1.900000*%
G04 APERTURE END LIST*
D10*
D11*
X143299000Y-115385000D03*
X143299000Y-114435000D03*
X143299000Y-113485000D03*
X145499000Y-113485000D03*
X145499000Y-115385000D03*
X145499000Y-114435000D03*
D12*
X152629600Y-102749920D03*
X152629600Y-103550020D03*
X152629600Y-104350120D03*
X152629600Y-105150220D03*
X152629600Y-105947780D03*
X152629600Y-106747880D03*
X152629600Y-107547980D03*
X152629600Y-108348080D03*
D13*
X151136080Y-109841600D03*
X150335980Y-109841600D03*
X149535880Y-109841600D03*
X148735780Y-109841600D03*
X147938220Y-109841600D03*
X147138120Y-109841600D03*
X146338020Y-109841600D03*
X145537920Y-109841600D03*
D12*
X144046940Y-108348080D03*
X144046940Y-107547980D03*
X144046940Y-106747880D03*
X144046940Y-105947780D03*
X144046940Y-105150220D03*
X144046940Y-104350120D03*
X144046940Y-103550020D03*
X144046940Y-102749920D03*
D13*
X145537920Y-101258940D03*
X146338020Y-101258940D03*
X147138120Y-101258940D03*
X147938220Y-101258940D03*
X148735780Y-101258940D03*
X149535880Y-101258940D03*
X150335980Y-101258940D03*
X151136080Y-101258940D03*
D14*
X143832000Y-100418000D03*
X142732000Y-100418000D03*
D15*
X158116000Y-87453600D03*
X158116000Y-89353600D03*
X156464000Y-116782000D03*
X156464000Y-114882000D03*
X132588000Y-93292000D03*
X132588000Y-95192000D03*
D14*
X153628000Y-109990000D03*
X154728000Y-109990000D03*
D16*
X154747000Y-118118000D03*
X152847000Y-118118000D03*
D15*
X141351000Y-115004000D03*
X141351000Y-113104000D03*
D16*
X143449000Y-117356000D03*
X145349000Y-117356000D03*
D17*
X149098000Y-112654460D03*
X149098000Y-115453540D03*
X140462000Y-120020460D03*
X140462000Y-122819540D03*
X137541000Y-120020460D03*
X137541000Y-122819540D03*
D18*
X130175000Y-93396000D03*
X130175000Y-95596000D03*
D19*
X135552000Y-94242000D03*
X137752000Y-94242000D03*
D18*
X165862000Y-95469000D03*
X165862000Y-93269000D03*
D19*
X133434000Y-115070000D03*
X131234000Y-115070000D03*
X138006000Y-115070000D03*
X135806000Y-115070000D03*
X161120000Y-115070000D03*
X158920000Y-115070000D03*
X165692000Y-115070000D03*
X163492000Y-115070000D03*
X159556000Y-88403600D03*
X161756000Y-88403600D03*
D20*
X146970000Y-120470000D03*
X146970000Y-122468980D03*
X148968980Y-120470000D03*
X148968980Y-122468980D03*
X150967960Y-120470000D03*
X150967960Y-122468980D03*
X152969480Y-120470000D03*
X152969480Y-122468980D03*
X154968460Y-120470000D03*
X154968460Y-122468980D03*
X156969980Y-120470000D03*
X156969980Y-122468980D03*
X158968960Y-120470000D03*
X158968960Y-122468980D03*
D21*
X152471120Y-111768000D03*
X153670000Y-111768000D03*
X154868880Y-111768000D03*
D22*
X152847000Y-114097000D03*
X153797000Y-114097000D03*
X154747000Y-114097000D03*
X154747000Y-116297000D03*
X152847000Y-116297000D03*
X153797000Y-116297000D03*
D23*
X160021000Y-85863600D03*
D24*
X161811700Y-91449060D03*
X163310300Y-91449060D03*
X162312080Y-94248140D03*
X162312080Y-91449060D03*
X163310300Y-94248140D03*
X162809920Y-94248140D03*
X161811700Y-94248140D03*
X162809920Y-91449060D03*
D25*
X137650220Y-92491940D03*
X135653780Y-92491940D03*
X136652000Y-89896060D03*
D26*
X156334460Y-85448520D03*
X140337540Y-95445960D03*
X156334460Y-89449020D03*
X140335000Y-85448520D03*
X140337540Y-97447480D03*
X156334460Y-93446980D03*
X156334460Y-97447480D03*
X140335000Y-87544020D03*
X156334460Y-95445960D03*
X156334460Y-87450040D03*
D27*
X143319500Y-120424000D03*
X143319500Y-122924000D03*
D16*
X143449000Y-111768000D03*
X145349000Y-111768000D03*
M02*
