G04 #@! TF.FileFunction,Legend,Bot*
%FSLAX46Y46*%
G04 Gerber Fmt 4.6, Leading zero omitted, Abs format (unit mm)*
G04 Created by KiCad (PCBNEW 4.0.6) date 04/02/17 18:06:46*
%MOMM*%
%LPD*%
G01*
G04 APERTURE LIST*
%ADD10C,0.100000*%
%ADD11C,0.120000*%
%ADD12C,0.508000*%
%ADD13C,0.203200*%
%ADD14C,0.127000*%
%ADD15C,0.063500*%
%ADD16C,0.150000*%
%ADD17C,0.025400*%
%ADD18C,0.101600*%
%ADD19C,0.050800*%
%ADD20C,0.076200*%
%ADD21C,0.152400*%
%ADD22C,0.279400*%
%ADD23R,1.460000X1.050000*%
%ADD24R,1.670000X0.933400*%
%ADD25R,0.933400X1.670000*%
%ADD26R,1.000000X0.900000*%
%ADD27R,1.150000X1.600000*%
%ADD28R,1.600000X1.150000*%
%ADD29R,1.997660X1.799540*%
%ADD30R,1.300000X1.600000*%
%ADD31R,1.600000X1.300000*%
%ADD32C,1.705560*%
%ADD33R,1.098500X2.099260*%
%ADD34R,1.050000X1.460000*%
%ADD35C,1.822400*%
%ADD36R,0.648920X1.197560*%
%ADD37R,1.398220X1.299160*%
%ADD38R,2.398980X1.670000*%
%ADD39R,1.650000X1.900000*%
G04 APERTURE END LIST*
D10*
D11*
X143499000Y-112825000D02*
X145299000Y-112825000D01*
X145299000Y-116045000D02*
X142849000Y-116045000D01*
D12*
X152309921Y-101612000D02*
G75*
G03X152309921Y-101612000I-35921J0D01*
G01*
D11*
X143032000Y-99948000D02*
X143532000Y-99948000D01*
X143532000Y-100888000D02*
X143032000Y-100888000D01*
X158048400Y-88329400D02*
X158048400Y-89029400D01*
X159248400Y-89029400D02*
X159248400Y-88329400D01*
X157064000Y-116182000D02*
X157064000Y-115482000D01*
X155864000Y-115482000D02*
X155864000Y-116182000D01*
X131988000Y-93892000D02*
X131988000Y-94592000D01*
X133188000Y-94592000D02*
X133188000Y-93892000D01*
X154428000Y-110460000D02*
X153928000Y-110460000D01*
X153928000Y-109520000D02*
X154428000Y-109520000D01*
X154147000Y-117518000D02*
X153447000Y-117518000D01*
X153447000Y-118718000D02*
X154147000Y-118718000D01*
X141951000Y-114404000D02*
X141951000Y-113704000D01*
X140751000Y-113704000D02*
X140751000Y-114404000D01*
X144049000Y-117956000D02*
X144749000Y-117956000D01*
X144749000Y-116756000D02*
X144049000Y-116756000D01*
D13*
X149860000Y-111641000D02*
X148336000Y-111641000D01*
X141224000Y-119007000D02*
X139700000Y-119007000D01*
X138303000Y-119007000D02*
X136779000Y-119007000D01*
D11*
X130855000Y-94996000D02*
X130855000Y-93996000D01*
X129495000Y-93996000D02*
X129495000Y-94996000D01*
X137152000Y-93562000D02*
X136152000Y-93562000D01*
X136152000Y-94922000D02*
X137152000Y-94922000D01*
X165182000Y-93869000D02*
X165182000Y-94869000D01*
X166542000Y-94869000D02*
X166542000Y-93869000D01*
X131834000Y-115750000D02*
X132834000Y-115750000D01*
X132834000Y-114390000D02*
X131834000Y-114390000D01*
X136406000Y-115750000D02*
X137406000Y-115750000D01*
X137406000Y-114390000D02*
X136406000Y-114390000D01*
X159520000Y-115750000D02*
X160520000Y-115750000D01*
X160520000Y-114390000D02*
X159520000Y-114390000D01*
X164092000Y-115750000D02*
X165092000Y-115750000D01*
X165092000Y-114390000D02*
X164092000Y-114390000D01*
X168574000Y-94869000D02*
X168574000Y-93869000D01*
X167214000Y-93869000D02*
X167214000Y-94869000D01*
D14*
X145700000Y-119200000D02*
X145700000Y-123645000D01*
X145700000Y-123645000D02*
X160305000Y-123645000D01*
X160305000Y-123645000D02*
X160305000Y-119200000D01*
X160305000Y-119200000D02*
X145700000Y-119200000D01*
X146335000Y-119200000D02*
X145700000Y-119835000D01*
X145700000Y-119835000D02*
X145700000Y-119200000D01*
X145700000Y-119200000D02*
X146335000Y-119200000D01*
D13*
X155468320Y-112415700D02*
X155468320Y-111120300D01*
X151871680Y-111120300D02*
X151871680Y-112415700D01*
D11*
X155407000Y-114297000D02*
X155407000Y-116097000D01*
X152187000Y-116097000D02*
X152187000Y-113647000D01*
D14*
X161562780Y-94347200D02*
X163559220Y-94347200D01*
X163559220Y-94347200D02*
X163559220Y-91350000D01*
X163559220Y-91350000D02*
X161562780Y-91350000D01*
X161562780Y-91350000D02*
X161562780Y-94347200D01*
D15*
X161403152Y-91649720D02*
G75*
G03X161403152Y-91649720I-140092J0D01*
G01*
D13*
X135252460Y-91780740D02*
X138038840Y-91780740D01*
X138038840Y-91780740D02*
X138038840Y-90559000D01*
X138038840Y-90559000D02*
X135252460Y-90559000D01*
X135252460Y-90559000D02*
X135252460Y-91780740D01*
D14*
X140337540Y-83703540D02*
X156334460Y-83703540D01*
X156334460Y-99192460D02*
X140337540Y-99192460D01*
D11*
X142469500Y-122174000D02*
X142469500Y-121174000D01*
X144169500Y-121174000D02*
X144169500Y-122174000D01*
X144049000Y-112368000D02*
X144749000Y-112368000D01*
X144749000Y-111168000D02*
X144049000Y-111168000D01*
X159928000Y-89574000D02*
X159928000Y-90274000D01*
X161128000Y-90274000D02*
X161128000Y-89574000D01*
D16*
X146569181Y-113400105D02*
X147378705Y-113400105D01*
X147473943Y-113447724D01*
X147521562Y-113495343D01*
X147569181Y-113590581D01*
X147569181Y-113781058D01*
X147521562Y-113876296D01*
X147473943Y-113923915D01*
X147378705Y-113971534D01*
X146569181Y-113971534D01*
X147521562Y-114400105D02*
X147569181Y-114542962D01*
X147569181Y-114781058D01*
X147521562Y-114876296D01*
X147473943Y-114923915D01*
X147378705Y-114971534D01*
X147283467Y-114971534D01*
X147188229Y-114923915D01*
X147140610Y-114876296D01*
X147092990Y-114781058D01*
X147045371Y-114590581D01*
X146997752Y-114495343D01*
X146950133Y-114447724D01*
X146854895Y-114400105D01*
X146759657Y-114400105D01*
X146664419Y-114447724D01*
X146616800Y-114495343D01*
X146569181Y-114590581D01*
X146569181Y-114828677D01*
X146616800Y-114971534D01*
X146426324Y-114685819D02*
X147712038Y-114685819D01*
X146569181Y-115828677D02*
X146569181Y-115638200D01*
X146616800Y-115542962D01*
X146664419Y-115495343D01*
X146807276Y-115400105D01*
X146997752Y-115352486D01*
X147378705Y-115352486D01*
X147473943Y-115400105D01*
X147521562Y-115447724D01*
X147569181Y-115542962D01*
X147569181Y-115733439D01*
X147521562Y-115828677D01*
X147473943Y-115876296D01*
X147378705Y-115923915D01*
X147140610Y-115923915D01*
X147045371Y-115876296D01*
X146997752Y-115828677D01*
X146950133Y-115733439D01*
X146950133Y-115542962D01*
X146997752Y-115447724D01*
X147045371Y-115400105D01*
X147140610Y-115352486D01*
D17*
X148681924Y-104941448D02*
X148681924Y-104535048D01*
X148256172Y-104902743D02*
X148275524Y-104922095D01*
X148333581Y-104941448D01*
X148372286Y-104941448D01*
X148430343Y-104922095D01*
X148469048Y-104883390D01*
X148488400Y-104844686D01*
X148507752Y-104767276D01*
X148507752Y-104709219D01*
X148488400Y-104631810D01*
X148469048Y-104593105D01*
X148430343Y-104554400D01*
X148372286Y-104535048D01*
X148333581Y-104535048D01*
X148275524Y-104554400D01*
X148256172Y-104573752D01*
X147869124Y-104941448D02*
X148101352Y-104941448D01*
X147985238Y-104941448D02*
X147985238Y-104535048D01*
X148023943Y-104593105D01*
X148062648Y-104631810D01*
X148101352Y-104651162D01*
X150164800Y-105714333D02*
X149971277Y-105714333D01*
X150203505Y-105830448D02*
X150068039Y-105424048D01*
X149932572Y-105830448D01*
X149855162Y-105424048D02*
X149622934Y-105424048D01*
X149739048Y-105830448D02*
X149739048Y-105424048D01*
X149487467Y-105830448D02*
X149487467Y-105424048D01*
X149352000Y-105714333D01*
X149216534Y-105424048D01*
X149216534Y-105830448D01*
X149023010Y-105617571D02*
X148887543Y-105617571D01*
X148829486Y-105830448D02*
X149023010Y-105830448D01*
X149023010Y-105424048D01*
X148829486Y-105424048D01*
X148442439Y-105443400D02*
X148481144Y-105424048D01*
X148539201Y-105424048D01*
X148597258Y-105443400D01*
X148635963Y-105482105D01*
X148655315Y-105520810D01*
X148674667Y-105598219D01*
X148674667Y-105656276D01*
X148655315Y-105733686D01*
X148635963Y-105772390D01*
X148597258Y-105811095D01*
X148539201Y-105830448D01*
X148500496Y-105830448D01*
X148442439Y-105811095D01*
X148423087Y-105791743D01*
X148423087Y-105656276D01*
X148500496Y-105656276D01*
X148268267Y-105714333D02*
X148074744Y-105714333D01*
X148306972Y-105830448D02*
X148171506Y-105424048D01*
X148036039Y-105830448D01*
X147939277Y-105424048D02*
X147687696Y-105424048D01*
X147823163Y-105578867D01*
X147765105Y-105578867D01*
X147726401Y-105598219D01*
X147707048Y-105617571D01*
X147687696Y-105656276D01*
X147687696Y-105753038D01*
X147707048Y-105791743D01*
X147726401Y-105811095D01*
X147765105Y-105830448D01*
X147881220Y-105830448D01*
X147919924Y-105811095D01*
X147939277Y-105791743D01*
X147532876Y-105462752D02*
X147513524Y-105443400D01*
X147474819Y-105424048D01*
X147378057Y-105424048D01*
X147339353Y-105443400D01*
X147320000Y-105462752D01*
X147300648Y-105501457D01*
X147300648Y-105540162D01*
X147320000Y-105598219D01*
X147552229Y-105830448D01*
X147300648Y-105830448D01*
X147068419Y-105598219D02*
X147107124Y-105578867D01*
X147126476Y-105559514D01*
X147145828Y-105520810D01*
X147145828Y-105501457D01*
X147126476Y-105462752D01*
X147107124Y-105443400D01*
X147068419Y-105424048D01*
X146991009Y-105424048D01*
X146952305Y-105443400D01*
X146932952Y-105462752D01*
X146913600Y-105501457D01*
X146913600Y-105520810D01*
X146932952Y-105559514D01*
X146952305Y-105578867D01*
X146991009Y-105598219D01*
X147068419Y-105598219D01*
X147107124Y-105617571D01*
X147126476Y-105636924D01*
X147145828Y-105675629D01*
X147145828Y-105753038D01*
X147126476Y-105791743D01*
X147107124Y-105811095D01*
X147068419Y-105830448D01*
X146991009Y-105830448D01*
X146952305Y-105811095D01*
X146932952Y-105791743D01*
X146913600Y-105753038D01*
X146913600Y-105675629D01*
X146932952Y-105636924D01*
X146952305Y-105617571D01*
X146991009Y-105598219D01*
X146739428Y-105830448D02*
X146739428Y-105424048D01*
X146584609Y-105424048D01*
X146545904Y-105443400D01*
X146526552Y-105462752D01*
X146507200Y-105501457D01*
X146507200Y-105559514D01*
X146526552Y-105598219D01*
X146545904Y-105617571D01*
X146584609Y-105636924D01*
X146739428Y-105636924D01*
D16*
X141339866Y-100720543D02*
X141387485Y-100768162D01*
X141530342Y-100815781D01*
X141625580Y-100815781D01*
X141768438Y-100768162D01*
X141863676Y-100672924D01*
X141911295Y-100577686D01*
X141958914Y-100387210D01*
X141958914Y-100244352D01*
X141911295Y-100053876D01*
X141863676Y-99958638D01*
X141768438Y-99863400D01*
X141625580Y-99815781D01*
X141530342Y-99815781D01*
X141387485Y-99863400D01*
X141339866Y-99911019D01*
X140387485Y-100815781D02*
X140958914Y-100815781D01*
X140673200Y-100815781D02*
X140673200Y-99815781D01*
X140768438Y-99958638D01*
X140863676Y-100053876D01*
X140958914Y-100101495D01*
X161901143Y-88487334D02*
X161948762Y-88439715D01*
X161996381Y-88296858D01*
X161996381Y-88201620D01*
X161948762Y-88058762D01*
X161853524Y-87963524D01*
X161758286Y-87915905D01*
X161567810Y-87868286D01*
X161424952Y-87868286D01*
X161234476Y-87915905D01*
X161139238Y-87963524D01*
X161044000Y-88058762D01*
X160996381Y-88201620D01*
X160996381Y-88296858D01*
X161044000Y-88439715D01*
X161091619Y-88487334D01*
X160996381Y-88820667D02*
X160996381Y-89439715D01*
X161377333Y-89106381D01*
X161377333Y-89249239D01*
X161424952Y-89344477D01*
X161472571Y-89392096D01*
X161567810Y-89439715D01*
X161805905Y-89439715D01*
X161901143Y-89392096D01*
X161948762Y-89344477D01*
X161996381Y-89249239D01*
X161996381Y-88963524D01*
X161948762Y-88868286D01*
X161901143Y-88820667D01*
X159615143Y-116681334D02*
X159662762Y-116633715D01*
X159710381Y-116490858D01*
X159710381Y-116395620D01*
X159662762Y-116252762D01*
X159567524Y-116157524D01*
X159472286Y-116109905D01*
X159281810Y-116062286D01*
X159138952Y-116062286D01*
X158948476Y-116109905D01*
X158853238Y-116157524D01*
X158758000Y-116252762D01*
X158710381Y-116395620D01*
X158710381Y-116490858D01*
X158758000Y-116633715D01*
X158805619Y-116681334D01*
X159043714Y-117538477D02*
X159710381Y-117538477D01*
X158662762Y-117300381D02*
X159377048Y-117062286D01*
X159377048Y-117681334D01*
X134392943Y-94329334D02*
X134440562Y-94281715D01*
X134488181Y-94138858D01*
X134488181Y-94043620D01*
X134440562Y-93900762D01*
X134345324Y-93805524D01*
X134250086Y-93757905D01*
X134059610Y-93710286D01*
X133916752Y-93710286D01*
X133726276Y-93757905D01*
X133631038Y-93805524D01*
X133535800Y-93900762D01*
X133488181Y-94043620D01*
X133488181Y-94138858D01*
X133535800Y-94281715D01*
X133583419Y-94329334D01*
X133488181Y-95234096D02*
X133488181Y-94757905D01*
X133964371Y-94710286D01*
X133916752Y-94757905D01*
X133869133Y-94853143D01*
X133869133Y-95091239D01*
X133916752Y-95186477D01*
X133964371Y-95234096D01*
X134059610Y-95281715D01*
X134297705Y-95281715D01*
X134392943Y-95234096D01*
X134440562Y-95186477D01*
X134488181Y-95091239D01*
X134488181Y-94853143D01*
X134440562Y-94757905D01*
X134392943Y-94710286D01*
X156656066Y-110474143D02*
X156703685Y-110521762D01*
X156846542Y-110569381D01*
X156941780Y-110569381D01*
X157084638Y-110521762D01*
X157179876Y-110426524D01*
X157227495Y-110331286D01*
X157275114Y-110140810D01*
X157275114Y-109997952D01*
X157227495Y-109807476D01*
X157179876Y-109712238D01*
X157084638Y-109617000D01*
X156941780Y-109569381D01*
X156846542Y-109569381D01*
X156703685Y-109617000D01*
X156656066Y-109664619D01*
X155798923Y-109569381D02*
X155989400Y-109569381D01*
X156084638Y-109617000D01*
X156132257Y-109664619D01*
X156227495Y-109807476D01*
X156275114Y-109997952D01*
X156275114Y-110378905D01*
X156227495Y-110474143D01*
X156179876Y-110521762D01*
X156084638Y-110569381D01*
X155894161Y-110569381D01*
X155798923Y-110521762D01*
X155751304Y-110474143D01*
X155703685Y-110378905D01*
X155703685Y-110140810D01*
X155751304Y-110045571D01*
X155798923Y-109997952D01*
X155894161Y-109950333D01*
X156084638Y-109950333D01*
X156179876Y-109997952D01*
X156227495Y-110045571D01*
X156275114Y-110140810D01*
X157138666Y-118729143D02*
X157186285Y-118776762D01*
X157329142Y-118824381D01*
X157424380Y-118824381D01*
X157567238Y-118776762D01*
X157662476Y-118681524D01*
X157710095Y-118586286D01*
X157757714Y-118395810D01*
X157757714Y-118252952D01*
X157710095Y-118062476D01*
X157662476Y-117967238D01*
X157567238Y-117872000D01*
X157424380Y-117824381D01*
X157329142Y-117824381D01*
X157186285Y-117872000D01*
X157138666Y-117919619D01*
X156805333Y-117824381D02*
X156138666Y-117824381D01*
X156567238Y-118824381D01*
X141644666Y-111871143D02*
X141692285Y-111918762D01*
X141835142Y-111966381D01*
X141930380Y-111966381D01*
X142073238Y-111918762D01*
X142168476Y-111823524D01*
X142216095Y-111728286D01*
X142263714Y-111537810D01*
X142263714Y-111394952D01*
X142216095Y-111204476D01*
X142168476Y-111109238D01*
X142073238Y-111014000D01*
X141930380Y-110966381D01*
X141835142Y-110966381D01*
X141692285Y-111014000D01*
X141644666Y-111061619D01*
X141073238Y-111394952D02*
X141168476Y-111347333D01*
X141216095Y-111299714D01*
X141263714Y-111204476D01*
X141263714Y-111156857D01*
X141216095Y-111061619D01*
X141168476Y-111014000D01*
X141073238Y-110966381D01*
X140882761Y-110966381D01*
X140787523Y-111014000D01*
X140739904Y-111061619D01*
X140692285Y-111156857D01*
X140692285Y-111204476D01*
X140739904Y-111299714D01*
X140787523Y-111347333D01*
X140882761Y-111394952D01*
X141073238Y-111394952D01*
X141168476Y-111442571D01*
X141216095Y-111490190D01*
X141263714Y-111585429D01*
X141263714Y-111775905D01*
X141216095Y-111871143D01*
X141168476Y-111918762D01*
X141073238Y-111966381D01*
X140882761Y-111966381D01*
X140787523Y-111918762D01*
X140739904Y-111871143D01*
X140692285Y-111775905D01*
X140692285Y-111585429D01*
X140739904Y-111490190D01*
X140787523Y-111442571D01*
X140882761Y-111394952D01*
X141644666Y-117713143D02*
X141692285Y-117760762D01*
X141835142Y-117808381D01*
X141930380Y-117808381D01*
X142073238Y-117760762D01*
X142168476Y-117665524D01*
X142216095Y-117570286D01*
X142263714Y-117379810D01*
X142263714Y-117236952D01*
X142216095Y-117046476D01*
X142168476Y-116951238D01*
X142073238Y-116856000D01*
X141930380Y-116808381D01*
X141835142Y-116808381D01*
X141692285Y-116856000D01*
X141644666Y-116903619D01*
X141168476Y-117808381D02*
X140978000Y-117808381D01*
X140882761Y-117760762D01*
X140835142Y-117713143D01*
X140739904Y-117570286D01*
X140692285Y-117379810D01*
X140692285Y-116998857D01*
X140739904Y-116903619D01*
X140787523Y-116856000D01*
X140882761Y-116808381D01*
X141073238Y-116808381D01*
X141168476Y-116856000D01*
X141216095Y-116903619D01*
X141263714Y-116998857D01*
X141263714Y-117236952D01*
X141216095Y-117332190D01*
X141168476Y-117379810D01*
X141073238Y-117427429D01*
X140882761Y-117427429D01*
X140787523Y-117379810D01*
X140739904Y-117332190D01*
X140692285Y-117236952D01*
D14*
X149540685Y-114271714D02*
X149569714Y-114300743D01*
X149656800Y-114329771D01*
X149714857Y-114329771D01*
X149801942Y-114300743D01*
X149860000Y-114242686D01*
X149889028Y-114184629D01*
X149918057Y-114068514D01*
X149918057Y-113981429D01*
X149889028Y-113865314D01*
X149860000Y-113807257D01*
X149801942Y-113749200D01*
X149714857Y-113720171D01*
X149656800Y-113720171D01*
X149569714Y-113749200D01*
X149540685Y-113778229D01*
X148960114Y-114329771D02*
X149308457Y-114329771D01*
X149134285Y-114329771D02*
X149134285Y-113720171D01*
X149192342Y-113807257D01*
X149250400Y-113865314D01*
X149308457Y-113894343D01*
X148582743Y-113720171D02*
X148524686Y-113720171D01*
X148466629Y-113749200D01*
X148437600Y-113778229D01*
X148408571Y-113836286D01*
X148379543Y-113952400D01*
X148379543Y-114097543D01*
X148408571Y-114213657D01*
X148437600Y-114271714D01*
X148466629Y-114300743D01*
X148524686Y-114329771D01*
X148582743Y-114329771D01*
X148640800Y-114300743D01*
X148669829Y-114271714D01*
X148698857Y-114213657D01*
X148727886Y-114097543D01*
X148727886Y-113952400D01*
X148698857Y-113836286D01*
X148669829Y-113778229D01*
X148640800Y-113749200D01*
X148582743Y-113720171D01*
X149489885Y-117326971D02*
X149838228Y-117326971D01*
X149664056Y-117326971D02*
X149664056Y-116717371D01*
X149722113Y-116804457D01*
X149780171Y-116862514D01*
X149838228Y-116891543D01*
X149112514Y-116717371D02*
X149054457Y-116717371D01*
X148996400Y-116746400D01*
X148967371Y-116775429D01*
X148938342Y-116833486D01*
X148909314Y-116949600D01*
X148909314Y-117094743D01*
X148938342Y-117210857D01*
X148967371Y-117268914D01*
X148996400Y-117297943D01*
X149054457Y-117326971D01*
X149112514Y-117326971D01*
X149170571Y-117297943D01*
X149199600Y-117268914D01*
X149228628Y-117210857D01*
X149257657Y-117094743D01*
X149257657Y-116949600D01*
X149228628Y-116833486D01*
X149199600Y-116775429D01*
X149170571Y-116746400D01*
X149112514Y-116717371D01*
X148386800Y-116920571D02*
X148386800Y-117326971D01*
X148648057Y-116920571D02*
X148648057Y-117239886D01*
X148619029Y-117297943D01*
X148560971Y-117326971D01*
X148473886Y-117326971D01*
X148415829Y-117297943D01*
X148386800Y-117268914D01*
X140803085Y-125041314D02*
X140832114Y-125070343D01*
X140919200Y-125099371D01*
X140977257Y-125099371D01*
X141064342Y-125070343D01*
X141122400Y-125012286D01*
X141151428Y-124954229D01*
X141180457Y-124838114D01*
X141180457Y-124751029D01*
X141151428Y-124634914D01*
X141122400Y-124576857D01*
X141064342Y-124518800D01*
X140977257Y-124489771D01*
X140919200Y-124489771D01*
X140832114Y-124518800D01*
X140803085Y-124547829D01*
X140222514Y-125099371D02*
X140570857Y-125099371D01*
X140396685Y-125099371D02*
X140396685Y-124489771D01*
X140454742Y-124576857D01*
X140512800Y-124634914D01*
X140570857Y-124663943D01*
X139641943Y-125099371D02*
X139990286Y-125099371D01*
X139816114Y-125099371D02*
X139816114Y-124489771D01*
X139874171Y-124576857D01*
X139932229Y-124634914D01*
X139990286Y-124663943D01*
X141144171Y-121695771D02*
X141492514Y-121695771D01*
X141318342Y-121695771D02*
X141318342Y-121086171D01*
X141376399Y-121173257D01*
X141434457Y-121231314D01*
X141492514Y-121260343D01*
X140766800Y-121086171D02*
X140708743Y-121086171D01*
X140650686Y-121115200D01*
X140621657Y-121144229D01*
X140592628Y-121202286D01*
X140563600Y-121318400D01*
X140563600Y-121463543D01*
X140592628Y-121579657D01*
X140621657Y-121637714D01*
X140650686Y-121666743D01*
X140708743Y-121695771D01*
X140766800Y-121695771D01*
X140824857Y-121666743D01*
X140853886Y-121637714D01*
X140882914Y-121579657D01*
X140911943Y-121463543D01*
X140911943Y-121318400D01*
X140882914Y-121202286D01*
X140853886Y-121144229D01*
X140824857Y-121115200D01*
X140766800Y-121086171D01*
X140186229Y-121086171D02*
X140128172Y-121086171D01*
X140070115Y-121115200D01*
X140041086Y-121144229D01*
X140012057Y-121202286D01*
X139983029Y-121318400D01*
X139983029Y-121463543D01*
X140012057Y-121579657D01*
X140041086Y-121637714D01*
X140070115Y-121666743D01*
X140128172Y-121695771D01*
X140186229Y-121695771D01*
X140244286Y-121666743D01*
X140273315Y-121637714D01*
X140302343Y-121579657D01*
X140331372Y-121463543D01*
X140331372Y-121318400D01*
X140302343Y-121202286D01*
X140273315Y-121144229D01*
X140244286Y-121115200D01*
X140186229Y-121086171D01*
X139460515Y-121289371D02*
X139460515Y-121695771D01*
X139721772Y-121289371D02*
X139721772Y-121608686D01*
X139692744Y-121666743D01*
X139634686Y-121695771D01*
X139547601Y-121695771D01*
X139489544Y-121666743D01*
X139460515Y-121637714D01*
X137958285Y-125041314D02*
X137987314Y-125070343D01*
X138074400Y-125099371D01*
X138132457Y-125099371D01*
X138219542Y-125070343D01*
X138277600Y-125012286D01*
X138306628Y-124954229D01*
X138335657Y-124838114D01*
X138335657Y-124751029D01*
X138306628Y-124634914D01*
X138277600Y-124576857D01*
X138219542Y-124518800D01*
X138132457Y-124489771D01*
X138074400Y-124489771D01*
X137987314Y-124518800D01*
X137958285Y-124547829D01*
X137377714Y-125099371D02*
X137726057Y-125099371D01*
X137551885Y-125099371D02*
X137551885Y-124489771D01*
X137609942Y-124576857D01*
X137668000Y-124634914D01*
X137726057Y-124663943D01*
X137145486Y-124547829D02*
X137116457Y-124518800D01*
X137058400Y-124489771D01*
X136913257Y-124489771D01*
X136855200Y-124518800D01*
X136826171Y-124547829D01*
X136797143Y-124605886D01*
X136797143Y-124663943D01*
X136826171Y-124751029D01*
X137174514Y-125099371D01*
X136797143Y-125099371D01*
X138263085Y-121289371D02*
X138263085Y-121695771D01*
X138408228Y-121057143D02*
X138553371Y-121492571D01*
X138175999Y-121492571D01*
X137943771Y-121637714D02*
X137914743Y-121666743D01*
X137943771Y-121695771D01*
X137972800Y-121666743D01*
X137943771Y-121637714D01*
X137943771Y-121695771D01*
X137711542Y-121086171D02*
X137305142Y-121086171D01*
X137566399Y-121695771D01*
X136811657Y-121289371D02*
X136811657Y-121695771D01*
X137072914Y-121289371D02*
X137072914Y-121608686D01*
X137043886Y-121666743D01*
X136985828Y-121695771D01*
X136898743Y-121695771D01*
X136840686Y-121666743D01*
X136811657Y-121637714D01*
D16*
X129177381Y-94329334D02*
X128701190Y-93996000D01*
X129177381Y-93757905D02*
X128177381Y-93757905D01*
X128177381Y-94138858D01*
X128225000Y-94234096D01*
X128272619Y-94281715D01*
X128367857Y-94329334D01*
X128510714Y-94329334D01*
X128605952Y-94281715D01*
X128653571Y-94234096D01*
X128701190Y-94138858D01*
X128701190Y-93757905D01*
X128272619Y-94710286D02*
X128225000Y-94757905D01*
X128177381Y-94853143D01*
X128177381Y-95091239D01*
X128225000Y-95186477D01*
X128272619Y-95234096D01*
X128367857Y-95281715D01*
X128463095Y-95281715D01*
X128605952Y-95234096D01*
X129177381Y-94662667D01*
X129177381Y-95281715D01*
X136818666Y-96144381D02*
X137152000Y-95668190D01*
X137390095Y-96144381D02*
X137390095Y-95144381D01*
X137009142Y-95144381D01*
X136913904Y-95192000D01*
X136866285Y-95239619D01*
X136818666Y-95334857D01*
X136818666Y-95477714D01*
X136866285Y-95572952D01*
X136913904Y-95620571D01*
X137009142Y-95668190D01*
X137390095Y-95668190D01*
X136485333Y-95144381D02*
X135866285Y-95144381D01*
X136199619Y-95525333D01*
X136056761Y-95525333D01*
X135961523Y-95572952D01*
X135913904Y-95620571D01*
X135866285Y-95715810D01*
X135866285Y-95953905D01*
X135913904Y-96049143D01*
X135961523Y-96096762D01*
X136056761Y-96144381D01*
X136342476Y-96144381D01*
X136437714Y-96096762D01*
X136485333Y-96049143D01*
X165044381Y-94075334D02*
X164568190Y-93742000D01*
X165044381Y-93503905D02*
X164044381Y-93503905D01*
X164044381Y-93884858D01*
X164092000Y-93980096D01*
X164139619Y-94027715D01*
X164234857Y-94075334D01*
X164377714Y-94075334D01*
X164472952Y-94027715D01*
X164520571Y-93980096D01*
X164568190Y-93884858D01*
X164568190Y-93503905D01*
X164377714Y-94932477D02*
X165044381Y-94932477D01*
X163996762Y-94694381D02*
X164711048Y-94456286D01*
X164711048Y-95075334D01*
X132500666Y-114072381D02*
X132834000Y-113596190D01*
X133072095Y-114072381D02*
X133072095Y-113072381D01*
X132691142Y-113072381D01*
X132595904Y-113120000D01*
X132548285Y-113167619D01*
X132500666Y-113262857D01*
X132500666Y-113405714D01*
X132548285Y-113500952D01*
X132595904Y-113548571D01*
X132691142Y-113596190D01*
X133072095Y-113596190D01*
X131595904Y-113072381D02*
X132072095Y-113072381D01*
X132119714Y-113548571D01*
X132072095Y-113500952D01*
X131976857Y-113453333D01*
X131738761Y-113453333D01*
X131643523Y-113500952D01*
X131595904Y-113548571D01*
X131548285Y-113643810D01*
X131548285Y-113881905D01*
X131595904Y-113977143D01*
X131643523Y-114024762D01*
X131738761Y-114072381D01*
X131976857Y-114072381D01*
X132072095Y-114024762D01*
X132119714Y-113977143D01*
X137072666Y-114072381D02*
X137406000Y-113596190D01*
X137644095Y-114072381D02*
X137644095Y-113072381D01*
X137263142Y-113072381D01*
X137167904Y-113120000D01*
X137120285Y-113167619D01*
X137072666Y-113262857D01*
X137072666Y-113405714D01*
X137120285Y-113500952D01*
X137167904Y-113548571D01*
X137263142Y-113596190D01*
X137644095Y-113596190D01*
X136215523Y-113072381D02*
X136406000Y-113072381D01*
X136501238Y-113120000D01*
X136548857Y-113167619D01*
X136644095Y-113310476D01*
X136691714Y-113500952D01*
X136691714Y-113881905D01*
X136644095Y-113977143D01*
X136596476Y-114024762D01*
X136501238Y-114072381D01*
X136310761Y-114072381D01*
X136215523Y-114024762D01*
X136167904Y-113977143D01*
X136120285Y-113881905D01*
X136120285Y-113643810D01*
X136167904Y-113548571D01*
X136215523Y-113500952D01*
X136310761Y-113453333D01*
X136501238Y-113453333D01*
X136596476Y-113500952D01*
X136644095Y-113548571D01*
X136691714Y-113643810D01*
X160186666Y-114072381D02*
X160520000Y-113596190D01*
X160758095Y-114072381D02*
X160758095Y-113072381D01*
X160377142Y-113072381D01*
X160281904Y-113120000D01*
X160234285Y-113167619D01*
X160186666Y-113262857D01*
X160186666Y-113405714D01*
X160234285Y-113500952D01*
X160281904Y-113548571D01*
X160377142Y-113596190D01*
X160758095Y-113596190D01*
X159853333Y-113072381D02*
X159186666Y-113072381D01*
X159615238Y-114072381D01*
X164758666Y-114072381D02*
X165092000Y-113596190D01*
X165330095Y-114072381D02*
X165330095Y-113072381D01*
X164949142Y-113072381D01*
X164853904Y-113120000D01*
X164806285Y-113167619D01*
X164758666Y-113262857D01*
X164758666Y-113405714D01*
X164806285Y-113500952D01*
X164853904Y-113548571D01*
X164949142Y-113596190D01*
X165330095Y-113596190D01*
X164187238Y-113500952D02*
X164282476Y-113453333D01*
X164330095Y-113405714D01*
X164377714Y-113310476D01*
X164377714Y-113262857D01*
X164330095Y-113167619D01*
X164282476Y-113120000D01*
X164187238Y-113072381D01*
X163996761Y-113072381D01*
X163901523Y-113120000D01*
X163853904Y-113167619D01*
X163806285Y-113262857D01*
X163806285Y-113310476D01*
X163853904Y-113405714D01*
X163901523Y-113453333D01*
X163996761Y-113500952D01*
X164187238Y-113500952D01*
X164282476Y-113548571D01*
X164330095Y-113596190D01*
X164377714Y-113691429D01*
X164377714Y-113881905D01*
X164330095Y-113977143D01*
X164282476Y-114024762D01*
X164187238Y-114072381D01*
X163996761Y-114072381D01*
X163901523Y-114024762D01*
X163853904Y-113977143D01*
X163806285Y-113881905D01*
X163806285Y-113691429D01*
X163853904Y-113596190D01*
X163901523Y-113548571D01*
X163996761Y-113500952D01*
X169870381Y-93599143D02*
X169394190Y-93265809D01*
X169870381Y-93027714D02*
X168870381Y-93027714D01*
X168870381Y-93408667D01*
X168918000Y-93503905D01*
X168965619Y-93551524D01*
X169060857Y-93599143D01*
X169203714Y-93599143D01*
X169298952Y-93551524D01*
X169346571Y-93503905D01*
X169394190Y-93408667D01*
X169394190Y-93027714D01*
X169870381Y-94551524D02*
X169870381Y-93980095D01*
X169870381Y-94265809D02*
X168870381Y-94265809D01*
X169013238Y-94170571D01*
X169108476Y-94075333D01*
X169156095Y-93980095D01*
X168870381Y-95170571D02*
X168870381Y-95265810D01*
X168918000Y-95361048D01*
X168965619Y-95408667D01*
X169060857Y-95456286D01*
X169251333Y-95503905D01*
X169489429Y-95503905D01*
X169679905Y-95456286D01*
X169775143Y-95408667D01*
X169822762Y-95361048D01*
X169870381Y-95265810D01*
X169870381Y-95170571D01*
X169822762Y-95075333D01*
X169775143Y-95027714D01*
X169679905Y-94980095D01*
X169489429Y-94932476D01*
X169251333Y-94932476D01*
X169060857Y-94980095D01*
X168965619Y-95027714D01*
X168918000Y-95075333D01*
X168870381Y-95170571D01*
D18*
X159915981Y-124178924D02*
X159915981Y-125207019D01*
X159855505Y-125327971D01*
X159795029Y-125388448D01*
X159674076Y-125448924D01*
X159432172Y-125448924D01*
X159311219Y-125388448D01*
X159250743Y-125327971D01*
X159190267Y-125207019D01*
X159190267Y-124178924D01*
X158645981Y-125388448D02*
X158464553Y-125448924D01*
X158162172Y-125448924D01*
X158041219Y-125388448D01*
X157980743Y-125327971D01*
X157920267Y-125207019D01*
X157920267Y-125086067D01*
X157980743Y-124965114D01*
X158041219Y-124904638D01*
X158162172Y-124844162D01*
X158404076Y-124783686D01*
X158525029Y-124723210D01*
X158585505Y-124662733D01*
X158645981Y-124541781D01*
X158645981Y-124420829D01*
X158585505Y-124299876D01*
X158525029Y-124239400D01*
X158404076Y-124178924D01*
X158101696Y-124178924D01*
X157920267Y-124239400D01*
X158283124Y-123997495D02*
X158283124Y-125630352D01*
X157436457Y-124299876D02*
X157375981Y-124239400D01*
X157255029Y-124178924D01*
X156952648Y-124178924D01*
X156831695Y-124239400D01*
X156771219Y-124299876D01*
X156710743Y-124420829D01*
X156710743Y-124541781D01*
X156771219Y-124723210D01*
X157496933Y-125448924D01*
X156710743Y-125448924D01*
D19*
X146638772Y-123900089D02*
X146605510Y-123933351D01*
X146572248Y-123999874D01*
X146572248Y-124166184D01*
X146605510Y-124232708D01*
X146638772Y-124265970D01*
X146705296Y-124299231D01*
X146771820Y-124299231D01*
X146871605Y-124265970D01*
X147270748Y-123866827D01*
X147270748Y-124299231D01*
X161240748Y-123105552D02*
X161240748Y-122706410D01*
X161240748Y-122905981D02*
X160542248Y-122905981D01*
X160642034Y-122839457D01*
X160708558Y-122772933D01*
X160741820Y-122706410D01*
X160775081Y-123704267D02*
X161240748Y-123704267D01*
X160508986Y-123537957D02*
X161007915Y-123371648D01*
X161007915Y-123804052D01*
X161304248Y-119806092D02*
X161304248Y-119406950D01*
X161304248Y-119606521D02*
X160605748Y-119606521D01*
X160705534Y-119539997D01*
X160772058Y-119473473D01*
X160805320Y-119406950D01*
X160605748Y-120038926D02*
X160605748Y-120471330D01*
X160871843Y-120238497D01*
X160871843Y-120338283D01*
X160905105Y-120404807D01*
X160938367Y-120438069D01*
X161004891Y-120471330D01*
X161171200Y-120471330D01*
X161237724Y-120438069D01*
X161270986Y-120404807D01*
X161304248Y-120338283D01*
X161304248Y-120138711D01*
X161270986Y-120072188D01*
X161237724Y-120038926D01*
D17*
X156865562Y-111113648D02*
X156865562Y-111442638D01*
X156846210Y-111481343D01*
X156826857Y-111500695D01*
X156788153Y-111520048D01*
X156710743Y-111520048D01*
X156672038Y-111500695D01*
X156652686Y-111481343D01*
X156633334Y-111442638D01*
X156633334Y-111113648D01*
X156459162Y-111500695D02*
X156401105Y-111520048D01*
X156304343Y-111520048D01*
X156265639Y-111500695D01*
X156246286Y-111481343D01*
X156226934Y-111442638D01*
X156226934Y-111403933D01*
X156246286Y-111365229D01*
X156265639Y-111345876D01*
X156304343Y-111326524D01*
X156381753Y-111307171D01*
X156420458Y-111287819D01*
X156439810Y-111268467D01*
X156459162Y-111229762D01*
X156459162Y-111191057D01*
X156439810Y-111152352D01*
X156420458Y-111133000D01*
X156381753Y-111113648D01*
X156284991Y-111113648D01*
X156226934Y-111133000D01*
X156343048Y-111055590D02*
X156343048Y-111578105D01*
X156091467Y-111113648D02*
X155839886Y-111113648D01*
X155975353Y-111268467D01*
X155917295Y-111268467D01*
X155878591Y-111287819D01*
X155859238Y-111307171D01*
X155839886Y-111345876D01*
X155839886Y-111442638D01*
X155859238Y-111481343D01*
X155878591Y-111500695D01*
X155917295Y-111520048D01*
X156033410Y-111520048D01*
X156072114Y-111500695D01*
X156091467Y-111481343D01*
X157217533Y-111999019D02*
X157256238Y-111979667D01*
X157275590Y-111960314D01*
X157294942Y-111921610D01*
X157294942Y-111902257D01*
X157275590Y-111863552D01*
X157256238Y-111844200D01*
X157217533Y-111824848D01*
X157140123Y-111824848D01*
X157101419Y-111844200D01*
X157082066Y-111863552D01*
X157062714Y-111902257D01*
X157062714Y-111921610D01*
X157082066Y-111960314D01*
X157101419Y-111979667D01*
X157140123Y-111999019D01*
X157217533Y-111999019D01*
X157256238Y-112018371D01*
X157275590Y-112037724D01*
X157294942Y-112076429D01*
X157294942Y-112153838D01*
X157275590Y-112192543D01*
X157256238Y-112211895D01*
X157217533Y-112231248D01*
X157140123Y-112231248D01*
X157101419Y-112211895D01*
X157082066Y-112192543D01*
X157062714Y-112153838D01*
X157062714Y-112076429D01*
X157082066Y-112037724D01*
X157101419Y-112018371D01*
X157140123Y-111999019D01*
X156888542Y-112231248D02*
X156888542Y-111824848D01*
X156753075Y-112115133D01*
X156617609Y-111824848D01*
X156617609Y-112231248D01*
X156424085Y-112231248D02*
X156424085Y-111824848D01*
X156424085Y-112018371D02*
X156191857Y-112018371D01*
X156191857Y-112231248D02*
X156191857Y-111824848D01*
X156037038Y-111824848D02*
X155766105Y-111824848D01*
X156037038Y-112231248D01*
X155766105Y-112231248D01*
D16*
X150760181Y-113984305D02*
X151569705Y-113984305D01*
X151664943Y-114031924D01*
X151712562Y-114079543D01*
X151760181Y-114174781D01*
X151760181Y-114365258D01*
X151712562Y-114460496D01*
X151664943Y-114508115D01*
X151569705Y-114555734D01*
X150760181Y-114555734D01*
X151712562Y-114984305D02*
X151760181Y-115127162D01*
X151760181Y-115365258D01*
X151712562Y-115460496D01*
X151664943Y-115508115D01*
X151569705Y-115555734D01*
X151474467Y-115555734D01*
X151379229Y-115508115D01*
X151331610Y-115460496D01*
X151283990Y-115365258D01*
X151236371Y-115174781D01*
X151188752Y-115079543D01*
X151141133Y-115031924D01*
X151045895Y-114984305D01*
X150950657Y-114984305D01*
X150855419Y-115031924D01*
X150807800Y-115079543D01*
X150760181Y-115174781D01*
X150760181Y-115412877D01*
X150807800Y-115555734D01*
X150617324Y-115270019D02*
X151903038Y-115270019D01*
X151093514Y-116412877D02*
X151760181Y-116412877D01*
X150712562Y-116174781D02*
X151426848Y-115936686D01*
X151426848Y-116555734D01*
X161127923Y-83916295D02*
X161127923Y-84574276D01*
X161089218Y-84651686D01*
X161050514Y-84690390D01*
X160973104Y-84729095D01*
X160818285Y-84729095D01*
X160740876Y-84690390D01*
X160702171Y-84651686D01*
X160663466Y-84574276D01*
X160663466Y-83916295D01*
X160315123Y-84690390D02*
X160199009Y-84729095D01*
X160005485Y-84729095D01*
X159928075Y-84690390D01*
X159889371Y-84651686D01*
X159850666Y-84574276D01*
X159850666Y-84496867D01*
X159889371Y-84419457D01*
X159928075Y-84380752D01*
X160005485Y-84342048D01*
X160160304Y-84303343D01*
X160237713Y-84264638D01*
X160276418Y-84225933D01*
X160315123Y-84148524D01*
X160315123Y-84071114D01*
X160276418Y-83993705D01*
X160237713Y-83955000D01*
X160160304Y-83916295D01*
X159966780Y-83916295D01*
X159850666Y-83955000D01*
X160082894Y-83800181D02*
X160082894Y-84845210D01*
X159579733Y-83916295D02*
X159037866Y-83916295D01*
X159386209Y-84729095D01*
X166856228Y-86126095D02*
X167127161Y-85739048D01*
X167320685Y-86126095D02*
X167320685Y-85313295D01*
X167011047Y-85313295D01*
X166933638Y-85352000D01*
X166894933Y-85390705D01*
X166856228Y-85468114D01*
X166856228Y-85584229D01*
X166894933Y-85661638D01*
X166933638Y-85700343D01*
X167011047Y-85739048D01*
X167320685Y-85739048D01*
X166236952Y-85700343D02*
X166507885Y-85700343D01*
X166507885Y-86126095D02*
X166507885Y-85313295D01*
X166120838Y-85313295D01*
X165811199Y-86126095D02*
X165811199Y-85313295D01*
X165540266Y-85893867D01*
X165269333Y-85313295D01*
X165269333Y-86126095D01*
X164456533Y-86126095D02*
X164920990Y-86126095D01*
X164688761Y-86126095D02*
X164688761Y-85313295D01*
X164766171Y-85429410D01*
X164843580Y-85506819D01*
X164920990Y-85545524D01*
X164146895Y-85390705D02*
X164108190Y-85352000D01*
X164030781Y-85313295D01*
X163837257Y-85313295D01*
X163759847Y-85352000D01*
X163721143Y-85390705D01*
X163682438Y-85468114D01*
X163682438Y-85545524D01*
X163721143Y-85661638D01*
X164185600Y-86126095D01*
X163682438Y-86126095D01*
X163063162Y-85700343D02*
X162947048Y-85739048D01*
X162908343Y-85777752D01*
X162869638Y-85855162D01*
X162869638Y-85971276D01*
X162908343Y-86048686D01*
X162947048Y-86087390D01*
X163024457Y-86126095D01*
X163334095Y-86126095D01*
X163334095Y-85313295D01*
X163063162Y-85313295D01*
X162985752Y-85352000D01*
X162947048Y-85390705D01*
X162908343Y-85468114D01*
X162908343Y-85545524D01*
X162947048Y-85622933D01*
X162985752Y-85661638D01*
X163063162Y-85700343D01*
X163334095Y-85700343D01*
X162714819Y-86203505D02*
X162095543Y-86203505D01*
X161940724Y-85893867D02*
X161553676Y-85893867D01*
X162018133Y-86126095D02*
X161747200Y-85313295D01*
X161476267Y-86126095D01*
X161205333Y-86126095D02*
X161205333Y-85313295D01*
X160740876Y-86126095D01*
X160740876Y-85313295D01*
X160469942Y-85313295D02*
X160005485Y-85313295D01*
X160237714Y-86126095D02*
X160237714Y-85313295D01*
X159734552Y-85700343D02*
X159463619Y-85700343D01*
X159347505Y-86126095D02*
X159734552Y-86126095D01*
X159734552Y-85313295D01*
X159347505Y-85313295D01*
X158999162Y-86126095D02*
X158999162Y-85313295D01*
X158534705Y-86126095D01*
X158534705Y-85313295D01*
X158147657Y-86126095D02*
X158147657Y-85313295D01*
X157683200Y-86126095D01*
X157683200Y-85313295D01*
X157334857Y-85893867D02*
X156947809Y-85893867D01*
X157412266Y-86126095D02*
X157141333Y-85313295D01*
X156870400Y-86126095D01*
D20*
X163694323Y-94714895D02*
X163694323Y-95372876D01*
X163655618Y-95450286D01*
X163616914Y-95488990D01*
X163539504Y-95527695D01*
X163384685Y-95527695D01*
X163307276Y-95488990D01*
X163268571Y-95450286D01*
X163229866Y-95372876D01*
X163229866Y-94714895D01*
X162881523Y-95488990D02*
X162765409Y-95527695D01*
X162571885Y-95527695D01*
X162494475Y-95488990D01*
X162455771Y-95450286D01*
X162417066Y-95372876D01*
X162417066Y-95295467D01*
X162455771Y-95218057D01*
X162494475Y-95179352D01*
X162571885Y-95140648D01*
X162726704Y-95101943D01*
X162804113Y-95063238D01*
X162842818Y-95024533D01*
X162881523Y-94947124D01*
X162881523Y-94869714D01*
X162842818Y-94792305D01*
X162804113Y-94753600D01*
X162726704Y-94714895D01*
X162533180Y-94714895D01*
X162417066Y-94753600D01*
X162649294Y-94598781D02*
X162649294Y-95643810D01*
X161952609Y-95063238D02*
X162030018Y-95024533D01*
X162068723Y-94985829D01*
X162107428Y-94908419D01*
X162107428Y-94869714D01*
X162068723Y-94792305D01*
X162030018Y-94753600D01*
X161952609Y-94714895D01*
X161797790Y-94714895D01*
X161720380Y-94753600D01*
X161681676Y-94792305D01*
X161642971Y-94869714D01*
X161642971Y-94908419D01*
X161681676Y-94985829D01*
X161720380Y-95024533D01*
X161797790Y-95063238D01*
X161952609Y-95063238D01*
X162030018Y-95101943D01*
X162068723Y-95140648D01*
X162107428Y-95218057D01*
X162107428Y-95372876D01*
X162068723Y-95450286D01*
X162030018Y-95488990D01*
X161952609Y-95527695D01*
X161797790Y-95527695D01*
X161720380Y-95488990D01*
X161681676Y-95450286D01*
X161642971Y-95372876D01*
X161642971Y-95218057D01*
X161681676Y-95140648D01*
X161720380Y-95101943D01*
X161797790Y-95063238D01*
D14*
X139811276Y-90774295D02*
X139811276Y-91432276D01*
X139772571Y-91509686D01*
X139733867Y-91548390D01*
X139656457Y-91587095D01*
X139501638Y-91587095D01*
X139424229Y-91548390D01*
X139385524Y-91509686D01*
X139346819Y-91432276D01*
X139346819Y-90774295D01*
X138534019Y-91587095D02*
X138998476Y-91587095D01*
X138766247Y-91587095D02*
X138766247Y-90774295D01*
X138843657Y-90890410D01*
X138921066Y-90967819D01*
X138998476Y-91006524D01*
X134821990Y-91278667D02*
X134434942Y-91278667D01*
X134899399Y-91510895D02*
X134628466Y-90698095D01*
X134357533Y-91510895D01*
X134202713Y-90698095D02*
X133738256Y-90698095D01*
X133970485Y-91510895D02*
X133970485Y-90698095D01*
X133506028Y-91472190D02*
X133389914Y-91510895D01*
X133196390Y-91510895D01*
X133118980Y-91472190D01*
X133080276Y-91433486D01*
X133041571Y-91356076D01*
X133041571Y-91278667D01*
X133080276Y-91201257D01*
X133118980Y-91162552D01*
X133196390Y-91123848D01*
X133351209Y-91085143D01*
X133428618Y-91046438D01*
X133467323Y-91007733D01*
X133506028Y-90930324D01*
X133506028Y-90852914D01*
X133467323Y-90775505D01*
X133428618Y-90736800D01*
X133351209Y-90698095D01*
X133157685Y-90698095D01*
X133041571Y-90736800D01*
X132693228Y-91510895D02*
X132693228Y-90698095D01*
X132693228Y-91085143D02*
X132228771Y-91085143D01*
X132228771Y-91510895D02*
X132228771Y-90698095D01*
X131880428Y-91278667D02*
X131493380Y-91278667D01*
X131957837Y-91510895D02*
X131686904Y-90698095D01*
X131415971Y-91510895D01*
X131183742Y-90775505D02*
X131145037Y-90736800D01*
X131067628Y-90698095D01*
X130874104Y-90698095D01*
X130796694Y-90736800D01*
X130757990Y-90775505D01*
X130719285Y-90852914D01*
X130719285Y-90930324D01*
X130757990Y-91046438D01*
X131222447Y-91510895D01*
X130719285Y-91510895D01*
X130216123Y-90698095D02*
X130138714Y-90698095D01*
X130061304Y-90736800D01*
X130022599Y-90775505D01*
X129983895Y-90852914D01*
X129945190Y-91007733D01*
X129945190Y-91201257D01*
X129983895Y-91356076D01*
X130022599Y-91433486D01*
X130061304Y-91472190D01*
X130138714Y-91510895D01*
X130216123Y-91510895D01*
X130293533Y-91472190D01*
X130332237Y-91433486D01*
X130370942Y-91356076D01*
X130409647Y-91201257D01*
X130409647Y-91007733D01*
X130370942Y-90852914D01*
X130332237Y-90775505D01*
X130293533Y-90736800D01*
X130216123Y-90698095D01*
X129248504Y-90969029D02*
X129248504Y-91510895D01*
X129442028Y-90659390D02*
X129635552Y-91239962D01*
X129132390Y-91239962D01*
X128861457Y-91278667D02*
X128474409Y-91278667D01*
X128938866Y-91510895D02*
X128667933Y-90698095D01*
X128397000Y-91510895D01*
D13*
X149837019Y-90676324D02*
X149837019Y-91704419D01*
X149776543Y-91825371D01*
X149716067Y-91885848D01*
X149595114Y-91946324D01*
X149353210Y-91946324D01*
X149232257Y-91885848D01*
X149171781Y-91825371D01*
X149111305Y-91704419D01*
X149111305Y-90676324D01*
X148567019Y-90797276D02*
X148506543Y-90736800D01*
X148385591Y-90676324D01*
X148083210Y-90676324D01*
X147962257Y-90736800D01*
X147901781Y-90797276D01*
X147841305Y-90918229D01*
X147841305Y-91039181D01*
X147901781Y-91220610D01*
X148627495Y-91946324D01*
X147841305Y-91946324D01*
X153263600Y-98749895D02*
X153534533Y-98362848D01*
X153728057Y-98749895D02*
X153728057Y-97937095D01*
X153418419Y-97937095D01*
X153341010Y-97975800D01*
X153302305Y-98014505D01*
X153263600Y-98091914D01*
X153263600Y-98208029D01*
X153302305Y-98285438D01*
X153341010Y-98324143D01*
X153418419Y-98362848D01*
X153728057Y-98362848D01*
X152644324Y-98324143D02*
X152915257Y-98324143D01*
X152915257Y-98749895D02*
X152915257Y-97937095D01*
X152528210Y-97937095D01*
X152218571Y-98749895D02*
X152218571Y-97937095D01*
X151947638Y-98517667D01*
X151676705Y-97937095D01*
X151676705Y-98749895D01*
X150941314Y-97937095D02*
X151096133Y-97937095D01*
X151173543Y-97975800D01*
X151212248Y-98014505D01*
X151289657Y-98130619D01*
X151328362Y-98285438D01*
X151328362Y-98595076D01*
X151289657Y-98672486D01*
X151250952Y-98711190D01*
X151173543Y-98749895D01*
X151018724Y-98749895D01*
X150941314Y-98711190D01*
X150902610Y-98672486D01*
X150863905Y-98595076D01*
X150863905Y-98401552D01*
X150902610Y-98324143D01*
X150941314Y-98285438D01*
X151018724Y-98246733D01*
X151173543Y-98246733D01*
X151250952Y-98285438D01*
X151289657Y-98324143D01*
X151328362Y-98401552D01*
X150476857Y-98749895D02*
X150322038Y-98749895D01*
X150244629Y-98711190D01*
X150205924Y-98672486D01*
X150128515Y-98556371D01*
X150089810Y-98401552D01*
X150089810Y-98091914D01*
X150128515Y-98014505D01*
X150167219Y-97975800D01*
X150244629Y-97937095D01*
X150399448Y-97937095D01*
X150476857Y-97975800D01*
X150515562Y-98014505D01*
X150554267Y-98091914D01*
X150554267Y-98285438D01*
X150515562Y-98362848D01*
X150476857Y-98401552D01*
X150399448Y-98440257D01*
X150244629Y-98440257D01*
X150167219Y-98401552D01*
X150128515Y-98362848D01*
X150089810Y-98285438D01*
X149934991Y-98827305D02*
X149315715Y-98827305D01*
X149122191Y-98749895D02*
X149122191Y-97937095D01*
X148851258Y-98517667D01*
X148580325Y-97937095D01*
X148580325Y-98749895D01*
X148193277Y-98749895D02*
X148193277Y-97937095D01*
X147806229Y-98749895D02*
X147806229Y-97937095D01*
X147341772Y-98749895D01*
X147341772Y-97937095D01*
X146954724Y-98749895D02*
X146954724Y-97937095D01*
X146567676Y-98749895D02*
X146567676Y-97937095D01*
X146296743Y-98517667D01*
X146025810Y-97937095D01*
X146025810Y-98749895D01*
X145677467Y-98517667D02*
X145290419Y-98517667D01*
X145754876Y-98749895D02*
X145483943Y-97937095D01*
X145213010Y-98749895D01*
X144555029Y-98749895D02*
X144942076Y-98749895D01*
X144942076Y-97937095D01*
D21*
X154515457Y-85555200D02*
X154152600Y-85555200D01*
X154588029Y-85772914D02*
X154334029Y-85010914D01*
X154080029Y-85772914D01*
X153826028Y-85772914D02*
X153826028Y-85010914D01*
X153390600Y-85772914D01*
X153390600Y-85010914D01*
X153136600Y-85010914D02*
X152701171Y-85010914D01*
X152918885Y-85772914D02*
X152918885Y-85010914D01*
D22*
X154321933Y-87409400D02*
X152967266Y-87409400D01*
X153644599Y-88086733D02*
X153644599Y-86732067D01*
X154220333Y-89720800D02*
X152865666Y-89720800D01*
D16*
X140619047Y-105923810D02*
X140504761Y-105961905D01*
X140314285Y-105961905D01*
X140238095Y-105923810D01*
X140199999Y-105885714D01*
X140161904Y-105809524D01*
X140161904Y-105733333D01*
X140199999Y-105657143D01*
X140238095Y-105619048D01*
X140314285Y-105580952D01*
X140466666Y-105542857D01*
X140542857Y-105504762D01*
X140580952Y-105466667D01*
X140619047Y-105390476D01*
X140619047Y-105314286D01*
X140580952Y-105238095D01*
X140542857Y-105200000D01*
X140466666Y-105161905D01*
X140276190Y-105161905D01*
X140161904Y-105200000D01*
X139819047Y-105542857D02*
X139552380Y-105542857D01*
X139438094Y-105961905D02*
X139819047Y-105961905D01*
X139819047Y-105161905D01*
X139438094Y-105161905D01*
X139095237Y-105961905D02*
X139095237Y-105161905D01*
X138638094Y-105961905D01*
X138638094Y-105161905D01*
X138295237Y-105923810D02*
X138180951Y-105961905D01*
X137990475Y-105961905D01*
X137914285Y-105923810D01*
X137876189Y-105885714D01*
X137838094Y-105809524D01*
X137838094Y-105733333D01*
X137876189Y-105657143D01*
X137914285Y-105619048D01*
X137990475Y-105580952D01*
X138142856Y-105542857D01*
X138219047Y-105504762D01*
X138257142Y-105466667D01*
X138295237Y-105390476D01*
X138295237Y-105314286D01*
X138257142Y-105238095D01*
X138219047Y-105200000D01*
X138142856Y-105161905D01*
X137952380Y-105161905D01*
X137838094Y-105200000D01*
X137342856Y-105161905D02*
X137190475Y-105161905D01*
X137114284Y-105200000D01*
X137038094Y-105276190D01*
X136999999Y-105428571D01*
X136999999Y-105695238D01*
X137038094Y-105847619D01*
X137114284Y-105923810D01*
X137190475Y-105961905D01*
X137342856Y-105961905D01*
X137419046Y-105923810D01*
X137495237Y-105847619D01*
X137533332Y-105695238D01*
X137533332Y-105428571D01*
X137495237Y-105276190D01*
X137419046Y-105200000D01*
X137342856Y-105161905D01*
X136199999Y-105961905D02*
X136466666Y-105580952D01*
X136657142Y-105961905D02*
X136657142Y-105161905D01*
X136352380Y-105161905D01*
X136276189Y-105200000D01*
X136238094Y-105238095D01*
X136199999Y-105314286D01*
X136199999Y-105428571D01*
X136238094Y-105504762D01*
X136276189Y-105542857D01*
X136352380Y-105580952D01*
X136657142Y-105580952D01*
X136047618Y-106038095D02*
X135438094Y-106038095D01*
X135247618Y-105961905D02*
X135247618Y-105161905D01*
X134942856Y-105161905D01*
X134866665Y-105200000D01*
X134828570Y-105238095D01*
X134790475Y-105314286D01*
X134790475Y-105428571D01*
X134828570Y-105504762D01*
X134866665Y-105542857D01*
X134942856Y-105580952D01*
X135247618Y-105580952D01*
X134485713Y-105733333D02*
X134104761Y-105733333D01*
X134561904Y-105961905D02*
X134295237Y-105161905D01*
X134028570Y-105961905D01*
X133761904Y-105961905D02*
X133761904Y-105161905D01*
X133571428Y-105161905D01*
X133457142Y-105200000D01*
X133380951Y-105276190D01*
X133342856Y-105352381D01*
X133304761Y-105504762D01*
X133304761Y-105619048D01*
X133342856Y-105771429D01*
X133380951Y-105847619D01*
X133457142Y-105923810D01*
X133571428Y-105961905D01*
X133761904Y-105961905D01*
X133152380Y-106038095D02*
X132542856Y-106038095D01*
X131895237Y-105961905D02*
X132161904Y-105580952D01*
X132352380Y-105961905D02*
X132352380Y-105161905D01*
X132047618Y-105161905D01*
X131971427Y-105200000D01*
X131933332Y-105238095D01*
X131895237Y-105314286D01*
X131895237Y-105428571D01*
X131933332Y-105504762D01*
X131971427Y-105542857D01*
X132047618Y-105580952D01*
X132352380Y-105580952D01*
X131399999Y-105161905D02*
X131247618Y-105161905D01*
X131171427Y-105200000D01*
X131095237Y-105276190D01*
X131057142Y-105428571D01*
X131057142Y-105695238D01*
X131095237Y-105847619D01*
X131171427Y-105923810D01*
X131247618Y-105961905D01*
X131399999Y-105961905D01*
X131476189Y-105923810D01*
X131552380Y-105847619D01*
X131590475Y-105695238D01*
X131590475Y-105428571D01*
X131552380Y-105276190D01*
X131476189Y-105200000D01*
X131399999Y-105161905D01*
X130714285Y-105161905D02*
X130714285Y-105809524D01*
X130676190Y-105885714D01*
X130638094Y-105923810D01*
X130561904Y-105961905D01*
X130409523Y-105961905D01*
X130333332Y-105923810D01*
X130295237Y-105885714D01*
X130257142Y-105809524D01*
X130257142Y-105161905D01*
X129876190Y-105961905D02*
X129876190Y-105161905D01*
X129419047Y-105961905D01*
X129419047Y-105161905D01*
X129038095Y-105961905D02*
X129038095Y-105161905D01*
X128847619Y-105161905D01*
X128733333Y-105200000D01*
X128657142Y-105276190D01*
X128619047Y-105352381D01*
X128580952Y-105504762D01*
X128580952Y-105619048D01*
X128619047Y-105771429D01*
X128657142Y-105847619D01*
X128733333Y-105923810D01*
X128847619Y-105961905D01*
X129038095Y-105961905D01*
X168219047Y-105873810D02*
X168104761Y-105911905D01*
X167914285Y-105911905D01*
X167838095Y-105873810D01*
X167799999Y-105835714D01*
X167761904Y-105759524D01*
X167761904Y-105683333D01*
X167799999Y-105607143D01*
X167838095Y-105569048D01*
X167914285Y-105530952D01*
X168066666Y-105492857D01*
X168142857Y-105454762D01*
X168180952Y-105416667D01*
X168219047Y-105340476D01*
X168219047Y-105264286D01*
X168180952Y-105188095D01*
X168142857Y-105150000D01*
X168066666Y-105111905D01*
X167876190Y-105111905D01*
X167761904Y-105150000D01*
X167419047Y-105492857D02*
X167152380Y-105492857D01*
X167038094Y-105911905D02*
X167419047Y-105911905D01*
X167419047Y-105111905D01*
X167038094Y-105111905D01*
X166695237Y-105911905D02*
X166695237Y-105111905D01*
X166238094Y-105911905D01*
X166238094Y-105111905D01*
X165895237Y-105873810D02*
X165780951Y-105911905D01*
X165590475Y-105911905D01*
X165514285Y-105873810D01*
X165476189Y-105835714D01*
X165438094Y-105759524D01*
X165438094Y-105683333D01*
X165476189Y-105607143D01*
X165514285Y-105569048D01*
X165590475Y-105530952D01*
X165742856Y-105492857D01*
X165819047Y-105454762D01*
X165857142Y-105416667D01*
X165895237Y-105340476D01*
X165895237Y-105264286D01*
X165857142Y-105188095D01*
X165819047Y-105150000D01*
X165742856Y-105111905D01*
X165552380Y-105111905D01*
X165438094Y-105150000D01*
X164942856Y-105111905D02*
X164790475Y-105111905D01*
X164714284Y-105150000D01*
X164638094Y-105226190D01*
X164599999Y-105378571D01*
X164599999Y-105645238D01*
X164638094Y-105797619D01*
X164714284Y-105873810D01*
X164790475Y-105911905D01*
X164942856Y-105911905D01*
X165019046Y-105873810D01*
X165095237Y-105797619D01*
X165133332Y-105645238D01*
X165133332Y-105378571D01*
X165095237Y-105226190D01*
X165019046Y-105150000D01*
X164942856Y-105111905D01*
X163799999Y-105911905D02*
X164066666Y-105530952D01*
X164257142Y-105911905D02*
X164257142Y-105111905D01*
X163952380Y-105111905D01*
X163876189Y-105150000D01*
X163838094Y-105188095D01*
X163799999Y-105264286D01*
X163799999Y-105378571D01*
X163838094Y-105454762D01*
X163876189Y-105492857D01*
X163952380Y-105530952D01*
X164257142Y-105530952D01*
X163647618Y-105988095D02*
X163038094Y-105988095D01*
X162847618Y-105911905D02*
X162847618Y-105111905D01*
X162542856Y-105111905D01*
X162466665Y-105150000D01*
X162428570Y-105188095D01*
X162390475Y-105264286D01*
X162390475Y-105378571D01*
X162428570Y-105454762D01*
X162466665Y-105492857D01*
X162542856Y-105530952D01*
X162847618Y-105530952D01*
X162085713Y-105683333D02*
X161704761Y-105683333D01*
X162161904Y-105911905D02*
X161895237Y-105111905D01*
X161628570Y-105911905D01*
X161361904Y-105911905D02*
X161361904Y-105111905D01*
X161171428Y-105111905D01*
X161057142Y-105150000D01*
X160980951Y-105226190D01*
X160942856Y-105302381D01*
X160904761Y-105454762D01*
X160904761Y-105569048D01*
X160942856Y-105721429D01*
X160980951Y-105797619D01*
X161057142Y-105873810D01*
X161171428Y-105911905D01*
X161361904Y-105911905D01*
X160752380Y-105988095D02*
X160142856Y-105988095D01*
X159495237Y-105911905D02*
X159761904Y-105530952D01*
X159952380Y-105911905D02*
X159952380Y-105111905D01*
X159647618Y-105111905D01*
X159571427Y-105150000D01*
X159533332Y-105188095D01*
X159495237Y-105264286D01*
X159495237Y-105378571D01*
X159533332Y-105454762D01*
X159571427Y-105492857D01*
X159647618Y-105530952D01*
X159952380Y-105530952D01*
X158999999Y-105111905D02*
X158847618Y-105111905D01*
X158771427Y-105150000D01*
X158695237Y-105226190D01*
X158657142Y-105378571D01*
X158657142Y-105645238D01*
X158695237Y-105797619D01*
X158771427Y-105873810D01*
X158847618Y-105911905D01*
X158999999Y-105911905D01*
X159076189Y-105873810D01*
X159152380Y-105797619D01*
X159190475Y-105645238D01*
X159190475Y-105378571D01*
X159152380Y-105226190D01*
X159076189Y-105150000D01*
X158999999Y-105111905D01*
X158314285Y-105111905D02*
X158314285Y-105759524D01*
X158276190Y-105835714D01*
X158238094Y-105873810D01*
X158161904Y-105911905D01*
X158009523Y-105911905D01*
X157933332Y-105873810D01*
X157895237Y-105835714D01*
X157857142Y-105759524D01*
X157857142Y-105111905D01*
X157476190Y-105911905D02*
X157476190Y-105111905D01*
X157019047Y-105911905D01*
X157019047Y-105111905D01*
X156638095Y-105911905D02*
X156638095Y-105111905D01*
X156447619Y-105111905D01*
X156333333Y-105150000D01*
X156257142Y-105226190D01*
X156219047Y-105302381D01*
X156180952Y-105454762D01*
X156180952Y-105569048D01*
X156219047Y-105721429D01*
X156257142Y-105797619D01*
X156333333Y-105873810D01*
X156447619Y-105911905D01*
X156638095Y-105911905D01*
X143975057Y-125333143D02*
X144022676Y-125380762D01*
X144165533Y-125428381D01*
X144260771Y-125428381D01*
X144403629Y-125380762D01*
X144498867Y-125285524D01*
X144546486Y-125190286D01*
X144594105Y-124999810D01*
X144594105Y-124856952D01*
X144546486Y-124666476D01*
X144498867Y-124571238D01*
X144403629Y-124476000D01*
X144260771Y-124428381D01*
X144165533Y-124428381D01*
X144022676Y-124476000D01*
X143975057Y-124523619D01*
X143022676Y-125428381D02*
X143594105Y-125428381D01*
X143308391Y-125428381D02*
X143308391Y-124428381D01*
X143403629Y-124571238D01*
X143498867Y-124666476D01*
X143594105Y-124714095D01*
X142689343Y-124428381D02*
X142070295Y-124428381D01*
X142403629Y-124809333D01*
X142260771Y-124809333D01*
X142165533Y-124856952D01*
X142117914Y-124904571D01*
X142070295Y-124999810D01*
X142070295Y-125237905D01*
X142117914Y-125333143D01*
X142165533Y-125380762D01*
X142260771Y-125428381D01*
X142546486Y-125428381D01*
X142641724Y-125380762D01*
X142689343Y-125333143D01*
X144159266Y-110702743D02*
X144206885Y-110750362D01*
X144349742Y-110797981D01*
X144444980Y-110797981D01*
X144587838Y-110750362D01*
X144683076Y-110655124D01*
X144730695Y-110559886D01*
X144778314Y-110369410D01*
X144778314Y-110226552D01*
X144730695Y-110036076D01*
X144683076Y-109940838D01*
X144587838Y-109845600D01*
X144444980Y-109797981D01*
X144349742Y-109797981D01*
X144206885Y-109845600D01*
X144159266Y-109893219D01*
X143778314Y-109893219D02*
X143730695Y-109845600D01*
X143635457Y-109797981D01*
X143397361Y-109797981D01*
X143302123Y-109845600D01*
X143254504Y-109893219D01*
X143206885Y-109988457D01*
X143206885Y-110083695D01*
X143254504Y-110226552D01*
X143825933Y-110797981D01*
X143206885Y-110797981D01*
X159635143Y-89281143D02*
X159682762Y-89233524D01*
X159730381Y-89090667D01*
X159730381Y-88995429D01*
X159682762Y-88852571D01*
X159587524Y-88757333D01*
X159492286Y-88709714D01*
X159301810Y-88662095D01*
X159158952Y-88662095D01*
X158968476Y-88709714D01*
X158873238Y-88757333D01*
X158778000Y-88852571D01*
X158730381Y-88995429D01*
X158730381Y-89090667D01*
X158778000Y-89233524D01*
X158825619Y-89281143D01*
X159730381Y-90233524D02*
X159730381Y-89662095D01*
X159730381Y-89947809D02*
X158730381Y-89947809D01*
X158873238Y-89852571D01*
X158968476Y-89757333D01*
X159016095Y-89662095D01*
X159063714Y-91090667D02*
X159730381Y-91090667D01*
X158682762Y-90852571D02*
X159397048Y-90614476D01*
X159397048Y-91233524D01*
%LPC*%
D23*
X143299000Y-115385000D03*
X143299000Y-114435000D03*
X143299000Y-113485000D03*
X145499000Y-113485000D03*
X145499000Y-115385000D03*
X145499000Y-114435000D03*
D24*
X152629600Y-102749920D03*
X152629600Y-103550020D03*
X152629600Y-104350120D03*
X152629600Y-105150220D03*
X152629600Y-105947780D03*
X152629600Y-106747880D03*
X152629600Y-107547980D03*
X152629600Y-108348080D03*
D25*
X151136080Y-109841600D03*
X150335980Y-109841600D03*
X149535880Y-109841600D03*
X148735780Y-109841600D03*
X147938220Y-109841600D03*
X147138120Y-109841600D03*
X146338020Y-109841600D03*
X145537920Y-109841600D03*
D24*
X144046940Y-108348080D03*
X144046940Y-107547980D03*
X144046940Y-106747880D03*
X144046940Y-105947780D03*
X144046940Y-105150220D03*
X144046940Y-104350120D03*
X144046940Y-103550020D03*
X144046940Y-102749920D03*
D25*
X145537920Y-101258940D03*
X146338020Y-101258940D03*
X147138120Y-101258940D03*
X147938220Y-101258940D03*
X148735780Y-101258940D03*
X149535880Y-101258940D03*
X150335980Y-101258940D03*
X151136080Y-101258940D03*
D26*
X143832000Y-100418000D03*
X142732000Y-100418000D03*
D27*
X158648400Y-87729400D03*
X158648400Y-89629400D03*
X156464000Y-116782000D03*
X156464000Y-114882000D03*
X132588000Y-93292000D03*
X132588000Y-95192000D03*
D26*
X153628000Y-109990000D03*
X154728000Y-109990000D03*
D28*
X154747000Y-118118000D03*
X152847000Y-118118000D03*
D27*
X141351000Y-115004000D03*
X141351000Y-113104000D03*
D28*
X143449000Y-117356000D03*
X145349000Y-117356000D03*
D29*
X149098000Y-112654460D03*
X149098000Y-115453540D03*
X140462000Y-120020460D03*
X140462000Y-122819540D03*
X137541000Y-120020460D03*
X137541000Y-122819540D03*
D30*
X130175000Y-93396000D03*
X130175000Y-95596000D03*
D31*
X135552000Y-94242000D03*
X137752000Y-94242000D03*
D30*
X165862000Y-95469000D03*
X165862000Y-93269000D03*
D31*
X133434000Y-115070000D03*
X131234000Y-115070000D03*
X138006000Y-115070000D03*
X135806000Y-115070000D03*
X161120000Y-115070000D03*
X158920000Y-115070000D03*
X165692000Y-115070000D03*
X163492000Y-115070000D03*
D30*
X167894000Y-93269000D03*
X167894000Y-95469000D03*
D32*
X146970000Y-120470000D03*
X146970000Y-122468980D03*
X148968980Y-120470000D03*
X148968980Y-122468980D03*
X150967960Y-120470000D03*
X150967960Y-122468980D03*
X152969480Y-120470000D03*
X152969480Y-122468980D03*
X154968460Y-120470000D03*
X154968460Y-122468980D03*
X156969980Y-120470000D03*
X156969980Y-122468980D03*
X158968960Y-120470000D03*
X158968960Y-122468980D03*
D33*
X152471120Y-111768000D03*
X153670000Y-111768000D03*
X154868880Y-111768000D03*
D34*
X152847000Y-114097000D03*
X153797000Y-114097000D03*
X154747000Y-114097000D03*
X154747000Y-116297000D03*
X152847000Y-116297000D03*
X153797000Y-116297000D03*
D35*
X160021000Y-85863600D03*
D36*
X161811700Y-91449060D03*
X163310300Y-91449060D03*
X162312080Y-94248140D03*
X162312080Y-91449060D03*
X163310300Y-94248140D03*
X162809920Y-94248140D03*
X161811700Y-94248140D03*
X162809920Y-91449060D03*
D37*
X137650220Y-92491940D03*
X135653780Y-92491940D03*
X136652000Y-89896060D03*
D38*
X156334460Y-85448520D03*
X140337540Y-95445960D03*
X156334460Y-89449020D03*
X140335000Y-85448520D03*
X140337540Y-97447480D03*
X156334460Y-93446980D03*
X156334460Y-97447480D03*
X140335000Y-87544020D03*
X156334460Y-95445960D03*
X156334460Y-87450040D03*
D39*
X143319500Y-120424000D03*
X143319500Y-122924000D03*
D28*
X143449000Y-111768000D03*
X145349000Y-111768000D03*
D27*
X160528000Y-88974000D03*
X160528000Y-90874000D03*
M02*
