M48
;DRILL file {KiCad 4.0.6} date 04/01/17 23:07:50
;FORMAT={-:-/ absolute / inch / decimal}
FMAT,2
INCH,TZ
T1C0.013
T2C0.016
T3C0.031
%
G90
G05
M72
T1
X5.1715Y-4.5823
X5.411Y-3.7943
X5.42Y-4.5818
X5.437Y-3.7673
X5.4785Y-3.5273
X5.5925Y-3.8063
X5.6045Y-3.9943
X5.6135Y-3.9058
X5.6865Y-4.3318
X5.716Y-4.0788
X5.7205Y-4.1978
X5.723Y-4.4683
X5.725Y-4.2608
X5.727Y-3.7568
X5.728Y-4.0448
X5.73Y-3.6338
X5.749Y-4.1713
X5.757Y-3.6018
X5.763Y-3.9323
X5.764Y-4.2648
X5.804Y-3.8918
X5.8265Y-4.2148
X5.8325Y-3.7568
X5.8375Y-4.0523
X5.88Y-4.0638
X5.887Y-4.2608
X5.9185Y-4.2793
X5.9225Y-4.1003
X5.923Y-4.0588
X5.9245Y-4.3903
X5.933Y-3.7263
X5.934Y-4.2088
X5.9435Y-4.6808
X5.9665Y-4.2353
X5.9695Y-4.3928
X5.977Y-3.7223
X5.998Y-4.3388
X6.0035Y-4.6008
X6.0205Y-3.7123
X6.0295Y-4.0118
X6.033Y-3.8928
X6.0785Y-3.7578
X6.0925Y-3.8503
X6.0935Y-3.9233
X6.118Y-4.6858
X6.1235Y-4.4558
X6.1305Y-3.8913
X6.16Y-4.4108
X6.217Y-3.6823
X6.261Y-4.5898
X6.3Y-3.8078
X6.3215Y-4.5968
X6.336Y-3.5723
X6.409Y-3.6603
X6.415Y-3.4873
X6.4255Y-3.5553
X6.449Y-3.6808
X6.4505Y-3.7958
X6.543Y-4.5898
T2
X5.572Y-4.3488
X5.579Y-3.5698
X5.583Y-3.6498
X5.627Y-4.7798
X5.73Y-3.52
X5.789Y-4.5838
X5.8675Y-4.8963
X5.972Y-4.4503
X6.003Y-3.4918
X6.026Y-4.3078
X6.037Y-3.3593
X6.0415Y-3.4453
X6.058Y-4.1648
X6.085Y-3.8
X6.1565Y-4.5903
X6.175Y-3.575
X6.272Y-4.6658
X6.307Y-3.6773
X6.408Y-4.6718
X6.47Y-3.64
T3
X5.7741Y-4.7441
X5.7741Y-4.8228
X5.8528Y-4.7441
X5.8528Y-4.8228
X5.9315Y-4.7441
X5.9315Y-4.8228
X6.0103Y-4.7441
X6.0103Y-4.8228
X6.089Y-4.7441
X6.089Y-4.8228
X6.1678Y-4.7441
X6.1678Y-4.8228
X6.2465Y-4.7441
X6.2465Y-4.8228
X6.3Y-3.3805
T0
M30
