G04 #@! TF.FileFunction,Copper,L1,Top,Signal*
%FSLAX46Y46*%
G04 Gerber Fmt 4.6, Leading zero omitted, Abs format (unit mm)*
G04 Created by KiCad (PCBNEW 4.0.6) date 07/29/17 20:07:19*
%MOMM*%
%LPD*%
G01*
G04 APERTURE LIST*
%ADD10C,0.100000*%
%ADD11R,2.000000X1.000000*%
%ADD12C,15.000000*%
%ADD13R,0.750000X1.200000*%
%ADD14R,1.200000X0.900000*%
%ADD15R,0.800000X0.800000*%
%ADD16C,1.305560*%
%ADD17R,1.300000X0.700000*%
%ADD18C,0.812800*%
%ADD19C,0.685800*%
%ADD20C,0.304800*%
%ADD21C,0.254000*%
G04 APERTURE END LIST*
D10*
D11*
X154089600Y-94273200D03*
X154089600Y-93003200D03*
X154089600Y-91733200D03*
X154089600Y-90463200D03*
X154089600Y-89193200D03*
X154089600Y-87923200D03*
X154089600Y-86653200D03*
X154089600Y-85383200D03*
D12*
X134569200Y-105087800D03*
D13*
X156464000Y-92631600D03*
X156464000Y-94531600D03*
D14*
X158630800Y-89162000D03*
X156430800Y-89162000D03*
X149268000Y-96909000D03*
X151468000Y-96909000D03*
D15*
X131534000Y-115070000D03*
X133134000Y-115070000D03*
X135852000Y-115070000D03*
X137452000Y-115070000D03*
X159220000Y-115070000D03*
X160820000Y-115070000D03*
X163792000Y-115070000D03*
X165392000Y-115070000D03*
X158343600Y-90597200D03*
X158343600Y-92197200D03*
D12*
X162229800Y-105037000D03*
D16*
X146970000Y-120470000D03*
X146970000Y-122468980D03*
X148968980Y-120470000D03*
X148968980Y-122468980D03*
X150967960Y-120470000D03*
X150967960Y-122468980D03*
X152969480Y-120470000D03*
X152969480Y-122468980D03*
X154968460Y-120470000D03*
X154968460Y-122468980D03*
X156969980Y-120470000D03*
X156969980Y-122468980D03*
X158968960Y-120470000D03*
X158968960Y-122468980D03*
D17*
X145211800Y-117417000D03*
X145211800Y-115517000D03*
D18*
X144221200Y-117584600D03*
X141224000Y-117330600D03*
X148386800Y-87638000D03*
X151053800Y-86342600D03*
X157962600Y-93454600D03*
X149377400Y-100287200D03*
X158064200Y-85910800D03*
X145135600Y-110828200D03*
X135077200Y-118270400D03*
X138125200Y-123426600D03*
X159435800Y-85987000D03*
X152273000Y-108542200D03*
X152501600Y-116670200D03*
X151231600Y-99372800D03*
D19*
X148463000Y-90457400D03*
X146405600Y-102801800D03*
X146329400Y-95359600D03*
X152476200Y-104910000D03*
X147269200Y-99220400D03*
X145643600Y-103436800D03*
X148666200Y-103411400D03*
X149479000Y-102776400D03*
X149682200Y-94978600D03*
X150672800Y-92667200D03*
X150799800Y-90736800D03*
X156108400Y-91143200D03*
X151409400Y-88196800D03*
X152196800Y-86723600D03*
X150876000Y-89390600D03*
X154203400Y-98382200D03*
X144576800Y-106789600D03*
X129946400Y-115400200D03*
X138607800Y-115019200D03*
X158064200Y-115095400D03*
X166979600Y-115247800D03*
X148793200Y-95486600D03*
X151460200Y-109990000D03*
X151180800Y-102395400D03*
X148259800Y-98737800D03*
X148488400Y-116289200D03*
X157759400Y-118245000D03*
X151917400Y-106129200D03*
X147269200Y-114460400D03*
X147497800Y-116162200D03*
X156641800Y-111945800D03*
X140335000Y-111666400D03*
X147574000Y-112580800D03*
D20*
X139153900Y-117267100D02*
X141160500Y-117267100D01*
X144388800Y-117417000D02*
X145211800Y-117417000D01*
X144221200Y-117584600D02*
X144388800Y-117417000D01*
X141160500Y-117267100D02*
X141224000Y-117330600D01*
X150355300Y-98928300D02*
X150355300Y-95524700D01*
X152876800Y-93003200D02*
X154089600Y-93003200D01*
X150355300Y-95524700D02*
X152876800Y-93003200D01*
X148386800Y-87638000D02*
X149682200Y-86342600D01*
X149682200Y-86342600D02*
X151053800Y-86342600D01*
X157962600Y-93454600D02*
X158343600Y-93073600D01*
X158343600Y-93073600D02*
X158343600Y-92197200D01*
X149377400Y-99906200D02*
X150355300Y-98928300D01*
X149377400Y-100287200D02*
X149377400Y-99906200D01*
D21*
X158343600Y-92197200D02*
X158813600Y-92197200D01*
X160197800Y-88044400D02*
X158064200Y-85910800D01*
X160197800Y-90813000D02*
X160197800Y-88044400D01*
X158813600Y-92197200D02*
X160197800Y-90813000D01*
X156464000Y-92631600D02*
X157909200Y-92631600D01*
X157909200Y-92631600D02*
X158343600Y-92197200D01*
X154089600Y-93003200D02*
X156092400Y-93003200D01*
X156092400Y-93003200D02*
X156464000Y-92631600D01*
D20*
X138150600Y-118270400D02*
X135077200Y-118270400D01*
X144475200Y-110980600D02*
X144475200Y-111945800D01*
X144475200Y-111945800D02*
X139153900Y-117267100D01*
X139153900Y-117267100D02*
X138150600Y-118270400D01*
X144983200Y-110980600D02*
X145135600Y-110828200D01*
X144475200Y-110980600D02*
X144983200Y-110980600D01*
X135077200Y-118270400D02*
X135077200Y-121521600D01*
X135077200Y-121521600D02*
X136982200Y-123426600D01*
X136982200Y-123426600D02*
X138125200Y-123426600D01*
X150469600Y-113088800D02*
X150469600Y-112530000D01*
X151206200Y-111793400D02*
X151206200Y-111768000D01*
X150469600Y-112530000D02*
X151206200Y-111793400D01*
X151231600Y-100973000D02*
X151231600Y-101049200D01*
X151231600Y-99372800D02*
X151231600Y-100973000D01*
X150698200Y-114841400D02*
X150698200Y-114866800D01*
X150469600Y-114612800D02*
X150698200Y-114841400D01*
X150469600Y-103309802D02*
X150469600Y-113088800D01*
X150469600Y-113088800D02*
X150469600Y-114612800D01*
X150317200Y-103157402D02*
X150469600Y-103309802D01*
X150317200Y-101963600D02*
X150317200Y-103157402D01*
X151231600Y-101049200D02*
X150317200Y-101963600D01*
D21*
X156464000Y-94531600D02*
X158104800Y-94531600D01*
X160883600Y-87434800D02*
X159435800Y-85987000D01*
X160883600Y-91752800D02*
X160883600Y-87434800D01*
X158104800Y-94531600D02*
X160883600Y-91752800D01*
D20*
X153968400Y-94394400D02*
X154089600Y-94273200D01*
D21*
X154089600Y-94273200D02*
X156205600Y-94273200D01*
X156205600Y-94273200D02*
X156464000Y-94531600D01*
D20*
X151028400Y-111945800D02*
X151206200Y-111768000D01*
X151206200Y-111768000D02*
X152273000Y-110701200D01*
X152273000Y-110701200D02*
X152273000Y-108542200D01*
X152501600Y-116670200D02*
X150698200Y-114866800D01*
X151231600Y-99372800D02*
X151231600Y-97131200D01*
X151231600Y-97131200D02*
X154089600Y-94273200D01*
D21*
X146405600Y-102801800D02*
X146405600Y-98610800D01*
X147116800Y-97899600D02*
X147116800Y-97874200D01*
X146405600Y-98610800D02*
X147116800Y-97899600D01*
X149268000Y-96909000D02*
X148107400Y-96909000D01*
X147701000Y-97315400D02*
X147701000Y-97290000D01*
X148107400Y-96909000D02*
X147701000Y-97315400D01*
X148463000Y-90457400D02*
X147980400Y-90940000D01*
X147980400Y-97010600D02*
X147980400Y-90940000D01*
X147116800Y-97874200D02*
X147701000Y-97290000D01*
X147701000Y-97290000D02*
X147980400Y-97010600D01*
X143408400Y-99017200D02*
X146329400Y-96096200D01*
X146329400Y-96096200D02*
X146329400Y-95359600D01*
X143408400Y-99017200D02*
X143408400Y-111793400D01*
X135852000Y-115794000D02*
X136423400Y-116365400D01*
X136423400Y-116365400D02*
X138836400Y-116365400D01*
X138836400Y-116365400D02*
X143408400Y-111793400D01*
X135852000Y-115794000D02*
X135852000Y-115070000D01*
X133134000Y-115070000D02*
X135852000Y-115070000D01*
X153797000Y-111844200D02*
X154432000Y-111844200D01*
X159575400Y-116314600D02*
X160820000Y-115070000D01*
X157988000Y-116314600D02*
X159575400Y-116314600D01*
X157175200Y-115501800D02*
X157988000Y-116314600D01*
X157175200Y-114587400D02*
X157175200Y-115501800D01*
X154432000Y-111844200D02*
X157175200Y-114587400D01*
X152476200Y-104910000D02*
X153797000Y-106230800D01*
X153797000Y-106230800D02*
X153797000Y-111844200D01*
X160820000Y-115070000D02*
X163792000Y-115070000D01*
X147853400Y-102268400D02*
X147853400Y-99804600D01*
X147853400Y-99804600D02*
X147269200Y-99220400D01*
X147269200Y-111412398D02*
X142925800Y-115755798D01*
X147269200Y-102852600D02*
X147269200Y-111412398D01*
X147853400Y-102268400D02*
X147269200Y-102852600D01*
X154968460Y-122468980D02*
X154968460Y-122534540D01*
X154968460Y-122534540D02*
X153161998Y-124341002D01*
X153161998Y-124341002D02*
X145923002Y-124341002D01*
X145923002Y-124341002D02*
X142925800Y-121343800D01*
X142925800Y-121343800D02*
X142925800Y-115755798D01*
X145643600Y-103436800D02*
X145643600Y-109812200D01*
X146126200Y-110294800D02*
X146126200Y-111412400D01*
X145643600Y-109812200D02*
X146126200Y-110294800D01*
X142265400Y-121597800D02*
X142265400Y-115273200D01*
X142265400Y-115273200D02*
X146126200Y-111412400D01*
X156969980Y-122468980D02*
X156969980Y-122488820D01*
X156969980Y-122488820D02*
X154533600Y-124925200D01*
X154533600Y-124925200D02*
X145592800Y-124925200D01*
X145592800Y-124925200D02*
X142265400Y-121597800D01*
X148666200Y-103411400D02*
X148666200Y-103894002D01*
X149250400Y-115425600D02*
X149606000Y-115781200D01*
X149250400Y-104478202D02*
X149250400Y-115425600D01*
X148666200Y-103894002D02*
X149250400Y-104478202D01*
X154968460Y-120470000D02*
X154968460Y-119010062D01*
X152044400Y-118219600D02*
X149606000Y-115781200D01*
X154177998Y-118219600D02*
X152044400Y-118219600D01*
X154968460Y-119010062D02*
X154177998Y-118219600D01*
X154968460Y-120470000D02*
X154968460Y-120432460D01*
X149479000Y-102776400D02*
X149479000Y-103741600D01*
X150217033Y-115601967D02*
X150217033Y-115579433D01*
X149834600Y-115219534D02*
X150217033Y-115601967D01*
X149834600Y-104097200D02*
X149834600Y-115219534D01*
X149479000Y-103741600D02*
X149834600Y-104097200D01*
X156969980Y-120470000D02*
X156969980Y-119436780D01*
X152247600Y-117610000D02*
X150217033Y-115579433D01*
X155143200Y-117610000D02*
X152247600Y-117610000D01*
X156969980Y-119436780D02*
X155143200Y-117610000D01*
X154089600Y-90463200D02*
X151073400Y-90463200D01*
X149682200Y-93657800D02*
X149682200Y-94978600D01*
X150672800Y-92667200D02*
X149682200Y-93657800D01*
X151073400Y-90463200D02*
X150799800Y-90736800D01*
X154089600Y-90463200D02*
X155428400Y-90463200D01*
X155428400Y-90463200D02*
X156108400Y-91143200D01*
X154089600Y-87923200D02*
X151683000Y-87923200D01*
X151683000Y-87923200D02*
X151409400Y-88196800D01*
X153181600Y-87923200D02*
X154089600Y-87923200D01*
X154089600Y-86653200D02*
X152267200Y-86653200D01*
X152267200Y-86653200D02*
X152196800Y-86723600D01*
X154089600Y-86653200D02*
X153181600Y-86653200D01*
X151073400Y-89193200D02*
X154089600Y-89193200D01*
X150876000Y-89390600D02*
X151073400Y-89193200D01*
X156430800Y-89162000D02*
X156430800Y-86172600D01*
X156210000Y-96375600D02*
X154203400Y-98382200D01*
X157327600Y-96375600D02*
X156210000Y-96375600D01*
X161569400Y-92133800D02*
X157327600Y-96375600D01*
X161569400Y-86749000D02*
X161569400Y-92133800D01*
X159715200Y-84894800D02*
X161569400Y-86749000D01*
X157708600Y-84894800D02*
X159715200Y-84894800D01*
X156430800Y-86172600D02*
X157708600Y-84894800D01*
X154089600Y-89193200D02*
X156399600Y-89193200D01*
X156399600Y-89193200D02*
X156430800Y-89162000D01*
X144170400Y-106383200D02*
X144170400Y-99398200D01*
X144170400Y-99398200D02*
X147015200Y-96553400D01*
X147332700Y-85593300D02*
X147332700Y-96235900D01*
X147332700Y-96235900D02*
X147015200Y-96553400D01*
X149301200Y-85352000D02*
X149301200Y-85383200D01*
X147574000Y-85352000D02*
X149301200Y-85352000D01*
X147332700Y-85593300D02*
X147574000Y-85352000D01*
X144170400Y-106383200D02*
X144576800Y-106789600D01*
X147015200Y-96553400D02*
X147116800Y-96451800D01*
X149301200Y-85383200D02*
X154089600Y-85383200D01*
X130276600Y-115070000D02*
X131534000Y-115070000D01*
X129946400Y-115400200D02*
X130276600Y-115070000D01*
X137452000Y-115070000D02*
X138557000Y-115070000D01*
X138557000Y-115070000D02*
X138607800Y-115019200D01*
X159220000Y-115070000D02*
X158089600Y-115070000D01*
X158089600Y-115070000D02*
X158064200Y-115095400D01*
X166979600Y-115247800D02*
X166801800Y-115070000D01*
X166801800Y-115070000D02*
X165392000Y-115070000D01*
X158630800Y-89162000D02*
X158630800Y-90310000D01*
X158630800Y-90310000D02*
X158343600Y-90597200D01*
X154089600Y-91733200D02*
X150336800Y-91733200D01*
X150336800Y-91733200D02*
X148793200Y-93276800D01*
X148793200Y-93276800D02*
X148793200Y-95486600D01*
X151079200Y-102497000D02*
X151079200Y-109609000D01*
X151079200Y-109609000D02*
X151460200Y-109990000D01*
X151079200Y-102497000D02*
X151180800Y-102395400D01*
X147878800Y-104427400D02*
X147878800Y-104452802D01*
X148437600Y-102497000D02*
X147878800Y-103055800D01*
X147878800Y-103055800D02*
X147878800Y-104427400D01*
X148437600Y-98915600D02*
X148259800Y-98737800D01*
X148437600Y-102497000D02*
X148437600Y-98915600D01*
X148691598Y-116086002D02*
X148488400Y-116289200D01*
X148691598Y-105265600D02*
X148691598Y-116086002D01*
X147878800Y-104452802D02*
X148691598Y-105265600D01*
X148488400Y-116289200D02*
X148361396Y-116162196D01*
X151917400Y-106129200D02*
X151917400Y-106129202D01*
X156387800Y-116924200D02*
X156387800Y-116873400D01*
X153162000Y-113698400D02*
X156387800Y-116924200D01*
X153162000Y-107373802D02*
X153162000Y-113698400D01*
X151917400Y-106129202D02*
X153162000Y-107373802D01*
X157759400Y-118245000D02*
X156387800Y-116873400D01*
X152969480Y-122468980D02*
X152969480Y-123085720D01*
X147269200Y-114460400D02*
X147269200Y-115933600D01*
X147269200Y-115933600D02*
X147497800Y-116162200D01*
X156641800Y-111945800D02*
X162229800Y-106357800D01*
X162229800Y-106357800D02*
X162229800Y-105037000D01*
X140335000Y-111666400D02*
X134569200Y-105900600D01*
X134569200Y-105900600D02*
X134569200Y-105087800D01*
X145211800Y-114943000D02*
X145211800Y-115517000D01*
X147574000Y-112580800D02*
X145211800Y-114943000D01*
M02*
