M48
;DRILL file {KiCad 4.0.6} date 04/02/17 16:31:58
;FORMAT={-:-/ absolute / inch / decimal}
FMAT,2
INCH,TZ
T1C0.013
T2C0.016
T3C0.031
%
G90
G05
M72
T1
X5.1715Y-4.5823
X5.411Y-3.7943
X5.42Y-4.5818
X5.437Y-3.7673
X5.4785Y-3.5273
X5.59Y-4.3953
X5.5925Y-3.8063
X5.6045Y-3.9943
X5.6135Y-3.9058
X5.685Y-4.3053
X5.685Y-4.3503
X5.685Y-4.5803
X5.716Y-4.0788
X5.727Y-3.7568
X5.728Y-4.0448
X5.73Y-3.6338
X5.73Y-4.1803
X5.757Y-3.6018
X5.763Y-3.9323
X5.765Y-4.2253
X5.77Y-4.4153
X5.805Y-4.1403
X5.8075Y-3.8528
X5.8175Y-3.9178
X5.8265Y-4.2148
X5.88Y-4.0638
X5.887Y-4.2608
X5.905Y-4.3753
X5.9185Y-4.2793
X5.9225Y-4.1003
X5.923Y-4.0588
X5.933Y-3.7263
X5.935Y-4.2103
X5.945Y-4.6803
X5.9665Y-4.2353
X5.97Y-4.5003
X5.977Y-3.7223
X5.985Y-4.3403
X6.0205Y-3.7123
X6.0295Y-4.0118
X6.05Y-4.2853
X6.0785Y-3.7578
X6.0925Y-3.8503
X6.0935Y-3.9233
X6.12Y-3.8903
X6.145Y-4.4003
X6.165Y-4.6653
X6.18Y-4.4853
X6.217Y-3.6823
X6.261Y-4.5898
X6.3Y-3.8078
X6.336Y-3.5723
X6.409Y-3.6603
X6.415Y-3.4873
X6.4255Y-3.5553
X6.449Y-3.6808
X6.4505Y-3.7958
X6.543Y-4.5898
T2
X5.56Y-4.5983
X5.579Y-3.5698
X5.583Y-3.6498
X5.705Y-4.8203
X5.73Y-3.52
X5.835Y-4.6253
X5.95Y-4.1703
X5.955Y-4.4503
X6.Y-4.3003
X6.003Y-3.4918
X6.028Y-4.8943
X6.037Y-3.3593
X6.0415Y-3.4453
X6.085Y-3.8
X6.15Y-4.4503
X6.175Y-3.575
X6.272Y-4.6658
X6.307Y-3.6773
X6.408Y-4.6718
X6.47Y-3.64
T3
X5.7862Y-4.7429
X5.7862Y-4.8216
X5.8649Y-4.7429
X5.8649Y-4.8216
X5.9436Y-4.7429
X5.9436Y-4.8216
X6.0224Y-4.7429
X6.0224Y-4.8216
X6.1011Y-4.7429
X6.1011Y-4.8216
X6.1799Y-4.7429
X6.1799Y-4.8216
X6.2586Y-4.7429
X6.2586Y-4.8216
X6.3Y-3.3805
T0
M30
