G04 #@! TF.FileFunction,Profile,NP*
%FSLAX46Y46*%
G04 Gerber Fmt 4.6, Leading zero omitted, Abs format (unit mm)*
G04 Created by KiCad (PCBNEW 4.0.6) date 04/01/17 23:38:16*
%MOMM*%
%LPD*%
G01*
G04 APERTURE LIST*
%ADD10C,0.100000*%
%ADD11C,0.150000*%
G04 APERTURE END LIST*
D10*
D11*
X127001100Y-118503600D02*
X127001100Y-91503600D01*
X170001100Y-118503600D02*
X170001100Y-91503600D01*
X135001100Y-83503600D02*
X162001100Y-83503600D01*
X135001100Y-126503600D02*
X162001100Y-126503600D01*
X127001100Y-118503600D02*
X128001100Y-120503600D01*
X128001100Y-120503600D02*
X132001100Y-124503600D01*
X132001100Y-124503600D02*
X135001100Y-126503600D01*
X162001100Y-126503600D02*
X165001100Y-124503600D01*
X165001100Y-124503600D02*
X168001100Y-121503600D01*
X168001100Y-121503600D02*
X170001100Y-118503600D01*
X127001100Y-91503600D02*
X129501100Y-88003600D01*
X129501100Y-88003600D02*
X131001100Y-89503600D01*
X131001100Y-89503600D02*
X133001100Y-87503600D01*
X133001100Y-87503600D02*
X131501100Y-86003600D01*
X131501100Y-86003600D02*
X135001100Y-83503600D01*
X162001100Y-83503600D02*
X165501100Y-86003600D01*
X165501100Y-86003600D02*
X164001100Y-87503600D01*
X164001100Y-87503600D02*
X166001100Y-89503600D01*
X166001100Y-89503600D02*
X167501100Y-88003600D01*
X167501100Y-88003600D02*
X170001100Y-91503600D01*
M02*
