G04 #@! TF.FileFunction,Copper,L2,Bot,Signal*
%FSLAX46Y46*%
G04 Gerber Fmt 4.6, Leading zero omitted, Abs format (unit mm)*
G04 Created by KiCad (PCBNEW 4.0.6) date 07/29/17 20:07:19*
%MOMM*%
%LPD*%
G01*
G04 APERTURE LIST*
%ADD10C,0.100000*%
%ADD11R,1.270000X0.533400*%
%ADD12R,0.533400X1.270000*%
%ADD13R,1.200000X0.750000*%
%ADD14R,0.900000X1.200000*%
%ADD15C,16.000000*%
%ADD16R,0.998220X0.899160*%
%ADD17R,0.750000X1.200000*%
%ADD18R,0.600000X0.500000*%
%ADD19R,1.597660X1.399540*%
%ADD20R,1.200000X0.900000*%
%ADD21R,1.549400X0.599440*%
%ADD22R,1.798320X1.198880*%
%ADD23R,0.500000X0.600000*%
%ADD24R,0.400000X1.200000*%
%ADD25R,0.500000X0.900000*%
%ADD26R,0.900000X0.500000*%
%ADD27C,1.305560*%
%ADD28C,0.812800*%
%ADD29C,0.685800*%
%ADD30C,0.304800*%
%ADD31C,0.254000*%
G04 APERTURE END LIST*
D10*
D11*
X144094200Y-104153080D03*
X144094200Y-103352980D03*
X144094200Y-102552880D03*
X144094200Y-101752780D03*
X144094200Y-100955220D03*
X144094200Y-100155120D03*
X144094200Y-99355020D03*
X144094200Y-98554920D03*
D12*
X145587720Y-97061400D03*
X146387820Y-97061400D03*
X147187920Y-97061400D03*
X147988020Y-97061400D03*
X148785580Y-97061400D03*
X149585680Y-97061400D03*
X150385780Y-97061400D03*
X151185880Y-97061400D03*
D11*
X152676860Y-98554920D03*
X152676860Y-99355020D03*
X152676860Y-100155120D03*
X152676860Y-100955220D03*
X152676860Y-101752780D03*
X152676860Y-102552880D03*
X152676860Y-103352980D03*
X152676860Y-104153080D03*
D12*
X151185880Y-105644060D03*
X150385780Y-105644060D03*
X149585680Y-105644060D03*
X148785580Y-105644060D03*
X147988020Y-105644060D03*
X147187920Y-105644060D03*
X146387820Y-105644060D03*
X145587720Y-105644060D03*
D13*
X146644400Y-109278800D03*
X144744400Y-109278800D03*
D14*
X136474200Y-120218400D03*
X136474200Y-122418400D03*
D15*
X134569200Y-105087800D03*
D14*
X156667200Y-91278000D03*
X156667200Y-89078000D03*
D16*
X160510220Y-87411940D03*
X158513780Y-87411940D03*
X159512000Y-84816060D03*
D17*
X156870400Y-85062400D03*
X156870400Y-86962400D03*
D18*
X153127800Y-107246800D03*
X152027800Y-107246800D03*
D19*
X143129000Y-120071260D03*
X143129000Y-122870340D03*
X140360400Y-120122060D03*
X140360400Y-122921140D03*
D20*
X158513600Y-89060400D03*
X160713600Y-89060400D03*
X133434000Y-115070000D03*
X131234000Y-115070000D03*
X138006000Y-115070000D03*
X135806000Y-115070000D03*
X161120000Y-115070000D03*
X158920000Y-115070000D03*
X165692000Y-115070000D03*
X163492000Y-115070000D03*
D21*
X146839940Y-87409400D03*
X146839940Y-88410160D03*
X146839940Y-89410920D03*
X146839940Y-90409140D03*
X146839940Y-91407360D03*
X146839940Y-92408120D03*
D22*
X149062440Y-86111460D03*
X149062440Y-93708600D03*
D17*
X138226800Y-120368400D03*
X138226800Y-122268400D03*
D23*
X154101800Y-101624600D03*
X154101800Y-100524600D03*
D13*
X154366000Y-118067200D03*
X152466000Y-118067200D03*
D24*
X150641600Y-117910400D03*
X149991600Y-117910400D03*
X149341600Y-117910400D03*
X148691600Y-117910400D03*
X148041600Y-117910400D03*
X147391600Y-117910400D03*
X146741600Y-117910400D03*
X146741600Y-111010400D03*
X147391600Y-111010400D03*
X148041600Y-111010400D03*
X148691600Y-111010400D03*
X149341600Y-111010400D03*
X149991600Y-111010400D03*
X150641600Y-111010400D03*
D15*
X162229800Y-105037000D03*
D25*
X144260000Y-114587400D03*
X142760000Y-114587400D03*
X144260000Y-112885600D03*
X142760000Y-112885600D03*
X153174000Y-114460400D03*
X154674000Y-114460400D03*
X153123200Y-112911000D03*
X154623200Y-112911000D03*
D26*
X150876000Y-107436600D03*
X150876000Y-108936600D03*
X148361400Y-107436600D03*
X148361400Y-108936600D03*
X149606000Y-107436600D03*
X149606000Y-108936600D03*
D27*
X146970000Y-120470000D03*
X146970000Y-122468980D03*
X148968980Y-120470000D03*
X148968980Y-122468980D03*
X150967960Y-120470000D03*
X150967960Y-122468980D03*
X152969480Y-120470000D03*
X152969480Y-122468980D03*
X154968460Y-120470000D03*
X154968460Y-122468980D03*
X156969980Y-120470000D03*
X156969980Y-122468980D03*
X158968960Y-120470000D03*
X158968960Y-122468980D03*
D28*
X144221200Y-117584600D03*
X141224000Y-117330600D03*
X148386800Y-87638000D03*
X151053800Y-86342600D03*
X157962600Y-93454600D03*
X149377400Y-100287200D03*
X158064200Y-85910800D03*
X145135600Y-110828200D03*
X135077200Y-118270400D03*
X138125200Y-123426600D03*
X159435800Y-85987000D03*
X152273000Y-108542200D03*
X152501600Y-116670200D03*
X151231600Y-99372800D03*
D29*
X148463000Y-90457400D03*
X146405600Y-102801800D03*
X146329400Y-95359600D03*
X152476200Y-104910000D03*
X147269200Y-99220400D03*
X145643600Y-103436800D03*
X148666200Y-103411400D03*
X149479000Y-102776400D03*
X149682200Y-94978600D03*
X150672800Y-92667200D03*
X150799800Y-90736800D03*
X156108400Y-91143200D03*
X151409400Y-88196800D03*
X152196800Y-86723600D03*
X150876000Y-89390600D03*
X154203400Y-98382200D03*
X144576800Y-106789600D03*
X129946400Y-115400200D03*
X138607800Y-115019200D03*
X158064200Y-115095400D03*
X166979600Y-115247800D03*
X148793200Y-95486600D03*
X151460200Y-109990000D03*
X151180800Y-102395400D03*
X148259800Y-98737800D03*
X148488400Y-116289200D03*
X157759400Y-118245000D03*
X151917400Y-106129200D03*
X147269200Y-114460400D03*
X147497800Y-116162200D03*
X156641800Y-111945800D03*
X140335000Y-111666400D03*
X147574000Y-112580800D03*
D30*
X141478000Y-117584600D02*
X144221200Y-117584600D01*
X141224000Y-117330600D02*
X141478000Y-117584600D01*
X145465798Y-113139598D02*
X145516598Y-113139598D01*
X153127800Y-107246800D02*
X153568400Y-107687400D01*
X153568400Y-110015400D02*
X153568400Y-107687400D01*
X150463593Y-113120207D02*
X153568400Y-110015400D01*
X145135600Y-112809400D02*
X145135600Y-110828200D01*
X145135600Y-112809400D02*
X145465798Y-113139598D01*
X149987000Y-113596800D02*
X150463593Y-113120207D01*
X145973800Y-113596800D02*
X149987000Y-113596800D01*
X145516598Y-113139598D02*
X145973800Y-113596800D01*
D31*
X150641600Y-111010400D02*
X150641600Y-111926200D01*
D30*
X146839940Y-88410160D02*
X147614640Y-88410160D01*
X147614640Y-88410160D02*
X148386800Y-87638000D01*
X151053800Y-86342600D02*
X151663400Y-85733000D01*
X151663400Y-85733000D02*
X153111200Y-85733000D01*
X153111200Y-85733000D02*
X154051000Y-86672800D01*
X154051000Y-86672800D02*
X154051000Y-91041600D01*
X154051000Y-91041600D02*
X156464000Y-93454600D01*
X156464000Y-93454600D02*
X157962600Y-93454600D01*
X149606000Y-100973000D02*
X149606000Y-100515800D01*
X149606000Y-100515800D02*
X149377400Y-100287200D01*
X156580800Y-85062400D02*
X156870400Y-85062400D01*
D31*
X158064200Y-85910800D02*
X159158940Y-84816060D01*
X159158940Y-84816060D02*
X159512000Y-84816060D01*
X159512000Y-84816060D02*
X157116740Y-84816060D01*
X157116740Y-84816060D02*
X156870400Y-85062400D01*
D30*
X145135600Y-109771600D02*
X144922200Y-109558200D01*
X145135600Y-110828200D02*
X145135600Y-109771600D01*
X145821400Y-100973000D02*
X145821400Y-101176200D01*
X145821400Y-101176200D02*
X145542000Y-101455600D01*
D31*
X163492000Y-115070000D02*
X163492000Y-115128600D01*
X163492000Y-115128600D02*
X161188400Y-117432200D01*
X161188400Y-117432200D02*
X155001000Y-117432200D01*
X155001000Y-117432200D02*
X154366000Y-118067200D01*
D30*
X144094200Y-102552880D02*
X145460720Y-102552880D01*
X145821400Y-102192200D02*
X145821400Y-100973000D01*
X145460720Y-102552880D02*
X145821400Y-102192200D01*
X152676860Y-101752780D02*
X151681180Y-101752780D01*
X150901400Y-100973000D02*
X149606000Y-100973000D01*
X149606000Y-100973000D02*
X145821400Y-100973000D01*
X145821400Y-100973000D02*
X144111980Y-100973000D01*
X151681180Y-101752780D02*
X150901400Y-100973000D01*
X144111980Y-100973000D02*
X144094200Y-100955220D01*
X135806000Y-115070000D02*
X135806000Y-117541600D01*
X135806000Y-117541600D02*
X135077200Y-118270400D01*
X138226800Y-123325000D02*
X138226800Y-122268400D01*
X138125200Y-123426600D02*
X138226800Y-123325000D01*
D31*
X153127800Y-107246800D02*
X153127800Y-105401400D01*
X153127800Y-105401400D02*
X153746200Y-104783000D01*
X153746200Y-104783000D02*
X153746200Y-101980200D01*
X153746200Y-101980200D02*
X154101800Y-101624600D01*
D30*
X152676860Y-101752780D02*
X153973620Y-101752780D01*
X153973620Y-101752780D02*
X154101800Y-101624600D01*
X148968980Y-122468980D02*
X148968980Y-122586380D01*
X138226800Y-122268400D02*
X139707660Y-122268400D01*
X139707660Y-122268400D02*
X140360400Y-122921140D01*
X143129000Y-122870340D02*
X140411200Y-122870340D01*
X140411200Y-122870340D02*
X140360400Y-122921140D01*
X148968980Y-122468980D02*
X148968980Y-122692020D01*
X148968980Y-122692020D02*
X147574000Y-124087000D01*
X147574000Y-124087000D02*
X144345660Y-124087000D01*
X144345660Y-124087000D02*
X143129000Y-122870340D01*
X156870400Y-86962400D02*
X155890000Y-86962400D01*
X146839940Y-85603460D02*
X146839940Y-87409400D01*
X147777200Y-84666200D02*
X146839940Y-85603460D01*
X153593800Y-84666200D02*
X147777200Y-84666200D01*
X155890000Y-86962400D02*
X153593800Y-84666200D01*
D31*
X158513780Y-86909020D02*
X158513780Y-87411940D01*
X159435800Y-85987000D02*
X158513780Y-86909020D01*
X156870400Y-86962400D02*
X158064240Y-86962400D01*
X158064240Y-86962400D02*
X158513780Y-87411940D01*
X158513780Y-87411940D02*
X158513780Y-89060220D01*
X158513780Y-89060220D02*
X158513600Y-89060400D01*
X156667200Y-89078000D02*
X158496000Y-89078000D01*
X158496000Y-89078000D02*
X158513600Y-89060400D01*
D30*
X152027800Y-108297000D02*
X152027800Y-107246800D01*
X152273000Y-108542200D02*
X152027800Y-108297000D01*
D31*
X149606000Y-107436600D02*
X150876000Y-107436600D01*
X150876000Y-107436600D02*
X151065800Y-107246800D01*
X151065800Y-107246800D02*
X152027800Y-107246800D01*
D30*
X133434000Y-118100400D02*
X133434000Y-115070000D01*
X135552000Y-120218400D02*
X133434000Y-118100400D01*
X136474200Y-120218400D02*
X135552000Y-120218400D01*
X152466000Y-118067200D02*
X152466000Y-116705800D01*
X152466000Y-116705800D02*
X152501600Y-116670200D01*
X161120000Y-115070000D02*
X161120000Y-115773400D01*
X161120000Y-115773400D02*
X160223200Y-116670200D01*
X160223200Y-116670200D02*
X152501600Y-116670200D01*
X136474200Y-120218400D02*
X136474200Y-119896000D01*
X136474200Y-119896000D02*
X137642600Y-118727600D01*
X137642600Y-118727600D02*
X145313400Y-118727600D01*
X145313400Y-118727600D02*
X145719800Y-119134000D01*
X145719800Y-119134000D02*
X151399200Y-119134000D01*
X151399200Y-119134000D02*
X152466000Y-118067200D01*
D31*
X150641600Y-117910400D02*
X152309200Y-117910400D01*
X152309200Y-117910400D02*
X152466000Y-118067200D01*
D30*
X144094200Y-101752780D02*
X143172180Y-101752780D01*
X142925800Y-100566600D02*
X143337280Y-100155120D01*
X142925800Y-101506400D02*
X142925800Y-100566600D01*
X143172180Y-101752780D02*
X142925800Y-101506400D01*
X151231600Y-99372800D02*
X149047200Y-99372800D01*
X148264880Y-100155120D02*
X144094200Y-100155120D01*
X149047200Y-99372800D02*
X148264880Y-100155120D01*
D31*
X144094200Y-100155120D02*
X143337280Y-100155120D01*
D30*
X151249380Y-99355020D02*
X152676860Y-99355020D01*
X151231600Y-99372800D02*
X151249380Y-99355020D01*
D31*
X146839940Y-90409140D02*
X148414740Y-90409140D01*
X148414740Y-90409140D02*
X148463000Y-90457400D01*
X147988020Y-105644060D02*
X147988020Y-104511220D01*
X146405600Y-102928800D02*
X146405600Y-102801800D01*
X147988020Y-104511220D02*
X146405600Y-102928800D01*
X146387820Y-95418020D02*
X146329400Y-95359600D01*
X146387820Y-97061400D02*
X146387820Y-95418020D01*
X152676860Y-104709340D02*
X152476200Y-104910000D01*
X152676860Y-104153080D02*
X152676860Y-104709340D01*
X146710400Y-99271200D02*
X145587720Y-98148520D01*
X147218400Y-99271200D02*
X146710400Y-99271200D01*
X147269200Y-99220400D02*
X147218400Y-99271200D01*
X145587720Y-97061400D02*
X145587720Y-98148520D01*
X145643600Y-103436800D02*
X145559780Y-103352980D01*
X144094200Y-103352980D02*
X145559780Y-103352980D01*
X148666200Y-103411400D02*
X149585680Y-104330880D01*
X149585680Y-105644060D02*
X149585680Y-104330880D01*
X149479000Y-102776400D02*
X150385780Y-103683180D01*
X150385780Y-105644060D02*
X150385780Y-103683180D01*
X149585680Y-95075120D02*
X149585680Y-97061400D01*
X149682200Y-94978600D02*
X149585680Y-95075120D01*
X150672800Y-90863800D02*
X150672800Y-92667200D01*
X150799800Y-90736800D02*
X150672800Y-90863800D01*
X156108400Y-91143200D02*
X156243200Y-91278000D01*
X156243200Y-91278000D02*
X156667200Y-91278000D01*
X146839940Y-91407360D02*
X149214840Y-91407360D01*
X150215600Y-88196800D02*
X151409400Y-88196800D01*
X149250400Y-89162000D02*
X150215600Y-88196800D01*
X149250400Y-91371800D02*
X149250400Y-89162000D01*
X149214840Y-91407360D02*
X149250400Y-91371800D01*
X150385780Y-96154620D02*
X150385780Y-97061400D01*
X151739600Y-94800800D02*
X150385780Y-96154620D01*
X151739600Y-88527000D02*
X151739600Y-94800800D01*
X151409400Y-88196800D02*
X151739600Y-88527000D01*
X146839940Y-89410920D02*
X147883880Y-89410920D01*
X151536400Y-87384000D02*
X152196800Y-86723600D01*
X149910800Y-87384000D02*
X151536400Y-87384000D01*
X147883880Y-89410920D02*
X149910800Y-87384000D01*
X152323800Y-95923480D02*
X151185880Y-97061400D01*
X152323800Y-86850600D02*
X152323800Y-95923480D01*
X152196800Y-86723600D02*
X152323800Y-86850600D01*
X151185880Y-97061400D02*
X151257000Y-97061400D01*
X146839940Y-92408120D02*
X149458680Y-92408120D01*
X150850600Y-89390600D02*
X150876000Y-89390600D01*
X149936200Y-90305000D02*
X150850600Y-89390600D01*
X149936200Y-91930600D02*
X149936200Y-90305000D01*
X149458680Y-92408120D02*
X149936200Y-91930600D01*
X154030680Y-98554920D02*
X152676860Y-98554920D01*
X154203400Y-98382200D02*
X154030680Y-98554920D01*
X160713600Y-89060400D02*
X160713600Y-87615320D01*
X160713600Y-87615320D02*
X160510220Y-87411940D01*
X144576800Y-106789600D02*
X145587720Y-105778680D01*
X145587720Y-105778680D02*
X145587720Y-105644060D01*
X152676860Y-100955220D02*
X153408380Y-100955220D01*
X153839000Y-100524600D02*
X154101800Y-100524600D01*
X153408380Y-100955220D02*
X153839000Y-100524600D01*
X131234000Y-115070000D02*
X130276600Y-115070000D01*
X130276600Y-115070000D02*
X129946400Y-115400200D01*
X138607800Y-115019200D02*
X138557000Y-115070000D01*
X138557000Y-115070000D02*
X138006000Y-115070000D01*
X158064200Y-115095400D02*
X158089600Y-115070000D01*
X158089600Y-115070000D02*
X158920000Y-115070000D01*
X165692000Y-115070000D02*
X166801800Y-115070000D01*
X166801800Y-115070000D02*
X166979600Y-115247800D01*
X144043400Y-104203880D02*
X144094200Y-104153080D01*
X143586200Y-104153080D02*
X143586200Y-107348400D01*
X149606000Y-108466000D02*
X149606000Y-108936600D01*
X149326600Y-108186600D02*
X149606000Y-108466000D01*
X144424400Y-108186600D02*
X149326600Y-108186600D01*
X143586200Y-107348400D02*
X144424400Y-108186600D01*
X149606000Y-108936600D02*
X149416200Y-108936600D01*
X149606000Y-108936600D02*
X149606000Y-109202600D01*
X149606000Y-109202600D02*
X149341600Y-109467000D01*
X149341600Y-109467000D02*
X149341600Y-111010400D01*
X148793200Y-95486600D02*
X148785580Y-95494220D01*
X148785580Y-95494220D02*
X148785580Y-97061400D01*
X150876000Y-109405800D02*
X150876000Y-108936600D01*
X151460200Y-109990000D02*
X150876000Y-109405800D01*
X150876000Y-108936600D02*
X150876000Y-109151800D01*
X150876000Y-109151800D02*
X149991600Y-110036200D01*
X149991600Y-110036200D02*
X149991600Y-111010400D01*
X151180800Y-102624000D02*
X151180800Y-102395400D01*
X151909780Y-103352980D02*
X151180800Y-102624000D01*
X152676860Y-103352980D02*
X151909780Y-103352980D01*
D30*
X138226800Y-120368400D02*
X138211600Y-120368400D01*
X138211600Y-120368400D02*
X136474200Y-122105800D01*
X136474200Y-122105800D02*
X136474200Y-122418400D01*
X140360400Y-120122060D02*
X138473140Y-120122060D01*
X138473140Y-120122060D02*
X138226800Y-120368400D01*
X143129000Y-120071260D02*
X140411200Y-120071260D01*
X140411200Y-120071260D02*
X140360400Y-120122060D01*
X146970000Y-122468980D02*
X145526720Y-122468980D01*
X145526720Y-122468980D02*
X143129000Y-120071260D01*
D31*
X148361400Y-108936600D02*
X148361400Y-109329600D01*
X148691600Y-109659800D02*
X148691600Y-111010400D01*
X148361400Y-109329600D02*
X148691600Y-109659800D01*
X148361400Y-108936600D02*
X147443800Y-108936600D01*
X147443800Y-108936600D02*
X146822200Y-109558200D01*
X146822200Y-109558200D02*
X146927000Y-109558200D01*
X147187920Y-97061400D02*
X147187920Y-98402520D01*
X148259800Y-98737800D02*
X147924520Y-98402520D01*
X147924520Y-98402520D02*
X147187920Y-98402520D01*
X148691600Y-117910400D02*
X148691600Y-116492400D01*
X148691600Y-116492400D02*
X148488400Y-116289200D01*
X154355800Y-124036200D02*
X160070800Y-124036200D01*
X152969480Y-122649880D02*
X154355800Y-124036200D01*
X159994600Y-118245000D02*
X157759400Y-118245000D01*
X160959800Y-119210200D02*
X159994600Y-118245000D01*
X160959800Y-123147200D02*
X160959800Y-119210200D01*
X160070800Y-124036200D02*
X160959800Y-123147200D01*
X151917400Y-106129200D02*
X151432260Y-105644060D01*
X151432260Y-105644060D02*
X151185880Y-105644060D01*
X152969480Y-122468980D02*
X152969480Y-122649880D01*
X148785580Y-105644060D02*
X148785580Y-106467020D01*
X148361400Y-106891200D02*
X148361400Y-107436600D01*
X148785580Y-106467020D02*
X148361400Y-106891200D01*
X144260000Y-114587400D02*
X144551400Y-114587400D01*
X148717000Y-115349400D02*
X149341600Y-115974000D01*
X145313400Y-115349400D02*
X148717000Y-115349400D01*
X144551400Y-114587400D02*
X145313400Y-115349400D01*
X149341600Y-115974000D02*
X149341600Y-117910400D01*
X146481800Y-114485800D02*
X147243800Y-114485800D01*
X147243800Y-114485800D02*
X147269200Y-114460400D01*
X147599400Y-116594000D02*
X148041600Y-117036200D01*
X148041600Y-117036200D02*
X148041600Y-117910400D01*
X147497800Y-116162200D02*
X147599400Y-116263800D01*
X147599400Y-116263800D02*
X147599400Y-116594000D01*
X144260000Y-112885600D02*
X144260000Y-113000600D01*
X144260000Y-113000600D02*
X145745200Y-114485800D01*
X151714200Y-112911000D02*
X153123200Y-112911000D01*
X150139400Y-114485800D02*
X151714200Y-112911000D01*
X145745200Y-114485800D02*
X146481800Y-114485800D01*
X146481800Y-114485800D02*
X150139400Y-114485800D01*
X144260000Y-112885600D02*
X144348200Y-112885600D01*
X153174000Y-114460400D02*
X151130000Y-114460400D01*
X149991600Y-115598800D02*
X149991600Y-117910400D01*
X151130000Y-114460400D02*
X149991600Y-115598800D01*
X154674000Y-114460400D02*
X154889200Y-114460400D01*
X154889200Y-114460400D02*
X155702000Y-113647600D01*
X155702000Y-113647600D02*
X155702000Y-112885600D01*
X155702000Y-112885600D02*
X156641800Y-111945800D01*
X162229800Y-105037000D02*
X162229800Y-107577000D01*
X162229800Y-107577000D02*
X156591000Y-113215800D01*
X151307800Y-115679600D02*
X150774400Y-116213000D01*
X155575000Y-115679600D02*
X151307800Y-115679600D01*
X156591000Y-114663600D02*
X155575000Y-115679600D01*
X156591000Y-113215800D02*
X156591000Y-114663600D01*
X162229800Y-105037000D02*
X162229800Y-107526200D01*
X154623200Y-112911000D02*
X154623200Y-112643600D01*
X154623200Y-112643600D02*
X162229800Y-105037000D01*
X142760000Y-114587400D02*
X142367000Y-114587400D01*
X141071600Y-112403000D02*
X140335000Y-111666400D01*
X141071600Y-113292000D02*
X141071600Y-112403000D01*
X142367000Y-114587400D02*
X141071600Y-113292000D01*
X145897600Y-116111400D02*
X146456400Y-116111400D01*
X134569200Y-105087800D02*
X134569200Y-107246800D01*
X134569200Y-107246800D02*
X140411200Y-113088800D01*
X142316200Y-116111400D02*
X145897600Y-116111400D01*
X145897600Y-116111400D02*
X145948400Y-116111400D01*
X140411200Y-114206400D02*
X142316200Y-116111400D01*
X140411200Y-113088800D02*
X140411200Y-114206400D01*
X134569200Y-105087800D02*
X134569200Y-107221400D01*
X134569200Y-105087800D02*
X134962200Y-105087800D01*
X134962200Y-105087800D02*
X142760000Y-112885600D01*
X148041600Y-111010400D02*
X148041600Y-112113200D01*
X148041600Y-112113200D02*
X147574000Y-112580800D01*
D30*
G36*
X132748200Y-118100400D02*
X132754383Y-118163463D01*
X132759903Y-118226554D01*
X132760909Y-118230017D01*
X132761261Y-118233606D01*
X132779583Y-118294291D01*
X132797245Y-118355084D01*
X132798902Y-118358282D01*
X132799946Y-118361738D01*
X132829677Y-118417653D01*
X132858839Y-118473914D01*
X132861093Y-118476737D01*
X132862783Y-118479916D01*
X132902797Y-118528978D01*
X132942343Y-118578516D01*
X132947292Y-118583535D01*
X132947376Y-118583638D01*
X132947472Y-118583717D01*
X132949066Y-118585334D01*
X135067066Y-120703334D01*
X135116049Y-120743569D01*
X135164546Y-120784263D01*
X135167705Y-120786000D01*
X135170492Y-120788289D01*
X135226356Y-120818243D01*
X135281835Y-120848743D01*
X135285269Y-120849832D01*
X135288450Y-120851538D01*
X135349036Y-120870061D01*
X135409414Y-120889214D01*
X135413000Y-120889616D01*
X135416447Y-120890670D01*
X135479470Y-120897072D01*
X135494630Y-120898772D01*
X135494994Y-120903342D01*
X135539610Y-121047412D01*
X135622596Y-121173349D01*
X135737383Y-121271181D01*
X135843281Y-121318916D01*
X135795188Y-121333810D01*
X135669251Y-121416796D01*
X135571419Y-121531583D01*
X135509440Y-121669080D01*
X135488220Y-121818400D01*
X135488220Y-123018400D01*
X135494994Y-123103342D01*
X135539610Y-123247412D01*
X135622596Y-123373349D01*
X135737383Y-123471181D01*
X135874880Y-123533160D01*
X136024200Y-123554380D01*
X136924200Y-123554380D01*
X137009142Y-123547606D01*
X137153212Y-123502990D01*
X137279149Y-123420004D01*
X137376981Y-123305217D01*
X137427408Y-123193347D01*
X137437481Y-123208422D01*
X137511777Y-123282719D01*
X137599140Y-123341093D01*
X137696213Y-123381302D01*
X137799264Y-123401800D01*
X138055350Y-123401800D01*
X138188700Y-123268450D01*
X138188700Y-122306500D01*
X138168700Y-122306500D01*
X138168700Y-122230300D01*
X138188700Y-122230300D01*
X138188700Y-122210300D01*
X138264900Y-122210300D01*
X138264900Y-122230300D01*
X138284900Y-122230300D01*
X138284900Y-122306500D01*
X138264900Y-122306500D01*
X138264900Y-123268450D01*
X138398250Y-123401800D01*
X138654336Y-123401800D01*
X138757387Y-123381302D01*
X138854460Y-123341093D01*
X138941823Y-123282719D01*
X139016119Y-123208422D01*
X139028170Y-123190386D01*
X139028170Y-123673446D01*
X139048668Y-123776497D01*
X139088877Y-123873570D01*
X139147251Y-123960933D01*
X139221548Y-124035229D01*
X139308911Y-124093603D01*
X139405983Y-124133812D01*
X139509035Y-124154310D01*
X140188950Y-124154310D01*
X140322300Y-124020960D01*
X140322300Y-122959240D01*
X140398500Y-122959240D01*
X140398500Y-124020960D01*
X140531850Y-124154310D01*
X141211765Y-124154310D01*
X141314817Y-124133812D01*
X141411889Y-124093603D01*
X141499252Y-124035229D01*
X141573549Y-123960933D01*
X141631923Y-123873570D01*
X141672132Y-123776497D01*
X141692630Y-123673446D01*
X141692630Y-123092590D01*
X141641830Y-123041790D01*
X141796770Y-123041790D01*
X141796770Y-123622646D01*
X141817268Y-123725697D01*
X141857477Y-123822770D01*
X141915851Y-123910133D01*
X141990148Y-123984429D01*
X142077511Y-124042803D01*
X142174583Y-124083012D01*
X142277635Y-124103510D01*
X142957550Y-124103510D01*
X143090900Y-123970160D01*
X143090900Y-122908440D01*
X143167100Y-122908440D01*
X143167100Y-123970160D01*
X143300450Y-124103510D01*
X143980365Y-124103510D01*
X144083417Y-124083012D01*
X144180489Y-124042803D01*
X144267852Y-123984429D01*
X144342149Y-123910133D01*
X144400523Y-123822770D01*
X144440732Y-123725697D01*
X144461230Y-123622646D01*
X144461230Y-123041790D01*
X144327880Y-122908440D01*
X143167100Y-122908440D01*
X143090900Y-122908440D01*
X141930120Y-122908440D01*
X141796770Y-123041790D01*
X141641830Y-123041790D01*
X141559280Y-122959240D01*
X140398500Y-122959240D01*
X140322300Y-122959240D01*
X140302300Y-122959240D01*
X140302300Y-122883040D01*
X140322300Y-122883040D01*
X140322300Y-121821320D01*
X140398500Y-121821320D01*
X140398500Y-122883040D01*
X141559280Y-122883040D01*
X141692630Y-122749690D01*
X141692630Y-122168834D01*
X141682526Y-122118034D01*
X141796770Y-122118034D01*
X141796770Y-122698890D01*
X141930120Y-122832240D01*
X143090900Y-122832240D01*
X143090900Y-121770520D01*
X142957550Y-121637170D01*
X142277635Y-121637170D01*
X142174583Y-121657668D01*
X142077511Y-121697877D01*
X141990148Y-121756251D01*
X141915851Y-121830547D01*
X141857477Y-121917910D01*
X141817268Y-122014983D01*
X141796770Y-122118034D01*
X141682526Y-122118034D01*
X141672132Y-122065783D01*
X141631923Y-121968710D01*
X141573549Y-121881347D01*
X141499252Y-121807051D01*
X141411889Y-121748677D01*
X141314817Y-121708468D01*
X141211765Y-121687970D01*
X140531850Y-121687970D01*
X140398500Y-121821320D01*
X140322300Y-121821320D01*
X140188950Y-121687970D01*
X139509035Y-121687970D01*
X139405983Y-121708468D01*
X139308911Y-121748677D01*
X139221548Y-121807051D01*
X139147251Y-121881347D01*
X139135200Y-121899383D01*
X139135200Y-121615865D01*
X139114702Y-121512813D01*
X139074493Y-121415741D01*
X139016119Y-121328378D01*
X139003220Y-121315479D01*
X139054581Y-121255217D01*
X139116560Y-121117720D01*
X139117356Y-121112116D01*
X139159966Y-121176779D01*
X139274753Y-121274611D01*
X139412250Y-121336590D01*
X139561570Y-121357810D01*
X141159230Y-121357810D01*
X141244172Y-121351036D01*
X141388242Y-121306420D01*
X141514179Y-121223434D01*
X141612011Y-121108647D01*
X141673990Y-120971150D01*
X141695210Y-120821830D01*
X141695210Y-120757060D01*
X141794190Y-120757060D01*
X141794190Y-120771030D01*
X141800964Y-120855972D01*
X141845580Y-121000042D01*
X141928566Y-121125979D01*
X142043353Y-121223811D01*
X142180850Y-121285790D01*
X142330170Y-121307010D01*
X143394882Y-121307010D01*
X143725042Y-121637170D01*
X143300450Y-121637170D01*
X143167100Y-121770520D01*
X143167100Y-122832240D01*
X144327880Y-122832240D01*
X144461230Y-122698890D01*
X144461230Y-122373358D01*
X145041786Y-122953914D01*
X145090769Y-122994149D01*
X145139266Y-123034843D01*
X145142425Y-123036580D01*
X145145212Y-123038869D01*
X145201076Y-123068823D01*
X145256555Y-123099323D01*
X145259989Y-123100412D01*
X145263170Y-123102118D01*
X145323756Y-123120641D01*
X145384134Y-123139794D01*
X145387720Y-123140196D01*
X145391167Y-123141250D01*
X145454190Y-123147652D01*
X145517145Y-123154713D01*
X145524191Y-123154762D01*
X145524326Y-123154776D01*
X145524452Y-123154764D01*
X145526720Y-123154780D01*
X146000741Y-123154780D01*
X146035901Y-123209338D01*
X146197494Y-123376672D01*
X146388511Y-123509432D01*
X146601677Y-123602562D01*
X146828872Y-123652514D01*
X147061443Y-123657386D01*
X147290531Y-123616992D01*
X147507410Y-123532870D01*
X147703819Y-123408225D01*
X147872277Y-123247804D01*
X147874990Y-123243957D01*
X148247885Y-123243957D01*
X148299569Y-123455165D01*
X148504827Y-123566811D01*
X148727922Y-123636269D01*
X148960280Y-123660869D01*
X149192974Y-123639664D01*
X149417059Y-123573470D01*
X149623924Y-123464832D01*
X149638391Y-123455165D01*
X149690075Y-123243957D01*
X148968980Y-122522862D01*
X148247885Y-123243957D01*
X147874990Y-123243957D01*
X147967383Y-123112984D01*
X147973128Y-123123924D01*
X147982795Y-123138391D01*
X148194003Y-123190075D01*
X148915098Y-122468980D01*
X148194003Y-121747885D01*
X147982795Y-121799569D01*
X147967774Y-121827185D01*
X147893671Y-121715652D01*
X147729758Y-121550591D01*
X147609214Y-121469283D01*
X147703819Y-121409245D01*
X147872277Y-121248824D01*
X147970206Y-121110002D01*
X148034881Y-121210358D01*
X148196474Y-121377692D01*
X148325287Y-121467219D01*
X148314036Y-121473128D01*
X148299569Y-121482795D01*
X148247885Y-121694003D01*
X148968980Y-122415098D01*
X149690075Y-121694003D01*
X149638391Y-121482795D01*
X149610666Y-121467714D01*
X149702799Y-121409245D01*
X149871257Y-121248824D01*
X149969186Y-121110002D01*
X150033861Y-121210358D01*
X150195454Y-121377692D01*
X150328226Y-121469971D01*
X150221099Y-121540072D01*
X150054897Y-121702829D01*
X149970874Y-121825541D01*
X149964832Y-121814036D01*
X149955165Y-121799569D01*
X149743957Y-121747885D01*
X149022862Y-122468980D01*
X149743957Y-123190075D01*
X149955165Y-123138391D01*
X149970257Y-123110644D01*
X150033861Y-123209338D01*
X150195454Y-123376672D01*
X150386471Y-123509432D01*
X150599637Y-123602562D01*
X150826832Y-123652514D01*
X151059403Y-123657386D01*
X151288491Y-123616992D01*
X151505370Y-123532870D01*
X151701779Y-123408225D01*
X151870237Y-123247804D01*
X151969493Y-123107100D01*
X152035381Y-123209338D01*
X152196974Y-123376672D01*
X152387991Y-123509432D01*
X152601157Y-123602562D01*
X152828352Y-123652514D01*
X153042657Y-123657003D01*
X153888827Y-124503174D01*
X153935972Y-124541899D01*
X153982696Y-124581105D01*
X153985738Y-124582777D01*
X153988422Y-124584982D01*
X154042180Y-124613807D01*
X154095641Y-124643197D01*
X154098952Y-124644247D01*
X154102012Y-124645888D01*
X154160309Y-124663711D01*
X154218495Y-124682169D01*
X154221950Y-124682557D01*
X154225268Y-124683571D01*
X154285917Y-124689732D01*
X154346579Y-124696536D01*
X154353367Y-124696583D01*
X154353494Y-124696596D01*
X154353612Y-124696585D01*
X154355800Y-124696600D01*
X160070800Y-124696600D01*
X160131534Y-124690645D01*
X160192282Y-124685330D01*
X160195614Y-124684362D01*
X160199072Y-124684023D01*
X160257476Y-124666390D01*
X160316052Y-124649372D01*
X160319137Y-124647773D01*
X160322459Y-124646770D01*
X160376296Y-124618145D01*
X160430480Y-124590058D01*
X160433195Y-124587891D01*
X160436260Y-124586261D01*
X160483518Y-124547718D01*
X160531208Y-124509648D01*
X160536038Y-124504884D01*
X160536140Y-124504801D01*
X160536218Y-124504707D01*
X160537773Y-124503173D01*
X161426773Y-123614173D01*
X161465474Y-123567058D01*
X161504705Y-123520304D01*
X161506377Y-123517262D01*
X161508582Y-123514578D01*
X161537407Y-123460820D01*
X161566797Y-123407359D01*
X161567847Y-123404048D01*
X161569488Y-123400988D01*
X161587315Y-123342679D01*
X161605769Y-123284505D01*
X161606156Y-123281052D01*
X161607171Y-123277733D01*
X161613332Y-123217078D01*
X161620136Y-123156421D01*
X161620183Y-123149633D01*
X161620196Y-123149506D01*
X161620185Y-123149388D01*
X161620200Y-123147200D01*
X161620200Y-119210200D01*
X161614245Y-119149466D01*
X161608930Y-119088718D01*
X161607962Y-119085386D01*
X161607623Y-119081928D01*
X161589985Y-119023510D01*
X161572972Y-118964949D01*
X161571374Y-118961866D01*
X161570370Y-118958541D01*
X161541735Y-118904686D01*
X161513658Y-118850520D01*
X161511491Y-118847805D01*
X161509861Y-118844740D01*
X161471318Y-118797482D01*
X161433248Y-118749792D01*
X161428484Y-118744962D01*
X161428401Y-118744860D01*
X161428307Y-118744782D01*
X161426773Y-118743227D01*
X160461573Y-117778027D01*
X160414458Y-117739326D01*
X160367704Y-117700095D01*
X160364662Y-117698423D01*
X160361978Y-117696218D01*
X160308220Y-117667393D01*
X160254759Y-117638003D01*
X160251448Y-117636953D01*
X160248388Y-117635312D01*
X160190079Y-117617485D01*
X160131905Y-117599031D01*
X160128452Y-117598644D01*
X160125133Y-117597629D01*
X160064478Y-117591468D01*
X160003821Y-117584664D01*
X159997033Y-117584617D01*
X159996906Y-117584604D01*
X159996788Y-117584615D01*
X159994600Y-117584600D01*
X158338619Y-117584600D01*
X158320677Y-117566532D01*
X158178206Y-117470434D01*
X158019783Y-117403839D01*
X157851441Y-117369284D01*
X157679594Y-117368084D01*
X157510787Y-117400286D01*
X157351449Y-117464662D01*
X157207650Y-117558762D01*
X157084867Y-117679000D01*
X156987777Y-117820797D01*
X156920077Y-117978751D01*
X156884348Y-118146847D01*
X156881948Y-118318682D01*
X156912971Y-118487710D01*
X156976233Y-118647493D01*
X157069327Y-118791945D01*
X157188705Y-118915565D01*
X157329820Y-119013643D01*
X157487298Y-119082443D01*
X157655141Y-119119346D01*
X157826954Y-119122945D01*
X157996195Y-119093103D01*
X158156416Y-119030958D01*
X158301515Y-118938875D01*
X158336667Y-118905400D01*
X159721054Y-118905400D01*
X160299400Y-119483746D01*
X160299400Y-122873654D01*
X159797254Y-123375800D01*
X159736828Y-123375800D01*
X159871237Y-123247804D01*
X160005328Y-123057719D01*
X160099943Y-122845208D01*
X160151480Y-122618367D01*
X160155190Y-122352669D01*
X160110007Y-122124478D01*
X160021362Y-121909408D01*
X159892631Y-121715652D01*
X159728718Y-121550591D01*
X159608174Y-121469283D01*
X159702779Y-121409245D01*
X159871237Y-121248824D01*
X160005328Y-121058739D01*
X160099943Y-120846228D01*
X160151480Y-120619387D01*
X160155190Y-120353689D01*
X160110007Y-120125498D01*
X160021362Y-119910428D01*
X159892631Y-119716672D01*
X159728718Y-119551611D01*
X159535866Y-119421530D01*
X159321420Y-119331386D01*
X159093549Y-119284610D01*
X158860933Y-119282986D01*
X158632432Y-119326575D01*
X158416749Y-119413717D01*
X158222099Y-119541092D01*
X158055897Y-119703849D01*
X157969228Y-119830425D01*
X157893651Y-119716672D01*
X157729738Y-119551611D01*
X157536886Y-119421530D01*
X157322440Y-119331386D01*
X157094569Y-119284610D01*
X156861953Y-119282986D01*
X156633452Y-119326575D01*
X156417769Y-119413717D01*
X156223119Y-119541092D01*
X156056917Y-119703849D01*
X155968959Y-119832308D01*
X155892131Y-119716672D01*
X155728218Y-119551611D01*
X155535366Y-119421530D01*
X155320920Y-119331386D01*
X155093049Y-119284610D01*
X154860433Y-119282986D01*
X154631932Y-119326575D01*
X154416249Y-119413717D01*
X154221599Y-119541092D01*
X154055397Y-119703849D01*
X153968728Y-119830425D01*
X153893151Y-119716672D01*
X153729238Y-119551611D01*
X153536386Y-119421530D01*
X153321940Y-119331386D01*
X153094069Y-119284610D01*
X152861453Y-119282986D01*
X152632952Y-119326575D01*
X152417269Y-119413717D01*
X152222619Y-119541092D01*
X152056417Y-119703849D01*
X151968459Y-119832308D01*
X151891631Y-119716672D01*
X151834886Y-119659529D01*
X151877316Y-119625657D01*
X151882335Y-119620708D01*
X151882438Y-119620624D01*
X151882517Y-119620528D01*
X151884134Y-119618934D01*
X152524888Y-118978180D01*
X153066000Y-118978180D01*
X153150942Y-118971406D01*
X153295012Y-118926790D01*
X153416316Y-118846857D01*
X153425978Y-118856519D01*
X153513341Y-118914893D01*
X153610413Y-118955102D01*
X153713465Y-118975600D01*
X154194550Y-118975600D01*
X154327900Y-118842250D01*
X154327900Y-118105300D01*
X154404100Y-118105300D01*
X154404100Y-118842250D01*
X154537450Y-118975600D01*
X155018535Y-118975600D01*
X155121587Y-118955102D01*
X155218659Y-118914893D01*
X155306022Y-118856519D01*
X155380319Y-118782223D01*
X155438693Y-118694860D01*
X155478902Y-118597787D01*
X155499400Y-118494736D01*
X155499400Y-118238650D01*
X155366050Y-118105300D01*
X154404100Y-118105300D01*
X154327900Y-118105300D01*
X154307900Y-118105300D01*
X154307900Y-118029100D01*
X154327900Y-118029100D01*
X154327900Y-118009100D01*
X154404100Y-118009100D01*
X154404100Y-118029100D01*
X155366050Y-118029100D01*
X155499400Y-117895750D01*
X155499400Y-117639664D01*
X155478902Y-117536613D01*
X155438693Y-117439540D01*
X155382873Y-117356000D01*
X160223200Y-117356000D01*
X160286263Y-117349817D01*
X160349354Y-117344297D01*
X160352817Y-117343291D01*
X160356406Y-117342939D01*
X160417091Y-117324617D01*
X160477884Y-117306955D01*
X160481082Y-117305298D01*
X160484538Y-117304254D01*
X160540453Y-117274523D01*
X160596714Y-117245361D01*
X160599537Y-117243107D01*
X160602716Y-117241417D01*
X160651778Y-117201403D01*
X160701316Y-117161857D01*
X160706335Y-117156908D01*
X160706438Y-117156824D01*
X160706517Y-117156728D01*
X160708134Y-117155134D01*
X161370868Y-116492400D01*
X169392700Y-116492400D01*
X169392700Y-118319391D01*
X167528299Y-121115993D01*
X164613493Y-124030799D01*
X161816892Y-125895200D01*
X135185309Y-125895200D01*
X132388707Y-124030799D01*
X128501117Y-120143209D01*
X127609500Y-118359975D01*
X127609500Y-116492400D01*
X132748200Y-116492400D01*
X132748200Y-118100400D01*
X132748200Y-118100400D01*
G37*
X132748200Y-118100400D02*
X132754383Y-118163463D01*
X132759903Y-118226554D01*
X132760909Y-118230017D01*
X132761261Y-118233606D01*
X132779583Y-118294291D01*
X132797245Y-118355084D01*
X132798902Y-118358282D01*
X132799946Y-118361738D01*
X132829677Y-118417653D01*
X132858839Y-118473914D01*
X132861093Y-118476737D01*
X132862783Y-118479916D01*
X132902797Y-118528978D01*
X132942343Y-118578516D01*
X132947292Y-118583535D01*
X132947376Y-118583638D01*
X132947472Y-118583717D01*
X132949066Y-118585334D01*
X135067066Y-120703334D01*
X135116049Y-120743569D01*
X135164546Y-120784263D01*
X135167705Y-120786000D01*
X135170492Y-120788289D01*
X135226356Y-120818243D01*
X135281835Y-120848743D01*
X135285269Y-120849832D01*
X135288450Y-120851538D01*
X135349036Y-120870061D01*
X135409414Y-120889214D01*
X135413000Y-120889616D01*
X135416447Y-120890670D01*
X135479470Y-120897072D01*
X135494630Y-120898772D01*
X135494994Y-120903342D01*
X135539610Y-121047412D01*
X135622596Y-121173349D01*
X135737383Y-121271181D01*
X135843281Y-121318916D01*
X135795188Y-121333810D01*
X135669251Y-121416796D01*
X135571419Y-121531583D01*
X135509440Y-121669080D01*
X135488220Y-121818400D01*
X135488220Y-123018400D01*
X135494994Y-123103342D01*
X135539610Y-123247412D01*
X135622596Y-123373349D01*
X135737383Y-123471181D01*
X135874880Y-123533160D01*
X136024200Y-123554380D01*
X136924200Y-123554380D01*
X137009142Y-123547606D01*
X137153212Y-123502990D01*
X137279149Y-123420004D01*
X137376981Y-123305217D01*
X137427408Y-123193347D01*
X137437481Y-123208422D01*
X137511777Y-123282719D01*
X137599140Y-123341093D01*
X137696213Y-123381302D01*
X137799264Y-123401800D01*
X138055350Y-123401800D01*
X138188700Y-123268450D01*
X138188700Y-122306500D01*
X138168700Y-122306500D01*
X138168700Y-122230300D01*
X138188700Y-122230300D01*
X138188700Y-122210300D01*
X138264900Y-122210300D01*
X138264900Y-122230300D01*
X138284900Y-122230300D01*
X138284900Y-122306500D01*
X138264900Y-122306500D01*
X138264900Y-123268450D01*
X138398250Y-123401800D01*
X138654336Y-123401800D01*
X138757387Y-123381302D01*
X138854460Y-123341093D01*
X138941823Y-123282719D01*
X139016119Y-123208422D01*
X139028170Y-123190386D01*
X139028170Y-123673446D01*
X139048668Y-123776497D01*
X139088877Y-123873570D01*
X139147251Y-123960933D01*
X139221548Y-124035229D01*
X139308911Y-124093603D01*
X139405983Y-124133812D01*
X139509035Y-124154310D01*
X140188950Y-124154310D01*
X140322300Y-124020960D01*
X140322300Y-122959240D01*
X140398500Y-122959240D01*
X140398500Y-124020960D01*
X140531850Y-124154310D01*
X141211765Y-124154310D01*
X141314817Y-124133812D01*
X141411889Y-124093603D01*
X141499252Y-124035229D01*
X141573549Y-123960933D01*
X141631923Y-123873570D01*
X141672132Y-123776497D01*
X141692630Y-123673446D01*
X141692630Y-123092590D01*
X141641830Y-123041790D01*
X141796770Y-123041790D01*
X141796770Y-123622646D01*
X141817268Y-123725697D01*
X141857477Y-123822770D01*
X141915851Y-123910133D01*
X141990148Y-123984429D01*
X142077511Y-124042803D01*
X142174583Y-124083012D01*
X142277635Y-124103510D01*
X142957550Y-124103510D01*
X143090900Y-123970160D01*
X143090900Y-122908440D01*
X143167100Y-122908440D01*
X143167100Y-123970160D01*
X143300450Y-124103510D01*
X143980365Y-124103510D01*
X144083417Y-124083012D01*
X144180489Y-124042803D01*
X144267852Y-123984429D01*
X144342149Y-123910133D01*
X144400523Y-123822770D01*
X144440732Y-123725697D01*
X144461230Y-123622646D01*
X144461230Y-123041790D01*
X144327880Y-122908440D01*
X143167100Y-122908440D01*
X143090900Y-122908440D01*
X141930120Y-122908440D01*
X141796770Y-123041790D01*
X141641830Y-123041790D01*
X141559280Y-122959240D01*
X140398500Y-122959240D01*
X140322300Y-122959240D01*
X140302300Y-122959240D01*
X140302300Y-122883040D01*
X140322300Y-122883040D01*
X140322300Y-121821320D01*
X140398500Y-121821320D01*
X140398500Y-122883040D01*
X141559280Y-122883040D01*
X141692630Y-122749690D01*
X141692630Y-122168834D01*
X141682526Y-122118034D01*
X141796770Y-122118034D01*
X141796770Y-122698890D01*
X141930120Y-122832240D01*
X143090900Y-122832240D01*
X143090900Y-121770520D01*
X142957550Y-121637170D01*
X142277635Y-121637170D01*
X142174583Y-121657668D01*
X142077511Y-121697877D01*
X141990148Y-121756251D01*
X141915851Y-121830547D01*
X141857477Y-121917910D01*
X141817268Y-122014983D01*
X141796770Y-122118034D01*
X141682526Y-122118034D01*
X141672132Y-122065783D01*
X141631923Y-121968710D01*
X141573549Y-121881347D01*
X141499252Y-121807051D01*
X141411889Y-121748677D01*
X141314817Y-121708468D01*
X141211765Y-121687970D01*
X140531850Y-121687970D01*
X140398500Y-121821320D01*
X140322300Y-121821320D01*
X140188950Y-121687970D01*
X139509035Y-121687970D01*
X139405983Y-121708468D01*
X139308911Y-121748677D01*
X139221548Y-121807051D01*
X139147251Y-121881347D01*
X139135200Y-121899383D01*
X139135200Y-121615865D01*
X139114702Y-121512813D01*
X139074493Y-121415741D01*
X139016119Y-121328378D01*
X139003220Y-121315479D01*
X139054581Y-121255217D01*
X139116560Y-121117720D01*
X139117356Y-121112116D01*
X139159966Y-121176779D01*
X139274753Y-121274611D01*
X139412250Y-121336590D01*
X139561570Y-121357810D01*
X141159230Y-121357810D01*
X141244172Y-121351036D01*
X141388242Y-121306420D01*
X141514179Y-121223434D01*
X141612011Y-121108647D01*
X141673990Y-120971150D01*
X141695210Y-120821830D01*
X141695210Y-120757060D01*
X141794190Y-120757060D01*
X141794190Y-120771030D01*
X141800964Y-120855972D01*
X141845580Y-121000042D01*
X141928566Y-121125979D01*
X142043353Y-121223811D01*
X142180850Y-121285790D01*
X142330170Y-121307010D01*
X143394882Y-121307010D01*
X143725042Y-121637170D01*
X143300450Y-121637170D01*
X143167100Y-121770520D01*
X143167100Y-122832240D01*
X144327880Y-122832240D01*
X144461230Y-122698890D01*
X144461230Y-122373358D01*
X145041786Y-122953914D01*
X145090769Y-122994149D01*
X145139266Y-123034843D01*
X145142425Y-123036580D01*
X145145212Y-123038869D01*
X145201076Y-123068823D01*
X145256555Y-123099323D01*
X145259989Y-123100412D01*
X145263170Y-123102118D01*
X145323756Y-123120641D01*
X145384134Y-123139794D01*
X145387720Y-123140196D01*
X145391167Y-123141250D01*
X145454190Y-123147652D01*
X145517145Y-123154713D01*
X145524191Y-123154762D01*
X145524326Y-123154776D01*
X145524452Y-123154764D01*
X145526720Y-123154780D01*
X146000741Y-123154780D01*
X146035901Y-123209338D01*
X146197494Y-123376672D01*
X146388511Y-123509432D01*
X146601677Y-123602562D01*
X146828872Y-123652514D01*
X147061443Y-123657386D01*
X147290531Y-123616992D01*
X147507410Y-123532870D01*
X147703819Y-123408225D01*
X147872277Y-123247804D01*
X147874990Y-123243957D01*
X148247885Y-123243957D01*
X148299569Y-123455165D01*
X148504827Y-123566811D01*
X148727922Y-123636269D01*
X148960280Y-123660869D01*
X149192974Y-123639664D01*
X149417059Y-123573470D01*
X149623924Y-123464832D01*
X149638391Y-123455165D01*
X149690075Y-123243957D01*
X148968980Y-122522862D01*
X148247885Y-123243957D01*
X147874990Y-123243957D01*
X147967383Y-123112984D01*
X147973128Y-123123924D01*
X147982795Y-123138391D01*
X148194003Y-123190075D01*
X148915098Y-122468980D01*
X148194003Y-121747885D01*
X147982795Y-121799569D01*
X147967774Y-121827185D01*
X147893671Y-121715652D01*
X147729758Y-121550591D01*
X147609214Y-121469283D01*
X147703819Y-121409245D01*
X147872277Y-121248824D01*
X147970206Y-121110002D01*
X148034881Y-121210358D01*
X148196474Y-121377692D01*
X148325287Y-121467219D01*
X148314036Y-121473128D01*
X148299569Y-121482795D01*
X148247885Y-121694003D01*
X148968980Y-122415098D01*
X149690075Y-121694003D01*
X149638391Y-121482795D01*
X149610666Y-121467714D01*
X149702799Y-121409245D01*
X149871257Y-121248824D01*
X149969186Y-121110002D01*
X150033861Y-121210358D01*
X150195454Y-121377692D01*
X150328226Y-121469971D01*
X150221099Y-121540072D01*
X150054897Y-121702829D01*
X149970874Y-121825541D01*
X149964832Y-121814036D01*
X149955165Y-121799569D01*
X149743957Y-121747885D01*
X149022862Y-122468980D01*
X149743957Y-123190075D01*
X149955165Y-123138391D01*
X149970257Y-123110644D01*
X150033861Y-123209338D01*
X150195454Y-123376672D01*
X150386471Y-123509432D01*
X150599637Y-123602562D01*
X150826832Y-123652514D01*
X151059403Y-123657386D01*
X151288491Y-123616992D01*
X151505370Y-123532870D01*
X151701779Y-123408225D01*
X151870237Y-123247804D01*
X151969493Y-123107100D01*
X152035381Y-123209338D01*
X152196974Y-123376672D01*
X152387991Y-123509432D01*
X152601157Y-123602562D01*
X152828352Y-123652514D01*
X153042657Y-123657003D01*
X153888827Y-124503174D01*
X153935972Y-124541899D01*
X153982696Y-124581105D01*
X153985738Y-124582777D01*
X153988422Y-124584982D01*
X154042180Y-124613807D01*
X154095641Y-124643197D01*
X154098952Y-124644247D01*
X154102012Y-124645888D01*
X154160309Y-124663711D01*
X154218495Y-124682169D01*
X154221950Y-124682557D01*
X154225268Y-124683571D01*
X154285917Y-124689732D01*
X154346579Y-124696536D01*
X154353367Y-124696583D01*
X154353494Y-124696596D01*
X154353612Y-124696585D01*
X154355800Y-124696600D01*
X160070800Y-124696600D01*
X160131534Y-124690645D01*
X160192282Y-124685330D01*
X160195614Y-124684362D01*
X160199072Y-124684023D01*
X160257476Y-124666390D01*
X160316052Y-124649372D01*
X160319137Y-124647773D01*
X160322459Y-124646770D01*
X160376296Y-124618145D01*
X160430480Y-124590058D01*
X160433195Y-124587891D01*
X160436260Y-124586261D01*
X160483518Y-124547718D01*
X160531208Y-124509648D01*
X160536038Y-124504884D01*
X160536140Y-124504801D01*
X160536218Y-124504707D01*
X160537773Y-124503173D01*
X161426773Y-123614173D01*
X161465474Y-123567058D01*
X161504705Y-123520304D01*
X161506377Y-123517262D01*
X161508582Y-123514578D01*
X161537407Y-123460820D01*
X161566797Y-123407359D01*
X161567847Y-123404048D01*
X161569488Y-123400988D01*
X161587315Y-123342679D01*
X161605769Y-123284505D01*
X161606156Y-123281052D01*
X161607171Y-123277733D01*
X161613332Y-123217078D01*
X161620136Y-123156421D01*
X161620183Y-123149633D01*
X161620196Y-123149506D01*
X161620185Y-123149388D01*
X161620200Y-123147200D01*
X161620200Y-119210200D01*
X161614245Y-119149466D01*
X161608930Y-119088718D01*
X161607962Y-119085386D01*
X161607623Y-119081928D01*
X161589985Y-119023510D01*
X161572972Y-118964949D01*
X161571374Y-118961866D01*
X161570370Y-118958541D01*
X161541735Y-118904686D01*
X161513658Y-118850520D01*
X161511491Y-118847805D01*
X161509861Y-118844740D01*
X161471318Y-118797482D01*
X161433248Y-118749792D01*
X161428484Y-118744962D01*
X161428401Y-118744860D01*
X161428307Y-118744782D01*
X161426773Y-118743227D01*
X160461573Y-117778027D01*
X160414458Y-117739326D01*
X160367704Y-117700095D01*
X160364662Y-117698423D01*
X160361978Y-117696218D01*
X160308220Y-117667393D01*
X160254759Y-117638003D01*
X160251448Y-117636953D01*
X160248388Y-117635312D01*
X160190079Y-117617485D01*
X160131905Y-117599031D01*
X160128452Y-117598644D01*
X160125133Y-117597629D01*
X160064478Y-117591468D01*
X160003821Y-117584664D01*
X159997033Y-117584617D01*
X159996906Y-117584604D01*
X159996788Y-117584615D01*
X159994600Y-117584600D01*
X158338619Y-117584600D01*
X158320677Y-117566532D01*
X158178206Y-117470434D01*
X158019783Y-117403839D01*
X157851441Y-117369284D01*
X157679594Y-117368084D01*
X157510787Y-117400286D01*
X157351449Y-117464662D01*
X157207650Y-117558762D01*
X157084867Y-117679000D01*
X156987777Y-117820797D01*
X156920077Y-117978751D01*
X156884348Y-118146847D01*
X156881948Y-118318682D01*
X156912971Y-118487710D01*
X156976233Y-118647493D01*
X157069327Y-118791945D01*
X157188705Y-118915565D01*
X157329820Y-119013643D01*
X157487298Y-119082443D01*
X157655141Y-119119346D01*
X157826954Y-119122945D01*
X157996195Y-119093103D01*
X158156416Y-119030958D01*
X158301515Y-118938875D01*
X158336667Y-118905400D01*
X159721054Y-118905400D01*
X160299400Y-119483746D01*
X160299400Y-122873654D01*
X159797254Y-123375800D01*
X159736828Y-123375800D01*
X159871237Y-123247804D01*
X160005328Y-123057719D01*
X160099943Y-122845208D01*
X160151480Y-122618367D01*
X160155190Y-122352669D01*
X160110007Y-122124478D01*
X160021362Y-121909408D01*
X159892631Y-121715652D01*
X159728718Y-121550591D01*
X159608174Y-121469283D01*
X159702779Y-121409245D01*
X159871237Y-121248824D01*
X160005328Y-121058739D01*
X160099943Y-120846228D01*
X160151480Y-120619387D01*
X160155190Y-120353689D01*
X160110007Y-120125498D01*
X160021362Y-119910428D01*
X159892631Y-119716672D01*
X159728718Y-119551611D01*
X159535866Y-119421530D01*
X159321420Y-119331386D01*
X159093549Y-119284610D01*
X158860933Y-119282986D01*
X158632432Y-119326575D01*
X158416749Y-119413717D01*
X158222099Y-119541092D01*
X158055897Y-119703849D01*
X157969228Y-119830425D01*
X157893651Y-119716672D01*
X157729738Y-119551611D01*
X157536886Y-119421530D01*
X157322440Y-119331386D01*
X157094569Y-119284610D01*
X156861953Y-119282986D01*
X156633452Y-119326575D01*
X156417769Y-119413717D01*
X156223119Y-119541092D01*
X156056917Y-119703849D01*
X155968959Y-119832308D01*
X155892131Y-119716672D01*
X155728218Y-119551611D01*
X155535366Y-119421530D01*
X155320920Y-119331386D01*
X155093049Y-119284610D01*
X154860433Y-119282986D01*
X154631932Y-119326575D01*
X154416249Y-119413717D01*
X154221599Y-119541092D01*
X154055397Y-119703849D01*
X153968728Y-119830425D01*
X153893151Y-119716672D01*
X153729238Y-119551611D01*
X153536386Y-119421530D01*
X153321940Y-119331386D01*
X153094069Y-119284610D01*
X152861453Y-119282986D01*
X152632952Y-119326575D01*
X152417269Y-119413717D01*
X152222619Y-119541092D01*
X152056417Y-119703849D01*
X151968459Y-119832308D01*
X151891631Y-119716672D01*
X151834886Y-119659529D01*
X151877316Y-119625657D01*
X151882335Y-119620708D01*
X151882438Y-119620624D01*
X151882517Y-119620528D01*
X151884134Y-119618934D01*
X152524888Y-118978180D01*
X153066000Y-118978180D01*
X153150942Y-118971406D01*
X153295012Y-118926790D01*
X153416316Y-118846857D01*
X153425978Y-118856519D01*
X153513341Y-118914893D01*
X153610413Y-118955102D01*
X153713465Y-118975600D01*
X154194550Y-118975600D01*
X154327900Y-118842250D01*
X154327900Y-118105300D01*
X154404100Y-118105300D01*
X154404100Y-118842250D01*
X154537450Y-118975600D01*
X155018535Y-118975600D01*
X155121587Y-118955102D01*
X155218659Y-118914893D01*
X155306022Y-118856519D01*
X155380319Y-118782223D01*
X155438693Y-118694860D01*
X155478902Y-118597787D01*
X155499400Y-118494736D01*
X155499400Y-118238650D01*
X155366050Y-118105300D01*
X154404100Y-118105300D01*
X154327900Y-118105300D01*
X154307900Y-118105300D01*
X154307900Y-118029100D01*
X154327900Y-118029100D01*
X154327900Y-118009100D01*
X154404100Y-118009100D01*
X154404100Y-118029100D01*
X155366050Y-118029100D01*
X155499400Y-117895750D01*
X155499400Y-117639664D01*
X155478902Y-117536613D01*
X155438693Y-117439540D01*
X155382873Y-117356000D01*
X160223200Y-117356000D01*
X160286263Y-117349817D01*
X160349354Y-117344297D01*
X160352817Y-117343291D01*
X160356406Y-117342939D01*
X160417091Y-117324617D01*
X160477884Y-117306955D01*
X160481082Y-117305298D01*
X160484538Y-117304254D01*
X160540453Y-117274523D01*
X160596714Y-117245361D01*
X160599537Y-117243107D01*
X160602716Y-117241417D01*
X160651778Y-117201403D01*
X160701316Y-117161857D01*
X160706335Y-117156908D01*
X160706438Y-117156824D01*
X160706517Y-117156728D01*
X160708134Y-117155134D01*
X161370868Y-116492400D01*
X169392700Y-116492400D01*
X169392700Y-118319391D01*
X167528299Y-121115993D01*
X164613493Y-124030799D01*
X161816892Y-125895200D01*
X135185309Y-125895200D01*
X132388707Y-124030799D01*
X128501117Y-120143209D01*
X127609500Y-118359975D01*
X127609500Y-116492400D01*
X132748200Y-116492400D01*
X132748200Y-118100400D01*
G36*
X141849227Y-116578373D02*
X141896342Y-116617074D01*
X141943096Y-116656305D01*
X141946138Y-116657977D01*
X141948822Y-116660182D01*
X142002580Y-116689007D01*
X142056041Y-116718397D01*
X142059352Y-116719447D01*
X142062412Y-116721088D01*
X142120721Y-116738915D01*
X142178895Y-116757369D01*
X142182348Y-116757756D01*
X142185667Y-116758771D01*
X142246322Y-116764932D01*
X142306979Y-116771736D01*
X142313767Y-116771783D01*
X142313894Y-116771796D01*
X142314012Y-116771785D01*
X142316200Y-116771800D01*
X146456400Y-116771800D01*
X146584672Y-116759223D01*
X146708059Y-116721970D01*
X146788446Y-116679227D01*
X146807727Y-116709145D01*
X146870762Y-116774420D01*
X146541600Y-116774420D01*
X146456658Y-116781194D01*
X146312588Y-116825810D01*
X146186651Y-116908796D01*
X146088819Y-117023583D01*
X146026840Y-117161080D01*
X146005620Y-117310400D01*
X146005620Y-118448200D01*
X146003868Y-118448200D01*
X145798334Y-118242666D01*
X145749373Y-118202449D01*
X145700854Y-118161737D01*
X145697692Y-118159999D01*
X145694907Y-118157711D01*
X145639065Y-118127768D01*
X145583565Y-118097257D01*
X145580131Y-118096168D01*
X145576950Y-118094462D01*
X145516364Y-118075939D01*
X145455986Y-118056786D01*
X145452400Y-118056384D01*
X145448953Y-118055330D01*
X145385930Y-118048928D01*
X145322975Y-118041867D01*
X145315929Y-118041818D01*
X145315794Y-118041804D01*
X145315668Y-118041816D01*
X145313400Y-118041800D01*
X137642600Y-118041800D01*
X137579537Y-118047983D01*
X137516446Y-118053503D01*
X137512983Y-118054509D01*
X137509394Y-118054861D01*
X137448709Y-118073183D01*
X137387916Y-118090845D01*
X137384718Y-118092502D01*
X137381262Y-118093546D01*
X137325347Y-118123277D01*
X137269086Y-118152439D01*
X137266263Y-118154693D01*
X137263084Y-118156383D01*
X137214022Y-118196397D01*
X137164484Y-118235943D01*
X137159465Y-118240892D01*
X137159362Y-118240976D01*
X137159283Y-118241072D01*
X137157666Y-118242666D01*
X136317912Y-119082420D01*
X136024200Y-119082420D01*
X135939258Y-119089194D01*
X135795188Y-119133810D01*
X135669251Y-119216796D01*
X135600698Y-119297230D01*
X134119800Y-117816332D01*
X134119800Y-116492400D01*
X141763254Y-116492400D01*
X141849227Y-116578373D01*
X141849227Y-116578373D01*
G37*
X141849227Y-116578373D02*
X141896342Y-116617074D01*
X141943096Y-116656305D01*
X141946138Y-116657977D01*
X141948822Y-116660182D01*
X142002580Y-116689007D01*
X142056041Y-116718397D01*
X142059352Y-116719447D01*
X142062412Y-116721088D01*
X142120721Y-116738915D01*
X142178895Y-116757369D01*
X142182348Y-116757756D01*
X142185667Y-116758771D01*
X142246322Y-116764932D01*
X142306979Y-116771736D01*
X142313767Y-116771783D01*
X142313894Y-116771796D01*
X142314012Y-116771785D01*
X142316200Y-116771800D01*
X146456400Y-116771800D01*
X146584672Y-116759223D01*
X146708059Y-116721970D01*
X146788446Y-116679227D01*
X146807727Y-116709145D01*
X146870762Y-116774420D01*
X146541600Y-116774420D01*
X146456658Y-116781194D01*
X146312588Y-116825810D01*
X146186651Y-116908796D01*
X146088819Y-117023583D01*
X146026840Y-117161080D01*
X146005620Y-117310400D01*
X146005620Y-118448200D01*
X146003868Y-118448200D01*
X145798334Y-118242666D01*
X145749373Y-118202449D01*
X145700854Y-118161737D01*
X145697692Y-118159999D01*
X145694907Y-118157711D01*
X145639065Y-118127768D01*
X145583565Y-118097257D01*
X145580131Y-118096168D01*
X145576950Y-118094462D01*
X145516364Y-118075939D01*
X145455986Y-118056786D01*
X145452400Y-118056384D01*
X145448953Y-118055330D01*
X145385930Y-118048928D01*
X145322975Y-118041867D01*
X145315929Y-118041818D01*
X145315794Y-118041804D01*
X145315668Y-118041816D01*
X145313400Y-118041800D01*
X137642600Y-118041800D01*
X137579537Y-118047983D01*
X137516446Y-118053503D01*
X137512983Y-118054509D01*
X137509394Y-118054861D01*
X137448709Y-118073183D01*
X137387916Y-118090845D01*
X137384718Y-118092502D01*
X137381262Y-118093546D01*
X137325347Y-118123277D01*
X137269086Y-118152439D01*
X137266263Y-118154693D01*
X137263084Y-118156383D01*
X137214022Y-118196397D01*
X137164484Y-118235943D01*
X137159465Y-118240892D01*
X137159362Y-118240976D01*
X137159283Y-118241072D01*
X137157666Y-118242666D01*
X136317912Y-119082420D01*
X136024200Y-119082420D01*
X135939258Y-119089194D01*
X135795188Y-119133810D01*
X135669251Y-119216796D01*
X135600698Y-119297230D01*
X134119800Y-117816332D01*
X134119800Y-116492400D01*
X141763254Y-116492400D01*
X141849227Y-116578373D01*
G36*
X145757583Y-110106581D02*
X145895080Y-110168560D01*
X146044400Y-110189780D01*
X146058980Y-110189780D01*
X146026840Y-110261080D01*
X146005620Y-110410400D01*
X146005620Y-111610400D01*
X146012394Y-111695342D01*
X146057010Y-111839412D01*
X146139996Y-111965349D01*
X146254783Y-112063181D01*
X146392280Y-112125160D01*
X146541600Y-112146380D01*
X146809373Y-112146380D01*
X146802377Y-112156597D01*
X146734677Y-112314551D01*
X146698948Y-112482647D01*
X146696548Y-112654482D01*
X146727571Y-112823510D01*
X146790833Y-112983293D01*
X146883927Y-113127745D01*
X147003305Y-113251365D01*
X147144420Y-113349443D01*
X147301898Y-113418243D01*
X147469741Y-113455146D01*
X147641554Y-113458745D01*
X147810795Y-113428903D01*
X147971016Y-113366758D01*
X148116115Y-113274675D01*
X148240564Y-113156163D01*
X148339625Y-113015736D01*
X148409523Y-112858742D01*
X148447597Y-112691161D01*
X148448305Y-112640442D01*
X148508573Y-112580174D01*
X148547295Y-112533034D01*
X148586505Y-112486304D01*
X148588177Y-112483262D01*
X148590382Y-112480578D01*
X148619217Y-112426801D01*
X148648597Y-112373359D01*
X148649647Y-112370050D01*
X148651288Y-112366989D01*
X148669120Y-112308665D01*
X148687569Y-112250505D01*
X148687956Y-112247052D01*
X148688971Y-112243733D01*
X148695132Y-112183078D01*
X148699249Y-112146380D01*
X148891600Y-112146380D01*
X148976542Y-112139606D01*
X149013467Y-112128171D01*
X149141600Y-112146380D01*
X149541600Y-112146380D01*
X149626542Y-112139606D01*
X149663467Y-112128171D01*
X149791600Y-112146380D01*
X150191600Y-112146380D01*
X150276542Y-112139606D01*
X150312303Y-112128531D01*
X150389064Y-112143800D01*
X150470150Y-112143800D01*
X150603500Y-112010450D01*
X150603500Y-111945183D01*
X150644381Y-111897217D01*
X150679700Y-111818864D01*
X150679700Y-112010450D01*
X150813050Y-112143800D01*
X150894136Y-112143800D01*
X150997187Y-112123302D01*
X151094260Y-112083093D01*
X151181623Y-112024719D01*
X151255919Y-111950422D01*
X151314293Y-111863059D01*
X151354502Y-111765987D01*
X151375000Y-111662935D01*
X151375000Y-111181850D01*
X151241650Y-111048500D01*
X150727580Y-111048500D01*
X150727580Y-110972300D01*
X151241650Y-110972300D01*
X151350746Y-110863204D01*
X151355941Y-110864346D01*
X151527754Y-110867945D01*
X151696995Y-110838103D01*
X151857216Y-110775958D01*
X152002315Y-110683875D01*
X152126764Y-110565363D01*
X152225825Y-110424936D01*
X152247600Y-110376028D01*
X152247600Y-112250600D01*
X151714200Y-112250600D01*
X151653556Y-112256546D01*
X151592719Y-112261869D01*
X151589383Y-112262838D01*
X151585928Y-112263177D01*
X151527540Y-112280806D01*
X151468949Y-112297828D01*
X151465866Y-112299426D01*
X151462541Y-112300430D01*
X151408705Y-112329055D01*
X151354521Y-112357141D01*
X151351804Y-112359310D01*
X151348740Y-112360939D01*
X151301493Y-112399472D01*
X151253793Y-112437551D01*
X151248958Y-112442319D01*
X151248860Y-112442399D01*
X151248785Y-112442489D01*
X151247227Y-112444026D01*
X149865854Y-113825400D01*
X147873643Y-113825400D01*
X147830477Y-113781932D01*
X147688006Y-113685834D01*
X147529583Y-113619239D01*
X147361241Y-113584684D01*
X147189394Y-113583484D01*
X147020587Y-113615686D01*
X146861249Y-113680062D01*
X146717450Y-113774162D01*
X146665127Y-113825400D01*
X146018746Y-113825400D01*
X145045980Y-112852634D01*
X145045980Y-112435600D01*
X145039206Y-112350658D01*
X144994590Y-112206588D01*
X144932400Y-112112210D01*
X144932400Y-110187200D01*
X145396935Y-110187200D01*
X145499987Y-110166702D01*
X145597059Y-110126493D01*
X145684422Y-110068119D01*
X145697321Y-110055220D01*
X145757583Y-110106581D01*
X145757583Y-110106581D01*
G37*
X145757583Y-110106581D02*
X145895080Y-110168560D01*
X146044400Y-110189780D01*
X146058980Y-110189780D01*
X146026840Y-110261080D01*
X146005620Y-110410400D01*
X146005620Y-111610400D01*
X146012394Y-111695342D01*
X146057010Y-111839412D01*
X146139996Y-111965349D01*
X146254783Y-112063181D01*
X146392280Y-112125160D01*
X146541600Y-112146380D01*
X146809373Y-112146380D01*
X146802377Y-112156597D01*
X146734677Y-112314551D01*
X146698948Y-112482647D01*
X146696548Y-112654482D01*
X146727571Y-112823510D01*
X146790833Y-112983293D01*
X146883927Y-113127745D01*
X147003305Y-113251365D01*
X147144420Y-113349443D01*
X147301898Y-113418243D01*
X147469741Y-113455146D01*
X147641554Y-113458745D01*
X147810795Y-113428903D01*
X147971016Y-113366758D01*
X148116115Y-113274675D01*
X148240564Y-113156163D01*
X148339625Y-113015736D01*
X148409523Y-112858742D01*
X148447597Y-112691161D01*
X148448305Y-112640442D01*
X148508573Y-112580174D01*
X148547295Y-112533034D01*
X148586505Y-112486304D01*
X148588177Y-112483262D01*
X148590382Y-112480578D01*
X148619217Y-112426801D01*
X148648597Y-112373359D01*
X148649647Y-112370050D01*
X148651288Y-112366989D01*
X148669120Y-112308665D01*
X148687569Y-112250505D01*
X148687956Y-112247052D01*
X148688971Y-112243733D01*
X148695132Y-112183078D01*
X148699249Y-112146380D01*
X148891600Y-112146380D01*
X148976542Y-112139606D01*
X149013467Y-112128171D01*
X149141600Y-112146380D01*
X149541600Y-112146380D01*
X149626542Y-112139606D01*
X149663467Y-112128171D01*
X149791600Y-112146380D01*
X150191600Y-112146380D01*
X150276542Y-112139606D01*
X150312303Y-112128531D01*
X150389064Y-112143800D01*
X150470150Y-112143800D01*
X150603500Y-112010450D01*
X150603500Y-111945183D01*
X150644381Y-111897217D01*
X150679700Y-111818864D01*
X150679700Y-112010450D01*
X150813050Y-112143800D01*
X150894136Y-112143800D01*
X150997187Y-112123302D01*
X151094260Y-112083093D01*
X151181623Y-112024719D01*
X151255919Y-111950422D01*
X151314293Y-111863059D01*
X151354502Y-111765987D01*
X151375000Y-111662935D01*
X151375000Y-111181850D01*
X151241650Y-111048500D01*
X150727580Y-111048500D01*
X150727580Y-110972300D01*
X151241650Y-110972300D01*
X151350746Y-110863204D01*
X151355941Y-110864346D01*
X151527754Y-110867945D01*
X151696995Y-110838103D01*
X151857216Y-110775958D01*
X152002315Y-110683875D01*
X152126764Y-110565363D01*
X152225825Y-110424936D01*
X152247600Y-110376028D01*
X152247600Y-112250600D01*
X151714200Y-112250600D01*
X151653556Y-112256546D01*
X151592719Y-112261869D01*
X151589383Y-112262838D01*
X151585928Y-112263177D01*
X151527540Y-112280806D01*
X151468949Y-112297828D01*
X151465866Y-112299426D01*
X151462541Y-112300430D01*
X151408705Y-112329055D01*
X151354521Y-112357141D01*
X151351804Y-112359310D01*
X151348740Y-112360939D01*
X151301493Y-112399472D01*
X151253793Y-112437551D01*
X151248958Y-112442319D01*
X151248860Y-112442399D01*
X151248785Y-112442489D01*
X151247227Y-112444026D01*
X149865854Y-113825400D01*
X147873643Y-113825400D01*
X147830477Y-113781932D01*
X147688006Y-113685834D01*
X147529583Y-113619239D01*
X147361241Y-113584684D01*
X147189394Y-113583484D01*
X147020587Y-113615686D01*
X146861249Y-113680062D01*
X146717450Y-113774162D01*
X146665127Y-113825400D01*
X146018746Y-113825400D01*
X145045980Y-112852634D01*
X145045980Y-112435600D01*
X145039206Y-112350658D01*
X144994590Y-112206588D01*
X144932400Y-112112210D01*
X144932400Y-110187200D01*
X145396935Y-110187200D01*
X145499987Y-110166702D01*
X145597059Y-110126493D01*
X145684422Y-110068119D01*
X145697321Y-110055220D01*
X145757583Y-110106581D01*
G36*
X150619550Y-100091956D02*
X150770891Y-100197141D01*
X150939781Y-100270927D01*
X151119786Y-100310504D01*
X151304049Y-100314364D01*
X151485554Y-100282360D01*
X151505880Y-100274476D01*
X151505880Y-100421820D01*
X151512654Y-100506762D01*
X151525716Y-100548940D01*
X151505880Y-100688520D01*
X151505880Y-101221920D01*
X151512654Y-101306862D01*
X151525444Y-101348161D01*
X151508460Y-101433544D01*
X151508460Y-101581330D01*
X151510512Y-101583382D01*
X151441183Y-101554239D01*
X151272841Y-101519684D01*
X151100994Y-101518484D01*
X150932187Y-101550686D01*
X150772849Y-101615062D01*
X150629050Y-101709162D01*
X150506267Y-101829400D01*
X150409177Y-101971197D01*
X150341477Y-102129151D01*
X150305748Y-102297247D01*
X150303348Y-102469082D01*
X150305883Y-102482896D01*
X150256471Y-102363012D01*
X150161370Y-102219873D01*
X150040277Y-102097932D01*
X149897806Y-102001834D01*
X149739383Y-101935239D01*
X149571041Y-101900684D01*
X149399194Y-101899484D01*
X149230387Y-101931686D01*
X149071049Y-101996062D01*
X148927250Y-102090162D01*
X148804467Y-102210400D01*
X148707377Y-102352197D01*
X148639677Y-102510151D01*
X148634434Y-102534819D01*
X148586394Y-102534484D01*
X148417587Y-102566686D01*
X148258249Y-102631062D01*
X148114450Y-102725162D01*
X147991667Y-102845400D01*
X147894577Y-102987197D01*
X147826877Y-103145151D01*
X147791148Y-103313247D01*
X147790223Y-103379477D01*
X147279799Y-102869053D01*
X147281938Y-102715874D01*
X147248558Y-102547296D01*
X147183071Y-102388412D01*
X147087970Y-102245273D01*
X146966877Y-102123332D01*
X146824406Y-102027234D01*
X146665983Y-101960639D01*
X146497641Y-101926084D01*
X146325794Y-101924884D01*
X146156987Y-101957086D01*
X145997649Y-102021462D01*
X145853850Y-102115562D01*
X145731067Y-102235800D01*
X145633977Y-102377597D01*
X145566277Y-102535551D01*
X145560991Y-102560419D01*
X145394987Y-102592086D01*
X145235649Y-102656462D01*
X145210917Y-102672647D01*
X145129250Y-102590980D01*
X144932400Y-102590980D01*
X144932400Y-102514780D01*
X145129250Y-102514780D01*
X145262600Y-102381430D01*
X145262600Y-102233644D01*
X145246353Y-102151963D01*
X145265180Y-102019480D01*
X145265180Y-101486080D01*
X145258406Y-101401138D01*
X145245616Y-101359839D01*
X145262600Y-101274456D01*
X145262600Y-101126670D01*
X145129250Y-100993320D01*
X144932400Y-100993320D01*
X144932400Y-100917120D01*
X145129250Y-100917120D01*
X145205450Y-100840920D01*
X148264880Y-100840920D01*
X148327943Y-100834737D01*
X148391034Y-100829217D01*
X148394497Y-100828211D01*
X148398086Y-100827859D01*
X148458771Y-100809537D01*
X148519564Y-100791875D01*
X148522762Y-100790218D01*
X148526218Y-100789174D01*
X148582133Y-100759443D01*
X148638394Y-100730281D01*
X148641217Y-100728027D01*
X148644396Y-100726337D01*
X148693458Y-100686323D01*
X148742996Y-100646777D01*
X148748015Y-100641828D01*
X148748118Y-100641744D01*
X148748197Y-100641648D01*
X148749814Y-100640054D01*
X149331268Y-100058600D01*
X150587338Y-100058600D01*
X150619550Y-100091956D01*
X150619550Y-100091956D01*
G37*
X150619550Y-100091956D02*
X150770891Y-100197141D01*
X150939781Y-100270927D01*
X151119786Y-100310504D01*
X151304049Y-100314364D01*
X151485554Y-100282360D01*
X151505880Y-100274476D01*
X151505880Y-100421820D01*
X151512654Y-100506762D01*
X151525716Y-100548940D01*
X151505880Y-100688520D01*
X151505880Y-101221920D01*
X151512654Y-101306862D01*
X151525444Y-101348161D01*
X151508460Y-101433544D01*
X151508460Y-101581330D01*
X151510512Y-101583382D01*
X151441183Y-101554239D01*
X151272841Y-101519684D01*
X151100994Y-101518484D01*
X150932187Y-101550686D01*
X150772849Y-101615062D01*
X150629050Y-101709162D01*
X150506267Y-101829400D01*
X150409177Y-101971197D01*
X150341477Y-102129151D01*
X150305748Y-102297247D01*
X150303348Y-102469082D01*
X150305883Y-102482896D01*
X150256471Y-102363012D01*
X150161370Y-102219873D01*
X150040277Y-102097932D01*
X149897806Y-102001834D01*
X149739383Y-101935239D01*
X149571041Y-101900684D01*
X149399194Y-101899484D01*
X149230387Y-101931686D01*
X149071049Y-101996062D01*
X148927250Y-102090162D01*
X148804467Y-102210400D01*
X148707377Y-102352197D01*
X148639677Y-102510151D01*
X148634434Y-102534819D01*
X148586394Y-102534484D01*
X148417587Y-102566686D01*
X148258249Y-102631062D01*
X148114450Y-102725162D01*
X147991667Y-102845400D01*
X147894577Y-102987197D01*
X147826877Y-103145151D01*
X147791148Y-103313247D01*
X147790223Y-103379477D01*
X147279799Y-102869053D01*
X147281938Y-102715874D01*
X147248558Y-102547296D01*
X147183071Y-102388412D01*
X147087970Y-102245273D01*
X146966877Y-102123332D01*
X146824406Y-102027234D01*
X146665983Y-101960639D01*
X146497641Y-101926084D01*
X146325794Y-101924884D01*
X146156987Y-101957086D01*
X145997649Y-102021462D01*
X145853850Y-102115562D01*
X145731067Y-102235800D01*
X145633977Y-102377597D01*
X145566277Y-102535551D01*
X145560991Y-102560419D01*
X145394987Y-102592086D01*
X145235649Y-102656462D01*
X145210917Y-102672647D01*
X145129250Y-102590980D01*
X144932400Y-102590980D01*
X144932400Y-102514780D01*
X145129250Y-102514780D01*
X145262600Y-102381430D01*
X145262600Y-102233644D01*
X145246353Y-102151963D01*
X145265180Y-102019480D01*
X145265180Y-101486080D01*
X145258406Y-101401138D01*
X145245616Y-101359839D01*
X145262600Y-101274456D01*
X145262600Y-101126670D01*
X145129250Y-100993320D01*
X144932400Y-100993320D01*
X144932400Y-100917120D01*
X145129250Y-100917120D01*
X145205450Y-100840920D01*
X148264880Y-100840920D01*
X148327943Y-100834737D01*
X148391034Y-100829217D01*
X148394497Y-100828211D01*
X148398086Y-100827859D01*
X148458771Y-100809537D01*
X148519564Y-100791875D01*
X148522762Y-100790218D01*
X148526218Y-100789174D01*
X148582133Y-100759443D01*
X148638394Y-100730281D01*
X148641217Y-100728027D01*
X148644396Y-100726337D01*
X148693458Y-100686323D01*
X148742996Y-100646777D01*
X148748015Y-100641828D01*
X148748118Y-100641744D01*
X148748197Y-100641648D01*
X148749814Y-100640054D01*
X149331268Y-100058600D01*
X150587338Y-100058600D01*
X150619550Y-100091956D01*
G36*
X156081081Y-84122378D02*
X156022707Y-84209741D01*
X155982498Y-84306813D01*
X155962000Y-84409865D01*
X155962000Y-84890950D01*
X156095350Y-85024300D01*
X156832300Y-85024300D01*
X156832300Y-85004300D01*
X156908500Y-85004300D01*
X156908500Y-85024300D01*
X157645450Y-85024300D01*
X157778800Y-84890950D01*
X157778800Y-84409865D01*
X157758302Y-84306813D01*
X157718093Y-84209741D01*
X157659719Y-84122378D01*
X157649341Y-84112000D01*
X158541413Y-84112000D01*
X158540197Y-84113820D01*
X158499988Y-84210893D01*
X158479490Y-84313944D01*
X158479490Y-84644610D01*
X158612840Y-84777960D01*
X159473900Y-84777960D01*
X159473900Y-84757960D01*
X159550100Y-84757960D01*
X159550100Y-84777960D01*
X160411160Y-84777960D01*
X160544510Y-84644610D01*
X160544510Y-84313944D01*
X160524012Y-84210893D01*
X160483803Y-84113820D01*
X160482587Y-84112000D01*
X161806130Y-84112000D01*
X164563057Y-86081235D01*
X163570896Y-87073396D01*
X163534549Y-87117646D01*
X163497904Y-87161628D01*
X163496881Y-87163504D01*
X163495529Y-87165150D01*
X163468509Y-87215543D01*
X163441064Y-87265879D01*
X163440425Y-87267917D01*
X163439419Y-87269794D01*
X163422690Y-87324514D01*
X163405558Y-87379185D01*
X163405328Y-87381305D01*
X163404704Y-87383345D01*
X163398915Y-87440333D01*
X163392734Y-87497229D01*
X163392920Y-87499352D01*
X163392704Y-87501476D01*
X163398093Y-87558489D01*
X163403082Y-87615516D01*
X163403677Y-87617565D01*
X163403878Y-87619688D01*
X163420239Y-87674569D01*
X163436209Y-87729540D01*
X163437190Y-87731432D01*
X163437800Y-87733479D01*
X163464540Y-87784196D01*
X163490853Y-87834959D01*
X163492182Y-87836624D01*
X163493178Y-87838513D01*
X163529202Y-87882998D01*
X163564931Y-87927755D01*
X163567813Y-87930677D01*
X163567904Y-87930790D01*
X163568015Y-87930883D01*
X163570896Y-87933804D01*
X165570896Y-89933804D01*
X165615146Y-89970151D01*
X165659128Y-90006796D01*
X165661004Y-90007819D01*
X165662650Y-90009171D01*
X165713043Y-90036191D01*
X165763379Y-90063636D01*
X165765417Y-90064275D01*
X165767294Y-90065281D01*
X165822014Y-90082010D01*
X165876685Y-90099142D01*
X165878805Y-90099372D01*
X165880845Y-90099996D01*
X165937833Y-90105785D01*
X165994729Y-90111966D01*
X165996852Y-90111780D01*
X165998976Y-90111996D01*
X166055989Y-90106607D01*
X166113016Y-90101618D01*
X166115065Y-90101023D01*
X166117188Y-90100822D01*
X166172069Y-90084461D01*
X166227040Y-90068491D01*
X166228932Y-90067510D01*
X166230979Y-90066900D01*
X166281696Y-90040160D01*
X166332459Y-90013847D01*
X166334124Y-90012518D01*
X166336013Y-90011522D01*
X166380498Y-89975498D01*
X166425255Y-89939769D01*
X166428177Y-89936887D01*
X166428290Y-89936796D01*
X166428383Y-89936685D01*
X166431304Y-89933804D01*
X167423466Y-88941642D01*
X169392700Y-91698571D01*
X169392700Y-95867600D01*
X152984200Y-95867600D01*
X152984200Y-87109628D01*
X153032323Y-87001542D01*
X153070397Y-86833961D01*
X153073138Y-86637674D01*
X153039758Y-86469096D01*
X152974271Y-86310212D01*
X152879170Y-86167073D01*
X152758077Y-86045132D01*
X152615606Y-85949034D01*
X152457183Y-85882439D01*
X152288841Y-85847884D01*
X152116994Y-85846684D01*
X151948187Y-85878886D01*
X151788849Y-85943262D01*
X151645050Y-86037362D01*
X151522267Y-86157600D01*
X151425177Y-86299397D01*
X151357477Y-86457351D01*
X151321748Y-86625447D01*
X151321192Y-86665262D01*
X151262854Y-86723600D01*
X150495775Y-86723600D01*
X150497580Y-86710900D01*
X150497580Y-85512020D01*
X150490806Y-85427078D01*
X150467556Y-85352000D01*
X153309732Y-85352000D01*
X155405066Y-87447334D01*
X155454049Y-87487569D01*
X155502546Y-87528263D01*
X155505705Y-87530000D01*
X155508492Y-87532289D01*
X155564356Y-87562243D01*
X155619835Y-87592743D01*
X155623269Y-87593832D01*
X155626450Y-87595538D01*
X155687036Y-87614061D01*
X155747414Y-87633214D01*
X155751000Y-87633616D01*
X155754447Y-87634670D01*
X155817470Y-87641072D01*
X155880425Y-87648133D01*
X155887471Y-87648182D01*
X155887606Y-87648196D01*
X155887732Y-87648184D01*
X155890000Y-87648200D01*
X155966460Y-87648200D01*
X156010810Y-87791412D01*
X156093796Y-87917349D01*
X156131108Y-87949150D01*
X155988188Y-87993410D01*
X155862251Y-88076396D01*
X155764419Y-88191183D01*
X155702440Y-88328680D01*
X155681220Y-88478000D01*
X155681220Y-89678000D01*
X155687994Y-89762942D01*
X155732610Y-89907012D01*
X155815596Y-90032949D01*
X155930383Y-90130781D01*
X156036281Y-90178516D01*
X155988188Y-90193410D01*
X155862251Y-90276396D01*
X155834830Y-90308569D01*
X155700449Y-90362862D01*
X155556650Y-90456962D01*
X155433867Y-90577200D01*
X155336777Y-90718997D01*
X155269077Y-90876951D01*
X155233348Y-91045047D01*
X155230948Y-91216882D01*
X155261971Y-91385910D01*
X155325233Y-91545693D01*
X155418327Y-91690145D01*
X155537705Y-91813765D01*
X155678820Y-91911843D01*
X155684103Y-91914151D01*
X155687994Y-91962942D01*
X155732610Y-92107012D01*
X155815596Y-92232949D01*
X155930383Y-92330781D01*
X156067880Y-92392760D01*
X156217200Y-92413980D01*
X157117200Y-92413980D01*
X157202142Y-92407206D01*
X157346212Y-92362590D01*
X157472149Y-92279604D01*
X157569981Y-92164817D01*
X157631960Y-92027320D01*
X157653180Y-91878000D01*
X157653180Y-90678000D01*
X157646406Y-90593058D01*
X157601790Y-90448988D01*
X157518804Y-90323051D01*
X157404017Y-90225219D01*
X157298119Y-90177484D01*
X157346212Y-90162590D01*
X157472149Y-90079604D01*
X157569981Y-89964817D01*
X157586279Y-89928660D01*
X157626783Y-89963181D01*
X157764280Y-90025160D01*
X157913600Y-90046380D01*
X159113600Y-90046380D01*
X159198542Y-90039606D01*
X159342612Y-89994990D01*
X159468549Y-89912004D01*
X159566381Y-89797217D01*
X159614116Y-89691319D01*
X159629010Y-89739412D01*
X159711996Y-89865349D01*
X159826783Y-89963181D01*
X159964280Y-90025160D01*
X160113600Y-90046380D01*
X161313600Y-90046380D01*
X161398542Y-90039606D01*
X161542612Y-89994990D01*
X161668549Y-89912004D01*
X161766381Y-89797217D01*
X161828360Y-89659720D01*
X161849580Y-89510400D01*
X161849580Y-88610400D01*
X161842806Y-88525458D01*
X161798190Y-88381388D01*
X161715204Y-88255451D01*
X161600417Y-88157619D01*
X161481990Y-88104236D01*
X161524090Y-88010840D01*
X161545310Y-87861520D01*
X161545310Y-86962360D01*
X161538536Y-86877418D01*
X161493920Y-86733348D01*
X161410934Y-86607411D01*
X161296147Y-86509579D01*
X161158650Y-86447600D01*
X161009330Y-86426380D01*
X160268959Y-86426380D01*
X160331868Y-86285082D01*
X160372701Y-86105358D01*
X160375640Y-85894848D01*
X160339842Y-85714054D01*
X160331261Y-85693236D01*
X160351132Y-85679959D01*
X160425429Y-85605663D01*
X160483803Y-85518300D01*
X160524012Y-85421227D01*
X160544510Y-85318176D01*
X160544510Y-84987510D01*
X160411160Y-84854160D01*
X159550100Y-84854160D01*
X159550100Y-84874160D01*
X159473900Y-84874160D01*
X159473900Y-84854160D01*
X158612840Y-84854160D01*
X158479490Y-84987510D01*
X158479490Y-85318176D01*
X158499988Y-85421227D01*
X158540197Y-85518300D01*
X158585256Y-85585735D01*
X158535657Y-85701458D01*
X158497338Y-85881735D01*
X158495784Y-85993070D01*
X158175757Y-86313097D01*
X158134118Y-86308868D01*
X158073461Y-86302064D01*
X158066673Y-86302017D01*
X158066546Y-86302004D01*
X158066428Y-86302015D01*
X158064240Y-86302000D01*
X157776563Y-86302000D01*
X157774606Y-86277458D01*
X157729990Y-86133388D01*
X157650057Y-86012084D01*
X157659719Y-86002422D01*
X157718093Y-85915059D01*
X157758302Y-85817987D01*
X157778800Y-85714935D01*
X157778800Y-85233850D01*
X157645450Y-85100500D01*
X156908500Y-85100500D01*
X156908500Y-85120500D01*
X156832300Y-85120500D01*
X156832300Y-85100500D01*
X156095350Y-85100500D01*
X155962000Y-85233850D01*
X155962000Y-85714935D01*
X155982498Y-85817987D01*
X156022707Y-85915059D01*
X156081081Y-86002422D01*
X156093980Y-86015321D01*
X156042619Y-86075583D01*
X156021004Y-86123536D01*
X154078734Y-84181266D01*
X154029773Y-84141049D01*
X153995153Y-84112000D01*
X156091459Y-84112000D01*
X156081081Y-84122378D01*
X156081081Y-84122378D01*
G37*
X156081081Y-84122378D02*
X156022707Y-84209741D01*
X155982498Y-84306813D01*
X155962000Y-84409865D01*
X155962000Y-84890950D01*
X156095350Y-85024300D01*
X156832300Y-85024300D01*
X156832300Y-85004300D01*
X156908500Y-85004300D01*
X156908500Y-85024300D01*
X157645450Y-85024300D01*
X157778800Y-84890950D01*
X157778800Y-84409865D01*
X157758302Y-84306813D01*
X157718093Y-84209741D01*
X157659719Y-84122378D01*
X157649341Y-84112000D01*
X158541413Y-84112000D01*
X158540197Y-84113820D01*
X158499988Y-84210893D01*
X158479490Y-84313944D01*
X158479490Y-84644610D01*
X158612840Y-84777960D01*
X159473900Y-84777960D01*
X159473900Y-84757960D01*
X159550100Y-84757960D01*
X159550100Y-84777960D01*
X160411160Y-84777960D01*
X160544510Y-84644610D01*
X160544510Y-84313944D01*
X160524012Y-84210893D01*
X160483803Y-84113820D01*
X160482587Y-84112000D01*
X161806130Y-84112000D01*
X164563057Y-86081235D01*
X163570896Y-87073396D01*
X163534549Y-87117646D01*
X163497904Y-87161628D01*
X163496881Y-87163504D01*
X163495529Y-87165150D01*
X163468509Y-87215543D01*
X163441064Y-87265879D01*
X163440425Y-87267917D01*
X163439419Y-87269794D01*
X163422690Y-87324514D01*
X163405558Y-87379185D01*
X163405328Y-87381305D01*
X163404704Y-87383345D01*
X163398915Y-87440333D01*
X163392734Y-87497229D01*
X163392920Y-87499352D01*
X163392704Y-87501476D01*
X163398093Y-87558489D01*
X163403082Y-87615516D01*
X163403677Y-87617565D01*
X163403878Y-87619688D01*
X163420239Y-87674569D01*
X163436209Y-87729540D01*
X163437190Y-87731432D01*
X163437800Y-87733479D01*
X163464540Y-87784196D01*
X163490853Y-87834959D01*
X163492182Y-87836624D01*
X163493178Y-87838513D01*
X163529202Y-87882998D01*
X163564931Y-87927755D01*
X163567813Y-87930677D01*
X163567904Y-87930790D01*
X163568015Y-87930883D01*
X163570896Y-87933804D01*
X165570896Y-89933804D01*
X165615146Y-89970151D01*
X165659128Y-90006796D01*
X165661004Y-90007819D01*
X165662650Y-90009171D01*
X165713043Y-90036191D01*
X165763379Y-90063636D01*
X165765417Y-90064275D01*
X165767294Y-90065281D01*
X165822014Y-90082010D01*
X165876685Y-90099142D01*
X165878805Y-90099372D01*
X165880845Y-90099996D01*
X165937833Y-90105785D01*
X165994729Y-90111966D01*
X165996852Y-90111780D01*
X165998976Y-90111996D01*
X166055989Y-90106607D01*
X166113016Y-90101618D01*
X166115065Y-90101023D01*
X166117188Y-90100822D01*
X166172069Y-90084461D01*
X166227040Y-90068491D01*
X166228932Y-90067510D01*
X166230979Y-90066900D01*
X166281696Y-90040160D01*
X166332459Y-90013847D01*
X166334124Y-90012518D01*
X166336013Y-90011522D01*
X166380498Y-89975498D01*
X166425255Y-89939769D01*
X166428177Y-89936887D01*
X166428290Y-89936796D01*
X166428383Y-89936685D01*
X166431304Y-89933804D01*
X167423466Y-88941642D01*
X169392700Y-91698571D01*
X169392700Y-95867600D01*
X152984200Y-95867600D01*
X152984200Y-87109628D01*
X153032323Y-87001542D01*
X153070397Y-86833961D01*
X153073138Y-86637674D01*
X153039758Y-86469096D01*
X152974271Y-86310212D01*
X152879170Y-86167073D01*
X152758077Y-86045132D01*
X152615606Y-85949034D01*
X152457183Y-85882439D01*
X152288841Y-85847884D01*
X152116994Y-85846684D01*
X151948187Y-85878886D01*
X151788849Y-85943262D01*
X151645050Y-86037362D01*
X151522267Y-86157600D01*
X151425177Y-86299397D01*
X151357477Y-86457351D01*
X151321748Y-86625447D01*
X151321192Y-86665262D01*
X151262854Y-86723600D01*
X150495775Y-86723600D01*
X150497580Y-86710900D01*
X150497580Y-85512020D01*
X150490806Y-85427078D01*
X150467556Y-85352000D01*
X153309732Y-85352000D01*
X155405066Y-87447334D01*
X155454049Y-87487569D01*
X155502546Y-87528263D01*
X155505705Y-87530000D01*
X155508492Y-87532289D01*
X155564356Y-87562243D01*
X155619835Y-87592743D01*
X155623269Y-87593832D01*
X155626450Y-87595538D01*
X155687036Y-87614061D01*
X155747414Y-87633214D01*
X155751000Y-87633616D01*
X155754447Y-87634670D01*
X155817470Y-87641072D01*
X155880425Y-87648133D01*
X155887471Y-87648182D01*
X155887606Y-87648196D01*
X155887732Y-87648184D01*
X155890000Y-87648200D01*
X155966460Y-87648200D01*
X156010810Y-87791412D01*
X156093796Y-87917349D01*
X156131108Y-87949150D01*
X155988188Y-87993410D01*
X155862251Y-88076396D01*
X155764419Y-88191183D01*
X155702440Y-88328680D01*
X155681220Y-88478000D01*
X155681220Y-89678000D01*
X155687994Y-89762942D01*
X155732610Y-89907012D01*
X155815596Y-90032949D01*
X155930383Y-90130781D01*
X156036281Y-90178516D01*
X155988188Y-90193410D01*
X155862251Y-90276396D01*
X155834830Y-90308569D01*
X155700449Y-90362862D01*
X155556650Y-90456962D01*
X155433867Y-90577200D01*
X155336777Y-90718997D01*
X155269077Y-90876951D01*
X155233348Y-91045047D01*
X155230948Y-91216882D01*
X155261971Y-91385910D01*
X155325233Y-91545693D01*
X155418327Y-91690145D01*
X155537705Y-91813765D01*
X155678820Y-91911843D01*
X155684103Y-91914151D01*
X155687994Y-91962942D01*
X155732610Y-92107012D01*
X155815596Y-92232949D01*
X155930383Y-92330781D01*
X156067880Y-92392760D01*
X156217200Y-92413980D01*
X157117200Y-92413980D01*
X157202142Y-92407206D01*
X157346212Y-92362590D01*
X157472149Y-92279604D01*
X157569981Y-92164817D01*
X157631960Y-92027320D01*
X157653180Y-91878000D01*
X157653180Y-90678000D01*
X157646406Y-90593058D01*
X157601790Y-90448988D01*
X157518804Y-90323051D01*
X157404017Y-90225219D01*
X157298119Y-90177484D01*
X157346212Y-90162590D01*
X157472149Y-90079604D01*
X157569981Y-89964817D01*
X157586279Y-89928660D01*
X157626783Y-89963181D01*
X157764280Y-90025160D01*
X157913600Y-90046380D01*
X159113600Y-90046380D01*
X159198542Y-90039606D01*
X159342612Y-89994990D01*
X159468549Y-89912004D01*
X159566381Y-89797217D01*
X159614116Y-89691319D01*
X159629010Y-89739412D01*
X159711996Y-89865349D01*
X159826783Y-89963181D01*
X159964280Y-90025160D01*
X160113600Y-90046380D01*
X161313600Y-90046380D01*
X161398542Y-90039606D01*
X161542612Y-89994990D01*
X161668549Y-89912004D01*
X161766381Y-89797217D01*
X161828360Y-89659720D01*
X161849580Y-89510400D01*
X161849580Y-88610400D01*
X161842806Y-88525458D01*
X161798190Y-88381388D01*
X161715204Y-88255451D01*
X161600417Y-88157619D01*
X161481990Y-88104236D01*
X161524090Y-88010840D01*
X161545310Y-87861520D01*
X161545310Y-86962360D01*
X161538536Y-86877418D01*
X161493920Y-86733348D01*
X161410934Y-86607411D01*
X161296147Y-86509579D01*
X161158650Y-86447600D01*
X161009330Y-86426380D01*
X160268959Y-86426380D01*
X160331868Y-86285082D01*
X160372701Y-86105358D01*
X160375640Y-85894848D01*
X160339842Y-85714054D01*
X160331261Y-85693236D01*
X160351132Y-85679959D01*
X160425429Y-85605663D01*
X160483803Y-85518300D01*
X160524012Y-85421227D01*
X160544510Y-85318176D01*
X160544510Y-84987510D01*
X160411160Y-84854160D01*
X159550100Y-84854160D01*
X159550100Y-84874160D01*
X159473900Y-84874160D01*
X159473900Y-84854160D01*
X158612840Y-84854160D01*
X158479490Y-84987510D01*
X158479490Y-85318176D01*
X158499988Y-85421227D01*
X158540197Y-85518300D01*
X158585256Y-85585735D01*
X158535657Y-85701458D01*
X158497338Y-85881735D01*
X158495784Y-85993070D01*
X158175757Y-86313097D01*
X158134118Y-86308868D01*
X158073461Y-86302064D01*
X158066673Y-86302017D01*
X158066546Y-86302004D01*
X158066428Y-86302015D01*
X158064240Y-86302000D01*
X157776563Y-86302000D01*
X157774606Y-86277458D01*
X157729990Y-86133388D01*
X157650057Y-86012084D01*
X157659719Y-86002422D01*
X157718093Y-85915059D01*
X157758302Y-85817987D01*
X157778800Y-85714935D01*
X157778800Y-85233850D01*
X157645450Y-85100500D01*
X156908500Y-85100500D01*
X156908500Y-85120500D01*
X156832300Y-85120500D01*
X156832300Y-85100500D01*
X156095350Y-85100500D01*
X155962000Y-85233850D01*
X155962000Y-85714935D01*
X155982498Y-85817987D01*
X156022707Y-85915059D01*
X156081081Y-86002422D01*
X156093980Y-86015321D01*
X156042619Y-86075583D01*
X156021004Y-86123536D01*
X154078734Y-84181266D01*
X154029773Y-84141049D01*
X153995153Y-84112000D01*
X156091459Y-84112000D01*
X156081081Y-84122378D01*
G36*
X146878040Y-88372060D02*
X146898040Y-88372060D01*
X146898040Y-88448260D01*
X146878040Y-88448260D01*
X146878040Y-88468260D01*
X146801840Y-88468260D01*
X146801840Y-88448260D01*
X146781840Y-88448260D01*
X146781840Y-88372060D01*
X146801840Y-88372060D01*
X146801840Y-88352060D01*
X146878040Y-88352060D01*
X146878040Y-88372060D01*
X146878040Y-88372060D01*
G37*
X146878040Y-88372060D02*
X146898040Y-88372060D01*
X146898040Y-88448260D01*
X146878040Y-88448260D01*
X146878040Y-88468260D01*
X146801840Y-88468260D01*
X146801840Y-88448260D01*
X146781840Y-88448260D01*
X146781840Y-88372060D01*
X146801840Y-88372060D01*
X146801840Y-88352060D01*
X146878040Y-88352060D01*
X146878040Y-88372060D01*
G36*
X148163280Y-87246880D02*
X149113974Y-87246880D01*
X148148040Y-88212814D01*
X148148040Y-88057905D01*
X148127542Y-87954853D01*
X148107620Y-87906758D01*
X148129400Y-87858440D01*
X148150620Y-87709120D01*
X148150620Y-87245081D01*
X148163280Y-87246880D01*
X148163280Y-87246880D01*
G37*
X148163280Y-87246880D02*
X149113974Y-87246880D01*
X148148040Y-88212814D01*
X148148040Y-88057905D01*
X148127542Y-87954853D01*
X148107620Y-87906758D01*
X148129400Y-87858440D01*
X148150620Y-87709120D01*
X148150620Y-87245081D01*
X148163280Y-87246880D01*
M02*
