G04 #@! TF.FileFunction,Paste,Bot*
%FSLAX46Y46*%
G04 Gerber Fmt 4.6, Leading zero omitted, Abs format (unit mm)*
G04 Created by KiCad (PCBNEW 4.0.6) date 08/01/17 19:33:19*
%MOMM*%
%LPD*%
G01*
G04 APERTURE LIST*
%ADD10C,0.100000*%
%ADD11R,1.270000X0.533400*%
%ADD12R,0.533400X1.270000*%
%ADD13R,1.200000X0.750000*%
%ADD14R,0.900000X1.200000*%
%ADD15R,0.998220X0.899160*%
%ADD16R,0.750000X1.200000*%
%ADD17R,1.597660X1.399540*%
%ADD18R,1.200000X0.900000*%
%ADD19R,1.549400X0.599440*%
%ADD20R,1.798320X1.198880*%
%ADD21R,0.400000X1.200000*%
%ADD22R,0.500000X0.900000*%
%ADD23R,0.900000X0.500000*%
%ADD24C,1.305560*%
G04 APERTURE END LIST*
D10*
D11*
X144094200Y-104153080D03*
X144094200Y-103352980D03*
X144094200Y-102552880D03*
X144094200Y-101752780D03*
X144094200Y-100955220D03*
X144094200Y-100155120D03*
X144094200Y-99355020D03*
X144094200Y-98554920D03*
D12*
X145587720Y-97061400D03*
X146387820Y-97061400D03*
X147187920Y-97061400D03*
X147988020Y-97061400D03*
X148785580Y-97061400D03*
X149585680Y-97061400D03*
X150385780Y-97061400D03*
X151185880Y-97061400D03*
D11*
X152676860Y-98554920D03*
X152676860Y-99355020D03*
X152676860Y-100155120D03*
X152676860Y-100955220D03*
X152676860Y-101752780D03*
X152676860Y-102552880D03*
X152676860Y-103352980D03*
X152676860Y-104153080D03*
D12*
X151185880Y-105644060D03*
X150385780Y-105644060D03*
X149585680Y-105644060D03*
X148785580Y-105644060D03*
X147988020Y-105644060D03*
X147187920Y-105644060D03*
X146387820Y-105644060D03*
X145587720Y-105644060D03*
D13*
X146644400Y-109278800D03*
X144744400Y-109278800D03*
D14*
X136474200Y-120218400D03*
X136474200Y-122418400D03*
X156667200Y-91278000D03*
X156667200Y-89078000D03*
D15*
X160510220Y-87411940D03*
X158513780Y-87411940D03*
X159512000Y-84816060D03*
D16*
X156870400Y-85062400D03*
X156870400Y-86962400D03*
D17*
X143129000Y-120071260D03*
X143129000Y-122870340D03*
X140360400Y-120122060D03*
X140360400Y-122921140D03*
D18*
X158513600Y-89060400D03*
X160713600Y-89060400D03*
X133688000Y-115070000D03*
X131488000Y-115070000D03*
X137752000Y-115070000D03*
X135552000Y-115070000D03*
X161374000Y-115070000D03*
X159174000Y-115070000D03*
X165438000Y-115070000D03*
X163238000Y-115070000D03*
D19*
X146839940Y-87409400D03*
X146839940Y-88410160D03*
X146839940Y-89410920D03*
X146839940Y-90409140D03*
X146839940Y-91407360D03*
X146839940Y-92408120D03*
D20*
X149062440Y-86111460D03*
X149062440Y-93708600D03*
D16*
X138226800Y-120368400D03*
X138226800Y-122268400D03*
D13*
X154366000Y-118067200D03*
X152466000Y-118067200D03*
D21*
X150641600Y-117910400D03*
X149991600Y-117910400D03*
X149341600Y-117910400D03*
X148691600Y-117910400D03*
X148041600Y-117910400D03*
X147391600Y-117910400D03*
X146741600Y-117910400D03*
X146741600Y-111010400D03*
X147391600Y-111010400D03*
X148041600Y-111010400D03*
X148691600Y-111010400D03*
X149341600Y-111010400D03*
X149991600Y-111010400D03*
X150641600Y-111010400D03*
D22*
X144260000Y-114587400D03*
X142760000Y-114587400D03*
X144260000Y-112885600D03*
X142760000Y-112885600D03*
X153174000Y-114460400D03*
X154674000Y-114460400D03*
X153123200Y-112911000D03*
X154623200Y-112911000D03*
D23*
X150876000Y-107436600D03*
X150876000Y-108936600D03*
X148361400Y-107436600D03*
X148361400Y-108936600D03*
X149606000Y-107436600D03*
X149606000Y-108936600D03*
D24*
X146970000Y-120470000D03*
X146970000Y-122468980D03*
X148968980Y-120470000D03*
X148968980Y-122468980D03*
X150967960Y-120470000D03*
X150967960Y-122468980D03*
X152969480Y-120470000D03*
X152969480Y-122468980D03*
X154968460Y-120470000D03*
X154968460Y-122468980D03*
X156969980Y-120470000D03*
X156969980Y-122468980D03*
X158968960Y-120470000D03*
X158968960Y-122468980D03*
M02*
