G04 #@! TF.FileFunction,Soldermask,Bot*
%FSLAX46Y46*%
G04 Gerber Fmt 4.6, Leading zero omitted, Abs format (unit mm)*
G04 Created by KiCad (PCBNEW 4.0.6) date 06/15/17 20:02:37*
%MOMM*%
%LPD*%
G01*
G04 APERTURE LIST*
%ADD10C,0.100000*%
%ADD11R,1.300000X1.600000*%
%ADD12R,1.398220X1.299160*%
%ADD13R,1.150000X1.200000*%
%ADD14R,2.400000X4.400000*%
%ADD15C,1.705560*%
%ADD16R,1.460000X1.050000*%
%ADD17R,1.670000X0.933400*%
%ADD18R,0.933400X1.670000*%
%ADD19R,1.150000X1.600000*%
%ADD20R,1.000000X0.900000*%
%ADD21R,1.600000X1.150000*%
%ADD22R,1.799540X1.997660*%
%ADD23R,1.997660X1.799540*%
%ADD24R,1.600000X1.300000*%
%ADD25R,1.949400X0.999440*%
%ADD26R,2.198320X1.598880*%
%ADD27R,1.050000X1.460000*%
%ADD28R,1.050000X1.960000*%
%ADD29R,1.600000X1.800000*%
%ADD30R,1.600000X2.400000*%
%ADD31R,1.950000X1.000000*%
%ADD32C,1.900000*%
G04 APERTURE END LIST*
D10*
D11*
X156667200Y-91278000D03*
X156667200Y-89078000D03*
D12*
X160510220Y-87411940D03*
X158513780Y-87411940D03*
X159512000Y-84816060D03*
D13*
X138303000Y-118423500D03*
X138303000Y-116923500D03*
D14*
X134521000Y-121547000D03*
X137771000Y-121547000D03*
D15*
X146970000Y-120470000D03*
X146970000Y-122468980D03*
X148968980Y-120470000D03*
X148968980Y-122468980D03*
X150967960Y-120470000D03*
X150967960Y-122468980D03*
X152969480Y-120470000D03*
X152969480Y-122468980D03*
X154968460Y-120470000D03*
X154968460Y-122468980D03*
X156969980Y-120470000D03*
X156969980Y-122468980D03*
X158968960Y-120470000D03*
X158968960Y-122468980D03*
D16*
X143299000Y-115385000D03*
X143299000Y-114435000D03*
X143299000Y-113485000D03*
X145499000Y-113485000D03*
X145499000Y-115385000D03*
X145499000Y-114435000D03*
D17*
X144043400Y-108217080D03*
X144043400Y-107416980D03*
X144043400Y-106616880D03*
X144043400Y-105816780D03*
X144043400Y-105019220D03*
X144043400Y-104219120D03*
X144043400Y-103419020D03*
X144043400Y-102618920D03*
D18*
X145536920Y-101125400D03*
X146337020Y-101125400D03*
X147137120Y-101125400D03*
X147937220Y-101125400D03*
X148734780Y-101125400D03*
X149534880Y-101125400D03*
X150334980Y-101125400D03*
X151135080Y-101125400D03*
D17*
X152626060Y-102618920D03*
X152626060Y-103419020D03*
X152626060Y-104219120D03*
X152626060Y-105019220D03*
X152626060Y-105816780D03*
X152626060Y-106616880D03*
X152626060Y-107416980D03*
X152626060Y-108217080D03*
D18*
X151135080Y-109708060D03*
X150334980Y-109708060D03*
X149534880Y-109708060D03*
X148734780Y-109708060D03*
X147937220Y-109708060D03*
X147137120Y-109708060D03*
X146337020Y-109708060D03*
X145536920Y-109708060D03*
D19*
X156337000Y-114750000D03*
X156337000Y-112850000D03*
X156870400Y-85062400D03*
X156870400Y-86962400D03*
D20*
X154728000Y-109990000D03*
X153628000Y-109990000D03*
D21*
X155763000Y-116721000D03*
X153863000Y-116721000D03*
D19*
X141351000Y-115004000D03*
X141351000Y-113104000D03*
D21*
X143576000Y-117102000D03*
X145476000Y-117102000D03*
D22*
X150497540Y-116975000D03*
X147698460Y-116975000D03*
D23*
X143891000Y-119893460D03*
X143891000Y-122692540D03*
D22*
X164208460Y-117356000D03*
X167007540Y-117356000D03*
D11*
X143154400Y-99406000D03*
X143154400Y-97206000D03*
D24*
X158513600Y-89060400D03*
X160713600Y-89060400D03*
X133434000Y-115070000D03*
X131234000Y-115070000D03*
X138006000Y-115070000D03*
X135806000Y-115070000D03*
X161120000Y-115070000D03*
X158920000Y-115070000D03*
X165692000Y-115070000D03*
X163492000Y-115070000D03*
X156253000Y-95512000D03*
X158453000Y-95512000D03*
D25*
X148287740Y-87942800D03*
X148287740Y-88943560D03*
X148287740Y-89944320D03*
X148287740Y-90942540D03*
X148287740Y-91940760D03*
X148287740Y-92941520D03*
D26*
X150510240Y-86644860D03*
X150510240Y-94242000D03*
D27*
X152847000Y-112827000D03*
X153797000Y-112827000D03*
X154747000Y-112827000D03*
X154747000Y-115027000D03*
X152847000Y-115027000D03*
X153797000Y-115027000D03*
D19*
X158623000Y-93668000D03*
X158623000Y-91768000D03*
D28*
X163637000Y-122262000D03*
X162687000Y-122262000D03*
X161737000Y-122262000D03*
X161737000Y-119562000D03*
X163637000Y-119562000D03*
D27*
X139893000Y-117145000D03*
X140843000Y-117145000D03*
X141793000Y-117145000D03*
X141793000Y-119345000D03*
X139893000Y-119345000D03*
X140843000Y-119345000D03*
D29*
X140500000Y-124500000D03*
D30*
X140500000Y-121500000D03*
D11*
X136651000Y-117229000D03*
X133351000Y-117229000D03*
D21*
X149921000Y-115070000D03*
X148021000Y-115070000D03*
D24*
X147871000Y-113546000D03*
X150071000Y-113546000D03*
D31*
X160749000Y-95385000D03*
X160749000Y-94115000D03*
X160749000Y-92845000D03*
X160749000Y-91575000D03*
X166149000Y-91575000D03*
X166149000Y-92845000D03*
X166149000Y-94115000D03*
X166149000Y-95385000D03*
D32*
X130500000Y-113500000D03*
X138500000Y-113500000D03*
X158500000Y-113500000D03*
X166500000Y-113500000D03*
D20*
X152866000Y-100465000D03*
X153966000Y-100465000D03*
M02*
