G04 #@! TF.FileFunction,Copper,L2,Bot,Signal*
%FSLAX46Y46*%
G04 Gerber Fmt 4.6, Leading zero omitted, Abs format (unit mm)*
G04 Created by KiCad (PCBNEW 4.0.6) date 04/02/17 18:40:34*
%MOMM*%
%LPD*%
G01*
G04 APERTURE LIST*
%ADD10C,0.100000*%
%ADD11R,1.060000X0.650000*%
%ADD12R,1.270000X0.533400*%
%ADD13R,0.533400X1.270000*%
%ADD14R,0.600000X0.500000*%
%ADD15R,0.750000X1.200000*%
%ADD16R,1.200000X0.750000*%
%ADD17R,1.597660X1.399540*%
%ADD18R,0.900000X1.200000*%
%ADD19R,1.200000X0.900000*%
%ADD20C,1.305560*%
%ADD21R,0.698500X1.699260*%
%ADD22R,0.650000X1.060000*%
%ADD23C,1.422400*%
%ADD24R,0.248920X0.797560*%
%ADD25R,0.998220X0.899160*%
%ADD26R,1.998980X1.270000*%
%ADD27R,1.250000X1.500000*%
%ADD28C,0.685800*%
%ADD29C,0.800000*%
%ADD30C,0.203200*%
%ADD31C,0.406400*%
%ADD32C,0.254000*%
G04 APERTURE END LIST*
D10*
D11*
X143299000Y-115385000D03*
X143299000Y-114435000D03*
X143299000Y-113485000D03*
X145499000Y-113485000D03*
X145499000Y-115385000D03*
X145499000Y-114435000D03*
D12*
X152629600Y-102749920D03*
X152629600Y-103550020D03*
X152629600Y-104350120D03*
X152629600Y-105150220D03*
X152629600Y-105947780D03*
X152629600Y-106747880D03*
X152629600Y-107547980D03*
X152629600Y-108348080D03*
D13*
X151136080Y-109841600D03*
X150335980Y-109841600D03*
X149535880Y-109841600D03*
X148735780Y-109841600D03*
X147938220Y-109841600D03*
X147138120Y-109841600D03*
X146338020Y-109841600D03*
X145537920Y-109841600D03*
D12*
X144046940Y-108348080D03*
X144046940Y-107547980D03*
X144046940Y-106747880D03*
X144046940Y-105947780D03*
X144046940Y-105150220D03*
X144046940Y-104350120D03*
X144046940Y-103550020D03*
X144046940Y-102749920D03*
D13*
X145537920Y-101258940D03*
X146338020Y-101258940D03*
X147138120Y-101258940D03*
X147938220Y-101258940D03*
X148735780Y-101258940D03*
X149535880Y-101258940D03*
X150335980Y-101258940D03*
X151136080Y-101258940D03*
D14*
X143832000Y-100418000D03*
X142732000Y-100418000D03*
D15*
X158648400Y-87729400D03*
X158648400Y-89629400D03*
X156464000Y-116782000D03*
X156464000Y-114882000D03*
X132588000Y-93292000D03*
X132588000Y-95192000D03*
D14*
X153628000Y-109990000D03*
X154728000Y-109990000D03*
D16*
X154747000Y-118118000D03*
X152847000Y-118118000D03*
D15*
X141351000Y-115004000D03*
X141351000Y-113104000D03*
D16*
X143449000Y-117356000D03*
X145349000Y-117356000D03*
D17*
X149098000Y-112654460D03*
X149098000Y-115453540D03*
X140462000Y-120020460D03*
X140462000Y-122819540D03*
X137541000Y-120020460D03*
X137541000Y-122819540D03*
D18*
X130175000Y-93396000D03*
X130175000Y-95596000D03*
D19*
X135552000Y-94242000D03*
X137752000Y-94242000D03*
D18*
X165862000Y-95469000D03*
X165862000Y-93269000D03*
D19*
X133434000Y-115070000D03*
X131234000Y-115070000D03*
X138006000Y-115070000D03*
X135806000Y-115070000D03*
X161120000Y-115070000D03*
X158920000Y-115070000D03*
X165692000Y-115070000D03*
X163492000Y-115070000D03*
D18*
X167894000Y-93269000D03*
X167894000Y-95469000D03*
D20*
X146970000Y-120470000D03*
X146970000Y-122468980D03*
X148968980Y-120470000D03*
X148968980Y-122468980D03*
X150967960Y-120470000D03*
X150967960Y-122468980D03*
X152969480Y-120470000D03*
X152969480Y-122468980D03*
X154968460Y-120470000D03*
X154968460Y-122468980D03*
X156969980Y-120470000D03*
X156969980Y-122468980D03*
X158968960Y-120470000D03*
X158968960Y-122468980D03*
D21*
X152471120Y-111768000D03*
X153670000Y-111768000D03*
X154868880Y-111768000D03*
D22*
X152847000Y-114097000D03*
X153797000Y-114097000D03*
X154747000Y-114097000D03*
X154747000Y-116297000D03*
X152847000Y-116297000D03*
X153797000Y-116297000D03*
D23*
X160021000Y-85863600D03*
D24*
X161811700Y-91449060D03*
X163310300Y-91449060D03*
X162312080Y-94248140D03*
X162312080Y-91449060D03*
X163310300Y-94248140D03*
X162809920Y-94248140D03*
X161811700Y-94248140D03*
X162809920Y-91449060D03*
D25*
X137650220Y-92491940D03*
X135653780Y-92491940D03*
X136652000Y-89896060D03*
D26*
X156334460Y-85448520D03*
X140337540Y-95445960D03*
X156334460Y-89449020D03*
X140335000Y-85448520D03*
X140337540Y-97447480D03*
X156334460Y-93446980D03*
X156334460Y-97447480D03*
X140335000Y-87544020D03*
X156334460Y-95445960D03*
X156334460Y-87450040D03*
D27*
X143319500Y-120424000D03*
X143319500Y-122924000D03*
D16*
X143449000Y-111768000D03*
X145349000Y-111768000D03*
D15*
X160528000Y-88974000D03*
X160528000Y-90874000D03*
D28*
X164338000Y-92456000D03*
D29*
X151257000Y-113038000D03*
X156210000Y-113038000D03*
X144907000Y-122436000D03*
X148209000Y-117483000D03*
X141224000Y-116797200D03*
X162763200Y-118664100D03*
X159308800Y-118511700D03*
X152400000Y-109228000D03*
X151130000Y-105926000D03*
X156845000Y-90805000D03*
D28*
X145542000Y-89408000D03*
D29*
X152476200Y-88692100D03*
X153339800Y-85326600D03*
X141808200Y-92705300D03*
X153111200Y-124315600D03*
X141706600Y-90673300D03*
X153454100Y-87511000D03*
D28*
X146227800Y-91486100D03*
X147764500Y-99512500D03*
X142582900Y-99207700D03*
X137439400Y-96375600D03*
X145465800Y-95423100D03*
X145491200Y-102738300D03*
X149987000Y-111133000D03*
X151003000Y-118880000D03*
X147993100Y-107056300D03*
X150444200Y-103093900D03*
X149529800Y-108224700D03*
X156591000Y-118499000D03*
X150329900Y-108694600D03*
X166751000Y-96655000D03*
X162052000Y-89670000D03*
X160020000Y-96782000D03*
X150749000Y-106942000D03*
X147447000Y-105164000D03*
X155448000Y-98814000D03*
X144399000Y-110498000D03*
X163804600Y-93492700D03*
X157911800Y-93530800D03*
X144399000Y-109355000D03*
X142354300Y-101455600D03*
X145542000Y-92298900D03*
X163207700Y-90305000D03*
X152908000Y-98814000D03*
X149352000Y-103220900D03*
X146431000Y-107323000D03*
X162788600Y-92972000D03*
X154393900Y-95448500D03*
X150431500Y-104148000D03*
X151638000Y-114308000D03*
X144399000Y-116340000D03*
X145186400Y-103601900D03*
X147510500Y-97861500D03*
X139153900Y-89593800D03*
X146380200Y-99880800D03*
X138099800Y-95689800D03*
X150698200Y-94648400D03*
X151815800Y-94546800D03*
X152920700Y-94292800D03*
X142049500Y-96680400D03*
X145542000Y-106180000D03*
X146558000Y-112149000D03*
X156972000Y-113927000D03*
X141986000Y-111641000D03*
X131356100Y-116390800D03*
X137668000Y-116378100D03*
X159029400Y-116581300D03*
X166192200Y-116581300D03*
X152019000Y-110244000D03*
X151549100Y-107577000D03*
X153670000Y-108847000D03*
X156083000Y-111768000D03*
D30*
X156768800Y-92197300D02*
X158381700Y-92197300D01*
X158381700Y-92197300D02*
X158457900Y-92273500D01*
X154406600Y-92273500D02*
X153022300Y-92273500D01*
X153022300Y-92273500D02*
X152692100Y-92603700D01*
X152692100Y-92603700D02*
X151168100Y-92603700D01*
X164211000Y-92456000D02*
X164338000Y-92456000D01*
X163322000Y-91567000D02*
X164211000Y-92456000D01*
D31*
X156845000Y-90805000D02*
X156845000Y-89959560D01*
X156845000Y-89959560D02*
X157175160Y-89629400D01*
X157175160Y-89629400D02*
X158648400Y-89629400D01*
X144932400Y-124163200D02*
X145618200Y-124163200D01*
X144932400Y-124163200D02*
X143306800Y-122537600D01*
X149098000Y-115197000D02*
X151257000Y-113038000D01*
X156210000Y-113038000D02*
X156972000Y-113038000D01*
X144907000Y-122436000D02*
X144907000Y-123452000D01*
X144907000Y-123452000D02*
X145618200Y-124163200D01*
X144419000Y-122924000D02*
X143319500Y-122924000D01*
X144907000Y-122436000D02*
X144419000Y-122924000D01*
X128651000Y-114562000D02*
X128651000Y-117483000D01*
X129540000Y-113673000D02*
X128651000Y-114562000D01*
X134747000Y-113673000D02*
X129540000Y-113673000D01*
X135806000Y-114732000D02*
X134747000Y-113673000D01*
X133987540Y-122819540D02*
X140462000Y-122819540D01*
X128651000Y-117483000D02*
X133987540Y-122819540D01*
X140462000Y-122819540D02*
X140566460Y-122924000D01*
X140566460Y-122924000D02*
X143319500Y-122924000D01*
D30*
X143299000Y-114435000D02*
X144145000Y-114435000D01*
X144399000Y-113038000D02*
X143449000Y-112088000D01*
X144399000Y-114181000D02*
X144399000Y-113038000D01*
X144145000Y-114435000D02*
X144399000Y-114181000D01*
X143449000Y-112088000D02*
X143449000Y-111768000D01*
D31*
X149098000Y-115453540D02*
X149098000Y-116594000D01*
X149098000Y-116594000D02*
X148209000Y-117483000D01*
X141351000Y-115004000D02*
X141544000Y-115004000D01*
D30*
X141544000Y-115004000D02*
X142113000Y-114435000D01*
X142113000Y-114435000D02*
X143299000Y-114435000D01*
D31*
X141224000Y-116797200D02*
X141224000Y-115131000D01*
X141224000Y-115131000D02*
X141351000Y-115004000D01*
X141782800Y-117356000D02*
X143449000Y-117356000D01*
X141224000Y-116797200D02*
X141782800Y-117356000D01*
X149098000Y-115453540D02*
X149098000Y-115197000D01*
D30*
X153797000Y-114097000D02*
X153797000Y-113165000D01*
X153797000Y-113165000D02*
X153924000Y-113038000D01*
D31*
X154747000Y-117864000D02*
X155382000Y-117864000D01*
X155382000Y-117864000D02*
X156464000Y-116782000D01*
X157734000Y-113292000D02*
X157734000Y-116086000D01*
X156972000Y-113038000D02*
X157480000Y-113038000D01*
X157734000Y-113292000D02*
X157480000Y-113038000D01*
X157038000Y-116782000D02*
X156464000Y-116782000D01*
X157734000Y-116086000D02*
X157038000Y-116782000D01*
X157685700Y-118511700D02*
X157685700Y-118003700D01*
X157685700Y-118003700D02*
X156464000Y-116782000D01*
X159308800Y-118511700D02*
X157685700Y-118511700D01*
X163492000Y-115070000D02*
X163492000Y-118468700D01*
X163492000Y-118468700D02*
X163296600Y-118664100D01*
X163296600Y-118664100D02*
X162763200Y-118664100D01*
X153162000Y-109990000D02*
X153628000Y-109990000D01*
X152400000Y-109228000D02*
X153162000Y-109990000D01*
X153628000Y-109990000D02*
X153628000Y-111726000D01*
X153628000Y-111726000D02*
X153670000Y-111768000D01*
X153670000Y-112784000D02*
X153670000Y-111768000D01*
X153924000Y-113038000D02*
X153670000Y-112784000D01*
X156972000Y-113038000D02*
X155956000Y-113038000D01*
X155956000Y-113038000D02*
X153924000Y-113038000D01*
X145618200Y-124163200D02*
X147274760Y-124163200D01*
X147274760Y-124163200D02*
X148968980Y-122468980D01*
X151130000Y-105926000D02*
X151130000Y-105291000D01*
X151130000Y-105291000D02*
X150806150Y-104967150D01*
X151151780Y-105947780D02*
X152629600Y-105947780D01*
X151130000Y-105926000D02*
X151151780Y-105947780D01*
X153924000Y-102243000D02*
X153924000Y-101481000D01*
X153364120Y-104326880D02*
X153797000Y-103894000D01*
X153797000Y-103894000D02*
X153797000Y-102370000D01*
X153797000Y-102370000D02*
X153924000Y-102243000D01*
X153364120Y-104350120D02*
X153364120Y-104326880D01*
X153586000Y-101143000D02*
X153586000Y-100469000D01*
X153924000Y-101481000D02*
X153586000Y-101143000D01*
X153340880Y-104350120D02*
X153364120Y-104350120D01*
X151282400Y-104605200D02*
X151168100Y-104605200D01*
X151168100Y-104605200D02*
X150806150Y-104967150D01*
X152629600Y-104350120D02*
X151537480Y-104350120D01*
X151537480Y-104350120D02*
X151282400Y-104605200D01*
X149834600Y-105595800D02*
X148281580Y-104042780D01*
X146977100Y-103081200D02*
X145669000Y-104389300D01*
X147320000Y-103081200D02*
X146977100Y-103081200D01*
X148281580Y-104042780D02*
X147320000Y-103081200D01*
X145669000Y-105150220D02*
X144046940Y-105150220D01*
X145669000Y-104389300D02*
X145669000Y-105150220D01*
X150806150Y-104967150D02*
X150177500Y-105595800D01*
X150177500Y-105595800D02*
X149834600Y-105595800D01*
X153797000Y-98128200D02*
X153797000Y-96054800D01*
X153586000Y-99609200D02*
X154228800Y-98966400D01*
X154228800Y-98966400D02*
X154228800Y-98560000D01*
X154228800Y-98560000D02*
X153797000Y-98128200D01*
X153586000Y-100469000D02*
X153586000Y-99609200D01*
X154940000Y-92710000D02*
X154940000Y-92456000D01*
X154940000Y-92456000D02*
X156591000Y-90805000D01*
X156591000Y-90805000D02*
X156845000Y-90805000D01*
X153758900Y-93891100D02*
X154940000Y-92710000D01*
X153758900Y-95029400D02*
X153758900Y-93891100D01*
X153568400Y-95219900D02*
X153758900Y-95029400D01*
X153568400Y-95826200D02*
X153568400Y-95219900D01*
X153797000Y-96054800D02*
X153568400Y-95826200D01*
D30*
X145542000Y-89408000D02*
X145034000Y-89916000D01*
X145034000Y-89916000D02*
X141351000Y-89916000D01*
X141351000Y-89916000D02*
X141224000Y-90043000D01*
X141224000Y-90043000D02*
X141097000Y-90043000D01*
X141097000Y-90043000D02*
X140843000Y-90297000D01*
X140843000Y-90297000D02*
X138811000Y-90297000D01*
X138811000Y-90297000D02*
X138430000Y-89916000D01*
X138430000Y-89916000D02*
X136652000Y-89916000D01*
X136652000Y-89916000D02*
X136652000Y-89896060D01*
X163310300Y-91449060D02*
X163322000Y-91440000D01*
X163322000Y-91440000D02*
X163322000Y-91567000D01*
X153924000Y-96012000D02*
X153797000Y-96012000D01*
X154051000Y-96139000D02*
X153924000Y-96012000D01*
X154178000Y-96139000D02*
X154051000Y-96139000D01*
X154559000Y-96520000D02*
X154178000Y-96139000D01*
X149098000Y-115443000D02*
X149098000Y-115453540D01*
D31*
X153314400Y-85301200D02*
X152666700Y-85301200D01*
X153339800Y-85326600D02*
X153314400Y-85301200D01*
D30*
X143522700Y-92679900D02*
X143497300Y-92705300D01*
X141808200Y-92705300D02*
X143497300Y-92705300D01*
D31*
X135806000Y-115070000D02*
X135806000Y-114732000D01*
X152629600Y-104350120D02*
X153340880Y-104350120D01*
X153340880Y-104350120D02*
X153746200Y-103944800D01*
X163492000Y-115070000D02*
X163492000Y-116932000D01*
X163492000Y-116932000D02*
X163449000Y-116975000D01*
X135806000Y-115070000D02*
X135806000Y-116891000D01*
X135806000Y-116891000D02*
X135890000Y-116975000D01*
D30*
X154416800Y-117914800D02*
X154416800Y-117594800D01*
X160528000Y-88974000D02*
X161224000Y-88974000D01*
X165862000Y-91397200D02*
X162991800Y-88527000D01*
X165862000Y-91397200D02*
X165862000Y-93269000D01*
X162864800Y-88400000D02*
X162991800Y-88527000D01*
X161798000Y-88400000D02*
X162864800Y-88400000D01*
X161224000Y-88974000D02*
X161798000Y-88400000D01*
X158648400Y-87729400D02*
X158841400Y-87729400D01*
X158841400Y-87729400D02*
X160086000Y-88974000D01*
X160086000Y-88974000D02*
X160528000Y-88974000D01*
X165862000Y-93269000D02*
X167894000Y-93269000D01*
D31*
X142494000Y-108339000D02*
X142494000Y-109355000D01*
X141097000Y-110752000D02*
X139827000Y-112022000D01*
X139827000Y-112022000D02*
X139827000Y-115959000D01*
X139827000Y-115959000D02*
X139192000Y-116594000D01*
X139192000Y-116594000D02*
X139192000Y-117483000D01*
X139192000Y-117483000D02*
X140462000Y-118753000D01*
X140462000Y-120020460D02*
X140462000Y-118753000D01*
X142494000Y-108339000D02*
X143002000Y-107831000D01*
X142494000Y-109355000D02*
X141097000Y-110752000D01*
D30*
X152847000Y-118118000D02*
X149352000Y-118118000D01*
X147066000Y-118118000D02*
X147066000Y-116467000D01*
X147574000Y-118626000D02*
X147066000Y-118118000D01*
X148844000Y-118626000D02*
X147574000Y-118626000D01*
X149352000Y-118118000D02*
X148844000Y-118626000D01*
X145499000Y-114435000D02*
X146685000Y-114435000D01*
X146685000Y-114435000D02*
X147066000Y-114816000D01*
D31*
X145349000Y-117356000D02*
X146177000Y-117356000D01*
X146177000Y-117356000D02*
X147066000Y-116467000D01*
X147830540Y-112654460D02*
X149098000Y-112654460D01*
X147066000Y-113419000D02*
X147830540Y-112654460D01*
X147066000Y-116467000D02*
X147066000Y-114816000D01*
X147066000Y-114816000D02*
X147066000Y-113419000D01*
X143319500Y-120424000D02*
X143319500Y-119197500D01*
X145349000Y-118438000D02*
X145349000Y-117356000D01*
X144907000Y-118880000D02*
X145349000Y-118438000D01*
X143637000Y-118880000D02*
X144907000Y-118880000D01*
X143319500Y-119197500D02*
X143637000Y-118880000D01*
X143319500Y-120424000D02*
X144546000Y-120424000D01*
X144546000Y-120424000D02*
X146590980Y-122468980D01*
X146590980Y-122468980D02*
X146970000Y-122468980D01*
X140462000Y-120020460D02*
X141729460Y-120020460D01*
X142133000Y-120424000D02*
X143319500Y-120424000D01*
X141729460Y-120020460D02*
X142133000Y-120424000D01*
X140462000Y-120020460D02*
X137541000Y-120020460D01*
X137541000Y-120020460D02*
X137538460Y-120023000D01*
X137538460Y-120023000D02*
X136398000Y-120023000D01*
X136398000Y-120023000D02*
X133434000Y-117059000D01*
X143002000Y-107831000D02*
X143002000Y-101989000D01*
X144780000Y-99192460D02*
X146936460Y-97036000D01*
X147320000Y-94877000D02*
X147320000Y-91448000D01*
X146936460Y-95260540D02*
X147320000Y-94877000D01*
X146936460Y-97036000D02*
X146936460Y-95260540D01*
X144780000Y-100973000D02*
X144780000Y-99192460D01*
X144399000Y-101354000D02*
X144780000Y-100973000D01*
X143637000Y-101354000D02*
X144399000Y-101354000D01*
X143002000Y-101989000D02*
X143637000Y-101354000D01*
D30*
X152847000Y-118118000D02*
X152847000Y-118052000D01*
X152847000Y-118052000D02*
X153797000Y-117102000D01*
X153797000Y-117102000D02*
X153797000Y-116297000D01*
X152847000Y-117864000D02*
X153035000Y-117864000D01*
X154889200Y-109189900D02*
X154889200Y-109177200D01*
X155295600Y-109990000D02*
X154889200Y-109583600D01*
X154889200Y-109583600D02*
X154889200Y-109189900D01*
X153670000Y-107069000D02*
X153348880Y-106747880D01*
X154432000Y-108085000D02*
X154432000Y-108720000D01*
X153670000Y-107323000D02*
X154432000Y-108085000D01*
X153670000Y-107069000D02*
X153670000Y-107323000D01*
X153348880Y-106747880D02*
X152629600Y-106747880D01*
X154889200Y-109177200D02*
X154432000Y-108720000D01*
X154728000Y-109990000D02*
X155295600Y-109990000D01*
D31*
X153162000Y-124366400D02*
X155397200Y-124366400D01*
X153111200Y-124315600D02*
X153162000Y-124366400D01*
D30*
X152629600Y-106747880D02*
X153483120Y-106747880D01*
X153483120Y-106747880D02*
X153670000Y-106561000D01*
X153670000Y-106561000D02*
X153670000Y-105418000D01*
X153670000Y-105418000D02*
X153402220Y-105150220D01*
X153402220Y-105150220D02*
X152629600Y-105150220D01*
X156362400Y-110993300D02*
X156298900Y-110993300D01*
X157937200Y-112352200D02*
X156578300Y-110993300D01*
X156578300Y-110993300D02*
X156362400Y-110993300D01*
X161120000Y-115070000D02*
X161120000Y-113896700D01*
X158978600Y-113241200D02*
X158089600Y-112352200D01*
X160464500Y-113241200D02*
X158978600Y-113241200D01*
X161120000Y-113896700D02*
X160464500Y-113241200D01*
X158089600Y-112352200D02*
X157937200Y-112352200D01*
X156298900Y-110993300D02*
X155295600Y-109990000D01*
D31*
X161120000Y-115070000D02*
X161120000Y-115865200D01*
X161120000Y-115865200D02*
X161721800Y-116467000D01*
X161721800Y-116467000D02*
X161721800Y-122016900D01*
X161721800Y-122016900D02*
X159372300Y-124366400D01*
X159372300Y-124366400D02*
X155397200Y-124366400D01*
X161120000Y-115070000D02*
X161120000Y-115319100D01*
X132588000Y-95192000D02*
X130579000Y-95192000D01*
X130579000Y-95192000D02*
X130175000Y-95596000D01*
X132588000Y-95192000D02*
X134602000Y-95192000D01*
X134602000Y-95192000D02*
X135552000Y-94242000D01*
D30*
X135552000Y-94242000D02*
X135653780Y-94140220D01*
X135653780Y-94140220D02*
X135653780Y-92491940D01*
X135653780Y-92491940D02*
X135653780Y-92014420D01*
X140906500Y-91473400D02*
X141706600Y-90673300D01*
X136194800Y-91473400D02*
X140906500Y-91473400D01*
X135653780Y-92014420D02*
X136194800Y-91473400D01*
X162809920Y-91449060D02*
X162809920Y-91960080D01*
X162052000Y-94007840D02*
X161811700Y-94248140D01*
X162052000Y-92718000D02*
X162052000Y-94007840D01*
X162809920Y-91960080D02*
X162052000Y-92718000D01*
X162312080Y-94248140D02*
X162312080Y-95137080D01*
X162312080Y-95137080D02*
X162369500Y-95194500D01*
X162369500Y-95194500D02*
X164198300Y-95194500D01*
X164198300Y-95194500D02*
X164693600Y-94699200D01*
X164693600Y-94699200D02*
X164693600Y-93556200D01*
X164693600Y-93556200D02*
X164693600Y-93518100D01*
X164693600Y-93518100D02*
X164942700Y-93269000D01*
X164942700Y-93269000D02*
X165862000Y-93269000D01*
D31*
X143802100Y-90686000D02*
X141770100Y-90686000D01*
X141757400Y-90673300D02*
X141706600Y-90673300D01*
X141770100Y-90686000D02*
X141757400Y-90673300D01*
X153898600Y-87511000D02*
X153454100Y-87511000D01*
D30*
X161811700Y-94248140D02*
X162312080Y-94248140D01*
D31*
X158116000Y-87453600D02*
X158606000Y-87453600D01*
X156334460Y-87450040D02*
X158112440Y-87450040D01*
X158112440Y-87450040D02*
X158116000Y-87453600D01*
X151130000Y-87511000D02*
X153898600Y-87511000D01*
X153898600Y-87511000D02*
X156273500Y-87511000D01*
X156273500Y-87511000D02*
X156334460Y-87450040D01*
X144046940Y-107547980D02*
X143285020Y-107547980D01*
X147320000Y-91448000D02*
X147320000Y-88908000D01*
X147320000Y-88908000D02*
X148717000Y-87511000D01*
X148717000Y-87511000D02*
X151130000Y-87511000D01*
X151130000Y-87511000D02*
X151257000Y-87511000D01*
X147320000Y-91448000D02*
X146558000Y-90686000D01*
X146558000Y-90686000D02*
X143802100Y-90686000D01*
X143802100Y-90686000D02*
X143764000Y-90686000D01*
X143002000Y-107831000D02*
X143285020Y-107547980D01*
X143285020Y-107547980D02*
X144046940Y-107547980D01*
X133434000Y-117059000D02*
X133434000Y-115070000D01*
D30*
X143832000Y-98047500D02*
X143832000Y-100418000D01*
X146177000Y-95702500D02*
X143832000Y-98047500D01*
X146177000Y-95245300D02*
X146177000Y-95702500D01*
X146227800Y-95194500D02*
X146177000Y-95245300D01*
X146227800Y-91486100D02*
X146227800Y-95194500D01*
X148735780Y-100483780D02*
X148735780Y-101258940D01*
X147764500Y-99512500D02*
X148735780Y-100483780D01*
X133299200Y-96375600D02*
X137439400Y-96375600D01*
X132854700Y-96820100D02*
X133299200Y-96375600D01*
X129336800Y-96820100D02*
X132854700Y-96820100D01*
X129095500Y-96578800D02*
X129336800Y-96820100D01*
X129095500Y-93657800D02*
X129095500Y-96578800D01*
X129357300Y-93396000D02*
X129095500Y-93657800D01*
X130175000Y-93396000D02*
X129357300Y-93396000D01*
X145465800Y-95423100D02*
X142582900Y-98306000D01*
X142582900Y-98306000D02*
X142582900Y-99207700D01*
X142582900Y-99207700D02*
X142582900Y-100268900D01*
X142582900Y-100268900D02*
X142732000Y-100418000D01*
X144046940Y-102749920D02*
X145479580Y-102749920D01*
X145491200Y-102738300D02*
X145479580Y-102749920D01*
X150259780Y-110860220D02*
X149987000Y-111133000D01*
X151136080Y-110860220D02*
X151136080Y-109841600D01*
X151136080Y-110860220D02*
X150259780Y-110860220D01*
X151003000Y-118880000D02*
X150977600Y-118905400D01*
X147938220Y-109841600D02*
X147976320Y-107073080D01*
X147993100Y-107056300D02*
X147976320Y-107073080D01*
X151422100Y-119349900D02*
X153035000Y-119349900D01*
X151422100Y-119349900D02*
X150977600Y-118905400D01*
X150977600Y-118905400D02*
X150964900Y-118892700D01*
X153377900Y-119349900D02*
X153530300Y-119349900D01*
X153530300Y-119349900D02*
X153974800Y-119794400D01*
X153974800Y-119794400D02*
X153974800Y-121475320D01*
X153974800Y-121475320D02*
X154968460Y-122468980D01*
X153035000Y-119349900D02*
X153377900Y-119349900D01*
X153060400Y-119349900D02*
X153035000Y-119349900D01*
X150788180Y-102749920D02*
X152629600Y-102749920D01*
X150444200Y-103093900D02*
X150788180Y-102749920D01*
X149535880Y-108230780D02*
X149535880Y-109841600D01*
X149529800Y-108224700D02*
X149535880Y-108230780D01*
X156969980Y-118877980D02*
X156969980Y-120470000D01*
X156591000Y-118499000D02*
X156969980Y-118877980D01*
X150329900Y-108694600D02*
X150335980Y-108700680D01*
X150335980Y-108700680D02*
X150335980Y-109841600D01*
X156660980Y-120500000D02*
X156660980Y-120283480D01*
X161811700Y-91449060D02*
X161811700Y-89910300D01*
X166751000Y-96655000D02*
X167894000Y-95512000D01*
X161811700Y-89910300D02*
X162052000Y-89670000D01*
X167894000Y-95512000D02*
X167894000Y-95469000D01*
X167894000Y-95512000D02*
X167894000Y-95469000D01*
X166708000Y-96655000D02*
X167894000Y-95469000D01*
X160147000Y-96655000D02*
X166708000Y-96655000D01*
X160020000Y-96782000D02*
X160147000Y-96655000D01*
X150507700Y-107183300D02*
X149085300Y-107183300D01*
X150749000Y-106942000D02*
X150507700Y-107183300D01*
X148735780Y-107532820D02*
X149085300Y-107183300D01*
X148735780Y-109841600D02*
X148735780Y-107532820D01*
X147138120Y-105472880D02*
X147138120Y-109841600D01*
X147447000Y-105164000D02*
X147138120Y-105472880D01*
X155448000Y-98814000D02*
X156334460Y-97927540D01*
X156334460Y-97927540D02*
X156334460Y-97447480D01*
X147138120Y-109841600D02*
X147138120Y-109037500D01*
X147138120Y-109037500D02*
X147138120Y-108957220D01*
X156334460Y-97447480D02*
X158059120Y-97447480D01*
X159753300Y-95753300D02*
X165577700Y-95753300D01*
X158059120Y-97447480D02*
X159753300Y-95753300D01*
X165577700Y-95753300D02*
X165862000Y-95469000D01*
X144780000Y-110879000D02*
X145796000Y-110879000D01*
X144399000Y-110498000D02*
X144780000Y-110879000D01*
X146338020Y-110717980D02*
X146338020Y-109841600D01*
X146177000Y-110879000D02*
X146338020Y-110717980D01*
X145796000Y-110879000D02*
X146177000Y-110879000D01*
X163310300Y-94248140D02*
X163310300Y-93987000D01*
X163310300Y-93987000D02*
X163804600Y-93492700D01*
X157911800Y-93530800D02*
X157827980Y-93446980D01*
X157827980Y-93446980D02*
X156334460Y-93446980D01*
X144885600Y-109841600D02*
X145537920Y-109841600D01*
X144399000Y-109355000D02*
X144885600Y-109841600D01*
X140337540Y-97447480D02*
X140337540Y-98359340D01*
X141897100Y-100998400D02*
X142354300Y-101455600D01*
X141897100Y-99918900D02*
X141897100Y-100998400D01*
X140337540Y-98359340D02*
X141897100Y-99918900D01*
X142488920Y-97447480D02*
X140337540Y-97447480D01*
X143167100Y-96769300D02*
X142488920Y-97447480D01*
X143167100Y-94673800D02*
X143167100Y-96769300D01*
X145542000Y-92298900D02*
X143167100Y-94673800D01*
X162312080Y-91449060D02*
X162312080Y-90654520D01*
X162661600Y-90305000D02*
X163207700Y-90305000D01*
X162312080Y-90654520D02*
X162661600Y-90305000D01*
X152908000Y-98814000D02*
X152908000Y-101658800D01*
X152908000Y-101658800D02*
X153149300Y-101900100D01*
X150431500Y-102344600D02*
X150533100Y-102243000D01*
X150228300Y-102344600D02*
X150431500Y-102344600D01*
X149352000Y-103220900D02*
X150228300Y-102344600D01*
X151650700Y-102243000D02*
X150533100Y-102243000D01*
X145405920Y-108348080D02*
X144046940Y-108348080D01*
X146431000Y-107323000D02*
X145405920Y-108348080D01*
X152908000Y-101900100D02*
X153149300Y-101900100D01*
X151650700Y-102243000D02*
X151650700Y-102192200D01*
X151650700Y-102192200D02*
X152019000Y-101823900D01*
X152019000Y-101823900D02*
X152831800Y-101823900D01*
X152831800Y-101823900D02*
X152908000Y-101900100D01*
X151650700Y-102243000D02*
X151663400Y-102243000D01*
X162809920Y-94248140D02*
X162809920Y-92993320D01*
X162809920Y-92993320D02*
X162788600Y-92972000D01*
X154396440Y-95445960D02*
X156334460Y-95445960D01*
X154393900Y-95448500D02*
X154396440Y-95445960D01*
X151181880Y-103550020D02*
X151029480Y-103550020D01*
X151029480Y-103550020D02*
X150431500Y-104148000D01*
X152629600Y-103550020D02*
X151181880Y-103550020D01*
X151849000Y-114097000D02*
X152847000Y-114097000D01*
X151638000Y-114308000D02*
X151849000Y-114097000D01*
X143299000Y-115385000D02*
X143444000Y-115385000D01*
X143444000Y-115385000D02*
X144399000Y-116340000D01*
X144046940Y-103550020D02*
X145134520Y-103550020D01*
X145186400Y-103601900D02*
X145134520Y-103550020D01*
X146659600Y-98242500D02*
X145537920Y-99364180D01*
X145537920Y-99364180D02*
X145537920Y-101258940D01*
X147129500Y-98242500D02*
X146659600Y-98242500D01*
X147510500Y-97861500D02*
X147129500Y-98242500D01*
X140335000Y-87544020D02*
X140335000Y-88412700D01*
X139153900Y-89593800D02*
X140335000Y-88412700D01*
X146338020Y-99922980D02*
X146338020Y-101258940D01*
X146380200Y-99880800D02*
X146338020Y-99922980D01*
X137650220Y-92491940D02*
X137650220Y-94140220D01*
X137650220Y-94140220D02*
X138099800Y-94589800D01*
X138099800Y-94589800D02*
X138099800Y-95689800D01*
X149535880Y-99087320D02*
X149535880Y-101258940D01*
X150025100Y-98598100D02*
X149535880Y-99087320D01*
X150609300Y-98598100D02*
X150025100Y-98598100D01*
X151155400Y-98052000D02*
X150609300Y-98598100D01*
X151155400Y-95105600D02*
X151155400Y-98052000D01*
X150698200Y-94648400D02*
X151155400Y-95105600D01*
X151828500Y-96261300D02*
X151828500Y-98153600D01*
X150335980Y-99379420D02*
X150335980Y-101258940D01*
X150596600Y-99118800D02*
X150335980Y-99379420D01*
X150863300Y-99118800D02*
X150596600Y-99118800D01*
X151828500Y-98153600D02*
X150863300Y-99118800D01*
X151828500Y-94559500D02*
X151828500Y-96261300D01*
X151828500Y-96261300D02*
X151828500Y-96274000D01*
X151815800Y-94546800D02*
X151828500Y-94559500D01*
X152920700Y-94292800D02*
X152438100Y-94775400D01*
X152438100Y-94775400D02*
X152438100Y-98344100D01*
X152438100Y-98344100D02*
X151136080Y-99646120D01*
X151136080Y-99646120D02*
X151136080Y-101258940D01*
X140815060Y-95445960D02*
X142049500Y-96680400D01*
X140337540Y-95445960D02*
X140815060Y-95445960D01*
X145349000Y-111768000D02*
X146177000Y-111768000D01*
X145309780Y-105947780D02*
X144046940Y-105947780D01*
X145542000Y-106180000D02*
X145309780Y-105947780D01*
X146177000Y-111768000D02*
X146558000Y-112149000D01*
X144018000Y-105918000D02*
X144046940Y-105947780D01*
D31*
X156464000Y-114882000D02*
X156464000Y-114435000D01*
X156464000Y-114435000D02*
X156972000Y-113927000D01*
X154747000Y-114097000D02*
X155679000Y-114097000D01*
X155679000Y-114097000D02*
X156464000Y-114882000D01*
D30*
X154709000Y-113927000D02*
X154770000Y-113866000D01*
D31*
X141351000Y-113104000D02*
X142918000Y-113104000D01*
X142918000Y-113104000D02*
X143299000Y-113485000D01*
X141351000Y-113104000D02*
X141351000Y-112276000D01*
X141351000Y-112276000D02*
X141986000Y-111641000D01*
D30*
X131234000Y-115070000D02*
X131234000Y-116268700D01*
X131234000Y-116268700D02*
X131356100Y-116390800D01*
X138006000Y-116040100D02*
X138006000Y-115070000D01*
X137668000Y-116378100D02*
X138006000Y-116040100D01*
X158920000Y-115070000D02*
X158920000Y-116471900D01*
X158920000Y-116471900D02*
X159029400Y-116581300D01*
X165692000Y-116081100D02*
X165692000Y-115070000D01*
X166192200Y-116581300D02*
X165692000Y-116081100D01*
X152471120Y-110696120D02*
X152471120Y-111768000D01*
X152019000Y-110244000D02*
X152471120Y-110696120D01*
X152471120Y-112204880D02*
X152471120Y-111768000D01*
X151549100Y-107577000D02*
X151578120Y-107547980D01*
X151578120Y-107547980D02*
X152629600Y-107547980D01*
X152471120Y-111768000D02*
X152471120Y-110947580D01*
X154868880Y-111768000D02*
X156083000Y-111768000D01*
X153670000Y-108847000D02*
X153171080Y-108348080D01*
X153171080Y-108348080D02*
X152629600Y-108348080D01*
D31*
X156334460Y-85448520D02*
X159605920Y-85448520D01*
X159605920Y-85448520D02*
X160021000Y-85863600D01*
D32*
G36*
X130378031Y-116584463D02*
X130526593Y-116944012D01*
X130801441Y-117219340D01*
X131160730Y-117368530D01*
X131549763Y-117368869D01*
X131909312Y-117220307D01*
X132184640Y-116945459D01*
X132333830Y-116586170D01*
X132333934Y-116467000D01*
X132595800Y-116467000D01*
X132595800Y-117059000D01*
X132659604Y-117379766D01*
X132841303Y-117651697D01*
X135805303Y-120615697D01*
X136077234Y-120797396D01*
X136110495Y-120804012D01*
X136139008Y-120955547D01*
X136278080Y-121171671D01*
X136490280Y-121316661D01*
X136742170Y-121367670D01*
X138339830Y-121367670D01*
X138575147Y-121323392D01*
X138791271Y-121184320D01*
X138936261Y-120972120D01*
X138959237Y-120858660D01*
X139041777Y-120858660D01*
X139060008Y-120955547D01*
X139199080Y-121171671D01*
X139411280Y-121316661D01*
X139663170Y-121367670D01*
X141260830Y-121367670D01*
X141496147Y-121323392D01*
X141712271Y-121184320D01*
X141737001Y-121148126D01*
X141812235Y-121198396D01*
X142060960Y-121247870D01*
X142091338Y-121409317D01*
X142230410Y-121625441D01*
X142298506Y-121671969D01*
X142156173Y-121814302D01*
X142059500Y-122047691D01*
X142059500Y-122638250D01*
X142218250Y-122797000D01*
X143192500Y-122797000D01*
X143192500Y-122777000D01*
X143446500Y-122777000D01*
X143446500Y-122797000D01*
X144420750Y-122797000D01*
X144579500Y-122638250D01*
X144579500Y-122047691D01*
X144482827Y-121814302D01*
X144341590Y-121673064D01*
X144395941Y-121638090D01*
X144468501Y-121531895D01*
X145697051Y-122760445D01*
X145877637Y-123197496D01*
X146239579Y-123560070D01*
X146712721Y-123756536D01*
X147225031Y-123756983D01*
X147698516Y-123561343D01*
X147890181Y-123370012D01*
X148247554Y-123370012D01*
X148303576Y-123600895D01*
X148787392Y-123769372D01*
X149298853Y-123739876D01*
X149634384Y-123600895D01*
X149690406Y-123370012D01*
X148968980Y-122648585D01*
X148247554Y-123370012D01*
X147890181Y-123370012D01*
X148061090Y-123199401D01*
X148065111Y-123189718D01*
X148067948Y-123190406D01*
X148789375Y-122468980D01*
X148067948Y-121747554D01*
X148065535Y-121748140D01*
X148062363Y-121740464D01*
X147791707Y-121469335D01*
X147969645Y-121291707D01*
X148238559Y-121561090D01*
X148248242Y-121565111D01*
X148247554Y-121567948D01*
X148968980Y-122289375D01*
X149690406Y-121567948D01*
X149689820Y-121565535D01*
X149697496Y-121562363D01*
X149968625Y-121291707D01*
X150146253Y-121469645D01*
X149876870Y-121738559D01*
X149872849Y-121748242D01*
X149870012Y-121747554D01*
X149148585Y-122468980D01*
X149870012Y-123190406D01*
X149872425Y-123189820D01*
X149875597Y-123197496D01*
X150237539Y-123560070D01*
X150710681Y-123756536D01*
X151222991Y-123756983D01*
X151696476Y-123561343D01*
X151968877Y-123289417D01*
X152239059Y-123560070D01*
X152354881Y-123608164D01*
X152234281Y-123728554D01*
X152076380Y-124108823D01*
X152076021Y-124520571D01*
X152233258Y-124901115D01*
X152524154Y-125192519D01*
X152904423Y-125350420D01*
X153316171Y-125350779D01*
X153669952Y-125204600D01*
X159372300Y-125204600D01*
X159693066Y-125140796D01*
X159964997Y-124959097D01*
X162314497Y-122609597D01*
X162496196Y-122337665D01*
X162560000Y-122016900D01*
X162560000Y-116467000D01*
X165080971Y-116467000D01*
X165171145Y-116601955D01*
X165214244Y-116645054D01*
X165214131Y-116774963D01*
X165362693Y-117134512D01*
X165637541Y-117409840D01*
X165996830Y-117559030D01*
X166385863Y-117559369D01*
X166745412Y-117410807D01*
X167020740Y-117135959D01*
X167169930Y-116776670D01*
X167170200Y-116467000D01*
X169291100Y-116467000D01*
X169291100Y-118288629D01*
X167449342Y-121051266D01*
X164548766Y-123951842D01*
X161786129Y-125793600D01*
X135216071Y-125793600D01*
X132453434Y-123951842D01*
X131606882Y-123105290D01*
X136107170Y-123105290D01*
X136107170Y-123645620D01*
X136203843Y-123879009D01*
X136382472Y-124057637D01*
X136615861Y-124154310D01*
X137255250Y-124154310D01*
X137414000Y-123995560D01*
X137414000Y-122946540D01*
X137668000Y-122946540D01*
X137668000Y-123995560D01*
X137826750Y-124154310D01*
X138466139Y-124154310D01*
X138699528Y-124057637D01*
X138878157Y-123879009D01*
X138974830Y-123645620D01*
X138974830Y-123105290D01*
X139028170Y-123105290D01*
X139028170Y-123645620D01*
X139124843Y-123879009D01*
X139303472Y-124057637D01*
X139536861Y-124154310D01*
X140176250Y-124154310D01*
X140335000Y-123995560D01*
X140335000Y-122946540D01*
X140589000Y-122946540D01*
X140589000Y-123995560D01*
X140747750Y-124154310D01*
X141387139Y-124154310D01*
X141620528Y-124057637D01*
X141799157Y-123879009D01*
X141895830Y-123645620D01*
X141895830Y-123209750D01*
X142059500Y-123209750D01*
X142059500Y-123800309D01*
X142156173Y-124033698D01*
X142334801Y-124212327D01*
X142568190Y-124309000D01*
X143033750Y-124309000D01*
X143192500Y-124150250D01*
X143192500Y-123051000D01*
X143446500Y-123051000D01*
X143446500Y-124150250D01*
X143605250Y-124309000D01*
X144070810Y-124309000D01*
X144304199Y-124212327D01*
X144482827Y-124033698D01*
X144579500Y-123800309D01*
X144579500Y-123209750D01*
X144420750Y-123051000D01*
X143446500Y-123051000D01*
X143192500Y-123051000D01*
X142218250Y-123051000D01*
X142059500Y-123209750D01*
X141895830Y-123209750D01*
X141895830Y-123105290D01*
X141737080Y-122946540D01*
X140589000Y-122946540D01*
X140335000Y-122946540D01*
X139186920Y-122946540D01*
X139028170Y-123105290D01*
X138974830Y-123105290D01*
X138816080Y-122946540D01*
X137668000Y-122946540D01*
X137414000Y-122946540D01*
X136265920Y-122946540D01*
X136107170Y-123105290D01*
X131606882Y-123105290D01*
X130495052Y-121993460D01*
X136107170Y-121993460D01*
X136107170Y-122533790D01*
X136265920Y-122692540D01*
X137414000Y-122692540D01*
X137414000Y-121643520D01*
X137668000Y-121643520D01*
X137668000Y-122692540D01*
X138816080Y-122692540D01*
X138974830Y-122533790D01*
X138974830Y-121993460D01*
X139028170Y-121993460D01*
X139028170Y-122533790D01*
X139186920Y-122692540D01*
X140335000Y-122692540D01*
X140335000Y-121643520D01*
X140589000Y-121643520D01*
X140589000Y-122692540D01*
X141737080Y-122692540D01*
X141895830Y-122533790D01*
X141895830Y-121993460D01*
X141799157Y-121760071D01*
X141620528Y-121581443D01*
X141387139Y-121484770D01*
X140747750Y-121484770D01*
X140589000Y-121643520D01*
X140335000Y-121643520D01*
X140176250Y-121484770D01*
X139536861Y-121484770D01*
X139303472Y-121581443D01*
X139124843Y-121760071D01*
X139028170Y-121993460D01*
X138974830Y-121993460D01*
X138878157Y-121760071D01*
X138699528Y-121581443D01*
X138466139Y-121484770D01*
X137826750Y-121484770D01*
X137668000Y-121643520D01*
X137414000Y-121643520D01*
X137255250Y-121484770D01*
X136615861Y-121484770D01*
X136382472Y-121581443D01*
X136203843Y-121760071D01*
X136107170Y-121993460D01*
X130495052Y-121993460D01*
X128584616Y-120083024D01*
X127711100Y-118335992D01*
X127711100Y-116467000D01*
X130378133Y-116467000D01*
X130378031Y-116584463D01*
X130378031Y-116584463D01*
G37*
X130378031Y-116584463D02*
X130526593Y-116944012D01*
X130801441Y-117219340D01*
X131160730Y-117368530D01*
X131549763Y-117368869D01*
X131909312Y-117220307D01*
X132184640Y-116945459D01*
X132333830Y-116586170D01*
X132333934Y-116467000D01*
X132595800Y-116467000D01*
X132595800Y-117059000D01*
X132659604Y-117379766D01*
X132841303Y-117651697D01*
X135805303Y-120615697D01*
X136077234Y-120797396D01*
X136110495Y-120804012D01*
X136139008Y-120955547D01*
X136278080Y-121171671D01*
X136490280Y-121316661D01*
X136742170Y-121367670D01*
X138339830Y-121367670D01*
X138575147Y-121323392D01*
X138791271Y-121184320D01*
X138936261Y-120972120D01*
X138959237Y-120858660D01*
X139041777Y-120858660D01*
X139060008Y-120955547D01*
X139199080Y-121171671D01*
X139411280Y-121316661D01*
X139663170Y-121367670D01*
X141260830Y-121367670D01*
X141496147Y-121323392D01*
X141712271Y-121184320D01*
X141737001Y-121148126D01*
X141812235Y-121198396D01*
X142060960Y-121247870D01*
X142091338Y-121409317D01*
X142230410Y-121625441D01*
X142298506Y-121671969D01*
X142156173Y-121814302D01*
X142059500Y-122047691D01*
X142059500Y-122638250D01*
X142218250Y-122797000D01*
X143192500Y-122797000D01*
X143192500Y-122777000D01*
X143446500Y-122777000D01*
X143446500Y-122797000D01*
X144420750Y-122797000D01*
X144579500Y-122638250D01*
X144579500Y-122047691D01*
X144482827Y-121814302D01*
X144341590Y-121673064D01*
X144395941Y-121638090D01*
X144468501Y-121531895D01*
X145697051Y-122760445D01*
X145877637Y-123197496D01*
X146239579Y-123560070D01*
X146712721Y-123756536D01*
X147225031Y-123756983D01*
X147698516Y-123561343D01*
X147890181Y-123370012D01*
X148247554Y-123370012D01*
X148303576Y-123600895D01*
X148787392Y-123769372D01*
X149298853Y-123739876D01*
X149634384Y-123600895D01*
X149690406Y-123370012D01*
X148968980Y-122648585D01*
X148247554Y-123370012D01*
X147890181Y-123370012D01*
X148061090Y-123199401D01*
X148065111Y-123189718D01*
X148067948Y-123190406D01*
X148789375Y-122468980D01*
X148067948Y-121747554D01*
X148065535Y-121748140D01*
X148062363Y-121740464D01*
X147791707Y-121469335D01*
X147969645Y-121291707D01*
X148238559Y-121561090D01*
X148248242Y-121565111D01*
X148247554Y-121567948D01*
X148968980Y-122289375D01*
X149690406Y-121567948D01*
X149689820Y-121565535D01*
X149697496Y-121562363D01*
X149968625Y-121291707D01*
X150146253Y-121469645D01*
X149876870Y-121738559D01*
X149872849Y-121748242D01*
X149870012Y-121747554D01*
X149148585Y-122468980D01*
X149870012Y-123190406D01*
X149872425Y-123189820D01*
X149875597Y-123197496D01*
X150237539Y-123560070D01*
X150710681Y-123756536D01*
X151222991Y-123756983D01*
X151696476Y-123561343D01*
X151968877Y-123289417D01*
X152239059Y-123560070D01*
X152354881Y-123608164D01*
X152234281Y-123728554D01*
X152076380Y-124108823D01*
X152076021Y-124520571D01*
X152233258Y-124901115D01*
X152524154Y-125192519D01*
X152904423Y-125350420D01*
X153316171Y-125350779D01*
X153669952Y-125204600D01*
X159372300Y-125204600D01*
X159693066Y-125140796D01*
X159964997Y-124959097D01*
X162314497Y-122609597D01*
X162496196Y-122337665D01*
X162560000Y-122016900D01*
X162560000Y-116467000D01*
X165080971Y-116467000D01*
X165171145Y-116601955D01*
X165214244Y-116645054D01*
X165214131Y-116774963D01*
X165362693Y-117134512D01*
X165637541Y-117409840D01*
X165996830Y-117559030D01*
X166385863Y-117559369D01*
X166745412Y-117410807D01*
X167020740Y-117135959D01*
X167169930Y-116776670D01*
X167170200Y-116467000D01*
X169291100Y-116467000D01*
X169291100Y-118288629D01*
X167449342Y-121051266D01*
X164548766Y-123951842D01*
X161786129Y-125793600D01*
X135216071Y-125793600D01*
X132453434Y-123951842D01*
X131606882Y-123105290D01*
X136107170Y-123105290D01*
X136107170Y-123645620D01*
X136203843Y-123879009D01*
X136382472Y-124057637D01*
X136615861Y-124154310D01*
X137255250Y-124154310D01*
X137414000Y-123995560D01*
X137414000Y-122946540D01*
X137668000Y-122946540D01*
X137668000Y-123995560D01*
X137826750Y-124154310D01*
X138466139Y-124154310D01*
X138699528Y-124057637D01*
X138878157Y-123879009D01*
X138974830Y-123645620D01*
X138974830Y-123105290D01*
X139028170Y-123105290D01*
X139028170Y-123645620D01*
X139124843Y-123879009D01*
X139303472Y-124057637D01*
X139536861Y-124154310D01*
X140176250Y-124154310D01*
X140335000Y-123995560D01*
X140335000Y-122946540D01*
X140589000Y-122946540D01*
X140589000Y-123995560D01*
X140747750Y-124154310D01*
X141387139Y-124154310D01*
X141620528Y-124057637D01*
X141799157Y-123879009D01*
X141895830Y-123645620D01*
X141895830Y-123209750D01*
X142059500Y-123209750D01*
X142059500Y-123800309D01*
X142156173Y-124033698D01*
X142334801Y-124212327D01*
X142568190Y-124309000D01*
X143033750Y-124309000D01*
X143192500Y-124150250D01*
X143192500Y-123051000D01*
X143446500Y-123051000D01*
X143446500Y-124150250D01*
X143605250Y-124309000D01*
X144070810Y-124309000D01*
X144304199Y-124212327D01*
X144482827Y-124033698D01*
X144579500Y-123800309D01*
X144579500Y-123209750D01*
X144420750Y-123051000D01*
X143446500Y-123051000D01*
X143192500Y-123051000D01*
X142218250Y-123051000D01*
X142059500Y-123209750D01*
X141895830Y-123209750D01*
X141895830Y-123105290D01*
X141737080Y-122946540D01*
X140589000Y-122946540D01*
X140335000Y-122946540D01*
X139186920Y-122946540D01*
X139028170Y-123105290D01*
X138974830Y-123105290D01*
X138816080Y-122946540D01*
X137668000Y-122946540D01*
X137414000Y-122946540D01*
X136265920Y-122946540D01*
X136107170Y-123105290D01*
X131606882Y-123105290D01*
X130495052Y-121993460D01*
X136107170Y-121993460D01*
X136107170Y-122533790D01*
X136265920Y-122692540D01*
X137414000Y-122692540D01*
X137414000Y-121643520D01*
X137668000Y-121643520D01*
X137668000Y-122692540D01*
X138816080Y-122692540D01*
X138974830Y-122533790D01*
X138974830Y-121993460D01*
X139028170Y-121993460D01*
X139028170Y-122533790D01*
X139186920Y-122692540D01*
X140335000Y-122692540D01*
X140335000Y-121643520D01*
X140589000Y-121643520D01*
X140589000Y-122692540D01*
X141737080Y-122692540D01*
X141895830Y-122533790D01*
X141895830Y-121993460D01*
X141799157Y-121760071D01*
X141620528Y-121581443D01*
X141387139Y-121484770D01*
X140747750Y-121484770D01*
X140589000Y-121643520D01*
X140335000Y-121643520D01*
X140176250Y-121484770D01*
X139536861Y-121484770D01*
X139303472Y-121581443D01*
X139124843Y-121760071D01*
X139028170Y-121993460D01*
X138974830Y-121993460D01*
X138878157Y-121760071D01*
X138699528Y-121581443D01*
X138466139Y-121484770D01*
X137826750Y-121484770D01*
X137668000Y-121643520D01*
X137414000Y-121643520D01*
X137255250Y-121484770D01*
X136615861Y-121484770D01*
X136382472Y-121581443D01*
X136203843Y-121760071D01*
X136107170Y-121993460D01*
X130495052Y-121993460D01*
X128584616Y-120083024D01*
X127711100Y-118335992D01*
X127711100Y-116467000D01*
X130378133Y-116467000D01*
X130378031Y-116584463D01*
G36*
X158051331Y-116774963D02*
X158199893Y-117134512D01*
X158474741Y-117409840D01*
X158834030Y-117559030D01*
X159223063Y-117559369D01*
X159582612Y-117410807D01*
X159857940Y-117135959D01*
X160007130Y-116776670D01*
X160007400Y-116467000D01*
X160536406Y-116467000D01*
X160883600Y-116814194D01*
X160883600Y-121669706D01*
X160256891Y-122296415D01*
X160256963Y-122213949D01*
X160061323Y-121740464D01*
X159790667Y-121469335D01*
X160060050Y-121200421D01*
X160256516Y-120727279D01*
X160256963Y-120214969D01*
X160061323Y-119741484D01*
X159699381Y-119378910D01*
X159226239Y-119182444D01*
X158713929Y-119181997D01*
X158240444Y-119377637D01*
X157969315Y-119648293D01*
X157706580Y-119385100D01*
X157706580Y-118877980D01*
X157650510Y-118596095D01*
X157568922Y-118473990D01*
X157569069Y-118305337D01*
X157420507Y-117945788D01*
X157296980Y-117822045D01*
X157377327Y-117741698D01*
X157474000Y-117508309D01*
X157474000Y-117067750D01*
X157315250Y-116909000D01*
X156591000Y-116909000D01*
X156591000Y-116929000D01*
X156337000Y-116929000D01*
X156337000Y-116909000D01*
X156317000Y-116909000D01*
X156317000Y-116655000D01*
X156337000Y-116655000D01*
X156337000Y-116635000D01*
X156591000Y-116635000D01*
X156591000Y-116655000D01*
X157315250Y-116655000D01*
X157474000Y-116496250D01*
X157474000Y-116467000D01*
X158051599Y-116467000D01*
X158051331Y-116774963D01*
X158051331Y-116774963D01*
G37*
X158051331Y-116774963D02*
X158199893Y-117134512D01*
X158474741Y-117409840D01*
X158834030Y-117559030D01*
X159223063Y-117559369D01*
X159582612Y-117410807D01*
X159857940Y-117135959D01*
X160007130Y-116776670D01*
X160007400Y-116467000D01*
X160536406Y-116467000D01*
X160883600Y-116814194D01*
X160883600Y-121669706D01*
X160256891Y-122296415D01*
X160256963Y-122213949D01*
X160061323Y-121740464D01*
X159790667Y-121469335D01*
X160060050Y-121200421D01*
X160256516Y-120727279D01*
X160256963Y-120214969D01*
X160061323Y-119741484D01*
X159699381Y-119378910D01*
X159226239Y-119182444D01*
X158713929Y-119181997D01*
X158240444Y-119377637D01*
X157969315Y-119648293D01*
X157706580Y-119385100D01*
X157706580Y-118877980D01*
X157650510Y-118596095D01*
X157568922Y-118473990D01*
X157569069Y-118305337D01*
X157420507Y-117945788D01*
X157296980Y-117822045D01*
X157377327Y-117741698D01*
X157474000Y-117508309D01*
X157474000Y-117067750D01*
X157315250Y-116909000D01*
X156591000Y-116909000D01*
X156591000Y-116929000D01*
X156337000Y-116929000D01*
X156337000Y-116909000D01*
X156317000Y-116909000D01*
X156317000Y-116655000D01*
X156337000Y-116655000D01*
X156337000Y-116635000D01*
X156591000Y-116635000D01*
X156591000Y-116655000D01*
X157315250Y-116655000D01*
X157474000Y-116496250D01*
X157474000Y-116467000D01*
X158051599Y-116467000D01*
X158051331Y-116774963D01*
G36*
X154874000Y-117991000D02*
X154894000Y-117991000D01*
X154894000Y-118245000D01*
X154874000Y-118245000D01*
X154874000Y-118969250D01*
X155032750Y-119128000D01*
X155473309Y-119128000D01*
X155706698Y-119031327D01*
X155739366Y-118998660D01*
X155761493Y-119052212D01*
X156036341Y-119327540D01*
X156216648Y-119402410D01*
X155969063Y-119649563D01*
X155698881Y-119378910D01*
X155225739Y-119182444D01*
X154713429Y-119181997D01*
X154494547Y-119272437D01*
X154350110Y-119128000D01*
X154461250Y-119128000D01*
X154620000Y-118969250D01*
X154620000Y-118245000D01*
X154600000Y-118245000D01*
X154600000Y-117991000D01*
X154620000Y-117991000D01*
X154620000Y-117971000D01*
X154874000Y-117971000D01*
X154874000Y-117991000D01*
X154874000Y-117991000D01*
G37*
X154874000Y-117991000D02*
X154894000Y-117991000D01*
X154894000Y-118245000D01*
X154874000Y-118245000D01*
X154874000Y-118969250D01*
X155032750Y-119128000D01*
X155473309Y-119128000D01*
X155706698Y-119031327D01*
X155739366Y-118998660D01*
X155761493Y-119052212D01*
X156036341Y-119327540D01*
X156216648Y-119402410D01*
X155969063Y-119649563D01*
X155698881Y-119378910D01*
X155225739Y-119182444D01*
X154713429Y-119181997D01*
X154494547Y-119272437D01*
X154350110Y-119128000D01*
X154461250Y-119128000D01*
X154620000Y-118969250D01*
X154620000Y-118245000D01*
X154600000Y-118245000D01*
X154600000Y-117991000D01*
X154620000Y-117991000D01*
X154620000Y-117971000D01*
X154874000Y-117971000D01*
X154874000Y-117991000D01*
G36*
X142310673Y-116621301D02*
X142214000Y-116854690D01*
X142214000Y-117070250D01*
X142372750Y-117229000D01*
X143322000Y-117229000D01*
X143322000Y-117209000D01*
X143576000Y-117209000D01*
X143576000Y-117229000D01*
X143596000Y-117229000D01*
X143596000Y-117483000D01*
X143576000Y-117483000D01*
X143576000Y-117503000D01*
X143322000Y-117503000D01*
X143322000Y-117483000D01*
X142372750Y-117483000D01*
X142214000Y-117641750D01*
X142214000Y-117857310D01*
X142310673Y-118090699D01*
X142489302Y-118269327D01*
X142722691Y-118366000D01*
X142965606Y-118366000D01*
X142726803Y-118604803D01*
X142545104Y-118876734D01*
X142509912Y-119053659D01*
X142508334Y-119061590D01*
X142459183Y-119070838D01*
X142243059Y-119209910D01*
X142165656Y-119323192D01*
X142050226Y-119246064D01*
X141888162Y-119213828D01*
X141863992Y-119085373D01*
X141724920Y-118869249D01*
X141512720Y-118724259D01*
X141285323Y-118678210D01*
X141274444Y-118623515D01*
X141236396Y-118432234D01*
X141054697Y-118160303D01*
X140030200Y-117135806D01*
X140030200Y-116941194D01*
X140419697Y-116551697D01*
X140476290Y-116467000D01*
X142464975Y-116467000D01*
X142310673Y-116621301D01*
X142310673Y-116621301D01*
G37*
X142310673Y-116621301D02*
X142214000Y-116854690D01*
X142214000Y-117070250D01*
X142372750Y-117229000D01*
X143322000Y-117229000D01*
X143322000Y-117209000D01*
X143576000Y-117209000D01*
X143576000Y-117229000D01*
X143596000Y-117229000D01*
X143596000Y-117483000D01*
X143576000Y-117483000D01*
X143576000Y-117503000D01*
X143322000Y-117503000D01*
X143322000Y-117483000D01*
X142372750Y-117483000D01*
X142214000Y-117641750D01*
X142214000Y-117857310D01*
X142310673Y-118090699D01*
X142489302Y-118269327D01*
X142722691Y-118366000D01*
X142965606Y-118366000D01*
X142726803Y-118604803D01*
X142545104Y-118876734D01*
X142509912Y-119053659D01*
X142508334Y-119061590D01*
X142459183Y-119070838D01*
X142243059Y-119209910D01*
X142165656Y-119323192D01*
X142050226Y-119246064D01*
X141888162Y-119213828D01*
X141863992Y-119085373D01*
X141724920Y-118869249D01*
X141512720Y-118724259D01*
X141285323Y-118678210D01*
X141274444Y-118623515D01*
X141236396Y-118432234D01*
X141054697Y-118160303D01*
X140030200Y-117135806D01*
X140030200Y-116941194D01*
X140419697Y-116551697D01*
X140476290Y-116467000D01*
X142464975Y-116467000D01*
X142310673Y-116621301D01*
G36*
X136689931Y-116571763D02*
X136838493Y-116931312D01*
X137113341Y-117206640D01*
X137472630Y-117355830D01*
X137861663Y-117356169D01*
X138221212Y-117207607D01*
X138353800Y-117075250D01*
X138353800Y-117483000D01*
X138417604Y-117803766D01*
X138599303Y-118075697D01*
X139314241Y-118790635D01*
X139211729Y-118856600D01*
X139066739Y-119068800D01*
X139043763Y-119182260D01*
X138961223Y-119182260D01*
X138942992Y-119085373D01*
X138803920Y-118869249D01*
X138591720Y-118724259D01*
X138339830Y-118673250D01*
X136742170Y-118673250D01*
X136506853Y-118717528D01*
X136367557Y-118807163D01*
X134272200Y-116711806D01*
X134272200Y-116467000D01*
X136690022Y-116467000D01*
X136689931Y-116571763D01*
X136689931Y-116571763D01*
G37*
X136689931Y-116571763D02*
X136838493Y-116931312D01*
X137113341Y-117206640D01*
X137472630Y-117355830D01*
X137861663Y-117356169D01*
X138221212Y-117207607D01*
X138353800Y-117075250D01*
X138353800Y-117483000D01*
X138417604Y-117803766D01*
X138599303Y-118075697D01*
X139314241Y-118790635D01*
X139211729Y-118856600D01*
X139066739Y-119068800D01*
X139043763Y-119182260D01*
X138961223Y-119182260D01*
X138942992Y-119085373D01*
X138803920Y-118869249D01*
X138591720Y-118724259D01*
X138339830Y-118673250D01*
X136742170Y-118673250D01*
X136506853Y-118717528D01*
X136367557Y-118807163D01*
X134272200Y-116711806D01*
X134272200Y-116467000D01*
X136690022Y-116467000D01*
X136689931Y-116571763D01*
G36*
X151474430Y-112617630D02*
X151518708Y-112852947D01*
X151657780Y-113069071D01*
X151869980Y-113214061D01*
X151979464Y-113236232D01*
X151925569Y-113315110D01*
X151916398Y-113360400D01*
X151905931Y-113360400D01*
X151833370Y-113330270D01*
X151444337Y-113329931D01*
X151084788Y-113478493D01*
X150809460Y-113753341D01*
X150660270Y-114112630D01*
X150659931Y-114501663D01*
X150808493Y-114861212D01*
X151083341Y-115136540D01*
X151442630Y-115285730D01*
X151831663Y-115286069D01*
X152162013Y-115149572D01*
X152233232Y-115198233D01*
X152070559Y-115302910D01*
X151925569Y-115515110D01*
X151874560Y-115767000D01*
X151874560Y-116827000D01*
X151918838Y-117062317D01*
X151981301Y-117159388D01*
X151795559Y-117278910D01*
X151725531Y-117381400D01*
X149352000Y-117381400D01*
X149070115Y-117437470D01*
X148831145Y-117597145D01*
X148538890Y-117889400D01*
X147879110Y-117889400D01*
X147802600Y-117812890D01*
X147802600Y-116844331D01*
X147840396Y-116787765D01*
X147872782Y-116624948D01*
X147939472Y-116691637D01*
X148172861Y-116788310D01*
X148812250Y-116788310D01*
X148971000Y-116629560D01*
X148971000Y-115580540D01*
X149225000Y-115580540D01*
X149225000Y-116629560D01*
X149383750Y-116788310D01*
X150023139Y-116788310D01*
X150256528Y-116691637D01*
X150435157Y-116513009D01*
X150531830Y-116279620D01*
X150531830Y-115739290D01*
X150373080Y-115580540D01*
X149225000Y-115580540D01*
X148971000Y-115580540D01*
X148951000Y-115580540D01*
X148951000Y-115326540D01*
X148971000Y-115326540D01*
X148971000Y-114277520D01*
X149225000Y-114277520D01*
X149225000Y-115326540D01*
X150373080Y-115326540D01*
X150531830Y-115167790D01*
X150531830Y-114627460D01*
X150435157Y-114394071D01*
X150256528Y-114215443D01*
X150023139Y-114118770D01*
X149383750Y-114118770D01*
X149225000Y-114277520D01*
X148971000Y-114277520D01*
X148812250Y-114118770D01*
X148172861Y-114118770D01*
X147939472Y-114215443D01*
X147904200Y-114250715D01*
X147904200Y-113852899D01*
X148047280Y-113950661D01*
X148299170Y-114001670D01*
X149896830Y-114001670D01*
X150132147Y-113957392D01*
X150348271Y-113818320D01*
X150493261Y-113606120D01*
X150544270Y-113354230D01*
X150544270Y-111958456D01*
X150815540Y-111687659D01*
X150853260Y-111596820D01*
X151136080Y-111596820D01*
X151417965Y-111540750D01*
X151474430Y-111503021D01*
X151474430Y-112617630D01*
X151474430Y-112617630D01*
G37*
X151474430Y-112617630D02*
X151518708Y-112852947D01*
X151657780Y-113069071D01*
X151869980Y-113214061D01*
X151979464Y-113236232D01*
X151925569Y-113315110D01*
X151916398Y-113360400D01*
X151905931Y-113360400D01*
X151833370Y-113330270D01*
X151444337Y-113329931D01*
X151084788Y-113478493D01*
X150809460Y-113753341D01*
X150660270Y-114112630D01*
X150659931Y-114501663D01*
X150808493Y-114861212D01*
X151083341Y-115136540D01*
X151442630Y-115285730D01*
X151831663Y-115286069D01*
X152162013Y-115149572D01*
X152233232Y-115198233D01*
X152070559Y-115302910D01*
X151925569Y-115515110D01*
X151874560Y-115767000D01*
X151874560Y-116827000D01*
X151918838Y-117062317D01*
X151981301Y-117159388D01*
X151795559Y-117278910D01*
X151725531Y-117381400D01*
X149352000Y-117381400D01*
X149070115Y-117437470D01*
X148831145Y-117597145D01*
X148538890Y-117889400D01*
X147879110Y-117889400D01*
X147802600Y-117812890D01*
X147802600Y-116844331D01*
X147840396Y-116787765D01*
X147872782Y-116624948D01*
X147939472Y-116691637D01*
X148172861Y-116788310D01*
X148812250Y-116788310D01*
X148971000Y-116629560D01*
X148971000Y-115580540D01*
X149225000Y-115580540D01*
X149225000Y-116629560D01*
X149383750Y-116788310D01*
X150023139Y-116788310D01*
X150256528Y-116691637D01*
X150435157Y-116513009D01*
X150531830Y-116279620D01*
X150531830Y-115739290D01*
X150373080Y-115580540D01*
X149225000Y-115580540D01*
X148971000Y-115580540D01*
X148951000Y-115580540D01*
X148951000Y-115326540D01*
X148971000Y-115326540D01*
X148971000Y-114277520D01*
X149225000Y-114277520D01*
X149225000Y-115326540D01*
X150373080Y-115326540D01*
X150531830Y-115167790D01*
X150531830Y-114627460D01*
X150435157Y-114394071D01*
X150256528Y-114215443D01*
X150023139Y-114118770D01*
X149383750Y-114118770D01*
X149225000Y-114277520D01*
X148971000Y-114277520D01*
X148812250Y-114118770D01*
X148172861Y-114118770D01*
X147939472Y-114215443D01*
X147904200Y-114250715D01*
X147904200Y-113852899D01*
X148047280Y-113950661D01*
X148299170Y-114001670D01*
X149896830Y-114001670D01*
X150132147Y-113957392D01*
X150348271Y-113818320D01*
X150493261Y-113606120D01*
X150544270Y-113354230D01*
X150544270Y-111958456D01*
X150815540Y-111687659D01*
X150853260Y-111596820D01*
X151136080Y-111596820D01*
X151417965Y-111540750D01*
X151474430Y-111503021D01*
X151474430Y-112617630D01*
G36*
X147671520Y-102541380D02*
X148204920Y-102541380D01*
X148341849Y-102515615D01*
X148469080Y-102541380D01*
X148648539Y-102541380D01*
X148523460Y-102666241D01*
X148374270Y-103025530D01*
X148373931Y-103414563D01*
X148522493Y-103774112D01*
X148797341Y-104049440D01*
X149156630Y-104198630D01*
X149453555Y-104198889D01*
X149453431Y-104341663D01*
X149601993Y-104701212D01*
X149876841Y-104976540D01*
X150236130Y-105125730D01*
X150625163Y-105126069D01*
X150984712Y-104977507D01*
X151260040Y-104702659D01*
X151359600Y-104462892D01*
X151359600Y-104477122D01*
X151503740Y-104477122D01*
X151472226Y-104523244D01*
X151359600Y-104635870D01*
X151359600Y-104743130D01*
X151370339Y-104769057D01*
X151347160Y-104883520D01*
X151347160Y-105416920D01*
X151368882Y-105532362D01*
X151359600Y-105554770D01*
X151359600Y-105662030D01*
X151466578Y-105769008D01*
X151530510Y-105868361D01*
X151648745Y-105949147D01*
X151543159Y-106017090D01*
X151472226Y-106120904D01*
X151391588Y-106201542D01*
X151303659Y-106113460D01*
X150944370Y-105964270D01*
X150555337Y-105963931D01*
X150195788Y-106112493D01*
X149920460Y-106387341D01*
X149895812Y-106446700D01*
X149085300Y-106446700D01*
X148819163Y-106499638D01*
X148547759Y-106227760D01*
X148188470Y-106078570D01*
X147874720Y-106078297D01*
X147874720Y-106045359D01*
X148000212Y-105993507D01*
X148275540Y-105718659D01*
X148424730Y-105359370D01*
X148425069Y-104970337D01*
X148276507Y-104610788D01*
X148001659Y-104335460D01*
X147642370Y-104186270D01*
X147253337Y-104185931D01*
X146893788Y-104334493D01*
X146618460Y-104609341D01*
X146469270Y-104968630D01*
X146469091Y-105173782D01*
X146457590Y-105190995D01*
X146401520Y-105472880D01*
X146401520Y-105699425D01*
X146371507Y-105626788D01*
X146096659Y-105351460D01*
X145737370Y-105202270D01*
X145348337Y-105201931D01*
X145320697Y-105213352D01*
X145309780Y-105211180D01*
X145119014Y-105211180D01*
X145027795Y-105148853D01*
X145133381Y-105080910D01*
X145204314Y-104977096D01*
X145316940Y-104864470D01*
X145316940Y-104757210D01*
X145306201Y-104731283D01*
X145329380Y-104616820D01*
X145329380Y-104579925D01*
X145380063Y-104579969D01*
X145739612Y-104431407D01*
X146014940Y-104156559D01*
X146164130Y-103797270D01*
X146164434Y-103447994D01*
X146319740Y-103292959D01*
X146468930Y-102933670D01*
X146469269Y-102544637D01*
X146467923Y-102541380D01*
X146604720Y-102541380D01*
X146742965Y-102515367D01*
X146871420Y-102541380D01*
X147404820Y-102541380D01*
X147543065Y-102515367D01*
X147671520Y-102541380D01*
X147671520Y-102541380D01*
G37*
X147671520Y-102541380D02*
X148204920Y-102541380D01*
X148341849Y-102515615D01*
X148469080Y-102541380D01*
X148648539Y-102541380D01*
X148523460Y-102666241D01*
X148374270Y-103025530D01*
X148373931Y-103414563D01*
X148522493Y-103774112D01*
X148797341Y-104049440D01*
X149156630Y-104198630D01*
X149453555Y-104198889D01*
X149453431Y-104341663D01*
X149601993Y-104701212D01*
X149876841Y-104976540D01*
X150236130Y-105125730D01*
X150625163Y-105126069D01*
X150984712Y-104977507D01*
X151260040Y-104702659D01*
X151359600Y-104462892D01*
X151359600Y-104477122D01*
X151503740Y-104477122D01*
X151472226Y-104523244D01*
X151359600Y-104635870D01*
X151359600Y-104743130D01*
X151370339Y-104769057D01*
X151347160Y-104883520D01*
X151347160Y-105416920D01*
X151368882Y-105532362D01*
X151359600Y-105554770D01*
X151359600Y-105662030D01*
X151466578Y-105769008D01*
X151530510Y-105868361D01*
X151648745Y-105949147D01*
X151543159Y-106017090D01*
X151472226Y-106120904D01*
X151391588Y-106201542D01*
X151303659Y-106113460D01*
X150944370Y-105964270D01*
X150555337Y-105963931D01*
X150195788Y-106112493D01*
X149920460Y-106387341D01*
X149895812Y-106446700D01*
X149085300Y-106446700D01*
X148819163Y-106499638D01*
X148547759Y-106227760D01*
X148188470Y-106078570D01*
X147874720Y-106078297D01*
X147874720Y-106045359D01*
X148000212Y-105993507D01*
X148275540Y-105718659D01*
X148424730Y-105359370D01*
X148425069Y-104970337D01*
X148276507Y-104610788D01*
X148001659Y-104335460D01*
X147642370Y-104186270D01*
X147253337Y-104185931D01*
X146893788Y-104334493D01*
X146618460Y-104609341D01*
X146469270Y-104968630D01*
X146469091Y-105173782D01*
X146457590Y-105190995D01*
X146401520Y-105472880D01*
X146401520Y-105699425D01*
X146371507Y-105626788D01*
X146096659Y-105351460D01*
X145737370Y-105202270D01*
X145348337Y-105201931D01*
X145320697Y-105213352D01*
X145309780Y-105211180D01*
X145119014Y-105211180D01*
X145027795Y-105148853D01*
X145133381Y-105080910D01*
X145204314Y-104977096D01*
X145316940Y-104864470D01*
X145316940Y-104757210D01*
X145306201Y-104731283D01*
X145329380Y-104616820D01*
X145329380Y-104579925D01*
X145380063Y-104579969D01*
X145739612Y-104431407D01*
X146014940Y-104156559D01*
X146164130Y-103797270D01*
X146164434Y-103447994D01*
X146319740Y-103292959D01*
X146468930Y-102933670D01*
X146469269Y-102544637D01*
X146467923Y-102541380D01*
X146604720Y-102541380D01*
X146742965Y-102515367D01*
X146871420Y-102541380D01*
X147404820Y-102541380D01*
X147543065Y-102515367D01*
X147671520Y-102541380D01*
G36*
X152867054Y-88387919D02*
X153247323Y-88545820D01*
X153659071Y-88546179D01*
X154039615Y-88388942D01*
X154079426Y-88349200D01*
X154750368Y-88349200D01*
X154809645Y-88441319D01*
X154796643Y-88454321D01*
X154699970Y-88687710D01*
X154699970Y-89163270D01*
X154858720Y-89322020D01*
X156207460Y-89322020D01*
X156207460Y-89302020D01*
X156461460Y-89302020D01*
X156461460Y-89322020D01*
X156481460Y-89322020D01*
X156481460Y-89576020D01*
X156461460Y-89576020D01*
X156461460Y-90560270D01*
X156620210Y-90719020D01*
X157460259Y-90719020D01*
X157693648Y-90622347D01*
X157732678Y-90583317D01*
X157735073Y-90589098D01*
X157913701Y-90767727D01*
X158147090Y-90864400D01*
X158362650Y-90864400D01*
X158521400Y-90705650D01*
X158521400Y-89756400D01*
X158501400Y-89756400D01*
X158501400Y-89502400D01*
X158521400Y-89502400D01*
X158521400Y-89482400D01*
X158775400Y-89482400D01*
X158775400Y-89502400D01*
X158795400Y-89502400D01*
X158795400Y-89756400D01*
X158775400Y-89756400D01*
X158775400Y-90705650D01*
X158934150Y-90864400D01*
X159149710Y-90864400D01*
X159383099Y-90767727D01*
X159540288Y-90610538D01*
X159676750Y-90747000D01*
X160401000Y-90747000D01*
X160401000Y-90727000D01*
X160655000Y-90727000D01*
X160655000Y-90747000D01*
X160675000Y-90747000D01*
X160675000Y-91001000D01*
X160655000Y-91001000D01*
X160655000Y-91950250D01*
X160813750Y-92109000D01*
X161029310Y-92109000D01*
X161085682Y-92085650D01*
X161223150Y-92299281D01*
X161387751Y-92411748D01*
X161371470Y-92436115D01*
X161315400Y-92718000D01*
X161315400Y-93334048D01*
X161235799Y-93385270D01*
X161090809Y-93597470D01*
X161039800Y-93849360D01*
X161039800Y-94646920D01*
X161084078Y-94882237D01*
X161170603Y-95016700D01*
X159753300Y-95016700D01*
X159471415Y-95072770D01*
X159232445Y-95232445D01*
X158571890Y-95893000D01*
X157981390Y-95893000D01*
X157981390Y-94810960D01*
X157937112Y-94575643D01*
X157894026Y-94508685D01*
X158105463Y-94508869D01*
X158465012Y-94360307D01*
X158740340Y-94085459D01*
X158889530Y-93726170D01*
X158889869Y-93337137D01*
X158741307Y-92977588D01*
X158721434Y-92957680D01*
X158739785Y-92954030D01*
X158978755Y-92794355D01*
X159138430Y-92555385D01*
X159194500Y-92273500D01*
X159138430Y-91991615D01*
X158978755Y-91752645D01*
X158902555Y-91676445D01*
X158663585Y-91516770D01*
X158381700Y-91460700D01*
X156768800Y-91460700D01*
X156486915Y-91516770D01*
X156247945Y-91676445D01*
X156088270Y-91915415D01*
X156038716Y-92164540D01*
X155334970Y-92164540D01*
X155129227Y-92203253D01*
X155087130Y-91991615D01*
X154927455Y-91752645D01*
X154688485Y-91592970D01*
X154406600Y-91536900D01*
X153022300Y-91536900D01*
X152740415Y-91592970D01*
X152501445Y-91752645D01*
X152386990Y-91867100D01*
X151168100Y-91867100D01*
X150886215Y-91923170D01*
X150647245Y-92082845D01*
X150487570Y-92321815D01*
X150431500Y-92603700D01*
X150487570Y-92885585D01*
X150647245Y-93124555D01*
X150886215Y-93284230D01*
X151168100Y-93340300D01*
X152665155Y-93340300D01*
X152367488Y-93463293D01*
X152187980Y-93642488D01*
X152011170Y-93569070D01*
X151622137Y-93568731D01*
X151262588Y-93717293D01*
X151187167Y-93792582D01*
X150893570Y-93670670D01*
X150504537Y-93670331D01*
X150144988Y-93818893D01*
X149869660Y-94093741D01*
X149720470Y-94453030D01*
X149720131Y-94842063D01*
X149868693Y-95201612D01*
X150143541Y-95476940D01*
X150418800Y-95591238D01*
X150418800Y-97746890D01*
X150304190Y-97861500D01*
X150025105Y-97861500D01*
X150025100Y-97861499D01*
X149789983Y-97908267D01*
X149743215Y-97917570D01*
X149504245Y-98077245D01*
X149015025Y-98566465D01*
X148855350Y-98805435D01*
X148799280Y-99087320D01*
X148799280Y-99505570D01*
X148742456Y-99448746D01*
X148742569Y-99318837D01*
X148594007Y-98959288D01*
X148319159Y-98683960D01*
X148143739Y-98611119D01*
X148339040Y-98416159D01*
X148488230Y-98056870D01*
X148488569Y-97667837D01*
X148340007Y-97308288D01*
X148065159Y-97032960D01*
X147774660Y-96912334D01*
X147774660Y-95607734D01*
X147912697Y-95469697D01*
X147943832Y-95423100D01*
X148094396Y-95197765D01*
X148158200Y-94877000D01*
X148158200Y-91159750D01*
X159518000Y-91159750D01*
X159518000Y-91600309D01*
X159614673Y-91833698D01*
X159793301Y-92012327D01*
X160026690Y-92109000D01*
X160242250Y-92109000D01*
X160401000Y-91950250D01*
X160401000Y-91001000D01*
X159676750Y-91001000D01*
X159518000Y-91159750D01*
X148158200Y-91159750D01*
X148158200Y-89734770D01*
X154699970Y-89734770D01*
X154699970Y-90210330D01*
X154796643Y-90443719D01*
X154975272Y-90622347D01*
X155208661Y-90719020D01*
X156048710Y-90719020D01*
X156207460Y-90560270D01*
X156207460Y-89576020D01*
X154858720Y-89576020D01*
X154699970Y-89734770D01*
X148158200Y-89734770D01*
X148158200Y-89255194D01*
X149064194Y-88349200D01*
X152828402Y-88349200D01*
X152867054Y-88387919D01*
X152867054Y-88387919D01*
G37*
X152867054Y-88387919D02*
X153247323Y-88545820D01*
X153659071Y-88546179D01*
X154039615Y-88388942D01*
X154079426Y-88349200D01*
X154750368Y-88349200D01*
X154809645Y-88441319D01*
X154796643Y-88454321D01*
X154699970Y-88687710D01*
X154699970Y-89163270D01*
X154858720Y-89322020D01*
X156207460Y-89322020D01*
X156207460Y-89302020D01*
X156461460Y-89302020D01*
X156461460Y-89322020D01*
X156481460Y-89322020D01*
X156481460Y-89576020D01*
X156461460Y-89576020D01*
X156461460Y-90560270D01*
X156620210Y-90719020D01*
X157460259Y-90719020D01*
X157693648Y-90622347D01*
X157732678Y-90583317D01*
X157735073Y-90589098D01*
X157913701Y-90767727D01*
X158147090Y-90864400D01*
X158362650Y-90864400D01*
X158521400Y-90705650D01*
X158521400Y-89756400D01*
X158501400Y-89756400D01*
X158501400Y-89502400D01*
X158521400Y-89502400D01*
X158521400Y-89482400D01*
X158775400Y-89482400D01*
X158775400Y-89502400D01*
X158795400Y-89502400D01*
X158795400Y-89756400D01*
X158775400Y-89756400D01*
X158775400Y-90705650D01*
X158934150Y-90864400D01*
X159149710Y-90864400D01*
X159383099Y-90767727D01*
X159540288Y-90610538D01*
X159676750Y-90747000D01*
X160401000Y-90747000D01*
X160401000Y-90727000D01*
X160655000Y-90727000D01*
X160655000Y-90747000D01*
X160675000Y-90747000D01*
X160675000Y-91001000D01*
X160655000Y-91001000D01*
X160655000Y-91950250D01*
X160813750Y-92109000D01*
X161029310Y-92109000D01*
X161085682Y-92085650D01*
X161223150Y-92299281D01*
X161387751Y-92411748D01*
X161371470Y-92436115D01*
X161315400Y-92718000D01*
X161315400Y-93334048D01*
X161235799Y-93385270D01*
X161090809Y-93597470D01*
X161039800Y-93849360D01*
X161039800Y-94646920D01*
X161084078Y-94882237D01*
X161170603Y-95016700D01*
X159753300Y-95016700D01*
X159471415Y-95072770D01*
X159232445Y-95232445D01*
X158571890Y-95893000D01*
X157981390Y-95893000D01*
X157981390Y-94810960D01*
X157937112Y-94575643D01*
X157894026Y-94508685D01*
X158105463Y-94508869D01*
X158465012Y-94360307D01*
X158740340Y-94085459D01*
X158889530Y-93726170D01*
X158889869Y-93337137D01*
X158741307Y-92977588D01*
X158721434Y-92957680D01*
X158739785Y-92954030D01*
X158978755Y-92794355D01*
X159138430Y-92555385D01*
X159194500Y-92273500D01*
X159138430Y-91991615D01*
X158978755Y-91752645D01*
X158902555Y-91676445D01*
X158663585Y-91516770D01*
X158381700Y-91460700D01*
X156768800Y-91460700D01*
X156486915Y-91516770D01*
X156247945Y-91676445D01*
X156088270Y-91915415D01*
X156038716Y-92164540D01*
X155334970Y-92164540D01*
X155129227Y-92203253D01*
X155087130Y-91991615D01*
X154927455Y-91752645D01*
X154688485Y-91592970D01*
X154406600Y-91536900D01*
X153022300Y-91536900D01*
X152740415Y-91592970D01*
X152501445Y-91752645D01*
X152386990Y-91867100D01*
X151168100Y-91867100D01*
X150886215Y-91923170D01*
X150647245Y-92082845D01*
X150487570Y-92321815D01*
X150431500Y-92603700D01*
X150487570Y-92885585D01*
X150647245Y-93124555D01*
X150886215Y-93284230D01*
X151168100Y-93340300D01*
X152665155Y-93340300D01*
X152367488Y-93463293D01*
X152187980Y-93642488D01*
X152011170Y-93569070D01*
X151622137Y-93568731D01*
X151262588Y-93717293D01*
X151187167Y-93792582D01*
X150893570Y-93670670D01*
X150504537Y-93670331D01*
X150144988Y-93818893D01*
X149869660Y-94093741D01*
X149720470Y-94453030D01*
X149720131Y-94842063D01*
X149868693Y-95201612D01*
X150143541Y-95476940D01*
X150418800Y-95591238D01*
X150418800Y-97746890D01*
X150304190Y-97861500D01*
X150025105Y-97861500D01*
X150025100Y-97861499D01*
X149789983Y-97908267D01*
X149743215Y-97917570D01*
X149504245Y-98077245D01*
X149015025Y-98566465D01*
X148855350Y-98805435D01*
X148799280Y-99087320D01*
X148799280Y-99505570D01*
X148742456Y-99448746D01*
X148742569Y-99318837D01*
X148594007Y-98959288D01*
X148319159Y-98683960D01*
X148143739Y-98611119D01*
X148339040Y-98416159D01*
X148488230Y-98056870D01*
X148488569Y-97667837D01*
X148340007Y-97308288D01*
X148065159Y-97032960D01*
X147774660Y-96912334D01*
X147774660Y-95607734D01*
X147912697Y-95469697D01*
X147943832Y-95423100D01*
X148094396Y-95197765D01*
X148158200Y-94877000D01*
X148158200Y-91159750D01*
X159518000Y-91159750D01*
X159518000Y-91600309D01*
X159614673Y-91833698D01*
X159793301Y-92012327D01*
X160026690Y-92109000D01*
X160242250Y-92109000D01*
X160401000Y-91950250D01*
X160401000Y-91001000D01*
X159676750Y-91001000D01*
X159518000Y-91159750D01*
X148158200Y-91159750D01*
X148158200Y-89734770D01*
X154699970Y-89734770D01*
X154699970Y-90210330D01*
X154796643Y-90443719D01*
X154975272Y-90622347D01*
X155208661Y-90719020D01*
X156048710Y-90719020D01*
X156207460Y-90560270D01*
X156207460Y-89576020D01*
X154858720Y-89576020D01*
X154699970Y-89734770D01*
X148158200Y-89734770D01*
X148158200Y-89255194D01*
X149064194Y-88349200D01*
X152828402Y-88349200D01*
X152867054Y-88387919D01*
G36*
X138975812Y-84275193D02*
X138797183Y-84453821D01*
X138700510Y-84687210D01*
X138700510Y-85162770D01*
X138859260Y-85321520D01*
X140208000Y-85321520D01*
X140208000Y-85301520D01*
X140462000Y-85301520D01*
X140462000Y-85321520D01*
X141810740Y-85321520D01*
X141969490Y-85162770D01*
X141969490Y-84687210D01*
X141872817Y-84453821D01*
X141694188Y-84275193D01*
X141545490Y-84213600D01*
X155094615Y-84213600D01*
X154883529Y-84349430D01*
X154738539Y-84561630D01*
X154687530Y-84813520D01*
X154687530Y-86083520D01*
X154731808Y-86318837D01*
X154816035Y-86449730D01*
X154738539Y-86563150D01*
X154716334Y-86672800D01*
X154079798Y-86672800D01*
X154041146Y-86634081D01*
X153660877Y-86476180D01*
X153249129Y-86475821D01*
X152868585Y-86633058D01*
X152828774Y-86672800D01*
X148717000Y-86672800D01*
X148396234Y-86736604D01*
X148124303Y-86918303D01*
X146727303Y-88315303D01*
X146545604Y-88587234D01*
X146545604Y-88587235D01*
X146481800Y-88908000D01*
X146481800Y-89847800D01*
X142344975Y-89847800D01*
X142293646Y-89796381D01*
X141913377Y-89638480D01*
X141501629Y-89638121D01*
X141121085Y-89795358D01*
X140829681Y-90086254D01*
X140671780Y-90466523D01*
X140671606Y-90666584D01*
X140601390Y-90736800D01*
X137657976Y-90736800D01*
X137689437Y-90705339D01*
X137786110Y-90471950D01*
X137786110Y-90181810D01*
X137627360Y-90023060D01*
X136779000Y-90023060D01*
X136779000Y-90043060D01*
X136525000Y-90043060D01*
X136525000Y-90023060D01*
X135676640Y-90023060D01*
X135517890Y-90181810D01*
X135517890Y-90471950D01*
X135614563Y-90705339D01*
X135786538Y-90877313D01*
X135710372Y-90928205D01*
X135673945Y-90952545D01*
X135231570Y-91394920D01*
X135154670Y-91394920D01*
X134919353Y-91439198D01*
X134703229Y-91578270D01*
X134558239Y-91790470D01*
X134507230Y-92042360D01*
X134507230Y-92941520D01*
X134551508Y-93176837D01*
X134605336Y-93260488D01*
X134500559Y-93327910D01*
X134355569Y-93540110D01*
X134304560Y-93792000D01*
X134304560Y-94304046D01*
X134254806Y-94353800D01*
X133564307Y-94353800D01*
X133499671Y-94253354D01*
X133501327Y-94251698D01*
X133598000Y-94018309D01*
X133598000Y-93577750D01*
X133439250Y-93419000D01*
X132715000Y-93419000D01*
X132715000Y-93439000D01*
X132461000Y-93439000D01*
X132461000Y-93419000D01*
X131736750Y-93419000D01*
X131578000Y-93577750D01*
X131578000Y-94018309D01*
X131674673Y-94251698D01*
X131676043Y-94253068D01*
X131616569Y-94340110D01*
X131613797Y-94353800D01*
X131149066Y-94353800D01*
X131221431Y-94247890D01*
X131272440Y-93996000D01*
X131272440Y-92796000D01*
X131229105Y-92565691D01*
X131578000Y-92565691D01*
X131578000Y-93006250D01*
X131736750Y-93165000D01*
X132461000Y-93165000D01*
X132461000Y-92215750D01*
X132715000Y-92215750D01*
X132715000Y-93165000D01*
X133439250Y-93165000D01*
X133598000Y-93006250D01*
X133598000Y-92565691D01*
X133501327Y-92332302D01*
X133322699Y-92153673D01*
X133089310Y-92057000D01*
X132873750Y-92057000D01*
X132715000Y-92215750D01*
X132461000Y-92215750D01*
X132302250Y-92057000D01*
X132086690Y-92057000D01*
X131853301Y-92153673D01*
X131674673Y-92332302D01*
X131578000Y-92565691D01*
X131229105Y-92565691D01*
X131228162Y-92560683D01*
X131089090Y-92344559D01*
X130876890Y-92199569D01*
X130625000Y-92148560D01*
X129725000Y-92148560D01*
X129489683Y-92192838D01*
X129273559Y-92331910D01*
X129128569Y-92544110D01*
X129094642Y-92711645D01*
X129075415Y-92715470D01*
X128836445Y-92875145D01*
X128574645Y-93136945D01*
X128414970Y-93375915D01*
X128358900Y-93657800D01*
X128358900Y-95893000D01*
X127711100Y-95893000D01*
X127711100Y-91731130D01*
X129591699Y-89098291D01*
X130499054Y-90005646D01*
X130729395Y-90159554D01*
X131001100Y-90213600D01*
X131272805Y-90159554D01*
X131503146Y-90005646D01*
X131721329Y-89787463D01*
X138175831Y-89787463D01*
X138324393Y-90147012D01*
X138599241Y-90422340D01*
X138958530Y-90571530D01*
X139347563Y-90571869D01*
X139707112Y-90423307D01*
X139982440Y-90148459D01*
X140131630Y-89789170D01*
X140131745Y-89657665D01*
X140855855Y-88933555D01*
X140876210Y-88903091D01*
X140927414Y-88826460D01*
X141334490Y-88826460D01*
X141569807Y-88782182D01*
X141785931Y-88643110D01*
X141930921Y-88430910D01*
X141981930Y-88179020D01*
X141981930Y-86909020D01*
X141937652Y-86673703D01*
X141822024Y-86494012D01*
X141872817Y-86443219D01*
X141969490Y-86209830D01*
X141969490Y-85734270D01*
X141810740Y-85575520D01*
X140462000Y-85575520D01*
X140462000Y-85595520D01*
X140208000Y-85595520D01*
X140208000Y-85575520D01*
X138859260Y-85575520D01*
X138700510Y-85734270D01*
X138700510Y-86209830D01*
X138797183Y-86443219D01*
X138849495Y-86495531D01*
X138739079Y-86657130D01*
X138688070Y-86909020D01*
X138688070Y-88179020D01*
X138732348Y-88414337D01*
X138871420Y-88630461D01*
X138891456Y-88644151D01*
X138600688Y-88764293D01*
X138325360Y-89039141D01*
X138176170Y-89398430D01*
X138175831Y-89787463D01*
X131721329Y-89787463D01*
X132188622Y-89320170D01*
X135517890Y-89320170D01*
X135517890Y-89610310D01*
X135676640Y-89769060D01*
X136525000Y-89769060D01*
X136525000Y-88970230D01*
X136779000Y-88970230D01*
X136779000Y-89769060D01*
X137627360Y-89769060D01*
X137786110Y-89610310D01*
X137786110Y-89320170D01*
X137689437Y-89086781D01*
X137510808Y-88908153D01*
X137277419Y-88811480D01*
X136937750Y-88811480D01*
X136779000Y-88970230D01*
X136525000Y-88970230D01*
X136366250Y-88811480D01*
X136026581Y-88811480D01*
X135793192Y-88908153D01*
X135614563Y-89086781D01*
X135517890Y-89320170D01*
X132188622Y-89320170D01*
X133503146Y-88005646D01*
X133657054Y-87775305D01*
X133711100Y-87503600D01*
X133657054Y-87231895D01*
X133503146Y-87001554D01*
X132595791Y-86094199D01*
X135228630Y-84213600D01*
X139124510Y-84213600D01*
X138975812Y-84275193D01*
X138975812Y-84275193D01*
G37*
X138975812Y-84275193D02*
X138797183Y-84453821D01*
X138700510Y-84687210D01*
X138700510Y-85162770D01*
X138859260Y-85321520D01*
X140208000Y-85321520D01*
X140208000Y-85301520D01*
X140462000Y-85301520D01*
X140462000Y-85321520D01*
X141810740Y-85321520D01*
X141969490Y-85162770D01*
X141969490Y-84687210D01*
X141872817Y-84453821D01*
X141694188Y-84275193D01*
X141545490Y-84213600D01*
X155094615Y-84213600D01*
X154883529Y-84349430D01*
X154738539Y-84561630D01*
X154687530Y-84813520D01*
X154687530Y-86083520D01*
X154731808Y-86318837D01*
X154816035Y-86449730D01*
X154738539Y-86563150D01*
X154716334Y-86672800D01*
X154079798Y-86672800D01*
X154041146Y-86634081D01*
X153660877Y-86476180D01*
X153249129Y-86475821D01*
X152868585Y-86633058D01*
X152828774Y-86672800D01*
X148717000Y-86672800D01*
X148396234Y-86736604D01*
X148124303Y-86918303D01*
X146727303Y-88315303D01*
X146545604Y-88587234D01*
X146545604Y-88587235D01*
X146481800Y-88908000D01*
X146481800Y-89847800D01*
X142344975Y-89847800D01*
X142293646Y-89796381D01*
X141913377Y-89638480D01*
X141501629Y-89638121D01*
X141121085Y-89795358D01*
X140829681Y-90086254D01*
X140671780Y-90466523D01*
X140671606Y-90666584D01*
X140601390Y-90736800D01*
X137657976Y-90736800D01*
X137689437Y-90705339D01*
X137786110Y-90471950D01*
X137786110Y-90181810D01*
X137627360Y-90023060D01*
X136779000Y-90023060D01*
X136779000Y-90043060D01*
X136525000Y-90043060D01*
X136525000Y-90023060D01*
X135676640Y-90023060D01*
X135517890Y-90181810D01*
X135517890Y-90471950D01*
X135614563Y-90705339D01*
X135786538Y-90877313D01*
X135710372Y-90928205D01*
X135673945Y-90952545D01*
X135231570Y-91394920D01*
X135154670Y-91394920D01*
X134919353Y-91439198D01*
X134703229Y-91578270D01*
X134558239Y-91790470D01*
X134507230Y-92042360D01*
X134507230Y-92941520D01*
X134551508Y-93176837D01*
X134605336Y-93260488D01*
X134500559Y-93327910D01*
X134355569Y-93540110D01*
X134304560Y-93792000D01*
X134304560Y-94304046D01*
X134254806Y-94353800D01*
X133564307Y-94353800D01*
X133499671Y-94253354D01*
X133501327Y-94251698D01*
X133598000Y-94018309D01*
X133598000Y-93577750D01*
X133439250Y-93419000D01*
X132715000Y-93419000D01*
X132715000Y-93439000D01*
X132461000Y-93439000D01*
X132461000Y-93419000D01*
X131736750Y-93419000D01*
X131578000Y-93577750D01*
X131578000Y-94018309D01*
X131674673Y-94251698D01*
X131676043Y-94253068D01*
X131616569Y-94340110D01*
X131613797Y-94353800D01*
X131149066Y-94353800D01*
X131221431Y-94247890D01*
X131272440Y-93996000D01*
X131272440Y-92796000D01*
X131229105Y-92565691D01*
X131578000Y-92565691D01*
X131578000Y-93006250D01*
X131736750Y-93165000D01*
X132461000Y-93165000D01*
X132461000Y-92215750D01*
X132715000Y-92215750D01*
X132715000Y-93165000D01*
X133439250Y-93165000D01*
X133598000Y-93006250D01*
X133598000Y-92565691D01*
X133501327Y-92332302D01*
X133322699Y-92153673D01*
X133089310Y-92057000D01*
X132873750Y-92057000D01*
X132715000Y-92215750D01*
X132461000Y-92215750D01*
X132302250Y-92057000D01*
X132086690Y-92057000D01*
X131853301Y-92153673D01*
X131674673Y-92332302D01*
X131578000Y-92565691D01*
X131229105Y-92565691D01*
X131228162Y-92560683D01*
X131089090Y-92344559D01*
X130876890Y-92199569D01*
X130625000Y-92148560D01*
X129725000Y-92148560D01*
X129489683Y-92192838D01*
X129273559Y-92331910D01*
X129128569Y-92544110D01*
X129094642Y-92711645D01*
X129075415Y-92715470D01*
X128836445Y-92875145D01*
X128574645Y-93136945D01*
X128414970Y-93375915D01*
X128358900Y-93657800D01*
X128358900Y-95893000D01*
X127711100Y-95893000D01*
X127711100Y-91731130D01*
X129591699Y-89098291D01*
X130499054Y-90005646D01*
X130729395Y-90159554D01*
X131001100Y-90213600D01*
X131272805Y-90159554D01*
X131503146Y-90005646D01*
X131721329Y-89787463D01*
X138175831Y-89787463D01*
X138324393Y-90147012D01*
X138599241Y-90422340D01*
X138958530Y-90571530D01*
X139347563Y-90571869D01*
X139707112Y-90423307D01*
X139982440Y-90148459D01*
X140131630Y-89789170D01*
X140131745Y-89657665D01*
X140855855Y-88933555D01*
X140876210Y-88903091D01*
X140927414Y-88826460D01*
X141334490Y-88826460D01*
X141569807Y-88782182D01*
X141785931Y-88643110D01*
X141930921Y-88430910D01*
X141981930Y-88179020D01*
X141981930Y-86909020D01*
X141937652Y-86673703D01*
X141822024Y-86494012D01*
X141872817Y-86443219D01*
X141969490Y-86209830D01*
X141969490Y-85734270D01*
X141810740Y-85575520D01*
X140462000Y-85575520D01*
X140462000Y-85595520D01*
X140208000Y-85595520D01*
X140208000Y-85575520D01*
X138859260Y-85575520D01*
X138700510Y-85734270D01*
X138700510Y-86209830D01*
X138797183Y-86443219D01*
X138849495Y-86495531D01*
X138739079Y-86657130D01*
X138688070Y-86909020D01*
X138688070Y-88179020D01*
X138732348Y-88414337D01*
X138871420Y-88630461D01*
X138891456Y-88644151D01*
X138600688Y-88764293D01*
X138325360Y-89039141D01*
X138176170Y-89398430D01*
X138175831Y-89787463D01*
X131721329Y-89787463D01*
X132188622Y-89320170D01*
X135517890Y-89320170D01*
X135517890Y-89610310D01*
X135676640Y-89769060D01*
X136525000Y-89769060D01*
X136525000Y-88970230D01*
X136779000Y-88970230D01*
X136779000Y-89769060D01*
X137627360Y-89769060D01*
X137786110Y-89610310D01*
X137786110Y-89320170D01*
X137689437Y-89086781D01*
X137510808Y-88908153D01*
X137277419Y-88811480D01*
X136937750Y-88811480D01*
X136779000Y-88970230D01*
X136525000Y-88970230D01*
X136366250Y-88811480D01*
X136026581Y-88811480D01*
X135793192Y-88908153D01*
X135614563Y-89086781D01*
X135517890Y-89320170D01*
X132188622Y-89320170D01*
X133503146Y-88005646D01*
X133657054Y-87775305D01*
X133711100Y-87503600D01*
X133657054Y-87231895D01*
X133503146Y-87001554D01*
X132595791Y-86094199D01*
X135228630Y-84213600D01*
X139124510Y-84213600D01*
X138975812Y-84275193D01*
G36*
X144713460Y-91744241D02*
X144564270Y-92103530D01*
X144564155Y-92235035D01*
X142646245Y-94152945D01*
X142486570Y-94391915D01*
X142430500Y-94673800D01*
X142430500Y-95779750D01*
X142244870Y-95702670D01*
X142113365Y-95702555D01*
X141984470Y-95573660D01*
X141984470Y-94810960D01*
X141940192Y-94575643D01*
X141801120Y-94359519D01*
X141588920Y-94214529D01*
X141337030Y-94163520D01*
X139338050Y-94163520D01*
X139102733Y-94207798D01*
X138999440Y-94274265D01*
X138999440Y-93792000D01*
X138955162Y-93556683D01*
X138816090Y-93340559D01*
X138699602Y-93260966D01*
X138745761Y-93193410D01*
X138796770Y-92941520D01*
X138796770Y-92210000D01*
X140906500Y-92210000D01*
X141188385Y-92153930D01*
X141427355Y-91994255D01*
X141713304Y-91708306D01*
X141911571Y-91708479D01*
X142292115Y-91551242D01*
X142319204Y-91524200D01*
X144933885Y-91524200D01*
X144713460Y-91744241D01*
X144713460Y-91744241D01*
G37*
X144713460Y-91744241D02*
X144564270Y-92103530D01*
X144564155Y-92235035D01*
X142646245Y-94152945D01*
X142486570Y-94391915D01*
X142430500Y-94673800D01*
X142430500Y-95779750D01*
X142244870Y-95702670D01*
X142113365Y-95702555D01*
X141984470Y-95573660D01*
X141984470Y-94810960D01*
X141940192Y-94575643D01*
X141801120Y-94359519D01*
X141588920Y-94214529D01*
X141337030Y-94163520D01*
X139338050Y-94163520D01*
X139102733Y-94207798D01*
X138999440Y-94274265D01*
X138999440Y-93792000D01*
X138955162Y-93556683D01*
X138816090Y-93340559D01*
X138699602Y-93260966D01*
X138745761Y-93193410D01*
X138796770Y-92941520D01*
X138796770Y-92210000D01*
X140906500Y-92210000D01*
X141188385Y-92153930D01*
X141427355Y-91994255D01*
X141713304Y-91708306D01*
X141911571Y-91708479D01*
X142292115Y-91551242D01*
X142319204Y-91524200D01*
X144933885Y-91524200D01*
X144713460Y-91744241D01*
G36*
X165125400Y-91702310D02*
X165125400Y-92098838D01*
X164960559Y-92204910D01*
X164815569Y-92417110D01*
X164785906Y-92563588D01*
X164660815Y-92588470D01*
X164466960Y-92718000D01*
X164434594Y-92739626D01*
X164359259Y-92664160D01*
X163999970Y-92514970D01*
X163657725Y-92514672D01*
X163632370Y-92453306D01*
X163794458Y-92386167D01*
X163973087Y-92207539D01*
X164069760Y-91974150D01*
X164069760Y-91734810D01*
X163911010Y-91576060D01*
X163581820Y-91576060D01*
X163581820Y-91322060D01*
X163911010Y-91322060D01*
X164069760Y-91163310D01*
X164069760Y-90923970D01*
X164039685Y-90851363D01*
X164108567Y-90685477D01*
X165125400Y-91702310D01*
X165125400Y-91702310D01*
G37*
X165125400Y-91702310D02*
X165125400Y-92098838D01*
X164960559Y-92204910D01*
X164815569Y-92417110D01*
X164785906Y-92563588D01*
X164660815Y-92588470D01*
X164466960Y-92718000D01*
X164434594Y-92739626D01*
X164359259Y-92664160D01*
X163999970Y-92514970D01*
X163657725Y-92514672D01*
X163632370Y-92453306D01*
X163794458Y-92386167D01*
X163973087Y-92207539D01*
X164069760Y-91974150D01*
X164069760Y-91734810D01*
X163911010Y-91576060D01*
X163581820Y-91576060D01*
X163581820Y-91322060D01*
X163911010Y-91322060D01*
X164069760Y-91163310D01*
X164069760Y-90923970D01*
X164039685Y-90851363D01*
X164108567Y-90685477D01*
X165125400Y-91702310D01*
M02*
